<svg width="654" height="952" viewBox="0 0 654 952" fill="none" xmlns="http://www.w3.org/2000/svg">
<g clip-path="url(#clip0_221_7240)">
<path d="M400.23 476.124C400.23 477.945 400.193 479.725 400.113 481.504V481.7C400.076 483.008 399.996 484.349 399.875 485.615C399.796 486.801 399.679 487.987 399.557 489.136C399.398 490.799 399.202 492.457 398.964 494.12C398.885 494.554 398.847 495.031 398.768 495.502C398.53 497.086 398.254 498.669 397.936 500.248C397.698 501.514 397.423 502.822 397.147 504.045C396.871 505.353 396.554 506.614 396.236 507.88C395.166 511.953 393.942 515.946 392.518 519.823C392.163 520.813 391.808 521.761 391.41 522.752C390.738 524.452 390.028 526.114 389.276 527.773C388.645 529.235 387.972 530.701 387.258 532.163C386.506 533.704 385.716 535.208 384.885 536.712C384.408 537.623 383.894 538.534 383.38 539.403C382.867 540.272 382.353 541.182 381.839 542.051C381.129 543.2 380.414 544.307 379.704 545.414C378.756 546.839 377.765 548.3 376.775 549.725C376.023 550.753 375.271 551.78 374.519 552.77C373.809 553.719 373.094 554.629 372.384 555.54C370.329 558.072 368.189 560.561 365.937 562.976C364.947 564.004 363.999 565.031 363.009 566.021L362.653 566.376C361.663 567.366 360.635 568.315 359.608 569.263C357.431 571.281 355.179 573.256 352.881 575.078C351.732 576.026 350.587 576.937 349.401 577.806C349.321 577.885 349.242 577.922 349.163 578.002C348.055 578.833 346.906 579.623 345.762 580.412C344.538 581.281 343.309 582.112 342.085 582.901C340.82 583.733 339.554 584.522 338.288 585.274C333.939 587.843 329.468 590.178 324.839 592.276C324.087 592.593 323.335 592.906 322.582 593.224C318.075 595.162 313.403 596.825 308.657 598.17C308.026 598.366 307.354 598.567 306.681 598.726C306.088 598.922 305.495 599.081 304.859 599.24C303.355 599.637 301.814 599.992 300.309 600.309C299.441 600.505 298.53 600.706 297.661 600.865C296.792 601.024 295.881 601.183 295.012 601.337C291.373 601.972 287.655 602.486 283.894 602.761C282.511 602.878 281.045 603 279.625 603.079C279.228 603.079 278.793 603.116 278.359 603.116C276.616 603.196 274.878 603.233 273.099 603.233C271.356 603.233 269.656 603.196 267.918 603.116C265.821 603.037 263.765 602.92 261.747 602.719C260.126 602.603 258.505 602.402 256.88 602.206H256.842C255.38 602.009 253.913 601.808 252.451 601.533C251.858 601.453 251.265 601.374 250.671 601.257C249.961 601.141 249.247 601.019 248.574 600.86C248.415 600.823 248.256 600.823 248.097 600.744C246.36 600.389 244.575 600.029 242.838 599.595C241.137 599.198 239.395 598.726 237.694 598.212C236.27 597.815 234.845 597.381 233.462 596.904C232.593 596.629 231.762 596.348 230.893 596.036C230.183 595.797 229.51 595.559 228.837 595.283C225.675 594.134 222.587 592.831 219.541 591.407C218.117 590.734 216.734 590.062 215.346 589.352C213.884 588.642 212.38 587.848 210.955 587.016C209.61 586.264 208.307 585.475 206.961 584.681C206.289 584.247 205.579 583.85 204.906 583.378C204.233 582.981 203.561 582.509 202.888 582.07C201.701 581.281 200.473 580.449 199.286 579.58C197.862 578.59 196.479 577.563 195.091 576.456C193.825 575.466 192.56 574.438 191.336 573.41C190.186 572.42 189 571.435 187.893 570.402C186.744 569.375 185.599 568.347 184.529 567.278C184.413 567.161 184.291 567.082 184.212 566.96C183.184 565.97 182.194 564.942 181.203 563.915C180.213 562.887 179.227 561.818 178.279 560.753C177.331 559.683 176.383 558.618 175.472 557.511C174.561 556.404 173.65 555.297 172.781 554.148V554.111C164.475 543.434 157.828 531.448 153.241 518.436C148.532 505.227 146 490.949 146 476.114C146 438.104 162.695 404.012 189.117 380.714C191.331 378.776 193.625 376.88 195.96 375.137V375.1C199.282 372.569 202.762 370.158 206.326 368.019C206.84 367.622 207.396 367.305 207.947 366.992C209.372 366.123 210.797 365.329 212.063 364.619C212.973 364.105 213.842 363.629 214.632 363.236C215.146 362.961 215.702 362.681 216.215 362.447C221.359 359.836 226.661 357.622 232.079 355.801C232.869 355.525 233.663 355.245 234.452 355.011C240.899 352.956 247.504 351.41 254.189 350.425C255.259 350.266 256.324 350.107 257.394 349.99C258.818 349.794 260.28 349.635 261.705 349.514C263.485 349.355 265.307 349.238 267.087 349.159C269.105 349.042 271.081 349 273.099 349C274.841 349 276.541 349.037 278.242 349.117C279.984 349.154 281.685 349.276 283.385 349.434C285.127 349.551 286.828 349.752 288.528 349.948H288.566C290.229 350.144 291.929 350.383 293.587 350.663C297.03 351.219 300.431 351.929 303.794 352.76C308.779 353.984 313.646 355.488 318.35 357.309C323.176 359.131 327.842 361.265 332.355 363.638C333.621 364.348 334.887 365.021 336.153 365.735C336.391 365.852 336.629 366.011 336.863 366.132C337.138 366.291 337.377 366.45 337.652 366.609C338.442 367.085 339.273 367.557 340.063 368.033C340.46 368.272 340.852 368.51 341.249 368.823C341.885 369.178 342.515 369.612 343.151 370.046C343.982 370.56 344.771 371.116 345.561 371.667C346.944 372.615 348.331 373.643 349.714 374.675C349.873 374.792 350.069 374.951 350.307 375.109C350.938 375.586 351.811 376.216 352.797 377.01C355.011 378.827 357.188 380.686 359.285 382.704C360.313 383.652 361.303 384.6 362.252 385.553C363.242 386.501 364.19 387.492 365.139 388.482C366.288 389.668 367.432 390.897 368.539 392.162C368.857 392.517 369.212 392.872 369.53 393.269C369.927 393.704 370.282 394.138 370.637 394.614C372.3 396.553 373.879 398.529 375.383 400.588C376.294 401.854 377.205 403.157 378.074 404.465C379.615 406.721 381.082 409.014 382.502 411.387V411.424C383.45 412.966 384.319 414.549 385.151 416.17C385.426 416.567 385.627 416.959 385.823 417.398C386.692 419.019 387.524 420.719 388.313 422.419C389.5 424.909 390.607 427.482 391.597 430.051C392.111 431.359 392.588 432.662 393.059 433.965C393.457 435.072 393.812 436.179 394.167 437.286C394.442 438.155 394.718 438.987 394.956 439.855C396.381 444.601 397.525 449.505 398.357 454.451C398.516 455.32 398.674 456.152 398.754 457.02C398.791 457.1 398.791 457.179 398.791 457.216C398.95 458.085 399.067 458.959 399.146 459.827C399.184 459.986 399.226 460.145 399.226 460.304C399.305 460.939 399.384 461.57 399.464 462.205C399.543 462.84 399.585 463.471 399.623 464.101C399.702 464.615 399.74 465.091 399.782 465.605C399.819 465.96 399.819 466.357 399.861 466.712C400.099 469.799 400.216 472.961 400.216 476.124H400.23Z" fill="#ACB1EE"/>
<path opacity="0.08" d="M1013.05 1011.15C1308.58 1011.15 1548.15 771.581 1548.15 476.053C1548.15 180.525 1308.58 -59.0479 1013.05 -59.0479C717.519 -59.0479 477.945 180.525 477.945 476.053C477.945 771.581 717.519 1011.15 1013.05 1011.15Z" fill="white"/>
<path opacity="0.2" d="M1013.04 939.225C1268.85 939.225 1476.22 731.857 1476.22 476.055C1476.22 220.252 1268.85 12.8838 1013.04 12.8838C757.242 12.8838 549.873 220.252 549.873 476.055C549.873 731.857 757.242 939.225 1013.04 939.225Z" fill="white"/>
<path opacity="0.7" d="M1325.58 788.575C1498.18 615.972 1498.18 336.128 1325.58 163.525C1152.97 -9.07796 873.129 -9.07795 700.526 163.525C527.922 336.128 527.923 615.972 700.526 788.575C873.129 961.178 1152.97 961.178 1325.58 788.575Z" fill="white"/>
<path d="M1429.33 542.112C1465.81 312.206 1309.02 96.2517 1079.11 59.7642C849.203 23.2766 633.248 180.073 596.76 409.979C560.272 639.885 717.069 855.84 946.976 892.327C1176.88 928.815 1392.84 772.018 1429.33 542.112Z" fill="white"/>
</g>
<defs>
<clipPath id="clip0_221_7240">
<rect width="654" height="952" fill="white"/>
</clipPath>
</defs>
</svg>
