<svg width="654" height="952" viewBox="0 0 654 952" fill="none" xmlns="http://www.w3.org/2000/svg">
<g clip-path="url(#clip0_221_7262)">
<path d="M440.074 476.029C440.074 478.481 439.994 480.896 439.915 483.306L439.915 483.581C439.835 485.361 439.756 487.182 439.597 488.882C439.48 490.503 439.322 492.086 439.163 493.627C438.924 495.883 438.686 498.134 438.331 500.39C438.252 500.983 438.172 501.619 438.093 502.249C437.775 504.383 437.383 506.56 436.944 508.694C436.626 510.394 436.271 512.094 435.874 513.837C435.519 515.579 435.085 517.316 434.65 519.016C433.188 524.513 431.567 529.931 429.628 535.19C429.152 536.498 428.638 537.801 428.124 539.146C427.213 541.439 426.265 543.695 425.237 545.951C424.368 547.926 423.458 549.907 422.509 551.882C421.482 553.979 420.412 555.997 419.305 558.015C418.632 559.28 417.959 560.504 417.249 561.653C416.577 562.839 415.867 564.068 415.152 565.254C414.204 566.795 413.255 568.299 412.265 569.803C410.999 571.741 409.654 573.717 408.308 575.655C407.318 577.038 406.29 578.425 405.263 579.77C404.314 581.035 403.324 582.259 402.376 583.525C399.606 586.925 396.719 590.288 393.636 593.571C392.328 594.954 391.024 596.341 389.679 597.686L389.202 598.162C387.857 599.507 386.474 600.81 385.087 602.076C382.121 604.804 379.075 607.494 375.987 609.946C374.446 611.249 372.862 612.477 371.278 613.664C371.162 613.743 371.04 613.822 370.961 613.902C369.457 615.051 367.878 616.116 366.332 617.185C364.669 618.371 363.01 619.478 361.347 620.548C359.647 621.697 357.946 622.762 356.204 623.752C350.351 627.231 344.297 630.398 338.009 633.242C337.019 633.677 335.991 634.074 334.963 634.508C331.918 635.811 328.792 637.039 325.667 638.146C323.49 638.898 321.318 639.65 319.099 640.323C316.451 641.191 313.718 641.943 310.99 642.658C308.935 643.172 306.874 643.685 304.819 644.12C303.553 644.395 302.25 644.671 300.942 644.909C299.872 645.11 298.728 645.306 297.658 645.502C292.716 646.334 287.689 647.043 282.625 647.398C281.677 647.515 280.687 647.595 279.739 647.674C275.861 647.95 271.947 648.071 267.99 648.071C265.654 648.071 263.323 648.034 260.988 647.912C259.526 647.875 258.021 647.795 256.517 647.674C255.214 647.595 253.948 647.478 252.64 647.356C251.533 647.277 250.463 647.198 249.356 647.039C248.249 646.922 247.142 646.801 246.035 646.642H245.997C245.007 646.525 244.021 646.404 243.031 646.245C242.041 646.086 241.055 645.927 240.065 645.731C239.313 645.652 238.523 645.535 237.771 645.376C237.734 645.413 237.692 645.413 237.654 645.376C236.902 645.259 236.15 645.138 235.44 644.979C235.202 644.942 235.006 644.862 234.805 644.82C234.725 644.82 234.609 644.783 234.487 644.783C234.37 644.746 234.249 644.746 234.169 644.662L230.61 643.952C229.423 643.676 228.237 643.396 227.05 643.12C226.023 642.882 224.995 642.644 223.962 642.368C223.766 642.331 223.565 642.252 223.332 642.172C222.225 641.897 221.155 641.579 220.09 641.261C218.151 640.706 216.255 640.112 214.354 639.482C213.919 639.365 213.485 639.206 213.05 639.048C212.34 638.851 211.625 638.613 210.873 638.296C209.925 637.978 209.014 637.66 208.103 637.305C206.048 636.554 203.988 635.722 201.932 634.891C201.535 634.732 201.18 634.573 200.788 634.377C199.008 633.667 197.266 632.873 195.528 632.042C193.589 631.131 191.73 630.22 189.834 629.272C188.965 628.838 188.091 628.404 187.264 627.927C185.209 626.858 183.191 625.713 181.21 624.527C180.299 624.013 179.43 623.458 178.52 622.944C178.085 622.668 177.609 622.351 177.137 622.075C174.923 620.73 172.746 619.268 170.569 617.764C169.737 617.208 168.906 616.615 168.116 616.022C167.168 615.392 166.22 614.677 165.267 613.967C163.445 612.622 161.628 611.24 159.885 609.773C159.017 609.063 158.185 608.349 157.354 607.676C156.564 607.003 155.77 606.331 155.018 605.658C154.228 604.986 153.434 604.313 152.682 603.603C151.893 602.893 151.141 602.221 150.389 601.506C145.96 597.354 141.765 593.001 137.771 588.377C137.099 587.668 136.468 586.916 135.875 586.164C135.478 585.687 135.085 585.216 134.726 584.739C134.529 584.501 134.328 584.263 134.17 584.029C133.497 583.24 132.866 582.446 132.231 581.615L132.231 581.577C132.152 581.54 132.114 581.461 132.114 581.418C130.769 579.676 129.424 577.86 128.12 576.08C126.817 574.221 125.509 572.32 124.243 570.382C122.977 568.486 121.753 566.548 120.562 564.567C119.375 562.587 118.226 560.611 117.119 558.594C116.012 556.576 114.942 554.559 113.915 552.461C112.924 550.406 111.939 548.309 110.99 546.212C110.201 544.512 109.486 542.77 108.776 541.033C107.711 538.501 106.721 535.891 105.81 533.28C100.55 518.526 97.3033 502.828 96.3176 486.491C96.1214 483.011 96 479.532 96 476.01C96 430.688 113.522 389.476 142.204 358.744C146.04 354.592 150.118 350.678 154.35 346.918C157.358 344.307 160.441 341.738 163.604 339.366L163.604 339.329C168.112 335.886 172.82 332.645 177.646 329.759C178.319 329.203 179.071 328.769 179.823 328.334C181.761 327.185 183.7 326.12 185.4 325.13C186.624 324.458 187.811 323.785 188.881 323.271C189.591 322.874 190.343 322.519 191.015 322.202C197.976 318.68 205.137 315.677 212.494 313.183L215.699 312.114C222.267 310.017 228.989 308.317 235.716 307.051C237.93 306.616 240.186 306.219 242.4 305.902C243.863 305.706 245.287 305.505 246.749 305.346C248.688 305.071 250.664 304.832 252.565 304.674C254.976 304.477 257.47 304.319 259.885 304.197C262.613 304.038 265.267 304.001 267.995 304.001C270.368 304.001 272.661 304.038 274.955 304.16C277.328 304.197 279.622 304.356 281.915 304.594C284.288 304.753 286.582 304.991 288.876 305.267H288.913C291.169 305.542 293.463 305.86 295.715 306.257C300.381 307.009 304.969 307.957 309.518 309.064C316.283 310.726 322.85 312.781 329.218 315.233C335.785 317.685 342.073 320.572 348.165 323.776C349.902 324.766 351.607 325.677 353.308 326.625C353.663 326.784 353.98 327.022 354.298 327.181C354.653 327.377 354.971 327.615 355.368 327.811C356.438 328.446 357.545 329.077 358.61 329.749C359.161 330.067 359.68 330.38 360.231 330.819C361.1 331.295 361.931 331.888 362.8 332.482C363.907 333.154 364.977 333.906 366.042 334.658C367.938 335.966 369.798 337.348 371.699 338.731C371.895 338.89 372.175 339.086 372.488 339.324C373.357 339.959 374.506 340.828 375.852 341.893C377.828 343.513 379.808 345.176 381.705 346.955C382.695 347.824 383.681 348.698 384.634 349.604C386.017 350.869 387.362 352.177 388.67 353.438C389.978 354.741 391.281 356.049 392.547 357.394C394.131 359.015 395.672 360.677 397.176 362.377C397.611 362.854 398.087 363.368 398.522 363.881C398.797 364.157 399.036 364.474 399.232 364.792C399.47 365.11 399.746 365.427 399.984 365.703C402.24 368.314 404.375 371.004 406.43 373.769C407.654 375.511 408.883 377.248 410.069 379.028C412.167 382.073 414.143 385.197 416.044 388.401L416.044 388.439C417.347 390.536 418.534 392.67 419.641 394.884C420.038 395.398 420.272 395.953 420.552 396.547C421.738 398.723 422.846 401.016 423.915 403.31C425.536 406.71 427.04 410.189 428.386 413.673C429.059 415.415 429.731 417.195 430.362 418.974C430.876 420.436 431.352 421.94 431.866 423.444C432.221 424.63 432.618 425.737 432.936 426.923C434.122 430.996 435.229 435.148 436.098 439.342C436.649 441.794 437.126 444.246 437.523 446.698C437.761 447.847 437.957 448.992 438.079 450.178C438.116 450.257 438.116 450.374 438.116 450.416C438.313 451.602 438.471 452.789 438.593 453.975C438.672 454.171 438.71 454.372 438.71 454.605C438.826 455.474 438.906 456.306 439.027 457.174C439.144 458.006 439.186 458.874 439.223 459.748C439.261 460.065 439.303 460.42 439.34 460.738C439.378 461.093 439.42 461.448 439.457 461.765C439.457 461.961 439.494 462.2 439.494 462.438C439.532 462.713 439.574 462.994 439.574 463.269C439.891 467.463 440.05 471.732 440.05 476.006L440.074 476.029Z" fill="#10BDF0"/>
<path d="M325.662 638.156C307.621 644.578 288.245 648.057 268.008 648.057C193.117 648.057 129.358 600.157 105.805 533.303C107.944 533.677 110.088 534.373 111.962 535.391C118.814 538.978 123.631 545.4 128.61 551.341C133.59 557.282 139.368 563.223 146.866 565.095C157.143 567.716 169.83 562.685 177.538 569.911C181.607 573.712 183.214 580.293 188.46 582.222C194.243 584.417 200.666 578.528 201.04 572.321C201.469 566.165 197.723 560.439 193.383 555.997C189.1 551.5 184.069 547.646 180.696 542.458C177.379 537.213 176.197 529.88 180 525.009C183.424 520.618 190.011 519.605 195.205 521.585C200.4 523.565 204.361 527.9 207.196 532.72C212.069 540.856 214.157 550.327 218.436 558.73C222.719 567.188 230.32 575.109 239.793 575.268C248.09 575.483 258.049 570.13 263.776 576.179C266.934 579.495 266.775 584.637 267.896 589.078C271.217 602.137 285.241 608.83 297.606 614.126C309.382 619.105 322.504 626.115 325.662 638.156Z" fill="#4AEA00"/>
<path d="M436.118 439.365C433.268 439.445 430.302 439.365 427.139 439.207C422.075 438.968 417.012 438.693 411.948 438.455C409.893 438.338 407.832 438.258 405.777 438.137C400.162 437.861 393.991 437.782 389.282 440.51C388.372 441.023 387.54 441.616 386.751 442.368C384.139 444.858 382.56 448.459 379.356 450.079C376.427 451.504 372.989 450.869 369.742 450.948C359.97 451.186 351.388 458.145 346.521 466.571C342.05 474.282 339.163 482.469 337.384 490.895C333.035 511.183 335.207 532.934 337.267 553.386C337.346 554.058 337.426 554.731 337.426 555.404C337.781 559.042 337.823 562.76 336.277 566.043C334.459 569.919 329.592 572.689 325.794 570.709C324.607 570.116 323.697 569.125 322.944 568.019C322.234 566.991 321.679 565.763 321.127 564.618C318.119 558.131 317.488 551.13 314.718 544.923C310.804 536.142 303.484 538.594 296.126 535.311C290.824 532.939 288.176 526.965 286.91 521.309C286.671 520.202 286.433 519.095 286.237 517.988C285.368 513.36 284.653 508.657 282.439 504.579C281.729 503.314 280.856 502.048 279.552 501.413C278.445 500.857 277.142 500.778 275.913 500.74C268.635 500.581 260.288 501.095 253.168 502.52C246.998 503.785 241.696 508.885 235.371 508.806C224.771 508.647 220.221 494.846 221.487 484.323C222.791 473.805 226.588 462.335 221.249 453.199C212.785 438.725 187.307 440.426 181.374 424.761C175.638 409.493 194.627 396.56 210.687 393.716C226.789 390.83 246.526 389.13 253.411 374.338C256.733 367.178 255.747 359.192 252.977 351.598C251.632 347.8 249.814 344.083 247.913 340.603C242.177 330.239 235.216 319.6 235.651 307.774C235.651 307.536 235.688 307.298 235.73 307.064C237.944 306.63 240.201 306.233 242.415 305.916C243.877 305.719 245.302 305.519 246.764 305.36C248.703 305.084 250.679 304.846 252.58 304.687C254.99 304.491 257.485 304.332 259.9 304.211C262.628 304.052 265.281 304.015 268.009 304.015C270.382 304.015 272.676 304.052 274.97 304.173C277.343 304.211 279.636 304.37 281.93 304.608C284.303 304.767 286.597 305.005 288.89 305.28H288.928C291.184 305.556 293.478 305.874 295.729 306.27C300.396 307.022 304.983 307.971 309.533 309.077C315.942 310.661 322.15 312.557 328.162 314.85C328.517 314.967 328.872 315.126 329.232 315.247C335.8 317.699 342.088 320.586 348.179 323.789C349.917 324.78 351.622 325.69 353.322 326.638C353.677 326.797 353.995 327.035 354.313 327.194C354.668 327.39 354.985 327.629 355.382 327.825C356.452 328.46 357.559 329.09 358.624 329.763C359.176 330.081 359.694 330.394 360.245 330.833C361.114 331.309 361.946 331.902 362.815 332.495C363.922 333.168 364.991 333.92 366.056 334.672C367.953 335.979 369.812 337.362 371.713 338.744C371.91 338.903 372.19 339.099 372.503 339.338C373.372 339.973 374.521 340.841 375.866 341.906C377.842 343.527 379.823 345.19 381.72 346.969C382.71 347.838 383.696 348.711 384.649 349.617C386.031 350.883 387.377 352.191 388.685 353.452C389.993 354.755 391.296 356.063 392.562 357.408C394.145 359.028 395.687 360.691 397.191 362.391C397.626 362.867 398.102 363.381 398.536 363.895C398.812 364.171 399.05 364.488 399.247 364.806C399.485 365.123 399.76 365.441 399.999 365.716C402.255 368.327 404.39 371.017 406.445 373.782C407.669 375.524 408.898 377.262 410.084 379.041C412.181 382.086 414.157 385.211 416.059 388.415L416.059 388.452C417.362 390.549 418.549 392.684 419.656 394.898C420.053 395.411 420.286 395.967 420.567 396.56C421.753 398.737 422.86 401.03 423.93 403.323C425.551 406.723 427.055 410.203 428.4 413.687C429.073 415.429 429.746 417.209 430.376 418.988C430.89 420.45 431.367 421.954 431.881 423.458C432.236 424.644 432.633 425.751 432.95 426.937C433.385 428.441 433.819 429.982 434.216 431.524C434.926 434.097 435.562 436.703 436.113 439.356L436.118 439.365Z" fill="#4AEA00"/>
<path d="M157.834 390.558C155.699 403.136 137.145 405.943 132.282 417.689C127.97 428.17 136.635 439.995 134.496 451.106C132.16 463.25 118.791 469.139 108.546 476.061C104.076 479.069 99.9653 482.585 96.3216 486.504C96.1254 483.024 96.0039 479.545 96.0039 476.023C96.0039 430.701 113.526 389.489 142.208 358.757C143.278 362.633 145.572 366.51 148.062 369.634C153.046 375.846 159.175 382.726 157.834 390.558Z" fill="#4AEA00"/>
<path opacity="0.08" d="M1013.05 1011.15C1308.58 1011.15 1548.15 771.581 1548.15 476.053C1548.15 180.525 1308.58 -59.0479 1013.05 -59.0479C717.519 -59.0479 477.945 180.525 477.945 476.053C477.945 771.581 717.519 1011.15 1013.05 1011.15Z" fill="white"/>
<path opacity="0.2" d="M1013.04 939.225C1268.85 939.225 1476.22 731.857 1476.22 476.055C1476.22 220.252 1268.85 12.8838 1013.04 12.8838C757.242 12.8838 549.873 220.252 549.873 476.055C549.873 731.857 757.242 939.225 1013.04 939.225Z" fill="white"/>
<path opacity="0.7" d="M1325.58 788.575C1498.18 615.972 1498.18 336.128 1325.58 163.525C1152.97 -9.07796 873.129 -9.07795 700.526 163.525C527.922 336.128 527.923 615.972 700.526 788.575C873.129 961.178 1152.97 961.178 1325.58 788.575Z" fill="white"/>
<path d="M1429.33 542.112C1465.81 312.206 1309.02 96.2517 1079.11 59.7642C849.203 23.2766 633.248 180.073 596.76 409.979C560.272 639.885 717.069 855.84 946.976 892.327C1176.88 928.815 1392.84 772.018 1429.33 542.112Z" fill="white"/>
</g>
<defs>
<clipPath id="clip0_221_7262">
<rect width="654" height="952" fill="white"/>
</clipPath>
</defs>
</svg>
