<svg width="654" height="952" viewBox="0 0 654 952" fill="none" xmlns="http://www.w3.org/2000/svg">
<g clip-path="url(#clip0_221_7281)">
<path d="M400.239 476.132C400.239 546.329 343.327 603.24 273.131 603.24C237.689 603.24 205.658 588.75 182.609 565.356C179.111 561.815 175.808 558.054 172.739 554.102C155.978 532.59 146 505.529 146 476.132C146 468.574 146.668 461.184 147.943 453.994C148.807 448.898 149.994 443.928 151.484 439.093C162.154 403.973 187.617 375.291 220.644 360.324C224.035 358.792 227.492 357.386 231.033 356.157C244.206 351.514 258.374 349.01 273.126 349.01C312.174 349.01 347.121 366.612 370.426 394.346C375.845 400.783 380.642 407.78 384.725 415.231C394.619 433.333 400.234 454.088 400.234 476.141L400.239 476.132Z" fill="#EB591B"/>
<path opacity="0.08" d="M1013.05 1011.15C1308.58 1011.15 1548.15 771.581 1548.15 476.053C1548.15 180.525 1308.58 -59.0479 1013.05 -59.0479C717.519 -59.0479 477.945 180.525 477.945 476.053C477.945 771.581 717.519 1011.15 1013.05 1011.15Z" fill="white"/>
<path opacity="0.2" d="M1013.04 939.225C1268.85 939.225 1476.22 731.857 1476.22 476.055C1476.22 220.252 1268.85 12.8838 1013.04 12.8838C757.242 12.8838 549.873 220.252 549.873 476.055C549.873 731.857 757.242 939.225 1013.04 939.225Z" fill="white"/>
<path opacity="0.7" d="M1325.58 788.575C1498.18 615.972 1498.18 336.128 1325.58 163.525C1152.97 -9.07796 873.129 -9.07795 700.526 163.525C527.922 336.128 527.923 615.972 700.526 788.575C873.129 961.178 1152.97 961.178 1325.58 788.575Z" fill="white"/>
<path d="M1429.33 542.112C1465.81 312.206 1309.02 96.2517 1079.11 59.7642C849.203 23.2766 633.248 180.073 596.76 409.979C560.272 639.885 717.069 855.84 946.976 892.327C1176.88 928.815 1392.84 772.018 1429.33 542.112Z" fill="white"/>
</g>
<defs>
<clipPath id="clip0_221_7281">
<rect width="654" height="952" fill="white"/>
</clipPath>
</defs>
</svg>
