<svg width="654" height="952" viewBox="0 0 654 952" fill="none" xmlns="http://www.w3.org/2000/svg">
<g clip-path="url(#clip0_221_7297)">
<path d="M407.595 568.658C458.722 467.307 418.008 343.7 316.658 292.573C215.308 241.446 91.7003 282.16 40.5734 383.511C-10.5535 484.861 30.1607 608.468 131.511 659.595C232.861 710.722 356.468 670.008 407.595 568.658Z" fill="#E68924"/>
<path opacity="0.08" d="M1013.05 1011.15C1308.58 1011.15 1548.15 771.581 1548.15 476.053C1548.15 180.525 1308.58 -59.0479 1013.05 -59.0479C717.519 -59.0479 477.945 180.525 477.945 476.053C477.945 771.581 717.519 1011.15 1013.05 1011.15Z" fill="white"/>
<path opacity="0.2" d="M1013.04 939.225C1268.85 939.225 1476.22 731.857 1476.22 476.055C1476.22 220.252 1268.85 12.8838 1013.04 12.8838C757.242 12.8838 549.873 220.252 549.873 476.055C549.873 731.857 757.242 939.225 1013.04 939.225Z" fill="white"/>
<path opacity="0.7" d="M1325.58 788.575C1498.18 615.972 1498.18 336.128 1325.58 163.525C1152.97 -9.07796 873.129 -9.07795 700.526 163.525C527.922 336.128 527.923 615.972 700.526 788.575C873.129 961.178 1152.97 961.178 1325.58 788.575Z" fill="white"/>
<path d="M1429.33 542.112C1465.81 312.206 1309.02 96.2517 1079.11 59.7642C849.203 23.2766 633.248 180.073 596.76 409.979C560.272 639.885 717.069 855.84 946.976 892.327C1176.88 928.815 1392.84 772.018 1429.33 542.112Z" fill="white"/>
</g>
<defs>
<clipPath id="clip0_221_7297">
<rect width="654" height="952" fill="white"/>
</clipPath>
</defs>
</svg>
