<svg width="654" height="952" viewBox="0 0 654 952" fill="none" xmlns="http://www.w3.org/2000/svg">
<g clip-path="url(#clip0_221_7311)">
<g clip-path="url(#clip1_221_7311)">
<path d="M332.068 583.546C387.746 552.886 408.028 482.896 377.368 427.218C346.709 371.54 276.718 351.258 221.04 381.918C165.362 412.577 145.081 482.568 175.741 538.246C206.4 593.924 276.39 614.205 332.068 583.546Z" fill="#FEC14C"/>
<path d="M390.183 442.972C419.197 455.279 448.659 469.224 473.659 488.692C483.75 496.549 503.394 511.743 498.478 527.096C494.555 539.348 477.436 543.169 466.576 545.162C443.718 549.357 419.797 548.204 396.778 546.115C329.357 539.996 262.085 522.046 199.141 497.499C171.111 486.568 143.437 474.075 117.816 458.21C102.625 448.802 84.5261 437.362 75.6323 421.226C73.1332 416.694 71.5168 411.353 73.1377 406.229C75.2639 399.512 82.0556 395.364 88.1807 392.799C98.5618 388.445 110.291 386.894 121.434 386.085C136.771 384.975 152.214 385.421 167.534 386.567C176.775 387.26 185.994 388.231 195.183 389.429C203.402 390.502 198.367 381.369 193.036 380.673C160.873 376.475 126.526 373.073 94.4454 379.868C79.7319 382.987 58.9853 390.758 61.2333 409.352C63.2695 426.206 79.8847 440.046 92.3928 449.645C115.658 467.494 142.144 481.08 168.837 493C236.007 522.994 308.865 543.654 381.839 553.033C408.831 556.5 436.447 558.554 463.587 555.548C478.046 553.949 497.813 550.921 507.001 538.073C517.083 523.98 504.101 506.78 494.248 496.791C472.926 475.184 444.739 460.222 417.671 447.182C408.885 442.95 399.981 438.974 391.007 435.165C389.033 434.326 385.377 433.878 384.87 436.703C384.366 439.49 388.107 442.086 390.184 442.966L390.183 442.972Z" fill="url(#paint0_radial_221_7311)"/>
<path d="M396.121 463.623C405.321 467.702 489.009 504.381 468.279 523.087C460.172 530.402 445.549 530.728 435.364 531.117C415.043 531.884 394.575 529.805 374.495 526.874C319.489 518.845 265.053 504.118 212.969 484.797C190.374 476.416 167.965 467.124 146.671 455.8C132.691 448.368 117.541 440.158 106.602 428.447C103.651 425.289 100.459 421.268 100.2 417.363C99.8232 411.738 105.059 408.39 109.673 406.542C118.848 402.866 129.414 402.314 139.17 402.093C154.547 401.745 169.932 403.021 185.193 404.823C188.008 405.154 188.94 402.579 187.905 400.395C186.573 397.577 183.158 396.049 180.256 395.707C166.868 394.127 72.4271 383.227 90.9874 420.952C97.535 434.259 112.188 443.734 124.29 451.374C144.914 464.394 167.327 474.685 189.858 483.914C246.463 507.096 306.387 524.264 366.77 534.101C389.13 537.743 411.876 540.564 434.566 540.364C447.72 540.248 464.236 540.06 475.727 532.595C489.276 523.795 480.091 508.973 471.396 500.304C451.137 480.092 422.717 467.257 396.947 455.825C394.984 454.954 391.317 454.562 390.81 457.364C390.3 460.18 394.054 462.711 396.124 463.626L396.121 463.623Z" fill="url(#paint1_radial_221_7311)"/>
</g>
<path opacity="0.08" d="M1013.05 1011.15C1308.58 1011.15 1548.15 771.581 1548.15 476.053C1548.15 180.525 1308.58 -59.0479 1013.05 -59.0479C717.519 -59.0479 477.945 180.525 477.945 476.053C477.945 771.581 717.519 1011.15 1013.05 1011.15Z" fill="white"/>
<path opacity="0.2" d="M1013.04 939.225C1268.85 939.225 1476.22 731.857 1476.22 476.055C1476.22 220.252 1268.85 12.8838 1013.04 12.8838C757.242 12.8838 549.873 220.252 549.873 476.055C549.873 731.857 757.242 939.225 1013.04 939.225Z" fill="white"/>
<path opacity="0.7" d="M1325.58 788.575C1498.18 615.972 1498.18 336.128 1325.58 163.525C1152.97 -9.07796 873.129 -9.07795 700.526 163.525C527.922 336.128 527.923 615.972 700.526 788.575C873.129 961.178 1152.97 961.178 1325.58 788.575Z" fill="white"/>
<path d="M1429.33 542.112C1465.81 312.206 1309.02 96.2517 1079.11 59.7642C849.203 23.2766 633.248 180.073 596.76 409.979C560.272 639.885 717.069 855.84 946.976 892.327C1176.88 928.815 1392.84 772.018 1429.33 542.112Z" fill="white"/>
</g>
<defs>
<radialGradient id="paint0_radial_221_7311" cx="0" cy="0" r="1" gradientUnits="userSpaceOnUse" gradientTransform="translate(285.751 466.83) rotate(46.4983) scale(168.305 168.305)">
<stop stop-color="#F9CD78"/>
<stop offset="1" stop-color="#FFC82A"/>
</radialGradient>
<radialGradient id="paint1_radial_221_7311" cx="0" cy="0" r="1" gradientUnits="userSpaceOnUse" gradientTransform="translate(285.583 466.641) rotate(46.4983) scale(145.996 145.996)">
<stop stop-color="#F9CD78"/>
<stop offset="1" stop-color="#FFC82A"/>
</radialGradient>
<clipPath id="clip0_221_7311">
<rect width="654" height="952" fill="white"/>
</clipPath>
<clipPath id="clip1_221_7311">
<rect width="496.287" height="311.041" fill="white" transform="translate(217.615 189) rotate(46.4983)"/>
</clipPath>
</defs>
</svg>
