<svg width="920" height="334" viewBox="0 0 920 334" fill="none" xmlns="http://www.w3.org/2000/svg">
<path d="M118.638 166.638C118.638 228.846 68.2082 279.276 6 279.276C6 279.276 6 201.09 6 138.882C6 76.6739 6 54 6 54C68.2082 54 118.638 104.43 118.638 166.638Z" fill="white"/>
<circle cx="161.926" cy="166.638" r="2.51" fill="#10BDF0"/>
<circle cx="211.672" cy="166.638" r="6.45695" fill="#10BDF0"/>
<path d="M272.536 166.638C272.536 166.735 272.533 166.831 272.53 166.926V166.937C272.526 167.008 272.523 167.08 272.517 167.147C272.512 167.211 272.506 167.274 272.5 167.335C272.49 167.424 272.481 167.514 272.467 167.603C272.464 167.627 272.46 167.652 272.457 167.677C272.445 167.761 272.429 167.847 272.412 167.932C272.399 167.999 272.385 168.067 272.369 168.136C272.355 168.205 272.338 168.274 272.321 168.341C272.263 168.559 272.199 168.773 272.122 168.982C272.103 169.033 272.083 169.085 272.063 169.138C272.026 169.229 271.989 169.318 271.948 169.408C271.914 169.486 271.878 169.565 271.84 169.643C271.799 169.726 271.757 169.806 271.713 169.886C271.687 169.936 271.66 169.984 271.632 170.03C271.605 170.077 271.577 170.126 271.549 170.173C271.511 170.234 271.474 170.293 271.434 170.353C271.384 170.43 271.331 170.508 271.278 170.585C271.238 170.639 271.198 170.694 271.157 170.748C271.119 170.798 271.08 170.846 271.043 170.896C270.933 171.031 270.819 171.164 270.697 171.294C270.645 171.349 270.593 171.404 270.54 171.457L270.521 171.476C270.468 171.529 270.413 171.581 270.358 171.631C270.24 171.739 270.12 171.846 269.998 171.943C269.936 171.995 269.874 172.043 269.811 172.09C269.806 172.093 269.802 172.097 269.798 172.1C269.739 172.145 269.676 172.187 269.615 172.23C269.549 172.277 269.484 172.321 269.418 172.363C269.35 172.408 269.283 172.451 269.214 172.49C268.982 172.628 268.742 172.753 268.493 172.866C268.454 172.883 268.413 172.899 268.373 172.916C268.252 172.968 268.128 173.016 268.005 173.06C267.918 173.09 267.832 173.12 267.744 173.146C267.64 173.181 267.531 173.211 267.423 173.239C267.342 173.259 267.26 173.28 267.179 173.297C267.129 173.308 267.077 173.319 267.025 173.328C266.983 173.336 266.938 173.344 266.895 173.351C266.699 173.384 266.5 173.413 266.3 173.427C266.262 173.431 266.223 173.434 266.185 173.438C266.032 173.448 265.877 173.453 265.72 173.453C265.628 173.453 265.535 173.452 265.443 173.447C265.385 173.445 265.325 173.442 265.266 173.438C265.214 173.434 265.164 173.43 265.112 173.425C265.068 173.422 265.026 173.419 264.982 173.412C264.938 173.408 264.894 173.403 264.851 173.397H264.849C264.81 173.392 264.771 173.387 264.732 173.381C264.692 173.375 264.653 173.368 264.614 173.361C264.584 173.357 264.553 173.353 264.523 173.346C264.522 173.348 264.52 173.348 264.519 173.346C264.489 173.342 264.459 173.337 264.431 173.331C264.422 173.329 264.414 173.326 264.406 173.324C264.403 173.324 264.398 173.323 264.393 173.323C264.389 173.322 264.384 173.322 264.381 173.318L264.24 173.29C264.193 173.279 264.146 173.268 264.099 173.257C264.058 173.248 264.017 173.238 263.976 173.227C263.969 173.226 263.961 173.223 263.951 173.22C263.908 173.209 263.865 173.196 263.823 173.183C263.746 173.161 263.671 173.138 263.596 173.113C263.579 173.108 263.561 173.102 263.544 173.096C263.516 173.088 263.488 173.079 263.458 173.066C263.42 173.053 263.384 173.041 263.348 173.027C263.267 172.997 263.185 172.964 263.104 172.931C263.088 172.925 263.074 172.919 263.058 172.911C262.988 172.883 262.919 172.851 262.85 172.818C262.773 172.782 262.7 172.746 262.625 172.709C262.59 172.691 262.556 172.674 262.523 172.655C262.441 172.613 262.362 172.568 262.283 172.521C262.247 172.5 262.213 172.478 262.177 172.458C262.159 172.447 262.14 172.434 262.122 172.423C262.034 172.37 261.948 172.312 261.862 172.253C261.829 172.231 261.796 172.207 261.764 172.184C261.727 172.159 261.689 172.13 261.652 172.102C261.579 172.049 261.508 171.994 261.438 171.936C261.404 171.908 261.371 171.88 261.338 171.853C261.307 171.826 261.275 171.8 261.246 171.773C261.214 171.746 261.183 171.72 261.153 171.692C261.122 171.664 261.092 171.637 261.062 171.609C260.887 171.444 260.721 171.272 260.563 171.089C260.536 171.06 260.511 171.031 260.488 171.001C260.472 170.982 260.456 170.963 260.442 170.944C260.434 170.935 260.426 170.926 260.42 170.916C260.393 170.885 260.368 170.854 260.343 170.821V170.819C260.34 170.818 260.339 170.815 260.339 170.813C260.285 170.744 260.232 170.672 260.18 170.601C260.129 170.528 260.077 170.452 260.027 170.376C259.977 170.301 259.928 170.224 259.881 170.145C259.834 170.067 259.789 169.989 259.745 169.909C259.701 169.829 259.658 169.749 259.618 169.666C259.579 169.584 259.539 169.501 259.502 169.418C259.471 169.351 259.442 169.282 259.414 169.213C259.372 169.113 259.333 169.009 259.297 168.906C259.088 168.321 258.96 167.7 258.921 167.052C258.913 166.915 258.908 166.777 258.908 166.637C258.908 164.842 259.602 163.209 260.738 161.992C260.89 161.827 261.052 161.672 261.219 161.523C261.338 161.42 261.461 161.318 261.586 161.224V161.223C261.764 161.086 261.951 160.958 262.142 160.844C262.169 160.822 262.198 160.804 262.228 160.787C262.305 160.742 262.382 160.699 262.449 160.66C262.498 160.634 262.545 160.607 262.587 160.587C262.615 160.571 262.645 160.557 262.671 160.544C262.947 160.405 263.231 160.286 263.522 160.187L263.649 160.145C263.909 160.062 264.175 159.994 264.442 159.944C264.53 159.927 264.619 159.911 264.707 159.899C264.765 159.891 264.821 159.883 264.879 159.877C264.956 159.866 265.034 159.856 265.109 159.85C265.205 159.842 265.303 159.836 265.399 159.831C265.507 159.825 265.612 159.823 265.72 159.823C265.814 159.823 265.905 159.825 265.996 159.83C266.09 159.831 266.181 159.837 266.272 159.847C266.366 159.853 266.457 159.862 266.547 159.873H266.549C266.638 159.884 266.729 159.897 266.818 159.913C267.003 159.942 267.185 159.98 267.365 160.024C267.633 160.09 267.893 160.171 268.145 160.268C268.405 160.365 268.654 160.48 268.896 160.607C268.964 160.646 269.032 160.682 269.099 160.719C269.113 160.726 269.126 160.735 269.139 160.741C269.153 160.749 269.165 160.759 269.181 160.766C269.223 160.792 269.267 160.817 269.309 160.843C269.331 160.856 269.352 160.868 269.373 160.886C269.408 160.904 269.441 160.928 269.475 160.951C269.519 160.978 269.561 161.008 269.604 161.038C269.679 161.089 269.752 161.144 269.828 161.199C269.835 161.205 269.847 161.213 269.859 161.223C269.893 161.248 269.939 161.282 269.992 161.324C270.07 161.388 270.149 161.454 270.224 161.525C270.263 161.559 270.302 161.594 270.34 161.63C270.395 161.68 270.448 161.732 270.5 161.782C270.552 161.833 270.603 161.885 270.653 161.938C270.716 162.003 270.777 162.068 270.837 162.136C270.854 162.155 270.873 162.175 270.89 162.195C270.901 162.206 270.91 162.219 270.918 162.231C270.928 162.244 270.939 162.257 270.948 162.267C271.037 162.371 271.122 162.477 271.203 162.587C271.252 162.656 271.3 162.725 271.347 162.795C271.431 162.916 271.509 163.04 271.584 163.167V163.168C271.636 163.251 271.683 163.336 271.727 163.423C271.742 163.444 271.752 163.466 271.763 163.489C271.81 163.576 271.853 163.666 271.896 163.757C271.96 163.892 272.02 164.03 272.073 164.168C272.1 164.237 272.126 164.307 272.151 164.378C272.171 164.436 272.19 164.495 272.211 164.555C272.225 164.602 272.241 164.646 272.253 164.693C272.3 164.854 272.344 165.019 272.378 165.185C272.4 165.282 272.419 165.379 272.435 165.476C272.444 165.522 272.452 165.567 272.457 165.614C272.458 165.617 272.458 165.622 272.458 165.623C272.466 165.67 272.472 165.717 272.477 165.764C272.48 165.772 272.482 165.78 272.482 165.789C272.486 165.824 272.49 165.857 272.494 165.891C272.499 165.924 272.501 165.958 272.502 165.993C272.504 166.006 272.505 166.02 272.507 166.032C272.508 166.046 272.51 166.06 272.511 166.073C272.511 166.081 272.513 166.09 272.513 166.1C272.514 166.11 272.516 166.122 272.516 166.132C272.529 166.299 272.535 166.468 272.535 166.637L272.536 166.638Z" fill="#10BDF0"/>
<path d="M268.005 173.061C267.29 173.315 266.523 173.453 265.721 173.453C262.755 173.453 260.23 171.555 259.297 168.907C259.382 168.922 259.467 168.949 259.541 168.99C259.812 169.132 260.003 169.386 260.2 169.621C260.397 169.857 260.626 170.092 260.923 170.166C261.33 170.27 261.833 170.071 262.138 170.357C262.299 170.508 262.363 170.768 262.571 170.845C262.8 170.932 263.054 170.698 263.069 170.453C263.086 170.209 262.937 169.982 262.766 169.806C262.596 169.628 262.397 169.475 262.263 169.27C262.132 169.062 262.085 168.771 262.235 168.578C262.371 168.404 262.632 168.364 262.838 168.443C263.043 168.521 263.2 168.693 263.313 168.884C263.506 169.206 263.588 169.581 263.758 169.914C263.927 170.249 264.228 170.563 264.604 170.569C264.932 170.578 265.327 170.366 265.554 170.605C265.679 170.737 265.672 170.94 265.717 171.116C265.848 171.634 266.404 171.899 266.893 172.109C267.36 172.306 267.88 172.584 268.005 173.061Z" fill="#4AEA00"/>
<path d="M272.379 165.185C272.266 165.188 272.149 165.185 272.023 165.179C271.823 165.169 271.622 165.158 271.422 165.149C271.34 165.144 271.259 165.141 271.177 165.136C270.955 165.125 270.711 165.122 270.524 165.23C270.488 165.251 270.455 165.274 270.424 165.304C270.32 165.403 270.258 165.545 270.131 165.609C270.015 165.666 269.879 165.641 269.75 165.644C269.363 165.653 269.023 165.929 268.83 166.263C268.653 166.568 268.539 166.893 268.468 167.226C268.296 168.03 268.382 168.892 268.464 169.702C268.467 169.728 268.47 169.755 268.47 169.782C268.484 169.926 268.486 170.073 268.425 170.203C268.353 170.357 268.16 170.467 268.009 170.388C267.962 170.365 267.926 170.325 267.897 170.281C267.868 170.241 267.846 170.192 267.825 170.147C267.705 169.89 267.681 169.612 267.571 169.367C267.416 169.019 267.126 169.116 266.834 168.986C266.624 168.892 266.52 168.655 266.469 168.431C266.46 168.387 266.451 168.343 266.443 168.3C266.408 168.116 266.38 167.93 266.292 167.768C266.264 167.718 266.23 167.668 266.178 167.643C266.134 167.621 266.083 167.618 266.034 167.616C265.746 167.61 265.415 167.63 265.133 167.687C264.889 167.737 264.679 167.939 264.428 167.936C264.008 167.93 263.828 167.383 263.878 166.966C263.93 166.549 264.08 166.095 263.869 165.733C263.534 165.16 262.524 165.227 262.289 164.606C262.062 164.002 262.814 163.489 263.45 163.377C264.088 163.262 264.87 163.195 265.143 162.609C265.274 162.325 265.235 162.009 265.125 161.708C265.072 161.558 265 161.411 264.925 161.273C264.698 160.862 264.422 160.441 264.439 159.972C264.439 159.963 264.441 159.953 264.442 159.944C264.53 159.927 264.619 159.911 264.707 159.899C264.765 159.891 264.821 159.883 264.879 159.877C264.956 159.866 265.034 159.856 265.11 159.85C265.205 159.842 265.304 159.836 265.4 159.831C265.508 159.825 265.613 159.823 265.721 159.823C265.815 159.823 265.906 159.825 265.996 159.83C266.09 159.831 266.181 159.837 266.272 159.847C266.366 159.853 266.457 159.862 266.548 159.873H266.549C266.639 159.884 266.73 159.897 266.819 159.913C267.004 159.942 267.185 159.98 267.365 160.024C267.619 160.087 267.865 160.162 268.103 160.252C268.117 160.257 268.131 160.263 268.146 160.268C268.406 160.365 268.655 160.48 268.896 160.607C268.965 160.646 269.032 160.682 269.1 160.719C269.114 160.726 269.126 160.735 269.139 160.741C269.153 160.749 269.166 160.759 269.181 160.766C269.224 160.792 269.268 160.817 269.31 160.843C269.332 160.856 269.352 160.868 269.374 160.886C269.408 160.904 269.441 160.928 269.476 160.951C269.52 160.978 269.562 161.008 269.604 161.038C269.679 161.089 269.753 161.144 269.828 161.199C269.836 161.205 269.847 161.213 269.859 161.223C269.894 161.248 269.939 161.282 269.993 161.324C270.071 161.388 270.149 161.454 270.224 161.525C270.264 161.559 270.303 161.594 270.34 161.63C270.395 161.68 270.449 161.732 270.5 161.782C270.552 161.833 270.604 161.885 270.654 161.938C270.717 162.003 270.778 162.068 270.837 162.136C270.854 162.155 270.873 162.175 270.891 162.195C270.901 162.206 270.911 162.219 270.919 162.231C270.928 162.244 270.939 162.257 270.948 162.267C271.038 162.371 271.122 162.477 271.204 162.587C271.252 162.656 271.301 162.725 271.348 162.795C271.431 162.916 271.509 163.04 271.585 163.167V163.168C271.636 163.251 271.683 163.336 271.727 163.423C271.743 163.444 271.752 163.466 271.763 163.489C271.81 163.576 271.854 163.666 271.896 163.757C271.96 163.892 272.02 164.03 272.073 164.168C272.1 164.237 272.127 164.307 272.152 164.378C272.172 164.436 272.191 164.495 272.211 164.555C272.225 164.602 272.241 164.646 272.254 164.693C272.271 164.752 272.288 164.813 272.304 164.874C272.332 164.976 272.357 165.08 272.379 165.185L272.379 165.185Z" fill="#4AEA00"/>
<path d="M261.357 163.252C261.273 163.75 260.538 163.861 260.345 164.327C260.174 164.742 260.517 165.21 260.433 165.651C260.34 166.132 259.811 166.365 259.405 166.639C259.228 166.758 259.065 166.898 258.921 167.053C258.913 166.915 258.908 166.777 258.908 166.638C258.908 164.842 259.602 163.21 260.738 161.992C260.781 162.146 260.871 162.299 260.97 162.423C261.167 162.669 261.41 162.942 261.357 163.252Z" fill="#4AEA00"/>
<circle cx="316.543" cy="166.638" r="3.22848" fill="#10BDF0"/>
<circle cx="436.241" cy="166.638" r="75.6898" fill="#10BDF0"/>
<circle cx="615.126" cy="166.638" r="62.4172" fill="#10BDF0"/>
<circle cx="745.944" cy="166.638" r="27.6214" fill="#10BDF0"/>
<circle cx="840.172" cy="166.638" r="25.8278" fill="#10BDF0"/>
<g clip-path="url(#clip0_220_7166)">
<path d="M251.592 133.566C255.003 137.521 258.486 141.408 262.026 145.243C262.963 146.263 264.221 145.921 265.235 145.196C269.086 142.453 272.911 139.684 276.716 136.884C278.061 135.895 278.351 134.446 277.445 133.385C276.384 132.143 275.178 132.132 273.874 133.09C271.964 134.493 268.802 137.024 266.297 138.918C268.006 113.793 277.452 97.7194 286.389 87.9623C286.824 87.527 287.507 85.673 286.401 84.5664C285.294 83.4598 283.511 84.1989 282.823 84.8868C274.257 94.2655 263.683 111.046 261.7 137.914C259.863 135.838 257.663 133.313 256.25 131.744C255.883 131.335 255.531 130.906 255.132 130.528C254.071 129.524 252.881 129.477 251.814 130.404C250.758 131.315 250.779 132.624 251.592 133.566Z" fill="#10BDF0"/>
</g>
<rect x="3.13024" y="3.13024" width="913.74" height="327.015" stroke="#10BDF0" stroke-width="5.73951"/>
<defs>
<clipPath id="clip0_220_7166">
<rect width="36" height="61.8816" fill="white" transform="matrix(-1 0 0 1 287 84)"/>
</clipPath>
</defs>
</svg>
