<svg width="15" height="15" viewBox="0 0 15 15" fill="none" xmlns="http://www.w3.org/2000/svg">
<path d="M14.5358 7.63796C14.5358 7.7351 14.5327 7.83075 14.5295 7.92622V7.93714C14.5264 8.00763 14.5232 8.07978 14.5169 8.14713C14.5123 8.21133 14.506 8.27405 14.4997 8.33511C14.4903 8.42447 14.4808 8.51365 14.4668 8.60301C14.4636 8.62651 14.4605 8.65167 14.4574 8.67665C14.4448 8.7612 14.4292 8.84742 14.4118 8.93197C14.3993 8.99932 14.3852 9.06666 14.3695 9.13568C14.3554 9.20469 14.3382 9.27351 14.321 9.34086C14.2631 9.55862 14.1989 9.77324 14.1221 9.98157C14.1032 10.0334 14.0829 10.085 14.0625 10.1383C14.0264 10.2291 13.9889 10.3185 13.9482 10.4079C13.9138 10.4861 13.8777 10.5646 13.8401 10.6428C13.7994 10.7259 13.7571 10.8058 13.7132 10.8857C13.6866 10.9359 13.6599 10.9844 13.6318 11.0299C13.6052 11.0769 13.577 11.1255 13.5487 11.1725C13.5112 11.2336 13.4736 11.2932 13.4344 11.3527C13.3843 11.4295 13.331 11.5078 13.2777 11.5846C13.2385 11.6393 13.1978 11.6943 13.1571 11.7476C13.1195 11.7977 13.0803 11.8462 13.0427 11.8963C12.933 12.031 12.8187 12.1642 12.6965 12.2943C12.6447 12.349 12.5931 12.404 12.5398 12.4573L12.521 12.4762C12.4677 12.5294 12.4129 12.5811 12.358 12.6312C12.2405 12.7392 12.1198 12.8458 11.9976 12.943C11.9365 12.9946 11.8738 13.0432 11.8111 13.0902C11.8064 13.0934 11.8016 13.0965 11.7985 13.0997C11.7389 13.1452 11.6764 13.1874 11.6151 13.2297C11.5493 13.2767 11.4836 13.3206 11.4177 13.3629C11.3504 13.4085 11.283 13.4506 11.214 13.4899C10.9822 13.6277 10.7424 13.7531 10.4934 13.8658C10.4541 13.883 10.4134 13.8987 10.3727 13.916C10.2521 13.9676 10.1283 14.0162 10.0046 14.0601C9.91833 14.0899 9.8323 14.1197 9.74442 14.1463C9.63951 14.1807 9.53128 14.2105 9.42323 14.2388C9.34182 14.2592 9.26023 14.2795 9.17882 14.2967C9.12868 14.3076 9.07706 14.3186 9.02526 14.328C8.98289 14.3359 8.93756 14.3437 8.89519 14.3515C8.69944 14.3844 8.50036 14.4125 8.29981 14.4266C8.26225 14.4312 8.22302 14.4344 8.18547 14.4375C8.0319 14.4484 7.87686 14.4532 7.72015 14.4532C7.62764 14.4532 7.53532 14.4518 7.44281 14.447C7.3849 14.4455 7.32532 14.4423 7.26575 14.4375C7.21413 14.4344 7.16399 14.4297 7.11219 14.4249C7.06834 14.4218 7.02597 14.4186 6.98212 14.4124C6.93827 14.4077 6.89442 14.4029 6.85057 14.3966H6.84909C6.80987 14.392 6.77083 14.3872 6.7316 14.3809C6.69238 14.3746 6.65334 14.3683 6.61412 14.3605C6.58433 14.3574 6.55306 14.3528 6.52328 14.3465C6.5218 14.348 6.52013 14.348 6.51865 14.3465C6.48886 14.3419 6.45907 14.3371 6.43095 14.3308C6.42152 14.3293 6.41375 14.3261 6.40579 14.3245C6.40264 14.3245 6.39802 14.323 6.39321 14.323C6.38858 14.3215 6.38377 14.3215 6.38063 14.3182L6.23965 14.2901C6.19265 14.2791 6.14566 14.268 6.09866 14.2571C6.05796 14.2477 6.01725 14.2383 5.97637 14.2273C5.9686 14.2259 5.96064 14.2227 5.95139 14.2196C5.90754 14.2086 5.86517 14.1961 5.82299 14.1835C5.74621 14.1615 5.67109 14.138 5.59579 14.113C5.57858 14.1084 5.56137 14.1021 5.54417 14.0958C5.51604 14.088 5.48774 14.0786 5.45795 14.066C5.42039 14.0534 5.38431 14.0408 5.34823 14.0268C5.26683 13.997 5.18523 13.9641 5.10383 13.9311C5.0881 13.9248 5.07404 13.9185 5.0585 13.9108C4.98801 13.8827 4.919 13.8512 4.85017 13.8183C4.77339 13.7822 4.69975 13.7461 4.62463 13.7085C4.59022 13.6913 4.55562 13.6741 4.52287 13.6553C4.44147 13.6129 4.36154 13.5676 4.28309 13.5206C4.24702 13.5002 4.2126 13.4782 4.17652 13.4579C4.15932 13.4469 4.14044 13.4344 4.12176 13.4234C4.03406 13.3702 3.94784 13.3122 3.86163 13.2527C3.82869 13.2307 3.79576 13.2072 3.76449 13.1837C3.72693 13.1587 3.68937 13.1304 3.65163 13.1023C3.57947 13.049 3.5075 12.9942 3.43849 12.9361C3.40408 12.908 3.37114 12.8797 3.33821 12.853C3.30694 12.8264 3.27549 12.7997 3.2457 12.7731C3.21443 12.7465 3.18298 12.7198 3.15319 12.6917C3.12193 12.6636 3.09214 12.6369 3.06235 12.6086C2.88696 12.4441 2.72081 12.2717 2.56262 12.0885C2.53598 12.0604 2.511 12.0306 2.48751 12.0008C2.47178 11.982 2.45624 11.9633 2.44199 11.9444C2.43422 11.935 2.42626 11.9255 2.41997 11.9163C2.39333 11.885 2.36835 11.8536 2.34319 11.8206V11.8192C2.34005 11.8177 2.33857 11.8145 2.33857 11.8129C2.28528 11.7439 2.232 11.6719 2.18038 11.6014C2.12876 11.5278 2.07695 11.4525 2.02681 11.3757C1.97667 11.3006 1.9282 11.2238 1.88102 11.1453C1.83403 11.0669 1.78851 10.9886 1.74466 10.9087C1.70081 10.8288 1.65844 10.7488 1.61774 10.6658C1.57852 10.5844 1.53948 10.5013 1.50192 10.4182C1.47065 10.3509 1.44234 10.2819 1.41422 10.213C1.37204 10.1127 1.33281 10.0093 1.29674 9.9059C1.08841 9.32143 0.959822 8.69959 0.920783 8.0524C0.913012 7.91456 0.908203 7.77673 0.908203 7.63723C0.908203 5.84182 1.6022 4.20923 2.7382 2.99182C2.8901 2.82734 3.05162 2.6723 3.21925 2.52336C3.3384 2.41994 3.46051 2.31818 3.58577 2.22419V2.22271C3.76431 2.08635 3.9508 1.95795 4.14193 1.84361C4.16857 1.82159 4.19836 1.80439 4.22814 1.78718C4.30493 1.74167 4.38171 1.69948 4.44905 1.66026C4.49753 1.63362 4.54452 1.60697 4.58689 1.58662C4.61501 1.57089 4.6448 1.55683 4.67144 1.54425C4.94712 1.40475 5.23075 1.28578 5.52215 1.18699L5.64907 1.14462C5.90921 1.06154 6.17545 0.994198 6.44187 0.944058C6.52957 0.926852 6.61893 0.911125 6.70663 0.898544C6.76454 0.890773 6.82097 0.882818 6.87888 0.876527C6.95566 0.865611 7.03392 0.856175 7.10922 0.849885C7.20469 0.842114 7.30349 0.835823 7.39915 0.831013C7.50719 0.824722 7.61229 0.823242 7.72034 0.823242C7.81432 0.823242 7.90517 0.824722 7.99601 0.829533C8.09 0.831013 8.18084 0.837303 8.27169 0.846739C8.36567 0.85303 8.45651 0.862466 8.54736 0.873382H8.54884C8.6382 0.884298 8.72905 0.896879 8.81822 0.912605C9.00306 0.942393 9.18474 0.979951 9.36495 1.0238C9.63285 1.08967 9.89299 1.17107 10.1452 1.26821C10.4053 1.36534 10.6543 1.47968 10.8956 1.6066C10.9644 1.64583 11.0319 1.6819 11.0993 1.71946C11.1134 1.72575 11.1259 1.73519 11.1385 1.74148C11.1526 1.74925 11.1652 1.75869 11.1809 1.76646C11.2233 1.79162 11.2671 1.8166 11.3093 1.84324C11.3311 1.85582 11.3517 1.86822 11.3735 1.88561C11.4079 1.90448 11.4408 1.92798 11.4753 1.95147C11.5191 1.97812 11.5615 2.0079 11.6037 2.03769C11.6788 2.0895 11.7524 2.14426 11.8277 2.19903C11.8355 2.20532 11.8466 2.21309 11.859 2.22252C11.8934 2.24769 11.9389 2.2821 11.9922 2.32428C12.0704 2.38848 12.1489 2.45435 12.224 2.52484C12.2632 2.55925 12.3023 2.59385 12.34 2.62975C12.3948 2.67989 12.4481 2.73169 12.4999 2.78164C12.5517 2.83326 12.6033 2.88507 12.6534 2.93835C12.7162 3.00255 12.7772 3.06842 12.8368 3.13577C12.854 3.15464 12.8729 3.17499 12.8901 3.19534C12.901 3.20626 12.9104 3.21884 12.9182 3.23142C12.9276 3.244 12.9385 3.25658 12.948 3.2675C13.0373 3.37092 13.1219 3.47749 13.2033 3.58702C13.2518 3.65603 13.3004 3.72486 13.3474 3.79535C13.4305 3.91598 13.5088 4.03976 13.5841 4.16668V4.16816C13.6357 4.25123 13.6827 4.33579 13.7265 4.42348C13.7423 4.44383 13.7515 4.46585 13.7626 4.48935C13.8096 4.57557 13.8535 4.66641 13.8958 4.75725C13.96 4.89195 14.0196 5.02978 14.0729 5.16781C14.0995 5.23682 14.1262 5.30731 14.1511 5.3778C14.1715 5.43571 14.1904 5.49529 14.2107 5.55486C14.2248 5.60186 14.2405 5.6457 14.2531 5.6927C14.3001 5.85403 14.3439 6.01851 14.3783 6.18466C14.4002 6.28179 14.419 6.37893 14.4348 6.47606C14.4442 6.52157 14.452 6.5669 14.4568 6.6139C14.4583 6.61704 14.4583 6.62167 14.4583 6.62333C14.466 6.67033 14.4723 6.71732 14.4771 6.76432C14.4803 6.77209 14.4818 6.78004 14.4818 6.78929C14.4864 6.82371 14.4895 6.85664 14.4944 6.89105C14.499 6.92399 14.5006 6.9584 14.5021 6.993C14.5036 7.00558 14.5053 7.01964 14.5067 7.03222C14.5082 7.04628 14.5099 7.06034 14.5114 7.07292C14.5114 7.08069 14.5129 7.09013 14.5129 7.09957C14.5143 7.11048 14.516 7.12158 14.516 7.1325C14.5286 7.29864 14.5349 7.46775 14.5349 7.63704L14.5358 7.63796Z" fill="#10BDF0"/>
<path d="M10.0047 14.0605C9.29015 14.3149 8.5227 14.4528 7.72121 14.4528C4.75502 14.4528 2.22973 12.5552 1.29688 9.90689C1.38161 9.92169 1.46653 9.94926 1.54073 9.98959C1.81215 10.1317 2.0029 10.3861 2.20012 10.6214C2.39735 10.8568 2.62622 11.0921 2.92317 11.1663C3.33021 11.2701 3.83271 11.0708 4.13799 11.3571C4.29914 11.5077 4.36279 11.7683 4.57056 11.8448C4.79961 11.9317 5.05401 11.6984 5.06881 11.4525C5.08583 11.2087 4.93745 10.9818 4.76557 10.8059C4.59591 10.6277 4.39665 10.4751 4.26306 10.2695C4.1317 10.0617 4.08489 9.77127 4.2355 9.5783C4.37111 9.40438 4.63199 9.36424 4.83773 9.44268C5.04346 9.52113 5.20036 9.69282 5.31266 9.88376C5.50563 10.2061 5.58834 10.5813 5.75781 10.9141C5.92747 11.2492 6.2285 11.563 6.60371 11.5693C6.9323 11.5778 7.32676 11.3657 7.55359 11.6053C7.67866 11.7367 7.67236 11.9404 7.71677 12.1164C7.84832 12.6337 8.40374 12.8988 8.89348 13.1086C9.3599 13.3058 9.87961 13.5835 10.0047 14.0605Z" fill="#4AEA00"/>
<path d="M14.379 6.18503C14.2661 6.18817 14.1487 6.18503 14.0234 6.17874C13.8228 6.1693 13.6223 6.15839 13.4217 6.14895C13.3403 6.14432 13.2587 6.14118 13.1773 6.13637C12.9549 6.12545 12.7105 6.12231 12.524 6.23036C12.4879 6.25071 12.455 6.27421 12.4237 6.30399C12.3203 6.40261 12.2578 6.54526 12.1309 6.60946C12.0149 6.66589 11.8787 6.64072 11.7501 6.64387C11.363 6.65331 11.0232 6.92898 10.8304 7.26275C10.6533 7.56821 10.539 7.89255 10.4685 8.22632C10.2962 9.03003 10.3823 9.89165 10.4639 10.7018C10.467 10.7285 10.4702 10.7551 10.4702 10.7818C10.4842 10.9259 10.4859 11.0732 10.4246 11.2032C10.3527 11.3568 10.1599 11.4665 10.0095 11.3881C9.96247 11.3646 9.92639 11.3253 9.8966 11.2815C9.86848 11.2408 9.84646 11.1921 9.82463 11.1468C9.70548 10.8898 9.6805 10.6125 9.57079 10.3666C9.41574 10.0188 9.12582 10.1159 8.83442 9.98583C8.62442 9.89184 8.51952 9.6552 8.46938 9.43115C8.45995 9.3873 8.45051 9.34345 8.44274 9.2996C8.40833 9.11625 8.38002 8.92994 8.29232 8.76842C8.2642 8.71828 8.2296 8.66814 8.17798 8.64298C8.13413 8.62096 8.08251 8.61781 8.03385 8.61633C7.7456 8.61004 7.41497 8.63039 7.13301 8.68682C6.8886 8.73696 6.6786 8.939 6.42809 8.93586C6.00829 8.92957 5.82808 8.38284 5.87822 7.966C5.92984 7.54934 6.08026 7.09494 5.86879 6.73305C5.53354 6.15968 4.52445 6.22703 4.28948 5.60648C4.06228 5.00166 4.81438 4.48935 5.45046 4.37667C6.08822 4.26233 6.86991 4.19499 7.14263 3.60904C7.27417 3.32541 7.23513 3.00903 7.12542 2.70819C7.07213 2.55777 7.00016 2.4105 6.92486 2.27266C6.69766 1.86211 6.42199 1.44064 6.43919 0.972181C6.43919 0.962745 6.44067 0.953309 6.44234 0.944058C6.53004 0.926852 6.6194 0.911125 6.7071 0.898544C6.76501 0.890773 6.82144 0.882818 6.87935 0.876527C6.95613 0.865611 7.03439 0.856175 7.10969 0.849885C7.20516 0.842114 7.30396 0.835823 7.39962 0.831013C7.50767 0.824722 7.61275 0.823242 7.7208 0.823242C7.81479 0.823242 7.90564 0.824722 7.99648 0.829533C8.09047 0.831013 8.18131 0.837304 8.27215 0.846739C8.36614 0.85303 8.45699 0.862466 8.54783 0.873382H8.54931C8.63867 0.884298 8.72952 0.896879 8.81869 0.912605C9.00353 0.942393 9.18521 0.979951 9.36542 1.0238C9.61926 1.08652 9.86515 1.16164 10.1033 1.25248C10.1173 1.25711 10.1314 1.2634 10.1456 1.26821C10.4058 1.36534 10.6548 1.47968 10.8961 1.6066C10.9649 1.64583 11.0324 1.68191 11.0998 1.71946C11.1138 1.72575 11.1264 1.73519 11.139 1.74148C11.1531 1.74925 11.1656 1.75869 11.1814 1.76646C11.2237 1.79162 11.2676 1.8166 11.3098 1.84324C11.3316 1.85582 11.3521 1.86822 11.374 1.88561C11.4084 1.90448 11.4413 1.92798 11.4757 1.95147C11.5196 1.97812 11.5619 2.0079 11.6041 2.03769C11.6792 2.0895 11.7529 2.14426 11.8282 2.19903C11.8359 2.20532 11.847 2.21309 11.8594 2.22252C11.8939 2.24769 11.9394 2.2821 11.9927 2.32428C12.0709 2.38848 12.1494 2.45435 12.2245 2.52484C12.2637 2.55925 12.3027 2.59385 12.3405 2.62975C12.3953 2.67989 12.4485 2.73169 12.5003 2.78164C12.5521 2.83326 12.6038 2.88507 12.6539 2.93835C12.7166 3.00255 12.7777 3.06842 12.8373 3.13577C12.8545 3.15464 12.8733 3.17499 12.8905 3.19534C12.9015 3.20626 12.9109 3.21884 12.9187 3.23142C12.9281 3.244 12.939 3.25658 12.9485 3.2675C13.0378 3.37092 13.1224 3.47749 13.2038 3.58702C13.2522 3.65603 13.3009 3.72486 13.3479 3.79535C13.431 3.91598 13.5092 4.03976 13.5845 4.16668V4.16816C13.6362 4.25123 13.6832 4.33579 13.727 4.42348C13.7427 4.44383 13.752 4.46585 13.7631 4.48935C13.8101 4.57557 13.8539 4.66641 13.8963 4.75725C13.9605 4.89195 14.0201 5.02978 14.0734 5.16781C14.1 5.23682 14.1266 5.30731 14.1516 5.3778C14.172 5.43571 14.1908 5.49529 14.2112 5.55486C14.2253 5.60185 14.241 5.6457 14.2536 5.6927C14.2708 5.75227 14.288 5.81333 14.3037 5.87439C14.3318 5.97633 14.357 6.07957 14.3788 6.18466L14.379 6.18503Z" fill="#4AEA00"/>
<path d="M3.35709 4.25197C3.27253 4.75022 2.53765 4.86141 2.34504 5.32673C2.17427 5.74191 2.51748 6.21037 2.43274 6.65052C2.34023 7.13157 1.81071 7.36487 1.40497 7.63907C1.22791 7.75822 1.0651 7.89754 0.920786 8.05277C0.913015 7.91493 0.908203 7.77709 0.908203 7.63759C0.908203 5.84219 1.6022 4.2096 2.7382 2.99219C2.78057 3.14575 2.87142 3.29932 2.97003 3.42309C3.16744 3.66916 3.41019 3.94169 3.35709 4.25197Z" fill="#4AEA00"/>
</svg>
