<svg width="131" height="55" viewBox="0 0 131 55" fill="none" xmlns="http://www.w3.org/2000/svg">
<path d="M54.6613 27.4989C54.6613 27.8885 54.6486 28.2721 54.636 28.6549V28.6987C54.6234 28.9814 54.6108 29.2707 54.5856 29.5408C54.567 29.7983 54.5418 30.0498 54.5166 30.2946C54.4787 30.653 54.4409 31.0106 54.3845 31.369C54.3718 31.4632 54.3592 31.5641 54.3466 31.6643C54.2962 32.0034 54.2338 32.3491 54.1641 32.6882C54.1136 32.9583 54.0572 33.2283 53.9941 33.5051C53.9377 33.7818 53.8687 34.0579 53.7997 34.3279C53.5674 35.2012 53.3099 36.0619 53.002 36.8973C52.9263 37.1051 52.8446 37.3121 52.763 37.5258C52.6183 37.8901 52.4676 38.2484 52.3044 38.6068C52.1664 38.9206 52.0216 39.2352 51.871 39.5491C51.7077 39.8822 51.5378 40.2028 51.3619 40.5233C51.2551 40.7243 51.1482 40.9187 51.0354 41.1013C50.9285 41.2897 50.8158 41.4849 50.7022 41.6733C50.5516 41.9182 50.4009 42.1571 50.2436 42.396C50.0425 42.7039 49.8288 43.0177 49.615 43.3257C49.4577 43.5453 49.2945 43.7656 49.1312 43.9793C48.9806 44.1804 48.8232 44.3748 48.6726 44.5759C48.2325 45.116 47.7739 45.6502 47.2842 46.1718C47.0764 46.3914 46.8693 46.6118 46.6556 46.8255L46.5799 46.9011C46.3662 47.1148 46.1465 47.3218 45.9261 47.5229C45.4549 47.9562 44.9711 48.3836 44.4805 48.7731C44.2357 48.9801 43.9841 49.1753 43.7325 49.3637C43.714 49.3763 43.6947 49.3889 43.6821 49.4016C43.4431 49.5841 43.1923 49.7532 42.9466 49.9231C42.6825 50.1116 42.419 50.2874 42.1548 50.4574C41.8847 50.6399 41.6146 50.809 41.3378 50.9663C40.408 51.5191 39.4462 52.0221 38.4474 52.474C38.29 52.543 38.1268 52.6061 37.9635 52.6751C37.4797 52.8821 36.9832 53.0772 36.4868 53.253C36.1409 53.3725 35.7959 53.492 35.4434 53.5988C35.0226 53.7368 34.5885 53.8563 34.1551 53.9698C33.8286 54.0514 33.5013 54.133 33.1748 54.202C32.9737 54.2458 32.7667 54.2896 32.5589 54.3274C32.3889 54.3593 32.2071 54.3905 32.0372 54.4216C31.2521 54.5537 30.4536 54.6665 29.6491 54.7229C29.4985 54.7414 29.3412 54.754 29.1905 54.7666C28.5746 54.8104 27.9527 54.8297 27.3242 54.8297C26.9531 54.8297 26.5828 54.8238 26.2118 54.8045C25.9795 54.7986 25.7406 54.7859 25.5016 54.7666C25.2946 54.754 25.0935 54.7355 24.8857 54.7162C24.7098 54.7036 24.5399 54.691 24.364 54.6657C24.1881 54.6472 24.0122 54.6279 23.8364 54.6027H23.8304C23.6731 54.5841 23.5165 54.5648 23.3592 54.5396C23.2019 54.5144 23.0453 54.4892 22.888 54.458C22.7685 54.4454 22.6431 54.4268 22.5236 54.4016C22.5177 54.4075 22.511 54.4075 22.5051 54.4016C22.3856 54.3831 22.2661 54.3638 22.1533 54.3385C22.1155 54.3326 22.0843 54.32 22.0524 54.3133C22.0398 54.3133 22.0212 54.3074 22.0019 54.3074C21.9834 54.3014 21.9641 54.3014 21.9515 54.2881L21.386 54.1753C21.1975 54.1315 21.009 54.087 20.8205 54.0432C20.6572 54.0054 20.494 53.9676 20.33 53.9238C20.2988 53.9178 20.2669 53.9052 20.2298 53.8926C20.0539 53.8488 19.884 53.7984 19.7148 53.7479C19.4068 53.6596 19.1056 53.5654 18.8035 53.4653C18.7345 53.4467 18.6655 53.4215 18.5965 53.3962C18.4837 53.3651 18.3701 53.3272 18.2507 53.2768C18.1 53.2263 17.9553 53.1759 17.8106 53.1195C17.4841 53 17.1568 52.868 16.8303 52.7359C16.7672 52.7107 16.7108 52.6855 16.6485 52.6543C16.3658 52.5415 16.089 52.4154 15.8129 52.2833C15.5049 52.1386 15.2096 51.9939 14.9083 51.8433C14.7703 51.7743 14.6315 51.7053 14.5001 51.6296C14.1736 51.4597 13.853 51.278 13.5384 51.0895C13.3937 51.0079 13.2557 50.9196 13.111 50.838C13.0419 50.7942 12.9662 50.7438 12.8913 50.7C12.5395 50.4863 12.1937 50.2541 11.8479 50.0151C11.7158 49.9269 11.5837 49.8326 11.4583 49.7384C11.3077 49.6382 11.157 49.5247 11.0056 49.4119C10.7162 49.1983 10.4276 48.9786 10.1508 48.7457C10.0127 48.6329 9.88063 48.5194 9.74854 48.4125C9.62313 48.3057 9.49697 48.1988 9.3775 48.092C9.25208 47.9851 9.12593 47.8783 9.00645 47.7655C8.88104 47.6528 8.76156 47.5459 8.64209 47.4324C7.93859 46.7728 7.27219 46.0813 6.6377 45.3467C6.53084 45.234 6.43067 45.1145 6.33642 44.9951C6.27334 44.9194 6.21101 44.8444 6.15387 44.7688C6.1227 44.7309 6.09079 44.6931 6.06556 44.656C5.95869 44.5306 5.85852 44.4045 5.75759 44.2724V44.2665C5.74498 44.2605 5.73903 44.2479 5.73903 44.2412C5.52531 43.9645 5.31159 43.6759 5.10455 43.3932C4.89751 43.0979 4.68972 42.7959 4.48862 42.488C4.28751 42.1868 4.09309 41.8788 3.90385 41.5642C3.71536 41.2497 3.53281 40.9358 3.35693 40.6153C3.18106 40.2948 3.01112 39.9742 2.84786 39.6411C2.69054 39.3146 2.53396 38.9815 2.38332 38.6484C2.2579 38.3783 2.14435 38.1015 2.03156 37.8255C1.86236 37.4234 1.70504 37.0086 1.56033 36.5939C0.724741 34.25 0.208991 31.7563 0.0524101 29.1609C0.0212424 28.6082 0.00195312 28.0554 0.00195312 27.496C0.00195312 20.296 2.78552 13.749 7.34195 8.8669C7.9512 8.2073 8.59905 7.58554 9.27139 6.98826C9.74929 6.57351 10.2391 6.16543 10.7415 5.78852V5.78258C11.4576 5.23576 12.2056 4.72084 12.9722 4.26231C13.079 4.17401 13.1985 4.10501 13.318 4.03601C13.626 3.85349 13.9339 3.68432 14.204 3.52703C14.3985 3.42019 14.587 3.31334 14.7569 3.23173C14.8697 3.16866 14.9892 3.11227 15.096 3.06182C16.2018 2.50238 17.3394 2.0253 18.5082 1.6291L19.0172 1.45919C20.0606 1.12605 21.1285 0.855979 22.1971 0.654909C22.5488 0.585907 22.9073 0.52284 23.259 0.472387C23.4913 0.441225 23.7176 0.409321 23.9499 0.384094C24.2579 0.340319 24.5718 0.302479 24.8738 0.277252C25.2567 0.24609 25.653 0.220863 26.0367 0.201572C26.47 0.176346 26.8915 0.17041 27.3249 0.17041C27.7019 0.17041 28.0663 0.176345 28.4306 0.195636C28.8076 0.201572 29.172 0.226799 29.5364 0.264639C29.9133 0.289865 30.2777 0.327705 30.6421 0.371481H30.648C31.0064 0.415256 31.3708 0.465709 31.7285 0.528776C32.4698 0.648231 33.1986 0.798848 33.9214 0.974692C34.9959 1.23883 36.0393 1.56529 37.0507 1.95482C38.0941 2.34435 39.093 2.80288 40.0607 3.31186C40.3367 3.46915 40.6076 3.61384 40.8777 3.76445C40.9341 3.78968 40.9846 3.82752 41.035 3.85275C41.0914 3.88391 41.1419 3.92175 41.205 3.95291C41.3749 4.05382 41.5508 4.15398 41.72 4.26082C41.8075 4.31128 41.8899 4.36099 41.9775 4.43073C42.1155 4.50641 42.2476 4.60064 42.3856 4.69487C42.5615 4.80171 42.7314 4.92117 42.9006 5.04062C43.2019 5.24837 43.4973 5.46799 43.7993 5.68761C43.8305 5.71284 43.875 5.744 43.9247 5.78184C44.0627 5.88274 44.2453 6.02075 44.459 6.18992C44.7729 6.44737 45.0876 6.71151 45.3889 6.9942C45.5462 7.1322 45.7028 7.27095 45.8541 7.41489C46.0738 7.61596 46.2875 7.82371 46.4953 8.02404C46.7031 8.23104 46.9101 8.43879 47.1112 8.65247C47.3628 8.90993 47.6077 9.17407 47.8467 9.44414C47.9157 9.51982 47.9914 9.60144 48.0604 9.68305C48.1042 9.72683 48.142 9.77728 48.1732 9.82773C48.211 9.87819 48.2548 9.92864 48.2926 9.97242C48.6511 10.3872 48.9902 10.8145 49.3167 11.2538C49.5112 11.5305 49.7063 11.8065 49.8948 12.0892C50.228 12.573 50.5419 13.0693 50.844 13.5783V13.5843C51.051 13.9174 51.2395 14.2565 51.4154 14.6082C51.4784 14.6898 51.5155 14.7781 51.5601 14.8723C51.7486 15.2181 51.9244 15.5824 52.0944 15.9467C52.3519 16.4868 52.5908 17.0396 52.8046 17.5931C52.9114 17.8698 53.0183 18.1525 53.1185 18.4352C53.2001 18.6674 53.2758 18.9063 53.3574 19.1452C53.4138 19.3337 53.4769 19.5095 53.5273 19.698C53.7158 20.345 53.8917 21.0046 54.0297 21.6709C54.1173 22.0604 54.193 22.4499 54.2561 22.8395C54.2939 23.022 54.3251 23.2038 54.3444 23.3922C54.3503 23.4048 54.3503 23.4234 54.3503 23.43C54.3815 23.6185 54.4067 23.807 54.426 23.9954C54.4386 24.0266 54.4446 24.0585 54.4446 24.0956C54.4631 24.2336 54.4757 24.3657 54.495 24.5037C54.5136 24.6357 54.5203 24.7737 54.5262 24.9125C54.5321 24.9629 54.5388 25.0193 54.5447 25.0698C54.5507 25.1262 54.5574 25.1826 54.5633 25.233C54.5633 25.2642 54.5692 25.302 54.5692 25.3399C54.5752 25.3836 54.5819 25.4281 54.5819 25.4719C54.6323 26.1382 54.6575 26.8163 54.6575 27.4952L54.6613 27.4989Z" fill="#10BDF0"/>
<path d="M36.485 53.2545C33.619 54.2747 30.5409 54.8274 27.3261 54.8274C15.429 54.8274 5.30021 47.2179 1.55859 36.5975C1.89847 36.6569 2.23908 36.7674 2.53666 36.9292C3.62531 37.499 4.3904 38.5192 5.18146 39.463C5.97253 40.4067 6.8905 41.3505 8.08155 41.648C9.71415 42.0643 11.7297 41.2652 12.9541 42.413C13.6005 43.017 13.8557 44.0624 14.6891 44.3688C15.6078 44.7175 16.6282 43.7819 16.6876 42.7959C16.7558 41.818 16.1607 40.9083 15.4713 40.2027C14.7908 39.4882 13.9915 38.8761 13.4558 38.0518C12.9289 37.2186 12.7411 36.0537 13.3452 35.2798C13.8891 34.5824 14.9355 34.4214 15.7607 34.736C16.5859 35.0506 17.2152 35.7391 17.6656 36.5048C18.4396 37.7973 18.7713 39.302 19.4511 40.6368C20.1316 41.9804 21.339 43.2388 22.8439 43.264C24.1619 43.2982 25.744 42.4479 26.6538 43.4087C27.1555 43.9355 27.1302 44.7524 27.3083 45.458C27.836 47.5325 30.0637 48.5957 32.028 49.4371C33.8988 50.228 35.9833 51.3417 36.485 53.2545Z" fill="#4AEA00"/>
<path d="M54.033 21.6743C53.5803 21.6869 53.1091 21.6743 52.6067 21.6491C51.8023 21.6112 50.9978 21.5675 50.1934 21.5296C49.8669 21.5111 49.5396 21.4985 49.2131 21.4792C48.3211 21.4354 47.3408 21.4228 46.5928 21.8561C46.4481 21.9377 46.316 22.0319 46.1906 22.1514C45.7758 22.5468 45.5249 23.1189 45.0158 23.3764C44.5506 23.6027 44.0044 23.5017 43.4886 23.5144C41.9362 23.5522 40.573 24.6577 39.7997 25.9962C39.0895 27.2212 38.6309 28.5218 38.3482 29.8603C37.6573 33.0834 38.0024 36.5387 38.3296 39.7877C38.3422 39.8946 38.3549 40.0014 38.3549 40.1082C38.4113 40.6862 38.4179 41.2768 38.1723 41.7984C37.8836 42.4143 37.1104 42.8542 36.5071 42.5396C36.3186 42.4454 36.1739 42.2881 36.0544 42.1123C35.9416 41.949 35.8533 41.7539 35.7657 41.5721C35.2878 40.5416 35.1876 39.4294 34.7476 38.4433C34.1257 37.0484 32.9628 37.4379 31.794 36.9163C30.9518 36.5394 30.531 35.5905 30.3299 34.692C30.2921 34.5161 30.2542 34.3403 30.2231 34.1644C30.085 33.4291 29.9715 32.682 29.6197 32.0343C29.5069 31.8332 29.3682 31.6321 29.1611 31.5312C28.9852 31.4429 28.7782 31.4303 28.583 31.4244C27.4269 31.3991 26.1007 31.4808 24.9698 31.7071C23.9895 31.9081 23.1472 32.7183 22.1424 32.7057C20.4586 32.6805 19.7358 30.488 19.937 28.8164C20.144 27.1455 20.7473 25.3232 19.8991 23.872C18.5544 21.5727 14.5071 21.8427 13.5646 19.3542C12.6533 16.9287 15.6699 14.8743 18.2212 14.4224C20.7792 13.9639 23.9145 13.6938 25.0084 11.344C25.536 10.2066 25.3794 8.93785 24.9394 7.73143C24.7257 7.12822 24.437 6.53762 24.1349 5.98486C23.2237 4.33846 22.118 2.64828 22.187 0.76964C22.187 0.7318 22.1929 0.69396 22.1996 0.656862C22.5513 0.58786 22.9098 0.524794 23.2615 0.474341C23.4938 0.443178 23.7201 0.411274 23.9524 0.386047C24.2604 0.342272 24.5743 0.304432 24.8763 0.279205C25.2592 0.248043 25.6555 0.222817 26.0392 0.203526C26.4725 0.1783 26.894 0.172363 27.3274 0.172363C27.7044 0.172363 28.0688 0.178299 28.4331 0.19759C28.8101 0.203526 29.1745 0.228753 29.5388 0.266593C29.9158 0.291819 30.2802 0.329659 30.6446 0.373434H30.6505C31.0089 0.41721 31.3733 0.467663 31.731 0.530729C32.4723 0.650185 33.2011 0.800802 33.9238 0.976646C34.942 1.22817 35.9282 1.5294 36.8833 1.89371C36.9397 1.91225 36.9961 1.93748 37.0532 1.95677C38.0966 2.3463 39.0955 2.80483 40.0631 3.31381C40.3392 3.47111 40.6101 3.61579 40.8802 3.76641C40.9366 3.79163 40.9871 3.82947 41.0375 3.8547C41.0939 3.88586 41.1444 3.9237 41.2074 3.95486C41.3774 4.05577 41.5533 4.15594 41.7225 4.26278C41.81 4.31323 41.8924 4.36294 41.98 4.43269C42.118 4.50837 42.2501 4.60259 42.3881 4.69682C42.564 4.80366 42.7339 4.92312 42.9031 5.04258C43.2044 5.25032 43.4998 5.46994 43.8018 5.68956C43.833 5.71479 43.8775 5.74595 43.9272 5.78379C44.0652 5.8847 44.2478 6.0227 44.4615 6.19187C44.7754 6.44933 45.0901 6.71346 45.3913 6.99615C45.5487 7.13415 45.7053 7.2729 45.8566 7.41684C46.0763 7.61791 46.29 7.82566 46.4978 8.02599C46.7056 8.23299 46.9126 8.44074 47.1137 8.65443C47.3653 8.91189 47.6102 9.17602 47.8491 9.44609C47.9182 9.52177 47.9939 9.60339 48.0629 9.68501C48.1066 9.72878 48.1445 9.77923 48.1757 9.82969C48.2135 9.88014 48.2573 9.93059 48.2951 9.97437C48.6536 10.3891 48.9927 10.8165 49.3192 11.2557C49.5136 11.5325 49.7088 11.8085 49.8973 12.0912C50.2305 12.5749 50.5444 13.0713 50.8464 13.5803V13.5862C51.0535 13.9194 51.242 14.2584 51.4178 14.6101C51.4809 14.6917 51.518 14.78 51.5626 14.8743C51.751 15.22 51.9269 15.5843 52.0969 15.9486C52.3544 16.4888 52.5933 17.0415 52.807 17.595C52.9139 17.8718 53.0208 18.1545 53.1209 18.4371C53.2026 18.6694 53.2783 18.9083 53.3599 19.1472C53.4163 19.3357 53.4794 19.5115 53.5298 19.7C53.5989 19.9389 53.6679 20.1837 53.7309 20.4286C53.8437 20.8374 53.9447 21.2514 54.0322 21.6728L54.033 21.6743Z" fill="#4AEA00"/>
<path d="M9.82425 13.9211C9.48511 15.9192 6.53754 16.3651 5.76502 18.2312C5.08007 19.8961 6.45665 21.7748 6.11677 23.5399C5.74573 25.469 3.62186 26.4046 1.99446 27.5042C1.28428 27.982 0.631251 28.5407 0.0524214 29.1632C0.0212537 28.6104 0.00195312 28.0577 0.00195312 27.4982C0.00195312 20.2983 2.78553 13.7512 7.34196 8.86914C7.5119 9.48497 7.87626 10.1008 8.27179 10.5972C9.0636 11.584 10.0372 12.6769 9.82425 13.9211Z" fill="#4AEA00"/>
<path d="M69.1943 27.3642H61.3124V25.9868H69.1943V27.3642ZM69.1943 31.5921H61.3124V30.2147H69.1943V31.5921Z" fill="#10BDF0"/>
<path d="M103.112 54.8281C87.9285 54.6646 75.7013 42.3634 75.841 27.4698C75.984 12.2321 88.2176 0.0611632 103.344 0.17115C118.78 0.283367 130.624 12.7733 130.498 27.6077C130.369 42.8334 118.02 54.9887 103.112 54.8281ZM79.9524 17.2343C79.7307 17.8771 79.5106 18.5204 79.2868 19.1625C77.7729 23.5043 77.3751 27.9665 78.3798 32.435C80.568 42.1668 86.4158 48.8262 95.9896 51.6849C105.537 54.5356 114.004 52.1088 121.203 45.2552C121.963 44.5323 122.846 43.928 122.142 42.5158C121.518 41.2636 121.331 39.7938 120.947 38.4211C120.925 38.3404 120.883 38.2581 120.829 38.1941C120.197 37.4439 120.279 36.6524 120.757 35.8897C121.145 35.2701 121.053 34.755 120.708 34.1435C120.251 33.3317 119.638 32.4676 119.59 31.5987C119.524 30.3972 119.511 29.4616 118.007 29.4185C117.882 29.4149 117.762 29.2306 117.635 29.2241C117.076 29.1951 116.433 29.019 115.97 29.2277C114.565 29.8614 112.804 29.6084 111.793 28.4667C111.566 28.2098 111.341 27.9501 111.106 27.7002C110.299 26.8426 110.307 25.8895 110.67 24.8337C110.787 24.4955 110.607 24.064 110.611 23.6758C110.615 23.3594 110.577 22.9305 110.757 22.7503C111.217 22.2896 111.829 21.9826 112.3 21.5303C112.605 21.2371 112.918 20.814 112.964 20.4181C113.053 19.6585 113.464 19.2299 114.114 19.1058C115.565 18.8292 117.029 18.6002 118.497 18.4658C118.803 18.4378 119.258 18.8378 119.461 19.1571C119.757 19.6238 121.977 20.6983 122.508 20.4952C122.585 20.466 122.672 20.4171 122.714 20.3517C123.262 19.5058 123.872 19.8795 124.572 20.1618C125.232 20.4274 125.972 20.5161 126.686 20.6082C126.871 20.6323 127.2 20.4252 127.279 20.2441C127.527 19.6743 126.697 18.5509 126.118 18.3198C125.625 18.1232 125.221 17.6808 124.808 17.3134C124.616 17.1425 124.496 16.8912 124.342 16.6763C124.132 16.8812 123.916 17.0811 123.712 17.2925C123.567 17.4426 123.438 17.6084 123.302 17.7673C123.143 17.6099 122.942 17.4766 122.837 17.2893C122.715 17.0713 122.751 16.7294 122.59 16.5755C122.041 16.0509 121.498 15.4523 120.831 15.1398C120.303 14.8919 120.021 15.3819 120.35 15.8714C120.592 16.2309 121.077 16.4231 121.335 16.7766C121.516 17.025 121.595 17.4396 121.531 17.7398C121.497 17.8987 121.061 17.9716 120.806 18.0835C121.469 17.5902 121.33 17.2668 120.796 16.885C120.356 16.57 119.955 16.2014 119.519 15.8793C119.376 15.7733 119.143 15.6391 119.013 15.6868C118.073 16.0327 117.027 16.2252 116.554 17.3013C116.14 18.2428 115.329 18.302 114.454 18.1914C113.737 18.1009 113.525 17.6412 113.516 16.9873C113.507 16.299 113.882 15.9912 114.505 15.942C114.843 15.9152 115.205 16.0423 115.524 15.966C115.761 15.9092 116.15 15.519 116.126 15.4778C115.503 14.4049 116.182 14.1261 117.024 13.8965C117.198 13.8491 117.38 13.6827 117.475 13.5219C117.901 12.799 118.521 12.5506 119.343 12.555C119.611 12.5564 119.88 12.2199 120.148 12.0379C119.898 11.8251 119.646 11.6146 119.397 11.3992C118.985 11.0416 118.553 10.7002 118.196 10.2937C118.157 10.2501 118.507 9.73312 118.764 9.58487C120.077 8.82594 120.122 8.65316 118.902 7.70755C112.792 2.97195 105.92 1.28938 98.3159 2.67527C95.0072 3.27823 91.9764 4.59326 89.1813 6.45274C88.9842 6.58383 88.8507 6.81067 88.6877 6.99289C88.9113 7.08744 89.132 7.18987 89.3591 7.27498C89.9713 7.50405 90.5807 7.74289 91.2024 7.94416C91.6025 8.07371 92.0181 8.17701 92.4343 8.22299C92.5852 8.23964 92.7582 8.05518 92.9211 7.96252C92.8174 7.81342 92.7464 7.61043 92.6044 7.52481C92.0408 7.18455 91.4552 6.88085 90.842 6.54385C91.5105 5.90847 92.2888 5.37758 93.0088 5.98757C93.8252 6.67923 94.5402 7.0641 95.5964 6.54505C95.1907 6.84155 94.7663 6.94519 94.3792 7.12776C94.186 7.21887 93.903 7.50559 93.938 7.61335C94.0084 7.8292 94.2797 8.14355 94.4503 8.13291C95.0074 8.09808 95.5594 7.94811 96.1076 7.81822C96.6484 7.69022 97.1396 7.52052 96.7937 6.77463C96.7512 6.68284 96.9262 6.37089 97.0356 6.35082C97.3328 6.29591 97.649 6.34275 97.9575 6.34944C97.9232 6.52446 97.8316 6.71183 97.8664 6.87175C97.9345 7.18421 98.0734 7.48105 98.1829 7.78442C98.4376 7.60786 98.7194 7.45943 98.9396 7.24718C99.1916 7.00405 99.3328 6.59773 99.6193 6.44811C100.59 5.9409 102.666 6.31564 103.378 7.1408C103.677 7.4874 103.829 7.98157 103.951 8.43473C103.967 8.49478 103.407 8.70652 103.118 8.85409C103.042 8.89235 102.97 8.94468 102.911 9.00508C102.268 9.66998 101.639 9.32766 100.884 8.99427C101.157 8.81222 101.353 8.70618 101.518 8.56445C101.722 8.3896 101.901 8.18524 102.09 7.99358C101.825 7.80278 101.556 7.4488 101.295 7.45429C100.717 7.4663 100.063 7.52326 99.581 7.80449C98.3513 8.52241 98.044 8.70189 96.8718 8.84207C96.6482 8.86884 96.4187 8.93885 96.2174 9.03957C95.732 9.28236 95.224 9.50594 94.7973 9.83195C94.47 10.0821 93.9718 10.5754 94.0458 10.7863C94.1999 11.2252 94.6791 11.5526 95.0325 11.9183C95.3414 12.2378 95.667 12.5413 95.9733 12.8634C96.1027 12.9994 96.2007 13.2884 96.3144 13.2891C96.5013 13.2901 96.7174 13.1441 96.8706 13.0046C97.1595 12.7415 97.3622 12.2997 97.6905 12.1811C98.416 11.9195 98.5715 11.4505 98.6568 10.7544C98.7016 10.3886 99.1818 9.79214 99.4509 9.79987C99.9309 9.81359 100.649 10.0936 100.819 10.4663C101.109 11.1053 101.374 11.1175 101.925 10.9323C102.113 10.8694 102.476 11.001 102.607 11.165C102.894 11.5234 103.138 11.9401 103.291 12.3713C103.389 12.6437 103.327 13.2498 103.277 13.2565C102.44 13.3668 101.594 13.4121 100.75 13.4583C100.429 13.4758 100.107 13.4593 99.7851 13.4583V14.3671C99.6019 14.4418 99.3119 14.4986 99.0987 14.658C98.3029 15.2529 97.5099 15.8558 96.7596 16.5061C96.2437 16.9533 95.7952 17.4792 95.3253 17.9782C94.8093 18.526 94.2612 19.0509 93.806 19.6462C93.415 20.1573 93.1325 20.7517 92.8085 21.3129C92.7292 21.4506 92.6755 21.6029 92.6101 21.7486C92.4534 21.6515 92.2706 21.5799 92.1458 21.4518C91.9186 21.2186 91.7561 20.7695 91.5134 20.729C90.078 20.4897 88.6456 20.4838 87.4322 21.4749C86.5456 22.199 86.1122 23.8365 86.6935 24.4736C87.5666 25.4303 88.3983 24.7766 89.1993 24.2625C89.2233 24.2471 89.2455 24.2242 89.2717 24.217C89.4521 24.1681 89.6333 24.1225 89.8144 24.0758C89.8127 24.264 89.7779 24.4593 89.8166 24.6386C89.8795 24.9298 89.9371 25.4207 90.0906 25.4597C90.7942 25.6388 90.9019 26.1065 91.0235 26.7179C91.1155 27.18 91.386 27.8157 91.749 27.9701C92.4493 28.2682 93.2566 28.4705 93.9018 27.6132C94.5342 26.773 95.2561 26.8104 96.1321 27.348C96.5927 27.6307 97.2431 27.8262 97.7581 27.745C98.4742 27.6323 98.8334 27.8495 99.2757 28.3631C99.6242 28.7678 100.244 28.9267 100.701 29.2546C101.126 29.56 101.8 29.9176 101.833 30.2989C101.961 31.7452 103.009 32.0647 104.041 32.1036C105.253 32.1495 106.289 32.3536 107 33.3741C107.194 33.6522 107.371 34.2425 107.23 34.4044C106.311 35.4563 106.215 36.7289 106.068 38.0088C105.96 38.9455 105.414 39.4175 104.456 39.4321C103.463 39.4472 103.112 39.9101 103.248 40.9201C103.296 41.2789 103.436 41.7656 103.266 41.9908C102.225 43.3645 101.595 45.1924 99.5431 45.5294C99.3646 45.5587 99.1672 45.9192 99.1143 46.1562C99.0458 46.4626 99.1025 46.8003 99.1274 47.1229C99.1433 47.3303 99.1413 47.6745 99.2465 47.718C99.9289 48 99.9745 48.4585 99.8158 49.0955C99.7627 49.3082 99.9967 49.5997 100.118 49.8463C100.222 50.0591 100.352 50.2591 100.471 50.4649C100.203 50.5198 99.9258 50.6461 99.6702 50.6111C99.3745 50.5707 99.0483 50.4481 98.8217 50.2581C97.5801 49.2173 96.6276 48.0363 96.8275 46.2459C96.8735 45.8346 96.5917 45.3931 96.4944 44.958C96.3758 44.4283 96.2715 43.8933 96.2032 43.3554C96.168 43.0784 96.2627 42.7857 96.2327 42.5072C96.1184 41.4448 95.8263 40.3768 95.8837 39.3264C95.9575 37.9763 95.3309 37.2545 94.2352 36.7251C93.9639 36.594 93.6787 36.4147 93.5015 36.1805C93.0563 35.592 92.7 34.9358 92.2522 34.3495C91.2794 33.0757 91.4173 31.6994 92.5298 30.5599C92.8195 30.2632 92.8847 29.6391 92.8519 29.1798C92.8342 28.9312 92.4052 28.5316 92.1393 28.5127C91.1023 28.4389 90.5032 27.7397 89.7331 27.1977C88.7331 26.494 87.8014 25.5288 86.3339 25.6548C84.8356 25.7834 84.1024 25.0043 83.9558 23.5048C83.9219 23.1573 83.6879 22.8272 83.5366 22.4936C83.222 21.8004 82.9158 21.1026 82.5737 20.4231C82.4738 20.2246 82.2639 20.0815 82.1045 19.913C82.0006 20.1468 81.7614 20.4222 81.8179 20.6072C82.0068 21.2256 82.3147 21.8068 82.5483 22.4133C82.6211 22.6024 82.6025 22.8268 82.6259 23.0351C82.4041 22.9665 82.0472 22.9588 81.9838 22.8186C81.6854 22.158 81.4458 21.4675 81.2287 20.7742C81.1034 20.374 81.2008 19.7314 80.9554 19.5725C80.0506 18.9867 79.985 18.1727 79.9528 17.2347L79.9524 17.2343ZM94.9674 16.2333C95.1864 16.3119 95.4665 16.4632 95.7557 16.4838C95.8383 16.4897 96.072 15.978 96.0264 15.937C95.3441 15.3232 94.6793 14.6573 93.8939 14.206C93.5372 14.0011 92.9213 14.2151 92.4333 14.299C92.342 14.3146 92.272 14.6099 92.2409 14.785C92.1875 15.0839 92.1513 15.3896 92.1482 15.6928C92.1457 15.9512 92.1997 16.2103 92.2286 16.4691C92.4635 16.3632 92.7498 16.3095 92.9219 16.14C93.2252 15.8416 93.459 15.4723 93.7217 15.1328L94.0094 15.2695C93.9186 15.6441 93.8209 16.0171 93.7398 16.3936C93.7023 16.5669 93.6177 16.8333 93.6951 16.904C93.8132 17.012 94.1196 17.0787 94.2282 17.0001C94.5009 16.8028 94.7076 16.5142 94.9676 16.233L94.9674 16.2333Z" fill="#10BDF0"/>
</svg>
