<svg width="71" height="56" viewBox="0 0 71 56" fill="none" xmlns="http://www.w3.org/2000/svg">
<g clip-path="url(#clip0_220_6939)">
<mask id="path-1-inside-1_220_6939" fill="white">
<path d="M54.6593 28.2953C54.6593 28.6849 54.6467 29.0685 54.6341 29.4513V29.4951C54.6215 29.7778 54.6088 30.0671 54.5836 30.3372C54.5651 30.5947 54.5398 30.8462 54.5146 31.091C54.4768 31.4494 54.4389 31.807 54.3825 32.1654C54.3699 32.2596 54.3573 32.3605 54.3447 32.4607C54.2942 32.7998 54.2319 33.1455 54.1621 33.4846C54.1116 33.7547 54.0552 34.0247 53.9922 34.3015C53.9358 34.5782 53.8668 34.8542 53.7977 35.1243C53.5655 35.9976 53.308 36.8583 53 37.6937C52.9243 37.9015 52.8427 38.1085 52.761 38.3222C52.6163 38.6865 52.4657 39.0448 52.3024 39.4032C52.1644 39.717 52.0197 40.0316 51.8691 40.3455C51.7058 40.6786 51.5359 40.9991 51.36 41.3197C51.2531 41.5207 51.1463 41.7151 51.0335 41.8977C50.9266 42.0861 50.8138 42.2812 50.7003 42.4697C50.5496 42.7145 50.399 42.9535 50.2416 43.1924C50.0405 43.5003 49.8268 43.8141 49.6131 44.122C49.4558 44.3417 49.2925 44.562 49.1293 44.7757C48.9786 44.9768 48.8213 45.1712 48.6707 45.3722C48.2306 45.9124 47.772 46.4466 47.2822 46.9682C47.0744 47.1878 46.8674 47.4082 46.6537 47.6219L46.578 47.6975C46.3642 47.9112 46.1446 48.1182 45.9242 48.3193C45.4529 48.7526 44.9691 49.18 44.4786 49.5695C44.2337 49.7765 43.9821 49.9716 43.7306 50.1601C43.712 50.1727 43.6927 50.1853 43.6801 50.1979C43.4411 50.3805 43.1903 50.5496 42.9447 50.7195C42.6805 50.908 42.4171 51.0838 42.1529 51.2537C41.8828 51.4363 41.6126 51.6054 41.3358 51.7627C40.406 52.3155 39.4443 52.8185 38.4454 53.2704C38.2881 53.3394 38.1248 53.4024 37.9616 53.4715C37.4777 53.6785 36.9813 53.8736 36.4848 54.0494C36.139 54.1689 35.7939 54.2883 35.4414 54.3952C35.0207 54.5332 34.5865 54.6527 34.1532 54.7662C33.8266 54.8478 33.4994 54.9294 33.1729 54.9984C32.9718 55.0422 32.7647 55.086 32.5569 55.1238C32.387 55.1557 32.2052 55.1869 32.0352 55.218C31.2501 55.3501 30.4516 55.4629 29.6472 55.5193C29.4965 55.5378 29.3392 55.5504 29.1886 55.563C28.5726 55.6068 27.9508 55.6261 27.3222 55.6261C26.9512 55.6261 26.5809 55.6202 26.2098 55.6009C25.9776 55.5949 25.7386 55.5823 25.4997 55.563C25.2926 55.5504 25.0915 55.5319 24.8837 55.5126C24.7079 55.5 24.5379 55.4874 24.362 55.4621C24.1862 55.4436 24.0103 55.4243 23.8344 55.3991H23.8285C23.6711 55.3805 23.5146 55.3612 23.3572 55.336C23.1999 55.3108 23.0433 55.2855 22.886 55.2544C22.7665 55.2418 22.6411 55.2232 22.5217 55.198C22.5157 55.2039 22.509 55.2039 22.5031 55.198C22.3836 55.1794 22.2641 55.1602 22.1514 55.1349C22.1135 55.129 22.0823 55.1164 22.0504 55.1097C22.0378 55.1097 22.0193 55.1038 22 55.1038C21.9814 55.0978 21.9621 55.0978 21.9495 55.0845L21.384 54.9717C21.1955 54.9279 21.007 54.8834 20.8186 54.8396C20.6553 54.8018 20.492 54.7639 20.328 54.7202C20.2969 54.7142 20.265 54.7016 20.2279 54.689C20.052 54.6452 19.882 54.5948 19.7128 54.5443C19.4049 54.456 19.1036 54.3618 18.8016 54.2616C18.7326 54.2431 18.6635 54.2179 18.5945 54.1926C18.4817 54.1615 18.3682 54.1236 18.2487 54.0732C18.0981 54.0227 17.9533 53.9723 17.8086 53.9159C17.4821 53.7964 17.1549 53.6644 16.8283 53.5323C16.7653 53.5071 16.7089 53.4818 16.6465 53.4507C16.3638 53.3379 16.087 53.2118 15.8109 53.0797C15.503 52.935 15.2076 52.7903 14.9063 52.6397C14.7683 52.5707 14.6295 52.5017 14.4982 52.426C14.1717 52.2561 13.8511 52.0743 13.5364 51.8859C13.3917 51.8043 13.2537 51.716 13.109 51.6344C13.04 51.5906 12.9643 51.5401 12.8893 51.4964C12.5376 51.2827 12.1918 51.0504 11.846 50.8115C11.7139 50.7232 11.5818 50.629 11.4564 50.5348C11.3057 50.4346 11.1551 50.3211 11.0037 50.2083C10.7143 49.9946 10.4256 49.775 10.1488 49.542C10.0108 49.4293 9.87868 49.3157 9.74659 49.2089C9.62117 49.1021 9.49502 48.9952 9.37554 48.8884C9.25013 48.7815 9.12398 48.6747 9.0045 48.5619C8.87909 48.4491 8.75961 48.3423 8.64014 48.2288C7.93663 47.5692 7.27024 46.8777 6.63575 46.1431C6.52889 46.0304 6.42871 45.9109 6.33447 45.7914C6.27139 45.7158 6.20905 45.6408 6.15191 45.5651C6.12075 45.5273 6.08883 45.4895 6.0636 45.4524C5.95674 45.327 5.85656 45.2008 5.75564 45.0688V45.0628C5.74302 45.0569 5.73708 45.0443 5.73708 45.0376C5.52336 44.7609 5.30964 44.4722 5.1026 44.1896C4.89556 43.8943 4.68777 43.5923 4.48666 43.2844C4.28556 42.9831 4.09113 42.6752 3.9019 42.3606C3.71341 42.046 3.53086 41.7322 3.35498 41.4117C3.17911 41.0911 3.00916 40.7706 2.84591 40.4375C2.68858 40.111 2.53201 39.7779 2.38136 39.4447C2.25595 39.1747 2.1424 38.8979 2.0296 38.6219C1.86041 38.2198 1.70309 37.805 1.55838 37.3903C0.722788 35.0464 0.207038 32.5527 0.050457 29.9573C0.0192892 29.4046 0 28.8518 0 28.2924C0 21.0924 2.78357 14.5454 7.34 9.66329C7.94925 9.00369 8.5971 8.38192 9.26943 7.78465C9.74734 7.36989 10.2371 6.96182 10.7395 6.5849V6.57897C11.4556 6.03214 12.2037 5.51722 12.9702 5.05869C13.0771 4.9704 13.1966 4.9014 13.316 4.8324C13.624 4.64988 13.932 4.48071 14.2021 4.32341C14.3965 4.21657 14.585 4.10973 14.755 4.02812C14.8678 3.96505 14.9872 3.90866 15.0941 3.85821C16.1998 3.29877 17.3374 2.82169 18.5062 2.42549L19.0153 2.25558C20.0587 1.92244 21.1265 1.65237 22.1951 1.4513C22.5469 1.38229 22.9053 1.31923 23.2571 1.26877C23.4893 1.23761 23.7157 1.20571 23.948 1.18048C24.2559 1.13671 24.5698 1.09887 24.8718 1.07364C25.2548 1.04248 25.651 1.01725 26.0347 0.997959C26.4681 0.972732 26.8896 0.966797 27.323 0.966797C27.7 0.966797 28.0643 0.972732 28.4287 0.992023C28.8057 0.997959 29.17 1.02319 29.5344 1.06103C29.9114 1.08625 30.2757 1.12409 30.6401 1.16787H30.646C31.0045 1.21164 31.3688 1.2621 31.7265 1.32516C32.4679 1.44462 33.1966 1.59523 33.9194 1.77108C34.9939 2.03522 36.0373 2.36168 37.0488 2.75121C38.0922 3.14073 39.091 3.59926 40.0587 4.10825C40.3348 4.26554 40.6056 4.41022 40.8757 4.56084C40.9321 4.58607 40.9826 4.62391 41.0331 4.64913C41.0895 4.6803 41.1399 4.71814 41.203 4.7493C41.3729 4.8502 41.5488 4.95037 41.718 5.05721C41.8056 5.10766 41.888 5.15738 41.9755 5.22712C42.1135 5.3028 42.2456 5.39703 42.3837 5.49126C42.5595 5.5981 42.7295 5.71755 42.8987 5.83701C43.2 6.04476 43.4953 6.26438 43.7974 6.484C43.8285 6.50922 43.873 6.54038 43.9228 6.57822C44.0608 6.67913 44.2433 6.81714 44.4571 6.9863C44.771 7.24376 45.0856 7.5079 45.3869 7.79058C45.5442 7.92859 45.7008 8.06733 45.8522 8.21127C46.0719 8.41234 46.2856 8.62009 46.4934 8.82042C46.7011 9.02743 46.9082 9.23518 47.1093 9.44886C47.3609 9.70632 47.6057 9.97046 47.8447 10.2405C47.9137 10.3162 47.9894 10.3978 48.0584 10.4794C48.1022 10.5232 48.1401 10.5737 48.1712 10.6241C48.2091 10.6746 48.2528 10.725 48.2907 10.7688C48.6491 11.1836 48.9883 11.6109 49.3148 12.0502C49.5092 12.3269 49.7044 12.6029 49.8929 12.8856C50.2261 13.3694 50.54 13.8657 50.842 14.3747V14.3807C51.049 14.7138 51.2375 15.0529 51.4134 15.4046C51.4765 15.4862 51.5136 15.5745 51.5581 15.6687C51.7466 16.0144 51.9225 16.3787 52.0924 16.743C52.3499 17.2832 52.5889 17.836 52.8026 18.3895C52.9095 18.6662 53.0163 18.9489 53.1165 19.2316C53.1981 19.4638 53.2738 19.7027 53.3554 19.9416C53.4118 20.1301 53.4749 20.3059 53.5254 20.4944C53.7139 21.1414 53.8898 21.801 54.0278 22.4673C54.1154 22.8568 54.191 23.2463 54.2541 23.6358C54.292 23.8184 54.3231 24.0001 54.3424 24.1886C54.3484 24.2012 54.3484 24.2198 54.3484 24.2264C54.3795 24.4149 54.4048 24.6034 54.4241 24.7918C54.4367 24.823 54.4426 24.8549 54.4426 24.892C54.4612 25.03 54.4738 25.162 54.4931 25.3001C54.5116 25.4321 54.5183 25.5701 54.5242 25.7089C54.5302 25.7593 54.5369 25.8157 54.5428 25.8662C54.5487 25.9226 54.5554 25.9789 54.5613 26.0294C54.5613 26.0606 54.5673 26.0984 54.5673 26.1362C54.5732 26.18 54.5799 26.2245 54.5799 26.2683C54.6304 26.9346 54.6556 27.6127 54.6556 28.2916L54.6593 28.2953Z"/>
</mask>
<path d="M54.6593 28.2953C54.6593 28.6849 54.6467 29.0685 54.6341 29.4513V29.4951C54.6215 29.7778 54.6088 30.0671 54.5836 30.3372C54.5651 30.5947 54.5398 30.8462 54.5146 31.091C54.4768 31.4494 54.4389 31.807 54.3825 32.1654C54.3699 32.2596 54.3573 32.3605 54.3447 32.4607C54.2942 32.7998 54.2319 33.1455 54.1621 33.4846C54.1116 33.7547 54.0552 34.0247 53.9922 34.3015C53.9358 34.5782 53.8668 34.8542 53.7977 35.1243C53.5655 35.9976 53.308 36.8583 53 37.6937C52.9243 37.9015 52.8427 38.1085 52.761 38.3222C52.6163 38.6865 52.4657 39.0448 52.3024 39.4032C52.1644 39.717 52.0197 40.0316 51.8691 40.3455C51.7058 40.6786 51.5359 40.9991 51.36 41.3197C51.2531 41.5207 51.1463 41.7151 51.0335 41.8977C50.9266 42.0861 50.8138 42.2812 50.7003 42.4697C50.5496 42.7145 50.399 42.9535 50.2416 43.1924C50.0405 43.5003 49.8268 43.8141 49.6131 44.122C49.4558 44.3417 49.2925 44.562 49.1293 44.7757C48.9786 44.9768 48.8213 45.1712 48.6707 45.3722C48.2306 45.9124 47.772 46.4466 47.2822 46.9682C47.0744 47.1878 46.8674 47.4082 46.6537 47.6219L46.578 47.6975C46.3642 47.9112 46.1446 48.1182 45.9242 48.3193C45.4529 48.7526 44.9691 49.18 44.4786 49.5695C44.2337 49.7765 43.9821 49.9716 43.7306 50.1601C43.712 50.1727 43.6927 50.1853 43.6801 50.1979C43.4411 50.3805 43.1903 50.5496 42.9447 50.7195C42.6805 50.908 42.4171 51.0838 42.1529 51.2537C41.8828 51.4363 41.6126 51.6054 41.3358 51.7627C40.406 52.3155 39.4443 52.8185 38.4454 53.2704C38.2881 53.3394 38.1248 53.4024 37.9616 53.4715C37.4777 53.6785 36.9813 53.8736 36.4848 54.0494C36.139 54.1689 35.7939 54.2883 35.4414 54.3952C35.0207 54.5332 34.5865 54.6527 34.1532 54.7662C33.8266 54.8478 33.4994 54.9294 33.1729 54.9984C32.9718 55.0422 32.7647 55.086 32.5569 55.1238C32.387 55.1557 32.2052 55.1869 32.0352 55.218C31.2501 55.3501 30.4516 55.4629 29.6472 55.5193C29.4965 55.5378 29.3392 55.5504 29.1886 55.563C28.5726 55.6068 27.9508 55.6261 27.3222 55.6261C26.9512 55.6261 26.5809 55.6202 26.2098 55.6009C25.9776 55.5949 25.7386 55.5823 25.4997 55.563C25.2926 55.5504 25.0915 55.5319 24.8837 55.5126C24.7079 55.5 24.5379 55.4874 24.362 55.4621C24.1862 55.4436 24.0103 55.4243 23.8344 55.3991H23.8285C23.6711 55.3805 23.5146 55.3612 23.3572 55.336C23.1999 55.3108 23.0433 55.2855 22.886 55.2544C22.7665 55.2418 22.6411 55.2232 22.5217 55.198C22.5157 55.2039 22.509 55.2039 22.5031 55.198C22.3836 55.1794 22.2641 55.1602 22.1514 55.1349C22.1135 55.129 22.0823 55.1164 22.0504 55.1097C22.0378 55.1097 22.0193 55.1038 22 55.1038C21.9814 55.0978 21.9621 55.0978 21.9495 55.0845L21.384 54.9717C21.1955 54.9279 21.007 54.8834 20.8186 54.8396C20.6553 54.8018 20.492 54.7639 20.328 54.7202C20.2969 54.7142 20.265 54.7016 20.2279 54.689C20.052 54.6452 19.882 54.5948 19.7128 54.5443C19.4049 54.456 19.1036 54.3618 18.8016 54.2616C18.7326 54.2431 18.6635 54.2179 18.5945 54.1926C18.4817 54.1615 18.3682 54.1236 18.2487 54.0732C18.0981 54.0227 17.9533 53.9723 17.8086 53.9159C17.4821 53.7964 17.1549 53.6644 16.8283 53.5323C16.7653 53.5071 16.7089 53.4818 16.6465 53.4507C16.3638 53.3379 16.087 53.2118 15.8109 53.0797C15.503 52.935 15.2076 52.7903 14.9063 52.6397C14.7683 52.5707 14.6295 52.5017 14.4982 52.426C14.1717 52.2561 13.8511 52.0743 13.5364 51.8859C13.3917 51.8043 13.2537 51.716 13.109 51.6344C13.04 51.5906 12.9643 51.5401 12.8893 51.4964C12.5376 51.2827 12.1918 51.0504 11.846 50.8115C11.7139 50.7232 11.5818 50.629 11.4564 50.5348C11.3057 50.4346 11.1551 50.3211 11.0037 50.2083C10.7143 49.9946 10.4256 49.775 10.1488 49.542C10.0108 49.4293 9.87868 49.3157 9.74659 49.2089C9.62117 49.1021 9.49502 48.9952 9.37554 48.8884C9.25013 48.7815 9.12398 48.6747 9.0045 48.5619C8.87909 48.4491 8.75961 48.3423 8.64014 48.2288C7.93663 47.5692 7.27024 46.8777 6.63575 46.1431C6.52889 46.0304 6.42871 45.9109 6.33447 45.7914C6.27139 45.7158 6.20905 45.6408 6.15191 45.5651C6.12075 45.5273 6.08883 45.4895 6.0636 45.4524C5.95674 45.327 5.85656 45.2008 5.75564 45.0688V45.0628C5.74302 45.0569 5.73708 45.0443 5.73708 45.0376C5.52336 44.7609 5.30964 44.4722 5.1026 44.1896C4.89556 43.8943 4.68777 43.5923 4.48666 43.2844C4.28556 42.9831 4.09113 42.6752 3.9019 42.3606C3.71341 42.046 3.53086 41.7322 3.35498 41.4117C3.17911 41.0911 3.00916 40.7706 2.84591 40.4375C2.68858 40.111 2.53201 39.7779 2.38136 39.4447C2.25595 39.1747 2.1424 38.8979 2.0296 38.6219C1.86041 38.2198 1.70309 37.805 1.55838 37.3903C0.722788 35.0464 0.207038 32.5527 0.050457 29.9573C0.0192892 29.4046 0 28.8518 0 28.2924C0 21.0924 2.78357 14.5454 7.34 9.66329C7.94925 9.00369 8.5971 8.38192 9.26943 7.78465C9.74734 7.36989 10.2371 6.96182 10.7395 6.5849V6.57897C11.4556 6.03214 12.2037 5.51722 12.9702 5.05869C13.0771 4.9704 13.1966 4.9014 13.316 4.8324C13.624 4.64988 13.932 4.48071 14.2021 4.32341C14.3965 4.21657 14.585 4.10973 14.755 4.02812C14.8678 3.96505 14.9872 3.90866 15.0941 3.85821C16.1998 3.29877 17.3374 2.82169 18.5062 2.42549L19.0153 2.25558C20.0587 1.92244 21.1265 1.65237 22.1951 1.4513C22.5469 1.38229 22.9053 1.31923 23.2571 1.26877C23.4893 1.23761 23.7157 1.20571 23.948 1.18048C24.2559 1.13671 24.5698 1.09887 24.8718 1.07364C25.2548 1.04248 25.651 1.01725 26.0347 0.997959C26.4681 0.972732 26.8896 0.966797 27.323 0.966797C27.7 0.966797 28.0643 0.972732 28.4287 0.992023C28.8057 0.997959 29.17 1.02319 29.5344 1.06103C29.9114 1.08625 30.2757 1.12409 30.6401 1.16787H30.646C31.0045 1.21164 31.3688 1.2621 31.7265 1.32516C32.4679 1.44462 33.1966 1.59523 33.9194 1.77108C34.9939 2.03522 36.0373 2.36168 37.0488 2.75121C38.0922 3.14073 39.091 3.59926 40.0587 4.10825C40.3348 4.26554 40.6056 4.41022 40.8757 4.56084C40.9321 4.58607 40.9826 4.62391 41.0331 4.64913C41.0895 4.6803 41.1399 4.71814 41.203 4.7493C41.3729 4.8502 41.5488 4.95037 41.718 5.05721C41.8056 5.10766 41.888 5.15738 41.9755 5.22712C42.1135 5.3028 42.2456 5.39703 42.3837 5.49126C42.5595 5.5981 42.7295 5.71755 42.8987 5.83701C43.2 6.04476 43.4953 6.26438 43.7974 6.484C43.8285 6.50922 43.873 6.54038 43.9228 6.57822C44.0608 6.67913 44.2433 6.81714 44.4571 6.9863C44.771 7.24376 45.0856 7.5079 45.3869 7.79058C45.5442 7.92859 45.7008 8.06733 45.8522 8.21127C46.0719 8.41234 46.2856 8.62009 46.4934 8.82042C46.7011 9.02743 46.9082 9.23518 47.1093 9.44886C47.3609 9.70632 47.6057 9.97046 47.8447 10.2405C47.9137 10.3162 47.9894 10.3978 48.0584 10.4794C48.1022 10.5232 48.1401 10.5737 48.1712 10.6241C48.2091 10.6746 48.2528 10.725 48.2907 10.7688C48.6491 11.1836 48.9883 11.6109 49.3148 12.0502C49.5092 12.3269 49.7044 12.6029 49.8929 12.8856C50.2261 13.3694 50.54 13.8657 50.842 14.3747V14.3807C51.049 14.7138 51.2375 15.0529 51.4134 15.4046C51.4765 15.4862 51.5136 15.5745 51.5581 15.6687C51.7466 16.0144 51.9225 16.3787 52.0924 16.743C52.3499 17.2832 52.5889 17.836 52.8026 18.3895C52.9095 18.6662 53.0163 18.9489 53.1165 19.2316C53.1981 19.4638 53.2738 19.7027 53.3554 19.9416C53.4118 20.1301 53.4749 20.3059 53.5254 20.4944C53.7139 21.1414 53.8898 21.801 54.0278 22.4673C54.1154 22.8568 54.191 23.2463 54.2541 23.6358C54.292 23.8184 54.3231 24.0001 54.3424 24.1886C54.3484 24.2012 54.3484 24.2198 54.3484 24.2264C54.3795 24.4149 54.4048 24.6034 54.4241 24.7918C54.4367 24.823 54.4426 24.8549 54.4426 24.892C54.4612 25.03 54.4738 25.162 54.4931 25.3001C54.5116 25.4321 54.5183 25.5701 54.5242 25.7089C54.5302 25.7593 54.5369 25.8157 54.5428 25.8662C54.5487 25.9226 54.5554 25.9789 54.5613 26.0294C54.5613 26.0606 54.5673 26.0984 54.5673 26.1362C54.5732 26.18 54.5799 26.2245 54.5799 26.2683C54.6304 26.9346 54.6556 27.6127 54.6556 28.2916L54.6593 28.2953Z" stroke="#10BDF0" stroke-width="6.4461" mask="url(#path-1-inside-1_220_6939)"/>
<path d="M36.483 54.0514C33.6171 55.0716 30.5389 55.6243 27.3242 55.6243C15.427 55.6243 5.29825 48.0148 1.55664 37.3944C1.89652 37.4538 2.23713 37.5643 2.53471 37.7261C3.62335 38.2959 4.38844 39.3161 5.17951 40.2599C5.97058 41.2036 6.88854 42.1474 8.0796 42.4449C9.71219 42.8612 11.7277 42.0621 12.9521 43.2099C13.5985 43.8138 13.8538 44.8593 14.6872 45.1657C15.6059 45.5144 16.6262 44.5788 16.6856 43.5927C16.7539 42.6148 16.1587 41.7052 15.4693 40.9996C14.7888 40.2851 13.9896 39.673 13.4538 38.8486C12.9269 38.0154 12.7392 36.8506 13.3432 36.0767C13.8872 35.3793 14.9335 35.2183 15.7587 35.5328C16.5839 35.8474 17.2132 36.536 17.6637 37.3017C18.4377 38.5942 18.7694 40.0988 19.4491 41.4336C20.1296 42.7773 21.337 44.0357 22.842 44.0609C24.1599 44.095 25.7421 43.2448 26.6519 44.2056C27.1535 44.7324 27.1283 45.5493 27.3064 46.2549C27.834 48.3294 30.0618 49.3926 32.0261 50.234C33.8969 51.0249 35.9814 52.1386 36.483 54.0514Z" fill="#10BDF0"/>
<path d="M54.031 22.4707C53.5783 22.4833 53.1071 22.4707 52.6047 22.4455C51.8003 22.4076 50.9959 22.3638 50.1915 22.326C49.8649 22.3075 49.5377 22.2948 49.2112 22.2756C48.3192 22.2318 47.3389 22.2192 46.5908 22.6525C46.4461 22.7341 46.314 22.8283 46.1886 22.9478C45.7738 23.3432 45.523 23.9153 45.0139 24.1727C44.5486 24.399 44.0024 24.2981 43.4867 24.3107C41.9342 24.3486 40.571 25.4541 39.7978 26.7926C39.0876 28.0176 38.629 29.3182 38.3462 30.6567C37.6553 33.8798 38.0004 37.3351 38.3277 40.5841C38.3403 40.6909 38.3529 40.7978 38.3529 40.9046C38.4093 41.4826 38.416 42.0732 38.1703 42.5948C37.8817 43.2106 37.1084 43.6506 36.5051 43.336C36.3166 43.2418 36.1719 43.0845 36.0524 42.9087C35.9396 42.7454 35.8513 42.5503 35.7638 42.3685C35.2859 41.3379 35.1857 40.2257 34.7456 39.2397C34.1237 37.8448 32.9609 38.2343 31.7921 37.7127C30.9498 37.3358 30.5291 36.3869 30.328 35.4883C30.2901 35.3125 30.2523 35.1367 30.2211 34.9608C30.0831 34.2255 29.9695 33.4784 29.6178 32.8306C29.505 32.6296 29.3662 32.4285 29.1592 32.3276C28.9833 32.2393 28.7762 32.2267 28.5811 32.2208C27.4249 32.1955 26.0988 32.2771 24.9678 32.5034C23.9875 32.7045 23.1453 33.5147 22.1405 33.5021C20.4567 33.4769 19.7339 31.2844 19.935 29.6128C20.142 27.9419 20.7454 26.1196 19.8972 24.6684C18.5525 22.369 14.5051 22.6391 13.5627 20.1506C12.6514 17.7251 15.668 15.6706 18.2193 15.2188C20.7773 14.7603 23.9126 14.4902 25.0064 12.1404C25.5341 11.003 25.3775 9.73424 24.9374 8.52782C24.7237 7.92461 24.435 7.33401 24.133 6.78125C23.2217 5.13484 22.116 3.44466 22.185 1.56603C22.185 1.52819 22.1909 1.49035 22.1976 1.45325C22.5494 1.38425 22.9078 1.32118 23.2596 1.27073C23.4918 1.23957 23.7182 1.20766 23.9504 1.18243C24.2584 1.13866 24.5723 1.10082 24.8743 1.07559C25.2573 1.04443 25.6535 1.0192 26.0372 0.999913C26.4706 0.974686 26.8921 0.96875 27.3255 0.96875C27.7024 0.96875 28.0668 0.974686 28.4312 0.993977C28.8082 0.999913 29.1725 1.02514 29.5369 1.06298C29.9139 1.08821 30.2782 1.12605 30.6426 1.16982H30.6485C31.007 1.2136 31.3713 1.26405 31.729 1.32712C32.4704 1.44657 33.1991 1.59719 33.9219 1.77303C34.94 2.02456 35.9263 2.32579 36.8813 2.69009C36.9377 2.70864 36.9941 2.73387 37.0513 2.75316C38.0947 3.14269 39.0935 3.60122 40.0612 4.1102C40.3373 4.26749 40.6081 4.41218 40.8782 4.56279C40.9346 4.58802 40.9851 4.62586 41.0356 4.65109C41.092 4.68225 41.1424 4.72009 41.2055 4.75125C41.3754 4.85216 41.5513 4.95232 41.7205 5.05916C41.8081 5.10962 41.8904 5.15933 41.978 5.22907C42.116 5.30475 42.2481 5.39898 42.3862 5.49321C42.562 5.60005 42.732 5.71951 42.9012 5.83896C43.2025 6.04671 43.4978 6.26633 43.7998 6.48595C43.831 6.51118 43.8755 6.54234 43.9253 6.58018C44.0633 6.68108 44.2458 6.81909 44.4596 6.98826C44.7735 7.24571 45.0881 7.50985 45.3894 7.79254C45.5467 7.93054 45.7033 8.06929 45.8547 8.21323C46.0743 8.4143 46.2881 8.62205 46.4959 8.82238C46.7036 9.02938 46.9107 9.23713 47.1118 9.45081C47.3633 9.70827 47.6082 9.97241 47.8472 10.2425C47.9162 10.3182 47.9919 10.3998 48.0609 10.4814C48.1047 10.5252 48.1425 10.5756 48.1737 10.6261C48.2116 10.6765 48.2553 10.727 48.2932 10.7708C48.6516 11.1855 48.9907 11.6129 49.3173 12.0521C49.5117 12.3289 49.7069 12.6049 49.8954 12.8876C50.2286 13.3713 50.5425 13.8677 50.8445 14.3767V14.3826C51.0515 14.7157 51.24 15.0548 51.4159 15.4065C51.479 15.4881 51.5161 15.5764 51.5606 15.6706C51.7491 16.0164 51.925 16.3807 52.0949 16.745C52.3524 17.2851 52.5914 17.8379 52.8051 18.3914C52.912 18.6682 53.0188 18.9508 53.119 19.2335C53.2006 19.4658 53.2763 19.7047 53.3579 19.9436C53.4143 20.132 53.4774 20.3079 53.5279 20.4963C53.5969 20.7353 53.6659 20.9801 53.729 21.2249C53.8418 21.6338 53.9427 22.0478 54.0303 22.4692L54.031 22.4707Z" fill="#10BDF0"/>
<path d="M9.82425 14.717C9.48511 16.7151 6.53754 17.161 5.76502 19.0271C5.08007 20.692 6.45665 22.5707 6.11677 24.3358C5.74573 26.2649 3.62186 27.2005 1.99446 28.3001C1.28428 28.7779 0.631251 29.3366 0.0524214 29.9591C0.0212537 29.4063 0.00195312 28.8536 0.00195312 28.2941C0.00195312 21.0942 2.78553 14.5471 7.34196 9.66504C7.5119 10.2809 7.87626 10.8967 8.27179 11.3931C9.0636 12.3799 10.0372 13.4728 9.82425 14.717Z" fill="#10BDF0"/>
<path d="M67.8749 27.5771C66.7763 26.2344 65.7872 25.0256 64.7983 23.8167C64.5601 23.5255 64.3187 23.2368 64.0857 22.9409C63.6892 22.437 63.6778 22.0588 64.0406 21.7252C64.3707 21.4217 64.8374 21.4945 65.2062 21.9348C65.931 22.8 66.6452 23.6746 67.3617 24.5472C68.2163 25.588 69.0611 26.6373 69.9254 27.6693C70.2866 28.1007 70.3343 28.5 69.9647 28.9485C68.3907 30.8591 66.8246 32.7768 65.2498 34.6869C65.1271 34.8358 64.9569 35.0577 64.816 35.052C64.5184 35.0399 64.1575 34.9814 63.9475 34.7923C63.6399 34.5156 63.7586 34.1264 64.0061 33.8212C64.6796 32.99 65.3611 32.1657 66.0386 31.3378C66.614 30.635 67.1881 29.9311 67.8741 29.0917H67.1491C61.797 29.0917 63.3045 29.092 57.9524 29.0906C57.7203 29.0906 57.4351 29.1571 57.2681 29.0441C57.0232 28.8785 56.7098 28.5791 56.709 28.3358C56.7082 28.0927 57.02 27.7911 57.2641 27.6247C57.4303 27.5114 57.716 27.5779 57.9482 27.5779C63.2808 27.5763 61.754 27.5768 67.0866 27.5768L67.8749 27.5771Z" fill="#10BDF0"/>
</g>
<defs>
<clipPath id="clip0_220_6939">
<rect width="70.2201" height="54.6593" fill="white" transform="translate(0 0.966797)"/>
</clipPath>
</defs>
</svg>
