<svg width="71" height="56" viewBox="0 0 71 56" fill="none" xmlns="http://www.w3.org/2000/svg">
<g clip-path="url(#clip0_220_6966)">
<mask id="path-1-inside-1_220_6966" fill="white">
<path d="M54.6593 27.9057C54.6593 28.2952 54.6467 28.6788 54.6341 29.0617V29.1054C54.6215 29.3881 54.6088 29.6775 54.5836 29.9476C54.5651 30.205 54.5398 30.4565 54.5146 30.7014C54.4768 31.0598 54.4389 31.4174 54.3825 31.7757C54.3699 31.87 54.3573 31.9709 54.3447 32.071C54.2942 32.4101 54.2319 32.7559 54.1621 33.0949C54.1116 33.365 54.0552 33.6351 53.9922 33.9118C53.9358 34.1886 53.8668 34.4646 53.7977 34.7347C53.5655 35.608 53.308 36.4686 53 37.3041C52.9243 37.5118 52.8427 37.7188 52.761 37.9325C52.6163 38.2968 52.4657 38.6552 52.3024 39.0135C52.1644 39.3274 52.0197 39.642 51.8691 39.9558C51.7058 40.289 51.5359 40.6095 51.36 40.93C51.2531 41.1311 51.1463 41.3255 51.0335 41.508C50.9266 41.6965 50.8138 41.8916 50.7003 42.0801C50.5496 42.3249 50.399 42.5638 50.2416 42.8027C50.0405 43.1106 49.8268 43.4245 49.6131 43.7324C49.4558 43.952 49.2925 44.1724 49.1293 44.3861C48.9786 44.5871 48.8213 44.7815 48.6707 44.9826C48.2306 45.5227 47.772 46.0569 47.2822 46.5785C47.0744 46.7982 46.8674 47.0185 46.6537 47.2322L46.578 47.3079C46.3642 47.5216 46.1446 47.7286 45.9242 47.9296C45.4529 48.363 44.9691 48.7903 44.4786 49.1798C44.2337 49.3869 43.9821 49.582 43.7306 49.7704C43.712 49.7831 43.6927 49.7957 43.6801 49.8083C43.4411 49.9908 43.1903 50.16 42.9447 50.3299C42.6805 50.5183 42.4171 50.6942 42.1529 50.8641C41.8828 51.0466 41.6126 51.2158 41.3358 51.3731C40.406 51.9258 39.4443 52.4289 38.4454 52.8807C38.2881 52.9497 38.1248 53.0128 37.9616 53.0818C37.4777 53.2888 36.9813 53.4839 36.4848 53.6598C36.139 53.7792 35.7939 53.8987 35.4414 54.0055C35.0207 54.1435 34.5865 54.263 34.1532 54.3765C33.8266 54.4581 33.4994 54.5397 33.1729 54.6088C32.9718 54.6525 32.7647 54.6963 32.5569 54.7341C32.387 54.7661 32.2052 54.7972 32.0352 54.8284C31.2501 54.9604 30.4516 55.0732 29.6472 55.1296C29.4965 55.1482 29.3392 55.1608 29.1886 55.1734C28.5726 55.2172 27.9508 55.2364 27.3222 55.2364C26.9512 55.2364 26.5809 55.2305 26.2098 55.2112C25.9776 55.2053 25.7386 55.1927 25.4997 55.1734C25.2926 55.1608 25.0915 55.1422 24.8837 55.1229C24.7079 55.1103 24.5379 55.0977 24.362 55.0725C24.1862 55.0539 24.0103 55.0346 23.8344 55.0094H23.8285C23.6711 54.9909 23.5146 54.9716 23.3572 54.9463C23.1999 54.9211 23.0433 54.8959 22.886 54.8647C22.7665 54.8521 22.6411 54.8336 22.5217 54.8083C22.5157 54.8143 22.509 54.8143 22.5031 54.8083C22.3836 54.7898 22.2641 54.7705 22.1514 54.7453C22.1135 54.7393 22.0823 54.7267 22.0504 54.72C22.0378 54.72 22.0193 54.7141 22 54.7141C21.9814 54.7082 21.9621 54.7082 21.9495 54.6948L21.384 54.582C21.1955 54.5383 21.007 54.4938 20.8186 54.45C20.6553 54.4121 20.492 54.3743 20.328 54.3305C20.2969 54.3246 20.265 54.312 20.2279 54.2994C20.052 54.2556 19.882 54.2051 19.7128 54.1547C19.4049 54.0664 19.1036 53.9722 18.8016 53.872C18.7326 53.8534 18.6635 53.8282 18.5945 53.803C18.4817 53.7718 18.3682 53.734 18.2487 53.6835C18.0981 53.6331 17.9533 53.5826 17.8086 53.5262C17.4821 53.4068 17.1549 53.2747 16.8283 53.1426C16.7653 53.1174 16.7089 53.0922 16.6465 53.061C16.3638 52.9483 16.087 52.8221 15.8109 52.69C15.503 52.5454 15.2076 52.4007 14.9063 52.2501C14.7683 52.1811 14.6295 52.1121 14.4982 52.0364C14.1717 51.8665 13.8511 51.6847 13.5364 51.4962C13.3917 51.4146 13.2537 51.3263 13.109 51.2447C13.04 51.2009 12.9643 51.1505 12.8893 51.1067C12.5376 50.893 12.1918 50.6608 11.846 50.4219C11.7139 50.3336 11.5818 50.2394 11.4564 50.1451C11.3057 50.045 11.1551 49.9315 11.0037 49.8187C10.7143 49.605 10.4256 49.3854 10.1488 49.1524C10.0108 49.0396 9.87868 48.9261 9.74659 48.8193C9.62117 48.7124 9.49502 48.6056 9.37554 48.4987C9.25013 48.3919 9.12398 48.285 9.0045 48.1723C8.87909 48.0595 8.75961 47.9526 8.64014 47.8391C7.93663 47.1795 7.27024 46.488 6.63575 45.7535C6.52889 45.6407 6.42871 45.5213 6.33447 45.4018C6.27139 45.3261 6.20905 45.2512 6.15191 45.1755C6.12075 45.1377 6.08883 45.0998 6.0636 45.0627C5.95674 44.9373 5.85656 44.8112 5.75564 44.6791V44.6732C5.74302 44.6673 5.73708 44.6546 5.73708 44.648C5.52336 44.3712 5.30964 44.0826 5.1026 43.7999C4.89556 43.5046 4.68777 43.2026 4.48666 42.8947C4.28556 42.5935 4.09113 42.2856 3.9019 41.971C3.71341 41.6564 3.53086 41.3425 3.35498 41.022C3.17911 40.7015 3.00916 40.381 2.84591 40.0478C2.68858 39.7214 2.53201 39.3882 2.38136 39.0551C2.25595 38.785 2.1424 38.5083 2.0296 38.2323C1.86041 37.8301 1.70309 37.4154 1.55838 37.0006C0.722788 34.6568 0.207038 32.163 0.050457 29.5677C0.0192892 29.0149 0 28.4622 0 27.9027C0 20.7028 2.78357 14.1557 7.34 9.27364C7.94925 8.61404 8.5971 7.99228 9.26943 7.395C9.74734 6.98025 10.2371 6.57217 10.7395 6.19525V6.18932C11.4556 5.6425 12.2037 5.12758 12.9702 4.66905C13.0771 4.58075 13.1966 4.51175 13.316 4.44275C13.624 4.26023 13.932 4.09106 14.2021 3.93377C14.3965 3.82692 14.585 3.72008 14.755 3.63847C14.8678 3.5754 14.9872 3.51901 15.0941 3.46856C16.1998 2.90912 17.3374 2.43204 18.5062 2.03584L19.0153 1.86593C20.0587 1.53279 21.1265 1.26272 22.1951 1.06165C22.5469 0.992645 22.9053 0.929578 23.2571 0.879125C23.4893 0.847963 23.7157 0.816059 23.948 0.790832C24.2559 0.747057 24.5698 0.709217 24.8718 0.68399C25.2548 0.652828 25.651 0.627601 26.0347 0.608311C26.4681 0.583084 26.8896 0.577148 27.323 0.577148C27.7 0.577148 28.0643 0.583084 28.4287 0.602375C28.8057 0.60831 29.17 0.633537 29.5344 0.671377C29.9114 0.696604 30.2757 0.734443 30.6401 0.778219H30.646C31.0045 0.821994 31.3688 0.872448 31.7265 0.935514C32.4679 1.05497 33.1966 1.20559 33.9194 1.38143C34.9939 1.64557 36.0373 1.97203 37.0488 2.36156C38.0922 2.75109 39.091 3.20961 40.0587 3.7186C40.3348 3.87589 40.6056 4.02058 40.8757 4.17119C40.9321 4.19642 40.9826 4.23426 41.0331 4.25949C41.0895 4.29065 41.1399 4.32849 41.203 4.35965C41.3729 4.46056 41.5488 4.56072 41.718 4.66756C41.8056 4.71802 41.888 4.76773 41.9755 4.83747C42.1135 4.91315 42.2456 5.00738 42.3837 5.10161C42.5595 5.20845 42.7295 5.32791 42.8987 5.44736C43.2 5.65511 43.4953 5.87473 43.7974 6.09435C43.8285 6.11957 43.873 6.15074 43.9228 6.18858C44.0608 6.28948 44.2433 6.42749 44.4571 6.59665C44.771 6.85411 45.0856 7.11825 45.3869 7.40094C45.5442 7.53894 45.7008 7.67769 45.8522 7.82163C46.0719 8.0227 46.2856 8.23044 46.4934 8.43077C46.7011 8.63778 46.9082 8.84553 47.1093 9.05921C47.3609 9.31667 47.6057 9.58081 47.8447 9.85088C47.9137 9.92656 47.9894 10.0082 48.0584 10.0898C48.1022 10.1336 48.1401 10.184 48.1712 10.2345C48.2091 10.2849 48.2528 10.3354 48.2907 10.3792C48.6491 10.7939 48.9883 11.2213 49.3148 11.6605C49.5092 11.9373 49.7044 12.2133 49.8929 12.496C50.2261 12.9797 50.54 13.4761 50.842 13.9851V13.991C51.049 14.3241 51.2375 14.6632 51.4134 15.0149C51.4765 15.0965 51.5136 15.1848 51.5581 15.279C51.7466 15.6248 51.9225 15.9891 52.0924 16.3534C52.3499 16.8935 52.5889 17.4463 52.8026 17.9998C52.9095 18.2766 53.0163 18.5592 53.1165 18.8419C53.1981 19.0742 53.2738 19.3131 53.3554 19.552C53.4118 19.7404 53.4749 19.9163 53.5254 20.1047C53.7139 20.7517 53.8898 21.4113 54.0278 22.0776C54.1154 22.4671 54.191 22.8567 54.2541 23.2462C54.292 23.4287 54.3231 23.6105 54.3424 23.7989C54.3484 23.8116 54.3484 23.8301 54.3484 23.8368C54.3795 24.0252 54.4048 24.2137 54.4241 24.4022C54.4367 24.4333 54.4426 24.4652 54.4426 24.5023C54.4612 24.6403 54.4738 24.7724 54.4931 24.9104C54.5116 25.0425 54.5183 25.1805 54.5242 25.3192C54.5302 25.3697 54.5369 25.4261 54.5428 25.4765C54.5487 25.5329 54.5554 25.5893 54.5613 25.6397C54.5613 25.6709 54.5673 25.7087 54.5673 25.7466C54.5732 25.7904 54.5799 25.8349 54.5799 25.8787C54.6304 26.5449 54.6556 27.2231 54.6556 27.902L54.6593 27.9057Z"/>
</mask>
<path d="M54.6593 27.9057C54.6593 28.2952 54.6467 28.6788 54.6341 29.0617V29.1054C54.6215 29.3881 54.6088 29.6775 54.5836 29.9476C54.5651 30.205 54.5398 30.4565 54.5146 30.7014C54.4768 31.0598 54.4389 31.4174 54.3825 31.7757C54.3699 31.87 54.3573 31.9709 54.3447 32.071C54.2942 32.4101 54.2319 32.7559 54.1621 33.0949C54.1116 33.365 54.0552 33.6351 53.9922 33.9118C53.9358 34.1886 53.8668 34.4646 53.7977 34.7347C53.5655 35.608 53.308 36.4686 53 37.3041C52.9243 37.5118 52.8427 37.7188 52.761 37.9325C52.6163 38.2968 52.4657 38.6552 52.3024 39.0135C52.1644 39.3274 52.0197 39.642 51.8691 39.9558C51.7058 40.289 51.5359 40.6095 51.36 40.93C51.2531 41.1311 51.1463 41.3255 51.0335 41.508C50.9266 41.6965 50.8138 41.8916 50.7003 42.0801C50.5496 42.3249 50.399 42.5638 50.2416 42.8027C50.0405 43.1106 49.8268 43.4245 49.6131 43.7324C49.4558 43.952 49.2925 44.1724 49.1293 44.3861C48.9786 44.5871 48.8213 44.7815 48.6707 44.9826C48.2306 45.5227 47.772 46.0569 47.2822 46.5785C47.0744 46.7982 46.8674 47.0185 46.6537 47.2322L46.578 47.3079C46.3642 47.5216 46.1446 47.7286 45.9242 47.9296C45.4529 48.363 44.9691 48.7903 44.4786 49.1798C44.2337 49.3869 43.9821 49.582 43.7306 49.7704C43.712 49.7831 43.6927 49.7957 43.6801 49.8083C43.4411 49.9908 43.1903 50.16 42.9447 50.3299C42.6805 50.5183 42.4171 50.6942 42.1529 50.8641C41.8828 51.0466 41.6126 51.2158 41.3358 51.3731C40.406 51.9258 39.4443 52.4289 38.4454 52.8807C38.2881 52.9497 38.1248 53.0128 37.9616 53.0818C37.4777 53.2888 36.9813 53.4839 36.4848 53.6598C36.139 53.7792 35.7939 53.8987 35.4414 54.0055C35.0207 54.1435 34.5865 54.263 34.1532 54.3765C33.8266 54.4581 33.4994 54.5397 33.1729 54.6088C32.9718 54.6525 32.7647 54.6963 32.5569 54.7341C32.387 54.7661 32.2052 54.7972 32.0352 54.8284C31.2501 54.9604 30.4516 55.0732 29.6472 55.1296C29.4965 55.1482 29.3392 55.1608 29.1886 55.1734C28.5726 55.2172 27.9508 55.2364 27.3222 55.2364C26.9512 55.2364 26.5809 55.2305 26.2098 55.2112C25.9776 55.2053 25.7386 55.1927 25.4997 55.1734C25.2926 55.1608 25.0915 55.1422 24.8837 55.1229C24.7079 55.1103 24.5379 55.0977 24.362 55.0725C24.1862 55.0539 24.0103 55.0346 23.8344 55.0094H23.8285C23.6711 54.9909 23.5146 54.9716 23.3572 54.9463C23.1999 54.9211 23.0433 54.8959 22.886 54.8647C22.7665 54.8521 22.6411 54.8336 22.5217 54.8083C22.5157 54.8143 22.509 54.8143 22.5031 54.8083C22.3836 54.7898 22.2641 54.7705 22.1514 54.7453C22.1135 54.7393 22.0823 54.7267 22.0504 54.72C22.0378 54.72 22.0193 54.7141 22 54.7141C21.9814 54.7082 21.9621 54.7082 21.9495 54.6948L21.384 54.582C21.1955 54.5383 21.007 54.4938 20.8186 54.45C20.6553 54.4121 20.492 54.3743 20.328 54.3305C20.2969 54.3246 20.265 54.312 20.2279 54.2994C20.052 54.2556 19.882 54.2051 19.7128 54.1547C19.4049 54.0664 19.1036 53.9722 18.8016 53.872C18.7326 53.8534 18.6635 53.8282 18.5945 53.803C18.4817 53.7718 18.3682 53.734 18.2487 53.6835C18.0981 53.6331 17.9533 53.5826 17.8086 53.5262C17.4821 53.4068 17.1549 53.2747 16.8283 53.1426C16.7653 53.1174 16.7089 53.0922 16.6465 53.061C16.3638 52.9483 16.087 52.8221 15.8109 52.69C15.503 52.5454 15.2076 52.4007 14.9063 52.2501C14.7683 52.1811 14.6295 52.1121 14.4982 52.0364C14.1717 51.8665 13.8511 51.6847 13.5364 51.4962C13.3917 51.4146 13.2537 51.3263 13.109 51.2447C13.04 51.2009 12.9643 51.1505 12.8893 51.1067C12.5376 50.893 12.1918 50.6608 11.846 50.4219C11.7139 50.3336 11.5818 50.2394 11.4564 50.1451C11.3057 50.045 11.1551 49.9315 11.0037 49.8187C10.7143 49.605 10.4256 49.3854 10.1488 49.1524C10.0108 49.0396 9.87868 48.9261 9.74659 48.8193C9.62117 48.7124 9.49502 48.6056 9.37554 48.4987C9.25013 48.3919 9.12398 48.285 9.0045 48.1723C8.87909 48.0595 8.75961 47.9526 8.64014 47.8391C7.93663 47.1795 7.27024 46.488 6.63575 45.7535C6.52889 45.6407 6.42871 45.5213 6.33447 45.4018C6.27139 45.3261 6.20905 45.2512 6.15191 45.1755C6.12075 45.1377 6.08883 45.0998 6.0636 45.0627C5.95674 44.9373 5.85656 44.8112 5.75564 44.6791V44.6732C5.74302 44.6673 5.73708 44.6546 5.73708 44.648C5.52336 44.3712 5.30964 44.0826 5.1026 43.7999C4.89556 43.5046 4.68777 43.2026 4.48666 42.8947C4.28556 42.5935 4.09113 42.2856 3.9019 41.971C3.71341 41.6564 3.53086 41.3425 3.35498 41.022C3.17911 40.7015 3.00916 40.381 2.84591 40.0478C2.68858 39.7214 2.53201 39.3882 2.38136 39.0551C2.25595 38.785 2.1424 38.5083 2.0296 38.2323C1.86041 37.8301 1.70309 37.4154 1.55838 37.0006C0.722788 34.6568 0.207038 32.163 0.050457 29.5677C0.0192892 29.0149 0 28.4622 0 27.9027C0 20.7028 2.78357 14.1557 7.34 9.27364C7.94925 8.61404 8.5971 7.99228 9.26943 7.395C9.74734 6.98025 10.2371 6.57217 10.7395 6.19525V6.18932C11.4556 5.6425 12.2037 5.12758 12.9702 4.66905C13.0771 4.58075 13.1966 4.51175 13.316 4.44275C13.624 4.26023 13.932 4.09106 14.2021 3.93377C14.3965 3.82692 14.585 3.72008 14.755 3.63847C14.8678 3.5754 14.9872 3.51901 15.0941 3.46856C16.1998 2.90912 17.3374 2.43204 18.5062 2.03584L19.0153 1.86593C20.0587 1.53279 21.1265 1.26272 22.1951 1.06165C22.5469 0.992645 22.9053 0.929578 23.2571 0.879125C23.4893 0.847963 23.7157 0.816059 23.948 0.790832C24.2559 0.747057 24.5698 0.709217 24.8718 0.68399C25.2548 0.652828 25.651 0.627601 26.0347 0.608311C26.4681 0.583084 26.8896 0.577148 27.323 0.577148C27.7 0.577148 28.0643 0.583084 28.4287 0.602375C28.8057 0.60831 29.17 0.633537 29.5344 0.671377C29.9114 0.696604 30.2757 0.734443 30.6401 0.778219H30.646C31.0045 0.821994 31.3688 0.872448 31.7265 0.935514C32.4679 1.05497 33.1966 1.20559 33.9194 1.38143C34.9939 1.64557 36.0373 1.97203 37.0488 2.36156C38.0922 2.75109 39.091 3.20961 40.0587 3.7186C40.3348 3.87589 40.6056 4.02058 40.8757 4.17119C40.9321 4.19642 40.9826 4.23426 41.0331 4.25949C41.0895 4.29065 41.1399 4.32849 41.203 4.35965C41.3729 4.46056 41.5488 4.56072 41.718 4.66756C41.8056 4.71802 41.888 4.76773 41.9755 4.83747C42.1135 4.91315 42.2456 5.00738 42.3837 5.10161C42.5595 5.20845 42.7295 5.32791 42.8987 5.44736C43.2 5.65511 43.4953 5.87473 43.7974 6.09435C43.8285 6.11957 43.873 6.15074 43.9228 6.18858C44.0608 6.28948 44.2433 6.42749 44.4571 6.59665C44.771 6.85411 45.0856 7.11825 45.3869 7.40094C45.5442 7.53894 45.7008 7.67769 45.8522 7.82163C46.0719 8.0227 46.2856 8.23044 46.4934 8.43077C46.7011 8.63778 46.9082 8.84553 47.1093 9.05921C47.3609 9.31667 47.6057 9.58081 47.8447 9.85088C47.9137 9.92656 47.9894 10.0082 48.0584 10.0898C48.1022 10.1336 48.1401 10.184 48.1712 10.2345C48.2091 10.2849 48.2528 10.3354 48.2907 10.3792C48.6491 10.7939 48.9883 11.2213 49.3148 11.6605C49.5092 11.9373 49.7044 12.2133 49.8929 12.496C50.2261 12.9797 50.54 13.4761 50.842 13.9851V13.991C51.049 14.3241 51.2375 14.6632 51.4134 15.0149C51.4765 15.0965 51.5136 15.1848 51.5581 15.279C51.7466 15.6248 51.9225 15.9891 52.0924 16.3534C52.3499 16.8935 52.5889 17.4463 52.8026 17.9998C52.9095 18.2766 53.0163 18.5592 53.1165 18.8419C53.1981 19.0742 53.2738 19.3131 53.3554 19.552C53.4118 19.7404 53.4749 19.9163 53.5254 20.1047C53.7139 20.7517 53.8898 21.4113 54.0278 22.0776C54.1154 22.4671 54.191 22.8567 54.2541 23.2462C54.292 23.4287 54.3231 23.6105 54.3424 23.7989C54.3484 23.8116 54.3484 23.8301 54.3484 23.8368C54.3795 24.0252 54.4048 24.2137 54.4241 24.4022C54.4367 24.4333 54.4426 24.4652 54.4426 24.5023C54.4612 24.6403 54.4738 24.7724 54.4931 24.9104C54.5116 25.0425 54.5183 25.1805 54.5242 25.3192C54.5302 25.3697 54.5369 25.4261 54.5428 25.4765C54.5487 25.5329 54.5554 25.5893 54.5613 25.6397C54.5613 25.6709 54.5673 25.7087 54.5673 25.7466C54.5732 25.7904 54.5799 25.8349 54.5799 25.8787C54.6304 26.5449 54.6556 27.2231 54.6556 27.902L54.6593 27.9057Z" stroke="#FEC14C" stroke-width="6.4461" mask="url(#path-1-inside-1_220_6966)"/>
<path d="M36.483 53.6607C33.6171 54.6809 30.5389 55.2337 27.3242 55.2337C15.427 55.2337 5.29825 47.6242 1.55664 37.0038C1.89652 37.0631 2.23713 37.1737 2.53471 37.3354C3.62335 37.9053 4.38844 38.9255 5.17951 39.8692C5.97058 40.813 6.88854 41.7568 8.0796 42.0543C9.71219 42.4705 11.7277 41.6714 12.9521 42.8193C13.5985 43.4232 13.8538 44.4686 14.6872 44.7751C15.6059 45.1238 16.6262 44.1882 16.6856 43.2021C16.7539 42.2242 16.1587 41.3146 15.4693 40.609C14.7888 39.8945 13.9896 39.2823 13.4538 38.458C12.9269 37.6248 12.7392 36.4599 13.3432 35.6861C13.8872 34.9886 14.9335 34.8276 15.7587 35.1422C16.5839 35.4568 17.2132 36.1453 17.6637 36.911C18.4377 38.2035 18.7694 39.7082 19.4491 41.043C20.1296 42.3867 21.337 43.6451 22.842 43.6703C24.1599 43.7044 25.7421 42.8541 26.6519 43.815C27.1535 44.3418 27.1283 45.1586 27.3064 45.8643C27.834 47.9388 30.0618 49.002 32.0261 49.8434C33.8969 50.6343 35.9814 51.748 36.483 53.6607Z" fill="#FEC14C"/>
<path d="M54.031 22.0801C53.5783 22.0927 53.1071 22.0801 52.6047 22.0548C51.8003 22.017 50.9959 21.9732 50.1915 21.9354C49.8649 21.9168 49.5377 21.9042 49.2112 21.8849C48.3192 21.8412 47.3389 21.8285 46.5908 22.2618C46.4461 22.3435 46.314 22.4377 46.1886 22.5571C45.7738 22.9526 45.523 23.5247 45.0139 23.7821C44.5486 24.0084 44.0024 23.9075 43.4867 23.9201C41.9342 23.958 40.571 25.0635 39.7978 26.402C39.0876 27.6269 38.629 28.9276 38.3462 30.2661C37.6553 33.4892 38.0004 36.9444 38.3277 40.1935C38.3403 40.3003 38.3529 40.4072 38.3529 40.514C38.4093 41.092 38.416 41.6826 38.1703 42.2042C37.8817 42.82 37.1084 43.26 36.5051 42.9454C36.3166 42.8512 36.1719 42.6939 36.0524 42.518C35.9396 42.3548 35.8513 42.1597 35.7638 41.9779C35.2859 40.9473 35.1857 39.8351 34.7456 38.8491C34.1237 37.4542 32.9609 37.8437 31.7921 37.3221C30.9498 36.9452 30.5291 35.9962 30.328 35.0977C30.2901 34.9219 30.2523 34.746 30.2211 34.5702C30.0831 33.8349 29.9695 33.0878 29.6178 32.44C29.505 32.239 29.3662 32.0379 29.1592 31.937C28.9833 31.8487 28.7762 31.8361 28.5811 31.8301C27.4249 31.8049 26.0988 31.8865 24.9678 32.1128C23.9875 32.3139 23.1453 33.1241 22.1405 33.1115C20.4567 33.0863 19.7339 30.8938 19.935 29.2222C20.142 27.5513 20.7454 25.729 19.8972 24.2777C18.5525 21.9784 14.5051 22.2485 13.5627 19.76C12.6514 17.3345 15.668 15.28 18.2193 14.8282C20.7773 14.3696 23.9126 14.0996 25.0064 11.7498C25.5341 10.6124 25.3775 9.34362 24.9374 8.13719C24.7237 7.53398 24.435 6.94338 24.133 6.39062C23.2217 4.74422 22.116 3.05404 22.185 1.1754C22.185 1.13756 22.1909 1.09972 22.1976 1.06262C22.5494 0.993622 22.9078 0.930555 23.2596 0.880102C23.4918 0.84894 23.7182 0.817036 23.9504 0.791809C24.2584 0.748033 24.5723 0.710194 24.8743 0.684967C25.2573 0.653805 25.6535 0.628579 26.0372 0.609288C26.4706 0.584061 26.8921 0.578125 27.3255 0.578125C27.7024 0.578125 28.0668 0.584061 28.4312 0.603352C28.8082 0.609288 29.1725 0.634514 29.5369 0.672354C29.9139 0.697581 30.2782 0.735421 30.6426 0.779196H30.6485C31.007 0.822972 31.3713 0.873425 31.729 0.936491C32.4704 1.05595 33.1991 1.20656 33.9219 1.38241C34.94 1.63393 35.9263 1.93517 36.8813 2.29947C36.9377 2.31802 36.9941 2.34324 37.0513 2.36253C38.0947 2.75206 39.0935 3.21059 40.0612 3.71957C40.3373 3.87687 40.6081 4.02155 40.8782 4.17217C40.9346 4.1974 40.9851 4.23524 41.0356 4.26046C41.092 4.29162 41.1424 4.32946 41.2055 4.36063C41.3754 4.46153 41.5513 4.5617 41.7205 4.66854C41.8081 4.71899 41.8904 4.7687 41.978 4.83845C42.116 4.91413 42.2481 5.00836 42.3862 5.10258C42.562 5.20943 42.732 5.32888 42.9012 5.44834C43.2025 5.65609 43.4978 5.87571 43.7998 6.09532C43.831 6.12055 43.8755 6.15171 43.9253 6.18955C44.0633 6.29046 44.2458 6.42846 44.4596 6.59763C44.7735 6.85509 45.0881 7.11923 45.3894 7.40191C45.5467 7.53992 45.7033 7.67866 45.8547 7.8226C46.0743 8.02367 46.2881 8.23142 46.4959 8.43175C46.7036 8.63876 46.9107 8.8465 47.1118 9.06019C47.3633 9.31765 47.6082 9.58178 47.8472 9.85186C47.9162 9.92754 47.9919 10.0092 48.0609 10.0908C48.1047 10.1345 48.1425 10.185 48.1737 10.2354C48.2116 10.2859 48.2553 10.3364 48.2932 10.3801C48.6516 10.7949 48.9907 11.2223 49.3173 11.6615C49.5117 11.9382 49.7069 12.2143 49.8954 12.4969C50.2286 12.9807 50.5425 13.4771 50.8445 13.986V13.992C51.0515 14.3251 51.24 14.6642 51.4159 15.0159C51.479 15.0975 51.5161 15.1858 51.5606 15.28C51.7491 15.6258 51.925 15.9901 52.0949 16.3544C52.3524 16.8945 52.5914 17.4473 52.8051 18.0008C52.912 18.2775 53.0188 18.5602 53.119 18.8429C53.2006 19.0751 53.2763 19.314 53.3579 19.553C53.4143 19.7414 53.4774 19.9173 53.5279 20.1057C53.5969 20.3446 53.6659 20.5895 53.729 20.8343C53.8418 21.2431 53.9427 21.6571 54.0303 22.0786L54.031 22.0801Z" fill="#FEC14C"/>
<path d="M9.82425 14.3274C9.48511 16.3255 6.53754 16.7714 5.76502 18.6374C5.08007 20.3024 6.45665 22.181 6.11677 23.9461C5.74573 25.8752 3.62186 26.8108 1.99446 27.9104C1.28428 28.3882 0.631251 28.9469 0.0524214 29.5694C0.0212537 29.0167 0.00195312 28.4639 0.00195312 27.9045C0.00195312 20.7045 2.78553 14.1575 7.34196 9.27539C7.5119 9.89122 7.87626 10.507 8.27179 11.0034C9.0636 11.9902 10.0372 13.0831 9.82425 14.3274Z" fill="#FEC14C"/>
<path d="M67.8749 27.1865C66.7763 25.8438 65.7872 24.6349 64.7983 23.4261C64.5601 23.1349 64.3187 22.8461 64.0857 22.5503C63.6892 22.0464 63.6778 21.6682 64.0406 21.3346C64.3707 21.0311 64.8374 21.1039 65.2062 21.5442C65.931 22.4093 66.6452 23.284 67.3617 24.1565C68.2163 25.1973 69.0611 26.2467 69.9254 27.2787C70.2866 27.71 70.3343 28.1094 69.9647 28.5579C68.3907 30.4685 66.8246 32.3862 65.2498 34.2963C65.1271 34.4452 64.9569 34.6671 64.816 34.6614C64.5184 34.6493 64.1575 34.5908 63.9475 34.4016C63.6399 34.1249 63.7586 33.7358 64.0061 33.4306C64.6796 32.5994 65.3611 31.7751 66.0386 30.9472C66.614 30.2444 67.1881 29.5405 67.8741 28.7011H67.1491C61.797 28.7011 63.3045 28.7013 57.9524 28.7C57.7203 28.7 57.4351 28.7665 57.2681 28.6534C57.0232 28.4879 56.7098 28.1884 56.709 27.9451C56.7082 27.7021 57.02 27.4005 57.2641 27.2341C57.4303 27.1208 57.716 27.1873 57.9482 27.1873C63.2808 27.1857 61.754 27.1862 67.0866 27.1862L67.8749 27.1865Z" fill="#FEC14C"/>
</g>
<defs>
<clipPath id="clip0_220_6966">
<rect width="70.2201" height="54.6593" fill="white" transform="translate(0 0.576172)"/>
</clipPath>
</defs>
</svg>
