<svg width="71" height="55" viewBox="0 0 71 55" fill="none" xmlns="http://www.w3.org/2000/svg">
<g clip-path="url(#clip0_220_6985)">
<mask id="path-1-inside-1_220_6985" fill="white">
<path d="M54.6593 27.4291C54.6593 27.8187 54.6467 28.2022 54.6341 28.5851V28.6289C54.6215 28.9116 54.6088 29.2009 54.5836 29.471C54.5651 29.7285 54.5398 29.98 54.5146 30.2248C54.4768 30.5832 54.4389 30.9408 54.3825 31.2992C54.3699 31.3934 54.3573 31.4943 54.3447 31.5945C54.2942 31.9336 54.2319 32.2793 54.1621 32.6184C54.1116 32.8885 54.0552 33.1585 53.9922 33.4353C53.9358 33.712 53.8668 33.988 53.7977 34.2581C53.5655 35.1314 53.308 35.9921 53 36.8275C52.9243 37.0353 52.8427 37.2423 52.761 37.4559C52.6163 37.8202 52.4657 38.1786 52.3024 38.537C52.1644 38.8508 52.0197 39.1654 51.8691 39.4793C51.7058 39.8124 51.5359 40.1329 51.36 40.4535C51.2531 40.6545 51.1463 40.8489 51.0335 41.0314C50.9266 41.2199 50.8138 41.415 50.7003 41.6035C50.5496 41.8483 50.399 42.0872 50.2416 42.3262C50.0405 42.6341 49.8268 42.9479 49.6131 43.2558C49.4558 43.4754 49.2925 43.6958 49.1293 43.9095C48.9786 44.1106 48.8213 44.305 48.6707 44.506C48.2306 45.0462 47.772 45.5804 47.2822 46.102C47.0744 46.3216 46.8674 46.542 46.6537 46.7556L46.578 46.8313C46.3642 47.045 46.1446 47.252 45.9242 47.4531C45.4529 47.8864 44.9691 48.3138 44.4786 48.7033C44.2337 48.9103 43.9821 49.1054 43.7306 49.2939C43.712 49.3065 43.6927 49.3191 43.6801 49.3317C43.4411 49.5142 43.1903 49.6834 42.9447 49.8533C42.6805 50.0418 42.4171 50.2176 42.1529 50.3875C41.8828 50.5701 41.6126 50.7392 41.3358 50.8965C40.406 51.4493 39.4443 51.9523 38.4454 52.4042C38.2881 52.4732 38.1248 52.5362 37.9616 52.6052C37.4777 52.8122 36.9813 53.0074 36.4848 53.1832C36.139 53.3027 35.7939 53.4221 35.4414 53.529C35.0207 53.667 34.5865 53.7864 34.1532 53.9C33.8266 53.9816 33.4994 54.0632 33.1729 54.1322C32.9718 54.176 32.7647 54.2197 32.5569 54.2576C32.387 54.2895 32.2052 54.3207 32.0352 54.3518C31.2501 54.4839 30.4516 54.5967 29.6472 54.653C29.4965 54.6716 29.3392 54.6842 29.1886 54.6968C28.5726 54.7406 27.9508 54.7599 27.3222 54.7599C26.9512 54.7599 26.5809 54.754 26.2098 54.7347C25.9776 54.7287 25.7386 54.7161 25.4997 54.6968C25.2926 54.6842 25.0915 54.6657 24.8837 54.6464C24.7079 54.6338 24.5379 54.6211 24.362 54.5959C24.1862 54.5774 24.0103 54.5581 23.8344 54.5328H23.8285C23.6711 54.5143 23.5146 54.495 23.3572 54.4698C23.1999 54.4446 23.0433 54.4193 22.886 54.3882C22.7665 54.3756 22.6411 54.357 22.5217 54.3318C22.5157 54.3377 22.509 54.3377 22.5031 54.3318C22.3836 54.3132 22.2641 54.2939 22.1514 54.2687C22.1135 54.2628 22.0823 54.2502 22.0504 54.2435C22.0378 54.2435 22.0193 54.2376 22 54.2376C21.9814 54.2316 21.9621 54.2316 21.9495 54.2183L21.384 54.1055C21.1955 54.0617 21.007 54.0172 20.8186 53.9734C20.6553 53.9356 20.492 53.8977 20.328 53.854C20.2969 53.848 20.265 53.8354 20.2279 53.8228C20.052 53.779 19.882 53.7286 19.7128 53.6781C19.4049 53.5898 19.1036 53.4956 18.8016 53.3954C18.7326 53.3769 18.6635 53.3517 18.5945 53.3264C18.4817 53.2953 18.3682 53.2574 18.2487 53.207C18.0981 53.1565 17.9533 53.1061 17.8086 53.0497C17.4821 52.9302 17.1549 52.7982 16.8283 52.6661C16.7653 52.6409 16.7089 52.6156 16.6465 52.5845C16.3638 52.4717 16.087 52.3456 15.8109 52.2135C15.503 52.0688 15.2076 51.9241 14.9063 51.7735C14.7683 51.7045 14.6295 51.6355 14.4982 51.5598C14.1717 51.3899 13.8511 51.2081 13.5364 51.0197C13.3917 50.9381 13.2537 50.8498 13.109 50.7682C13.04 50.7244 12.9643 50.6739 12.8893 50.6302C12.5376 50.4165 12.1918 50.1842 11.846 49.9453C11.7139 49.857 11.5818 49.7628 11.4564 49.6686C11.3057 49.5684 11.1551 49.4549 11.0037 49.3421C10.7143 49.1284 10.4256 48.9088 10.1488 48.6758C10.0108 48.5631 9.87868 48.4495 9.74659 48.3427C9.62117 48.2359 9.49502 48.129 9.37554 48.0222C9.25013 47.9153 9.12398 47.8085 9.0045 47.6957C8.87909 47.5829 8.75961 47.4761 8.64014 47.3626C7.93663 46.703 7.27024 46.0115 6.63575 45.2769C6.52889 45.1641 6.42871 45.0447 6.33447 44.9252C6.27139 44.8496 6.20905 44.7746 6.15191 44.6989C6.12075 44.6611 6.08883 44.6233 6.0636 44.5862C5.95674 44.4608 5.85656 44.3346 5.75564 44.2026V44.1966C5.74302 44.1907 5.73708 44.1781 5.73708 44.1714C5.52336 43.8947 5.30964 43.606 5.1026 43.3233C4.89556 43.028 4.68777 42.7261 4.48666 42.4182C4.28556 42.1169 4.09113 41.809 3.9019 41.4944C3.71341 41.1798 3.53086 40.866 3.35498 40.5455C3.17911 40.2249 3.00916 39.9044 2.84591 39.5713C2.68858 39.2448 2.53201 38.9117 2.38136 38.5785C2.25595 38.3085 2.1424 38.0317 2.0296 37.7557C1.86041 37.3536 1.70309 36.9388 1.55838 36.524C0.722788 34.1802 0.207038 31.6865 0.050457 29.0911C0.0192892 28.5384 0 27.9856 0 27.4262C0 20.2262 2.78357 13.6792 7.34 8.79708C7.94925 8.13747 8.5971 7.51571 9.26943 6.91844C9.74734 6.50368 10.2371 6.09561 10.7395 5.71869V5.71276C11.4556 5.16593 12.2037 4.65101 12.9702 4.19248C13.0771 4.10419 13.1966 4.03519 13.316 3.96619C13.624 3.78367 13.932 3.6145 14.2021 3.4572C14.3965 3.35036 14.585 3.24352 14.755 3.1619C14.8678 3.09884 14.9872 3.04245 15.0941 2.992C16.1998 2.43256 17.3374 1.95548 18.5062 1.55927L19.0153 1.38937C20.0587 1.05623 21.1265 0.786155 22.1951 0.585084C22.5469 0.516082 22.9053 0.453016 23.2571 0.402563C23.4893 0.3714 23.7157 0.339496 23.948 0.31427C24.2559 0.270494 24.5698 0.232654 24.8718 0.207428C25.2548 0.176266 25.651 0.151039 26.0347 0.131748C26.4681 0.106521 26.8896 0.100586 27.323 0.100586C27.7 0.100586 28.0643 0.106521 28.4287 0.125812C28.8057 0.131748 29.17 0.156975 29.5344 0.194814C29.9114 0.220041 30.2757 0.257881 30.6401 0.301656H30.646C31.0045 0.345432 31.3688 0.395885 31.7265 0.458951C32.4679 0.578407 33.1966 0.729024 33.9194 0.904868C34.9939 1.16901 36.0373 1.49547 37.0488 1.88499C38.0922 2.27452 39.091 2.73305 40.0587 3.24204C40.3348 3.39933 40.6056 3.54401 40.8757 3.69463C40.9321 3.71986 40.9826 3.7577 41.0331 3.78292C41.0895 3.81409 41.1399 3.85193 41.203 3.88309C41.3729 3.98399 41.5488 4.08416 41.718 4.191C41.8056 4.24145 41.888 4.29116 41.9755 4.36091C42.1135 4.43659 42.2456 4.53082 42.3837 4.62505C42.5595 4.73189 42.7295 4.85134 42.8987 4.9708C43.2 5.17855 43.4953 5.39817 43.7974 5.61779C43.8285 5.64301 43.873 5.67417 43.9228 5.71201C44.0608 5.81292 44.2433 5.95092 44.4571 6.12009C44.771 6.37755 45.0856 6.64169 45.3869 6.92437C45.5442 7.06238 45.7008 7.20112 45.8522 7.34506C46.0719 7.54613 46.2856 7.75388 46.4934 7.95421C46.7011 8.16122 46.9082 8.36897 47.1093 8.58265C47.3609 8.84011 47.6057 9.10425 47.8447 9.37432C47.9137 9.45 47.9894 9.53161 48.0584 9.61323C48.1022 9.657 48.1401 9.70746 48.1712 9.75791C48.2091 9.80836 48.2528 9.85882 48.2907 9.90259C48.6491 10.3173 48.9883 10.7447 49.3148 11.184C49.5092 11.4607 49.7044 11.7367 49.8929 12.0194C50.2261 12.5032 50.54 12.9995 50.842 13.5085V13.5144C51.049 13.8476 51.2375 14.1867 51.4134 14.5383C51.4765 14.62 51.5136 14.7083 51.5581 14.8025C51.7466 15.1482 51.9225 15.5125 52.0924 15.8768C52.3499 16.417 52.5889 16.9697 52.8026 17.5232C52.9095 17.8 53.0163 18.0827 53.1165 18.3654C53.1981 18.5976 53.2738 18.8365 53.3554 19.0754C53.4118 19.2639 53.4749 19.4397 53.5254 19.6282C53.7139 20.2752 53.8898 20.9348 54.0278 21.601C54.1154 21.9906 54.191 22.3801 54.2541 22.7696C54.292 22.9522 54.3231 23.1339 54.3424 23.3224C54.3484 23.335 54.3484 23.3535 54.3484 23.3602C54.3795 23.5487 54.4048 23.7371 54.4241 23.9256C54.4367 23.9568 54.4426 23.9887 54.4426 24.0258C54.4612 24.1638 54.4738 24.2958 54.4931 24.4338C54.5116 24.5659 54.5183 24.7039 54.5242 24.8427C54.5302 24.8931 54.5369 24.9495 54.5428 25C54.5487 25.0563 54.5554 25.1127 54.5613 25.1632C54.5613 25.1943 54.5673 25.2322 54.5673 25.27C54.5732 25.3138 54.5799 25.3583 54.5799 25.4021C54.6304 26.0684 54.6556 26.7465 54.6556 27.4254L54.6593 27.4291Z"/>
</mask>
<path d="M54.6593 27.4291C54.6593 27.8187 54.6467 28.2022 54.6341 28.5851V28.6289C54.6215 28.9116 54.6088 29.2009 54.5836 29.471C54.5651 29.7285 54.5398 29.98 54.5146 30.2248C54.4768 30.5832 54.4389 30.9408 54.3825 31.2992C54.3699 31.3934 54.3573 31.4943 54.3447 31.5945C54.2942 31.9336 54.2319 32.2793 54.1621 32.6184C54.1116 32.8885 54.0552 33.1585 53.9922 33.4353C53.9358 33.712 53.8668 33.988 53.7977 34.2581C53.5655 35.1314 53.308 35.9921 53 36.8275C52.9243 37.0353 52.8427 37.2423 52.761 37.4559C52.6163 37.8202 52.4657 38.1786 52.3024 38.537C52.1644 38.8508 52.0197 39.1654 51.8691 39.4793C51.7058 39.8124 51.5359 40.1329 51.36 40.4535C51.2531 40.6545 51.1463 40.8489 51.0335 41.0314C50.9266 41.2199 50.8138 41.415 50.7003 41.6035C50.5496 41.8483 50.399 42.0872 50.2416 42.3262C50.0405 42.6341 49.8268 42.9479 49.6131 43.2558C49.4558 43.4754 49.2925 43.6958 49.1293 43.9095C48.9786 44.1106 48.8213 44.305 48.6707 44.506C48.2306 45.0462 47.772 45.5804 47.2822 46.102C47.0744 46.3216 46.8674 46.542 46.6537 46.7556L46.578 46.8313C46.3642 47.045 46.1446 47.252 45.9242 47.4531C45.4529 47.8864 44.9691 48.3138 44.4786 48.7033C44.2337 48.9103 43.9821 49.1054 43.7306 49.2939C43.712 49.3065 43.6927 49.3191 43.6801 49.3317C43.4411 49.5142 43.1903 49.6834 42.9447 49.8533C42.6805 50.0418 42.4171 50.2176 42.1529 50.3875C41.8828 50.5701 41.6126 50.7392 41.3358 50.8965C40.406 51.4493 39.4443 51.9523 38.4454 52.4042C38.2881 52.4732 38.1248 52.5362 37.9616 52.6052C37.4777 52.8122 36.9813 53.0074 36.4848 53.1832C36.139 53.3027 35.7939 53.4221 35.4414 53.529C35.0207 53.667 34.5865 53.7864 34.1532 53.9C33.8266 53.9816 33.4994 54.0632 33.1729 54.1322C32.9718 54.176 32.7647 54.2197 32.5569 54.2576C32.387 54.2895 32.2052 54.3207 32.0352 54.3518C31.2501 54.4839 30.4516 54.5967 29.6472 54.653C29.4965 54.6716 29.3392 54.6842 29.1886 54.6968C28.5726 54.7406 27.9508 54.7599 27.3222 54.7599C26.9512 54.7599 26.5809 54.754 26.2098 54.7347C25.9776 54.7287 25.7386 54.7161 25.4997 54.6968C25.2926 54.6842 25.0915 54.6657 24.8837 54.6464C24.7079 54.6338 24.5379 54.6211 24.362 54.5959C24.1862 54.5774 24.0103 54.5581 23.8344 54.5328H23.8285C23.6711 54.5143 23.5146 54.495 23.3572 54.4698C23.1999 54.4446 23.0433 54.4193 22.886 54.3882C22.7665 54.3756 22.6411 54.357 22.5217 54.3318C22.5157 54.3377 22.509 54.3377 22.5031 54.3318C22.3836 54.3132 22.2641 54.2939 22.1514 54.2687C22.1135 54.2628 22.0823 54.2502 22.0504 54.2435C22.0378 54.2435 22.0193 54.2376 22 54.2376C21.9814 54.2316 21.9621 54.2316 21.9495 54.2183L21.384 54.1055C21.1955 54.0617 21.007 54.0172 20.8186 53.9734C20.6553 53.9356 20.492 53.8977 20.328 53.854C20.2969 53.848 20.265 53.8354 20.2279 53.8228C20.052 53.779 19.882 53.7286 19.7128 53.6781C19.4049 53.5898 19.1036 53.4956 18.8016 53.3954C18.7326 53.3769 18.6635 53.3517 18.5945 53.3264C18.4817 53.2953 18.3682 53.2574 18.2487 53.207C18.0981 53.1565 17.9533 53.1061 17.8086 53.0497C17.4821 52.9302 17.1549 52.7982 16.8283 52.6661C16.7653 52.6409 16.7089 52.6156 16.6465 52.5845C16.3638 52.4717 16.087 52.3456 15.8109 52.2135C15.503 52.0688 15.2076 51.9241 14.9063 51.7735C14.7683 51.7045 14.6295 51.6355 14.4982 51.5598C14.1717 51.3899 13.8511 51.2081 13.5364 51.0197C13.3917 50.9381 13.2537 50.8498 13.109 50.7682C13.04 50.7244 12.9643 50.6739 12.8893 50.6302C12.5376 50.4165 12.1918 50.1842 11.846 49.9453C11.7139 49.857 11.5818 49.7628 11.4564 49.6686C11.3057 49.5684 11.1551 49.4549 11.0037 49.3421C10.7143 49.1284 10.4256 48.9088 10.1488 48.6758C10.0108 48.5631 9.87868 48.4495 9.74659 48.3427C9.62117 48.2359 9.49502 48.129 9.37554 48.0222C9.25013 47.9153 9.12398 47.8085 9.0045 47.6957C8.87909 47.5829 8.75961 47.4761 8.64014 47.3626C7.93663 46.703 7.27024 46.0115 6.63575 45.2769C6.52889 45.1641 6.42871 45.0447 6.33447 44.9252C6.27139 44.8496 6.20905 44.7746 6.15191 44.6989C6.12075 44.6611 6.08883 44.6233 6.0636 44.5862C5.95674 44.4608 5.85656 44.3346 5.75564 44.2026V44.1966C5.74302 44.1907 5.73708 44.1781 5.73708 44.1714C5.52336 43.8947 5.30964 43.606 5.1026 43.3233C4.89556 43.028 4.68777 42.7261 4.48666 42.4182C4.28556 42.1169 4.09113 41.809 3.9019 41.4944C3.71341 41.1798 3.53086 40.866 3.35498 40.5455C3.17911 40.2249 3.00916 39.9044 2.84591 39.5713C2.68858 39.2448 2.53201 38.9117 2.38136 38.5785C2.25595 38.3085 2.1424 38.0317 2.0296 37.7557C1.86041 37.3536 1.70309 36.9388 1.55838 36.524C0.722788 34.1802 0.207038 31.6865 0.050457 29.0911C0.0192892 28.5384 0 27.9856 0 27.4262C0 20.2262 2.78357 13.6792 7.34 8.79708C7.94925 8.13747 8.5971 7.51571 9.26943 6.91844C9.74734 6.50368 10.2371 6.09561 10.7395 5.71869V5.71276C11.4556 5.16593 12.2037 4.65101 12.9702 4.19248C13.0771 4.10419 13.1966 4.03519 13.316 3.96619C13.624 3.78367 13.932 3.6145 14.2021 3.4572C14.3965 3.35036 14.585 3.24352 14.755 3.1619C14.8678 3.09884 14.9872 3.04245 15.0941 2.992C16.1998 2.43256 17.3374 1.95548 18.5062 1.55927L19.0153 1.38937C20.0587 1.05623 21.1265 0.786155 22.1951 0.585084C22.5469 0.516082 22.9053 0.453016 23.2571 0.402563C23.4893 0.3714 23.7157 0.339496 23.948 0.31427C24.2559 0.270494 24.5698 0.232654 24.8718 0.207428C25.2548 0.176266 25.651 0.151039 26.0347 0.131748C26.4681 0.106521 26.8896 0.100586 27.323 0.100586C27.7 0.100586 28.0643 0.106521 28.4287 0.125812C28.8057 0.131748 29.17 0.156975 29.5344 0.194814C29.9114 0.220041 30.2757 0.257881 30.6401 0.301656H30.646C31.0045 0.345432 31.3688 0.395885 31.7265 0.458951C32.4679 0.578407 33.1966 0.729024 33.9194 0.904868C34.9939 1.16901 36.0373 1.49547 37.0488 1.88499C38.0922 2.27452 39.091 2.73305 40.0587 3.24204C40.3348 3.39933 40.6056 3.54401 40.8757 3.69463C40.9321 3.71986 40.9826 3.7577 41.0331 3.78292C41.0895 3.81409 41.1399 3.85193 41.203 3.88309C41.3729 3.98399 41.5488 4.08416 41.718 4.191C41.8056 4.24145 41.888 4.29116 41.9755 4.36091C42.1135 4.43659 42.2456 4.53082 42.3837 4.62505C42.5595 4.73189 42.7295 4.85134 42.8987 4.9708C43.2 5.17855 43.4953 5.39817 43.7974 5.61779C43.8285 5.64301 43.873 5.67417 43.9228 5.71201C44.0608 5.81292 44.2433 5.95092 44.4571 6.12009C44.771 6.37755 45.0856 6.64169 45.3869 6.92437C45.5442 7.06238 45.7008 7.20112 45.8522 7.34506C46.0719 7.54613 46.2856 7.75388 46.4934 7.95421C46.7011 8.16122 46.9082 8.36897 47.1093 8.58265C47.3609 8.84011 47.6057 9.10425 47.8447 9.37432C47.9137 9.45 47.9894 9.53161 48.0584 9.61323C48.1022 9.657 48.1401 9.70746 48.1712 9.75791C48.2091 9.80836 48.2528 9.85882 48.2907 9.90259C48.6491 10.3173 48.9883 10.7447 49.3148 11.184C49.5092 11.4607 49.7044 11.7367 49.8929 12.0194C50.2261 12.5032 50.54 12.9995 50.842 13.5085V13.5144C51.049 13.8476 51.2375 14.1867 51.4134 14.5383C51.4765 14.62 51.5136 14.7083 51.5581 14.8025C51.7466 15.1482 51.9225 15.5125 52.0924 15.8768C52.3499 16.417 52.5889 16.9697 52.8026 17.5232C52.9095 17.8 53.0163 18.0827 53.1165 18.3654C53.1981 18.5976 53.2738 18.8365 53.3554 19.0754C53.4118 19.2639 53.4749 19.4397 53.5254 19.6282C53.7139 20.2752 53.8898 20.9348 54.0278 21.601C54.1154 21.9906 54.191 22.3801 54.2541 22.7696C54.292 22.9522 54.3231 23.1339 54.3424 23.3224C54.3484 23.335 54.3484 23.3535 54.3484 23.3602C54.3795 23.5487 54.4048 23.7371 54.4241 23.9256C54.4367 23.9568 54.4426 23.9887 54.4426 24.0258C54.4612 24.1638 54.4738 24.2958 54.4931 24.4338C54.5116 24.5659 54.5183 24.7039 54.5242 24.8427C54.5302 24.8931 54.5369 24.9495 54.5428 25C54.5487 25.0563 54.5554 25.1127 54.5613 25.1632C54.5613 25.1943 54.5673 25.2322 54.5673 25.27C54.5732 25.3138 54.5799 25.3583 54.5799 25.4021C54.6304 26.0684 54.6556 26.7465 54.6556 27.4254L54.6593 27.4291Z" stroke="#BBE1E6" stroke-width="6.4461" mask="url(#path-1-inside-1_220_6985)"/>
<path d="M36.483 53.1852C33.6171 54.2053 30.5389 54.7581 27.3242 54.7581C15.427 54.7581 5.29825 47.1486 1.55664 36.5282C1.89652 36.5876 2.23713 36.6981 2.53471 36.8599C3.62335 37.4297 4.38844 38.4499 5.17951 39.3936C5.97058 40.3374 6.88854 41.2812 8.0796 41.5787C9.71219 41.9949 11.7277 41.1959 12.9521 42.3437C13.5985 42.9476 13.8538 43.993 14.6872 44.2995C15.6059 44.6482 16.6262 43.7126 16.6856 42.7265C16.7539 41.7486 16.1587 40.839 15.4693 40.1334C14.7888 39.4189 13.9896 38.8068 13.4538 37.9824C12.9269 37.1492 12.7392 35.9843 13.3432 35.2105C13.8872 34.513 14.9335 34.352 15.7587 34.6666C16.5839 34.9812 17.2132 35.6698 17.6637 36.4355C18.4377 37.7279 18.7694 39.2326 19.4491 40.5674C20.1296 41.9111 21.337 43.1695 22.842 43.1947C24.1599 43.2288 25.7421 42.3785 26.6519 43.3394C27.1535 43.8662 27.1283 44.6831 27.3064 45.3887C27.834 47.4632 30.0618 48.5264 32.0261 49.3678C33.8969 50.1587 35.9814 51.2724 36.483 53.1852Z" fill="#BBE1E6"/>
<path d="M54.031 21.6055C53.5783 21.6181 53.1071 21.6055 52.6047 21.5802C51.8003 21.5424 50.9959 21.4986 50.1915 21.4608C49.8649 21.4422 49.5377 21.4296 49.2112 21.4103C48.3192 21.3665 47.3389 21.3539 46.5908 21.7872C46.4461 21.8689 46.314 21.9631 46.1886 22.0825C45.7738 22.478 45.523 23.05 45.0139 23.3075C44.5486 23.5338 44.0024 23.4329 43.4867 23.4455C41.9342 23.4834 40.571 24.5889 39.7978 25.9274C39.0876 27.1523 38.629 28.453 38.3462 29.7915C37.6553 33.0145 38.0004 36.4698 38.3277 39.7189C38.3403 39.8257 38.3529 39.9326 38.3529 40.0394C38.4093 40.6174 38.416 41.208 38.1703 41.7296C37.8817 42.3454 37.1084 42.7854 36.5051 42.4708C36.3166 42.3766 36.1719 42.2193 36.0524 42.0434C35.9396 41.8802 35.8513 41.6851 35.7638 41.5033C35.2859 40.4727 35.1857 39.3605 34.7456 38.3744C34.1237 36.9796 32.9609 37.3691 31.7921 36.8475C30.9498 36.4706 30.5291 35.5216 30.328 34.6231C30.2901 34.4473 30.2523 34.2714 30.2211 34.0956C30.0831 33.3603 29.9695 32.6131 29.6178 31.9654C29.505 31.7643 29.3662 31.5633 29.1592 31.4624C28.9833 31.3741 28.7762 31.3615 28.5811 31.3555C27.4249 31.3303 26.0988 31.4119 24.9678 31.6382C23.9875 31.8393 23.1453 32.6495 22.1405 32.6369C20.4567 32.6117 19.7339 30.4192 19.935 28.7475C20.142 27.0767 20.7454 25.2544 19.8972 23.8031C18.5525 21.5038 14.5051 21.7739 13.5627 19.2854C12.6514 16.8599 15.668 14.8054 18.2193 14.3536C20.7773 13.895 23.9126 13.625 25.0064 11.2752C25.5341 10.1378 25.3775 8.86901 24.9374 7.66258C24.7237 7.05937 24.435 6.46877 24.133 5.91601C23.2217 4.26961 22.116 2.57943 22.185 0.700792C22.185 0.662952 22.1909 0.625113 22.1976 0.588015C22.5494 0.519013 22.9078 0.455946 23.2596 0.405493C23.4918 0.374331 23.7182 0.342426 23.9504 0.3172C24.2584 0.273424 24.5723 0.235584 24.8743 0.210358C25.2573 0.179195 25.6535 0.153969 26.0372 0.134678C26.4706 0.109452 26.8921 0.103516 27.3255 0.103516C27.7024 0.103516 28.0668 0.109452 28.4312 0.128742C28.8082 0.134678 29.1725 0.159905 29.5369 0.197745C29.9139 0.222971 30.2782 0.260811 30.6426 0.304587H30.6485C31.007 0.348362 31.3713 0.398815 31.729 0.461882C32.4704 0.581337 33.1991 0.731954 33.9219 0.907798C34.94 1.15932 35.9263 1.46056 36.8813 1.82486C36.9377 1.84341 36.9941 1.86863 37.0513 1.88792C38.0947 2.27745 39.0935 2.73598 40.0612 3.24497C40.3373 3.40226 40.6081 3.54694 40.8782 3.69756C40.9346 3.72279 40.9851 3.76063 41.0356 3.78585C41.092 3.81702 41.1424 3.85486 41.2055 3.88602C41.3754 3.98692 41.5513 4.08709 41.7205 4.19393C41.8081 4.24438 41.8904 4.29409 41.978 4.36384C42.116 4.43952 42.2481 4.53375 42.3862 4.62798C42.562 4.73482 42.732 4.85427 42.9012 4.97373C43.2025 5.18148 43.4978 5.4011 43.7998 5.62072C43.831 5.64594 43.8755 5.6771 43.9253 5.71494C44.0633 5.81585 44.2458 5.95385 44.4596 6.12302C44.7735 6.38048 45.0881 6.64462 45.3894 6.9273C45.5467 7.06531 45.7033 7.20405 45.8547 7.34799C46.0743 7.54906 46.2881 7.75681 46.4959 7.95714C46.7036 8.16415 46.9107 8.3719 47.1118 8.58558C47.3633 8.84304 47.6082 9.10718 47.8472 9.37725C47.9162 9.45293 47.9919 9.53454 48.0609 9.61616C48.1047 9.65993 48.1425 9.71039 48.1737 9.76084C48.2116 9.81129 48.2553 9.86175 48.2932 9.90552C48.6516 10.3203 48.9907 10.7476 49.3173 11.1869C49.5117 11.4636 49.7069 11.7396 49.8954 12.0223C50.2286 12.5061 50.5425 13.0025 50.8445 13.5114V13.5174C51.0515 13.8505 51.24 14.1896 51.4159 14.5413C51.479 14.6229 51.5161 14.7112 51.5606 14.8054C51.7491 15.1512 51.925 15.5155 52.0949 15.8798C52.3524 16.4199 52.5914 16.9727 52.8051 17.5262C52.912 17.8029 53.0188 18.0856 53.119 18.3683C53.2006 18.6005 53.2763 18.8394 53.3579 19.0783C53.4143 19.2668 53.4774 19.4426 53.5279 19.6311C53.5969 19.87 53.6659 20.1149 53.729 20.3597C53.8418 20.7685 53.9427 21.1825 54.0303 21.604L54.031 21.6055Z" fill="#BBE1E6"/>
<path d="M9.82425 13.8518C9.48511 15.8499 6.53754 16.2958 5.76502 18.1618C5.08007 19.8268 6.45665 21.7054 6.11677 23.4705C5.74573 25.3996 3.62186 26.3352 1.99446 27.4348C1.28428 27.9126 0.631251 28.4713 0.0524214 29.0938C0.0212537 28.5411 0.00195312 27.9883 0.00195312 27.4289C0.00195312 20.2289 2.78553 13.6819 7.34196 8.7998C7.5119 9.41563 7.87626 10.0315 8.27179 10.5278C9.0636 11.5146 10.0372 12.6075 9.82425 13.8518Z" fill="#BBE1E6"/>
<path d="M67.8749 26.7119C66.7763 25.3692 65.7872 24.1603 64.7983 22.9515C64.5601 22.6603 64.3187 22.3715 64.0857 22.0757C63.6892 21.5718 63.6778 21.1936 64.0406 20.86C64.3707 20.5564 64.8374 20.6292 65.2062 21.0696C65.931 21.9347 66.6452 22.8094 67.3617 23.6819C68.2163 24.7227 69.0611 25.772 69.9254 26.8041C70.2866 27.2354 70.3343 27.6347 69.9647 28.0833C68.3907 29.9939 66.8246 31.9116 65.2498 33.8217C65.1271 33.9705 64.9569 34.1925 64.816 34.1868C64.5184 34.1747 64.1575 34.1161 63.9475 33.927C63.6399 33.6503 63.7586 33.2612 64.0061 32.956C64.6796 32.1248 65.3611 31.3005 66.0386 30.4726C66.614 29.7698 67.1881 29.0658 67.8741 28.2265H67.1491C61.797 28.2265 63.3045 28.2267 57.9524 28.2254C57.7203 28.2254 57.4351 28.2919 57.2681 28.1788C57.0232 28.0132 56.7098 27.7138 56.709 27.4705C56.7082 27.2275 57.02 26.9259 57.2641 26.7595C57.4303 26.6462 57.716 26.7127 57.9482 26.7127C63.2808 26.7111 61.754 26.7116 67.0866 26.7116L67.8749 26.7119Z" fill="#BBE1E6"/>
</g>
<defs>
<clipPath id="clip0_220_6985">
<rect width="70.2201" height="54.6593" fill="white" transform="translate(0 0.101562)"/>
</clipPath>
</defs>
</svg>
