<svg width="71" height="56" viewBox="0 0 71 56" fill="none" xmlns="http://www.w3.org/2000/svg">
<g clip-path="url(#clip0_220_6948)">
<mask id="path-1-inside-1_220_6948" fill="white">
<path d="M54.6593 28.2787C54.6593 28.6683 54.6467 29.0519 54.6341 29.4347V29.4785C54.6215 29.7612 54.6088 30.0505 54.5836 30.3206C54.5651 30.5781 54.5398 30.8296 54.5146 31.0744C54.4768 31.4328 54.4389 31.7904 54.3825 32.1488C54.3699 32.243 54.3573 32.3439 54.3447 32.4441C54.2942 32.7832 54.2319 33.1289 54.1621 33.468C54.1116 33.7381 54.0552 34.0081 53.9922 34.2849C53.9358 34.5616 53.8668 34.8376 53.7977 35.1077C53.5655 35.981 53.308 36.8417 53 37.6771C52.9243 37.8849 52.8427 38.0919 52.761 38.3056C52.6163 38.6699 52.4657 39.0282 52.3024 39.3866C52.1644 39.7004 52.0197 40.015 51.8691 40.3289C51.7058 40.662 51.5359 40.9825 51.36 41.3031C51.2531 41.5041 51.1463 41.6985 51.0335 41.881C50.9266 42.0695 50.8138 42.2646 50.7003 42.4531C50.5496 42.6979 50.399 42.9369 50.2416 43.1758C50.0405 43.4837 49.8268 43.7975 49.6131 44.1054C49.4558 44.3251 49.2925 44.5454 49.1293 44.7591C48.9786 44.9602 48.8213 45.1546 48.6707 45.3556C48.2306 45.8958 47.772 46.43 47.2822 46.9516C47.0744 47.1712 46.8674 47.3916 46.6537 47.6053L46.578 47.6809C46.3642 47.8946 46.1446 48.1016 45.9242 48.3027C45.4529 48.736 44.9691 49.1634 44.4786 49.5529C44.2337 49.7599 43.9821 49.955 43.7306 50.1435C43.712 50.1561 43.6927 50.1687 43.6801 50.1813C43.4411 50.3639 43.1903 50.533 42.9447 50.7029C42.6805 50.8914 42.4171 51.0672 42.1529 51.2371C41.8828 51.4197 41.6126 51.5888 41.3358 51.7461C40.406 52.2989 39.4443 52.8019 38.4454 53.2538C38.2881 53.3228 38.1248 53.3858 37.9616 53.4549C37.4777 53.6619 36.9813 53.857 36.4848 54.0328C36.139 54.1523 35.7939 54.2717 35.4414 54.3786C35.0207 54.5166 34.5865 54.636 34.1532 54.7496C33.8266 54.8312 33.4994 54.9128 33.1729 54.9818C32.9718 55.0256 32.7647 55.0694 32.5569 55.1072C32.387 55.1391 32.2052 55.1703 32.0352 55.2014C31.2501 55.3335 30.4516 55.4463 29.6472 55.5027C29.4965 55.5212 29.3392 55.5338 29.1886 55.5464C28.5726 55.5902 27.9508 55.6095 27.3222 55.6095C26.9512 55.6095 26.5809 55.6036 26.2098 55.5843C25.9776 55.5783 25.7386 55.5657 25.4997 55.5464C25.2926 55.5338 25.0915 55.5153 24.8837 55.496C24.7079 55.4834 24.5379 55.4707 24.362 55.4455C24.1862 55.427 24.0103 55.4077 23.8344 55.3825H23.8285C23.6711 55.3639 23.5146 55.3446 23.3572 55.3194C23.1999 55.2942 23.0433 55.2689 22.886 55.2378C22.7665 55.2252 22.6411 55.2066 22.5217 55.1814C22.5157 55.1873 22.509 55.1873 22.5031 55.1814C22.3836 55.1628 22.2641 55.1435 22.1514 55.1183C22.1135 55.1124 22.0823 55.0998 22.0504 55.0931C22.0378 55.0931 22.0193 55.0872 22 55.0872C21.9814 55.0812 21.9621 55.0812 21.9495 55.0679L21.384 54.9551C21.1955 54.9113 21.007 54.8668 20.8186 54.823C20.6553 54.7852 20.492 54.7473 20.328 54.7036C20.2969 54.6976 20.265 54.685 20.2279 54.6724C20.052 54.6286 19.882 54.5782 19.7128 54.5277C19.4049 54.4394 19.1036 54.3452 18.8016 54.245C18.7326 54.2265 18.6635 54.2013 18.5945 54.176C18.4817 54.1449 18.3682 54.107 18.2487 54.0566C18.0981 54.0061 17.9533 53.9557 17.8086 53.8993C17.4821 53.7798 17.1549 53.6478 16.8283 53.5157C16.7653 53.4905 16.7089 53.4652 16.6465 53.4341C16.3638 53.3213 16.087 53.1952 15.8109 53.0631C15.503 52.9184 15.2076 52.7737 14.9063 52.6231C14.7683 52.5541 14.6295 52.4851 14.4982 52.4094C14.1717 52.2395 13.8511 52.0577 13.5364 51.8693C13.3917 51.7877 13.2537 51.6994 13.109 51.6178C13.04 51.574 12.9643 51.5235 12.8893 51.4798C12.5376 51.2661 12.1918 51.0338 11.846 50.7949C11.7139 50.7066 11.5818 50.6124 11.4564 50.5182C11.3057 50.418 11.1551 50.3045 11.0037 50.1917C10.7143 49.978 10.4256 49.7584 10.1488 49.5254C10.0108 49.4127 9.87868 49.2991 9.74659 49.1923C9.62117 49.0855 9.49502 48.9786 9.37554 48.8718C9.25013 48.7649 9.12398 48.6581 9.0045 48.5453C8.87909 48.4325 8.75961 48.3257 8.64014 48.2122C7.93663 47.5526 7.27024 46.8611 6.63575 46.1265C6.52889 46.0138 6.42871 45.8943 6.33447 45.7748C6.27139 45.6992 6.20905 45.6242 6.15191 45.5485C6.12075 45.5107 6.08883 45.4729 6.0636 45.4358C5.95674 45.3104 5.85656 45.1842 5.75564 45.0522V45.0462C5.74302 45.0403 5.73708 45.0277 5.73708 45.021C5.52336 44.7443 5.30964 44.4556 5.1026 44.173C4.89556 43.8777 4.68777 43.5757 4.48666 43.2678C4.28556 42.9665 4.09113 42.6586 3.9019 42.344C3.71341 42.0294 3.53086 41.7156 3.35498 41.3951C3.17911 41.0745 3.00916 40.754 2.84591 40.4209C2.68858 40.0944 2.53201 39.7613 2.38136 39.4281C2.25595 39.1581 2.1424 38.8813 2.0296 38.6053C1.86041 38.2032 1.70309 37.7884 1.55838 37.3737C0.722788 35.0298 0.207038 32.5361 0.050457 29.9407C0.0192892 29.388 0 28.8352 0 28.2758C0 21.0758 2.78357 14.5288 7.34 9.64668C7.94925 8.98708 8.5971 8.36532 9.26943 7.76805C9.74734 7.35329 10.2371 6.94522 10.7395 6.5683V6.56237C11.4556 6.01554 12.2037 5.50062 12.9702 5.04209C13.0771 4.9538 13.1966 4.8848 13.316 4.8158C13.624 4.63327 13.932 4.46411 14.2021 4.30681C14.3965 4.19997 14.585 4.09313 14.755 4.01151C14.8678 3.94845 14.9872 3.89206 15.0941 3.84161C16.1998 3.28217 17.3374 2.80509 18.5062 2.40888L19.0153 2.23898C20.0587 1.90584 21.1265 1.63576 22.1951 1.43469C22.5469 1.36569 22.9053 1.30263 23.2571 1.25217C23.4893 1.22101 23.7157 1.18911 23.948 1.16388C24.2559 1.1201 24.5698 1.08226 24.8718 1.05704C25.2548 1.02588 25.651 1.00065 26.0347 0.981357C26.4681 0.956131 26.8896 0.950195 27.323 0.950195C27.7 0.950195 28.0643 0.956131 28.4287 0.975421C28.8057 0.981357 29.17 1.00658 29.5344 1.04442C29.9114 1.06965 30.2757 1.10749 30.6401 1.15127H30.646C31.0045 1.19504 31.3688 1.24549 31.7265 1.30856C32.4679 1.42802 33.1966 1.57863 33.9194 1.75448C34.9939 2.01861 36.0373 2.34508 37.0488 2.7346C38.0922 3.12413 39.091 3.58266 40.0587 4.09164C40.3348 4.24894 40.6056 4.39362 40.8757 4.54424C40.9321 4.56947 40.9826 4.60731 41.0331 4.63253C41.0895 4.66369 41.1399 4.70153 41.203 4.7327C41.3729 4.8336 41.5488 4.93377 41.718 5.04061C41.8056 5.09106 41.888 5.14077 41.9755 5.21052C42.1135 5.2862 42.2456 5.38043 42.3837 5.47465C42.5595 5.5815 42.7295 5.70095 42.8987 5.82041C43.2 6.02816 43.4953 6.24778 43.7974 6.46739C43.8285 6.49262 43.873 6.52378 43.9228 6.56162C44.0608 6.66253 44.2433 6.80053 44.4571 6.9697C44.771 7.22716 45.0856 7.4913 45.3869 7.77398C45.5442 7.91199 45.7008 8.05073 45.8522 8.19467C46.0719 8.39574 46.2856 8.60349 46.4934 8.80382C46.7011 9.01083 46.9082 9.21857 47.1093 9.43226C47.3609 9.68972 47.6057 9.95385 47.8447 10.2239C47.9137 10.2996 47.9894 10.3812 48.0584 10.4628C48.1022 10.5066 48.1401 10.5571 48.1712 10.6075C48.2091 10.658 48.2528 10.7084 48.2907 10.7522C48.6491 11.167 48.9883 11.5943 49.3148 12.0336C49.5092 12.3103 49.7044 12.5863 49.8929 12.869C50.2261 13.3528 50.54 13.8491 50.842 14.3581V14.3641C51.049 14.6972 51.2375 15.0363 51.4134 15.388C51.4765 15.4696 51.5136 15.5579 51.5581 15.6521C51.7466 15.9978 51.9225 16.3621 52.0924 16.7264C52.3499 17.2666 52.5889 17.8194 52.8026 18.3729C52.9095 18.6496 53.0163 18.9323 53.1165 19.215C53.1981 19.4472 53.2738 19.6861 53.3554 19.925C53.4118 20.1135 53.4749 20.2893 53.5254 20.4778C53.7139 21.1248 53.8898 21.7844 54.0278 22.4507C54.1154 22.8402 54.191 23.2297 54.2541 23.6192C54.292 23.8018 54.3231 23.9835 54.3424 24.172C54.3484 24.1846 54.3484 24.2032 54.3484 24.2098C54.3795 24.3983 54.4048 24.5868 54.4241 24.7752C54.4367 24.8064 54.4426 24.8383 54.4426 24.8754C54.4612 25.0134 54.4738 25.1454 54.4931 25.2834C54.5116 25.4155 54.5183 25.5535 54.5242 25.6923C54.5302 25.7427 54.5369 25.7991 54.5428 25.8496C54.5487 25.906 54.5554 25.9623 54.5613 26.0128C54.5613 26.044 54.5673 26.0818 54.5673 26.1196C54.5732 26.1634 54.5799 26.2079 54.5799 26.2517C54.6304 26.918 54.6556 27.5961 54.6556 28.275L54.6593 28.2787Z"/>
</mask>
<path d="M54.6593 28.2787C54.6593 28.6683 54.6467 29.0519 54.6341 29.4347V29.4785C54.6215 29.7612 54.6088 30.0505 54.5836 30.3206C54.5651 30.5781 54.5398 30.8296 54.5146 31.0744C54.4768 31.4328 54.4389 31.7904 54.3825 32.1488C54.3699 32.243 54.3573 32.3439 54.3447 32.4441C54.2942 32.7832 54.2319 33.1289 54.1621 33.468C54.1116 33.7381 54.0552 34.0081 53.9922 34.2849C53.9358 34.5616 53.8668 34.8376 53.7977 35.1077C53.5655 35.981 53.308 36.8417 53 37.6771C52.9243 37.8849 52.8427 38.0919 52.761 38.3056C52.6163 38.6699 52.4657 39.0282 52.3024 39.3866C52.1644 39.7004 52.0197 40.015 51.8691 40.3289C51.7058 40.662 51.5359 40.9825 51.36 41.3031C51.2531 41.5041 51.1463 41.6985 51.0335 41.881C50.9266 42.0695 50.8138 42.2646 50.7003 42.4531C50.5496 42.6979 50.399 42.9369 50.2416 43.1758C50.0405 43.4837 49.8268 43.7975 49.6131 44.1054C49.4558 44.3251 49.2925 44.5454 49.1293 44.7591C48.9786 44.9602 48.8213 45.1546 48.6707 45.3556C48.2306 45.8958 47.772 46.43 47.2822 46.9516C47.0744 47.1712 46.8674 47.3916 46.6537 47.6053L46.578 47.6809C46.3642 47.8946 46.1446 48.1016 45.9242 48.3027C45.4529 48.736 44.9691 49.1634 44.4786 49.5529C44.2337 49.7599 43.9821 49.955 43.7306 50.1435C43.712 50.1561 43.6927 50.1687 43.6801 50.1813C43.4411 50.3639 43.1903 50.533 42.9447 50.7029C42.6805 50.8914 42.4171 51.0672 42.1529 51.2371C41.8828 51.4197 41.6126 51.5888 41.3358 51.7461C40.406 52.2989 39.4443 52.8019 38.4454 53.2538C38.2881 53.3228 38.1248 53.3858 37.9616 53.4549C37.4777 53.6619 36.9813 53.857 36.4848 54.0328C36.139 54.1523 35.7939 54.2717 35.4414 54.3786C35.0207 54.5166 34.5865 54.636 34.1532 54.7496C33.8266 54.8312 33.4994 54.9128 33.1729 54.9818C32.9718 55.0256 32.7647 55.0694 32.5569 55.1072C32.387 55.1391 32.2052 55.1703 32.0352 55.2014C31.2501 55.3335 30.4516 55.4463 29.6472 55.5027C29.4965 55.5212 29.3392 55.5338 29.1886 55.5464C28.5726 55.5902 27.9508 55.6095 27.3222 55.6095C26.9512 55.6095 26.5809 55.6036 26.2098 55.5843C25.9776 55.5783 25.7386 55.5657 25.4997 55.5464C25.2926 55.5338 25.0915 55.5153 24.8837 55.496C24.7079 55.4834 24.5379 55.4707 24.362 55.4455C24.1862 55.427 24.0103 55.4077 23.8344 55.3825H23.8285C23.6711 55.3639 23.5146 55.3446 23.3572 55.3194C23.1999 55.2942 23.0433 55.2689 22.886 55.2378C22.7665 55.2252 22.6411 55.2066 22.5217 55.1814C22.5157 55.1873 22.509 55.1873 22.5031 55.1814C22.3836 55.1628 22.2641 55.1435 22.1514 55.1183C22.1135 55.1124 22.0823 55.0998 22.0504 55.0931C22.0378 55.0931 22.0193 55.0872 22 55.0872C21.9814 55.0812 21.9621 55.0812 21.9495 55.0679L21.384 54.9551C21.1955 54.9113 21.007 54.8668 20.8186 54.823C20.6553 54.7852 20.492 54.7473 20.328 54.7036C20.2969 54.6976 20.265 54.685 20.2279 54.6724C20.052 54.6286 19.882 54.5782 19.7128 54.5277C19.4049 54.4394 19.1036 54.3452 18.8016 54.245C18.7326 54.2265 18.6635 54.2013 18.5945 54.176C18.4817 54.1449 18.3682 54.107 18.2487 54.0566C18.0981 54.0061 17.9533 53.9557 17.8086 53.8993C17.4821 53.7798 17.1549 53.6478 16.8283 53.5157C16.7653 53.4905 16.7089 53.4652 16.6465 53.4341C16.3638 53.3213 16.087 53.1952 15.8109 53.0631C15.503 52.9184 15.2076 52.7737 14.9063 52.6231C14.7683 52.5541 14.6295 52.4851 14.4982 52.4094C14.1717 52.2395 13.8511 52.0577 13.5364 51.8693C13.3917 51.7877 13.2537 51.6994 13.109 51.6178C13.04 51.574 12.9643 51.5235 12.8893 51.4798C12.5376 51.2661 12.1918 51.0338 11.846 50.7949C11.7139 50.7066 11.5818 50.6124 11.4564 50.5182C11.3057 50.418 11.1551 50.3045 11.0037 50.1917C10.7143 49.978 10.4256 49.7584 10.1488 49.5254C10.0108 49.4127 9.87868 49.2991 9.74659 49.1923C9.62117 49.0855 9.49502 48.9786 9.37554 48.8718C9.25013 48.7649 9.12398 48.6581 9.0045 48.5453C8.87909 48.4325 8.75961 48.3257 8.64014 48.2122C7.93663 47.5526 7.27024 46.8611 6.63575 46.1265C6.52889 46.0138 6.42871 45.8943 6.33447 45.7748C6.27139 45.6992 6.20905 45.6242 6.15191 45.5485C6.12075 45.5107 6.08883 45.4729 6.0636 45.4358C5.95674 45.3104 5.85656 45.1842 5.75564 45.0522V45.0462C5.74302 45.0403 5.73708 45.0277 5.73708 45.021C5.52336 44.7443 5.30964 44.4556 5.1026 44.173C4.89556 43.8777 4.68777 43.5757 4.48666 43.2678C4.28556 42.9665 4.09113 42.6586 3.9019 42.344C3.71341 42.0294 3.53086 41.7156 3.35498 41.3951C3.17911 41.0745 3.00916 40.754 2.84591 40.4209C2.68858 40.0944 2.53201 39.7613 2.38136 39.4281C2.25595 39.1581 2.1424 38.8813 2.0296 38.6053C1.86041 38.2032 1.70309 37.7884 1.55838 37.3737C0.722788 35.0298 0.207038 32.5361 0.050457 29.9407C0.0192892 29.388 0 28.8352 0 28.2758C0 21.0758 2.78357 14.5288 7.34 9.64668C7.94925 8.98708 8.5971 8.36532 9.26943 7.76805C9.74734 7.35329 10.2371 6.94522 10.7395 6.5683V6.56237C11.4556 6.01554 12.2037 5.50062 12.9702 5.04209C13.0771 4.9538 13.1966 4.8848 13.316 4.8158C13.624 4.63327 13.932 4.46411 14.2021 4.30681C14.3965 4.19997 14.585 4.09313 14.755 4.01151C14.8678 3.94845 14.9872 3.89206 15.0941 3.84161C16.1998 3.28217 17.3374 2.80509 18.5062 2.40888L19.0153 2.23898C20.0587 1.90584 21.1265 1.63576 22.1951 1.43469C22.5469 1.36569 22.9053 1.30263 23.2571 1.25217C23.4893 1.22101 23.7157 1.18911 23.948 1.16388C24.2559 1.1201 24.5698 1.08226 24.8718 1.05704C25.2548 1.02588 25.651 1.00065 26.0347 0.981357C26.4681 0.956131 26.8896 0.950195 27.323 0.950195C27.7 0.950195 28.0643 0.956131 28.4287 0.975421C28.8057 0.981357 29.17 1.00658 29.5344 1.04442C29.9114 1.06965 30.2757 1.10749 30.6401 1.15127H30.646C31.0045 1.19504 31.3688 1.24549 31.7265 1.30856C32.4679 1.42802 33.1966 1.57863 33.9194 1.75448C34.9939 2.01861 36.0373 2.34508 37.0488 2.7346C38.0922 3.12413 39.091 3.58266 40.0587 4.09164C40.3348 4.24894 40.6056 4.39362 40.8757 4.54424C40.9321 4.56947 40.9826 4.60731 41.0331 4.63253C41.0895 4.66369 41.1399 4.70153 41.203 4.7327C41.3729 4.8336 41.5488 4.93377 41.718 5.04061C41.8056 5.09106 41.888 5.14077 41.9755 5.21052C42.1135 5.2862 42.2456 5.38043 42.3837 5.47465C42.5595 5.5815 42.7295 5.70095 42.8987 5.82041C43.2 6.02816 43.4953 6.24778 43.7974 6.46739C43.8285 6.49262 43.873 6.52378 43.9228 6.56162C44.0608 6.66253 44.2433 6.80053 44.4571 6.9697C44.771 7.22716 45.0856 7.4913 45.3869 7.77398C45.5442 7.91199 45.7008 8.05073 45.8522 8.19467C46.0719 8.39574 46.2856 8.60349 46.4934 8.80382C46.7011 9.01083 46.9082 9.21857 47.1093 9.43226C47.3609 9.68972 47.6057 9.95385 47.8447 10.2239C47.9137 10.2996 47.9894 10.3812 48.0584 10.4628C48.1022 10.5066 48.1401 10.5571 48.1712 10.6075C48.2091 10.658 48.2528 10.7084 48.2907 10.7522C48.6491 11.167 48.9883 11.5943 49.3148 12.0336C49.5092 12.3103 49.7044 12.5863 49.8929 12.869C50.2261 13.3528 50.54 13.8491 50.842 14.3581V14.3641C51.049 14.6972 51.2375 15.0363 51.4134 15.388C51.4765 15.4696 51.5136 15.5579 51.5581 15.6521C51.7466 15.9978 51.9225 16.3621 52.0924 16.7264C52.3499 17.2666 52.5889 17.8194 52.8026 18.3729C52.9095 18.6496 53.0163 18.9323 53.1165 19.215C53.1981 19.4472 53.2738 19.6861 53.3554 19.925C53.4118 20.1135 53.4749 20.2893 53.5254 20.4778C53.7139 21.1248 53.8898 21.7844 54.0278 22.4507C54.1154 22.8402 54.191 23.2297 54.2541 23.6192C54.292 23.8018 54.3231 23.9835 54.3424 24.172C54.3484 24.1846 54.3484 24.2032 54.3484 24.2098C54.3795 24.3983 54.4048 24.5868 54.4241 24.7752C54.4367 24.8064 54.4426 24.8383 54.4426 24.8754C54.4612 25.0134 54.4738 25.1454 54.4931 25.2834C54.5116 25.4155 54.5183 25.5535 54.5242 25.6923C54.5302 25.7427 54.5369 25.7991 54.5428 25.8496C54.5487 25.906 54.5554 25.9623 54.5613 26.0128C54.5613 26.044 54.5673 26.0818 54.5673 26.1196C54.5732 26.1634 54.5799 26.2079 54.5799 26.2517C54.6304 26.918 54.6556 27.5961 54.6556 28.275L54.6593 28.2787Z" stroke="#EB591B" stroke-width="6.4461" mask="url(#path-1-inside-1_220_6948)"/>
<path d="M36.483 54.0348C33.6171 55.055 30.5389 55.6077 27.3242 55.6077C15.427 55.6077 5.29825 47.9982 1.55664 37.3778C1.89652 37.4372 2.23713 37.5477 2.53471 37.7095C3.62335 38.2793 4.38844 39.2995 5.17951 40.2433C5.97058 41.187 6.88854 42.1308 8.0796 42.4283C9.71219 42.8446 11.7277 42.0455 12.9521 43.1933C13.5985 43.7972 13.8538 44.8426 14.6872 45.1491C15.6059 45.4978 16.6262 44.5622 16.6856 43.5761C16.7539 42.5982 16.1587 41.6886 15.4693 40.983C14.7888 40.2685 13.9896 39.6564 13.4538 38.832C12.9269 37.9988 12.7392 36.834 13.3432 36.0601C13.8872 35.3627 14.9335 35.2016 15.7587 35.5162C16.5839 35.8308 17.2132 36.5194 17.6637 37.2851C18.4377 38.5776 18.7694 40.0822 19.4491 41.417C20.1296 42.7607 21.337 44.0191 22.842 44.0443C24.1599 44.0784 25.7421 43.2281 26.6519 44.189C27.1535 44.7158 27.1283 45.5327 27.3064 46.2383C27.834 48.3128 30.0618 49.376 32.0261 50.2174C33.8969 51.0083 35.9814 52.122 36.483 54.0348Z" fill="#EB591B"/>
<path d="M54.031 22.4541C53.5783 22.4667 53.1071 22.4541 52.6047 22.4289C51.8003 22.391 50.9959 22.3472 50.1915 22.3094C49.8649 22.2909 49.5377 22.2782 49.2112 22.259C48.3192 22.2152 47.3389 22.2026 46.5908 22.6359C46.4461 22.7175 46.314 22.8117 46.1886 22.9312C45.7738 23.3266 45.523 23.8987 45.0139 24.1561C44.5486 24.3824 44.0024 24.2815 43.4867 24.2941C41.9342 24.332 40.571 25.4375 39.7978 26.776C39.0876 28.001 38.629 29.3016 38.3462 30.6401C37.6553 33.8632 38.0004 37.3185 38.3277 40.5675C38.3403 40.6743 38.3529 40.7812 38.3529 40.888C38.4093 41.466 38.416 42.0566 38.1703 42.5782C37.8817 43.194 37.1084 43.634 36.5051 43.3194C36.3166 43.2252 36.1719 43.0679 36.0524 42.8921C35.9396 42.7288 35.8513 42.5337 35.7638 42.3519C35.2859 41.3213 35.1857 40.2091 34.7456 39.2231C34.1237 37.8282 32.9609 38.2177 31.7921 37.6961C30.9498 37.3192 30.5291 36.3703 30.328 35.4717C30.2901 35.2959 30.2523 35.1201 30.2211 34.9442C30.0831 34.2089 29.9695 33.4618 29.6178 32.814C29.505 32.613 29.3662 32.4119 29.1592 32.311C28.9833 32.2227 28.7762 32.2101 28.5811 32.2042C27.4249 32.1789 26.0988 32.2605 24.9678 32.4868C23.9875 32.6879 23.1453 33.4981 22.1405 33.4855C20.4567 33.4603 19.7339 31.2678 19.935 29.5962C20.142 27.9253 20.7454 26.103 19.8972 24.6518C18.5525 22.3524 14.5051 22.6225 13.5627 20.134C12.6514 17.7085 15.668 15.654 18.2193 15.2022C20.7773 14.7437 23.9126 14.4736 25.0064 12.1238C25.5341 10.9864 25.3775 9.71764 24.9374 8.51122C24.7237 7.908 24.435 7.31741 24.133 6.76465C23.2217 5.11824 22.116 3.42806 22.185 1.54942C22.185 1.51158 22.1909 1.47375 22.1976 1.43665C22.5494 1.36765 22.9078 1.30458 23.2596 1.25413C23.4918 1.22296 23.7182 1.19106 23.9504 1.16583C24.2584 1.12206 24.5723 1.08422 24.8743 1.05899C25.2573 1.02783 25.6535 1.0026 26.0372 0.983311C26.4706 0.958085 26.8921 0.952148 27.3255 0.952148C27.7024 0.952148 28.0668 0.958084 28.4312 0.977375C28.8082 0.983311 29.1725 1.00854 29.5369 1.04638C29.9139 1.0716 30.2782 1.10944 30.6426 1.15322H30.6485C31.007 1.197 31.3713 1.24745 31.729 1.31051C32.4704 1.42997 33.1991 1.58059 33.9219 1.75643C34.94 2.00795 35.9263 2.30919 36.8813 2.67349C36.9377 2.69204 36.9941 2.71727 37.0513 2.73656C38.0947 3.12609 39.0935 3.58462 40.0612 4.0936C40.3373 4.25089 40.6081 4.39558 40.8782 4.54619C40.9346 4.57142 40.9851 4.60926 41.0356 4.63449C41.092 4.66565 41.1424 4.70349 41.2055 4.73465C41.3754 4.83556 41.5513 4.93572 41.7205 5.04256C41.8081 5.09302 41.8904 5.14273 41.978 5.21247C42.116 5.28815 42.2481 5.38238 42.3862 5.47661C42.562 5.58345 42.732 5.70291 42.9012 5.82236C43.2025 6.03011 43.4978 6.24973 43.7998 6.46935C43.831 6.49457 43.8755 6.52574 43.9253 6.56358C44.0633 6.66448 44.2458 6.80249 44.4596 6.97165C44.7735 7.22911 45.0881 7.49325 45.3894 7.77594C45.5467 7.91394 45.7033 8.05269 45.8547 8.19663C46.0743 8.3977 46.2881 8.60544 46.4959 8.80577C46.7036 9.01278 46.9107 9.22053 47.1118 9.43421C47.3633 9.69167 47.6082 9.95581 47.8472 10.2259C47.9162 10.3016 47.9919 10.3832 48.0609 10.4648C48.1047 10.5086 48.1425 10.559 48.1737 10.6095C48.2116 10.6599 48.2553 10.7104 48.2932 10.7542C48.6516 11.1689 48.9907 11.5963 49.3173 12.0355C49.5117 12.3123 49.7069 12.5883 49.8954 12.871C50.2286 13.3547 50.5425 13.8511 50.8445 14.3601V14.366C51.0515 14.6991 51.24 15.0382 51.4159 15.3899C51.479 15.4715 51.5161 15.5598 51.5606 15.654C51.7491 15.9998 51.925 16.3641 52.0949 16.7284C52.3524 17.2685 52.5914 17.8213 52.8051 18.3748C52.912 18.6516 53.0188 18.9342 53.119 19.2169C53.2006 19.4492 53.2763 19.6881 53.3579 19.927C53.4143 20.1154 53.4774 20.2913 53.5279 20.4797C53.5969 20.7187 53.6659 20.9635 53.729 21.2083C53.8418 21.6172 53.9427 22.0312 54.0303 22.4526L54.031 22.4541Z" fill="#EB591B"/>
<path d="M9.82425 14.7004C9.48511 16.6985 6.53754 17.1444 5.76502 19.0105C5.08007 20.6754 6.45665 22.5541 6.11677 24.3192C5.74573 26.2483 3.62186 27.1839 1.99446 28.2835C1.28428 28.7613 0.631251 29.32 0.0524214 29.9425C0.0212537 29.3897 0.00195312 28.837 0.00195312 28.2775C0.00195312 21.0776 2.78553 14.5305 7.34196 9.64844C7.5119 10.2643 7.87626 10.8801 8.27179 11.3765C9.0636 12.3633 10.0372 13.4562 9.82425 14.7004Z" fill="#EB591B"/>
<path d="M67.8749 27.5605C66.7763 26.2178 65.7872 25.009 64.7983 23.8001C64.5601 23.5089 64.3187 23.2201 64.0857 22.9243C63.6892 22.4204 63.6778 22.0422 64.0406 21.7086C64.3707 21.4051 64.8374 21.4779 65.2062 21.9182C65.931 22.7833 66.6452 23.658 67.3617 24.5306C68.2163 25.5714 69.0611 26.6207 69.9254 27.6527C70.2866 28.0841 70.3343 28.4834 69.9647 28.9319C68.3907 30.8425 66.8246 32.7602 65.2498 34.6703C65.1271 34.8192 64.9569 35.0411 64.816 35.0354C64.5184 35.0233 64.1575 34.9648 63.9475 34.7757C63.6399 34.499 63.7586 34.1098 64.0061 33.8046C64.6796 32.9734 65.3611 32.1491 66.0386 31.3212C66.614 30.6184 67.1881 29.9145 67.8741 29.0751H67.1491C61.797 29.0751 63.3045 29.0754 57.9524 29.074C57.7203 29.074 57.4351 29.1405 57.2681 29.0275C57.0232 28.8619 56.7098 28.5625 56.709 28.3192C56.7082 28.0761 57.02 27.7745 57.2641 27.6081C57.4303 27.4948 57.716 27.5613 57.9482 27.5613C63.2808 27.5597 61.754 27.5602 67.0866 27.5602L67.8749 27.5605Z" fill="#EB591B"/>
</g>
<defs>
<clipPath id="clip0_220_6948">
<rect width="70.2201" height="54.6593" fill="white" transform="translate(0 0.950195)"/>
</clipPath>
</defs>
</svg>
