<svg width="71" height="56" viewBox="0 0 71 56" fill="none" xmlns="http://www.w3.org/2000/svg">
<g clip-path="url(#clip0_220_6957)">
<mask id="path-1-inside-1_220_6957" fill="white">
<path d="M54.6593 28.2621C54.6593 28.6517 54.6467 29.0353 54.6341 29.4181V29.4619C54.6215 29.7446 54.6088 30.0339 54.5836 30.304C54.5651 30.5615 54.5398 30.813 54.5146 31.0578C54.4768 31.4162 54.4389 31.7738 54.3825 32.1322C54.3699 32.2264 54.3573 32.3273 54.3447 32.4275C54.2942 32.7666 54.2319 33.1123 54.1621 33.4514C54.1116 33.7215 54.0552 33.9915 53.9922 34.2683C53.9358 34.545 53.8668 34.821 53.7977 35.0911C53.5655 35.9644 53.308 36.8251 53 37.6605C52.9243 37.8683 52.8427 38.0753 52.761 38.289C52.6163 38.6533 52.4657 39.0116 52.3024 39.37C52.1644 39.6838 52.0197 39.9984 51.8691 40.3123C51.7058 40.6454 51.5359 40.9659 51.36 41.2865C51.2531 41.4875 51.1463 41.6819 51.0335 41.8644C50.9266 42.0529 50.8138 42.248 50.7003 42.4365C50.5496 42.6813 50.399 42.9203 50.2416 43.1592C50.0405 43.4671 49.8268 43.7809 49.6131 44.0888C49.4558 44.3085 49.2925 44.5288 49.1293 44.7425C48.9786 44.9436 48.8213 45.138 48.6707 45.339C48.2306 45.8792 47.772 46.4134 47.2822 46.935C47.0744 47.1546 46.8674 47.375 46.6537 47.5887L46.578 47.6643C46.3642 47.878 46.1446 48.085 45.9242 48.2861C45.4529 48.7194 44.9691 49.1468 44.4786 49.5363C44.2337 49.7433 43.9821 49.9384 43.7306 50.1269C43.712 50.1395 43.6927 50.1521 43.6801 50.1647C43.4411 50.3473 43.1903 50.5164 42.9447 50.6863C42.6805 50.8748 42.4171 51.0506 42.1529 51.2205C41.8828 51.4031 41.6126 51.5722 41.3358 51.7295C40.406 52.2823 39.4443 52.7853 38.4454 53.2372C38.2881 53.3062 38.1248 53.3692 37.9616 53.4382C37.4777 53.6453 36.9813 53.8404 36.4848 54.0162C36.139 54.1357 35.7939 54.2551 35.4414 54.362C35.0207 54.5 34.5865 54.6194 34.1532 54.733C33.8266 54.8146 33.4994 54.8962 33.1729 54.9652C32.9718 55.009 32.7647 55.0528 32.5569 55.0906C32.387 55.1225 32.2052 55.1537 32.0352 55.1848C31.2501 55.3169 30.4516 55.4297 29.6472 55.4861C29.4965 55.5046 29.3392 55.5172 29.1886 55.5298C28.5726 55.5736 27.9508 55.5929 27.3222 55.5929C26.9512 55.5929 26.5809 55.587 26.2098 55.5677C25.9776 55.5617 25.7386 55.5491 25.4997 55.5298C25.2926 55.5172 25.0915 55.4987 24.8837 55.4794C24.7079 55.4668 24.5379 55.4541 24.362 55.4289C24.1862 55.4104 24.0103 55.3911 23.8344 55.3659H23.8285C23.6711 55.3473 23.5146 55.328 23.3572 55.3028C23.1999 55.2776 23.0433 55.2523 22.886 55.2212C22.7665 55.2086 22.6411 55.19 22.5217 55.1648C22.5157 55.1707 22.509 55.1707 22.5031 55.1648C22.3836 55.1462 22.2641 55.1269 22.1514 55.1017C22.1135 55.0958 22.0823 55.0832 22.0504 55.0765C22.0378 55.0765 22.0193 55.0706 22 55.0706C21.9814 55.0646 21.9621 55.0646 21.9495 55.0513L21.384 54.9385C21.1955 54.8947 21.007 54.8502 20.8186 54.8064C20.6553 54.7686 20.492 54.7307 20.328 54.687C20.2969 54.681 20.265 54.6684 20.2279 54.6558C20.052 54.612 19.882 54.5616 19.7128 54.5111C19.4049 54.4228 19.1036 54.3286 18.8016 54.2284C18.7326 54.2099 18.6635 54.1847 18.5945 54.1594C18.4817 54.1283 18.3682 54.0904 18.2487 54.04C18.0981 53.9895 17.9533 53.9391 17.8086 53.8827C17.4821 53.7632 17.1549 53.6312 16.8283 53.4991C16.7653 53.4739 16.7089 53.4486 16.6465 53.4175C16.3638 53.3047 16.087 53.1786 15.8109 53.0465C15.503 52.9018 15.2076 52.7571 14.9063 52.6065C14.7683 52.5375 14.6295 52.4685 14.4982 52.3928C14.1717 52.2229 13.8511 52.0411 13.5364 51.8527C13.3917 51.7711 13.2537 51.6828 13.109 51.6012C13.04 51.5574 12.9643 51.5069 12.8893 51.4632C12.5376 51.2495 12.1918 51.0172 11.846 50.7783C11.7139 50.69 11.5818 50.5958 11.4564 50.5016C11.3057 50.4014 11.1551 50.2879 11.0037 50.1751C10.7143 49.9614 10.4256 49.7418 10.1488 49.5088C10.0108 49.3961 9.87868 49.2825 9.74659 49.1757C9.62117 49.0689 9.49502 48.962 9.37554 48.8552C9.25013 48.7483 9.12398 48.6415 9.0045 48.5287C8.87909 48.4159 8.75961 48.3091 8.64014 48.1956C7.93663 47.536 7.27024 46.8445 6.63575 46.1099C6.52889 45.9972 6.42871 45.8777 6.33447 45.7582C6.27139 45.6826 6.20905 45.6076 6.15191 45.5319C6.12075 45.4941 6.08883 45.4563 6.0636 45.4192C5.95674 45.2938 5.85656 45.1676 5.75564 45.0356V45.0296C5.74302 45.0237 5.73708 45.0111 5.73708 45.0044C5.52336 44.7277 5.30964 44.439 5.1026 44.1564C4.89556 43.8611 4.68777 43.5591 4.48666 43.2512C4.28556 42.9499 4.09113 42.642 3.9019 42.3274C3.71341 42.0128 3.53086 41.699 3.35498 41.3785C3.17911 41.0579 3.00916 40.7374 2.84591 40.4043C2.68858 40.0778 2.53201 39.7447 2.38136 39.4115C2.25595 39.1415 2.1424 38.8647 2.0296 38.5887C1.86041 38.1866 1.70309 37.7718 1.55838 37.3571C0.722788 35.0132 0.207038 32.5195 0.050457 29.9241C0.0192892 29.3714 0 28.8186 0 28.2592C0 21.0592 2.78357 14.5122 7.34 9.63008C7.94925 8.97048 8.5971 8.34872 9.26943 7.75145C9.74734 7.33669 10.2371 6.92861 10.7395 6.5517V6.54576C11.4556 5.99894 12.2037 5.48402 12.9702 5.02549C13.0771 4.9372 13.1966 4.8682 13.316 4.79919C13.624 4.61667 13.932 4.44751 14.2021 4.29021C14.3965 4.18337 14.585 4.07653 14.755 3.99491C14.8678 3.93185 14.9872 3.87546 15.0941 3.825C16.1998 3.26557 17.3374 2.78849 18.5062 2.39228L19.0153 2.22237C20.0587 1.88924 21.1265 1.61916 22.1951 1.41809C22.5469 1.34909 22.9053 1.28602 23.2571 1.23557C23.4893 1.20441 23.7157 1.1725 23.948 1.14728C24.2559 1.1035 24.5698 1.06566 24.8718 1.04044C25.2548 1.00927 25.651 0.984047 26.0347 0.964756C26.4681 0.939529 26.8896 0.933594 27.323 0.933594C27.7 0.933594 28.0643 0.939529 28.4287 0.95882C28.8057 0.964756 29.17 0.989982 29.5344 1.02782C29.9114 1.05305 30.2757 1.09089 30.6401 1.13466H30.646C31.0045 1.17844 31.3688 1.22889 31.7265 1.29196C32.4679 1.41141 33.1966 1.56203 33.9194 1.73788C34.9939 2.00201 36.0373 2.32847 37.0488 2.718C38.0922 3.10753 39.091 3.56606 40.0587 4.07504C40.3348 4.23234 40.6056 4.37702 40.8757 4.52764C40.9321 4.55286 40.9826 4.5907 41.0331 4.61593C41.0895 4.64709 41.1399 4.68493 41.203 4.7161C41.3729 4.817 41.5488 4.91717 41.718 5.02401C41.8056 5.07446 41.888 5.12417 41.9755 5.19392C42.1135 5.2696 42.2456 5.36382 42.3837 5.45805C42.5595 5.5649 42.7295 5.68435 42.8987 5.80381C43.2 6.01155 43.4953 6.23117 43.7974 6.45079C43.8285 6.47602 43.873 6.50718 43.9228 6.54502C44.0608 6.64593 44.2433 6.78393 44.4571 6.9531C44.771 7.21056 45.0856 7.47469 45.3869 7.75738C45.5442 7.89538 45.7008 8.03413 45.8522 8.17807C46.0719 8.37914 46.2856 8.58689 46.4934 8.78722C46.7011 8.99423 46.9082 9.20197 47.1093 9.41566C47.3609 9.67312 47.6057 9.93725 47.8447 10.2073C47.9137 10.283 47.9894 10.3646 48.0584 10.4462C48.1022 10.49 48.1401 10.5405 48.1712 10.5909C48.2091 10.6414 48.2528 10.6918 48.2907 10.7356C48.6491 11.1504 48.9883 11.5777 49.3148 12.017C49.5092 12.2937 49.7044 12.5697 49.8929 12.8524C50.2261 13.3362 50.54 13.8325 50.842 14.3415V14.3475C51.049 14.6806 51.2375 15.0197 51.4134 15.3714C51.4765 15.453 51.5136 15.5413 51.5581 15.6355C51.7466 15.9812 51.9225 16.3455 52.0924 16.7098C52.3499 17.25 52.5889 17.8028 52.8026 18.3563C52.9095 18.633 53.0163 18.9157 53.1165 19.1984C53.1981 19.4306 53.2738 19.6695 53.3554 19.9084C53.4118 20.0969 53.4749 20.2727 53.5254 20.4612C53.7139 21.1082 53.8898 21.7678 54.0278 22.4341C54.1154 22.8236 54.191 23.2131 54.2541 23.6026C54.292 23.7852 54.3231 23.9669 54.3424 24.1554C54.3484 24.168 54.3484 24.1866 54.3484 24.1932C54.3795 24.3817 54.4048 24.5701 54.4241 24.7586C54.4367 24.7898 54.4426 24.8217 54.4426 24.8588C54.4612 24.9968 54.4738 25.1288 54.4931 25.2668C54.5116 25.3989 54.5183 25.5369 54.5242 25.6757C54.5302 25.7261 54.5369 25.7825 54.5428 25.833C54.5487 25.8894 54.5554 25.9457 54.5613 25.9962C54.5613 26.0274 54.5673 26.0652 54.5673 26.103C54.5732 26.1468 54.5799 26.1913 54.5799 26.2351C54.6304 26.9014 54.6556 27.5795 54.6556 28.2584L54.6593 28.2621Z"/>
</mask>
<path d="M54.6593 28.2621C54.6593 28.6517 54.6467 29.0353 54.6341 29.4181V29.4619C54.6215 29.7446 54.6088 30.0339 54.5836 30.304C54.5651 30.5615 54.5398 30.813 54.5146 31.0578C54.4768 31.4162 54.4389 31.7738 54.3825 32.1322C54.3699 32.2264 54.3573 32.3273 54.3447 32.4275C54.2942 32.7666 54.2319 33.1123 54.1621 33.4514C54.1116 33.7215 54.0552 33.9915 53.9922 34.2683C53.9358 34.545 53.8668 34.821 53.7977 35.0911C53.5655 35.9644 53.308 36.8251 53 37.6605C52.9243 37.8683 52.8427 38.0753 52.761 38.289C52.6163 38.6533 52.4657 39.0116 52.3024 39.37C52.1644 39.6838 52.0197 39.9984 51.8691 40.3123C51.7058 40.6454 51.5359 40.9659 51.36 41.2865C51.2531 41.4875 51.1463 41.6819 51.0335 41.8644C50.9266 42.0529 50.8138 42.248 50.7003 42.4365C50.5496 42.6813 50.399 42.9203 50.2416 43.1592C50.0405 43.4671 49.8268 43.7809 49.6131 44.0888C49.4558 44.3085 49.2925 44.5288 49.1293 44.7425C48.9786 44.9436 48.8213 45.138 48.6707 45.339C48.2306 45.8792 47.772 46.4134 47.2822 46.935C47.0744 47.1546 46.8674 47.375 46.6537 47.5887L46.578 47.6643C46.3642 47.878 46.1446 48.085 45.9242 48.2861C45.4529 48.7194 44.9691 49.1468 44.4786 49.5363C44.2337 49.7433 43.9821 49.9384 43.7306 50.1269C43.712 50.1395 43.6927 50.1521 43.6801 50.1647C43.4411 50.3473 43.1903 50.5164 42.9447 50.6863C42.6805 50.8748 42.4171 51.0506 42.1529 51.2205C41.8828 51.4031 41.6126 51.5722 41.3358 51.7295C40.406 52.2823 39.4443 52.7853 38.4454 53.2372C38.2881 53.3062 38.1248 53.3692 37.9616 53.4382C37.4777 53.6453 36.9813 53.8404 36.4848 54.0162C36.139 54.1357 35.7939 54.2551 35.4414 54.362C35.0207 54.5 34.5865 54.6194 34.1532 54.733C33.8266 54.8146 33.4994 54.8962 33.1729 54.9652C32.9718 55.009 32.7647 55.0528 32.5569 55.0906C32.387 55.1225 32.2052 55.1537 32.0352 55.1848C31.2501 55.3169 30.4516 55.4297 29.6472 55.4861C29.4965 55.5046 29.3392 55.5172 29.1886 55.5298C28.5726 55.5736 27.9508 55.5929 27.3222 55.5929C26.9512 55.5929 26.5809 55.587 26.2098 55.5677C25.9776 55.5617 25.7386 55.5491 25.4997 55.5298C25.2926 55.5172 25.0915 55.4987 24.8837 55.4794C24.7079 55.4668 24.5379 55.4541 24.362 55.4289C24.1862 55.4104 24.0103 55.3911 23.8344 55.3659H23.8285C23.6711 55.3473 23.5146 55.328 23.3572 55.3028C23.1999 55.2776 23.0433 55.2523 22.886 55.2212C22.7665 55.2086 22.6411 55.19 22.5217 55.1648C22.5157 55.1707 22.509 55.1707 22.5031 55.1648C22.3836 55.1462 22.2641 55.1269 22.1514 55.1017C22.1135 55.0958 22.0823 55.0832 22.0504 55.0765C22.0378 55.0765 22.0193 55.0706 22 55.0706C21.9814 55.0646 21.9621 55.0646 21.9495 55.0513L21.384 54.9385C21.1955 54.8947 21.007 54.8502 20.8186 54.8064C20.6553 54.7686 20.492 54.7307 20.328 54.687C20.2969 54.681 20.265 54.6684 20.2279 54.6558C20.052 54.612 19.882 54.5616 19.7128 54.5111C19.4049 54.4228 19.1036 54.3286 18.8016 54.2284C18.7326 54.2099 18.6635 54.1847 18.5945 54.1594C18.4817 54.1283 18.3682 54.0904 18.2487 54.04C18.0981 53.9895 17.9533 53.9391 17.8086 53.8827C17.4821 53.7632 17.1549 53.6312 16.8283 53.4991C16.7653 53.4739 16.7089 53.4486 16.6465 53.4175C16.3638 53.3047 16.087 53.1786 15.8109 53.0465C15.503 52.9018 15.2076 52.7571 14.9063 52.6065C14.7683 52.5375 14.6295 52.4685 14.4982 52.3928C14.1717 52.2229 13.8511 52.0411 13.5364 51.8527C13.3917 51.7711 13.2537 51.6828 13.109 51.6012C13.04 51.5574 12.9643 51.5069 12.8893 51.4632C12.5376 51.2495 12.1918 51.0172 11.846 50.7783C11.7139 50.69 11.5818 50.5958 11.4564 50.5016C11.3057 50.4014 11.1551 50.2879 11.0037 50.1751C10.7143 49.9614 10.4256 49.7418 10.1488 49.5088C10.0108 49.3961 9.87868 49.2825 9.74659 49.1757C9.62117 49.0689 9.49502 48.962 9.37554 48.8552C9.25013 48.7483 9.12398 48.6415 9.0045 48.5287C8.87909 48.4159 8.75961 48.3091 8.64014 48.1956C7.93663 47.536 7.27024 46.8445 6.63575 46.1099C6.52889 45.9972 6.42871 45.8777 6.33447 45.7582C6.27139 45.6826 6.20905 45.6076 6.15191 45.5319C6.12075 45.4941 6.08883 45.4563 6.0636 45.4192C5.95674 45.2938 5.85656 45.1676 5.75564 45.0356V45.0296C5.74302 45.0237 5.73708 45.0111 5.73708 45.0044C5.52336 44.7277 5.30964 44.439 5.1026 44.1564C4.89556 43.8611 4.68777 43.5591 4.48666 43.2512C4.28556 42.9499 4.09113 42.642 3.9019 42.3274C3.71341 42.0128 3.53086 41.699 3.35498 41.3785C3.17911 41.0579 3.00916 40.7374 2.84591 40.4043C2.68858 40.0778 2.53201 39.7447 2.38136 39.4115C2.25595 39.1415 2.1424 38.8647 2.0296 38.5887C1.86041 38.1866 1.70309 37.7718 1.55838 37.3571C0.722788 35.0132 0.207038 32.5195 0.050457 29.9241C0.0192892 29.3714 0 28.8186 0 28.2592C0 21.0592 2.78357 14.5122 7.34 9.63008C7.94925 8.97048 8.5971 8.34872 9.26943 7.75145C9.74734 7.33669 10.2371 6.92861 10.7395 6.5517V6.54576C11.4556 5.99894 12.2037 5.48402 12.9702 5.02549C13.0771 4.9372 13.1966 4.8682 13.316 4.79919C13.624 4.61667 13.932 4.44751 14.2021 4.29021C14.3965 4.18337 14.585 4.07653 14.755 3.99491C14.8678 3.93185 14.9872 3.87546 15.0941 3.825C16.1998 3.26557 17.3374 2.78849 18.5062 2.39228L19.0153 2.22237C20.0587 1.88924 21.1265 1.61916 22.1951 1.41809C22.5469 1.34909 22.9053 1.28602 23.2571 1.23557C23.4893 1.20441 23.7157 1.1725 23.948 1.14728C24.2559 1.1035 24.5698 1.06566 24.8718 1.04044C25.2548 1.00927 25.651 0.984047 26.0347 0.964756C26.4681 0.939529 26.8896 0.933594 27.323 0.933594C27.7 0.933594 28.0643 0.939529 28.4287 0.95882C28.8057 0.964756 29.17 0.989982 29.5344 1.02782C29.9114 1.05305 30.2757 1.09089 30.6401 1.13466H30.646C31.0045 1.17844 31.3688 1.22889 31.7265 1.29196C32.4679 1.41141 33.1966 1.56203 33.9194 1.73788C34.9939 2.00201 36.0373 2.32847 37.0488 2.718C38.0922 3.10753 39.091 3.56606 40.0587 4.07504C40.3348 4.23234 40.6056 4.37702 40.8757 4.52764C40.9321 4.55286 40.9826 4.5907 41.0331 4.61593C41.0895 4.64709 41.1399 4.68493 41.203 4.7161C41.3729 4.817 41.5488 4.91717 41.718 5.02401C41.8056 5.07446 41.888 5.12417 41.9755 5.19392C42.1135 5.2696 42.2456 5.36382 42.3837 5.45805C42.5595 5.5649 42.7295 5.68435 42.8987 5.80381C43.2 6.01155 43.4953 6.23117 43.7974 6.45079C43.8285 6.47602 43.873 6.50718 43.9228 6.54502C44.0608 6.64593 44.2433 6.78393 44.4571 6.9531C44.771 7.21056 45.0856 7.47469 45.3869 7.75738C45.5442 7.89538 45.7008 8.03413 45.8522 8.17807C46.0719 8.37914 46.2856 8.58689 46.4934 8.78722C46.7011 8.99423 46.9082 9.20197 47.1093 9.41566C47.3609 9.67312 47.6057 9.93725 47.8447 10.2073C47.9137 10.283 47.9894 10.3646 48.0584 10.4462C48.1022 10.49 48.1401 10.5405 48.1712 10.5909C48.2091 10.6414 48.2528 10.6918 48.2907 10.7356C48.6491 11.1504 48.9883 11.5777 49.3148 12.017C49.5092 12.2937 49.7044 12.5697 49.8929 12.8524C50.2261 13.3362 50.54 13.8325 50.842 14.3415V14.3475C51.049 14.6806 51.2375 15.0197 51.4134 15.3714C51.4765 15.453 51.5136 15.5413 51.5581 15.6355C51.7466 15.9812 51.9225 16.3455 52.0924 16.7098C52.3499 17.25 52.5889 17.8028 52.8026 18.3563C52.9095 18.633 53.0163 18.9157 53.1165 19.1984C53.1981 19.4306 53.2738 19.6695 53.3554 19.9084C53.4118 20.0969 53.4749 20.2727 53.5254 20.4612C53.7139 21.1082 53.8898 21.7678 54.0278 22.4341C54.1154 22.8236 54.191 23.2131 54.2541 23.6026C54.292 23.7852 54.3231 23.9669 54.3424 24.1554C54.3484 24.168 54.3484 24.1866 54.3484 24.1932C54.3795 24.3817 54.4048 24.5701 54.4241 24.7586C54.4367 24.7898 54.4426 24.8217 54.4426 24.8588C54.4612 24.9968 54.4738 25.1288 54.4931 25.2668C54.5116 25.3989 54.5183 25.5369 54.5242 25.6757C54.5302 25.7261 54.5369 25.7825 54.5428 25.833C54.5487 25.8894 54.5554 25.9457 54.5613 25.9962C54.5613 26.0274 54.5673 26.0652 54.5673 26.103C54.5732 26.1468 54.5799 26.1913 54.5799 26.2351C54.6304 26.9014 54.6556 27.5795 54.6556 28.2584L54.6593 28.2621Z" stroke="#E58924" stroke-width="6.4461" mask="url(#path-1-inside-1_220_6957)"/>
<path d="M36.483 54.0182C33.6171 55.0384 30.5389 55.5911 27.3242 55.5911C15.427 55.5911 5.29825 47.9816 1.55664 37.3612C1.89652 37.4206 2.23713 37.5311 2.53471 37.6929C3.62335 38.2627 4.38844 39.2829 5.17951 40.2267C5.97058 41.1704 6.88854 42.1142 8.0796 42.4117C9.71219 42.828 11.7277 42.0289 12.9521 43.1767C13.5985 43.7806 13.8538 44.826 14.6872 45.1325C15.6059 45.4812 16.6262 44.5456 16.6856 43.5595C16.7539 42.5816 16.1587 41.672 15.4693 40.9664C14.7888 40.2519 13.9896 39.6398 13.4538 38.8154C12.9269 37.9822 12.7392 36.8174 13.3432 36.0435C13.8872 35.3461 14.9335 35.185 15.7587 35.4996C16.5839 35.8142 17.2132 36.5028 17.6637 37.2685C18.4377 38.561 18.7694 40.0656 19.4491 41.4004C20.1296 42.7441 21.337 44.0025 22.842 44.0277C24.1599 44.0618 25.7421 43.2115 26.6519 44.1724C27.1535 44.6992 27.1283 45.5161 27.3064 46.2217C27.834 48.2962 30.0618 49.3594 32.0261 50.2008C33.8969 50.9917 35.9814 52.1054 36.483 54.0182Z" fill="#E58924"/>
<path d="M54.031 22.4375C53.5783 22.4501 53.1071 22.4375 52.6047 22.4123C51.8003 22.3744 50.9959 22.3306 50.1915 22.2928C49.8649 22.2743 49.5377 22.2616 49.2112 22.2424C48.3192 22.1986 47.3389 22.186 46.5908 22.6193C46.4461 22.7009 46.314 22.7951 46.1886 22.9146C45.7738 23.31 45.523 23.8821 45.0139 24.1395C44.5486 24.3658 44.0024 24.2649 43.4867 24.2775C41.9342 24.3154 40.571 25.4209 39.7978 26.7594C39.0876 27.9844 38.629 29.285 38.3462 30.6235C37.6553 33.8466 38.0004 37.3019 38.3277 40.5509C38.3403 40.6577 38.3529 40.7646 38.3529 40.8714C38.4093 41.4494 38.416 42.04 38.1703 42.5616C37.8817 43.1774 37.1084 43.6174 36.5051 43.3028C36.3166 43.2086 36.1719 43.0513 36.0524 42.8755C35.9396 42.7122 35.8513 42.5171 35.7638 42.3353C35.2859 41.3047 35.1857 40.1925 34.7456 39.2065C34.1237 37.8116 32.9609 38.2011 31.7921 37.6795C30.9498 37.3026 30.5291 36.3537 30.328 35.4551C30.2901 35.2793 30.2523 35.1035 30.2211 34.9276C30.0831 34.1923 29.9695 33.4452 29.6178 32.7974C29.505 32.5964 29.3662 32.3953 29.1592 32.2944C28.9833 32.2061 28.7762 32.1935 28.5811 32.1876C27.4249 32.1623 26.0988 32.2439 24.9678 32.4702C23.9875 32.6713 23.1453 33.4815 22.1405 33.4689C20.4567 33.4437 19.7339 31.2512 19.935 29.5796C20.142 27.9087 20.7454 26.0864 19.8972 24.6352C18.5525 22.3358 14.5051 22.6059 13.5627 20.1174C12.6514 17.6919 15.668 15.6374 18.2193 15.1856C20.7773 14.7271 23.9126 14.457 25.0064 12.1072C25.5341 10.9698 25.3775 9.70104 24.9374 8.49461C24.7237 7.8914 24.435 7.3008 24.133 6.74804C23.2217 5.10164 22.116 3.41146 22.185 1.53282C22.185 1.49498 22.1909 1.45714 22.1976 1.42005C22.5494 1.35104 22.9078 1.28798 23.2596 1.23752C23.4918 1.20636 23.7182 1.17446 23.9504 1.14923C24.2584 1.10546 24.5723 1.06762 24.8743 1.04239C25.2573 1.01123 25.6535 0.986001 26.0372 0.96671C26.4706 0.941483 26.8921 0.935547 27.3255 0.935547C27.7024 0.935547 28.0668 0.941483 28.4312 0.960774C28.8082 0.966709 29.1725 0.991936 29.5369 1.02978C29.9139 1.055 30.2782 1.09284 30.6426 1.13662H30.6485C31.007 1.18039 31.3713 1.23085 31.729 1.29391C32.4704 1.41337 33.1991 1.56399 33.9219 1.73983C34.94 1.99135 35.9263 2.29259 36.8813 2.65689C36.9377 2.67544 36.9941 2.70067 37.0513 2.71996C38.0947 3.10948 39.0935 3.56801 40.0612 4.077C40.3373 4.23429 40.6081 4.37897 40.8782 4.52959C40.9346 4.55482 40.9851 4.59266 41.0356 4.61788C41.092 4.64905 41.1424 4.68689 41.2055 4.71805C41.3754 4.81895 41.5513 4.91912 41.7205 5.02596C41.8081 5.07641 41.8904 5.12613 41.978 5.19587C42.116 5.27155 42.2481 5.36578 42.3862 5.46001C42.562 5.56685 42.732 5.6863 42.9012 5.80576C43.2025 6.01351 43.4978 6.23313 43.7998 6.45275C43.831 6.47797 43.8755 6.50913 43.9253 6.54697C44.0633 6.64788 44.2458 6.78589 44.4596 6.95505C44.7735 7.21251 45.0881 7.47665 45.3894 7.75933C45.5467 7.89734 45.7033 8.03608 45.8547 8.18002C46.0743 8.38109 46.2881 8.58884 46.4959 8.78917C46.7036 8.99618 46.9107 9.20393 47.1118 9.41761C47.3633 9.67507 47.6082 9.93921 47.8472 10.2093C47.9162 10.285 47.9919 10.3666 48.0609 10.4482C48.1047 10.492 48.1425 10.5424 48.1737 10.5929C48.2116 10.6433 48.2553 10.6938 48.2932 10.7376C48.6516 11.1523 48.9907 11.5797 49.3173 12.0189C49.5117 12.2957 49.7069 12.5717 49.8954 12.8544C50.2286 13.3381 50.5425 13.8345 50.8445 14.3435V14.3494C51.0515 14.6825 51.24 15.0216 51.4159 15.3733C51.479 15.4549 51.5161 15.5432 51.5606 15.6374C51.7491 15.9832 51.925 16.3475 52.0949 16.7118C52.3524 17.2519 52.5914 17.8047 52.8051 18.3582C52.912 18.635 53.0188 18.9176 53.119 19.2003C53.2006 19.4326 53.2763 19.6715 53.3579 19.9104C53.4143 20.0988 53.4774 20.2747 53.5279 20.4631C53.5969 20.702 53.6659 20.9469 53.729 21.1917C53.8418 21.6006 53.9427 22.0146 54.0303 22.436L54.031 22.4375Z" fill="#E58924"/>
<path d="M9.82425 14.6848C9.48511 16.6829 6.53754 17.1288 5.76502 18.9948C5.08007 20.6598 6.45665 22.5384 6.11677 24.3035C5.74573 26.2326 3.62186 27.1682 1.99446 28.2678C1.28428 28.7456 0.631251 29.3043 0.0524214 29.9268C0.0212537 29.3741 0.00195312 28.8213 0.00195312 28.2619C0.00195312 21.0619 2.78553 14.5149 7.34196 9.63281C7.5119 10.2486 7.87626 10.8645 8.27179 11.3608C9.0636 12.3476 10.0372 13.4405 9.82425 14.6848Z" fill="#E58924"/>
<path d="M67.8749 27.5439C66.7763 26.2012 65.7872 24.9924 64.7983 23.7835C64.5601 23.4923 64.3187 23.2035 64.0857 22.9077C63.6892 22.4038 63.6778 22.0256 64.0406 21.692C64.3707 21.3885 64.8374 21.4613 65.2062 21.9016C65.931 22.7667 66.6452 23.6414 67.3617 24.5139C68.2163 25.5548 69.0611 26.6041 69.9254 27.6361C70.2866 28.0675 70.3343 28.4668 69.9647 28.9153C68.3907 30.8259 66.8246 32.7436 65.2498 34.6537C65.1271 34.8026 64.9569 35.0245 64.816 35.0188C64.5184 35.0067 64.1575 34.9482 63.9475 34.7591C63.6399 34.4824 63.7586 34.0932 64.0061 33.788C64.6796 32.9568 65.3611 32.1325 66.0386 31.3046C66.614 30.6018 67.1881 29.8979 67.8741 29.0585H67.1491C61.797 29.0585 63.3045 29.0588 57.9524 29.0574C57.7203 29.0574 57.4351 29.1239 57.2681 29.0109C57.0232 28.8453 56.7098 28.5459 56.709 28.3026C56.7082 28.0595 57.02 27.7579 57.2641 27.5915C57.4303 27.4782 57.716 27.5447 57.9482 27.5447C63.2808 27.5431 61.754 27.5436 67.0866 27.5436L67.8749 27.5439Z" fill="#E58924"/>
</g>
<defs>
<clipPath id="clip0_220_6957">
<rect width="70.2201" height="54.6593" fill="white" transform="translate(0 0.933594)"/>
</clipPath>
</defs>
</svg>
