<svg width="71" height="56" viewBox="0 0 71 56" fill="none" xmlns="http://www.w3.org/2000/svg">
<g clip-path="url(#clip0_220_6996)">
<mask id="path-1-inside-1_220_6996" fill="white">
<path d="M54.6593 27.7055C54.6593 28.095 54.6467 28.4786 54.6341 28.8615V28.9052C54.6215 29.1879 54.6088 29.4773 54.5836 29.7474C54.5651 30.0048 54.5398 30.2563 54.5146 30.5012C54.4768 30.8596 54.4389 31.2172 54.3825 31.5755C54.3699 31.6698 54.3573 31.7707 54.3447 31.8708C54.2942 32.2099 54.2319 32.5557 54.1621 32.8947C54.1116 33.1648 54.0552 33.4349 53.9922 33.7116C53.9358 33.9884 53.8668 34.2644 53.7977 34.5345C53.5655 35.4078 53.308 36.2684 53 37.1039C52.9243 37.3116 52.8427 37.5186 52.761 37.7323C52.6163 38.0966 52.4657 38.455 52.3024 38.8133C52.1644 39.1272 52.0197 39.4418 51.8691 39.7556C51.7058 40.0888 51.5359 40.4093 51.36 40.7298C51.2531 40.9309 51.1463 41.1253 51.0335 41.3078C50.9266 41.4963 50.8138 41.6914 50.7003 41.8799C50.5496 42.1247 50.399 42.3636 50.2416 42.6025C50.0405 42.9104 49.8268 43.2243 49.6131 43.5322C49.4558 43.7518 49.2925 43.9722 49.1293 44.1859C48.9786 44.3869 48.8213 44.5813 48.6707 44.7824C48.2306 45.3225 47.772 45.8568 47.2822 46.3783C47.0744 46.598 46.8674 46.8183 46.6537 47.032L46.578 47.1077C46.3642 47.3214 46.1446 47.5284 45.9242 47.7295C45.4529 48.1628 44.9691 48.5901 44.4786 48.9797C44.2337 49.1867 43.9821 49.3818 43.7306 49.5703C43.712 49.5829 43.6927 49.5955 43.6801 49.6081C43.4411 49.7906 43.1903 49.9598 42.9447 50.1297C42.6805 50.3181 42.4171 50.494 42.1529 50.6639C41.8828 50.8464 41.6126 51.0156 41.3358 51.1729C40.406 51.7256 39.4443 52.2287 38.4454 52.6805C38.2881 52.7495 38.1248 52.8126 37.9616 52.8816C37.4777 53.0886 36.9813 53.2837 36.4848 53.4596C36.139 53.579 35.7939 53.6985 35.4414 53.8053C35.0207 53.9434 34.5865 54.0628 34.1532 54.1763C33.8266 54.2579 33.4994 54.3396 33.1729 54.4086C32.9718 54.4523 32.7647 54.4961 32.5569 54.534C32.387 54.5659 32.2052 54.597 32.0352 54.6282C31.2501 54.7602 30.4516 54.873 29.6472 54.9294C29.4965 54.948 29.3392 54.9606 29.1886 54.9732C28.5726 55.017 27.9508 55.0363 27.3222 55.0363C26.9512 55.0363 26.5809 55.0303 26.2098 55.011C25.9776 55.0051 25.7386 54.9925 25.4997 54.9732C25.2926 54.9606 25.0915 54.942 24.8837 54.9227C24.7079 54.9101 24.5379 54.8975 24.362 54.8723C24.1862 54.8537 24.0103 54.8344 23.8344 54.8092H23.8285C23.6711 54.7907 23.5146 54.7714 23.3572 54.7461C23.1999 54.7209 23.0433 54.6957 22.886 54.6645C22.7665 54.6519 22.6411 54.6334 22.5217 54.6081C22.5157 54.6141 22.509 54.6141 22.5031 54.6081C22.3836 54.5896 22.2641 54.5703 22.1514 54.5451C22.1135 54.5391 22.0823 54.5265 22.0504 54.5199C22.0378 54.5199 22.0193 54.5139 22 54.5139C21.9814 54.508 21.9621 54.508 21.9495 54.4946L21.384 54.3818C21.1955 54.3381 21.007 54.2936 20.8186 54.2498C20.6553 54.2119 20.492 54.1741 20.328 54.1303C20.2969 54.1244 20.265 54.1118 20.2279 54.0992C20.052 54.0554 19.882 54.0049 19.7128 53.9545C19.4049 53.8662 19.1036 53.772 18.8016 53.6718C18.7326 53.6532 18.6635 53.628 18.5945 53.6028C18.4817 53.5716 18.3682 53.5338 18.2487 53.4833C18.0981 53.4329 17.9533 53.3824 17.8086 53.326C17.4821 53.2066 17.1549 53.0745 16.8283 52.9424C16.7653 52.9172 16.7089 52.892 16.6465 52.8608C16.3638 52.7481 16.087 52.6219 15.8109 52.4899C15.503 52.3452 15.2076 52.2005 14.9063 52.0499C14.7683 51.9809 14.6295 51.9119 14.4982 51.8362C14.1717 51.6663 13.8511 51.4845 13.5364 51.296C13.3917 51.2144 13.2537 51.1261 13.109 51.0445C13.04 51.0007 12.9643 50.9503 12.8893 50.9065C12.5376 50.6928 12.1918 50.4606 11.846 50.2217C11.7139 50.1334 11.5818 50.0392 11.4564 49.9449C11.3057 49.8448 11.1551 49.7313 11.0037 49.6185C10.7143 49.4048 10.4256 49.1852 10.1488 48.9522C10.0108 48.8394 9.87868 48.7259 9.74659 48.6191C9.62117 48.5122 9.49502 48.4054 9.37554 48.2985C9.25013 48.1917 9.12398 48.0849 9.0045 47.9721C8.87909 47.8593 8.75961 47.7525 8.64014 47.6389C7.93663 46.9793 7.27024 46.2878 6.63575 45.5533C6.52889 45.4405 6.42871 45.3211 6.33447 45.2016C6.27139 45.1259 6.20905 45.051 6.15191 44.9753C6.12075 44.9375 6.08883 44.8996 6.0636 44.8625C5.95674 44.7371 5.85656 44.611 5.75564 44.4789V44.473C5.74302 44.4671 5.73708 44.4545 5.73708 44.4478C5.52336 44.171 5.30964 43.8824 5.1026 43.5997C4.89556 43.3044 4.68777 43.0024 4.48666 42.6945C4.28556 42.3933 4.09113 42.0854 3.9019 41.7708C3.71341 41.4562 3.53086 41.1424 3.35498 40.8218C3.17911 40.5013 3.00916 40.1808 2.84591 39.8476C2.68858 39.5212 2.53201 39.188 2.38136 38.8549C2.25595 38.5848 2.1424 38.3081 2.0296 38.0321C1.86041 37.6299 1.70309 37.2152 1.55838 36.8004C0.722788 34.4566 0.207038 31.9628 0.050457 29.3675C0.0192892 28.8147 0 28.262 0 27.7025C0 20.5026 2.78357 13.9555 7.34 9.07344C7.94925 8.41384 8.5971 7.79208 9.26943 7.1948C9.74734 6.78005 10.2371 6.37197 10.7395 5.99506V5.98912C11.4556 5.4423 12.2037 4.92738 12.9702 4.46885C13.0771 4.38056 13.1966 4.31156 13.316 4.24255C13.624 4.06003 13.932 3.89087 14.2021 3.73357C14.3965 3.62673 14.585 3.51989 14.755 3.43827C14.8678 3.3752 14.9872 3.31882 15.0941 3.26836C16.1998 2.70893 17.3374 2.23185 18.5062 1.83564L19.0153 1.66573C20.0587 1.33259 21.1265 1.06252 22.1951 0.861452C22.5469 0.792449 22.9053 0.729383 23.2571 0.67893C23.4893 0.647767 23.7157 0.615864 23.948 0.590637C24.2559 0.546862 24.5698 0.509022 24.8718 0.483795C25.2548 0.452633 25.651 0.427406 26.0347 0.408115C26.4681 0.382889 26.8896 0.376953 27.323 0.376953C27.7 0.376953 28.0643 0.382888 28.4287 0.402179C28.8057 0.408115 29.17 0.433342 29.5344 0.471182C29.9114 0.496408 30.2757 0.534248 30.6401 0.578024H30.646C31.0045 0.621799 31.3688 0.672252 31.7265 0.735319C32.4679 0.854774 33.1966 1.00539 33.9194 1.18124C34.9939 1.44537 36.0373 1.77183 37.0488 2.16136C38.0922 2.55089 39.091 3.00942 40.0587 3.5184C40.3348 3.6757 40.6056 3.82038 40.8757 3.971C40.9321 3.99622 40.9826 4.03406 41.0331 4.05929C41.0895 4.09045 41.1399 4.12829 41.203 4.15945C41.3729 4.26036 41.5488 4.36053 41.718 4.46737C41.8056 4.51782 41.888 4.56753 41.9755 4.63728C42.1135 4.71296 42.2456 4.80718 42.3837 4.90141C42.5595 5.00825 42.7295 5.12771 42.8987 5.24717C43.2 5.45491 43.4953 5.67453 43.7974 5.89415C43.8285 5.91938 43.873 5.95054 43.9228 5.98838C44.0608 6.08929 44.2433 6.22729 44.4571 6.39646C44.771 6.65392 45.0856 6.91805 45.3869 7.20074C45.5442 7.33874 45.7008 7.47749 45.8522 7.62143C46.0719 7.8225 46.2856 8.03025 46.4934 8.23058C46.7011 8.43758 46.9082 8.64533 47.1093 8.85902C47.3609 9.11648 47.6057 9.38061 47.8447 9.65069C47.9137 9.72637 47.9894 9.80798 48.0584 9.8896C48.1022 9.93337 48.1401 9.98382 48.1712 10.0343C48.2091 10.0847 48.2528 10.1352 48.2907 10.179C48.6491 10.5937 48.9883 11.0211 49.3148 11.4603C49.5092 11.7371 49.7044 12.0131 49.8929 12.2958C50.2261 12.7795 50.54 13.2759 50.842 13.7849V13.7908C51.049 14.1239 51.2375 14.463 51.4134 14.8147C51.4765 14.8963 51.5136 14.9846 51.5581 15.0788C51.7466 15.4246 51.9225 15.7889 52.0924 16.1532C52.3499 16.6934 52.5889 17.2461 52.8026 17.7996C52.9095 18.0764 53.0163 18.359 53.1165 18.6417C53.1981 18.874 53.2738 19.1129 53.3554 19.3518C53.4118 19.5402 53.4749 19.7161 53.5254 19.9045C53.7139 20.5515 53.8898 21.2111 54.0278 21.8774C54.1154 22.2669 54.191 22.6565 54.2541 23.046C54.292 23.2285 54.3231 23.4103 54.3424 23.5988C54.3484 23.6114 54.3484 23.6299 54.3484 23.6366C54.3795 23.825 54.4048 24.0135 54.4241 24.202C54.4367 24.2331 54.4426 24.265 54.4426 24.3021C54.4612 24.4401 54.4738 24.5722 54.4931 24.7102C54.5116 24.8423 54.5183 24.9803 54.5242 25.119C54.5302 25.1695 54.5369 25.2259 54.5428 25.2763C54.5487 25.3327 54.5554 25.3891 54.5613 25.4396C54.5613 25.4707 54.5673 25.5086 54.5673 25.5464C54.5732 25.5902 54.5799 25.6347 54.5799 25.6785C54.6304 26.3447 54.6556 27.0229 54.6556 27.7018L54.6593 27.7055Z"/>
</mask>
<path d="M54.6593 27.7055C54.6593 28.095 54.6467 28.4786 54.6341 28.8615V28.9052C54.6215 29.1879 54.6088 29.4773 54.5836 29.7474C54.5651 30.0048 54.5398 30.2563 54.5146 30.5012C54.4768 30.8596 54.4389 31.2172 54.3825 31.5755C54.3699 31.6698 54.3573 31.7707 54.3447 31.8708C54.2942 32.2099 54.2319 32.5557 54.1621 32.8947C54.1116 33.1648 54.0552 33.4349 53.9922 33.7116C53.9358 33.9884 53.8668 34.2644 53.7977 34.5345C53.5655 35.4078 53.308 36.2684 53 37.1039C52.9243 37.3116 52.8427 37.5186 52.761 37.7323C52.6163 38.0966 52.4657 38.455 52.3024 38.8133C52.1644 39.1272 52.0197 39.4418 51.8691 39.7556C51.7058 40.0888 51.5359 40.4093 51.36 40.7298C51.2531 40.9309 51.1463 41.1253 51.0335 41.3078C50.9266 41.4963 50.8138 41.6914 50.7003 41.8799C50.5496 42.1247 50.399 42.3636 50.2416 42.6025C50.0405 42.9104 49.8268 43.2243 49.6131 43.5322C49.4558 43.7518 49.2925 43.9722 49.1293 44.1859C48.9786 44.3869 48.8213 44.5813 48.6707 44.7824C48.2306 45.3225 47.772 45.8568 47.2822 46.3783C47.0744 46.598 46.8674 46.8183 46.6537 47.032L46.578 47.1077C46.3642 47.3214 46.1446 47.5284 45.9242 47.7295C45.4529 48.1628 44.9691 48.5901 44.4786 48.9797C44.2337 49.1867 43.9821 49.3818 43.7306 49.5703C43.712 49.5829 43.6927 49.5955 43.6801 49.6081C43.4411 49.7906 43.1903 49.9598 42.9447 50.1297C42.6805 50.3181 42.4171 50.494 42.1529 50.6639C41.8828 50.8464 41.6126 51.0156 41.3358 51.1729C40.406 51.7256 39.4443 52.2287 38.4454 52.6805C38.2881 52.7495 38.1248 52.8126 37.9616 52.8816C37.4777 53.0886 36.9813 53.2837 36.4848 53.4596C36.139 53.579 35.7939 53.6985 35.4414 53.8053C35.0207 53.9434 34.5865 54.0628 34.1532 54.1763C33.8266 54.2579 33.4994 54.3396 33.1729 54.4086C32.9718 54.4523 32.7647 54.4961 32.5569 54.534C32.387 54.5659 32.2052 54.597 32.0352 54.6282C31.2501 54.7602 30.4516 54.873 29.6472 54.9294C29.4965 54.948 29.3392 54.9606 29.1886 54.9732C28.5726 55.017 27.9508 55.0363 27.3222 55.0363C26.9512 55.0363 26.5809 55.0303 26.2098 55.011C25.9776 55.0051 25.7386 54.9925 25.4997 54.9732C25.2926 54.9606 25.0915 54.942 24.8837 54.9227C24.7079 54.9101 24.5379 54.8975 24.362 54.8723C24.1862 54.8537 24.0103 54.8344 23.8344 54.8092H23.8285C23.6711 54.7907 23.5146 54.7714 23.3572 54.7461C23.1999 54.7209 23.0433 54.6957 22.886 54.6645C22.7665 54.6519 22.6411 54.6334 22.5217 54.6081C22.5157 54.6141 22.509 54.6141 22.5031 54.6081C22.3836 54.5896 22.2641 54.5703 22.1514 54.5451C22.1135 54.5391 22.0823 54.5265 22.0504 54.5199C22.0378 54.5199 22.0193 54.5139 22 54.5139C21.9814 54.508 21.9621 54.508 21.9495 54.4946L21.384 54.3818C21.1955 54.3381 21.007 54.2936 20.8186 54.2498C20.6553 54.2119 20.492 54.1741 20.328 54.1303C20.2969 54.1244 20.265 54.1118 20.2279 54.0992C20.052 54.0554 19.882 54.0049 19.7128 53.9545C19.4049 53.8662 19.1036 53.772 18.8016 53.6718C18.7326 53.6532 18.6635 53.628 18.5945 53.6028C18.4817 53.5716 18.3682 53.5338 18.2487 53.4833C18.0981 53.4329 17.9533 53.3824 17.8086 53.326C17.4821 53.2066 17.1549 53.0745 16.8283 52.9424C16.7653 52.9172 16.7089 52.892 16.6465 52.8608C16.3638 52.7481 16.087 52.6219 15.8109 52.4899C15.503 52.3452 15.2076 52.2005 14.9063 52.0499C14.7683 51.9809 14.6295 51.9119 14.4982 51.8362C14.1717 51.6663 13.8511 51.4845 13.5364 51.296C13.3917 51.2144 13.2537 51.1261 13.109 51.0445C13.04 51.0007 12.9643 50.9503 12.8893 50.9065C12.5376 50.6928 12.1918 50.4606 11.846 50.2217C11.7139 50.1334 11.5818 50.0392 11.4564 49.9449C11.3057 49.8448 11.1551 49.7313 11.0037 49.6185C10.7143 49.4048 10.4256 49.1852 10.1488 48.9522C10.0108 48.8394 9.87868 48.7259 9.74659 48.6191C9.62117 48.5122 9.49502 48.4054 9.37554 48.2985C9.25013 48.1917 9.12398 48.0849 9.0045 47.9721C8.87909 47.8593 8.75961 47.7525 8.64014 47.6389C7.93663 46.9793 7.27024 46.2878 6.63575 45.5533C6.52889 45.4405 6.42871 45.3211 6.33447 45.2016C6.27139 45.1259 6.20905 45.051 6.15191 44.9753C6.12075 44.9375 6.08883 44.8996 6.0636 44.8625C5.95674 44.7371 5.85656 44.611 5.75564 44.4789V44.473C5.74302 44.4671 5.73708 44.4545 5.73708 44.4478C5.52336 44.171 5.30964 43.8824 5.1026 43.5997C4.89556 43.3044 4.68777 43.0024 4.48666 42.6945C4.28556 42.3933 4.09113 42.0854 3.9019 41.7708C3.71341 41.4562 3.53086 41.1424 3.35498 40.8218C3.17911 40.5013 3.00916 40.1808 2.84591 39.8476C2.68858 39.5212 2.53201 39.188 2.38136 38.8549C2.25595 38.5848 2.1424 38.3081 2.0296 38.0321C1.86041 37.6299 1.70309 37.2152 1.55838 36.8004C0.722788 34.4566 0.207038 31.9628 0.050457 29.3675C0.0192892 28.8147 0 28.262 0 27.7025C0 20.5026 2.78357 13.9555 7.34 9.07344C7.94925 8.41384 8.5971 7.79208 9.26943 7.1948C9.74734 6.78005 10.2371 6.37197 10.7395 5.99506V5.98912C11.4556 5.4423 12.2037 4.92738 12.9702 4.46885C13.0771 4.38056 13.1966 4.31156 13.316 4.24255C13.624 4.06003 13.932 3.89087 14.2021 3.73357C14.3965 3.62673 14.585 3.51989 14.755 3.43827C14.8678 3.3752 14.9872 3.31882 15.0941 3.26836C16.1998 2.70893 17.3374 2.23185 18.5062 1.83564L19.0153 1.66573C20.0587 1.33259 21.1265 1.06252 22.1951 0.861452C22.5469 0.792449 22.9053 0.729383 23.2571 0.67893C23.4893 0.647767 23.7157 0.615864 23.948 0.590637C24.2559 0.546862 24.5698 0.509022 24.8718 0.483795C25.2548 0.452633 25.651 0.427406 26.0347 0.408115C26.4681 0.382889 26.8896 0.376953 27.323 0.376953C27.7 0.376953 28.0643 0.382888 28.4287 0.402179C28.8057 0.408115 29.17 0.433342 29.5344 0.471182C29.9114 0.496408 30.2757 0.534248 30.6401 0.578024H30.646C31.0045 0.621799 31.3688 0.672252 31.7265 0.735319C32.4679 0.854774 33.1966 1.00539 33.9194 1.18124C34.9939 1.44537 36.0373 1.77183 37.0488 2.16136C38.0922 2.55089 39.091 3.00942 40.0587 3.5184C40.3348 3.6757 40.6056 3.82038 40.8757 3.971C40.9321 3.99622 40.9826 4.03406 41.0331 4.05929C41.0895 4.09045 41.1399 4.12829 41.203 4.15945C41.3729 4.26036 41.5488 4.36053 41.718 4.46737C41.8056 4.51782 41.888 4.56753 41.9755 4.63728C42.1135 4.71296 42.2456 4.80718 42.3837 4.90141C42.5595 5.00825 42.7295 5.12771 42.8987 5.24717C43.2 5.45491 43.4953 5.67453 43.7974 5.89415C43.8285 5.91938 43.873 5.95054 43.9228 5.98838C44.0608 6.08929 44.2433 6.22729 44.4571 6.39646C44.771 6.65392 45.0856 6.91805 45.3869 7.20074C45.5442 7.33874 45.7008 7.47749 45.8522 7.62143C46.0719 7.8225 46.2856 8.03025 46.4934 8.23058C46.7011 8.43758 46.9082 8.64533 47.1093 8.85902C47.3609 9.11648 47.6057 9.38061 47.8447 9.65069C47.9137 9.72637 47.9894 9.80798 48.0584 9.8896C48.1022 9.93337 48.1401 9.98382 48.1712 10.0343C48.2091 10.0847 48.2528 10.1352 48.2907 10.179C48.6491 10.5937 48.9883 11.0211 49.3148 11.4603C49.5092 11.7371 49.7044 12.0131 49.8929 12.2958C50.2261 12.7795 50.54 13.2759 50.842 13.7849V13.7908C51.049 14.1239 51.2375 14.463 51.4134 14.8147C51.4765 14.8963 51.5136 14.9846 51.5581 15.0788C51.7466 15.4246 51.9225 15.7889 52.0924 16.1532C52.3499 16.6934 52.5889 17.2461 52.8026 17.7996C52.9095 18.0764 53.0163 18.359 53.1165 18.6417C53.1981 18.874 53.2738 19.1129 53.3554 19.3518C53.4118 19.5402 53.4749 19.7161 53.5254 19.9045C53.7139 20.5515 53.8898 21.2111 54.0278 21.8774C54.1154 22.2669 54.191 22.6565 54.2541 23.046C54.292 23.2285 54.3231 23.4103 54.3424 23.5988C54.3484 23.6114 54.3484 23.6299 54.3484 23.6366C54.3795 23.825 54.4048 24.0135 54.4241 24.202C54.4367 24.2331 54.4426 24.265 54.4426 24.3021C54.4612 24.4401 54.4738 24.5722 54.4931 24.7102C54.5116 24.8423 54.5183 24.9803 54.5242 25.119C54.5302 25.1695 54.5369 25.2259 54.5428 25.2763C54.5487 25.3327 54.5554 25.3891 54.5613 25.4396C54.5613 25.4707 54.5673 25.5086 54.5673 25.5464C54.5732 25.5902 54.5799 25.6347 54.5799 25.6785C54.6304 26.3447 54.6556 27.0229 54.6556 27.7018L54.6593 27.7055Z" stroke="#1034F0" stroke-width="6.4461" mask="url(#path-1-inside-1_220_6996)"/>
<path d="M36.483 53.4615C33.6171 54.4817 30.5389 55.0345 27.3242 55.0345C15.427 55.0345 5.29825 47.425 1.55664 36.8046C1.89652 36.8639 2.23713 36.9745 2.53471 37.1362C3.62335 37.706 4.38844 38.7262 5.17951 39.67C5.97058 40.6138 6.88854 41.5576 8.0796 41.8551C9.71219 42.2713 11.7277 41.4722 12.9521 42.62C13.5985 43.224 13.8538 44.2694 14.6872 44.5758C15.6059 44.9246 16.6262 43.9889 16.6856 43.0029C16.7539 42.025 16.1587 41.1153 15.4693 40.4097C14.7888 39.6952 13.9896 39.0831 13.4538 38.2588C12.9269 37.4256 12.7392 36.2607 13.3432 35.4869C13.8872 34.7894 14.9335 34.6284 15.7587 34.943C16.5839 35.2576 17.2132 35.9461 17.6637 36.7118C18.4377 38.0043 18.7694 39.509 19.4491 40.8438C20.1296 42.1875 21.337 43.4458 22.842 43.4711C24.1599 43.5052 25.7421 42.6549 26.6519 43.6157C27.1535 44.1425 27.1283 44.9594 27.3064 45.665C27.834 47.7395 30.0618 48.8028 32.0261 49.6442C33.8969 50.4351 35.9814 51.5488 36.483 53.4615Z" fill="#1034F0"/>
<path d="M54.031 21.8818C53.5783 21.8944 53.1071 21.8818 52.6047 21.8566C51.8003 21.8188 50.9959 21.775 50.1915 21.7371C49.8649 21.7186 49.5377 21.706 49.2112 21.6867C48.3192 21.6429 47.3389 21.6303 46.5908 22.0636C46.4461 22.1452 46.314 22.2394 46.1886 22.3589C45.7738 22.7544 45.523 23.3264 45.0139 23.5839C44.5486 23.8102 44.0024 23.7093 43.4867 23.7219C41.9342 23.7597 40.571 24.8652 39.7978 26.2037C39.0876 27.4287 38.629 28.7294 38.3462 30.0678C37.6553 33.2909 38.0004 36.7462 38.3277 39.9952C38.3403 40.1021 38.3529 40.2089 38.3529 40.3158C38.4093 40.8937 38.416 41.4844 38.1703 42.006C37.8817 42.6218 37.1084 43.0618 36.5051 42.7472C36.3166 42.6529 36.1719 42.4956 36.0524 42.3198C35.9396 42.1566 35.8513 41.9614 35.7638 41.7797C35.2859 40.7491 35.1857 39.6369 34.7456 38.6508C34.1237 37.2559 32.9609 37.6455 31.7921 37.1239C30.9498 36.747 30.5291 35.798 30.328 34.8995C30.2901 34.7236 30.2523 34.5478 30.2211 34.3719C30.0831 33.6367 29.9695 32.8895 29.6178 32.2418C29.505 32.0407 29.3662 31.8396 29.1592 31.7387C28.9833 31.6504 28.7762 31.6378 28.5811 31.6319C27.4249 31.6067 26.0988 31.6883 24.9678 31.9146C23.9875 32.1156 23.1453 32.9259 22.1405 32.9133C20.4567 32.888 19.7339 30.6955 19.935 29.0239C20.142 27.353 20.7454 25.5308 19.8972 24.0795C18.5525 21.7802 14.5051 22.0502 13.5627 19.5617C12.6514 17.1363 15.668 15.0818 18.2193 14.6299C20.7773 14.1714 23.9126 13.9013 25.0064 11.5515C25.5341 10.4141 25.3775 9.14537 24.9374 7.93895C24.7237 7.33574 24.435 6.74514 24.133 6.19238C23.2217 4.54598 22.116 2.8558 22.185 0.977159C22.185 0.939319 22.1909 0.90148 22.1976 0.864382C22.5494 0.79538 22.9078 0.732313 23.2596 0.68186C23.4918 0.650698 23.7182 0.618793 23.9504 0.593567C24.2584 0.549791 24.5723 0.511951 24.8743 0.486725C25.2573 0.455563 25.6535 0.430337 26.0372 0.411046C26.4706 0.385819 26.8921 0.379883 27.3255 0.379883C27.7024 0.379883 28.0668 0.385819 28.4312 0.40511C28.8082 0.411045 29.1725 0.436272 29.5369 0.474112C29.9139 0.499339 30.2782 0.537179 30.6426 0.580954H30.6485C31.007 0.62473 31.3713 0.675183 31.729 0.738249C32.4704 0.857704 33.1991 1.00832 33.9219 1.18417C34.94 1.43569 35.9263 1.73692 36.8813 2.10123C36.9377 2.11977 36.9941 2.145 37.0513 2.16429C38.0947 2.55382 39.0935 3.01235 40.0612 3.52133C40.3373 3.67863 40.6081 3.82331 40.8782 3.97393C40.9346 3.99915 40.9851 4.03699 41.0356 4.06222C41.092 4.09338 41.1424 4.13122 41.2055 4.16238C41.3754 4.26329 41.5513 4.36346 41.7205 4.4703C41.8081 4.52075 41.8904 4.57046 41.978 4.64021C42.116 4.71589 42.2481 4.81011 42.3862 4.90434C42.562 5.01118 42.732 5.13064 42.9012 5.2501C43.2025 5.45784 43.4978 5.67746 43.7998 5.89708C43.831 5.92231 43.8755 5.95347 43.9253 5.99131C44.0633 6.09222 44.2458 6.23022 44.4596 6.39939C44.7735 6.65685 45.0881 6.92098 45.3894 7.20367C45.5467 7.34167 45.7033 7.48042 45.8547 7.62436C46.0743 7.82543 46.2881 8.03318 46.4959 8.23351C46.7036 8.44051 46.9107 8.64826 47.1118 8.86195C47.3633 9.11941 47.6082 9.38354 47.8472 9.65362C47.9162 9.72929 47.9919 9.81091 48.0609 9.89253C48.1047 9.9363 48.1425 9.98675 48.1737 10.0372C48.2116 10.0877 48.2553 10.1381 48.2932 10.1819C48.6516 10.5966 48.9907 11.024 49.3173 11.4632C49.5117 11.74 49.7069 12.016 49.8954 12.2987C50.2286 12.7825 50.5425 13.2788 50.8445 13.7878V13.7937C51.0515 14.1269 51.24 14.466 51.4159 14.8176C51.479 14.8993 51.5161 14.9876 51.5606 15.0818C51.7491 15.4275 51.925 15.7918 52.0949 16.1561C52.3524 16.6963 52.5914 17.249 52.8051 17.8025C52.912 18.0793 53.0188 18.362 53.119 18.6447C53.2006 18.8769 53.2763 19.1158 53.3579 19.3547C53.4143 19.5432 53.4774 19.719 53.5279 19.9075C53.5969 20.1464 53.6659 20.3912 53.729 20.6361C53.8418 21.0449 53.9427 21.4589 54.0303 21.8803L54.031 21.8818Z" fill="#1034F0"/>
<path d="M9.82425 14.1282C9.48511 16.1263 6.53754 16.5722 5.76502 18.4382C5.08007 20.1031 6.45665 21.9818 6.11677 23.7469C5.74573 25.676 3.62186 26.6116 1.99446 27.7112C1.28428 28.189 0.631251 28.7477 0.0524214 29.3702C0.0212537 28.8174 0.00195312 28.2647 0.00195312 27.7052C0.00195312 20.5053 2.78553 13.9583 7.34196 9.07617C7.5119 9.692 7.87626 10.3078 8.27179 10.8042C9.0636 11.791 10.0372 12.8839 9.82425 14.1282Z" fill="#1034F0"/>
<path d="M67.8749 26.9882C66.7763 25.6455 65.7872 24.4367 64.7983 23.2278C64.5601 22.9366 64.3187 22.6479 64.0857 22.352C63.6892 21.8482 63.6778 21.4699 64.0406 21.1363C64.3707 20.8328 64.8374 20.9056 65.2062 21.346C65.931 22.2111 66.6452 23.0858 67.3617 23.9583C68.2163 24.9991 69.0611 26.0484 69.9254 27.0805C70.2866 27.5118 70.3343 27.9111 69.9647 28.3597C68.3907 30.2703 66.8246 32.188 65.2498 34.098C65.1271 34.2469 64.9569 34.4689 64.816 34.4631C64.5184 34.4511 64.1575 34.3925 63.9475 34.2034C63.6399 33.9267 63.7586 33.5375 64.0061 33.2324C64.6796 32.4012 65.3611 31.5768 66.0386 30.7489C66.614 30.0461 67.1881 29.3422 67.8741 28.5028H67.1491C61.797 28.5028 63.3045 28.5031 57.9524 28.5017C57.7203 28.5017 57.4351 28.5682 57.2681 28.4552C57.0232 28.2896 56.7098 27.9902 56.709 27.7469C56.7082 27.5039 57.02 27.2023 57.2641 27.0359C57.4303 26.9226 57.716 26.9891 57.9482 26.9891C63.2808 26.9874 61.754 26.988 67.0866 26.988L67.8749 26.9882Z" fill="#1034F0"/>
</g>
<defs>
<clipPath id="clip0_220_6996">
<rect width="70.2201" height="54.6593" fill="white" transform="translate(0 0.37793)"/>
</clipPath>
</defs>
</svg>
