<svg width="71" height="56" viewBox="0 0 71 56" fill="none" xmlns="http://www.w3.org/2000/svg">
<g clip-path="url(#clip0_220_6930)">
<mask id="path-1-inside-1_220_6930" fill="white">
<path d="M54.6593 28.3119C54.6593 28.7015 54.6467 29.0851 54.6341 29.4679V29.5117C54.6215 29.7944 54.6088 30.0837 54.5836 30.3538C54.5651 30.6113 54.5398 30.8628 54.5146 31.1076C54.4768 31.466 54.4389 31.8236 54.3825 32.182C54.3699 32.2762 54.3573 32.3771 54.3447 32.4773C54.2942 32.8164 54.2319 33.1621 54.1621 33.5012C54.1116 33.7713 54.0552 34.0413 53.9922 34.3181C53.9358 34.5948 53.8668 34.8708 53.7977 35.1409C53.5655 36.0142 53.308 36.8749 53 37.7103C52.9243 37.9181 52.8427 38.1251 52.761 38.3388C52.6163 38.7031 52.4657 39.0614 52.3024 39.4198C52.1644 39.7336 52.0197 40.0482 51.8691 40.3621C51.7058 40.6952 51.5359 41.0157 51.36 41.3363C51.2531 41.5373 51.1463 41.7317 51.0335 41.9143C50.9266 42.1027 50.8138 42.2978 50.7003 42.4863C50.5496 42.7312 50.399 42.9701 50.2416 43.209C50.0405 43.5169 49.8268 43.8307 49.6131 44.1386C49.4558 44.3583 49.2925 44.5786 49.1293 44.7923C48.9786 44.9934 48.8213 45.1878 48.6707 45.3888C48.2306 45.929 47.772 46.4632 47.2822 46.9848C47.0744 47.2044 46.8674 47.4248 46.6537 47.6385L46.578 47.7141C46.3642 47.9278 46.1446 48.1348 45.9242 48.3359C45.4529 48.7692 44.9691 49.1966 44.4786 49.5861C44.2337 49.7931 43.9821 49.9882 43.7306 50.1767C43.712 50.1893 43.6927 50.2019 43.6801 50.2145C43.4411 50.3971 43.1903 50.5662 42.9447 50.7361C42.6805 50.9246 42.4171 51.1004 42.1529 51.2703C41.8828 51.4529 41.6126 51.622 41.3358 51.7793C40.406 52.3321 39.4443 52.8351 38.4454 53.287C38.2881 53.356 38.1248 53.4191 37.9616 53.4881C37.4777 53.6951 36.9813 53.8902 36.4848 54.066C36.139 54.1855 35.7939 54.305 35.4414 54.4118C35.0207 54.5498 34.5865 54.6693 34.1532 54.7828C33.8266 54.8644 33.4994 54.946 33.1729 55.015C32.9718 55.0588 32.7647 55.1026 32.5569 55.1404C32.387 55.1723 32.2052 55.2035 32.0352 55.2346C31.2501 55.3667 30.4516 55.4795 29.6472 55.5359C29.4965 55.5544 29.3392 55.567 29.1886 55.5796C28.5726 55.6234 27.9508 55.6427 27.3222 55.6427C26.9512 55.6427 26.5809 55.6368 26.2098 55.6175C25.9776 55.6115 25.7386 55.5989 25.4997 55.5796C25.2926 55.567 25.0915 55.5485 24.8837 55.5292C24.7079 55.5166 24.5379 55.504 24.362 55.4787C24.1862 55.4602 24.0103 55.4409 23.8344 55.4157H23.8285C23.6711 55.3971 23.5146 55.3778 23.3572 55.3526C23.1999 55.3274 23.0433 55.3021 22.886 55.271C22.7665 55.2584 22.6411 55.2398 22.5217 55.2146C22.5157 55.2205 22.509 55.2205 22.5031 55.2146C22.3836 55.196 22.2641 55.1768 22.1514 55.1515C22.1135 55.1456 22.0823 55.133 22.0504 55.1263C22.0378 55.1263 22.0193 55.1204 22 55.1204C21.9814 55.1144 21.9621 55.1144 21.9495 55.1011L21.384 54.9883C21.1955 54.9445 21.007 54.9 20.8186 54.8562C20.6553 54.8184 20.492 54.7805 20.328 54.7368C20.2969 54.7308 20.265 54.7182 20.2279 54.7056C20.052 54.6618 19.882 54.6114 19.7128 54.5609C19.4049 54.4726 19.1036 54.3784 18.8016 54.2782C18.7326 54.2597 18.6635 54.2345 18.5945 54.2092C18.4817 54.1781 18.3682 54.1402 18.2487 54.0898C18.0981 54.0393 17.9533 53.9889 17.8086 53.9325C17.4821 53.813 17.1549 53.681 16.8283 53.5489C16.7653 53.5237 16.7089 53.4984 16.6465 53.4673C16.3638 53.3545 16.087 53.2284 15.8109 53.0963C15.503 52.9516 15.2076 52.8069 14.9063 52.6563C14.7683 52.5873 14.6295 52.5183 14.4982 52.4426C14.1717 52.2727 13.8511 52.0909 13.5364 51.9025C13.3917 51.8209 13.2537 51.7326 13.109 51.651C13.04 51.6072 12.9643 51.5567 12.8893 51.513C12.5376 51.2993 12.1918 51.067 11.846 50.8281C11.7139 50.7398 11.5818 50.6456 11.4564 50.5514C11.3057 50.4512 11.1551 50.3377 11.0037 50.2249C10.7143 50.0112 10.4256 49.7916 10.1488 49.5586C10.0108 49.4459 9.87868 49.3324 9.74659 49.2255C9.62117 49.1187 9.49502 49.0118 9.37554 48.905C9.25013 48.7981 9.12398 48.6913 9.0045 48.5785C8.87909 48.4657 8.75961 48.3589 8.64014 48.2454C7.93663 47.5858 7.27024 46.8943 6.63575 46.1597C6.52889 46.047 6.42871 45.9275 6.33447 45.808C6.27139 45.7324 6.20905 45.6574 6.15191 45.5818C6.12075 45.5439 6.08883 45.5061 6.0636 45.469C5.95674 45.3436 5.85656 45.2175 5.75564 45.0854V45.0794C5.74302 45.0735 5.73708 45.0609 5.73708 45.0542C5.52336 44.7775 5.30964 44.4888 5.1026 44.2062C4.89556 43.9109 4.68777 43.6089 4.48666 43.301C4.28556 42.9997 4.09113 42.6918 3.9019 42.3772C3.71341 42.0626 3.53086 41.7488 3.35498 41.4283C3.17911 41.1077 3.00916 40.7872 2.84591 40.4541C2.68858 40.1276 2.53201 39.7945 2.38136 39.4613C2.25595 39.1913 2.1424 38.9145 2.0296 38.6385C1.86041 38.2364 1.70309 37.8216 1.55838 37.4069C0.722788 35.063 0.207038 32.5693 0.050457 29.9739C0.0192892 29.4212 0 28.8684 0 28.309C0 21.109 2.78357 14.562 7.34 9.67989C7.94925 9.02029 8.5971 8.39853 9.26943 7.80125C9.74734 7.3865 10.2371 6.97842 10.7395 6.6015V6.59557C11.4556 6.04875 12.2037 5.53383 12.9702 5.0753C13.0771 4.987 13.1966 4.918 13.316 4.849C13.624 4.66648 13.932 4.49731 14.2021 4.34002C14.3965 4.23317 14.585 4.12633 14.755 4.04472C14.8678 3.98165 14.9872 3.92526 15.0941 3.87481C16.1998 3.31537 17.3374 2.83829 18.5062 2.44209L19.0153 2.27218C20.0587 1.93904 21.1265 1.66897 22.1951 1.4679C22.5469 1.39889 22.9053 1.33583 23.2571 1.28538C23.4893 1.25421 23.7157 1.22231 23.948 1.19708C24.2559 1.15331 24.5698 1.11547 24.8718 1.09024C25.2548 1.05908 25.651 1.03385 26.0347 1.01456C26.4681 0.989334 26.8896 0.983398 27.323 0.983398C27.7 0.983398 28.0643 0.989334 28.4287 1.00862C28.8057 1.01456 29.17 1.03979 29.5344 1.07763C29.9114 1.10285 30.2757 1.14069 30.6401 1.18447H30.646C31.0045 1.22824 31.3688 1.2787 31.7265 1.34176C32.4679 1.46122 33.1966 1.61184 33.9194 1.78768C34.9939 2.05182 36.0373 2.37828 37.0488 2.76781C38.0922 3.15734 39.091 3.61586 40.0587 4.12485C40.3348 4.28214 40.6056 4.42683 40.8757 4.57744C40.9321 4.60267 40.9826 4.64051 41.0331 4.66574C41.0895 4.6969 41.1399 4.73474 41.203 4.7659C41.3729 4.86681 41.5488 4.96697 41.718 5.07381C41.8056 5.12427 41.888 5.17398 41.9755 5.24372C42.1135 5.3194 42.2456 5.41363 42.3837 5.50786C42.5595 5.6147 42.7295 5.73416 42.8987 5.85361C43.2 6.06136 43.4953 6.28098 43.7974 6.5006C43.8285 6.52582 43.873 6.55699 43.9228 6.59483C44.0608 6.69573 44.2433 6.83374 44.4571 7.0029C44.771 7.26036 45.0856 7.5245 45.3869 7.80719C45.5442 7.94519 45.7008 8.08394 45.8522 8.22788C46.0719 8.42895 46.2856 8.63669 46.4934 8.83702C46.7011 9.04403 46.9082 9.25178 47.1093 9.46546C47.3609 9.72292 47.6057 9.98706 47.8447 10.2571C47.9137 10.3328 47.9894 10.4144 48.0584 10.496C48.1022 10.5398 48.1401 10.5903 48.1712 10.6407C48.2091 10.6912 48.2528 10.7416 48.2907 10.7854C48.6491 11.2002 48.9883 11.6275 49.3148 12.0668C49.5092 12.3435 49.7044 12.6195 49.8929 12.9022C50.2261 13.386 50.54 13.8823 50.842 14.3913V14.3973C51.049 14.7304 51.2375 15.0695 51.4134 15.4212C51.4765 15.5028 51.5136 15.5911 51.5581 15.6853C51.7466 16.031 51.9225 16.3953 52.0924 16.7597C52.3499 17.2998 52.5889 17.8526 52.8026 18.4061C52.9095 18.6828 53.0163 18.9655 53.1165 19.2482C53.1981 19.4804 53.2738 19.7193 53.3554 19.9582C53.4118 20.1467 53.4749 20.3225 53.5254 20.511C53.7139 21.158 53.8898 21.8176 54.0278 22.4839C54.1154 22.8734 54.191 23.2629 54.2541 23.6524C54.292 23.835 54.3231 24.0167 54.3424 24.2052C54.3484 24.2178 54.3484 24.2364 54.3484 24.243C54.3795 24.4315 54.4048 24.62 54.4241 24.8084C54.4367 24.8396 54.4426 24.8715 54.4426 24.9086C54.4612 25.0466 54.4738 25.1786 54.4931 25.3167C54.5116 25.4487 54.5183 25.5867 54.5242 25.7255C54.5302 25.7759 54.5369 25.8323 54.5428 25.8828C54.5487 25.9392 54.5554 25.9955 54.5613 26.046C54.5613 26.0772 54.5673 26.115 54.5673 26.1528C54.5732 26.1966 54.5799 26.2411 54.5799 26.2849C54.6304 26.9512 54.6556 27.6293 54.6556 28.3082L54.6593 28.3119Z"/>
</mask>
<path d="M54.6593 28.3119C54.6593 28.7015 54.6467 29.0851 54.6341 29.4679V29.5117C54.6215 29.7944 54.6088 30.0837 54.5836 30.3538C54.5651 30.6113 54.5398 30.8628 54.5146 31.1076C54.4768 31.466 54.4389 31.8236 54.3825 32.182C54.3699 32.2762 54.3573 32.3771 54.3447 32.4773C54.2942 32.8164 54.2319 33.1621 54.1621 33.5012C54.1116 33.7713 54.0552 34.0413 53.9922 34.3181C53.9358 34.5948 53.8668 34.8708 53.7977 35.1409C53.5655 36.0142 53.308 36.8749 53 37.7103C52.9243 37.9181 52.8427 38.1251 52.761 38.3388C52.6163 38.7031 52.4657 39.0614 52.3024 39.4198C52.1644 39.7336 52.0197 40.0482 51.8691 40.3621C51.7058 40.6952 51.5359 41.0157 51.36 41.3363C51.2531 41.5373 51.1463 41.7317 51.0335 41.9143C50.9266 42.1027 50.8138 42.2978 50.7003 42.4863C50.5496 42.7312 50.399 42.9701 50.2416 43.209C50.0405 43.5169 49.8268 43.8307 49.6131 44.1386C49.4558 44.3583 49.2925 44.5786 49.1293 44.7923C48.9786 44.9934 48.8213 45.1878 48.6707 45.3888C48.2306 45.929 47.772 46.4632 47.2822 46.9848C47.0744 47.2044 46.8674 47.4248 46.6537 47.6385L46.578 47.7141C46.3642 47.9278 46.1446 48.1348 45.9242 48.3359C45.4529 48.7692 44.9691 49.1966 44.4786 49.5861C44.2337 49.7931 43.9821 49.9882 43.7306 50.1767C43.712 50.1893 43.6927 50.2019 43.6801 50.2145C43.4411 50.3971 43.1903 50.5662 42.9447 50.7361C42.6805 50.9246 42.4171 51.1004 42.1529 51.2703C41.8828 51.4529 41.6126 51.622 41.3358 51.7793C40.406 52.3321 39.4443 52.8351 38.4454 53.287C38.2881 53.356 38.1248 53.4191 37.9616 53.4881C37.4777 53.6951 36.9813 53.8902 36.4848 54.066C36.139 54.1855 35.7939 54.305 35.4414 54.4118C35.0207 54.5498 34.5865 54.6693 34.1532 54.7828C33.8266 54.8644 33.4994 54.946 33.1729 55.015C32.9718 55.0588 32.7647 55.1026 32.5569 55.1404C32.387 55.1723 32.2052 55.2035 32.0352 55.2346C31.2501 55.3667 30.4516 55.4795 29.6472 55.5359C29.4965 55.5544 29.3392 55.567 29.1886 55.5796C28.5726 55.6234 27.9508 55.6427 27.3222 55.6427C26.9512 55.6427 26.5809 55.6368 26.2098 55.6175C25.9776 55.6115 25.7386 55.5989 25.4997 55.5796C25.2926 55.567 25.0915 55.5485 24.8837 55.5292C24.7079 55.5166 24.5379 55.504 24.362 55.4787C24.1862 55.4602 24.0103 55.4409 23.8344 55.4157H23.8285C23.6711 55.3971 23.5146 55.3778 23.3572 55.3526C23.1999 55.3274 23.0433 55.3021 22.886 55.271C22.7665 55.2584 22.6411 55.2398 22.5217 55.2146C22.5157 55.2205 22.509 55.2205 22.5031 55.2146C22.3836 55.196 22.2641 55.1768 22.1514 55.1515C22.1135 55.1456 22.0823 55.133 22.0504 55.1263C22.0378 55.1263 22.0193 55.1204 22 55.1204C21.9814 55.1144 21.9621 55.1144 21.9495 55.1011L21.384 54.9883C21.1955 54.9445 21.007 54.9 20.8186 54.8562C20.6553 54.8184 20.492 54.7805 20.328 54.7368C20.2969 54.7308 20.265 54.7182 20.2279 54.7056C20.052 54.6618 19.882 54.6114 19.7128 54.5609C19.4049 54.4726 19.1036 54.3784 18.8016 54.2782C18.7326 54.2597 18.6635 54.2345 18.5945 54.2092C18.4817 54.1781 18.3682 54.1402 18.2487 54.0898C18.0981 54.0393 17.9533 53.9889 17.8086 53.9325C17.4821 53.813 17.1549 53.681 16.8283 53.5489C16.7653 53.5237 16.7089 53.4984 16.6465 53.4673C16.3638 53.3545 16.087 53.2284 15.8109 53.0963C15.503 52.9516 15.2076 52.8069 14.9063 52.6563C14.7683 52.5873 14.6295 52.5183 14.4982 52.4426C14.1717 52.2727 13.8511 52.0909 13.5364 51.9025C13.3917 51.8209 13.2537 51.7326 13.109 51.651C13.04 51.6072 12.9643 51.5567 12.8893 51.513C12.5376 51.2993 12.1918 51.067 11.846 50.8281C11.7139 50.7398 11.5818 50.6456 11.4564 50.5514C11.3057 50.4512 11.1551 50.3377 11.0037 50.2249C10.7143 50.0112 10.4256 49.7916 10.1488 49.5586C10.0108 49.4459 9.87868 49.3324 9.74659 49.2255C9.62117 49.1187 9.49502 49.0118 9.37554 48.905C9.25013 48.7981 9.12398 48.6913 9.0045 48.5785C8.87909 48.4657 8.75961 48.3589 8.64014 48.2454C7.93663 47.5858 7.27024 46.8943 6.63575 46.1597C6.52889 46.047 6.42871 45.9275 6.33447 45.808C6.27139 45.7324 6.20905 45.6574 6.15191 45.5818C6.12075 45.5439 6.08883 45.5061 6.0636 45.469C5.95674 45.3436 5.85656 45.2175 5.75564 45.0854V45.0794C5.74302 45.0735 5.73708 45.0609 5.73708 45.0542C5.52336 44.7775 5.30964 44.4888 5.1026 44.2062C4.89556 43.9109 4.68777 43.6089 4.48666 43.301C4.28556 42.9997 4.09113 42.6918 3.9019 42.3772C3.71341 42.0626 3.53086 41.7488 3.35498 41.4283C3.17911 41.1077 3.00916 40.7872 2.84591 40.4541C2.68858 40.1276 2.53201 39.7945 2.38136 39.4613C2.25595 39.1913 2.1424 38.9145 2.0296 38.6385C1.86041 38.2364 1.70309 37.8216 1.55838 37.4069C0.722788 35.063 0.207038 32.5693 0.050457 29.9739C0.0192892 29.4212 0 28.8684 0 28.309C0 21.109 2.78357 14.562 7.34 9.67989C7.94925 9.02029 8.5971 8.39853 9.26943 7.80125C9.74734 7.3865 10.2371 6.97842 10.7395 6.6015V6.59557C11.4556 6.04875 12.2037 5.53383 12.9702 5.0753C13.0771 4.987 13.1966 4.918 13.316 4.849C13.624 4.66648 13.932 4.49731 14.2021 4.34002C14.3965 4.23317 14.585 4.12633 14.755 4.04472C14.8678 3.98165 14.9872 3.92526 15.0941 3.87481C16.1998 3.31537 17.3374 2.83829 18.5062 2.44209L19.0153 2.27218C20.0587 1.93904 21.1265 1.66897 22.1951 1.4679C22.5469 1.39889 22.9053 1.33583 23.2571 1.28538C23.4893 1.25421 23.7157 1.22231 23.948 1.19708C24.2559 1.15331 24.5698 1.11547 24.8718 1.09024C25.2548 1.05908 25.651 1.03385 26.0347 1.01456C26.4681 0.989334 26.8896 0.983398 27.323 0.983398C27.7 0.983398 28.0643 0.989334 28.4287 1.00862C28.8057 1.01456 29.17 1.03979 29.5344 1.07763C29.9114 1.10285 30.2757 1.14069 30.6401 1.18447H30.646C31.0045 1.22824 31.3688 1.2787 31.7265 1.34176C32.4679 1.46122 33.1966 1.61184 33.9194 1.78768C34.9939 2.05182 36.0373 2.37828 37.0488 2.76781C38.0922 3.15734 39.091 3.61586 40.0587 4.12485C40.3348 4.28214 40.6056 4.42683 40.8757 4.57744C40.9321 4.60267 40.9826 4.64051 41.0331 4.66574C41.0895 4.6969 41.1399 4.73474 41.203 4.7659C41.3729 4.86681 41.5488 4.96697 41.718 5.07381C41.8056 5.12427 41.888 5.17398 41.9755 5.24372C42.1135 5.3194 42.2456 5.41363 42.3837 5.50786C42.5595 5.6147 42.7295 5.73416 42.8987 5.85361C43.2 6.06136 43.4953 6.28098 43.7974 6.5006C43.8285 6.52582 43.873 6.55699 43.9228 6.59483C44.0608 6.69573 44.2433 6.83374 44.4571 7.0029C44.771 7.26036 45.0856 7.5245 45.3869 7.80719C45.5442 7.94519 45.7008 8.08394 45.8522 8.22788C46.0719 8.42895 46.2856 8.63669 46.4934 8.83702C46.7011 9.04403 46.9082 9.25178 47.1093 9.46546C47.3609 9.72292 47.6057 9.98706 47.8447 10.2571C47.9137 10.3328 47.9894 10.4144 48.0584 10.496C48.1022 10.5398 48.1401 10.5903 48.1712 10.6407C48.2091 10.6912 48.2528 10.7416 48.2907 10.7854C48.6491 11.2002 48.9883 11.6275 49.3148 12.0668C49.5092 12.3435 49.7044 12.6195 49.8929 12.9022C50.2261 13.386 50.54 13.8823 50.842 14.3913V14.3973C51.049 14.7304 51.2375 15.0695 51.4134 15.4212C51.4765 15.5028 51.5136 15.5911 51.5581 15.6853C51.7466 16.031 51.9225 16.3953 52.0924 16.7597C52.3499 17.2998 52.5889 17.8526 52.8026 18.4061C52.9095 18.6828 53.0163 18.9655 53.1165 19.2482C53.1981 19.4804 53.2738 19.7193 53.3554 19.9582C53.4118 20.1467 53.4749 20.3225 53.5254 20.511C53.7139 21.158 53.8898 21.8176 54.0278 22.4839C54.1154 22.8734 54.191 23.2629 54.2541 23.6524C54.292 23.835 54.3231 24.0167 54.3424 24.2052C54.3484 24.2178 54.3484 24.2364 54.3484 24.243C54.3795 24.4315 54.4048 24.62 54.4241 24.8084C54.4367 24.8396 54.4426 24.8715 54.4426 24.9086C54.4612 25.0466 54.4738 25.1786 54.4931 25.3167C54.5116 25.4487 54.5183 25.5867 54.5242 25.7255C54.5302 25.7759 54.5369 25.8323 54.5428 25.8828C54.5487 25.9392 54.5554 25.9955 54.5613 26.046C54.5613 26.0772 54.5673 26.115 54.5673 26.1528C54.5732 26.1966 54.5799 26.2411 54.5799 26.2849C54.6304 26.9512 54.6556 27.6293 54.6556 28.3082L54.6593 28.3119Z" stroke="#F9CD78" stroke-width="6.4461" mask="url(#path-1-inside-1_220_6930)"/>
<path d="M36.483 54.068C33.6171 55.0882 30.5389 55.6409 27.3242 55.6409C15.427 55.6409 5.29825 48.0314 1.55664 37.411C1.89652 37.4704 2.23713 37.5809 2.53471 37.7427C3.62335 38.3125 4.38844 39.3327 5.17951 40.2765C5.97058 41.2202 6.88854 42.164 8.0796 42.4615C9.71219 42.8778 11.7277 42.0787 12.9521 43.2265C13.5985 43.8304 13.8538 44.8759 14.6872 45.1823C15.6059 45.531 16.6262 44.5954 16.6856 43.6093C16.7539 42.6314 16.1587 41.7218 15.4693 41.0162C14.7888 40.3017 13.9896 39.6896 13.4538 38.8653C12.9269 38.032 12.7392 36.8672 13.3432 36.0933C13.8872 35.3959 14.9335 35.2349 15.7587 35.5494C16.5839 35.864 17.2132 36.5526 17.6637 37.3183C18.4377 38.6108 18.7694 40.1155 19.4491 41.4502C20.1296 42.7939 21.337 44.0523 22.842 44.0775C24.1599 44.1116 25.7421 43.2614 26.6519 44.2222C27.1535 44.749 27.1283 45.5659 27.3064 46.2715C27.834 48.346 30.0618 49.4092 32.0261 50.2506C33.8969 51.0415 35.9814 52.1552 36.483 54.068Z" fill="#F9CD78"/>
<path d="M54.031 22.4873C53.5783 22.4999 53.1071 22.4873 52.6047 22.4621C51.8003 22.4242 50.9959 22.3805 50.1915 22.3426C49.8649 22.3241 49.5377 22.3114 49.2112 22.2922C48.3192 22.2484 47.3389 22.2358 46.5908 22.6691C46.4461 22.7507 46.314 22.8449 46.1886 22.9644C45.7738 23.3598 45.523 23.9319 45.0139 24.1893C44.5486 24.4156 44.0024 24.3147 43.4867 24.3273C41.9342 24.3652 40.571 25.4707 39.7978 26.8092C39.0876 28.0342 38.629 29.3348 38.3462 30.6733C37.6553 33.8964 38.0004 37.3517 38.3277 40.6007C38.3403 40.7076 38.3529 40.8144 38.3529 40.9212C38.4093 41.4992 38.416 42.0898 38.1703 42.6114C37.8817 43.2272 37.1084 43.6672 36.5051 43.3526C36.3166 43.2584 36.1719 43.1011 36.0524 42.9253C35.9396 42.762 35.8513 42.5669 35.7638 42.3851C35.2859 41.3545 35.1857 40.2423 34.7456 39.2563C34.1237 37.8614 32.9609 38.2509 31.7921 37.7293C30.9498 37.3524 30.5291 36.4035 30.328 35.5049C30.2901 35.3291 30.2523 35.1533 30.2211 34.9774C30.0831 34.2421 29.9695 33.495 29.6178 32.8473C29.505 32.6462 29.3662 32.4451 29.1592 32.3442C28.9833 32.2559 28.7762 32.2433 28.5811 32.2374C27.4249 32.2121 26.0988 32.2937 24.9678 32.52C23.9875 32.7211 23.1453 33.5313 22.1405 33.5187C20.4567 33.4935 19.7339 31.301 19.935 29.6294C20.142 27.9585 20.7454 26.1362 19.8972 24.685C18.5525 22.3856 14.5051 22.6557 13.5627 20.1672C12.6514 17.7417 15.668 15.6872 18.2193 15.2354C20.7773 14.7769 23.9126 14.5068 25.0064 12.157C25.5341 11.0196 25.3775 9.75084 24.9374 8.54442C24.7237 7.94121 24.435 7.35061 24.133 6.79785C23.2217 5.15144 22.116 3.46127 22.185 1.58263C22.185 1.54479 22.1909 1.50695 22.1976 1.46985C22.5494 1.40085 22.9078 1.33778 23.2596 1.28733C23.4918 1.25617 23.7182 1.22426 23.9504 1.19904C24.2584 1.15526 24.5723 1.11742 24.8743 1.09219C25.2573 1.06103 25.6535 1.03581 26.0372 1.01651C26.4706 0.991288 26.8921 0.985352 27.3255 0.985352C27.7024 0.985352 28.0668 0.991288 28.4312 1.01058C28.8082 1.01651 29.1725 1.04174 29.5369 1.07958C29.9139 1.10481 30.2782 1.14265 30.6426 1.18642H30.6485C31.007 1.2302 31.3713 1.28065 31.729 1.34372C32.4704 1.46317 33.1991 1.61379 33.9219 1.78963C34.94 2.04116 35.9263 2.34239 36.8813 2.70669C36.9377 2.72524 36.9941 2.75047 37.0513 2.76976C38.0947 3.15929 39.0935 3.61782 40.0612 4.1268C40.3373 4.2841 40.6081 4.42878 40.8782 4.5794C40.9346 4.60462 40.9851 4.64246 41.0356 4.66769C41.092 4.69885 41.1424 4.73669 41.2055 4.76785C41.3754 4.86876 41.5513 4.96892 41.7205 5.07577C41.8081 5.12622 41.8904 5.17593 41.978 5.24567C42.116 5.32135 42.2481 5.41558 42.3862 5.50981C42.562 5.61665 42.732 5.73611 42.9012 5.85556C43.2025 6.06331 43.4978 6.28293 43.7998 6.50255C43.831 6.52778 43.8755 6.55894 43.9253 6.59678C44.0633 6.69769 44.2458 6.83569 44.4596 7.00486C44.7735 7.26232 45.0881 7.52645 45.3894 7.80914C45.5467 7.94714 45.7033 8.08589 45.8547 8.22983C46.0743 8.4309 46.2881 8.63865 46.4959 8.83898C46.7036 9.04598 46.9107 9.25373 47.1118 9.46742C47.3633 9.72487 47.6082 9.98901 47.8472 10.2591C47.9162 10.3348 47.9919 10.4164 48.0609 10.498C48.1047 10.5418 48.1425 10.5922 48.1737 10.6427C48.2116 10.6931 48.2553 10.7436 48.2932 10.7874C48.6516 11.2021 48.9907 11.6295 49.3173 12.0687C49.5117 12.3455 49.7069 12.6215 49.8954 12.9042C50.2286 13.3879 50.5425 13.8843 50.8445 14.3933V14.3992C51.0515 14.7323 51.24 15.0714 51.4159 15.4231C51.479 15.5047 51.5161 15.593 51.5606 15.6872C51.7491 16.033 51.925 16.3973 52.0949 16.7616C52.3524 17.3017 52.5914 17.8545 52.8051 18.408C52.912 18.6848 53.0188 18.9674 53.119 19.2501C53.2006 19.4824 53.2763 19.7213 53.3579 19.9602C53.4143 20.1486 53.4774 20.3245 53.5279 20.5129C53.5969 20.7519 53.6659 20.9967 53.729 21.2415C53.8418 21.6504 53.9427 22.0644 54.0303 22.4858L54.031 22.4873Z" fill="#F9CD78"/>
<path d="M9.82425 14.7336C9.48511 16.7317 6.53754 17.1776 5.76502 19.0437C5.08007 20.7086 6.45665 22.5873 6.11677 24.3524C5.74573 26.2815 3.62186 27.2171 1.99446 28.3167C1.28428 28.7945 0.631251 29.3532 0.0524214 29.9757C0.0212537 29.4229 0.00195312 28.8702 0.00195312 28.3107C0.00195312 21.1108 2.78553 14.5637 7.34196 9.68164C7.5119 10.2975 7.87626 10.9133 8.27179 11.4097C9.0636 12.3965 10.0372 13.4894 9.82425 14.7336Z" fill="#F9CD78"/>
<path d="M67.8749 27.5937C66.7763 26.251 65.7872 25.0422 64.7983 23.8333C64.5601 23.5421 64.3187 23.2534 64.0857 22.9575C63.6892 22.4536 63.6778 22.0754 64.0406 21.7418C64.3707 21.4383 64.8374 21.5111 65.2062 21.9514C65.931 22.8166 66.6452 23.6912 67.3617 24.5638C68.2163 25.6046 69.0611 26.6539 69.9254 27.6859C70.2866 28.1173 70.3343 28.5166 69.9647 28.9651C68.3907 30.8757 66.8246 32.7935 65.2498 34.7035C65.1271 34.8524 64.9569 35.0743 64.816 35.0686C64.5184 35.0565 64.1575 34.998 63.9475 34.8089C63.6399 34.5322 63.7586 34.143 64.0061 33.8378C64.6796 33.0066 65.3611 32.1823 66.0386 31.3544C66.614 30.6516 67.1881 29.9477 67.8741 29.1083H67.1491C61.797 29.1083 63.3045 29.1086 57.9524 29.1072C57.7203 29.1072 57.4351 29.1737 57.2681 29.0607C57.0232 28.8951 56.7098 28.5957 56.709 28.3524C56.7082 28.1093 57.02 27.8077 57.2641 27.6413C57.4303 27.528 57.716 27.5945 57.9482 27.5945C63.2808 27.5929 61.754 27.5934 67.0866 27.5934L67.8749 27.5937Z" fill="#F9CD78"/>
</g>
<defs>
<clipPath id="clip0_220_6930">
<rect width="70.2201" height="54.6593" fill="white" transform="translate(0 0.983398)"/>
</clipPath>
</defs>
</svg>
