<svg width="71" height="55" viewBox="0 0 71 55" fill="none" xmlns="http://www.w3.org/2000/svg">
<g clip-path="url(#clip0_220_6662)">
<mask id="path-1-inside-1_220_6662" fill="white">
<path d="M54.6593 27.3285C54.6593 27.7181 54.6467 28.1017 54.6341 28.4845V28.5283C54.6215 28.811 54.6088 29.1003 54.5836 29.3704C54.5651 29.6279 54.5398 29.8794 54.5146 30.1242C54.4768 30.4826 54.4389 30.8402 54.3825 31.1986C54.3699 31.2928 54.3573 31.3937 54.3447 31.4939C54.2942 31.833 54.2319 32.1787 54.1621 32.5178C54.1116 32.7879 54.0552 33.0579 53.9922 33.3347C53.9358 33.6114 53.8668 33.8874 53.7977 34.1575C53.5655 35.0308 53.308 35.8915 53 36.7269C52.9243 36.9347 52.8427 37.1417 52.761 37.3554C52.6163 37.7197 52.4657 38.078 52.3024 38.4364C52.1644 38.7502 52.0197 39.0648 51.8691 39.3787C51.7058 39.7118 51.5359 40.0323 51.36 40.3529C51.2531 40.5539 51.1463 40.7483 51.0335 40.9309C50.9266 41.1193 50.8138 41.3144 50.7003 41.5029C50.5496 41.7478 50.399 41.9867 50.2416 42.2256C50.0405 42.5335 49.8268 42.8473 49.6131 43.1552C49.4558 43.3749 49.2925 43.5952 49.1293 43.8089C48.9786 44.01 48.8213 44.2044 48.6707 44.4054C48.2306 44.9456 47.772 45.4798 47.2822 46.0014C47.0744 46.221 46.8674 46.4414 46.6537 46.6551L46.578 46.7307C46.3642 46.9444 46.1446 47.1514 45.9242 47.3525C45.4529 47.7858 44.9691 48.2132 44.4786 48.6027C44.2337 48.8097 43.9821 49.0048 43.7306 49.1933C43.712 49.2059 43.6927 49.2185 43.6801 49.2311C43.4411 49.4137 43.1903 49.5828 42.9447 49.7527C42.6805 49.9412 42.4171 50.117 42.1529 50.2869C41.8828 50.4695 41.6126 50.6386 41.3358 50.7959C40.406 51.3487 39.4443 51.8517 38.4454 52.3036C38.2881 52.3726 38.1248 52.4357 37.9616 52.5047C37.4777 52.7117 36.9813 52.9068 36.4848 53.0826C36.139 53.2021 35.7939 53.3216 35.4414 53.4284C35.0207 53.5664 34.5865 53.6859 34.1532 53.7994C33.8266 53.881 33.4994 53.9626 33.1729 54.0316C32.9718 54.0754 32.7647 54.1192 32.5569 54.157C32.387 54.1889 32.2052 54.2201 32.0352 54.2512C31.2501 54.3833 30.4516 54.4961 29.6472 54.5525C29.4965 54.571 29.3392 54.5836 29.1886 54.5962C28.5726 54.64 27.9508 54.6593 27.3222 54.6593C26.9512 54.6593 26.5809 54.6534 26.2098 54.6341C25.9776 54.6281 25.7386 54.6155 25.4997 54.5962C25.2926 54.5836 25.0915 54.5651 24.8837 54.5458C24.7079 54.5332 24.5379 54.5206 24.362 54.4953C24.1862 54.4768 24.0103 54.4575 23.8344 54.4323H23.8285C23.6711 54.4137 23.5146 54.3944 23.3572 54.3692C23.1999 54.344 23.0433 54.3187 22.886 54.2876C22.7665 54.275 22.6411 54.2564 22.5217 54.2312C22.5157 54.2371 22.509 54.2371 22.5031 54.2312C22.3836 54.2126 22.2641 54.1934 22.1514 54.1681C22.1135 54.1622 22.0823 54.1496 22.0504 54.1429C22.0378 54.1429 22.0193 54.137 22 54.137C21.9814 54.131 21.9621 54.131 21.9495 54.1177L21.384 54.0049C21.1955 53.9611 21.007 53.9166 20.8186 53.8728C20.6553 53.835 20.492 53.7971 20.328 53.7534C20.2969 53.7474 20.265 53.7348 20.2279 53.7222C20.052 53.6784 19.882 53.628 19.7128 53.5775C19.4049 53.4892 19.1036 53.395 18.8016 53.2948C18.7326 53.2763 18.6635 53.2511 18.5945 53.2258C18.4817 53.1947 18.3682 53.1568 18.2487 53.1064C18.0981 53.0559 17.9533 53.0055 17.8086 52.9491C17.4821 52.8296 17.1549 52.6976 16.8283 52.5655C16.7653 52.5403 16.7089 52.515 16.6465 52.4839C16.3638 52.3711 16.087 52.245 15.8109 52.1129C15.503 51.9682 15.2076 51.8235 14.9063 51.6729C14.7683 51.6039 14.6295 51.5349 14.4982 51.4592C14.1717 51.2893 13.8511 51.1075 13.5364 50.9191C13.3917 50.8375 13.2537 50.7492 13.109 50.6676C13.04 50.6238 12.9643 50.5733 12.8893 50.5296C12.5376 50.3159 12.1918 50.0836 11.846 49.8447C11.7139 49.7564 11.5818 49.6622 11.4564 49.568C11.3057 49.4678 11.1551 49.3543 11.0037 49.2415C10.7143 49.0278 10.4256 48.8082 10.1488 48.5752C10.0108 48.4625 9.87868 48.349 9.74659 48.2421C9.62117 48.1353 9.49502 48.0284 9.37554 47.9216C9.25013 47.8147 9.12398 47.7079 9.0045 47.5951C8.87909 47.4823 8.75961 47.3755 8.64014 47.262C7.93663 46.6024 7.27024 45.9109 6.63575 45.1763C6.52889 45.0636 6.42871 44.9441 6.33447 44.8246C6.27139 44.749 6.20905 44.674 6.15191 44.5984C6.12075 44.5605 6.08883 44.5227 6.0636 44.4856C5.95674 44.3602 5.85656 44.2341 5.75564 44.102V44.096C5.74302 44.0901 5.73708 44.0775 5.73708 44.0708C5.52336 43.7941 5.30964 43.5054 5.1026 43.2228C4.89556 42.9275 4.68777 42.6255 4.48666 42.3176C4.28556 42.0163 4.09113 41.7084 3.9019 41.3938C3.71341 41.0792 3.53086 40.7654 3.35498 40.4449C3.17911 40.1243 3.00916 39.8038 2.84591 39.4707C2.68858 39.1442 2.53201 38.8111 2.38136 38.4779C2.25595 38.2079 2.1424 37.9311 2.0296 37.6551C1.86041 37.253 1.70309 36.8382 1.55838 36.4235C0.722788 34.0796 0.207038 31.5859 0.050457 28.9905C0.0192892 28.4378 0 27.885 0 27.3256C0 20.1256 2.78357 13.5786 7.34 8.69649C7.94925 8.03689 8.5971 7.41513 9.26943 6.81785C9.74734 6.4031 10.2371 5.99502 10.7395 5.61811V5.61217C11.4556 5.06535 12.2037 4.55043 12.9702 4.0919C13.0771 4.0036 13.1966 3.9346 13.316 3.8656C13.624 3.68308 13.932 3.51391 14.2021 3.35662C14.3965 3.24978 14.585 3.14293 14.755 3.06132C14.8678 2.99825 14.9872 2.94186 15.0941 2.89141C16.1998 2.33197 17.3374 1.85489 18.5062 1.45869L19.0153 1.28878C20.0587 0.955641 21.1265 0.685569 22.1951 0.484498C22.5469 0.415496 22.9053 0.35243 23.2571 0.301977C23.4893 0.270814 23.7157 0.238911 23.948 0.213684C24.2559 0.169908 24.5698 0.132069 24.8718 0.106842C25.2548 0.0756798 25.651 0.050453 26.0347 0.0311621C26.4681 0.00593553 26.8896 0 27.323 0C27.7 0 28.0643 0.00593525 28.4287 0.0252262C28.8057 0.0311618 29.17 0.0563887 29.5344 0.0942286C29.9114 0.119455 30.2757 0.157295 30.6401 0.201071H30.646C31.0045 0.244846 31.3688 0.295299 31.7265 0.358366C32.4679 0.477821 33.1966 0.628438 33.9194 0.804282C34.9939 1.06842 36.0373 1.39488 37.0488 1.78441C38.0922 2.17394 39.091 2.63247 40.0587 3.14145C40.3348 3.29874 40.6056 3.44343 40.8757 3.59404C40.9321 3.61927 40.9826 3.65711 41.0331 3.68234C41.0895 3.7135 41.1399 3.75134 41.203 3.7825C41.3729 3.88341 41.5488 3.98357 41.718 4.09041C41.8056 4.14087 41.888 4.19058 41.9755 4.26032C42.1135 4.336 42.2456 4.43023 42.3837 4.52446C42.5595 4.6313 42.7295 4.75076 42.8987 4.87021C43.2 5.07796 43.4953 5.29758 43.7974 5.5172C43.8285 5.54243 43.873 5.57359 43.9228 5.61143C44.0608 5.71233 44.2433 5.85034 44.4571 6.0195C44.771 6.27696 45.0856 6.5411 45.3869 6.82379C45.5442 6.96179 45.7008 7.10054 45.8522 7.24448C46.0719 7.44555 46.2856 7.6533 46.4934 7.85363C46.7011 8.06063 46.9082 8.26838 47.1093 8.48206C47.3609 8.73952 47.6057 9.00366 47.8447 9.27373C47.9137 9.34941 47.9894 9.43103 48.0584 9.51264C48.1022 9.55642 48.1401 9.60687 48.1712 9.65732C48.2091 9.70778 48.2528 9.75823 48.2907 9.80201C48.6491 10.2168 48.9883 10.6441 49.3148 11.0834C49.5092 11.3601 49.7044 11.6361 49.8929 11.9188C50.2261 12.4026 50.54 12.8989 50.842 13.4079V13.4139C51.049 13.747 51.2375 14.0861 51.4134 14.4378C51.4765 14.5194 51.5136 14.6077 51.5581 14.7019C51.7466 15.0476 51.9225 15.412 52.0924 15.7763C52.3499 16.3164 52.5889 16.8692 52.8026 17.4227C52.9095 17.6994 53.0163 17.9821 53.1165 18.2648C53.1981 18.497 53.2738 18.7359 53.3554 18.9748C53.4118 19.1633 53.4749 19.3391 53.5254 19.5276C53.7139 20.1746 53.8898 20.8342 54.0278 21.5005C54.1154 21.89 54.191 22.2795 54.2541 22.669C54.292 22.8516 54.3231 23.0333 54.3424 23.2218C54.3484 23.2344 54.3484 23.253 54.3484 23.2596C54.3795 23.4481 54.4048 23.6366 54.4241 23.825C54.4367 23.8562 54.4426 23.8881 54.4426 23.9252C54.4612 24.0632 54.4738 24.1953 54.4931 24.3333C54.5116 24.4653 54.5183 24.6033 54.5242 24.7421C54.5302 24.7925 54.5369 24.8489 54.5428 24.8994C54.5487 24.9558 54.5554 25.0121 54.5613 25.0626C54.5613 25.0938 54.5673 25.1316 54.5673 25.1694C54.5732 25.2132 54.5799 25.2577 54.5799 25.3015C54.6304 25.9678 54.6556 26.6459 54.6556 27.3248L54.6593 27.3285Z"/>
</mask>
<path d="M54.6593 27.3285C54.6593 27.7181 54.6467 28.1017 54.6341 28.4845V28.5283C54.6215 28.811 54.6088 29.1003 54.5836 29.3704C54.5651 29.6279 54.5398 29.8794 54.5146 30.1242C54.4768 30.4826 54.4389 30.8402 54.3825 31.1986C54.3699 31.2928 54.3573 31.3937 54.3447 31.4939C54.2942 31.833 54.2319 32.1787 54.1621 32.5178C54.1116 32.7879 54.0552 33.0579 53.9922 33.3347C53.9358 33.6114 53.8668 33.8874 53.7977 34.1575C53.5655 35.0308 53.308 35.8915 53 36.7269C52.9243 36.9347 52.8427 37.1417 52.761 37.3554C52.6163 37.7197 52.4657 38.078 52.3024 38.4364C52.1644 38.7502 52.0197 39.0648 51.8691 39.3787C51.7058 39.7118 51.5359 40.0323 51.36 40.3529C51.2531 40.5539 51.1463 40.7483 51.0335 40.9309C50.9266 41.1193 50.8138 41.3144 50.7003 41.5029C50.5496 41.7478 50.399 41.9867 50.2416 42.2256C50.0405 42.5335 49.8268 42.8473 49.6131 43.1552C49.4558 43.3749 49.2925 43.5952 49.1293 43.8089C48.9786 44.01 48.8213 44.2044 48.6707 44.4054C48.2306 44.9456 47.772 45.4798 47.2822 46.0014C47.0744 46.221 46.8674 46.4414 46.6537 46.6551L46.578 46.7307C46.3642 46.9444 46.1446 47.1514 45.9242 47.3525C45.4529 47.7858 44.9691 48.2132 44.4786 48.6027C44.2337 48.8097 43.9821 49.0048 43.7306 49.1933C43.712 49.2059 43.6927 49.2185 43.6801 49.2311C43.4411 49.4137 43.1903 49.5828 42.9447 49.7527C42.6805 49.9412 42.4171 50.117 42.1529 50.2869C41.8828 50.4695 41.6126 50.6386 41.3358 50.7959C40.406 51.3487 39.4443 51.8517 38.4454 52.3036C38.2881 52.3726 38.1248 52.4357 37.9616 52.5047C37.4777 52.7117 36.9813 52.9068 36.4848 53.0826C36.139 53.2021 35.7939 53.3216 35.4414 53.4284C35.0207 53.5664 34.5865 53.6859 34.1532 53.7994C33.8266 53.881 33.4994 53.9626 33.1729 54.0316C32.9718 54.0754 32.7647 54.1192 32.5569 54.157C32.387 54.1889 32.2052 54.2201 32.0352 54.2512C31.2501 54.3833 30.4516 54.4961 29.6472 54.5525C29.4965 54.571 29.3392 54.5836 29.1886 54.5962C28.5726 54.64 27.9508 54.6593 27.3222 54.6593C26.9512 54.6593 26.5809 54.6534 26.2098 54.6341C25.9776 54.6281 25.7386 54.6155 25.4997 54.5962C25.2926 54.5836 25.0915 54.5651 24.8837 54.5458C24.7079 54.5332 24.5379 54.5206 24.362 54.4953C24.1862 54.4768 24.0103 54.4575 23.8344 54.4323H23.8285C23.6711 54.4137 23.5146 54.3944 23.3572 54.3692C23.1999 54.344 23.0433 54.3187 22.886 54.2876C22.7665 54.275 22.6411 54.2564 22.5217 54.2312C22.5157 54.2371 22.509 54.2371 22.5031 54.2312C22.3836 54.2126 22.2641 54.1934 22.1514 54.1681C22.1135 54.1622 22.0823 54.1496 22.0504 54.1429C22.0378 54.1429 22.0193 54.137 22 54.137C21.9814 54.131 21.9621 54.131 21.9495 54.1177L21.384 54.0049C21.1955 53.9611 21.007 53.9166 20.8186 53.8728C20.6553 53.835 20.492 53.7971 20.328 53.7534C20.2969 53.7474 20.265 53.7348 20.2279 53.7222C20.052 53.6784 19.882 53.628 19.7128 53.5775C19.4049 53.4892 19.1036 53.395 18.8016 53.2948C18.7326 53.2763 18.6635 53.2511 18.5945 53.2258C18.4817 53.1947 18.3682 53.1568 18.2487 53.1064C18.0981 53.0559 17.9533 53.0055 17.8086 52.9491C17.4821 52.8296 17.1549 52.6976 16.8283 52.5655C16.7653 52.5403 16.7089 52.515 16.6465 52.4839C16.3638 52.3711 16.087 52.245 15.8109 52.1129C15.503 51.9682 15.2076 51.8235 14.9063 51.6729C14.7683 51.6039 14.6295 51.5349 14.4982 51.4592C14.1717 51.2893 13.8511 51.1075 13.5364 50.9191C13.3917 50.8375 13.2537 50.7492 13.109 50.6676C13.04 50.6238 12.9643 50.5733 12.8893 50.5296C12.5376 50.3159 12.1918 50.0836 11.846 49.8447C11.7139 49.7564 11.5818 49.6622 11.4564 49.568C11.3057 49.4678 11.1551 49.3543 11.0037 49.2415C10.7143 49.0278 10.4256 48.8082 10.1488 48.5752C10.0108 48.4625 9.87868 48.349 9.74659 48.2421C9.62117 48.1353 9.49502 48.0284 9.37554 47.9216C9.25013 47.8147 9.12398 47.7079 9.0045 47.5951C8.87909 47.4823 8.75961 47.3755 8.64014 47.262C7.93663 46.6024 7.27024 45.9109 6.63575 45.1763C6.52889 45.0636 6.42871 44.9441 6.33447 44.8246C6.27139 44.749 6.20905 44.674 6.15191 44.5984C6.12075 44.5605 6.08883 44.5227 6.0636 44.4856C5.95674 44.3602 5.85656 44.2341 5.75564 44.102V44.096C5.74302 44.0901 5.73708 44.0775 5.73708 44.0708C5.52336 43.7941 5.30964 43.5054 5.1026 43.2228C4.89556 42.9275 4.68777 42.6255 4.48666 42.3176C4.28556 42.0163 4.09113 41.7084 3.9019 41.3938C3.71341 41.0792 3.53086 40.7654 3.35498 40.4449C3.17911 40.1243 3.00916 39.8038 2.84591 39.4707C2.68858 39.1442 2.53201 38.8111 2.38136 38.4779C2.25595 38.2079 2.1424 37.9311 2.0296 37.6551C1.86041 37.253 1.70309 36.8382 1.55838 36.4235C0.722788 34.0796 0.207038 31.5859 0.050457 28.9905C0.0192892 28.4378 0 27.885 0 27.3256C0 20.1256 2.78357 13.5786 7.34 8.69649C7.94925 8.03689 8.5971 7.41513 9.26943 6.81785C9.74734 6.4031 10.2371 5.99502 10.7395 5.61811V5.61217C11.4556 5.06535 12.2037 4.55043 12.9702 4.0919C13.0771 4.0036 13.1966 3.9346 13.316 3.8656C13.624 3.68308 13.932 3.51391 14.2021 3.35662C14.3965 3.24978 14.585 3.14293 14.755 3.06132C14.8678 2.99825 14.9872 2.94186 15.0941 2.89141C16.1998 2.33197 17.3374 1.85489 18.5062 1.45869L19.0153 1.28878C20.0587 0.955641 21.1265 0.685569 22.1951 0.484498C22.5469 0.415496 22.9053 0.35243 23.2571 0.301977C23.4893 0.270814 23.7157 0.238911 23.948 0.213684C24.2559 0.169908 24.5698 0.132069 24.8718 0.106842C25.2548 0.0756798 25.651 0.050453 26.0347 0.0311621C26.4681 0.00593553 26.8896 0 27.323 0C27.7 0 28.0643 0.00593525 28.4287 0.0252262C28.8057 0.0311618 29.17 0.0563887 29.5344 0.0942286C29.9114 0.119455 30.2757 0.157295 30.6401 0.201071H30.646C31.0045 0.244846 31.3688 0.295299 31.7265 0.358366C32.4679 0.477821 33.1966 0.628438 33.9194 0.804282C34.9939 1.06842 36.0373 1.39488 37.0488 1.78441C38.0922 2.17394 39.091 2.63247 40.0587 3.14145C40.3348 3.29874 40.6056 3.44343 40.8757 3.59404C40.9321 3.61927 40.9826 3.65711 41.0331 3.68234C41.0895 3.7135 41.1399 3.75134 41.203 3.7825C41.3729 3.88341 41.5488 3.98357 41.718 4.09041C41.8056 4.14087 41.888 4.19058 41.9755 4.26032C42.1135 4.336 42.2456 4.43023 42.3837 4.52446C42.5595 4.6313 42.7295 4.75076 42.8987 4.87021C43.2 5.07796 43.4953 5.29758 43.7974 5.5172C43.8285 5.54243 43.873 5.57359 43.9228 5.61143C44.0608 5.71233 44.2433 5.85034 44.4571 6.0195C44.771 6.27696 45.0856 6.5411 45.3869 6.82379C45.5442 6.96179 45.7008 7.10054 45.8522 7.24448C46.0719 7.44555 46.2856 7.6533 46.4934 7.85363C46.7011 8.06063 46.9082 8.26838 47.1093 8.48206C47.3609 8.73952 47.6057 9.00366 47.8447 9.27373C47.9137 9.34941 47.9894 9.43103 48.0584 9.51264C48.1022 9.55642 48.1401 9.60687 48.1712 9.65732C48.2091 9.70778 48.2528 9.75823 48.2907 9.80201C48.6491 10.2168 48.9883 10.6441 49.3148 11.0834C49.5092 11.3601 49.7044 11.6361 49.8929 11.9188C50.2261 12.4026 50.54 12.8989 50.842 13.4079V13.4139C51.049 13.747 51.2375 14.0861 51.4134 14.4378C51.4765 14.5194 51.5136 14.6077 51.5581 14.7019C51.7466 15.0476 51.9225 15.412 52.0924 15.7763C52.3499 16.3164 52.5889 16.8692 52.8026 17.4227C52.9095 17.6994 53.0163 17.9821 53.1165 18.2648C53.1981 18.497 53.2738 18.7359 53.3554 18.9748C53.4118 19.1633 53.4749 19.3391 53.5254 19.5276C53.7139 20.1746 53.8898 20.8342 54.0278 21.5005C54.1154 21.89 54.191 22.2795 54.2541 22.669C54.292 22.8516 54.3231 23.0333 54.3424 23.2218C54.3484 23.2344 54.3484 23.253 54.3484 23.2596C54.3795 23.4481 54.4048 23.6366 54.4241 23.825C54.4367 23.8562 54.4426 23.8881 54.4426 23.9252C54.4612 24.0632 54.4738 24.1953 54.4931 24.3333C54.5116 24.4653 54.5183 24.6033 54.5242 24.7421C54.5302 24.7925 54.5369 24.8489 54.5428 24.8994C54.5487 24.9558 54.5554 25.0121 54.5613 25.0626C54.5613 25.0938 54.5673 25.1316 54.5673 25.1694C54.5732 25.2132 54.5799 25.2577 54.5799 25.3015C54.6304 25.9678 54.6556 26.6459 54.6556 27.3248L54.6593 27.3285Z" stroke="#ACB1EE" stroke-width="6.4461" mask="url(#path-1-inside-1_220_6662)"/>
<path d="M36.483 53.0836C33.6171 54.1038 30.5389 54.6565 27.3242 54.6565C15.427 54.6565 5.29825 47.047 1.55664 36.4266C1.89652 36.486 2.23713 36.5965 2.53471 36.7583C3.62335 37.3281 4.38844 38.3483 5.17951 39.2921C5.97058 40.2359 6.88854 41.1796 8.0796 41.4771C9.71219 41.8934 11.7277 41.0943 12.9521 42.2421C13.5985 42.8461 13.8538 43.8915 14.6872 44.1979C15.6059 44.5466 16.6262 43.611 16.6856 42.625C16.7539 41.6471 16.1587 40.7374 15.4693 40.0318C14.7888 39.3173 13.9896 38.7052 13.4538 37.8809C12.9269 37.0477 12.7392 35.8828 13.3432 35.1089C13.8872 34.4115 14.9335 34.2505 15.7587 34.5651C16.5839 34.8797 17.2132 35.5682 17.6637 36.3339C18.4377 37.6264 18.7694 39.1311 19.4491 40.4659C20.1296 41.8095 21.337 43.0679 22.842 43.0931C24.1599 43.1273 25.7421 42.277 26.6519 43.2378C27.1535 43.7646 27.1283 44.5815 27.3064 45.2871C27.834 47.3616 30.0618 48.4248 32.0261 49.2662C33.8969 50.0571 35.9814 51.1708 36.483 53.0836Z" fill="#ACB1EE"/>
<path d="M54.031 21.5039C53.5783 21.5165 53.1071 21.5039 52.6047 21.4787C51.8003 21.4408 50.9959 21.3971 50.1915 21.3592C49.8649 21.3407 49.5377 21.328 49.2112 21.3088C48.3192 21.265 47.3389 21.2524 46.5908 21.6857C46.4461 21.7673 46.314 21.8615 46.1886 21.981C45.7738 22.3764 45.523 22.9485 45.0139 23.2059C44.5486 23.4322 44.0024 23.3313 43.4867 23.3439C41.9342 23.3818 40.571 24.4873 39.7978 25.8258C39.0876 27.0508 38.629 28.3514 38.3462 29.6899C37.6553 32.913 38.0004 36.3683 38.3277 39.6173C38.3403 39.7242 38.3529 39.831 38.3529 39.9378C38.4093 40.5158 38.416 41.1064 38.1703 41.628C37.8817 42.2438 37.1084 42.6838 36.5051 42.3692C36.3166 42.275 36.1719 42.1177 36.0524 41.9419C35.9396 41.7786 35.8513 41.5835 35.7638 41.4017C35.2859 40.3711 35.1857 39.2589 34.7456 38.2729C34.1237 36.878 32.9609 37.2675 31.7921 36.7459C30.9498 36.369 30.5291 35.4201 30.328 34.5215C30.2901 34.3457 30.2523 34.1699 30.2211 33.994C30.0831 33.2587 29.9695 32.5116 29.6178 31.8639C29.505 31.6628 29.3662 31.4617 29.1592 31.3608C28.9833 31.2725 28.7762 31.2599 28.5811 31.254C27.4249 31.2287 26.0988 31.3103 24.9678 31.5366C23.9875 31.7377 23.1453 32.5479 22.1405 32.5353C20.4567 32.5101 19.7339 30.3176 19.935 28.646C20.142 26.9751 20.7454 25.1528 19.8972 23.7016C18.5525 21.4022 14.5051 21.6723 13.5627 19.1838C12.6514 16.7583 15.668 14.7038 18.2193 14.252C20.7773 13.7935 23.9126 13.5234 25.0064 11.1736C25.5341 10.0362 25.3775 8.76744 24.9374 7.56102C24.7237 6.95781 24.435 6.36721 24.133 5.81445C23.2217 4.16805 22.116 2.47787 22.185 0.599229C22.185 0.56139 22.1909 0.52355 22.1976 0.486452C22.5494 0.41745 22.9078 0.354384 23.2596 0.30393C23.4918 0.272768 23.7182 0.240864 23.9504 0.215637C24.2584 0.171862 24.5723 0.134022 24.8743 0.108795C25.2573 0.0776329 25.6535 0.0524068 26.0372 0.0331159C26.4706 0.00788936 26.8921 0.00195312 27.3255 0.00195312C27.7024 0.00195312 28.0668 0.00788908 28.4312 0.02718C28.8082 0.0331157 29.1725 0.0583425 29.5369 0.0961824C29.9139 0.121409 30.2782 0.159249 30.6426 0.203024H30.6485C31.007 0.2468 31.3713 0.297253 31.729 0.360319C32.4704 0.479775 33.1991 0.630392 33.9219 0.806236C34.94 1.05776 35.9263 1.35899 36.8813 1.7233C36.9377 1.74184 36.9941 1.76707 37.0513 1.78636C38.0947 2.17589 39.0935 2.63442 40.0612 3.1434C40.3373 3.3007 40.6081 3.44538 40.8782 3.596C40.9346 3.62122 40.9851 3.65906 41.0356 3.68429C41.092 3.71545 41.1424 3.75329 41.2055 3.78445C41.3754 3.88536 41.5513 3.98553 41.7205 4.09237C41.8081 4.14282 41.8904 4.19253 41.978 4.26228C42.116 4.33796 42.2481 4.43218 42.3862 4.52641C42.562 4.63325 42.732 4.75271 42.9012 4.87217C43.2025 5.07991 43.4978 5.29953 43.7998 5.51915C43.831 5.54438 43.8755 5.57554 43.9253 5.61338C44.0633 5.71429 44.2458 5.85229 44.4596 6.02146C44.7735 6.27892 45.0881 6.54305 45.3894 6.82574C45.5467 6.96374 45.7033 7.10249 45.8547 7.24643C46.0743 7.4475 46.2881 7.65525 46.4959 7.85558C46.7036 8.06258 46.9107 8.27033 47.1118 8.48402C47.3633 8.74148 47.6082 9.00561 47.8472 9.27569C47.9162 9.35137 47.9919 9.43298 48.0609 9.5146C48.1047 9.55837 48.1425 9.60882 48.1737 9.65928C48.2116 9.70973 48.2553 9.76018 48.2932 9.80396C48.6516 10.2187 48.9907 10.6461 49.3173 11.0853C49.5117 11.3621 49.7069 11.6381 49.8954 11.9208C50.2286 12.4045 50.5425 12.9009 50.8445 13.4099V13.4158C51.0515 13.7489 51.24 14.088 51.4159 14.4397C51.479 14.5213 51.5161 14.6096 51.5606 14.7038C51.7491 15.0496 51.925 15.4139 52.0949 15.7782C52.3524 16.3183 52.5914 16.8711 52.8051 17.4246C52.912 17.7014 53.0188 17.984 53.119 18.2667C53.2006 18.499 53.2763 18.7379 53.3579 18.9768C53.4143 19.1652 53.4774 19.3411 53.5279 19.5295C53.5969 19.7685 53.6659 20.0133 53.729 20.2581C53.8418 20.667 53.9427 21.081 54.0303 21.5024L54.031 21.5039Z" fill="#ACB1EE"/>
<path d="M9.82425 13.7502C9.48511 15.7483 6.53754 16.1942 5.76502 18.0603C5.08007 19.7252 6.45665 21.6039 6.11677 23.369C5.74573 25.2981 3.62186 26.2337 1.99446 27.3333C1.28428 27.8111 0.631251 28.3698 0.0524214 28.9923C0.0212537 28.4395 0.00195312 27.8868 0.00195312 27.3273C0.00195312 20.1274 2.78553 13.5803 7.34196 8.69824C7.5119 9.31407 7.87626 9.92989 8.27179 10.4263C9.0636 11.4131 10.0372 12.506 9.82425 13.7502Z" fill="#ACB1EE"/>
<path d="M67.8749 26.6103C66.7763 25.2676 65.7872 24.0588 64.7983 22.8499C64.5601 22.5587 64.3187 22.27 64.0857 21.9741C63.6892 21.4702 63.6778 21.092 64.0406 20.7584C64.3707 20.4549 64.8374 20.5277 65.2062 20.968C65.931 21.8332 66.6452 22.7078 67.3617 23.5804C68.2163 24.6212 69.0611 25.6705 69.9254 26.7025C70.2866 27.1339 70.3343 27.5332 69.9647 27.9817C68.3907 29.8923 66.8246 31.8101 65.2498 33.7201C65.1271 33.869 64.9569 34.0909 64.816 34.0852C64.5184 34.0731 64.1575 34.0146 63.9475 33.8255C63.6399 33.5488 63.7586 33.1596 64.0061 32.8544C64.6796 32.0232 65.3611 31.1989 66.0386 30.371C66.614 29.6682 67.1881 28.9643 67.8741 28.1249H67.1491C61.797 28.1249 63.3045 28.1252 57.9524 28.1238C57.7203 28.1238 57.4351 28.1903 57.2681 28.0773C57.0232 27.9117 56.7098 27.6123 56.709 27.369C56.7082 27.1259 57.02 26.8243 57.2641 26.6579C57.4303 26.5446 57.716 26.6111 57.9482 26.6111C63.2808 26.6095 61.754 26.61 67.0866 26.61L67.8749 26.6103Z" fill="#ACB1EE"/>
</g>
<defs>
<clipPath id="clip0_220_6662">
<rect width="70.2201" height="54.6593" fill="white"/>
</clipPath>
</defs>
</svg>
