<svg width="920" height="334" viewBox="0 0 920 334" fill="none" xmlns="http://www.w3.org/2000/svg">
<path d="M118.638 166.638C118.638 228.846 68.2082 279.276 6 279.276C6 279.276 6 201.09 6 138.882C6 76.6739 6 54 6 54C68.2082 54 118.638 104.43 118.638 166.638Z" fill="white"/>
<circle cx="161.926" cy="166.638" r="2.51" fill="#E58924"/>
<circle cx="211.672" cy="166.638" r="6.45695" fill="#E58924"/>
<circle cx="265.722" cy="166.638" r="6.81567" fill="#E58924"/>
<circle cx="316.545" cy="166.638" r="3.22848" fill="#E58924"/>
<circle cx="436.243" cy="166.638" r="75.6898" fill="#E58924"/>
<circle cx="615.128" cy="166.638" r="62.4172" fill="#E58924"/>
<circle cx="745.944" cy="166.638" r="27.6214" fill="#E58924"/>
<circle cx="840.172" cy="166.638" r="25.8278" fill="#E58924"/>
<g clip-path="url(#clip0_220_7142)">
<path d="M421.592 64.5662C425.003 68.5206 428.486 72.4077 432.026 76.243C432.963 77.2627 434.221 76.9211 435.235 76.1965C439.086 73.4532 442.911 70.6841 446.716 67.8839C448.061 66.8954 448.351 65.4461 447.445 64.385C446.384 63.1428 445.178 63.1325 443.874 64.09C441.964 65.4927 438.802 68.0237 436.297 69.9181C438.006 44.7927 447.452 28.7194 456.389 18.9623C456.824 18.527 457.507 16.673 456.401 15.5664C455.294 14.4598 453.511 15.1989 452.823 15.8868C444.257 25.2655 433.683 42.0458 431.7 68.914C429.863 66.8384 427.663 64.3126 426.25 62.7443C425.883 62.3354 425.531 61.9058 425.132 61.5279C424.071 60.5238 422.881 60.4772 421.814 61.4037C420.758 62.3147 420.779 63.6242 421.592 64.5662Z" fill="#E58924"/>
</g>
<rect x="3.13024" y="3.13024" width="913.74" height="327.015" stroke="#E58924" stroke-width="5.73951"/>
<defs>
<clipPath id="clip0_220_7142">
<rect width="36" height="61.8816" fill="white" transform="matrix(-1 0 0 1 457 23)"/>
</clipPath>
</defs>
</svg>
