<svg width="920" height="334" viewBox="0 0 920 334" fill="none" xmlns="http://www.w3.org/2000/svg">
<path d="M118.638 166.638C118.638 228.846 68.2082 279.276 6 279.276C6 279.276 6 201.09 6 138.882C6 76.6739 6 54 6 54C68.2082 54 118.638 104.43 118.638 166.638Z" fill="white"/>
<circle cx="161.926" cy="166.638" r="2.51" fill="#EB591B"/>
<circle cx="211.672" cy="166.638" r="6.45695" fill="#EB591B"/>
<circle cx="265.722" cy="166.638" r="6.81567" fill="#EB591B"/>
<circle cx="316.545" cy="166.638" r="3.22848" fill="#EB591B"/>
<circle cx="436.243" cy="166.638" r="75.6898" fill="#EB591B"/>
<circle cx="615.128" cy="166.638" r="62.4172" fill="#EB591B"/>
<circle cx="745.944" cy="166.638" r="27.6214" fill="#EB591B"/>
<circle cx="840.172" cy="166.638" r="25.8278" fill="#EB591B"/>
<g clip-path="url(#clip0_220_7184)">
<path d="M304.592 136.566C308.003 140.521 311.486 144.408 315.026 148.243C315.963 149.263 317.221 148.921 318.235 148.196C322.086 145.453 325.911 142.684 329.716 139.884C331.061 138.895 331.351 137.446 330.445 136.385C329.384 135.143 328.178 135.132 326.874 136.09C324.964 137.493 321.802 140.024 319.297 141.918C321.006 116.793 330.452 100.719 339.389 90.9623C339.824 90.527 340.507 88.673 339.401 87.5664C338.294 86.4598 336.511 87.1989 335.823 87.8868C327.257 97.2655 316.683 114.046 314.7 140.914C312.863 138.838 310.663 136.313 309.25 134.744C308.883 134.335 308.531 133.906 308.132 133.528C307.071 132.524 305.881 132.477 304.814 133.404C303.758 134.315 303.779 135.624 304.592 136.566Z" fill="#EB591B"/>
</g>
<rect x="3.13024" y="3.13024" width="913.74" height="327.015" stroke="#EB591B" stroke-width="5.73951"/>
<defs>
<clipPath id="clip0_220_7184">
<rect width="36" height="61.8816" fill="white" transform="matrix(-1 0 0 1 340 87)"/>
</clipPath>
</defs>
</svg>
