<svg width="130" height="55" viewBox="0 0 130 55" fill="none" xmlns="http://www.w3.org/2000/svg">
<circle cx="13.6759" cy="27.5001" r="12.9611" fill="#EB591B"/>
<g clip-path="url(#clip0_220_6750)">
<circle cx="43.6974" cy="27.5006" r="12.9611" fill="#EB591B"/>
</g>
<g clip-path="url(#clip1_220_6750)">
<path d="M66.0198 25.9014C65.3986 25.8395 64.9034 26.111 64.4182 26.4436C62.9725 27.4343 61.4589 27.4013 60.0563 26.3738C59.7541 26.1524 59.579 25.904 59.814 25.5509C60.0157 25.2479 60.3324 25.2335 60.7309 25.4899C61.9375 26.2665 62.7145 26.2548 63.9187 25.442C65.3287 24.4902 66.9417 24.5481 68.2819 25.5924C68.573 25.8194 68.6931 26.0848 68.4556 26.3924C68.2227 26.6941 67.9213 26.6939 67.612 26.4759C67.1375 26.1413 66.6477 25.8427 66.0198 25.9014V25.9014Z" fill="#EB591B"/>
<path d="M62.1527 30.2314C61.4127 30.2581 60.6507 29.9136 59.9646 29.3828C59.6892 29.1697 59.6026 28.8988 59.8275 28.6102C60.0472 28.3281 60.3439 28.2937 60.6329 28.5042C61.1723 28.897 61.7539 29.2307 62.4428 29.0924C62.9335 28.994 63.4383 28.809 63.8538 28.5427C65.32 27.6029 66.7805 27.6 68.1887 28.604C68.5792 28.8822 68.6755 29.1718 68.4722 29.4549C68.2629 29.7464 67.9458 29.7671 67.5513 29.5149C66.3377 28.739 65.5567 28.7423 64.3653 29.5631C63.7477 29.9886 63.0754 30.2246 62.1527 30.2314Z" fill="#EB591B"/>
</g>
<path d="M102.002 54.8281C86.8192 54.6646 74.5919 42.3634 74.7317 27.4698C74.8746 12.2321 87.1082 0.0611632 102.235 0.17115C117.671 0.283367 129.514 12.7733 129.389 27.6077C129.26 42.8334 116.911 54.9887 102.002 54.8281ZM78.843 17.2343C78.6213 17.8771 78.4013 18.5204 78.1775 19.1625C76.6635 23.5043 76.2657 27.9665 77.2704 32.435C79.4587 42.1668 85.3064 48.8262 94.8803 51.6849C104.428 54.5356 112.895 52.1088 120.094 45.2552C120.853 44.5323 121.736 43.928 121.032 42.5158C120.408 41.2636 120.221 39.7938 119.838 38.4211C119.815 38.3404 119.773 38.2581 119.72 38.1941C119.088 37.4439 119.169 36.6524 119.648 35.8897C120.036 35.2701 119.943 34.755 119.599 34.1435C119.141 33.3317 118.529 32.4676 118.481 31.5987C118.415 30.3972 118.402 29.4616 116.898 29.4185C116.772 29.4149 116.653 29.2306 116.526 29.2241C115.967 29.1951 115.324 29.019 114.861 29.2277C113.456 29.8614 111.695 29.6084 110.684 28.4667C110.457 28.2098 110.232 27.9501 109.997 27.7002C109.19 26.8426 109.197 25.8895 109.561 24.8337C109.677 24.4955 109.498 24.064 109.502 23.6758C109.506 23.3594 109.468 22.9305 109.648 22.7503C110.108 22.2896 110.72 21.9826 111.191 21.5303C111.496 21.2371 111.808 20.814 111.855 20.4181C111.943 19.6585 112.354 19.2299 113.005 19.1058C114.455 18.8292 115.919 18.6002 117.388 18.4658C117.694 18.4378 118.149 18.8378 118.351 19.1571C118.647 19.6238 120.868 20.6983 121.399 20.4952C121.476 20.466 121.562 20.4171 121.605 20.3517C122.153 19.5058 122.762 19.8795 123.463 20.1618C124.122 20.4274 124.862 20.5161 125.576 20.6082C125.762 20.6323 126.09 20.4252 126.169 20.2441C126.418 19.6743 125.588 18.5509 125.008 18.3198C124.515 18.1232 124.112 17.6808 123.699 17.3134C123.507 17.1425 123.386 16.8912 123.233 16.6763C123.022 16.8812 122.806 17.0811 122.602 17.2925C122.457 17.4426 122.328 17.6084 122.192 17.7673C122.034 17.6099 121.833 17.4766 121.728 17.2893C121.606 17.0713 121.642 16.7294 121.48 16.5755C120.931 16.0509 120.388 15.4523 119.722 15.1398C119.193 14.8919 118.912 15.3819 119.241 15.8714C119.482 16.2309 119.968 16.4231 120.226 16.7766C120.407 17.025 120.485 17.4396 120.421 17.7398C120.387 17.8987 119.951 17.9716 119.697 18.0835C120.359 17.5902 120.221 17.2668 119.687 16.885C119.247 16.57 118.845 16.2014 118.41 15.8793C118.266 15.7733 118.034 15.6391 117.904 15.6868C116.964 16.0327 115.918 16.2252 115.445 17.3013C115.031 18.2428 114.22 18.302 113.345 18.1914C112.628 18.1009 112.416 17.6412 112.407 16.9873C112.397 16.299 112.772 15.9912 113.396 15.942C113.734 15.9152 114.096 16.0423 114.415 15.966C114.652 15.9092 115.04 15.519 115.017 15.4778C114.393 14.4049 115.072 14.1261 115.914 13.8965C116.088 13.8491 116.271 13.6827 116.366 13.5219C116.792 12.799 117.412 12.5506 118.234 12.555C118.501 12.5564 118.771 12.2199 119.039 12.0379C118.788 11.8251 118.536 11.6146 118.288 11.3992C117.875 11.0416 117.444 10.7002 117.086 10.2937C117.048 10.2501 117.398 9.73312 117.654 9.58487C118.967 8.82594 119.013 8.65316 117.793 7.70755C111.683 2.97195 104.811 1.28938 97.2065 2.67527C93.8979 3.27823 90.8671 4.59326 88.0719 6.45274C87.8749 6.58383 87.7413 6.81067 87.5783 6.99289C87.8019 7.08744 88.0226 7.18987 88.2497 7.27498C88.8619 7.50405 89.4714 7.74289 90.093 7.94416C90.4931 8.07371 90.9088 8.17701 91.325 8.22299C91.4758 8.23964 91.6488 8.05518 91.8117 7.96252C91.708 7.81342 91.637 7.61043 91.495 7.52481C90.9314 7.18455 90.3458 6.88085 89.7326 6.54385C90.4011 5.90847 91.1794 5.37758 91.8994 5.98757C92.7158 6.67923 93.4309 7.0641 94.4871 6.54505C94.0813 6.84155 93.6569 6.94519 93.2699 7.12776C93.0766 7.21887 92.7936 7.50559 92.8286 7.61335C92.899 7.8292 93.1703 8.14355 93.3409 8.13291C93.898 8.09808 94.45 7.94811 94.9982 7.81822C95.539 7.69022 96.0302 7.52052 95.6844 6.77463C95.6418 6.68284 95.8169 6.37089 95.9262 6.35082C96.2234 6.29591 96.5396 6.34275 96.8482 6.34944C96.8138 6.52446 96.7222 6.71183 96.757 6.87175C96.8252 7.18421 96.964 7.48105 97.0735 7.78442C97.3282 7.60786 97.61 7.45943 97.8302 7.24718C98.0822 7.00405 98.2234 6.59773 98.5099 6.44811C99.4808 5.9409 101.557 6.31564 102.269 7.1408C102.568 7.4874 102.719 7.98157 102.841 8.43473C102.858 8.49478 102.298 8.70652 102.008 8.85409C101.933 8.89235 101.861 8.94468 101.802 9.00508C101.158 9.66998 100.529 9.32766 99.775 8.99427C100.047 8.81222 100.243 8.70618 100.409 8.56445C100.613 8.3896 100.791 8.18524 100.981 7.99358C100.716 7.80278 100.447 7.4488 100.186 7.45429C99.6073 7.4663 98.9532 7.52326 98.4716 7.80449C97.2419 8.52241 96.9347 8.70189 95.7624 8.84207C95.5388 8.86884 95.3093 8.93885 95.108 9.03957C94.6227 9.28236 94.1146 9.50594 93.688 9.83195C93.3607 10.0821 92.8624 10.5754 92.9364 10.7863C93.0905 11.2252 93.5697 11.5526 93.9231 11.9183C94.232 12.2378 94.5576 12.5413 94.864 12.8634C94.9934 12.9994 95.0914 13.2884 95.205 13.2891C95.3919 13.2901 95.608 13.1441 95.7612 13.0046C96.0501 12.7415 96.2528 12.2997 96.5811 12.1811C97.3066 11.9195 97.4621 11.4505 97.5474 10.7544C97.5922 10.3886 98.0724 9.79214 98.3415 9.79987C98.8216 9.81359 99.5398 10.0936 99.7092 10.4663C99.9996 11.1053 100.264 11.1175 100.816 10.9323C101.003 10.8694 101.367 11.001 101.498 11.165C101.784 11.5234 102.028 11.9401 102.182 12.3713C102.279 12.6437 102.217 13.2498 102.167 13.2565C101.331 13.3668 100.485 13.4121 99.6404 13.4583C99.3198 13.4758 98.9973 13.4593 98.6757 13.4583V14.3671C98.4926 14.4418 98.2025 14.4986 97.9893 14.658C97.1935 15.2529 96.4006 15.8558 95.6502 16.5061C95.1343 16.9533 94.6858 17.4792 94.2159 17.9782C93.7 18.526 93.1518 19.0509 92.6966 19.6462C92.3057 20.1573 92.0232 20.7517 91.6991 21.3129C91.6198 21.4506 91.5661 21.6029 91.5007 21.7486C91.344 21.6515 91.1612 21.5799 91.0365 21.4518C90.8092 21.2186 90.6467 20.7695 90.404 20.729C88.9687 20.4897 87.5362 20.4838 86.3228 21.4749C85.4362 22.199 85.0028 23.8365 85.5841 24.4736C86.4572 25.4303 87.2889 24.7766 88.0899 24.2625C88.1139 24.2471 88.1361 24.2242 88.1623 24.217C88.3427 24.1681 88.524 24.1225 88.705 24.0758C88.7033 24.264 88.6685 24.4593 88.7073 24.6386C88.7701 24.9298 88.8278 25.4207 88.9812 25.4597C89.6849 25.6388 89.7925 26.1065 89.9142 26.7179C90.0062 27.18 90.2767 27.8157 90.6396 27.9701C91.3399 28.2682 92.1472 28.4705 92.7924 27.6132C93.4248 26.773 94.1467 26.8104 95.0227 27.348C95.4834 27.6307 96.1337 27.8262 96.6487 27.745C97.3648 27.6323 97.724 27.8495 98.1663 28.3631C98.5149 28.7678 99.1348 28.9267 99.5912 29.2546C100.016 29.56 100.69 29.9176 100.724 30.2989C100.851 31.7452 101.899 32.0647 102.931 32.1036C104.143 32.1495 105.18 32.3536 105.891 33.3741C106.085 33.6522 106.262 34.2425 106.12 34.4044C105.202 35.4563 105.105 36.7289 104.958 38.0088C104.85 38.9455 104.304 39.4175 103.347 39.4321C102.354 39.4472 102.003 39.9101 102.139 40.9201C102.187 41.2789 102.327 41.7656 102.156 41.9908C101.115 43.3645 100.486 45.1924 98.4337 45.5294C98.2552 45.5587 98.0578 45.9192 98.005 46.1562C97.9365 46.4626 97.9931 46.8003 98.018 47.1229C98.034 47.3303 98.0319 47.6745 98.1371 47.718C98.8195 48 98.8652 48.4585 98.7064 49.0955C98.6534 49.3082 98.8873 49.5997 99.0083 49.8463C99.1127 50.0591 99.2431 50.2591 99.362 50.4649C99.0941 50.5198 98.8164 50.6461 98.5609 50.6111C98.2651 50.5707 97.9389 50.4481 97.7123 50.2581C96.4708 49.2173 95.5182 48.0363 95.7182 46.2459C95.7642 45.8346 95.4823 45.3931 95.385 44.958C95.2664 44.4283 95.1621 43.8933 95.0938 43.3554C95.0586 43.0784 95.1533 42.7857 95.1233 42.5072C95.009 41.4448 94.7169 40.3768 94.7744 39.3264C94.8482 37.9763 94.2216 37.2545 93.1259 36.7251C92.8545 36.594 92.5693 36.4147 92.3922 36.1805C91.9469 35.592 91.5906 34.9358 91.1429 34.3495C90.1701 33.0757 90.3079 31.6994 91.4204 30.5599C91.7101 30.2632 91.7753 29.6391 91.7425 29.1798C91.7249 28.9312 91.2958 28.5316 91.0299 28.5127C89.9929 28.4389 89.3938 27.7397 88.6237 27.1977C87.6238 26.494 86.692 25.5288 85.2246 25.6548C83.7262 25.7834 82.993 25.0043 82.8465 23.5048C82.8125 23.1573 82.5786 22.8272 82.4272 22.4936C82.1126 21.8004 81.8064 21.1026 81.4643 20.4231C81.3644 20.2246 81.1545 20.0815 80.9951 19.913C80.8913 20.1468 80.652 20.4222 80.7085 20.6072C80.8974 21.2256 81.2053 21.8068 81.4389 22.4133C81.5117 22.6024 81.4932 22.8268 81.5165 23.0351C81.2948 22.9665 80.9378 22.9588 80.8744 22.8186C80.576 22.158 80.3364 21.4675 80.1193 20.7742C79.994 20.374 80.0915 19.7314 79.846 19.5725C78.9412 18.9867 78.8756 18.1727 78.8434 17.2347L78.843 17.2343ZM93.858 16.2333C94.077 16.3119 94.3571 16.4632 94.6463 16.4838C94.7289 16.4897 94.9626 15.978 94.917 15.937C94.2348 15.3232 93.5699 14.6573 92.7845 14.206C92.4279 14.0011 91.8119 14.2151 91.3239 14.299C91.2326 14.3146 91.1626 14.6099 91.1315 14.785C91.0782 15.0839 91.0419 15.3896 91.0389 15.6928C91.0363 15.9512 91.0903 16.2103 91.1192 16.4691C91.3541 16.3632 91.6404 16.3095 91.8126 16.14C92.1158 15.8416 92.3496 15.4723 92.6124 15.1328L92.9 15.2695C92.8092 15.6441 92.7116 16.0171 92.6304 16.3936C92.593 16.5669 92.5083 16.8333 92.5858 16.904C92.7038 17.012 93.0102 17.0787 93.1188 17.0001C93.3916 16.8028 93.5982 16.5142 93.8582 16.233L93.858 16.2333Z" fill="#EB591B"/>
<defs>
<clipPath id="clip0_220_6750">
<rect width="22.8134" height="25.9222" fill="white" transform="translate(30.7363 14.5391)"/>
</clipPath>
<clipPath id="clip1_220_6750">
<rect width="8.88214" height="5.46593" fill="white" transform="translate(59.6992 24.7671)"/>
</clipPath>
</defs>
</svg>
