<svg width="920" height="334" viewBox="0 0 920 334" fill="none" xmlns="http://www.w3.org/2000/svg">
<path d="M118.638 166.638C118.638 228.846 68.2082 279.276 6 279.276C6 279.276 6 201.09 6 138.882C6 76.6739 6 54 6 54C68.2082 54 118.638 104.43 118.638 166.638Z" fill="white"/>
<circle cx="161.926" cy="166.638" r="2.51" fill="#ACB1EE"/>
<circle cx="211.672" cy="166.638" r="6.45695" fill="#ACB1EE"/>
<circle cx="265.722" cy="166.638" r="6.81567" fill="#ACB1EE"/>
<circle cx="316.545" cy="166.638" r="3.22848" fill="#ACB1EE"/>
<circle cx="436.243" cy="166.638" r="75.6898" fill="#ACB1EE"/>
<circle cx="615.128" cy="166.638" r="62.4172" fill="#ACB1EE"/>
<circle cx="745.944" cy="166.638" r="27.6214" fill="#ACB1EE"/>
<circle cx="840.172" cy="166.638" r="25.8278" fill="#ACB1EE"/>
<g clip-path="url(#clip0_220_7116)">
<path d="M150.592 137.566C154.003 141.521 157.486 145.408 161.026 149.243C161.963 150.263 163.221 149.921 164.235 149.196C168.086 146.453 171.911 143.684 175.716 140.884C177.061 139.895 177.351 138.446 176.445 137.385C175.384 136.143 174.178 136.132 172.874 137.09C170.964 138.493 167.802 141.024 165.297 142.918C167.006 117.793 176.452 101.719 185.389 91.9623C185.824 91.527 186.507 89.673 185.401 88.5664C184.294 87.4598 182.511 88.1989 181.823 88.8868C173.257 98.2655 162.683 115.046 160.7 141.914C158.863 139.838 156.663 137.313 155.25 135.744C154.883 135.335 154.531 134.906 154.132 134.528C153.071 133.524 151.881 133.477 150.814 134.404C149.758 135.315 149.779 136.624 150.592 137.566Z" fill="#ACB1EE"/>
</g>
<rect x="3.13024" y="3.13024" width="913.74" height="327.015" stroke="#ACB1EE" stroke-width="5.73951"/>
<defs>
<clipPath id="clip0_220_7116">
<rect width="36" height="61.8816" fill="white" transform="matrix(-1 0 0 1 186 88)"/>
</clipPath>
</defs>
</svg>
