<svg width="141" height="55" viewBox="0 0 141 55" fill="none" xmlns="http://www.w3.org/2000/svg">
<g opacity="0.9">
<circle cx="10.2648" cy="27.5002" r="10.0266" fill="#ACB1EE"/>
<circle cx="36.468" cy="27.5002" r="10.0266" fill="#ACB1EE"/>
<g clip-path="url(#clip0_220_6675)">
<path d="M72.6946 27.4997C72.6946 27.6434 72.6916 27.7837 72.6853 27.9241V27.9396C72.6824 28.0427 72.6761 28.1485 72.6666 28.2483C72.6603 28.3419 72.6511 28.4355 72.6415 28.5261C72.629 28.6572 72.6135 28.788 72.5947 28.9192C72.5885 28.9534 72.5855 28.991 72.5792 29.0282C72.5605 29.1531 72.5387 29.278 72.5137 29.4025C72.4949 29.5024 72.4731 29.6055 72.4514 29.7021C72.4297 29.8052 72.4046 29.9047 72.3796 30.0045C72.2952 30.3258 72.1987 30.6408 72.0863 30.9466C72.0583 31.0247 72.0303 31.0994 71.999 31.1775C71.9459 31.3116 71.8899 31.4428 71.8306 31.5736C71.7809 31.6889 71.7278 31.8046 71.6715 31.9199C71.6122 32.0415 71.5499 32.1601 71.4843 32.2787C71.4468 32.3506 71.4062 32.4224 71.3657 32.4909C71.3252 32.5595 71.2846 32.6313 71.2441 32.6998C71.1881 32.7904 71.1318 32.8778 71.0758 32.9651C71.001 33.0774 70.9229 33.1928 70.8448 33.3051C70.7855 33.3862 70.7261 33.4672 70.6668 33.5453C70.6108 33.6201 70.5545 33.6919 70.4985 33.7638C70.3364 33.9635 70.1676 34.1598 69.9901 34.3503C69.912 34.4313 69.8372 34.5124 69.7591 34.5905L69.7311 34.6185C69.653 34.6966 69.5719 34.7714 69.4909 34.8462C69.3192 35.0053 69.1416 35.1612 68.9603 35.3049C68.8697 35.3796 68.7795 35.4515 68.6859 35.52C68.6796 35.5263 68.6734 35.5292 68.6671 35.5355C68.5798 35.6011 68.4891 35.6633 68.3989 35.7256C68.3024 35.7941 68.2055 35.8597 68.1089 35.9219C68.0091 35.9875 67.9093 36.0498 67.8094 36.1091C67.4664 36.3117 67.1139 36.4959 66.7488 36.6613C66.6895 36.6864 66.6301 36.7111 66.5708 36.7361C66.2153 36.889 65.8469 37.0202 65.4726 37.1263C65.4229 37.1417 65.3698 37.1576 65.3168 37.1701C65.27 37.1856 65.2232 37.1981 65.1731 37.2106C65.0545 37.242 64.9329 37.27 64.8142 37.295C64.7457 37.3105 64.6739 37.3263 64.6054 37.3388C64.5368 37.3514 64.465 37.3639 64.3965 37.3761C64.1095 37.4262 63.8162 37.4667 63.5197 37.4884C63.4106 37.4976 63.2949 37.5072 63.1829 37.5135C63.1516 37.5135 63.1173 37.5164 63.0831 37.5164C62.9457 37.5227 62.8086 37.5256 62.6683 37.5256C62.5308 37.5256 62.3967 37.5227 62.2597 37.5164C62.0943 37.5102 61.9322 37.5009 61.773 37.4851C61.6452 37.4759 61.5173 37.4601 61.3891 37.4446H61.3862C61.2709 37.4291 61.1552 37.4133 61.0399 37.3915C60.9931 37.3853 60.9463 37.379 60.8995 37.3698C60.8435 37.3606 60.7871 37.351 60.7341 37.3385C60.7216 37.3355 60.709 37.3355 60.6965 37.3293C60.5595 37.3013 60.4187 37.2729 60.2817 37.2386C60.1476 37.2073 60.0102 37.1701 59.8761 37.1296C59.7637 37.0983 59.6513 37.064 59.5423 37.0264C59.4738 37.0047 59.4082 36.9826 59.3397 36.9579C59.2837 36.9391 59.2306 36.9203 59.1776 36.8986C58.9281 36.808 58.6846 36.7052 58.4444 36.5928C58.3321 36.5398 58.223 36.4867 58.1136 36.4307C57.9983 36.3747 57.8796 36.3121 57.7673 36.2465C57.6612 36.1872 57.5584 36.1249 57.4523 36.0623C57.3992 36.028 57.3432 35.9967 57.2902 35.9595C57.2371 35.9282 57.1841 35.891 57.131 35.8564C57.0375 35.7941 56.9406 35.7285 56.847 35.66C56.7346 35.5819 56.6256 35.5008 56.5162 35.4135C56.4163 35.3354 56.3165 35.2544 56.22 35.1733C56.1293 35.0952 56.0358 35.0175 55.9484 34.9361C55.8578 34.855 55.7676 34.774 55.6832 34.6896C55.674 34.6804 55.6644 34.6741 55.6581 34.6646C55.5771 34.5864 55.499 34.5054 55.4209 34.4243C55.3428 34.3433 55.265 34.2589 55.1903 34.1749C55.1155 34.0906 55.0407 34.0066 54.9688 33.9193C54.897 33.8319 54.8252 33.7446 54.7566 33.654V33.6511C54.1016 32.8089 53.5773 31.8635 53.2156 30.8371C52.8442 29.7953 52.6445 28.669 52.6445 27.499C52.6445 24.5008 53.9612 21.8118 56.045 19.9742C56.2196 19.8213 56.4005 19.6717 56.5847 19.5343V19.5313C56.8466 19.3317 57.1211 19.1416 57.4022 18.9728C57.4427 18.9415 57.4866 18.9165 57.53 18.8918C57.6424 18.8233 57.7548 18.7606 57.8546 18.7046C57.9264 18.6641 57.995 18.6265 58.0572 18.5956C58.0977 18.5738 58.1416 18.5517 58.1821 18.5333C58.5877 18.3274 59.0059 18.1527 59.4332 18.0091C59.4955 17.9873 59.5581 17.9652 59.6204 17.9468C60.1288 17.7847 60.6497 17.6628 61.1769 17.585C61.2613 17.5725 61.3453 17.56 61.4297 17.5508C61.542 17.5353 61.6573 17.5228 61.7697 17.5132C61.9101 17.5007 62.0537 17.4914 62.1941 17.4852C62.3533 17.476 62.5091 17.4727 62.6683 17.4727C62.8057 17.4727 62.9398 17.4756 63.0739 17.4819C63.2113 17.4848 63.3454 17.4944 63.4795 17.5069C63.6169 17.5161 63.751 17.532 63.8851 17.5474H63.8881C64.0192 17.5629 64.1533 17.5817 64.2841 17.6038C64.5556 17.6477 64.8238 17.7037 65.0891 17.7692C65.4822 17.8658 65.8661 17.9844 66.2371 18.1281C66.6176 18.2717 66.9857 18.4401 67.3415 18.6273C67.4414 18.6833 67.5412 18.7363 67.6411 18.7927C67.6599 18.8019 67.6786 18.8144 67.6971 18.824C67.7188 18.8365 67.7376 18.849 67.7593 18.8616C67.8216 18.8991 67.8872 18.9364 67.9494 18.9739C67.9807 18.9927 68.0117 19.0115 68.043 19.0362C68.0931 19.0642 68.1428 19.0985 68.1929 19.1327C68.2585 19.1732 68.3208 19.2171 68.383 19.2606C68.4921 19.3353 68.6015 19.4164 68.7106 19.4978C68.7231 19.507 68.7386 19.5196 68.7573 19.5321C68.8071 19.5697 68.876 19.6194 68.9537 19.682C69.1283 19.8253 69.3 19.972 69.4654 20.1311C69.5465 20.2059 69.6246 20.2807 69.6994 20.3558C69.7775 20.4306 69.8523 20.5087 69.9271 20.5868C70.0177 20.6804 70.1079 20.7773 70.1953 20.8771C70.2203 20.9051 70.2483 20.9331 70.2734 20.9645C70.3047 20.9987 70.3327 21.033 70.3607 21.0706C70.4918 21.2234 70.6164 21.3793 70.735 21.5418C70.8068 21.6416 70.8787 21.7444 70.9472 21.8475C71.0688 22.0255 71.1844 22.2064 71.2964 22.3935V22.3965C71.3712 22.518 71.4398 22.6429 71.5053 22.7708C71.5271 22.8021 71.5429 22.833 71.5584 22.8677C71.6269 22.9955 71.6925 23.1296 71.7547 23.2637C71.8483 23.4601 71.9356 23.6631 72.0137 23.8657C72.0543 23.9688 72.0918 24.0716 72.129 24.1744C72.1604 24.2617 72.1884 24.349 72.2164 24.4364C72.2381 24.5049 72.2598 24.5705 72.2786 24.639C72.391 25.0133 72.4812 25.4001 72.5468 25.7903C72.5594 25.8588 72.5719 25.9244 72.5781 25.9929C72.5811 25.9992 72.5811 26.0054 72.5811 26.0084C72.5936 26.0769 72.6028 26.1458 72.6091 26.2143C72.612 26.2268 72.6153 26.2394 72.6153 26.2519C72.6216 26.302 72.6279 26.3517 72.6341 26.4018C72.6404 26.4519 72.6437 26.5017 72.6467 26.5514C72.6529 26.5919 72.6559 26.6295 72.6592 26.67C72.6621 26.698 72.6621 26.7294 72.6655 26.7574C72.6842 27.0009 72.6935 27.2503 72.6935 27.4997H72.6946Z" fill="#ACB1EE"/>
</g>
<g clip-path="url(#clip1_220_6675)">
<path d="M77.344 25.9018C76.7228 25.84 76.2276 26.1115 75.7424 26.4441C74.2967 27.4348 72.7832 27.4018 71.3805 26.3743C71.0783 26.1529 70.9032 25.9045 71.1382 25.5514C71.3399 25.2484 71.6566 25.234 72.0551 25.4904C73.2617 26.267 74.0387 26.2553 75.2429 25.4425C76.6529 24.4906 78.2659 24.5486 79.6061 25.5929C79.8973 25.8199 80.0173 26.0853 79.7798 26.3929C79.5469 26.6946 79.2456 26.6944 78.9363 26.4764C78.4617 26.1418 77.9719 25.8432 77.344 25.9019V25.9018Z" fill="#ACB1EE"/>
<path d="M73.4769 30.2314C72.737 30.2581 71.9749 29.9136 71.2888 29.3828C71.0134 29.1697 70.9268 28.8988 71.1517 28.6102C71.3715 28.3281 71.6682 28.2937 71.9571 28.5042C72.4965 28.897 73.0782 29.2307 73.767 29.0924C74.2577 28.994 74.7625 28.809 75.178 28.5427C76.6442 27.6029 78.1047 27.6 79.513 28.604C79.9034 28.8822 79.9998 29.1718 79.7964 29.4549C79.5871 29.7464 79.27 29.7671 78.8755 29.5149C77.6619 28.739 76.881 28.7423 75.6895 29.5631C75.0719 29.9886 74.3996 30.2246 73.4769 30.2314Z" fill="#ACB1EE"/>
</g>
<mask id="path-6-inside-1_220_6675" fill="white">
<path d="M140.716 27.4989C140.716 27.8885 140.703 28.2721 140.691 28.6549V28.6987C140.678 28.9814 140.665 29.2707 140.64 29.5408C140.622 29.7983 140.596 30.0498 140.571 30.2946C140.533 30.653 140.496 31.0106 140.439 31.369C140.427 31.4632 140.414 31.5641 140.401 31.6643C140.351 32.0034 140.289 32.3491 140.219 32.6882C140.168 32.9583 140.112 33.2283 140.049 33.5051C139.992 33.7818 139.923 34.0579 139.854 34.3279C139.622 35.2012 139.365 36.0619 139.057 36.8973C138.981 37.1051 138.899 37.3121 138.818 37.5258C138.673 37.8901 138.522 38.2484 138.359 38.6068C138.221 38.9206 138.076 39.2352 137.926 39.5491C137.762 39.8822 137.592 40.2028 137.417 40.5233C137.31 40.7243 137.203 40.9187 137.09 41.1013C136.983 41.2897 136.87 41.4849 136.757 41.6733C136.606 41.9182 136.456 42.1571 136.298 42.396C136.097 42.7039 135.883 43.0177 135.67 43.3257C135.512 43.5453 135.349 43.7656 135.186 43.9793C135.035 44.1804 134.878 44.3748 134.727 44.5759C134.287 45.116 133.829 45.6502 133.339 46.1718C133.131 46.3914 132.924 46.6118 132.71 46.8255L132.635 46.9011C132.421 47.1148 132.201 47.3218 131.981 47.5229C131.51 47.9562 131.026 48.3836 130.535 48.7731C130.29 48.9801 130.039 49.1753 129.787 49.3637C129.769 49.3763 129.749 49.3889 129.737 49.4016C129.498 49.5841 129.247 49.7532 129.001 49.9231C128.737 50.1116 128.474 50.2874 128.21 50.4574C127.939 50.6399 127.669 50.809 127.392 50.9663C126.463 51.5191 125.501 52.0221 124.502 52.474C124.345 52.543 124.181 52.6061 124.018 52.6751C123.534 52.8821 123.038 53.0772 122.541 53.253C122.196 53.3725 121.851 53.492 121.498 53.5988C121.077 53.7368 120.643 53.8563 120.21 53.9698C119.883 54.0514 119.556 54.133 119.23 54.202C119.028 54.2458 118.821 54.2896 118.614 54.3274C118.444 54.3593 118.262 54.3905 118.092 54.4216C117.307 54.5537 116.508 54.6665 115.704 54.7229C115.553 54.7414 115.396 54.754 115.245 54.7666C114.629 54.8104 114.007 54.8297 113.379 54.8297C113.008 54.8297 112.638 54.8238 112.266 54.8045C112.034 54.7986 111.795 54.7859 111.556 54.7666C111.349 54.754 111.148 54.7355 110.94 54.7162C110.764 54.7036 110.595 54.691 110.419 54.6657C110.243 54.6472 110.067 54.6279 109.891 54.6027H109.885C109.728 54.5841 109.571 54.5648 109.414 54.5396C109.257 54.5144 109.1 54.4892 108.943 54.458C108.823 54.4454 108.698 54.4268 108.578 54.4016C108.572 54.4075 108.566 54.4075 108.56 54.4016C108.44 54.3831 108.321 54.3638 108.208 54.3385C108.17 54.3326 108.139 54.32 108.107 54.3133C108.094 54.3133 108.076 54.3074 108.057 54.3074C108.038 54.3014 108.019 54.3014 108.006 54.2881L107.441 54.1753C107.252 54.1315 107.064 54.087 106.875 54.0432C106.712 54.0054 106.549 53.9676 106.385 53.9238C106.354 53.9178 106.322 53.9052 106.285 53.8926C106.109 53.8488 105.939 53.7984 105.769 53.7479C105.462 53.6596 105.16 53.5654 104.858 53.4653C104.789 53.4467 104.72 53.4215 104.651 53.3962C104.538 53.3651 104.425 53.3272 104.305 53.2768C104.155 53.2263 104.01 53.1759 103.865 53.1195C103.539 53 103.212 52.868 102.885 52.7359C102.822 52.7107 102.766 52.6855 102.703 52.6543C102.42 52.5415 102.144 52.4154 101.868 52.2833C101.56 52.1386 101.264 51.9939 100.963 51.8433C100.825 51.7743 100.686 51.7053 100.555 51.6296C100.228 51.4597 99.9077 51.278 99.5931 51.0895C99.4484 51.0079 99.3103 50.9196 99.1656 50.838C99.0966 50.7942 99.0209 50.7438 98.946 50.7C98.5942 50.4863 98.2484 50.2541 97.9026 50.0151C97.7705 49.9269 97.6384 49.8326 97.513 49.7384C97.3624 49.6382 97.2117 49.5247 97.0603 49.4119C96.7709 49.1983 96.4822 48.9786 96.2054 48.7457C96.0674 48.6329 95.9353 48.5194 95.8032 48.4125C95.6778 48.3057 95.5517 48.1988 95.4322 48.092C95.3068 47.9851 95.1806 47.8783 95.0611 47.7655C94.9357 47.6528 94.8163 47.5459 94.6968 47.4324C93.9933 46.7728 93.3269 46.0813 92.6924 45.3467C92.5855 45.234 92.4854 45.1145 92.3911 44.9951C92.328 44.9194 92.2657 44.8444 92.2086 44.7688C92.1774 44.7309 92.1455 44.6931 92.1202 44.656C92.0134 44.5306 91.9132 44.4045 91.8123 44.2724V44.2665C91.7997 44.2605 91.7937 44.2479 91.7937 44.2412C91.58 43.9645 91.3663 43.6759 91.1592 43.3932C90.9522 43.0979 90.7444 42.7959 90.5433 42.488C90.3422 42.1868 90.1478 41.8788 89.9585 41.5642C89.7701 41.2497 89.5875 40.9358 89.4116 40.6153C89.2357 40.2948 89.0658 39.9742 88.9025 39.6411C88.7452 39.3146 88.5886 38.9815 88.438 38.6484C88.3126 38.3783 88.199 38.1015 88.0862 37.8255C87.917 37.4234 87.7597 37.0086 87.615 36.5939C86.7794 34.25 86.2637 31.7563 86.1071 29.1609C86.0759 28.6082 86.0566 28.0554 86.0566 27.496C86.0566 20.296 88.8402 13.749 93.3966 8.8669C94.0059 8.2073 94.6537 7.58554 95.3261 6.98826C95.804 6.57351 96.2938 6.16543 96.7962 5.78852V5.78258C97.5123 5.23576 98.2603 4.72084 99.0269 4.26231C99.1337 4.17401 99.2532 4.10501 99.3727 4.03601C99.6807 3.85349 99.9886 3.68432 100.259 3.52703C100.453 3.42019 100.642 3.31334 100.812 3.23173C100.924 3.16866 101.044 3.11227 101.151 3.06182C102.256 2.50238 103.394 2.0253 104.563 1.6291L105.072 1.45919C106.115 1.12605 107.183 0.855979 108.252 0.654909C108.604 0.585907 108.962 0.52284 109.314 0.472387C109.546 0.441225 109.772 0.409321 110.005 0.384094C110.313 0.340319 110.626 0.302479 110.928 0.277252C111.311 0.24609 111.708 0.220863 112.091 0.201572C112.525 0.176346 112.946 0.17041 113.38 0.17041C113.757 0.17041 114.121 0.176345 114.485 0.195636C114.862 0.201572 115.227 0.226799 115.591 0.264639C115.968 0.289865 116.332 0.327705 116.697 0.371481H116.703C117.061 0.415256 117.425 0.465709 117.783 0.528776C118.525 0.648231 119.253 0.798848 119.976 0.974692C121.051 1.23883 122.094 1.56529 123.105 1.95482C124.149 2.34435 125.148 2.80288 126.115 3.31186C126.391 3.46915 126.662 3.61384 126.932 3.76445C126.989 3.78968 127.039 3.82752 127.09 3.85275C127.146 3.88391 127.197 3.92175 127.26 3.95291C127.43 4.05382 127.605 4.15398 127.775 4.26082C127.862 4.31128 127.945 4.36099 128.032 4.43073C128.17 4.50641 128.302 4.60064 128.44 4.69487C128.616 4.80171 128.786 4.92117 128.955 5.04062C129.257 5.24837 129.552 5.46799 129.854 5.68761C129.885 5.71284 129.93 5.744 129.979 5.78184C130.117 5.88274 130.3 6.02075 130.514 6.18992C130.828 6.44737 131.142 6.71151 131.444 6.9942C131.601 7.1322 131.757 7.27095 131.909 7.41489C132.128 7.61596 132.342 7.82371 132.55 8.02404C132.758 8.23104 132.965 8.43879 133.166 8.65247C133.418 8.90993 133.662 9.17407 133.901 9.44414C133.97 9.51982 134.046 9.60144 134.115 9.68305C134.159 9.72683 134.197 9.77728 134.228 9.82773C134.266 9.87819 134.309 9.92864 134.347 9.97242C134.706 10.3872 135.045 10.8145 135.371 11.2538C135.566 11.5305 135.761 11.8065 135.95 12.0892C136.283 12.573 136.597 13.0693 136.899 13.5783V13.5843C137.106 13.9174 137.294 14.2565 137.47 14.6082C137.533 14.6898 137.57 14.7781 137.615 14.8723C137.803 15.2181 137.979 15.5824 138.149 15.9467C138.407 16.4868 138.646 17.0396 138.859 17.5931C138.966 17.8698 139.073 18.1525 139.173 18.4352C139.255 18.6674 139.33 18.9063 139.412 19.1452C139.468 19.3337 139.532 19.5095 139.582 19.698C139.771 20.345 139.946 21.0046 140.084 21.6709C140.172 22.0604 140.248 22.4499 140.311 22.8395C140.349 23.022 140.38 23.2038 140.399 23.3922C140.405 23.4048 140.405 23.4234 140.405 23.43C140.436 23.6185 140.461 23.807 140.481 23.9954C140.493 24.0266 140.499 24.0585 140.499 24.0956C140.518 24.2336 140.53 24.3657 140.55 24.5037C140.568 24.6357 140.575 24.7737 140.581 24.9125C140.587 24.9629 140.594 25.0193 140.599 25.0698C140.605 25.1262 140.612 25.1826 140.618 25.233C140.618 25.2642 140.624 25.302 140.624 25.3399C140.63 25.3836 140.637 25.4281 140.637 25.4719C140.687 26.1382 140.712 26.8163 140.712 27.4952L140.716 27.4989Z"/>
</mask>
<path d="M140.716 27.4989C140.716 27.8885 140.703 28.2721 140.691 28.6549V28.6987C140.678 28.9814 140.665 29.2707 140.64 29.5408C140.622 29.7983 140.596 30.0498 140.571 30.2946C140.533 30.653 140.496 31.0106 140.439 31.369C140.427 31.4632 140.414 31.5641 140.401 31.6643C140.351 32.0034 140.289 32.3491 140.219 32.6882C140.168 32.9583 140.112 33.2283 140.049 33.5051C139.992 33.7818 139.923 34.0579 139.854 34.3279C139.622 35.2012 139.365 36.0619 139.057 36.8973C138.981 37.1051 138.899 37.3121 138.818 37.5258C138.673 37.8901 138.522 38.2484 138.359 38.6068C138.221 38.9206 138.076 39.2352 137.926 39.5491C137.762 39.8822 137.592 40.2028 137.417 40.5233C137.31 40.7243 137.203 40.9187 137.09 41.1013C136.983 41.2897 136.87 41.4849 136.757 41.6733C136.606 41.9182 136.456 42.1571 136.298 42.396C136.097 42.7039 135.883 43.0177 135.67 43.3257C135.512 43.5453 135.349 43.7656 135.186 43.9793C135.035 44.1804 134.878 44.3748 134.727 44.5759C134.287 45.116 133.829 45.6502 133.339 46.1718C133.131 46.3914 132.924 46.6118 132.71 46.8255L132.635 46.9011C132.421 47.1148 132.201 47.3218 131.981 47.5229C131.51 47.9562 131.026 48.3836 130.535 48.7731C130.29 48.9801 130.039 49.1753 129.787 49.3637C129.769 49.3763 129.749 49.3889 129.737 49.4016C129.498 49.5841 129.247 49.7532 129.001 49.9231C128.737 50.1116 128.474 50.2874 128.21 50.4574C127.939 50.6399 127.669 50.809 127.392 50.9663C126.463 51.5191 125.501 52.0221 124.502 52.474C124.345 52.543 124.181 52.6061 124.018 52.6751C123.534 52.8821 123.038 53.0772 122.541 53.253C122.196 53.3725 121.851 53.492 121.498 53.5988C121.077 53.7368 120.643 53.8563 120.21 53.9698C119.883 54.0514 119.556 54.133 119.23 54.202C119.028 54.2458 118.821 54.2896 118.614 54.3274C118.444 54.3593 118.262 54.3905 118.092 54.4216C117.307 54.5537 116.508 54.6665 115.704 54.7229C115.553 54.7414 115.396 54.754 115.245 54.7666C114.629 54.8104 114.007 54.8297 113.379 54.8297C113.008 54.8297 112.638 54.8238 112.266 54.8045C112.034 54.7986 111.795 54.7859 111.556 54.7666C111.349 54.754 111.148 54.7355 110.94 54.7162C110.764 54.7036 110.595 54.691 110.419 54.6657C110.243 54.6472 110.067 54.6279 109.891 54.6027H109.885C109.728 54.5841 109.571 54.5648 109.414 54.5396C109.257 54.5144 109.1 54.4892 108.943 54.458C108.823 54.4454 108.698 54.4268 108.578 54.4016C108.572 54.4075 108.566 54.4075 108.56 54.4016C108.44 54.3831 108.321 54.3638 108.208 54.3385C108.17 54.3326 108.139 54.32 108.107 54.3133C108.094 54.3133 108.076 54.3074 108.057 54.3074C108.038 54.3014 108.019 54.3014 108.006 54.2881L107.441 54.1753C107.252 54.1315 107.064 54.087 106.875 54.0432C106.712 54.0054 106.549 53.9676 106.385 53.9238C106.354 53.9178 106.322 53.9052 106.285 53.8926C106.109 53.8488 105.939 53.7984 105.769 53.7479C105.462 53.6596 105.16 53.5654 104.858 53.4653C104.789 53.4467 104.72 53.4215 104.651 53.3962C104.538 53.3651 104.425 53.3272 104.305 53.2768C104.155 53.2263 104.01 53.1759 103.865 53.1195C103.539 53 103.212 52.868 102.885 52.7359C102.822 52.7107 102.766 52.6855 102.703 52.6543C102.42 52.5415 102.144 52.4154 101.868 52.2833C101.56 52.1386 101.264 51.9939 100.963 51.8433C100.825 51.7743 100.686 51.7053 100.555 51.6296C100.228 51.4597 99.9077 51.278 99.5931 51.0895C99.4484 51.0079 99.3103 50.9196 99.1656 50.838C99.0966 50.7942 99.0209 50.7438 98.946 50.7C98.5942 50.4863 98.2484 50.2541 97.9026 50.0151C97.7705 49.9269 97.6384 49.8326 97.513 49.7384C97.3624 49.6382 97.2117 49.5247 97.0603 49.4119C96.7709 49.1983 96.4822 48.9786 96.2054 48.7457C96.0674 48.6329 95.9353 48.5194 95.8032 48.4125C95.6778 48.3057 95.5517 48.1988 95.4322 48.092C95.3068 47.9851 95.1806 47.8783 95.0611 47.7655C94.9357 47.6528 94.8163 47.5459 94.6968 47.4324C93.9933 46.7728 93.3269 46.0813 92.6924 45.3467C92.5855 45.234 92.4854 45.1145 92.3911 44.9951C92.328 44.9194 92.2657 44.8444 92.2086 44.7688C92.1774 44.7309 92.1455 44.6931 92.1202 44.656C92.0134 44.5306 91.9132 44.4045 91.8123 44.2724V44.2665C91.7997 44.2605 91.7937 44.2479 91.7937 44.2412C91.58 43.9645 91.3663 43.6759 91.1592 43.3932C90.9522 43.0979 90.7444 42.7959 90.5433 42.488C90.3422 42.1868 90.1478 41.8788 89.9585 41.5642C89.7701 41.2497 89.5875 40.9358 89.4116 40.6153C89.2357 40.2948 89.0658 39.9742 88.9025 39.6411C88.7452 39.3146 88.5886 38.9815 88.438 38.6484C88.3126 38.3783 88.199 38.1015 88.0862 37.8255C87.917 37.4234 87.7597 37.0086 87.615 36.5939C86.7794 34.25 86.2637 31.7563 86.1071 29.1609C86.0759 28.6082 86.0566 28.0554 86.0566 27.496C86.0566 20.296 88.8402 13.749 93.3966 8.8669C94.0059 8.2073 94.6537 7.58554 95.3261 6.98826C95.804 6.57351 96.2938 6.16543 96.7962 5.78852V5.78258C97.5123 5.23576 98.2603 4.72084 99.0269 4.26231C99.1337 4.17401 99.2532 4.10501 99.3727 4.03601C99.6807 3.85349 99.9886 3.68432 100.259 3.52703C100.453 3.42019 100.642 3.31334 100.812 3.23173C100.924 3.16866 101.044 3.11227 101.151 3.06182C102.256 2.50238 103.394 2.0253 104.563 1.6291L105.072 1.45919C106.115 1.12605 107.183 0.855979 108.252 0.654909C108.604 0.585907 108.962 0.52284 109.314 0.472387C109.546 0.441225 109.772 0.409321 110.005 0.384094C110.313 0.340319 110.626 0.302479 110.928 0.277252C111.311 0.24609 111.708 0.220863 112.091 0.201572C112.525 0.176346 112.946 0.17041 113.38 0.17041C113.757 0.17041 114.121 0.176345 114.485 0.195636C114.862 0.201572 115.227 0.226799 115.591 0.264639C115.968 0.289865 116.332 0.327705 116.697 0.371481H116.703C117.061 0.415256 117.425 0.465709 117.783 0.528776C118.525 0.648231 119.253 0.798848 119.976 0.974692C121.051 1.23883 122.094 1.56529 123.105 1.95482C124.149 2.34435 125.148 2.80288 126.115 3.31186C126.391 3.46915 126.662 3.61384 126.932 3.76445C126.989 3.78968 127.039 3.82752 127.09 3.85275C127.146 3.88391 127.197 3.92175 127.26 3.95291C127.43 4.05382 127.605 4.15398 127.775 4.26082C127.862 4.31128 127.945 4.36099 128.032 4.43073C128.17 4.50641 128.302 4.60064 128.44 4.69487C128.616 4.80171 128.786 4.92117 128.955 5.04062C129.257 5.24837 129.552 5.46799 129.854 5.68761C129.885 5.71284 129.93 5.744 129.979 5.78184C130.117 5.88274 130.3 6.02075 130.514 6.18992C130.828 6.44737 131.142 6.71151 131.444 6.9942C131.601 7.1322 131.757 7.27095 131.909 7.41489C132.128 7.61596 132.342 7.82371 132.55 8.02404C132.758 8.23104 132.965 8.43879 133.166 8.65247C133.418 8.90993 133.662 9.17407 133.901 9.44414C133.97 9.51982 134.046 9.60144 134.115 9.68305C134.159 9.72683 134.197 9.77728 134.228 9.82773C134.266 9.87819 134.309 9.92864 134.347 9.97242C134.706 10.3872 135.045 10.8145 135.371 11.2538C135.566 11.5305 135.761 11.8065 135.95 12.0892C136.283 12.573 136.597 13.0693 136.899 13.5783V13.5843C137.106 13.9174 137.294 14.2565 137.47 14.6082C137.533 14.6898 137.57 14.7781 137.615 14.8723C137.803 15.2181 137.979 15.5824 138.149 15.9467C138.407 16.4868 138.646 17.0396 138.859 17.5931C138.966 17.8698 139.073 18.1525 139.173 18.4352C139.255 18.6674 139.33 18.9063 139.412 19.1452C139.468 19.3337 139.532 19.5095 139.582 19.698C139.771 20.345 139.946 21.0046 140.084 21.6709C140.172 22.0604 140.248 22.4499 140.311 22.8395C140.349 23.022 140.38 23.2038 140.399 23.3922C140.405 23.4048 140.405 23.4234 140.405 23.43C140.436 23.6185 140.461 23.807 140.481 23.9954C140.493 24.0266 140.499 24.0585 140.499 24.0956C140.518 24.2336 140.53 24.3657 140.55 24.5037C140.568 24.6357 140.575 24.7737 140.581 24.9125C140.587 24.9629 140.594 25.0193 140.599 25.0698C140.605 25.1262 140.612 25.1826 140.618 25.233C140.618 25.2642 140.624 25.302 140.624 25.3399C140.63 25.3836 140.637 25.4281 140.637 25.4719C140.687 26.1382 140.712 26.8163 140.712 27.4952L140.716 27.4989Z" stroke="#ACB1EE" stroke-width="6.4461" mask="url(#path-6-inside-1_220_6675)"/>
<path d="M122.54 53.2545C119.674 54.2747 116.596 54.8274 113.381 54.8274C101.484 54.8274 91.3549 47.2179 87.6133 36.5975C87.9532 36.6569 88.2938 36.7674 88.5913 36.9292C89.68 37.499 90.4451 38.5192 91.2362 39.463C92.0272 40.4067 92.9452 41.3505 94.1362 41.648C95.7688 42.0643 97.7843 41.2652 99.0088 42.413C99.6551 43.017 99.9104 44.0624 100.744 44.3688C101.663 44.7175 102.683 43.7819 102.742 42.7959C102.811 41.818 102.215 40.9083 101.526 40.2027C100.845 39.4882 100.046 38.8761 99.5104 38.0518C98.9836 37.2186 98.7958 36.0537 99.3999 35.2798C99.9438 34.5824 100.99 34.4214 101.815 34.736C102.641 35.0506 103.27 35.7391 103.72 36.5048C104.494 37.7973 104.826 39.302 105.506 40.6368C106.186 41.9804 107.394 43.2388 108.899 43.264C110.217 43.2982 111.799 42.4479 112.709 43.4087C113.21 43.9355 113.185 44.7524 113.363 45.458C113.891 47.5325 116.118 48.5957 118.083 49.4371C119.954 50.228 122.038 51.3417 122.54 53.2545Z" fill="#ACB1EE"/>
<path d="M140.086 21.6743C139.633 21.6869 139.162 21.6743 138.659 21.6491C137.855 21.6112 137.051 21.5675 136.246 21.5296C135.92 21.5111 135.592 21.4985 135.266 21.4792C134.374 21.4354 133.394 21.4228 132.646 21.8561C132.501 21.9377 132.369 22.0319 132.243 22.1514C131.828 22.5468 131.578 23.1189 131.069 23.3764C130.603 23.6027 130.057 23.5017 129.541 23.5144C127.989 23.5522 126.626 24.6577 125.852 25.9962C125.142 27.2212 124.684 28.5218 124.401 29.8603C123.71 33.0834 124.055 36.5387 124.382 39.7877C124.395 39.8946 124.408 40.0014 124.408 40.1082C124.464 40.6862 124.471 41.2768 124.225 41.7984C123.936 42.4143 123.163 42.8542 122.56 42.5396C122.371 42.4454 122.227 42.2881 122.107 42.1123C121.994 41.949 121.906 41.7539 121.818 41.5721C121.341 40.5416 121.24 39.4294 120.8 38.4433C120.178 37.0484 119.016 37.4379 117.847 36.9163C117.005 36.5394 116.584 35.5905 116.383 34.692C116.345 34.5161 116.307 34.3403 116.276 34.1644C116.138 33.4291 116.024 32.682 115.672 32.0343C115.56 31.8332 115.421 31.6321 115.214 31.5312C115.038 31.4429 114.831 31.4303 114.636 31.4244C113.48 31.3991 112.153 31.4808 111.023 31.7071C110.042 31.9081 109.2 32.7183 108.195 32.7057C106.511 32.6805 105.789 30.488 105.99 28.8164C106.197 27.1455 106.8 25.3233 105.952 23.872C104.607 21.5727 100.56 21.8427 99.6174 19.3542C98.7061 16.9287 101.723 14.8743 104.274 14.4224C106.832 13.9639 109.967 13.6938 111.061 11.344C111.589 10.2066 111.432 8.93785 110.992 7.73143C110.778 7.12822 110.49 6.53762 110.188 5.98486C109.276 4.33846 108.171 2.64828 108.24 0.76964C108.24 0.7318 108.246 0.69396 108.252 0.656862C108.604 0.58786 108.962 0.524794 109.314 0.474341C109.547 0.443178 109.773 0.411274 110.005 0.386047C110.313 0.342272 110.627 0.304432 110.929 0.279205C111.312 0.248043 111.708 0.222817 112.092 0.203526C112.525 0.1783 112.947 0.172363 113.38 0.172363C113.757 0.172363 114.122 0.178299 114.486 0.19759C114.863 0.203526 115.227 0.228753 115.592 0.266593C115.969 0.291819 116.333 0.329659 116.697 0.373435H116.703C117.062 0.41721 117.426 0.467663 117.784 0.53073C118.525 0.650185 119.254 0.800802 119.977 0.976646C120.995 1.22817 121.981 1.5294 122.936 1.89371C122.992 1.91226 123.049 1.93748 123.106 1.95677C124.149 2.3463 125.148 2.80483 126.116 3.31381C126.392 3.47111 126.663 3.61579 126.933 3.76641C126.989 3.79163 127.04 3.82947 127.09 3.8547C127.147 3.88586 127.197 3.9237 127.26 3.95487C127.43 4.05577 127.606 4.15594 127.775 4.26278C127.863 4.31323 127.945 4.36294 128.033 4.43269C128.171 4.50837 128.303 4.60259 128.441 4.69682C128.617 4.80366 128.787 4.92312 128.956 5.04258C129.257 5.25032 129.552 5.46994 129.855 5.68956C129.886 5.71479 129.93 5.74595 129.98 5.78379C130.118 5.8847 130.301 6.0227 130.514 6.19187C130.828 6.44933 131.143 6.71346 131.444 6.99615C131.601 7.13415 131.758 7.2729 131.909 7.41684C132.129 7.61791 132.343 7.82566 132.551 8.02599C132.758 8.23299 132.965 8.44074 133.166 8.65443C133.418 8.91189 133.663 9.17602 133.902 9.4461C133.971 9.52178 134.047 9.60339 134.116 9.68501C134.159 9.72878 134.197 9.77923 134.228 9.82969C134.266 9.88014 134.31 9.93059 134.348 9.97437C134.706 10.3891 135.045 10.8165 135.372 11.2557C135.566 11.5325 135.762 11.8085 135.95 12.0912C136.283 12.5749 136.597 13.0713 136.899 13.5803V13.5862C137.106 13.9194 137.295 14.2584 137.471 14.6101C137.534 14.6917 137.571 14.78 137.615 14.8743C137.804 15.22 137.98 15.5843 138.15 15.9486C138.407 16.4888 138.646 17.0415 138.86 17.595C138.967 17.8718 139.073 18.1545 139.174 18.4371C139.255 18.6694 139.331 18.9083 139.413 19.1472C139.469 19.3357 139.532 19.5115 139.583 19.7C139.652 19.9389 139.721 20.1837 139.784 20.4286C139.896 20.8374 139.997 21.2514 140.085 21.6728L140.086 21.6743Z" fill="#ACB1EE"/>
<path d="M95.8789 13.9211C95.5398 15.9192 92.5922 16.3651 91.8197 18.2312C91.1348 19.8961 92.5113 21.7748 92.1715 23.5399C91.8004 25.469 89.6765 26.4046 88.0491 27.5042C87.339 27.982 86.6859 28.5407 86.1071 29.1632C86.0759 28.6104 86.0566 28.0577 86.0566 27.4982C86.0566 20.2983 88.8402 13.7512 93.3966 8.86914C93.5666 9.48497 93.9309 10.1008 94.3265 10.5972C95.1183 11.584 96.0919 12.6769 95.8789 13.9211Z" fill="#ACB1EE"/>
</g>
<defs>
<clipPath id="clip0_220_6675">
<rect width="12.2316" height="20.0541" fill="white" transform="translate(52.6426 17.4731)"/>
</clipPath>
<clipPath id="clip1_220_6675">
<rect width="8.88214" height="5.46593" fill="white" transform="translate(71.0234 24.7671)"/>
</clipPath>
</defs>
</svg>
