<svg width="131" height="55" viewBox="0 0 131 55" fill="none" xmlns="http://www.w3.org/2000/svg">
<g clip-path="url(#clip0_220_6875)">
<path d="M44.861 35.1731C49.0131 23.3655 42.8071 10.4277 30.9995 6.27558C19.192 2.1235 6.25409 8.3295 2.102 20.1371C-2.05008 31.9447 4.15592 44.8825 15.9635 49.0346C27.7711 53.1867 40.709 46.9807 44.861 35.1731Z" fill="#1034F0"/>
</g>
<g clip-path="url(#clip1_220_6875)">
<path d="M63.1333 25.388C62.3123 25.3062 61.6578 25.6651 61.0165 26.1047C59.1057 27.4141 57.1052 27.3705 55.2513 26.0125C54.8519 25.7198 54.6204 25.3915 54.931 24.9248C55.1976 24.5243 55.6162 24.5053 56.143 24.8442C57.7377 25.8706 58.7647 25.8552 60.3563 24.7809C62.2199 23.5228 64.3518 23.5993 66.1231 24.9797C66.508 25.2796 66.6666 25.6305 66.3528 26.037C66.045 26.4358 65.6466 26.4355 65.2378 26.1474C64.6106 25.7052 63.9633 25.3105 63.1333 25.3881V25.388Z" fill="#1034F0"/>
<path d="M58.0221 31.1107C57.0441 31.146 56.0368 30.6907 55.13 29.9891C54.7661 29.7075 54.6516 29.3494 54.9489 28.9679C55.2393 28.5952 55.6314 28.5496 56.0134 28.8278C56.7263 29.3471 57.4951 29.788 58.4055 29.6053C59.054 29.4752 59.7213 29.2307 60.2705 28.8787C62.2084 27.6366 64.1387 27.6327 66 28.9597C66.516 29.3275 66.6434 29.7102 66.3747 30.0845C66.098 30.4697 65.6788 30.4971 65.1575 30.1637C63.5534 29.1382 62.5212 29.1426 60.9465 30.2275C60.1302 30.7898 59.2416 31.1017 58.0221 31.1107Z" fill="#1034F0"/>
</g>
<path d="M87.2678 25.3392C80.2411 25.2635 74.5824 19.5706 74.647 12.6779C74.7132 5.62602 80.3748 -0.00661353 87.3753 0.0442876C94.5189 0.096221 100 5.87648 99.942 12.7418C99.8823 19.7881 94.1673 25.4135 87.2678 25.3392ZM76.5498 7.94103C76.4471 8.2385 76.3453 8.5362 76.2417 8.83335C75.5411 10.8427 75.357 12.9078 75.8219 14.9758C76.8347 19.4796 79.541 22.5616 83.9717 23.8845C88.3903 25.2038 92.3087 24.0807 95.6404 20.9089C95.9918 20.5744 96.4004 20.2947 96.0748 19.6411C95.786 19.0616 95.6994 18.3814 95.5219 17.7461C95.5115 17.7088 95.4921 17.6707 95.4672 17.6411C95.1749 17.2939 95.2126 16.9276 95.4339 16.5746C95.6136 16.2879 95.5708 16.0495 95.4113 15.7665C95.1996 15.3908 94.9161 14.9909 94.8939 14.5887C94.8632 14.0327 94.8572 13.5997 94.1614 13.5798C94.1032 13.5781 94.0479 13.4928 93.989 13.4898C93.7303 13.4764 93.4329 13.3949 93.2187 13.4915C92.5683 13.7847 91.7534 13.6677 91.2856 13.1393C91.1804 13.0204 91.0764 12.9002 90.9676 12.7846C90.594 12.3877 90.5975 11.9466 90.7657 11.458C90.8196 11.3015 90.7365 11.1017 90.7386 10.9221C90.7402 10.7757 90.7228 10.5772 90.806 10.4938C91.0188 10.2806 91.3021 10.1385 91.52 9.92919C91.6612 9.79348 91.8059 9.59766 91.8273 9.41446C91.8684 9.06292 92.0585 8.86456 92.3597 8.80714C93.0309 8.67914 93.7083 8.57313 94.3881 8.51095C94.5298 8.498 94.7404 8.68311 94.834 8.83089C94.9709 9.04688 95.9984 9.54414 96.2444 9.45012C96.2799 9.43662 96.3199 9.41399 96.3395 9.38373C96.5933 8.99225 96.8753 9.1652 97.1996 9.29583C97.5047 9.41875 97.8472 9.45981 98.1777 9.50245C98.2636 9.51357 98.4155 9.41772 98.452 9.33394C98.5671 9.07022 98.183 8.55033 97.9148 8.44337C97.6866 8.35237 97.4999 8.14765 97.3088 7.97764C97.2199 7.89855 97.1641 7.78221 97.0932 7.68279C96.9956 7.77761 96.8957 7.87012 96.8012 7.96795C96.7341 8.03743 96.6745 8.11414 96.6116 8.18767C96.5382 8.11486 96.4451 8.05316 96.3965 7.96644C96.3401 7.86559 96.3567 7.70733 96.2821 7.6361C96.028 7.39335 95.7767 7.11629 95.4683 6.97168C95.2236 6.85694 95.0933 7.08373 95.2455 7.31028C95.3573 7.47665 95.5819 7.56558 95.7014 7.72917C95.7853 7.84415 95.8216 8.036 95.7919 8.17497C95.7763 8.2485 95.5744 8.28225 95.4565 8.33403C95.7633 8.10572 95.6991 7.95604 95.4521 7.77935C95.2484 7.63356 95.0625 7.46299 94.8609 7.31394C94.7945 7.26486 94.6869 7.20277 94.6269 7.22484C94.1919 7.38493 93.7077 7.47403 93.4887 7.972C93.2971 8.40772 92.922 8.43511 92.5171 8.38397C92.1851 8.34205 92.0871 8.12931 92.0829 7.82668C92.0785 7.50817 92.2521 7.36571 92.5405 7.34292C92.697 7.33053 92.8644 7.38938 93.0121 7.35404C93.1218 7.32775 93.3017 7.14718 93.2906 7.12812C93.0022 6.63158 93.3164 6.50254 93.7062 6.39629C93.7867 6.37437 93.8711 6.29734 93.915 6.22294C94.1122 5.88839 94.3991 5.7734 94.7797 5.77547C94.9034 5.7761 95.0281 5.62038 95.1522 5.53613C95.0362 5.43766 94.9195 5.34023 94.8045 5.24057C94.6137 5.07508 94.4138 4.91706 94.2485 4.72894C94.2307 4.70877 94.3928 4.46951 94.5114 4.4009C95.1191 4.04967 95.1402 3.96971 94.5755 3.53209C91.7477 1.34048 88.5676 0.561796 85.0483 1.20318C83.517 1.48222 82.1144 2.09081 80.8208 2.95137C80.7296 3.01204 80.6678 3.11702 80.5924 3.20135C80.6959 3.2451 80.798 3.29251 80.9031 3.3319C81.1864 3.43791 81.4685 3.54845 81.7562 3.64159C81.9413 3.70155 82.1337 3.74935 82.3263 3.77063C82.3961 3.77833 82.4762 3.69297 82.5516 3.65009C82.5036 3.58108 82.4707 3.48714 82.405 3.44752C82.1442 3.29005 81.8732 3.14949 81.5894 2.99354C81.8987 2.69948 82.259 2.45379 82.5922 2.73609C82.97 3.05619 83.3009 3.2343 83.7897 2.99409C83.6019 3.13131 83.4055 3.17927 83.2264 3.26376C83.137 3.30593 83.006 3.43862 83.0222 3.48849C83.0548 3.58839 83.1803 3.73386 83.2593 3.72894C83.5171 3.71282 83.7726 3.64342 84.0263 3.58331C84.2765 3.52407 84.5039 3.44553 84.3438 3.10034C84.3241 3.05786 84.4051 2.91349 84.4557 2.9042C84.5933 2.87879 84.7396 2.90047 84.8824 2.90357C84.8665 2.98456 84.8241 3.07128 84.8402 3.14529C84.8718 3.28989 84.936 3.42727 84.9867 3.56766C85.1046 3.48595 85.235 3.41726 85.3369 3.31903C85.4535 3.20651 85.5189 3.01847 85.6515 2.94923C86.1008 2.71449 87.0616 2.88792 87.391 3.2698C87.5293 3.43021 87.5996 3.6589 87.6561 3.86862C87.6636 3.89642 87.4046 3.99441 87.2705 4.0627C87.2357 4.08041 87.2022 4.10463 87.1751 4.13258C86.8771 4.44029 86.5861 4.28187 86.2369 4.12757C86.363 4.04332 86.4537 3.99425 86.5303 3.92865C86.6247 3.84774 86.7073 3.75316 86.7951 3.66446C86.6723 3.57616 86.548 3.41234 86.4271 3.41488C86.1593 3.42044 85.8566 3.4468 85.6337 3.57695C85.0646 3.9092 84.9225 3.99226 84.38 4.05714C84.2765 4.06953 84.1703 4.10193 84.0771 4.14854C83.8525 4.2609 83.6174 4.36437 83.4199 4.51525C83.2684 4.63103 83.0378 4.85933 83.0721 4.95692C83.1434 5.16005 83.3652 5.31156 83.5287 5.48078C83.6717 5.62864 83.8224 5.76912 83.9641 5.91817C84.024 5.98114 84.0694 6.11486 84.122 6.11518C84.2085 6.11566 84.3085 6.04808 84.3794 5.98352C84.5131 5.86179 84.6069 5.65731 84.7588 5.60244C85.0946 5.48134 85.1665 5.26431 85.206 4.94215C85.2267 4.77285 85.449 4.49683 85.5735 4.5004C85.7957 4.50675 86.1281 4.63635 86.2065 4.80882C86.3409 5.10454 86.4634 5.11018 86.7185 5.0245C86.8053 4.99536 86.9736 5.05626 87.0342 5.13218C87.1668 5.29806 87.2798 5.49087 87.3509 5.69042C87.3959 5.81652 87.3672 6.097 87.3442 6.10009C86.957 6.15115 86.5655 6.17212 86.1747 6.19348C86.0263 6.20158 85.877 6.19395 85.7282 6.19348V6.61411C85.6434 6.64865 85.5092 6.67493 85.4105 6.7487C85.0422 7.02402 84.6753 7.30306 84.328 7.60402C84.0892 7.81096 83.8817 8.05435 83.6642 8.28527C83.4255 8.53882 83.1718 8.78173 82.9611 9.0572C82.7802 9.29376 82.6494 9.56883 82.4995 9.82858C82.4628 9.89227 82.4379 9.96278 82.4077 10.0302C82.3351 9.98525 82.2505 9.95214 82.1928 9.89282C82.0876 9.78491 82.0124 9.57709 81.9001 9.55835C81.2358 9.44758 80.5729 9.44488 80.0114 9.90354C79.601 10.2386 79.4005 10.9964 79.6695 11.2913C80.0735 11.7341 80.4585 11.4315 80.8292 11.1936C80.8403 11.1865 80.8505 11.1759 80.8627 11.1726C80.9462 11.1499 81.03 11.1288 81.1138 11.1072C81.113 11.1943 81.0969 11.2847 81.1149 11.3677C81.1439 11.5024 81.1706 11.7296 81.2416 11.7477C81.5673 11.8306 81.6171 12.047 81.6734 12.33C81.716 12.5438 81.8412 12.838 82.0092 12.9095C82.3332 13.0474 82.7069 13.141 83.0054 12.7443C83.2981 12.3555 83.6322 12.3728 84.0376 12.6216C84.2508 12.7524 84.5518 12.8429 84.7901 12.8053C85.1215 12.7531 85.2877 12.8537 85.4924 13.0913C85.6538 13.2787 85.9407 13.3522 86.1519 13.5039C86.3486 13.6453 86.6606 13.8108 86.6761 13.9872C86.735 14.6566 87.2201 14.8044 87.6977 14.8224C88.2586 14.8437 88.7384 14.9381 89.0674 15.4104C89.1571 15.5391 89.239 15.8123 89.1735 15.8872C88.7483 16.374 88.7038 16.963 88.6357 17.5553C88.5858 17.9888 88.3331 18.2073 87.8898 18.214C87.4304 18.221 87.2678 18.4352 87.3308 18.9026C87.3532 19.0687 87.4178 19.294 87.3389 19.3982C86.8572 20.0339 86.5658 20.8798 85.6162 21.0358C85.5336 21.0494 85.4422 21.2162 85.4178 21.3259C85.3861 21.4677 85.4123 21.624 85.4238 21.7733C85.4312 21.8693 85.4302 22.0286 85.4789 22.0487C85.7947 22.1792 85.8159 22.3914 85.7424 22.6862C85.7179 22.7846 85.8261 22.9195 85.8821 23.0337C85.9304 23.1321 85.9908 23.2247 86.0458 23.3199C85.9218 23.3453 85.7933 23.4038 85.675 23.3876C85.5382 23.3689 85.3872 23.3121 85.2823 23.2242C84.7078 22.7425 84.2669 22.196 84.3595 21.3674C84.3807 21.1771 84.2503 20.9728 84.2053 20.7714C84.1504 20.5262 84.1021 20.2786 84.0705 20.0297C84.0542 19.9015 84.0981 19.7661 84.0842 19.6372C84.0313 19.1455 83.8961 18.6512 83.9227 18.1651C83.9568 17.5403 83.6668 17.2062 83.1598 16.9612C83.0342 16.9006 82.9022 16.8176 82.8202 16.7092C82.6142 16.4368 82.4493 16.1332 82.242 15.8618C81.7918 15.2723 81.8556 14.6354 82.3705 14.108C82.5046 13.9707 82.5347 13.6819 82.5196 13.4693C82.5114 13.3543 82.3128 13.1693 82.1898 13.1606C81.7099 13.1264 81.4326 12.8028 81.0762 12.552C80.6134 12.2263 80.1822 11.7797 79.5031 11.8379C78.8097 11.8975 78.4704 11.5369 78.4025 10.8429C78.3868 10.6821 78.2785 10.5294 78.2085 10.375C78.0629 10.0542 77.9212 9.73122 77.7629 9.41677C77.7166 9.32489 77.6195 9.25866 77.5457 9.18068C77.4977 9.28892 77.3869 9.41637 77.4131 9.50197C77.5005 9.78816 77.643 10.0571 77.7511 10.3378C77.7848 10.4253 77.7762 10.5292 77.787 10.6256C77.6844 10.5938 77.5192 10.5903 77.4899 10.5254C77.3518 10.2197 77.2409 9.90013 77.1404 9.57924C77.0824 9.39405 77.1275 9.09667 77.0139 9.02314C76.5952 8.75203 76.5648 8.37532 76.5499 7.94119L76.5498 7.94103ZM83.4986 7.47776C83.6 7.51413 83.7296 7.58417 83.8634 7.5937C83.9016 7.5964 84.0098 7.3596 83.9887 7.34062C83.673 7.05657 83.3652 6.74839 83.0018 6.53954C82.8367 6.44473 82.5517 6.54375 82.3258 6.58258C82.2836 6.58981 82.2512 6.72647 82.2368 6.80747C82.2121 6.9458 82.1953 7.0873 82.1939 7.22762C82.1927 7.34721 82.2177 7.46712 82.2311 7.58687C82.3398 7.53787 82.4723 7.51302 82.552 7.43456C82.6923 7.29647 82.8005 7.12558 82.9221 6.96843L83.0552 7.03172C83.0132 7.20507 82.968 7.3777 82.9305 7.55193C82.9131 7.63213 82.874 7.75545 82.9098 7.78817C82.9644 7.83812 83.1062 7.86901 83.1565 7.83264C83.2827 7.74132 83.3784 7.60775 83.4987 7.4776L83.4986 7.47776Z" fill="#1034F0"/>
<path d="M117.414 25.3392C110.388 25.2635 104.729 19.5706 104.794 12.6779C104.86 5.62602 110.521 -0.00661353 117.522 0.0442876C124.665 0.096221 130.147 5.87648 130.089 12.7418C130.029 19.7881 124.314 25.4135 117.414 25.3392ZM106.696 7.94103C106.594 8.2385 106.492 8.5362 106.388 8.83335C105.688 10.8427 105.503 12.9078 105.968 14.9758C106.981 19.4796 109.687 22.5616 114.118 23.8845C118.537 25.2038 122.455 24.0807 125.787 20.9089C126.138 20.5744 126.547 20.2947 126.221 19.6411C125.932 19.0616 125.846 18.3814 125.668 17.7461C125.658 17.7088 125.639 17.6707 125.614 17.6411C125.321 17.2939 125.359 16.9276 125.58 16.5746C125.76 16.2879 125.717 16.0495 125.558 15.7665C125.346 15.3908 125.063 14.9909 125.04 14.5887C125.01 14.0327 125.004 13.5997 124.308 13.5798C124.25 13.5781 124.194 13.4928 124.136 13.4898C123.877 13.4764 123.579 13.3949 123.365 13.4915C122.715 13.7847 121.9 13.6677 121.432 13.1393C121.327 13.0204 121.223 12.9002 121.114 12.7846C120.74 12.3877 120.744 11.9466 120.912 11.458C120.966 11.3015 120.883 11.1017 120.885 10.9221C120.887 10.7757 120.869 10.5772 120.952 10.4938C121.165 10.2806 121.449 10.1385 121.666 9.92919C121.808 9.79348 121.952 9.59766 121.974 9.41446C122.015 9.06292 122.205 8.86456 122.506 8.80714C123.177 8.67914 123.855 8.57313 124.535 8.51095C124.676 8.498 124.887 8.68311 124.98 8.83089C125.117 9.04688 126.145 9.54414 126.391 9.45012C126.426 9.43662 126.466 9.41399 126.486 9.38373C126.74 8.99225 127.022 9.1652 127.346 9.29583C127.651 9.41875 127.994 9.45981 128.324 9.50245C128.41 9.51357 128.562 9.41772 128.598 9.33394C128.714 9.07022 128.329 8.55033 128.061 8.44337C127.833 8.35237 127.646 8.14765 127.455 7.97764C127.366 7.89855 127.311 7.78221 127.24 7.68279C127.142 7.77761 127.042 7.87012 126.948 7.96795C126.881 8.03743 126.821 8.11414 126.758 8.18767C126.685 8.11486 126.592 8.05316 126.543 7.96644C126.487 7.86559 126.503 7.70733 126.429 7.6361C126.174 7.39335 125.923 7.11629 125.615 6.97168C125.37 6.85694 125.24 7.08373 125.392 7.31028C125.504 7.47665 125.728 7.56558 125.848 7.72917C125.932 7.84415 125.968 8.036 125.938 8.17497C125.923 8.2485 125.721 8.28225 125.603 8.33403C125.91 8.10572 125.846 7.95604 125.599 7.77935C125.395 7.63356 125.209 7.46299 125.007 7.31394C124.941 7.26486 124.833 7.20277 124.773 7.22484C124.338 7.38493 123.854 7.47403 123.635 7.972C123.444 8.40772 123.068 8.43511 122.664 8.38397C122.332 8.34205 122.234 8.12931 122.229 7.82668C122.225 7.50817 122.399 7.36571 122.687 7.34292C122.843 7.33053 123.011 7.38938 123.159 7.35404C123.268 7.32775 123.448 7.14718 123.437 7.12812C123.149 6.63158 123.463 6.50254 123.853 6.39629C123.933 6.37437 124.018 6.29734 124.062 6.22294C124.259 5.88839 124.546 5.7734 124.926 5.77547C125.05 5.7761 125.175 5.62038 125.299 5.53613C125.183 5.43766 125.066 5.34023 124.951 5.24057C124.76 5.07508 124.56 4.91706 124.395 4.72894C124.377 4.70877 124.539 4.46951 124.658 4.4009C125.266 4.04967 125.287 3.96971 124.722 3.53209C121.894 1.34048 118.714 0.561796 115.195 1.20318C113.664 1.48222 112.261 2.09081 110.967 2.95137C110.876 3.01204 110.814 3.11702 110.739 3.20135C110.842 3.2451 110.945 3.29251 111.05 3.3319C111.333 3.43791 111.615 3.54845 111.903 3.64159C112.088 3.70155 112.28 3.74935 112.473 3.77063C112.543 3.77833 112.623 3.69297 112.698 3.65009C112.65 3.58108 112.617 3.48714 112.552 3.44752C112.291 3.29005 112.02 3.14949 111.736 2.99354C112.045 2.69948 112.405 2.45379 112.739 2.73609C113.116 3.05619 113.447 3.2343 113.936 2.99409C113.748 3.13131 113.552 3.17927 113.373 3.26376C113.283 3.30593 113.152 3.43862 113.169 3.48849C113.201 3.58839 113.327 3.73386 113.406 3.72894C113.664 3.71282 113.919 3.64342 114.173 3.58331C114.423 3.52407 114.65 3.44553 114.49 3.10034C114.471 3.05786 114.552 2.91349 114.602 2.9042C114.74 2.87879 114.886 2.90047 115.029 2.90357C115.013 2.98456 114.971 3.07128 114.987 3.14529C115.018 3.28989 115.083 3.42727 115.133 3.56766C115.251 3.48595 115.381 3.41726 115.483 3.31903C115.6 3.20651 115.665 3.01847 115.798 2.94923C116.247 2.71449 117.208 2.88792 117.537 3.2698C117.676 3.43021 117.746 3.6589 117.803 3.86862C117.81 3.89642 117.551 3.99441 117.417 4.0627C117.382 4.08041 117.349 4.10463 117.322 4.13258C117.024 4.44029 116.733 4.28187 116.383 4.12757C116.509 4.04332 116.6 3.99425 116.677 3.92865C116.771 3.84774 116.854 3.75316 116.942 3.66446C116.819 3.57616 116.694 3.41234 116.574 3.41488C116.306 3.42044 116.003 3.4468 115.78 3.57695C115.211 3.9092 115.069 3.99226 114.526 4.05714C114.423 4.06953 114.317 4.10193 114.224 4.14854C113.999 4.2609 113.764 4.36437 113.566 4.51525C113.415 4.63103 113.184 4.85933 113.219 4.95692C113.29 5.16005 113.512 5.31156 113.675 5.48078C113.818 5.62864 113.969 5.76912 114.111 5.91817C114.171 5.98114 114.216 6.11486 114.268 6.11518C114.355 6.11566 114.455 6.04808 114.526 5.98352C114.66 5.86179 114.753 5.65731 114.905 5.60244C115.241 5.48134 115.313 5.26431 115.353 4.94215C115.373 4.77285 115.595 4.49683 115.72 4.5004C115.942 4.50675 116.275 4.63635 116.353 4.80882C116.487 5.10454 116.61 5.11018 116.865 5.0245C116.952 4.99536 117.12 5.05626 117.181 5.13218C117.313 5.29806 117.426 5.49087 117.497 5.69042C117.542 5.81652 117.514 6.097 117.491 6.10009C117.103 6.15115 116.712 6.17212 116.321 6.19348C116.173 6.20158 116.024 6.19395 115.875 6.19348V6.61411C115.79 6.64865 115.656 6.67493 115.557 6.7487C115.189 7.02402 114.822 7.30306 114.474 7.60402C114.236 7.81096 114.028 8.05435 113.811 8.28527C113.572 8.53882 113.318 8.78173 113.108 9.0572C112.927 9.29376 112.796 9.56883 112.646 9.82858C112.609 9.89227 112.584 9.96278 112.554 10.0302C112.482 9.98525 112.397 9.95214 112.339 9.89282C112.234 9.78491 112.159 9.57709 112.047 9.55835C111.382 9.44758 110.719 9.44488 110.158 9.90354C109.748 10.2386 109.547 10.9964 109.816 11.2913C110.22 11.7341 110.605 11.4315 110.976 11.1936C110.987 11.1865 110.997 11.1759 111.009 11.1726C111.093 11.1499 111.177 11.1288 111.26 11.1072C111.26 11.1943 111.243 11.2847 111.261 11.3677C111.29 11.5024 111.317 11.7296 111.388 11.7477C111.714 11.8306 111.764 12.047 111.82 12.33C111.862 12.5438 111.988 12.838 112.156 12.9095C112.48 13.0474 112.853 13.141 113.152 12.7443C113.445 12.3555 113.779 12.3728 114.184 12.6216C114.397 12.7524 114.698 12.8429 114.937 12.8053C115.268 12.7531 115.434 12.8537 115.639 13.0913C115.8 13.2787 116.087 13.3522 116.298 13.5039C116.495 13.6453 116.807 13.8108 116.823 13.9872C116.882 14.6566 117.367 14.8044 117.844 14.8224C118.405 14.8437 118.885 14.9381 119.214 15.4104C119.304 15.5391 119.386 15.8123 119.32 15.8872C118.895 16.374 118.85 16.963 118.782 17.5553C118.732 17.9888 118.48 18.2073 118.036 18.214C117.577 18.221 117.414 18.4352 117.477 18.9026C117.5 19.0687 117.564 19.294 117.485 19.3982C117.004 20.0339 116.712 20.8798 115.763 21.0358C115.68 21.0494 115.589 21.2162 115.564 21.3259C115.533 21.4677 115.559 21.624 115.57 21.7733C115.578 21.8693 115.577 22.0286 115.625 22.0487C115.941 22.1792 115.962 22.3914 115.889 22.6862C115.864 22.7846 115.973 22.9195 116.029 23.0337C116.077 23.1321 116.137 23.2247 116.192 23.3199C116.068 23.3453 115.94 23.4038 115.822 23.3876C115.685 23.3689 115.534 23.3121 115.429 23.2242C114.854 22.7425 114.413 22.196 114.506 21.3674C114.527 21.1771 114.397 20.9728 114.352 20.7714C114.297 20.5262 114.249 20.2786 114.217 20.0297C114.201 19.9015 114.245 19.7661 114.231 19.6372C114.178 19.1455 114.043 18.6512 114.069 18.1651C114.103 17.5403 113.813 17.2062 113.306 16.9612C113.181 16.9006 113.049 16.8176 112.967 16.7092C112.761 16.4368 112.596 16.1332 112.389 15.8618C111.938 15.2723 112.002 14.6354 112.517 14.108C112.651 13.9707 112.681 13.6819 112.666 13.4693C112.658 13.3543 112.459 13.1693 112.336 13.1606C111.856 13.1264 111.579 12.8028 111.223 12.552C110.76 12.2263 110.329 11.7797 109.65 11.8379C108.956 11.8975 108.617 11.5369 108.549 10.8429C108.533 10.6821 108.425 10.5294 108.355 10.375C108.209 10.0542 108.068 9.73122 107.909 9.41677C107.863 9.32489 107.766 9.25866 107.692 9.18068C107.644 9.28892 107.533 9.41637 107.56 9.50197C107.647 9.78816 107.79 10.0571 107.898 10.3378C107.931 10.4253 107.923 10.5292 107.934 10.6256C107.831 10.5938 107.666 10.5903 107.636 10.5254C107.498 10.2197 107.387 9.90013 107.287 9.57924C107.229 9.39405 107.274 9.09667 107.16 9.02314C106.742 8.75203 106.711 8.37532 106.696 7.94119L106.696 7.94103ZM113.645 7.47776C113.746 7.51413 113.876 7.58417 114.01 7.5937C114.048 7.5964 114.156 7.3596 114.135 7.34062C113.819 7.05657 113.512 6.74839 113.148 6.53954C112.983 6.44473 112.698 6.54375 112.472 6.58258C112.43 6.58981 112.398 6.72647 112.383 6.80747C112.359 6.9458 112.342 7.0873 112.34 7.22762C112.339 7.34721 112.364 7.46712 112.378 7.58687C112.486 7.53787 112.619 7.51302 112.698 7.43456C112.839 7.29647 112.947 7.12558 113.069 6.96843L113.202 7.03172C113.16 7.20507 113.115 7.3777 113.077 7.55193C113.06 7.63213 113.02 7.75545 113.056 7.78817C113.111 7.83812 113.253 7.86901 113.303 7.83264C113.429 7.74132 113.525 7.60775 113.645 7.4776L113.645 7.47776Z" fill="#1034F0"/>
<path d="M87.2678 54.9554C80.2411 54.8797 74.5824 49.1868 74.647 42.2941C74.7132 35.2422 80.3748 29.6096 87.3753 29.6605C94.5189 29.7124 100 35.4927 99.942 42.358C99.8823 49.4043 94.1673 55.0297 87.2678 54.9554ZM76.5498 37.5572C76.4471 37.8547 76.3453 38.1524 76.2417 38.4496C75.5411 40.4589 75.357 42.524 75.8219 44.592C76.8347 49.0958 79.541 52.1778 83.9717 53.5007C88.3903 54.82 92.3087 53.6969 95.6404 50.5251C95.9918 50.1906 96.4004 49.9109 96.0748 49.2574C95.786 48.6778 95.6994 47.9976 95.5219 47.3623C95.5115 47.325 95.4921 47.2869 95.4672 47.2573C95.1749 46.9101 95.2126 46.5438 95.4339 46.1908C95.6136 45.9041 95.5708 45.6657 95.4113 45.3827C95.1996 45.007 94.9161 44.6071 94.8939 44.205C94.8632 43.6489 94.8572 43.2159 94.1614 43.196C94.1032 43.1943 94.0479 43.109 93.989 43.106C93.7303 43.0926 93.4329 43.0111 93.2187 43.1077C92.5683 43.4009 91.7534 43.2839 91.2856 42.7555C91.1804 42.6366 91.0764 42.5164 90.9676 42.4008C90.594 42.0039 90.5975 41.5628 90.7657 41.0742C90.8196 40.9177 90.7365 40.718 90.7386 40.5383C90.7402 40.3919 90.7228 40.1934 90.806 40.11C91.0188 39.8968 91.3021 39.7547 91.52 39.5454C91.6612 39.4097 91.8059 39.2139 91.8273 39.0307C91.8684 38.6791 92.0585 38.4808 92.3597 38.4234C93.0309 38.2953 93.7083 38.1893 94.3881 38.1272C94.5298 38.1142 94.7404 38.2993 94.834 38.4471C94.9709 38.6631 95.9984 39.1603 96.2444 39.0663C96.2799 39.0528 96.3199 39.0302 96.3395 38.9999C96.5933 38.6085 96.8753 38.7814 97.1996 38.912C97.5047 39.035 97.8472 39.076 98.1777 39.1187C98.2636 39.1298 98.4155 39.0339 98.452 38.9502C98.5671 38.6864 98.183 38.1665 97.9148 38.0596C97.6866 37.9686 97.4999 37.7639 97.3088 37.5938C97.2199 37.5148 97.1641 37.3984 97.0932 37.299C96.9956 37.3938 96.8957 37.4863 96.8012 37.5842C96.7341 37.6536 96.6745 37.7304 96.6116 37.8039C96.5382 37.7311 96.4451 37.6694 96.3965 37.5827C96.3401 37.4818 96.3567 37.3235 96.2821 37.2523C96.028 37.0096 95.7767 36.7325 95.4683 36.5879C95.2236 36.4731 95.0933 36.6999 95.2455 36.9265C95.3573 37.0929 95.5819 37.1818 95.7014 37.3454C95.7853 37.4604 95.8216 37.6522 95.7919 37.7912C95.7763 37.8647 95.5744 37.8985 95.4565 37.9502C95.7633 37.7219 95.6991 37.5722 95.4521 37.3956C95.2484 37.2498 95.0625 37.0792 94.8609 36.9301C94.7945 36.8811 94.6869 36.819 94.6269 36.8411C94.1919 37.0011 93.7077 37.0902 93.4887 37.5882C93.2971 38.0239 92.922 38.0513 92.5171 38.0002C92.1851 37.9583 92.0871 37.7455 92.0829 37.4429C92.0785 37.1244 92.2521 36.9819 92.5405 36.9591C92.697 36.9467 92.8644 37.0056 93.0121 36.9703C93.1218 36.944 93.3017 36.7634 93.2906 36.7443C93.0022 36.2478 93.3164 36.1187 93.7062 36.0125C93.7867 35.9906 93.8711 35.9136 93.915 35.8391C94.1122 35.5046 94.3991 35.3896 94.7797 35.3917C94.9034 35.3923 95.0281 35.2366 95.1522 35.1523C95.0362 35.0539 94.9195 34.9564 94.8045 34.8568C94.6137 34.6913 94.4138 34.5333 94.2485 34.3451C94.2307 34.325 94.3928 34.0857 94.5114 34.0171C95.1191 33.6659 95.1402 33.5859 94.5755 33.1483C91.7477 30.9567 88.5676 30.178 85.0483 30.8194C83.517 31.0984 82.1144 31.707 80.8208 32.5676C80.7296 32.6282 80.6678 32.7332 80.5924 32.8176C80.6959 32.8613 80.798 32.9087 80.9031 32.9481C81.1864 33.0541 81.4685 33.1647 81.7562 33.2578C81.9413 33.3178 82.1337 33.3656 82.3263 33.3868C82.3961 33.3945 82.4762 33.3092 82.5516 33.2663C82.5036 33.1973 82.4707 33.1034 82.405 33.0637C82.1442 32.9063 81.8732 32.7657 81.5894 32.6097C81.8987 32.3157 82.259 32.07 82.5922 32.3523C82.97 32.6724 83.3009 32.8505 83.7897 32.6103C83.6019 32.7475 83.4055 32.7955 83.2264 32.88C83.137 32.9221 83.006 33.0548 83.0222 33.1047C83.0548 33.2046 83.1803 33.3501 83.2593 33.3452C83.5171 33.329 83.7726 33.2596 84.0263 33.1995C84.2765 33.1403 84.5039 33.0617 84.3438 32.7166C84.3241 32.6741 84.4051 32.5297 84.4557 32.5204C84.5933 32.495 84.7396 32.5167 84.8824 32.5198C84.8665 32.6008 84.8241 32.6875 84.8402 32.7615C84.8718 32.9061 84.936 33.0435 84.9867 33.1839C85.1046 33.1022 85.235 33.0335 85.3369 32.9352C85.4535 32.8227 85.5189 32.6347 85.6515 32.5654C86.1008 32.3307 87.0616 32.5041 87.391 32.886C87.5293 33.0464 87.5996 33.2751 87.6561 33.4848C87.6636 33.5126 87.4046 33.6106 87.2705 33.6789C87.2357 33.6966 87.2022 33.7208 87.1751 33.7488C86.8771 34.0565 86.5861 33.8981 86.2369 33.7438C86.363 33.6595 86.4537 33.6105 86.5303 33.5449C86.6247 33.4639 86.7073 33.3694 86.7951 33.2807C86.6723 33.1924 86.548 33.0285 86.4271 33.0311C86.1593 33.0366 85.8566 33.063 85.6337 33.1932C85.0646 33.5254 84.9225 33.6085 84.38 33.6733C84.2765 33.6857 84.1703 33.7181 84.0771 33.7647C83.8525 33.8771 83.6174 33.9806 83.4199 34.1315C83.2684 34.2472 83.0378 34.4755 83.0721 34.5731C83.1434 34.7763 83.3652 34.9278 83.5287 35.097C83.6717 35.2449 83.8224 35.3853 83.9641 35.5344C84.024 35.5973 84.0694 35.7311 84.122 35.7314C84.2085 35.7319 84.3085 35.6643 84.3794 35.5997C84.5131 35.478 84.6069 35.2735 84.7588 35.2186C85.0946 35.0975 85.1665 34.8805 85.206 34.5584C85.2267 34.3891 85.449 34.113 85.5735 34.1166C85.7957 34.123 86.1281 34.2526 86.2065 34.425C86.3409 34.7208 86.4634 34.7264 86.7185 34.6407C86.8053 34.6116 86.9736 34.6725 87.0342 34.7484C87.1668 34.9143 87.2798 35.1071 87.3509 35.3066C87.3959 35.4327 87.3672 35.7132 87.3442 35.7163C86.957 35.7674 86.5655 35.7883 86.1747 35.8097C86.0263 35.8178 85.877 35.8102 85.7282 35.8097V36.2303C85.6434 36.2649 85.5092 36.2911 85.4105 36.3649C85.0422 36.6402 84.6753 36.9193 84.328 37.2202C84.0892 37.4272 83.8817 37.6706 83.6642 37.9015C83.4255 38.155 83.1718 38.3979 82.9611 38.6734C82.7802 38.91 82.6494 39.185 82.4995 39.4448C82.4628 39.5085 82.4379 39.579 82.4077 39.6464C82.3351 39.6015 82.2505 39.5684 82.1928 39.509C82.0876 39.4011 82.0124 39.1933 81.9001 39.1746C81.2358 39.0638 80.5729 39.0611 80.0114 39.5198C79.601 39.8549 79.4005 40.6127 79.6695 40.9075C80.0735 41.3503 80.4585 41.0477 80.8292 40.8098C80.8403 40.8027 80.8505 40.7921 80.8627 40.7888C80.9462 40.7662 81.03 40.745 81.1138 40.7234C81.113 40.8105 81.0969 40.9009 81.1149 40.9839C81.1439 41.1187 81.1706 41.3458 81.2416 41.3639C81.5673 41.4468 81.6171 41.6632 81.6734 41.9462C81.716 42.16 81.8412 42.4542 82.0092 42.5257C82.3332 42.6636 82.7069 42.7573 83.0054 42.3605C83.2981 41.9717 83.6322 41.989 84.0376 42.2378C84.2508 42.3686 84.5518 42.4591 84.7901 42.4215C85.1215 42.3693 85.2877 42.4699 85.4924 42.7075C85.6538 42.8949 85.9407 42.9684 86.1519 43.1202C86.3486 43.2615 86.6606 43.427 86.6761 43.6034C86.735 44.2728 87.2201 44.4206 87.6977 44.4387C88.2586 44.4599 88.7384 44.5544 89.0674 45.0266C89.1571 45.1553 89.239 45.4285 89.1735 45.5035C88.7483 45.9902 88.7038 46.5792 88.6357 47.1715C88.5858 47.605 88.3331 47.8235 87.8898 47.8302C87.4304 47.8372 87.2678 48.0514 87.3308 48.5189C87.3532 48.6849 87.4178 48.9102 87.3389 49.0144C86.8572 49.6501 86.5658 50.4961 85.6162 50.652C85.5336 50.6656 85.4422 50.8324 85.4178 50.9421C85.3861 51.0839 85.4123 51.2402 85.4238 51.3895C85.4312 51.4855 85.4302 51.6448 85.4789 51.6649C85.7947 51.7954 85.8159 52.0076 85.7424 52.3024C85.7179 52.4008 85.8261 52.5358 85.8821 52.6499C85.9304 52.7483 85.9908 52.8409 86.0458 52.9361C85.9218 52.9615 85.7933 53.02 85.675 53.0038C85.5382 52.9851 85.3872 52.9283 85.2823 52.8404C84.7078 52.3587 84.2669 51.8122 84.3595 50.9836C84.3807 50.7933 84.2503 50.589 84.2053 50.3876C84.1504 50.1424 84.1021 49.8948 84.0705 49.6459C84.0542 49.5177 84.0981 49.3823 84.0842 49.2534C84.0313 48.7617 83.8961 48.2674 83.9227 47.7813C83.9568 47.1565 83.6668 46.8224 83.1598 46.5775C83.0342 46.5168 82.9022 46.4338 82.8202 46.3254C82.6142 46.053 82.4493 45.7494 82.242 45.478C81.7918 44.8885 81.8556 44.2516 82.3705 43.7242C82.5046 43.5869 82.5347 43.2981 82.5196 43.0855C82.5114 42.9705 82.3128 42.7855 82.1898 42.7768C81.7099 42.7426 81.4326 42.4191 81.0762 42.1682C80.6134 41.8425 80.1822 41.3959 79.5031 41.4542C78.8097 41.5137 78.4704 41.1531 78.4025 40.4592C78.3868 40.2984 78.2785 40.1456 78.2085 39.9912C78.0629 39.6704 77.9212 39.3474 77.7629 39.033C77.7166 38.9411 77.6195 38.8749 77.5457 38.7969C77.4977 38.9051 77.3869 39.0326 77.4131 39.1182C77.5005 39.4044 77.643 39.6733 77.7511 39.954C77.7848 40.0415 77.7762 40.1454 77.787 40.2418C77.6844 40.2101 77.5192 40.2065 77.4899 40.1416C77.3518 39.8359 77.2409 39.5163 77.1404 39.1954C77.0824 39.0103 77.1275 38.7129 77.0139 38.6393C76.5952 38.3682 76.5648 37.9915 76.5499 37.5574L76.5498 37.5572ZM83.4986 37.094C83.6 37.1303 83.7296 37.2004 83.8634 37.2099C83.9016 37.2126 84.0098 36.9758 83.9887 36.9568C83.673 36.6728 83.3652 36.3646 83.0018 36.1558C82.8367 36.0609 82.5517 36.16 82.3258 36.1988C82.2836 36.206 82.2512 36.3427 82.2368 36.4237C82.2121 36.562 82.1953 36.7035 82.1939 36.8438C82.1927 36.9634 82.2177 37.0833 82.2311 37.2031C82.3398 37.1541 82.4723 37.1292 82.552 37.0508C82.6923 36.9127 82.8005 36.7418 82.9221 36.5846L83.0552 36.6479C83.0132 36.8213 82.968 36.9939 82.9305 37.1681C82.9131 37.2483 82.874 37.3717 82.9098 37.4044C82.9644 37.4543 83.1062 37.4852 83.1565 37.4488C83.2827 37.3575 83.3784 37.224 83.4987 37.0938L83.4986 37.094Z" fill="#1034F0"/>
<path d="M117.414 54.9554C110.388 54.8797 104.729 49.1868 104.794 42.2941C104.86 35.2422 110.521 29.6096 117.522 29.6605C124.665 29.7124 130.147 35.4927 130.089 42.358C130.029 49.4043 124.314 55.0297 117.414 54.9554ZM106.696 37.5572C106.594 37.8547 106.492 38.1524 106.388 38.4496C105.688 40.4589 105.503 42.524 105.968 44.592C106.981 49.0958 109.687 52.1778 114.118 53.5007C118.537 54.82 122.455 53.6969 125.787 50.5251C126.138 50.1906 126.547 49.9109 126.221 49.2574C125.932 48.6778 125.846 47.9976 125.668 47.3623C125.658 47.325 125.639 47.2869 125.614 47.2573C125.321 46.9101 125.359 46.5438 125.58 46.1908C125.76 45.9041 125.717 45.6657 125.558 45.3827C125.346 45.007 125.063 44.6071 125.04 44.205C125.01 43.6489 125.004 43.2159 124.308 43.196C124.25 43.1943 124.194 43.109 124.136 43.106C123.877 43.0926 123.579 43.0111 123.365 43.1077C122.715 43.4009 121.9 43.2839 121.432 42.7555C121.327 42.6366 121.223 42.5164 121.114 42.4008C120.74 42.0039 120.744 41.5628 120.912 41.0742C120.966 40.9177 120.883 40.718 120.885 40.5383C120.887 40.3919 120.869 40.1934 120.952 40.11C121.165 39.8968 121.449 39.7547 121.666 39.5454C121.808 39.4097 121.952 39.2139 121.974 39.0307C122.015 38.6791 122.205 38.4808 122.506 38.4234C123.177 38.2953 123.855 38.1893 124.535 38.1272C124.676 38.1142 124.887 38.2993 124.98 38.4471C125.117 38.6631 126.145 39.1603 126.391 39.0663C126.426 39.0528 126.466 39.0302 126.486 38.9999C126.74 38.6085 127.022 38.7814 127.346 38.912C127.651 39.035 127.994 39.076 128.324 39.1187C128.41 39.1298 128.562 39.0339 128.598 38.9502C128.714 38.6864 128.329 38.1665 128.061 38.0596C127.833 37.9686 127.646 37.7639 127.455 37.5938C127.366 37.5148 127.311 37.3984 127.24 37.299C127.142 37.3938 127.042 37.4863 126.948 37.5842C126.881 37.6536 126.821 37.7304 126.758 37.8039C126.685 37.7311 126.592 37.6694 126.543 37.5827C126.487 37.4818 126.503 37.3235 126.429 37.2523C126.174 37.0096 125.923 36.7325 125.615 36.5879C125.37 36.4731 125.24 36.6999 125.392 36.9265C125.504 37.0929 125.728 37.1818 125.848 37.3454C125.932 37.4604 125.968 37.6522 125.938 37.7912C125.923 37.8647 125.721 37.8985 125.603 37.9502C125.91 37.7219 125.846 37.5722 125.599 37.3956C125.395 37.2498 125.209 37.0792 125.007 36.9301C124.941 36.8811 124.833 36.819 124.773 36.8411C124.338 37.0011 123.854 37.0902 123.635 37.5882C123.444 38.0239 123.068 38.0513 122.664 38.0002C122.332 37.9583 122.234 37.7455 122.229 37.4429C122.225 37.1244 122.399 36.9819 122.687 36.9591C122.843 36.9467 123.011 37.0056 123.159 36.9703C123.268 36.944 123.448 36.7634 123.437 36.7443C123.149 36.2478 123.463 36.1187 123.853 36.0125C123.933 35.9906 124.018 35.9136 124.062 35.8391C124.259 35.5046 124.546 35.3896 124.926 35.3917C125.05 35.3923 125.175 35.2366 125.299 35.1523C125.183 35.0539 125.066 34.9564 124.951 34.8568C124.76 34.6913 124.56 34.5333 124.395 34.3451C124.377 34.325 124.539 34.0857 124.658 34.0171C125.266 33.6659 125.287 33.5859 124.722 33.1483C121.894 30.9567 118.714 30.178 115.195 30.8194C113.664 31.0984 112.261 31.707 110.967 32.5676C110.876 32.6282 110.814 32.7332 110.739 32.8176C110.842 32.8613 110.945 32.9087 111.05 32.9481C111.333 33.0541 111.615 33.1647 111.903 33.2578C112.088 33.3178 112.28 33.3656 112.473 33.3868C112.543 33.3945 112.623 33.3092 112.698 33.2663C112.65 33.1973 112.617 33.1034 112.552 33.0637C112.291 32.9063 112.02 32.7657 111.736 32.6097C112.045 32.3157 112.405 32.07 112.739 32.3523C113.116 32.6724 113.447 32.8505 113.936 32.6103C113.748 32.7475 113.552 32.7955 113.373 32.88C113.283 32.9221 113.152 33.0548 113.169 33.1047C113.201 33.2046 113.327 33.3501 113.406 33.3452C113.664 33.329 113.919 33.2596 114.173 33.1995C114.423 33.1403 114.65 33.0617 114.49 32.7166C114.471 32.6741 114.552 32.5297 114.602 32.5204C114.74 32.495 114.886 32.5167 115.029 32.5198C115.013 32.6008 114.971 32.6875 114.987 32.7615C115.018 32.9061 115.083 33.0435 115.133 33.1839C115.251 33.1022 115.381 33.0335 115.483 32.9352C115.6 32.8227 115.665 32.6347 115.798 32.5654C116.247 32.3307 117.208 32.5041 117.537 32.886C117.676 33.0464 117.746 33.2751 117.803 33.4848C117.81 33.5126 117.551 33.6106 117.417 33.6789C117.382 33.6966 117.349 33.7208 117.322 33.7488C117.024 34.0565 116.733 33.8981 116.383 33.7438C116.509 33.6595 116.6 33.6105 116.677 33.5449C116.771 33.4639 116.854 33.3694 116.942 33.2807C116.819 33.1924 116.694 33.0285 116.574 33.0311C116.306 33.0366 116.003 33.063 115.78 33.1932C115.211 33.5254 115.069 33.6085 114.526 33.6733C114.423 33.6857 114.317 33.7181 114.224 33.7647C113.999 33.8771 113.764 33.9806 113.566 34.1315C113.415 34.2472 113.184 34.4755 113.219 34.5731C113.29 34.7763 113.512 34.9278 113.675 35.097C113.818 35.2449 113.969 35.3853 114.111 35.5344C114.171 35.5973 114.216 35.7311 114.268 35.7314C114.355 35.7319 114.455 35.6643 114.526 35.5997C114.66 35.478 114.753 35.2735 114.905 35.2186C115.241 35.0975 115.313 34.8805 115.353 34.5584C115.373 34.3891 115.595 34.113 115.72 34.1166C115.942 34.123 116.275 34.2526 116.353 34.425C116.487 34.7208 116.61 34.7264 116.865 34.6407C116.952 34.6116 117.12 34.6725 117.181 34.7484C117.313 34.9143 117.426 35.1071 117.497 35.3066C117.542 35.4327 117.514 35.7132 117.491 35.7163C117.103 35.7674 116.712 35.7883 116.321 35.8097C116.173 35.8178 116.024 35.8102 115.875 35.8097V36.2303C115.79 36.2649 115.656 36.2911 115.557 36.3649C115.189 36.6402 114.822 36.9193 114.474 37.2202C114.236 37.4272 114.028 37.6706 113.811 37.9015C113.572 38.155 113.318 38.3979 113.108 38.6734C112.927 38.91 112.796 39.185 112.646 39.4448C112.609 39.5085 112.584 39.579 112.554 39.6464C112.482 39.6015 112.397 39.5684 112.339 39.509C112.234 39.4011 112.159 39.1933 112.047 39.1746C111.382 39.0638 110.719 39.0611 110.158 39.5198C109.748 39.8549 109.547 40.6127 109.816 40.9075C110.22 41.3503 110.605 41.0477 110.976 40.8098C110.987 40.8027 110.997 40.7921 111.009 40.7888C111.093 40.7662 111.177 40.745 111.26 40.7234C111.26 40.8105 111.243 40.9009 111.261 40.9839C111.29 41.1187 111.317 41.3458 111.388 41.3639C111.714 41.4468 111.764 41.6632 111.82 41.9462C111.862 42.16 111.988 42.4542 112.156 42.5257C112.48 42.6636 112.853 42.7573 113.152 42.3605C113.445 41.9717 113.779 41.989 114.184 42.2378C114.397 42.3686 114.698 42.4591 114.937 42.4215C115.268 42.3693 115.434 42.4699 115.639 42.7075C115.8 42.8949 116.087 42.9684 116.298 43.1202C116.495 43.2615 116.807 43.427 116.823 43.6034C116.882 44.2728 117.367 44.4206 117.844 44.4387C118.405 44.4599 118.885 44.5544 119.214 45.0266C119.304 45.1553 119.386 45.4285 119.32 45.5035C118.895 45.9902 118.85 46.5792 118.782 47.1715C118.732 47.605 118.48 47.8235 118.036 47.8302C117.577 47.8372 117.414 48.0514 117.477 48.5189C117.5 48.6849 117.564 48.9102 117.485 49.0144C117.004 49.6501 116.712 50.4961 115.763 50.652C115.68 50.6656 115.589 50.8324 115.564 50.9421C115.533 51.0839 115.559 51.2402 115.57 51.3895C115.578 51.4855 115.577 51.6448 115.625 51.6649C115.941 51.7954 115.962 52.0076 115.889 52.3024C115.864 52.4008 115.973 52.5358 116.029 52.6499C116.077 52.7483 116.137 52.8409 116.192 52.9361C116.068 52.9615 115.94 53.02 115.822 53.0038C115.685 52.9851 115.534 52.9283 115.429 52.8404C114.854 52.3587 114.413 51.8122 114.506 50.9836C114.527 50.7933 114.397 50.589 114.352 50.3876C114.297 50.1424 114.249 49.8948 114.217 49.6459C114.201 49.5177 114.245 49.3823 114.231 49.2534C114.178 48.7617 114.043 48.2674 114.069 47.7813C114.103 47.1565 113.813 46.8224 113.306 46.5775C113.181 46.5168 113.049 46.4338 112.967 46.3254C112.761 46.053 112.596 45.7494 112.389 45.478C111.938 44.8885 112.002 44.2516 112.517 43.7242C112.651 43.5869 112.681 43.2981 112.666 43.0855C112.658 42.9705 112.459 42.7855 112.336 42.7768C111.856 42.7426 111.579 42.4191 111.223 42.1682C110.76 41.8425 110.329 41.3959 109.65 41.4542C108.956 41.5137 108.617 41.1531 108.549 40.4592C108.533 40.2984 108.425 40.1456 108.355 39.9912C108.209 39.6704 108.068 39.3474 107.909 39.033C107.863 38.9411 107.766 38.8749 107.692 38.7969C107.644 38.9051 107.533 39.0326 107.56 39.1182C107.647 39.4044 107.79 39.6733 107.898 39.954C107.931 40.0415 107.923 40.1454 107.934 40.2418C107.831 40.2101 107.666 40.2065 107.636 40.1416C107.498 39.8359 107.387 39.5163 107.287 39.1954C107.229 39.0103 107.274 38.7129 107.16 38.6393C106.742 38.3682 106.711 37.9915 106.696 37.5574L106.696 37.5572ZM113.645 37.094C113.746 37.1303 113.876 37.2004 114.01 37.2099C114.048 37.2126 114.156 36.9758 114.135 36.9568C113.819 36.6728 113.512 36.3646 113.148 36.1558C112.983 36.0609 112.698 36.16 112.472 36.1988C112.43 36.206 112.398 36.3427 112.383 36.4237C112.359 36.562 112.342 36.7035 112.34 36.8438C112.339 36.9634 112.364 37.0833 112.378 37.2031C112.486 37.1541 112.619 37.1292 112.698 37.0508C112.839 36.9127 112.947 36.7418 113.069 36.5846L113.202 36.6479C113.16 36.8213 113.115 36.9939 113.077 37.1681C113.06 37.2483 113.02 37.3717 113.056 37.4044C113.111 37.4543 113.253 37.4852 113.303 37.4488C113.429 37.3575 113.525 37.224 113.645 37.0938L113.645 37.094Z" fill="#1034F0"/>
<defs>
<clipPath id="clip0_220_6875">
<rect width="46.6515" height="46.6515" fill="white" transform="translate(0 4.17432)"/>
</clipPath>
<clipPath id="clip1_220_6875">
<rect width="11.7396" height="7.22439" fill="white" transform="translate(54.7793 23.8877)"/>
</clipPath>
</defs>
</svg>
