<svg width="920" height="334" viewBox="0 0 920 334" fill="none" xmlns="http://www.w3.org/2000/svg">
<path d="M118.638 166.638C118.638 228.846 68.2082 279.276 6 279.276C6 279.276 6 201.09 6 138.882C6 76.6739 6 54 6 54C68.2082 54 118.638 104.43 118.638 166.638Z" fill="white"/>
<circle cx="161.926" cy="166.638" r="2.51" fill="#FEC14C"/>
<circle cx="211.672" cy="166.638" r="6.45695" fill="#FEC14C"/>
<circle cx="265.722" cy="166.638" r="6.81567" fill="#FEC14C"/>
<circle cx="316.545" cy="166.638" r="3.22848" fill="#FEC14C"/>
<circle cx="436.243" cy="166.638" r="75.6898" fill="#FEC14C"/>
<circle cx="615.128" cy="166.638" r="62.4172" fill="#FEC14C"/>
<path d="M619.499 104.087C585.085 101.776 555.314 127.8 553.003 162.214C550.692 196.627 576.716 226.399 611.13 228.71C645.544 231.021 675.315 204.997 677.626 170.583C679.937 136.169 653.913 106.398 619.499 104.087Z" fill="#FEC14C"/>
<path d="M551.766 151.264C542.12 137.142 532.75 122.14 527.036 105.923C524.729 99.3776 520.209 86.6825 526.953 81.1107C532.335 76.6637 541.274 79.9346 546.818 82.2068C558.487 86.9886 569.075 94.5239 578.976 102.223C607.977 124.773 633.442 152.683 654.999 182.338C664.598 195.544 673.577 209.359 680.631 224.112C684.812 232.86 689.726 243.388 689.06 253.364C688.874 256.166 688.047 259.079 685.806 260.944C682.866 263.389 678.549 263.294 675 262.671C668.983 261.617 663.171 258.889 657.844 255.994C650.514 252.006 643.591 247.278 636.93 242.266C632.913 239.241 628.987 236.097 625.141 232.857C621.701 229.958 621.325 235.605 623.555 237.485C637.016 248.827 651.706 260.445 668.35 266.741C675.983 269.628 687.736 272.158 692.158 263.006C696.166 254.712 692.633 243.522 689.732 235.473C684.336 220.504 676.22 206.538 667.521 193.272C645.631 159.891 618.408 129.107 587.826 103.441C576.514 93.948 564.503 84.9183 551.226 78.3385C544.154 74.8325 534.238 70.4236 526.277 73.5994C517.543 77.0819 518.432 88.7418 520.006 96.1915C523.413 112.307 531.903 127.4 540.445 141.287C543.218 145.795 546.12 150.219 549.102 154.589C549.758 155.55 551.296 156.826 552.356 155.684C553.403 154.559 552.455 152.277 551.764 151.267L551.766 151.264Z" fill="url(#paint0_radial_220_7196)"/>
<path d="M555.104 140.092C552.097 135.534 524.622 94.2593 539.571 91.7901C545.417 90.8246 552.191 94.9601 556.957 97.7667C566.463 103.371 575.202 110.318 583.515 117.54C606.286 137.325 626.833 160.002 644.96 184.087C652.824 194.536 660.337 205.346 666.745 216.757C670.952 224.248 675.466 232.437 677.031 240.991C677.453 243.298 677.733 246.07 676.707 247.93C675.231 250.609 671.858 250.604 669.21 250.096C663.942 249.087 658.954 246.243 654.434 243.485C647.309 239.139 640.655 234.048 634.213 228.753C633.024 227.777 631.844 228.68 631.677 229.981C631.46 231.658 632.572 233.357 633.797 234.363C639.449 239.008 679.389 271.659 681.966 248.99C682.875 240.993 678.958 232.372 675.67 225.337C670.065 213.347 662.844 202.079 655.257 191.262C636.196 164.089 613.857 138.688 589.161 116.503C580.016 108.288 570.453 100.335 560.031 93.7772C553.989 89.9761 546.391 85.2224 538.955 85.2651C530.188 85.3143 530.041 94.7752 531.471 101.282C534.802 116.45 544.022 130.64 552.442 143.412C553.084 144.385 554.643 145.639 555.696 144.508C556.754 143.371 555.781 141.115 555.104 140.09L555.104 140.092Z" fill="url(#paint1_radial_220_7196)"/>
<circle cx="745.944" cy="166.638" r="27.6214" fill="#FEC14C"/>
<circle cx="840.172" cy="166.638" r="25.8278" fill="#FEC14C"/>
<g clip-path="url(#clip0_220_7196)">
<path d="M597.592 77.5662C601.003 81.5206 604.486 85.4077 608.026 89.243C608.963 90.2627 610.221 89.9211 611.235 89.1965C615.086 86.4532 618.911 83.6841 622.716 80.8839C624.061 79.8954 624.351 78.4461 623.445 77.385C622.384 76.1428 621.178 76.1325 619.874 77.09C617.964 78.4927 614.802 81.0237 612.297 82.9181C614.006 57.7927 623.452 41.7194 632.389 31.9623C632.824 31.527 633.507 29.673 632.401 28.5664C631.294 27.4598 629.511 28.1989 628.823 28.8868C620.257 38.2655 609.683 55.0458 607.7 81.914C605.863 79.8384 603.663 77.3126 602.25 75.7443C601.883 75.3354 601.531 74.9058 601.132 74.5279C600.071 73.5238 598.881 73.4772 597.814 74.4037C596.758 75.3147 596.779 76.6242 597.592 77.5662Z" fill="#FEC14C"/>
</g>
<rect x="3.13024" y="3.13024" width="913.74" height="327.015" stroke="#FEC14C" stroke-width="5.73951"/>
<defs>
<radialGradient id="paint0_radial_220_7196" cx="0" cy="0" r="1" gradientUnits="userSpaceOnUse" gradientTransform="translate(606.454 170.968) rotate(-100.82) scale(91.33 91.33)">
<stop stop-color="#F9CD78"/>
<stop offset="1" stop-color="#FFC82A"/>
</radialGradient>
<radialGradient id="paint1_radial_220_7196" cx="0" cy="0" r="1" gradientUnits="userSpaceOnUse" gradientTransform="translate(606.475 171.103) rotate(-100.82) scale(79.2238 79.2238)">
<stop stop-color="#F9CD78"/>
<stop offset="1" stop-color="#FFC82A"/>
</radialGradient>
<clipPath id="clip0_220_7196">
<rect width="36" height="61.8816" fill="white" transform="matrix(-1 0 0 1 633 28)"/>
</clipPath>
</defs>
</svg>
