<svg width="181" height="203" viewBox="0 0 181 203" fill="none" xmlns="http://www.w3.org/2000/svg">
<path d="M103.497 34.2041C69.0835 31.893 39.3121 57.9173 37.0011 92.331C34.69 126.745 60.7143 156.516 95.128 158.827C129.542 161.138 159.313 135.114 161.624 100.7C163.935 66.2865 137.911 36.5152 103.497 34.2041Z" fill="#FEC14C"/>
<path d="M35.7639 81.3815C26.1183 67.2593 16.7485 52.2573 11.0344 36.0402C8.72734 29.4948 4.20747 16.7997 10.9513 11.2279C16.333 6.78092 25.2716 10.0517 30.8159 12.324C42.485 17.1058 53.0727 24.6411 62.9745 32.3402C91.9746 54.8901 117.441 82.8001 138.997 112.455C148.596 125.661 157.575 139.476 164.629 154.229C168.81 162.977 173.724 173.505 173.058 183.481C172.872 186.283 172.045 189.196 169.804 191.062C166.864 193.507 162.547 193.411 158.998 192.788C152.981 191.735 147.169 189.006 141.842 186.111C134.512 182.124 127.589 177.395 120.928 172.383C116.911 169.358 112.985 166.214 109.139 162.974C105.699 160.076 105.323 165.722 107.554 167.602C121.014 178.944 135.704 190.562 152.348 196.858C159.981 199.745 171.734 202.275 176.156 193.123C180.164 184.829 176.631 173.639 173.73 165.59C168.334 150.621 160.218 136.655 151.519 123.389C129.629 90.0083 102.406 59.2237 71.8244 33.5578C60.512 24.0651 48.5008 15.0355 35.224 8.45574C28.1518 4.9497 18.2363 0.540755 10.2751 3.71659C1.54077 7.19908 2.43041 18.859 4.00374 26.3087C7.41096 42.4246 15.901 57.5176 24.4432 71.4044C27.216 75.9121 30.1178 80.3367 33.1002 84.7061C33.7559 85.6673 35.2942 86.9435 36.3541 85.8016C37.4007 84.6763 36.453 82.3947 35.7621 81.3841L35.7639 81.3815Z" fill="url(#paint0_radial_202_6971)"/>
<path d="M39.1024 70.2095C36.0955 65.6508 8.61977 24.3765 23.5691 21.9073C29.4152 20.9418 36.1895 25.0773 40.9551 27.8839C50.4611 33.488 59.2003 40.435 67.5132 47.6573C90.2837 67.442 110.831 90.1189 128.958 114.205C136.822 124.653 144.335 135.463 150.743 146.875C154.95 154.365 159.464 162.554 161.029 171.108C161.451 173.416 161.731 176.187 160.705 178.047C159.229 180.726 155.856 180.721 153.208 180.213C147.94 179.204 142.952 176.36 138.432 173.602C131.307 169.256 124.653 164.165 118.211 158.87C117.022 157.894 115.842 158.797 115.675 160.098C115.458 161.775 116.57 163.474 117.795 164.48C123.447 169.125 163.387 201.776 165.964 179.107C166.873 171.111 162.956 162.49 159.668 155.454C154.063 143.464 146.842 132.197 139.255 121.38C120.194 94.2058 97.8554 68.8057 73.1588 46.6203C64.0136 38.4051 54.4511 30.452 44.0292 23.8944C37.9871 20.0933 30.389 15.3396 22.9529 15.3822C14.1862 15.4315 14.0387 24.8924 15.4693 31.3996C18.8004 46.5674 28.0197 60.757 36.44 73.5292C37.0816 74.5024 38.6413 75.7558 39.6939 74.6247C40.7523 73.4878 39.7791 71.2321 39.1019 70.2073L39.1024 70.2095Z" fill="url(#paint1_radial_202_6971)"/>
<defs>
<radialGradient id="paint0_radial_202_6971" cx="0" cy="0" r="1" gradientUnits="userSpaceOnUse" gradientTransform="translate(90.4525 101.085) rotate(-100.82) scale(91.33 91.33)">
<stop stop-color="#F9CD78"/>
<stop offset="1" stop-color="#FFC82A"/>
</radialGradient>
<radialGradient id="paint1_radial_202_6971" cx="0" cy="0" r="1" gradientUnits="userSpaceOnUse" gradientTransform="translate(90.4728 101.22) rotate(-100.82) scale(79.2238 79.2238)">
<stop stop-color="#F9CD78"/>
<stop offset="1" stop-color="#FFC82A"/>
</radialGradient>
</defs>
</svg>
