<svg width="124" height="55" viewBox="0 0 124 55" fill="none" xmlns="http://www.w3.org/2000/svg">
<path d="M60.4242 33.3489C63.3556 22.197 56.6493 10.7913 45.4452 7.87361C34.2411 4.95587 22.7821 11.631 19.8507 22.7828C16.9193 33.9347 23.6257 45.3404 34.8297 48.2581C46.0338 51.1759 57.4928 44.5008 60.4242 33.3489Z" fill="url(#paint0_radial_220_6810)"/>
<path d="M49.1352 8.15425C54.4008 5.87392 59.9391 3.73932 65.6477 2.88104C67.9518 2.53435 72.4236 1.84711 73.8361 4.41046C74.9635 6.45608 73.3213 9.18512 72.2225 10.8626C69.9099 14.3931 66.7573 17.396 63.594 20.1634C54.3291 28.2684 43.5191 34.877 32.3801 40.0926C27.4197 42.4152 22.2975 44.4961 16.9873 45.8859C13.8386 46.7097 10.0565 47.6623 6.80844 46.8178C5.89605 46.5808 4.98751 46.1267 4.51359 45.2738C3.89249 44.1555 4.19612 42.7442 4.62535 41.6182C5.35202 39.7092 6.61811 37.9726 7.90887 36.4056C9.68587 34.2495 11.6817 32.2737 13.7546 30.4015C15.0053 29.2724 16.2899 28.1809 17.6007 27.1217C18.7736 26.1744 16.9349 25.6966 16.1743 26.311C11.5854 30.0179 6.82772 34.1115 3.70217 39.1799C2.26885 41.5047 0.693742 45.204 3.43323 47.2297C5.9161 49.0659 9.82921 48.608 12.6666 48.1609C17.9436 47.3287 23.0612 45.5407 27.9846 43.5174C40.3735 38.4259 52.2423 31.4208 62.6346 22.9921C66.4784 19.8742 70.2135 16.4978 73.2204 12.5523C74.8225 10.4507 76.9015 7.47237 76.3559 4.65974C75.758 1.57405 71.8564 1.13455 69.3003 1.18364C63.7705 1.29102 58.2576 3.13109 53.1393 5.06396C51.4779 5.69138 49.8357 6.36635 48.2067 7.07123C47.8483 7.22617 47.3305 7.65109 47.6403 8.07065C47.9454 8.48483 48.7577 8.31686 49.1345 8.15349L49.1352 8.15425Z" fill="url(#paint1_radial_220_6810)"/>
<path d="M52.6077 9.95148C54.3007 9.25043 69.6449 2.82057 69.517 7.88285C69.4669 9.86251 67.676 11.8268 66.45 13.2151C64.0026 15.984 61.1606 18.417 58.2546 20.6927C50.2943 26.9262 41.5203 32.2485 32.4341 36.688C28.4925 38.614 24.4538 40.4019 20.2864 41.7894C17.5507 42.7006 14.5654 43.6686 11.6456 43.6456C10.8581 43.6394 9.92639 43.5573 9.37772 43.104C8.58709 42.4513 8.80132 41.3445 9.13576 40.5069C9.80079 38.841 11.053 37.3821 12.2474 36.0713C14.13 34.005 16.2284 32.1404 18.3807 30.3578C18.7775 30.0288 18.5541 29.5847 18.1356 29.4482C17.5962 29.2718 16.9658 29.5302 16.5567 29.8693C14.6687 31.4332 1.38276 42.4958 8.69654 44.7639C11.2765 45.5639 14.3666 44.8191 16.8942 44.1809C21.2018 43.0933 25.3731 41.4297 29.4188 39.618C39.5822 35.0658 49.3673 29.3262 58.2408 22.611C61.5266 20.1244 64.7523 17.4843 67.572 14.4745C69.2064 12.7296 71.2531 10.5336 71.7078 8.08993C72.2441 5.20904 69.1332 4.56705 66.8969 4.62841C61.6846 4.7703 56.4237 6.90644 51.6807 8.86922C51.3192 9.01879 50.8076 9.45215 51.1143 9.86864C51.4225 10.2874 52.2278 10.1095 52.6084 9.95148H52.6077Z" fill="url(#paint2_radial_220_6810)"/>
<g clip-path="url(#clip0_220_6810)">
<path d="M70.6004 26.2631C70.1197 26.2152 69.7364 26.4253 69.3608 26.6828C68.2419 27.4496 67.0704 27.424 65.9847 26.6288C65.7508 26.4574 65.6153 26.2651 65.7972 25.9918C65.9533 25.7573 66.1984 25.7461 66.5069 25.9446C67.4408 26.5457 68.0422 26.5366 68.9742 25.9075C70.0656 25.1708 71.314 25.2156 72.3513 26.024C72.5767 26.1996 72.6696 26.4051 72.4858 26.6431C72.3055 26.8766 72.0723 26.8765 71.8329 26.7078C71.4655 26.4488 71.0865 26.2177 70.6004 26.2631V26.2631Z" fill="#FEC14C"/>
<path d="M67.606 29.6142C67.0333 29.6349 66.4434 29.3683 65.9124 28.9574C65.6993 28.7925 65.6322 28.5828 65.8063 28.3594C65.9764 28.1411 66.206 28.1145 66.4297 28.2774C66.8472 28.5815 67.2974 28.8397 67.8306 28.7327C68.2103 28.6565 68.6011 28.5133 68.9227 28.3072C70.0575 27.5798 71.1879 27.5775 72.2779 28.3546C72.5801 28.57 72.6547 28.7941 72.4973 29.0133C72.3353 29.2389 72.0898 29.2549 71.7845 29.0597C70.8452 28.4591 70.2407 28.4617 69.3185 29.097C68.8405 29.4263 68.3202 29.609 67.606 29.6142Z" fill="#FEC14C"/>
</g>
<path d="M84.2222 21.9267C80.3916 21.8855 77.3068 18.782 77.3421 15.0245C77.3782 11.1802 80.4646 8.10965 84.2808 8.13739C88.1751 8.1657 91.1631 11.3168 91.1314 15.0593C91.0989 18.9006 87.9834 21.9672 84.2222 21.9267ZM78.3793 12.4422C78.3234 12.6044 78.2679 12.7667 78.2114 12.9287C77.8295 14.0241 77.7291 15.1498 77.9826 16.2772C78.5347 18.7324 80.01 20.4125 82.4254 21.1337C84.8341 21.8529 86.9702 21.2407 88.7864 19.5116C88.978 19.3292 89.2008 19.1767 89.0233 18.8205C88.8658 18.5045 88.8186 18.1337 88.7218 17.7874C88.7162 17.7671 88.7056 17.7463 88.692 17.7301C88.5327 17.5409 88.5532 17.3412 88.6739 17.1488C88.7718 16.9924 88.7485 16.8625 88.6616 16.7082C88.5462 16.5034 88.3916 16.2854 88.3795 16.0662C88.3628 15.7631 88.3595 15.527 87.9802 15.5162C87.9485 15.5152 87.9183 15.4688 87.8862 15.4671C87.7452 15.4598 87.583 15.4154 87.4663 15.468C87.1117 15.6279 86.6675 15.5641 86.4125 15.276C86.3551 15.2112 86.2984 15.1457 86.2391 15.0827C86.0355 14.8663 86.0374 14.6258 86.1291 14.3595C86.1584 14.2741 86.1131 14.1653 86.1143 14.0674C86.1152 13.9875 86.1056 13.8793 86.151 13.8339C86.267 13.7176 86.4215 13.6402 86.5402 13.5261C86.6172 13.4521 86.6961 13.3453 86.7078 13.2455C86.7302 13.0538 86.8338 12.9457 86.998 12.9144C87.3639 12.8446 87.7332 12.7868 88.1038 12.7529C88.181 12.7459 88.2958 12.8468 88.3469 12.9273C88.4215 13.0451 88.9816 13.3162 89.1157 13.2649C89.1351 13.2575 89.1569 13.2452 89.1676 13.2287C89.3059 13.0153 89.4596 13.1096 89.6364 13.1808C89.8028 13.2478 89.9894 13.2702 90.1696 13.2934C90.2165 13.2995 90.2993 13.2472 90.3192 13.2016C90.3819 13.0578 90.1725 12.7744 90.0263 12.7161C89.9019 12.6665 89.8001 12.5549 89.696 12.4622C89.6475 12.4191 89.6171 12.3557 89.5784 12.3015C89.5252 12.3531 89.4708 12.4036 89.4193 12.4569C89.3827 12.4948 89.3502 12.5366 89.3159 12.5767C89.2759 12.537 89.2251 12.5034 89.1987 12.4561C89.1679 12.4011 89.1769 12.3148 89.1363 12.276C88.9977 12.1437 88.8607 11.9926 88.6927 11.9138C88.5592 11.8513 88.4882 11.9749 88.5712 12.0984C88.6321 12.1891 88.7546 12.2376 88.8197 12.3267C88.8655 12.3894 88.8852 12.494 88.8691 12.5698C88.8605 12.6099 88.7505 12.6282 88.6862 12.6565C88.8534 12.532 88.8184 12.4504 88.6838 12.3541C88.5728 12.2746 88.4714 12.1816 88.3615 12.1004C88.3253 12.0736 88.2667 12.0398 88.2339 12.0518C87.9968 12.1391 87.7329 12.1877 87.6135 12.4591C87.509 12.6966 87.3045 12.7116 87.0838 12.6837C86.9028 12.6608 86.8494 12.5449 86.8471 12.3799C86.8447 12.2063 86.9393 12.1286 87.0966 12.1162C87.1819 12.1094 87.2731 12.1415 87.3536 12.1222C87.4135 12.1079 87.5115 12.0095 87.5055 11.9991C87.3483 11.7284 87.5196 11.6581 87.732 11.6001C87.7759 11.5882 87.8219 11.5462 87.8459 11.5056C87.9534 11.3233 88.1098 11.2606 88.3172 11.2617C88.3847 11.262 88.4526 11.1772 88.5203 11.1312C88.4571 11.0775 88.3935 11.0244 88.3308 10.9701C88.2267 10.8799 88.1178 10.7937 88.0277 10.6912C88.018 10.6802 88.1063 10.5498 88.171 10.5124C88.5023 10.3209 88.5138 10.2773 88.2059 10.0387C86.6644 8.844 84.9308 8.41951 83.0122 8.76915C82.1775 8.92127 81.4129 9.25304 80.7077 9.72216C80.658 9.75524 80.6243 9.81247 80.5832 9.85844C80.6396 9.88229 80.6953 9.90813 80.7525 9.92961C80.907 9.9874 81.0608 10.0477 81.2176 10.0984C81.3185 10.1311 81.4234 10.1572 81.5284 10.1688C81.5665 10.173 81.6101 10.1264 81.6512 10.1031C81.625 10.0654 81.6071 10.0142 81.5713 9.99264C81.4291 9.90679 81.2814 9.83017 81.1267 9.74515C81.2953 9.58485 81.4917 9.45092 81.6733 9.60481C81.8793 9.77931 82.0597 9.8764 82.3262 9.74545C82.2238 9.82026 82.1167 9.8464 82.0191 9.89246C81.9703 9.91545 81.8989 9.98779 81.9077 10.015C81.9255 10.0694 81.994 10.1487 82.037 10.1461C82.1775 10.1373 82.3168 10.0994 82.4551 10.0667C82.5915 10.0344 82.7155 9.99155 82.6282 9.80338C82.6175 9.78022 82.6616 9.70152 82.6892 9.69645C82.7642 9.6826 82.844 9.69442 82.9218 9.6961C82.9132 9.74026 82.8901 9.78753 82.8988 9.82788C82.916 9.90671 82.9511 9.9816 82.9787 10.0581C83.0429 10.0136 83.114 9.97614 83.1696 9.92259C83.2332 9.86125 83.2688 9.75874 83.3411 9.721C83.586 9.59303 84.1098 9.68758 84.2893 9.89575C84.3648 9.9832 84.4031 10.1079 84.4339 10.2222C84.4379 10.2373 84.2968 10.2908 84.2237 10.328C84.2047 10.3376 84.1864 10.3509 84.1716 10.3661C84.0092 10.5338 83.8506 10.4475 83.6602 10.3634C83.7289 10.3174 83.7784 10.2907 83.8201 10.2549C83.8716 10.2108 83.9167 10.1593 83.9645 10.1109C83.8976 10.0628 83.8298 9.97346 83.7639 9.97484C83.6179 9.97787 83.4529 9.99225 83.3314 10.0632C83.0212 10.2443 82.9437 10.2896 82.6479 10.325C82.5915 10.3317 82.5336 10.3494 82.4828 10.3748C82.3604 10.436 82.2322 10.4925 82.1245 10.5747C82.042 10.6378 81.9163 10.7623 81.9349 10.8155C81.9738 10.9262 82.0947 11.0088 82.1839 11.1011C82.2618 11.1817 82.344 11.2582 82.4212 11.3395C82.4539 11.3738 82.4786 11.4467 82.5073 11.4469C82.5544 11.4471 82.6089 11.4103 82.6476 11.3751C82.7205 11.3088 82.7716 11.1973 82.8545 11.1674C83.0375 11.1014 83.0767 10.983 83.0982 10.8074C83.1095 10.7151 83.2307 10.5647 83.2986 10.5666C83.4197 10.5701 83.6009 10.6407 83.6436 10.7347C83.7169 10.8959 83.7837 10.899 83.9228 10.8523C83.9701 10.8364 84.0618 10.8696 84.0949 10.911C84.1671 11.0014 84.2287 11.1066 84.2675 11.2153C84.292 11.2841 84.2764 11.437 84.2638 11.4387C84.0527 11.4665 83.8394 11.4779 83.6263 11.4896C83.5454 11.494 83.464 11.4898 83.3829 11.4896V11.7189C83.3367 11.7377 83.2635 11.752 83.2097 11.7923C83.009 11.9423 82.8089 12.0945 82.6196 12.2585C82.4894 12.3713 82.3763 12.504 82.2577 12.6299C82.1276 12.7681 81.9893 12.9005 81.8744 13.0507C81.7758 13.1797 81.7045 13.3296 81.6228 13.4712C81.6028 13.5059 81.5892 13.5444 81.5727 13.5811C81.5332 13.5566 81.4871 13.5386 81.4556 13.5062C81.3983 13.4474 81.3573 13.3341 81.296 13.3239C80.9339 13.2635 80.5725 13.262 80.2664 13.5121C80.0427 13.6948 79.9334 14.1079 80.08 14.2686C80.3003 14.51 80.5101 14.3451 80.7122 14.2154C80.7183 14.2115 80.7239 14.2057 80.7305 14.2039C80.776 14.1915 80.8217 14.18 80.8674 14.1683C80.867 14.2157 80.8582 14.265 80.868 14.3102C80.8838 14.3837 80.8984 14.5076 80.9371 14.5174C81.1146 14.5626 81.1418 14.6806 81.1725 14.8348C81.1957 14.9514 81.2639 15.1118 81.3555 15.1507C81.5322 15.2259 81.7358 15.277 81.8986 15.0607C82.0582 14.8487 82.2403 14.8582 82.4613 14.9938C82.5775 15.0651 82.7416 15.1144 82.8715 15.094C83.0522 15.0655 83.1428 15.1203 83.2544 15.2499C83.3423 15.352 83.4987 15.3921 83.6139 15.4748C83.7211 15.5519 83.8912 15.6421 83.8996 15.7383C83.9318 16.1032 84.1962 16.1838 84.4566 16.1936C84.7623 16.2051 85.0239 16.2567 85.2032 16.5141C85.2521 16.5843 85.2968 16.7332 85.2611 16.774C85.0293 17.0394 85.005 17.3605 84.9679 17.6834C84.9407 17.9197 84.8029 18.0388 84.5613 18.0425C84.3109 18.0463 84.2222 18.1631 84.2566 18.4179C84.2688 18.5084 84.304 18.6312 84.261 18.688C83.9984 19.0346 83.8395 19.4957 83.3218 19.5807C83.2768 19.5881 83.227 19.6791 83.2137 19.7389C83.1964 19.8162 83.2107 19.9014 83.217 19.9828C83.221 20.0351 83.2205 20.1219 83.247 20.1329C83.4192 20.2041 83.4307 20.3197 83.3906 20.4804C83.3773 20.5341 83.4363 20.6076 83.4668 20.6699C83.4931 20.7235 83.526 20.774 83.5561 20.8259C83.4885 20.8398 83.4184 20.8716 83.3539 20.8628C83.2793 20.8526 83.197 20.8217 83.1398 20.7737C82.8266 20.5112 82.5863 20.2132 82.6367 19.7615C82.6484 19.6578 82.5773 19.5464 82.5527 19.4366C82.5228 19.303 82.4965 19.168 82.4792 19.0323C82.4703 18.9624 82.4942 18.8885 82.4867 18.8183C82.4578 18.5502 82.3841 18.2808 82.3986 18.0158C82.4173 17.6752 82.2592 17.4931 81.9827 17.3595C81.9143 17.3265 81.8423 17.2812 81.7976 17.2221C81.6853 17.0737 81.5954 16.9081 81.4825 16.7602C81.237 16.4388 81.2718 16.0916 81.5525 15.8041C81.6256 15.7293 81.642 15.5718 81.6337 15.4559C81.6293 15.3932 81.521 15.2924 81.454 15.2876C81.1923 15.269 81.0412 15.0926 80.8469 14.9559C80.5946 14.7783 80.3596 14.5348 79.9893 14.5666C79.6113 14.5991 79.4263 14.4025 79.3894 14.0242C79.3808 13.9365 79.3218 13.8532 79.2836 13.7691C79.2042 13.5942 79.127 13.4181 79.0407 13.2467C79.0155 13.1966 78.9625 13.1605 78.9223 13.118C78.8961 13.177 78.8357 13.2465 78.85 13.2932C78.8977 13.4492 78.9753 13.5958 79.0343 13.7488C79.0526 13.7965 79.0479 13.8532 79.0538 13.9057C78.9979 13.8884 78.9078 13.8864 78.8918 13.8511C78.8166 13.6844 78.7561 13.5102 78.7013 13.3353C78.6697 13.2343 78.6943 13.0722 78.6324 13.0321C78.4041 12.8843 78.3876 12.679 78.3794 12.4423L78.3793 12.4422ZM82.1675 12.1897C82.2227 12.2095 82.2934 12.2477 82.3663 12.2529C82.3872 12.2544 82.4461 12.1253 82.4346 12.1149C82.2625 11.9601 82.0948 11.7921 81.8966 11.6782C81.8066 11.6265 81.6512 11.6805 81.5281 11.7017C81.5051 11.7056 81.4874 11.7801 81.4796 11.8243C81.4661 11.8997 81.457 11.9768 81.4562 12.0533C81.4556 12.1185 81.4692 12.1839 81.4765 12.2492C81.5358 12.2225 81.608 12.2089 81.6514 12.1661C81.7279 12.0909 81.7869 11.9977 81.8532 11.912L81.9258 11.9465C81.9029 12.041 81.8782 12.1351 81.8577 12.2301C81.8483 12.2738 81.8269 12.3411 81.8465 12.3589C81.8763 12.3861 81.9536 12.403 81.981 12.3831C82.0498 12.3334 82.1019 12.2606 82.1675 12.1896L82.1675 12.1897Z" fill="#FEC14C"/>
<path d="M100.656 21.9267C96.8252 21.8855 93.7404 18.782 93.7757 15.0245C93.8118 11.1802 96.8981 8.10965 100.714 8.13739C104.609 8.1657 107.597 11.3168 107.565 15.0593C107.532 18.9006 104.417 21.9672 100.656 21.9267ZM94.8129 12.4422C94.757 12.6044 94.7015 12.7667 94.645 12.9287C94.2631 14.0241 94.1627 15.1498 94.4162 16.2772C94.9683 18.7324 96.4436 20.4125 98.8589 21.1337C101.268 21.8529 103.404 21.2407 105.22 19.5116C105.412 19.3292 105.634 19.1767 105.457 18.8205C105.299 18.5045 105.252 18.1337 105.155 17.7874C105.15 17.7671 105.139 17.7463 105.126 17.7301C104.966 17.5409 104.987 17.3412 105.107 17.1488C105.205 16.9924 105.182 16.8625 105.095 16.7082C104.98 16.5034 104.825 16.2854 104.813 16.0662C104.796 15.7631 104.793 15.527 104.414 15.5162C104.382 15.5152 104.352 15.4688 104.32 15.4671C104.179 15.4598 104.017 15.4154 103.9 15.468C103.545 15.6279 103.101 15.5641 102.846 15.276C102.789 15.2112 102.732 15.1457 102.673 15.0827C102.469 14.8663 102.471 14.6258 102.563 14.3595C102.592 14.2741 102.547 14.1653 102.548 14.0674C102.549 13.9875 102.539 13.8793 102.585 13.8339C102.701 13.7176 102.855 13.6402 102.974 13.5261C103.051 13.4521 103.13 13.3453 103.141 13.2455C103.164 13.0538 103.267 12.9457 103.432 12.9144C103.797 12.8446 104.167 12.7868 104.537 12.7529C104.615 12.7459 104.729 12.8468 104.78 12.9273C104.855 13.0451 105.415 13.3162 105.549 13.2649C105.569 13.2575 105.59 13.2452 105.601 13.2287C105.74 13.0153 105.893 13.1096 106.07 13.1808C106.236 13.2478 106.423 13.2702 106.603 13.2934C106.65 13.2995 106.733 13.2472 106.753 13.2016C106.816 13.0578 106.606 12.7744 106.46 12.7161C106.335 12.6665 106.234 12.5549 106.13 12.4622C106.081 12.4191 106.051 12.3557 106.012 12.3015C105.959 12.3531 105.904 12.4036 105.853 12.4569C105.816 12.4948 105.784 12.5366 105.749 12.5767C105.709 12.537 105.659 12.5034 105.632 12.4561C105.601 12.4011 105.611 12.3148 105.57 12.276C105.431 12.1437 105.294 11.9926 105.126 11.9138C104.993 11.8513 104.922 11.9749 105.005 12.0984C105.066 12.1891 105.188 12.2376 105.253 12.3267C105.299 12.3894 105.319 12.494 105.303 12.5698C105.294 12.6099 105.184 12.6282 105.12 12.6565C105.287 12.532 105.252 12.4504 105.117 12.3541C105.006 12.2746 104.905 12.1816 104.795 12.1004C104.759 12.0736 104.7 12.0398 104.668 12.0518C104.43 12.1391 104.166 12.1877 104.047 12.4591C103.943 12.6966 103.738 12.7116 103.517 12.6837C103.336 12.6608 103.283 12.5449 103.281 12.3799C103.278 12.2063 103.373 12.1286 103.53 12.1162C103.615 12.1094 103.707 12.1415 103.787 12.1222C103.847 12.1079 103.945 12.0095 103.939 11.9991C103.782 11.7284 103.953 11.6581 104.166 11.6001C104.209 11.5882 104.256 11.5462 104.279 11.5056C104.387 11.3233 104.543 11.2606 104.751 11.2617C104.818 11.262 104.886 11.1772 104.954 11.1312C104.891 11.0775 104.827 11.0244 104.764 10.9701C104.66 10.8799 104.551 10.7937 104.461 10.6912C104.452 10.6802 104.54 10.5498 104.605 10.5124C104.936 10.3209 104.947 10.2773 104.64 10.0387C103.098 8.844 101.364 8.41951 99.4458 8.76915C98.6111 8.92127 97.8465 9.25304 97.1413 9.72216C97.0916 9.75524 97.0579 9.81247 97.0167 9.85844C97.0732 9.88229 97.1288 9.90813 97.1861 9.92961C97.3406 9.9874 97.4943 10.0477 97.6512 10.0984C97.7521 10.1311 97.857 10.1572 97.962 10.1688C98 10.173 98.0437 10.1264 98.0848 10.1031C98.0586 10.0654 98.0407 10.0142 98.0049 9.99264C97.8627 9.90679 97.715 9.83017 97.5602 9.74515C97.7289 9.58485 97.9253 9.45092 98.1069 9.60481C98.3129 9.77931 98.4933 9.8764 98.7597 9.74545C98.6574 9.82026 98.5503 9.8464 98.4527 9.89246C98.4039 9.91545 98.3325 9.98779 98.3413 10.015C98.3591 10.0694 98.4275 10.1487 98.4706 10.1461C98.6111 10.1373 98.7504 10.0994 98.8887 10.0667C99.0251 10.0344 99.1491 9.99155 99.0618 9.80338C99.0511 9.78022 99.0952 9.70152 99.1228 9.69645C99.1978 9.6826 99.2776 9.69442 99.3554 9.6961C99.3468 9.74026 99.3236 9.78753 99.3324 9.82788C99.3496 9.90671 99.3847 9.9816 99.4123 10.0581C99.4765 10.0136 99.5476 9.97614 99.6032 9.92259C99.6668 9.86125 99.7024 9.75874 99.7747 9.721C100.02 9.59303 100.543 9.68758 100.723 9.89575C100.798 9.9832 100.837 10.1079 100.867 10.2222C100.872 10.2373 100.73 10.2908 100.657 10.328C100.638 10.3376 100.62 10.3509 100.605 10.3661C100.443 10.5338 100.284 10.4475 100.094 10.3634C100.163 10.3174 100.212 10.2907 100.254 10.2549C100.305 10.2108 100.35 10.1593 100.398 10.1109C100.331 10.0628 100.263 9.97346 100.197 9.97484C100.052 9.97787 99.8865 9.99225 99.765 10.0632C99.4548 10.2443 99.3773 10.2896 99.0815 10.325C99.0251 10.3317 98.9672 10.3494 98.9164 10.3748C98.794 10.436 98.6658 10.4925 98.5581 10.5747C98.4756 10.6378 98.3499 10.7623 98.3685 10.8155C98.4074 10.9262 98.5283 11.0088 98.6175 11.1011C98.6954 11.1817 98.7775 11.2582 98.8548 11.3395C98.8875 11.3738 98.9122 11.4467 98.9409 11.4469C98.988 11.4471 99.0425 11.4103 99.0812 11.3751C99.1541 11.3088 99.2052 11.1973 99.2881 11.1674C99.4711 11.1014 99.5103 10.983 99.5318 10.8074C99.5431 10.7151 99.6643 10.5647 99.7322 10.5666C99.8533 10.5701 100.035 10.6407 100.077 10.7347C100.151 10.8959 100.217 10.899 100.356 10.8523C100.404 10.8364 100.495 10.8696 100.528 10.911C100.601 11.0014 100.662 11.1066 100.701 11.2153C100.726 11.2841 100.71 11.437 100.697 11.4387C100.486 11.4665 100.273 11.4779 100.06 11.4896C99.979 11.494 99.8976 11.4898 99.8165 11.4896V11.7189C99.7703 11.7377 99.6971 11.752 99.6433 11.7923C99.4425 11.9423 99.2425 12.0945 99.0532 12.2585C98.923 12.3713 98.8099 12.504 98.6913 12.6299C98.5612 12.7681 98.4229 12.9005 98.308 13.0507C98.2094 13.1797 98.1381 13.3296 98.0564 13.4712C98.0364 13.5059 98.0228 13.5444 98.0063 13.5811C97.9668 13.5566 97.9207 13.5386 97.8892 13.5062C97.8319 13.4474 97.7909 13.3341 97.7296 13.3239C97.3675 13.2635 97.0061 13.262 96.7 13.5121C96.4763 13.6948 96.367 14.1079 96.5136 14.2686C96.7339 14.51 96.9437 14.3451 97.1458 14.2154C97.1519 14.2115 97.1575 14.2057 97.1641 14.2039C97.2096 14.1915 97.2553 14.18 97.301 14.1683C97.3006 14.2157 97.2918 14.265 97.3016 14.3102C97.3174 14.3837 97.332 14.5076 97.3707 14.5174C97.5482 14.5626 97.5754 14.6806 97.6061 14.8348C97.6293 14.9514 97.6975 15.1118 97.7891 15.1507C97.9658 15.2259 98.1694 15.277 98.3322 15.0607C98.4918 14.8487 98.6739 14.8582 98.8949 14.9938C99.0111 15.0651 99.1752 15.1144 99.3051 15.094C99.4858 15.0655 99.5764 15.1203 99.688 15.2499C99.7759 15.352 99.9323 15.3921 100.047 15.4748C100.155 15.5519 100.325 15.6421 100.333 15.7383C100.365 16.1032 100.63 16.1838 100.89 16.1936C101.196 16.2051 101.457 16.2567 101.637 16.5141C101.686 16.5843 101.73 16.7332 101.695 16.774C101.463 17.0394 101.439 17.3605 101.401 17.6834C101.374 17.9197 101.237 18.0388 100.995 18.0425C100.744 18.0463 100.656 18.1631 100.69 18.4179C100.702 18.5084 100.738 18.6312 100.695 18.688C100.432 19.0346 100.273 19.4957 99.7554 19.5807C99.7104 19.5881 99.6606 19.6791 99.6473 19.7389C99.63 19.8162 99.6443 19.9014 99.6506 19.9828C99.6546 20.0351 99.6541 20.1219 99.6806 20.1329C99.8528 20.2041 99.8643 20.3197 99.8242 20.4804C99.8109 20.5341 99.8699 20.6076 99.9004 20.6699C99.9267 20.7235 99.9596 20.774 99.9896 20.8259C99.9221 20.8398 99.852 20.8716 99.7875 20.8628C99.7129 20.8526 99.6306 20.8217 99.5734 20.7737C99.2602 20.5112 99.0199 20.2132 99.0703 19.7615C99.0819 19.6578 99.0108 19.5464 98.9863 19.4366C98.9564 19.303 98.93 19.168 98.9128 19.0323C98.9039 18.9624 98.9278 18.8885 98.9203 18.8183C98.8914 18.5502 98.8177 18.2808 98.8322 18.0158C98.8509 17.6752 98.6928 17.4931 98.4163 17.3595C98.3479 17.3265 98.2759 17.2812 98.2312 17.2221C98.1189 17.0737 98.029 16.9081 97.916 16.7602C97.6706 16.4388 97.7054 16.0916 97.9861 15.8041C98.0592 15.7293 98.0756 15.5718 98.0673 15.4559C98.0629 15.3932 97.9546 15.2924 97.8876 15.2876C97.6259 15.269 97.4748 15.0926 97.2805 14.9559C97.0282 14.7783 96.7931 14.5348 96.4229 14.5666C96.0449 14.5991 95.8599 14.4025 95.823 14.0242C95.8144 13.9365 95.7554 13.8532 95.7172 13.7691C95.6378 13.5942 95.5606 13.4181 95.4743 13.2467C95.4491 13.1966 95.3961 13.1605 95.3559 13.118C95.3297 13.177 95.2693 13.2465 95.2836 13.2932C95.3312 13.4492 95.4089 13.5958 95.4679 13.7488C95.4862 13.7965 95.4815 13.8532 95.4874 13.9057C95.4315 13.8884 95.3414 13.8864 95.3254 13.8511C95.2501 13.6844 95.1897 13.5102 95.1349 13.3353C95.1033 13.2343 95.1279 13.0722 95.066 13.0321C94.8377 12.8843 94.8212 12.679 94.813 12.4423L94.8129 12.4422ZM98.6011 12.1897C98.6563 12.2095 98.727 12.2477 98.7999 12.2529C98.8208 12.2544 98.8797 12.1253 98.8682 12.1149C98.6961 11.9601 98.5284 11.7921 98.3302 11.6782C98.2402 11.6265 98.0848 11.6805 97.9617 11.7017C97.9387 11.7056 97.921 11.7801 97.9132 11.8243C97.8997 11.8997 97.8906 11.9768 97.8898 12.0533C97.8892 12.1185 97.9028 12.1839 97.9101 12.2492C97.9693 12.2225 98.0416 12.2089 98.085 12.1661C98.1615 12.0909 98.2205 11.9977 98.2868 11.912L98.3594 11.9465C98.3364 12.041 98.3118 12.1351 98.2913 12.2301C98.2819 12.2738 98.2605 12.3411 98.2801 12.3589C98.3099 12.3861 98.3872 12.403 98.4146 12.3831C98.4834 12.3334 98.5355 12.2606 98.6011 12.1896L98.6011 12.1897Z" fill="#FEC14C"/>
<path d="M117.089 21.9267C113.259 21.8855 110.174 18.782 110.209 15.0245C110.245 11.1802 113.332 8.10965 117.148 8.13739C121.042 8.1657 124.03 11.3168 123.999 15.0593C123.966 18.9006 120.851 21.9672 117.089 21.9267ZM111.247 12.4422C111.191 12.6044 111.135 12.7667 111.079 12.9287C110.697 14.0241 110.596 15.1498 110.85 16.2772C111.402 18.7324 112.877 20.4125 115.293 21.1337C117.701 21.8529 119.837 21.2407 121.654 19.5116C121.845 19.3292 122.068 19.1767 121.89 18.8205C121.733 18.5045 121.686 18.1337 121.589 17.7874C121.583 17.7671 121.573 17.7463 121.559 17.7301C121.4 17.5409 121.42 17.3412 121.541 17.1488C121.639 16.9924 121.616 16.8625 121.529 16.7082C121.413 16.5034 121.259 16.2854 121.247 16.0662C121.23 15.7631 121.227 15.527 120.847 15.5162C120.816 15.5152 120.786 15.4688 120.753 15.4671C120.612 15.4598 120.45 15.4154 120.333 15.468C119.979 15.6279 119.535 15.5641 119.28 15.276C119.222 15.2112 119.166 15.1457 119.106 15.0827C118.903 14.8663 118.905 14.6258 118.996 14.3595C119.026 14.2741 118.98 14.1653 118.981 14.0674C118.982 13.9875 118.973 13.8793 119.018 13.8339C119.134 13.7176 119.289 13.6402 119.407 13.5261C119.484 13.4521 119.563 13.3453 119.575 13.2455C119.597 13.0538 119.701 12.9457 119.865 12.9144C120.231 12.8446 120.6 12.7868 120.971 12.7529C121.048 12.7459 121.163 12.8468 121.214 12.9273C121.289 13.0451 121.849 13.3162 121.983 13.2649C122.002 13.2575 122.024 13.2452 122.035 13.2287C122.173 13.0153 122.327 13.1096 122.504 13.1808C122.67 13.2478 122.857 13.2702 123.037 13.2934C123.084 13.2995 123.166 13.2472 123.186 13.2016C123.249 13.0578 123.04 12.7744 122.893 12.7161C122.769 12.6665 122.667 12.5549 122.563 12.4622C122.515 12.4191 122.484 12.3557 122.446 12.3015C122.392 12.3531 122.338 12.4036 122.286 12.4569C122.25 12.4948 122.217 12.5366 122.183 12.5767C122.143 12.537 122.092 12.5034 122.066 12.4561C122.035 12.4011 122.044 12.3148 122.003 12.276C121.865 12.1437 121.728 11.9926 121.56 11.9138C121.426 11.8513 121.355 11.9749 121.438 12.0984C121.499 12.1891 121.622 12.2376 121.687 12.3267C121.733 12.3894 121.752 12.494 121.736 12.5698C121.728 12.6099 121.618 12.6282 121.553 12.6565C121.721 12.532 121.686 12.4504 121.551 12.3541C121.44 12.2746 121.339 12.1816 121.229 12.1004C121.193 12.0736 121.134 12.0398 121.101 12.0518C120.864 12.1391 120.6 12.1877 120.481 12.4591C120.376 12.6966 120.172 12.7116 119.951 12.6837C119.77 12.6608 119.717 12.5449 119.714 12.3799C119.712 12.2063 119.807 12.1286 119.964 12.1162C120.049 12.1094 120.14 12.1415 120.221 12.1222C120.281 12.1079 120.379 12.0095 120.373 11.9991C120.215 11.7284 120.387 11.6581 120.599 11.6001C120.643 11.5882 120.689 11.5462 120.713 11.5056C120.821 11.3233 120.977 11.2606 121.184 11.2617C121.252 11.262 121.32 11.1772 121.388 11.1312C121.324 11.0775 121.261 11.0244 121.198 10.9701C121.094 10.8799 120.985 10.7937 120.895 10.6912C120.885 10.6802 120.974 10.5498 121.038 10.5124C121.369 10.3209 121.381 10.2773 121.073 10.0387C119.532 8.844 117.798 8.41951 115.879 8.76915C115.045 8.92127 114.28 9.25304 113.575 9.72216C113.525 9.75524 113.491 9.81247 113.45 9.85844C113.507 9.88229 113.562 9.90813 113.62 9.92961C113.774 9.9874 113.928 10.0477 114.085 10.0984C114.186 10.1311 114.291 10.1572 114.396 10.1688C114.434 10.173 114.477 10.1264 114.518 10.1031C114.492 10.0654 114.474 10.0142 114.438 9.99264C114.296 9.90679 114.149 9.83017 113.994 9.74515C114.162 9.58485 114.359 9.45092 114.541 9.60481C114.746 9.77931 114.927 9.8764 115.193 9.74545C115.091 9.82026 114.984 9.8464 114.886 9.89246C114.838 9.91545 114.766 9.98779 114.775 10.015C114.793 10.0694 114.861 10.1487 114.904 10.1461C115.045 10.1373 115.184 10.0994 115.322 10.0667C115.459 10.0344 115.583 9.99155 115.495 9.80338C115.485 9.78022 115.529 9.70152 115.556 9.69645C115.631 9.6826 115.711 9.69442 115.789 9.6961C115.78 9.74026 115.757 9.78753 115.766 9.82788C115.783 9.90671 115.818 9.9816 115.846 10.0581C115.91 10.0136 115.981 9.97614 116.037 9.92259C116.1 9.86125 116.136 9.75874 116.208 9.721C116.453 9.59303 116.977 9.68758 117.157 9.89575C117.232 9.9832 117.27 10.1079 117.301 10.2222C117.305 10.2373 117.164 10.2908 117.091 10.328C117.072 10.3376 117.054 10.3509 117.039 10.3661C116.876 10.5338 116.718 10.4475 116.527 10.3634C116.596 10.3174 116.646 10.2907 116.687 10.2549C116.739 10.2108 116.784 10.1593 116.832 10.1109C116.765 10.0628 116.697 9.97346 116.631 9.97484C116.485 9.97787 116.32 9.99225 116.199 10.0632C115.888 10.2443 115.811 10.2896 115.515 10.325C115.459 10.3317 115.401 10.3494 115.35 10.3748C115.228 10.436 115.099 10.4925 114.992 10.5747C114.909 10.6378 114.783 10.7623 114.802 10.8155C114.841 10.9262 114.962 11.0088 115.051 11.1011C115.129 11.1817 115.211 11.2582 115.288 11.3395C115.321 11.3738 115.346 11.4467 115.374 11.4469C115.422 11.4471 115.476 11.4103 115.515 11.3751C115.588 11.3088 115.639 11.1973 115.722 11.1674C115.905 11.1014 115.944 10.983 115.965 10.8074C115.977 10.7151 116.098 10.5647 116.166 10.5666C116.287 10.5701 116.468 10.6407 116.511 10.7347C116.584 10.8959 116.651 10.899 116.79 10.8523C116.837 10.8364 116.929 10.8696 116.962 10.911C117.034 11.0014 117.096 11.1066 117.135 11.2153C117.159 11.2841 117.144 11.437 117.131 11.4387C116.92 11.4665 116.707 11.4779 116.493 11.4896C116.413 11.494 116.331 11.4898 116.25 11.4896V11.7189C116.204 11.7377 116.131 11.752 116.077 11.7923C115.876 11.9423 115.676 12.0945 115.487 12.2585C115.357 12.3713 115.243 12.504 115.125 12.6299C114.995 12.7681 114.856 12.9005 114.742 13.0507C114.643 13.1797 114.572 13.3296 114.49 13.4712C114.47 13.5059 114.456 13.5444 114.44 13.5811C114.4 13.5566 114.354 13.5386 114.323 13.5062C114.265 13.4474 114.224 13.3341 114.163 13.3239C113.801 13.2635 113.44 13.262 113.134 13.5121C112.91 13.6948 112.801 14.1079 112.947 14.2686C113.168 14.51 113.377 14.3451 113.579 14.2154C113.585 14.2115 113.591 14.2057 113.598 14.2039C113.643 14.1915 113.689 14.18 113.735 14.1683C113.734 14.2157 113.725 14.265 113.735 14.3102C113.751 14.3837 113.766 14.5076 113.804 14.5174C113.982 14.5626 114.009 14.6806 114.04 14.8348C114.063 14.9514 114.131 15.1118 114.223 15.1507C114.399 15.2259 114.603 15.277 114.766 15.0607C114.925 14.8487 115.107 14.8582 115.328 14.9938C115.445 15.0651 115.609 15.1144 115.739 15.094C115.919 15.0655 116.01 15.1203 116.122 15.2499C116.21 15.352 116.366 15.3921 116.481 15.4748C116.588 15.5519 116.758 15.6421 116.767 15.7383C116.799 16.1032 117.063 16.1838 117.324 16.1936C117.63 16.2051 117.891 16.2567 118.07 16.5141C118.119 16.5843 118.164 16.7332 118.128 16.774C117.896 17.0394 117.872 17.3605 117.835 17.6834C117.808 17.9197 117.67 18.0388 117.428 18.0425C117.178 18.0463 117.089 18.1631 117.124 18.4179C117.136 18.5084 117.171 18.6312 117.128 18.688C116.866 19.0346 116.707 19.4957 116.189 19.5807C116.144 19.5881 116.094 19.6791 116.081 19.7389C116.064 19.8162 116.078 19.9014 116.084 19.9828C116.088 20.0351 116.088 20.1219 116.114 20.1329C116.286 20.2041 116.298 20.3197 116.258 20.4804C116.244 20.5341 116.303 20.6076 116.334 20.6699C116.36 20.7235 116.393 20.774 116.423 20.8259C116.356 20.8398 116.286 20.8716 116.221 20.8628C116.147 20.8526 116.064 20.8217 116.007 20.7737C115.694 20.5112 115.453 20.2132 115.504 19.7615C115.516 19.6578 115.444 19.5464 115.42 19.4366C115.39 19.303 115.364 19.168 115.346 19.0323C115.338 18.9624 115.361 18.8885 115.354 18.8183C115.325 18.5502 115.251 18.2808 115.266 18.0158C115.284 17.6752 115.126 17.4931 114.85 17.3595C114.781 17.3265 114.71 17.2812 114.665 17.2221C114.552 17.0737 114.463 16.9081 114.35 16.7602C114.104 16.4388 114.139 16.0916 114.42 15.8041C114.493 15.7293 114.509 15.5718 114.501 15.4559C114.496 15.3932 114.388 15.2924 114.321 15.2876C114.06 15.269 113.908 15.0926 113.714 14.9559C113.462 14.7783 113.227 14.5348 112.857 14.5666C112.479 14.5991 112.294 14.4025 112.257 14.0242C112.248 13.9365 112.189 13.8532 112.151 13.7691C112.071 13.5942 111.994 13.4181 111.908 13.2467C111.883 13.1966 111.83 13.1605 111.789 13.118C111.763 13.177 111.703 13.2465 111.717 13.2932C111.765 13.4492 111.843 13.5958 111.901 13.7488C111.92 13.7965 111.915 13.8532 111.921 13.9057C111.865 13.8884 111.775 13.8864 111.759 13.8511C111.684 13.6844 111.623 13.5102 111.569 13.3353C111.537 13.2343 111.562 13.0722 111.5 13.0321C111.271 12.8843 111.255 12.679 111.247 12.4423L111.247 12.4422ZM115.035 12.1897C115.09 12.2095 115.161 12.2477 115.234 12.2529C115.254 12.2544 115.313 12.1253 115.302 12.1149C115.13 11.9601 114.962 11.7921 114.764 11.6782C114.674 11.6265 114.518 11.6805 114.395 11.7017C114.372 11.7056 114.355 11.7801 114.347 11.8243C114.333 11.8997 114.324 11.9768 114.323 12.0533C114.323 12.1185 114.336 12.1839 114.344 12.2492C114.403 12.2225 114.475 12.2089 114.519 12.1661C114.595 12.0909 114.654 11.9977 114.72 11.912L114.793 11.9465C114.77 12.041 114.745 12.1351 114.725 12.2301C114.715 12.2738 114.694 12.3411 114.714 12.3589C114.743 12.3861 114.821 12.403 114.848 12.3831C114.917 12.3334 114.969 12.2606 115.035 12.1896L115.035 12.1897Z" fill="#FEC14C"/>
<path d="M84.2222 38.3608C80.3916 38.3195 77.3068 35.2161 77.3421 31.4586C77.3782 27.6143 80.4646 24.5437 84.2808 24.5715C88.1751 24.5998 91.1631 27.7508 91.1314 31.4934C91.0989 35.3347 87.9834 38.4013 84.2222 38.3608ZM78.3793 28.8763C78.3234 29.0385 78.2679 29.2008 78.2114 29.3628C77.8295 30.4581 77.7291 31.5839 77.9826 32.7113C78.5347 35.1665 80.01 36.8466 82.4254 37.5678C84.8341 38.287 86.9702 37.6747 88.7864 35.9456C88.978 35.7633 89.2008 35.6108 89.0233 35.2545C88.8658 34.9386 88.8186 34.5678 88.7218 34.2215C88.7162 34.2011 88.7056 34.1804 88.692 34.1642C88.5327 33.975 88.5532 33.7753 88.6739 33.5828C88.7718 33.4265 88.7485 33.2966 88.6616 33.1423C88.5462 32.9375 88.3916 32.7195 88.3795 32.5003C88.3628 32.1972 88.3595 31.9611 87.9802 31.9502C87.9485 31.9493 87.9183 31.9028 87.8862 31.9012C87.7452 31.8939 87.583 31.8495 87.4663 31.9021C87.1117 32.062 86.6675 31.9982 86.4125 31.7101C86.3551 31.6453 86.2984 31.5798 86.2391 31.5167C86.0355 31.3004 86.0374 31.0599 86.1291 30.7935C86.1584 30.7082 86.1131 30.5994 86.1143 30.5014C86.1152 30.4216 86.1056 30.3134 86.151 30.2679C86.267 30.1517 86.4215 30.0743 86.5402 29.9601C86.6172 29.8862 86.6961 29.7794 86.7078 29.6795C86.7302 29.4879 86.8338 29.3798 86.998 29.3485C87.3639 29.2787 87.7332 29.2209 88.1038 29.187C88.181 29.1799 88.2958 29.2809 88.3469 29.3614C88.4215 29.4792 88.9816 29.7502 89.1157 29.699C89.1351 29.6916 89.1569 29.6793 89.1676 29.6628C89.3059 29.4494 89.4596 29.5437 89.6364 29.6149C89.8028 29.6819 89.9894 29.7043 90.1696 29.7275C90.2165 29.7336 90.2993 29.6813 90.3192 29.6357C90.3819 29.4919 90.1725 29.2085 90.0263 29.1502C89.9019 29.1006 89.8001 28.989 89.696 28.8963C89.6475 28.8532 89.6171 28.7897 89.5784 28.7355C89.5252 28.7872 89.4708 28.8377 89.4193 28.891C89.3827 28.9289 89.3502 28.9707 89.3159 29.0108C89.2759 28.9711 89.2251 28.9374 89.1987 28.8902C89.1679 28.8352 89.1769 28.7489 89.1363 28.7101C88.9977 28.5778 88.8607 28.4267 88.6927 28.3479C88.5592 28.2853 88.4882 28.409 88.5712 28.5325C88.6321 28.6232 88.7546 28.6716 88.8197 28.7608C88.8655 28.8235 88.8852 28.9281 88.8691 29.0038C88.8605 29.0439 88.7505 29.0623 88.6862 29.0906C88.8534 28.9661 88.8184 28.8845 88.6838 28.7882C88.5728 28.7087 88.4714 28.6157 88.3615 28.5345C88.3253 28.5077 88.2667 28.4739 88.2339 28.4859C87.9968 28.5732 87.7329 28.6217 87.6135 28.8932C87.509 29.1307 87.3045 29.1457 87.0838 29.1178C86.9028 29.0949 86.8494 28.979 86.8471 28.814C86.8447 28.6403 86.9393 28.5627 87.0966 28.5503C87.1819 28.5435 87.2731 28.5756 87.3536 28.5563C87.4135 28.542 87.5115 28.4436 87.5055 28.4332C87.3483 28.1625 87.5196 28.0921 87.732 28.0342C87.7759 28.0223 87.8219 27.9803 87.8459 27.9397C87.9534 27.7573 88.1098 27.6947 88.3172 27.6958C88.3847 27.6961 88.4526 27.6112 88.5203 27.5653C88.4571 27.5116 88.3935 27.4585 88.3308 27.4042C88.2267 27.314 88.1178 27.2278 88.0277 27.1253C88.018 27.1143 88.1063 26.9838 88.171 26.9464C88.5023 26.755 88.5138 26.7114 88.2059 26.4728C86.6644 25.2781 84.9308 24.8536 83.0122 25.2032C82.1775 25.3554 81.4129 25.6871 80.7077 26.1562C80.658 26.1893 80.6243 26.2465 80.5832 26.2925C80.6396 26.3164 80.6953 26.3422 80.7525 26.3637C80.907 26.4215 81.0608 26.4817 81.2176 26.5325C81.3185 26.5652 81.4234 26.5913 81.5284 26.6029C81.5665 26.6071 81.6101 26.5605 81.6512 26.5371C81.625 26.4995 81.6071 26.4483 81.5713 26.4267C81.4291 26.3409 81.2814 26.2643 81.1267 26.1792C81.2953 26.0189 81.4917 25.885 81.6733 26.0389C81.8793 26.2134 82.0597 26.3105 82.3262 26.1795C82.2238 26.2543 82.1167 26.2805 82.0191 26.3265C81.9703 26.3495 81.8989 26.4219 81.9077 26.4491C81.9255 26.5035 81.994 26.5828 82.037 26.5801C82.1775 26.5713 82.3168 26.5335 82.4551 26.5007C82.5915 26.4684 82.7155 26.4256 82.6282 26.2375C82.6175 26.2143 82.6616 26.1356 82.6892 26.1305C82.7642 26.1167 82.844 26.1285 82.9218 26.1302C82.9132 26.1743 82.8901 26.2216 82.8988 26.262C82.916 26.3408 82.9511 26.4157 82.9787 26.4922C83.0429 26.4477 83.114 26.4102 83.1696 26.3567C83.2332 26.2953 83.2688 26.1928 83.3411 26.1551C83.586 26.0271 84.1098 26.1217 84.2893 26.3298C84.3648 26.4173 84.4031 26.542 84.4339 26.6563C84.4379 26.6714 84.2968 26.7248 84.2237 26.7621C84.2047 26.7717 84.1864 26.7849 84.1716 26.8002C84.0092 26.9679 83.8506 26.8816 83.6602 26.7974C83.7289 26.7515 83.7784 26.7248 83.8201 26.689C83.8716 26.6449 83.9167 26.5933 83.9645 26.545C83.8976 26.4968 83.8298 26.4075 83.7639 26.4089C83.6179 26.412 83.4529 26.4263 83.3314 26.4973C83.0212 26.6784 82.9437 26.7237 82.6479 26.759C82.5915 26.7658 82.5336 26.7835 82.4828 26.8089C82.3604 26.8701 82.2322 26.9265 82.1245 27.0088C82.042 27.0719 81.9163 27.1964 81.9349 27.2496C81.9738 27.3603 82.0947 27.4429 82.1839 27.5351C82.2618 27.6157 82.344 27.6923 82.4212 27.7736C82.4539 27.8079 82.4786 27.8808 82.5073 27.881C82.5544 27.8812 82.6089 27.8444 82.6476 27.8092C82.7205 27.7428 82.7716 27.6314 82.8545 27.6015C83.0375 27.5354 83.0767 27.4171 83.0982 27.2415C83.1095 27.1492 83.2307 26.9987 83.2986 27.0007C83.4197 27.0042 83.6009 27.0748 83.6436 27.1688C83.7169 27.33 83.7837 27.3331 83.9228 27.2864C83.9701 27.2705 84.0618 27.3037 84.0949 27.3451C84.1671 27.4355 84.2287 27.5406 84.2675 27.6494C84.292 27.7182 84.2764 27.8711 84.2638 27.8727C84.0527 27.9006 83.8394 27.912 83.6263 27.9237C83.5454 27.9281 83.464 27.9239 83.3829 27.9237V28.153C83.3367 28.1718 83.2635 28.1861 83.2097 28.2263C83.009 28.3764 82.8089 28.5285 82.6196 28.6926C82.4894 28.8054 82.3763 28.9381 82.2577 29.064C82.1276 29.2022 81.9893 29.3346 81.8744 29.4848C81.7758 29.6137 81.7045 29.7637 81.6228 29.9053C81.6028 29.94 81.5892 29.9785 81.5727 30.0152C81.5332 29.9907 81.4871 29.9727 81.4556 29.9403C81.3983 29.8815 81.3573 29.7682 81.296 29.758C80.9339 29.6976 80.5725 29.6961 80.2664 29.9462C80.0427 30.1288 79.9334 30.542 80.08 30.7027C80.3003 30.9441 80.5101 30.7791 80.7122 30.6494C80.7183 30.6455 80.7239 30.6398 80.7305 30.638C80.776 30.6256 80.8217 30.6141 80.8674 30.6023C80.867 30.6498 80.8582 30.6991 80.868 30.7443C80.8838 30.8178 80.8984 30.9416 80.9371 30.9515C81.1146 30.9967 81.1418 31.1147 81.1725 31.2689C81.1957 31.3855 81.2639 31.5459 81.3555 31.5848C81.5322 31.66 81.7358 31.7111 81.8986 31.4948C82.0582 31.2828 82.2403 31.2922 82.4613 31.4279C82.5775 31.4992 82.7416 31.5485 82.8715 31.528C83.0522 31.4996 83.1428 31.5544 83.2544 31.684C83.3423 31.7861 83.4987 31.8262 83.6139 31.9089C83.7211 31.9859 83.8912 32.0762 83.8996 32.1724C83.9318 32.5372 84.1962 32.6178 84.4566 32.6277C84.7623 32.6392 85.0239 32.6907 85.2032 32.9482C85.2521 33.0184 85.2968 33.1673 85.2611 33.2081C85.0293 33.4735 85.005 33.7946 84.9679 34.1175C84.9407 34.3538 84.8029 34.4729 84.5613 34.4765C84.3109 34.4804 84.2222 34.5971 84.2566 34.8519C84.2688 34.9425 84.304 35.0653 84.261 35.1221C83.9984 35.4686 83.8395 35.9298 83.3218 36.0148C83.2768 36.0222 83.227 36.1132 83.2137 36.173C83.1964 36.2503 83.2107 36.3355 83.217 36.4168C83.221 36.4692 83.2205 36.556 83.247 36.567C83.4192 36.6381 83.4307 36.7538 83.3906 36.9145C83.3773 36.9682 83.4363 37.0417 83.4668 37.1039C83.4931 37.1576 83.526 37.2081 83.5561 37.26C83.4885 37.2738 83.4184 37.3057 83.3539 37.2969C83.2793 37.2867 83.197 37.2557 83.1398 37.2078C82.8266 36.9452 82.5863 36.6473 82.6367 36.1956C82.6484 36.0918 82.5773 35.9805 82.5527 35.8707C82.5228 35.737 82.4965 35.6021 82.4792 35.4663C82.4703 35.3965 82.4942 35.3226 82.4867 35.2524C82.4578 34.9843 82.3841 34.7149 82.3986 34.4499C82.4173 34.1093 82.2592 33.9272 81.9827 33.7936C81.9143 33.7605 81.8423 33.7153 81.7976 33.6562C81.6853 33.5077 81.5954 33.3422 81.4825 33.1943C81.237 32.8729 81.2718 32.5257 81.5525 32.2382C81.6256 32.1633 81.642 32.0059 81.6337 31.89C81.6293 31.8273 81.521 31.7265 81.454 31.7217C81.1923 31.7031 81.0412 31.5267 80.8469 31.3899C80.5946 31.2124 80.3596 30.9689 79.9893 31.0007C79.6113 31.0332 79.4263 30.8366 79.3894 30.4583C79.3808 30.3706 79.3218 30.2873 79.2836 30.2032C79.2042 30.0283 79.127 29.8522 79.0407 29.6808C79.0155 29.6307 78.9625 29.5946 78.9223 29.5521C78.8961 29.6111 78.8357 29.6806 78.85 29.7273C78.8977 29.8833 78.9753 30.0299 79.0343 30.1829C79.0526 30.2306 79.0479 30.2872 79.0538 30.3398C78.9979 30.3225 78.9078 30.3205 78.8918 30.2852C78.8166 30.1185 78.7561 29.9443 78.7013 29.7694C78.6697 29.6684 78.6943 29.5063 78.6324 29.4662C78.4041 29.3184 78.3876 29.1131 78.3794 28.8764L78.3793 28.8763ZM82.1675 28.6238C82.2227 28.6436 82.2934 28.6818 82.3663 28.687C82.3872 28.6884 82.4461 28.5594 82.4346 28.549C82.2625 28.3942 82.0948 28.2262 81.8966 28.1123C81.8066 28.0606 81.6512 28.1146 81.5281 28.1358C81.5051 28.1397 81.4874 28.2142 81.4796 28.2584C81.4661 28.3338 81.457 28.4109 81.4562 28.4874C81.4556 28.5526 81.4692 28.618 81.4765 28.6832C81.5358 28.6565 81.608 28.643 81.6514 28.6002C81.7279 28.5249 81.7869 28.4318 81.8532 28.3461L81.9258 28.3806C81.9029 28.4751 81.8782 28.5692 81.8577 28.6642C81.8483 28.7079 81.8269 28.7752 81.8465 28.793C81.8763 28.8202 81.9536 28.8371 81.981 28.8172C82.0498 28.7674 82.1019 28.6946 82.1675 28.6237L82.1675 28.6238Z" fill="#FEC14C"/>
<path d="M100.656 38.3608C96.8252 38.3195 93.7404 35.2161 93.7757 31.4586C93.8118 27.6143 96.8981 24.5437 100.714 24.5715C104.609 24.5998 107.597 27.7508 107.565 31.4934C107.532 35.3347 104.417 38.4013 100.656 38.3608ZM94.8129 28.8763C94.757 29.0385 94.7015 29.2008 94.645 29.3628C94.2631 30.4581 94.1627 31.5839 94.4162 32.7113C94.9683 35.1665 96.4436 36.8466 98.8589 37.5678C101.268 38.287 103.404 37.6747 105.22 35.9456C105.412 35.7633 105.634 35.6108 105.457 35.2545C105.299 34.9386 105.252 34.5678 105.155 34.2215C105.15 34.2011 105.139 34.1804 105.126 34.1642C104.966 33.975 104.987 33.7753 105.107 33.5828C105.205 33.4265 105.182 33.2966 105.095 33.1423C104.98 32.9375 104.825 32.7195 104.813 32.5003C104.796 32.1972 104.793 31.9611 104.414 31.9502C104.382 31.9493 104.352 31.9028 104.32 31.9012C104.179 31.8939 104.017 31.8495 103.9 31.9021C103.545 32.062 103.101 31.9982 102.846 31.7101C102.789 31.6453 102.732 31.5798 102.673 31.5167C102.469 31.3004 102.471 31.0599 102.563 30.7935C102.592 30.7082 102.547 30.5994 102.548 30.5014C102.549 30.4216 102.539 30.3134 102.585 30.2679C102.701 30.1517 102.855 30.0743 102.974 29.9601C103.051 29.8862 103.13 29.7794 103.141 29.6795C103.164 29.4879 103.267 29.3798 103.432 29.3485C103.797 29.2787 104.167 29.2209 104.537 29.187C104.615 29.1799 104.729 29.2809 104.78 29.3614C104.855 29.4792 105.415 29.7502 105.549 29.699C105.569 29.6916 105.59 29.6793 105.601 29.6628C105.74 29.4494 105.893 29.5437 106.07 29.6149C106.236 29.6819 106.423 29.7043 106.603 29.7275C106.65 29.7336 106.733 29.6813 106.753 29.6357C106.816 29.4919 106.606 29.2085 106.46 29.1502C106.335 29.1006 106.234 28.989 106.13 28.8963C106.081 28.8532 106.051 28.7897 106.012 28.7355C105.959 28.7872 105.904 28.8377 105.853 28.891C105.816 28.9289 105.784 28.9707 105.749 29.0108C105.709 28.9711 105.659 28.9374 105.632 28.8902C105.601 28.8352 105.611 28.7489 105.57 28.7101C105.431 28.5778 105.294 28.4267 105.126 28.3479C104.993 28.2853 104.922 28.409 105.005 28.5325C105.066 28.6232 105.188 28.6716 105.253 28.7608C105.299 28.8235 105.319 28.9281 105.303 29.0038C105.294 29.0439 105.184 29.0623 105.12 29.0906C105.287 28.9661 105.252 28.8845 105.117 28.7882C105.006 28.7087 104.905 28.6157 104.795 28.5345C104.759 28.5077 104.7 28.4739 104.668 28.4859C104.43 28.5732 104.166 28.6217 104.047 28.8932C103.943 29.1307 103.738 29.1457 103.517 29.1178C103.336 29.0949 103.283 28.979 103.281 28.814C103.278 28.6403 103.373 28.5627 103.53 28.5503C103.615 28.5435 103.707 28.5756 103.787 28.5563C103.847 28.542 103.945 28.4436 103.939 28.4332C103.782 28.1625 103.953 28.0921 104.166 28.0342C104.209 28.0223 104.256 27.9803 104.279 27.9397C104.387 27.7573 104.543 27.6947 104.751 27.6958C104.818 27.6961 104.886 27.6112 104.954 27.5653C104.891 27.5116 104.827 27.4585 104.764 27.4042C104.66 27.314 104.551 27.2278 104.461 27.1253C104.452 27.1143 104.54 26.9838 104.605 26.9464C104.936 26.755 104.947 26.7114 104.64 26.4728C103.098 25.2781 101.364 24.8536 99.4458 25.2032C98.6111 25.3554 97.8465 25.6871 97.1413 26.1562C97.0916 26.1893 97.0579 26.2465 97.0167 26.2925C97.0732 26.3164 97.1288 26.3422 97.1861 26.3637C97.3406 26.4215 97.4943 26.4817 97.6512 26.5325C97.7521 26.5652 97.857 26.5913 97.962 26.6029C98 26.6071 98.0437 26.5605 98.0848 26.5371C98.0586 26.4995 98.0407 26.4483 98.0049 26.4267C97.8627 26.3409 97.715 26.2643 97.5602 26.1792C97.7289 26.0189 97.9253 25.885 98.1069 26.0389C98.3129 26.2134 98.4933 26.3105 98.7597 26.1795C98.6574 26.2543 98.5503 26.2805 98.4527 26.3265C98.4039 26.3495 98.3325 26.4219 98.3413 26.4491C98.3591 26.5035 98.4275 26.5828 98.4706 26.5801C98.6111 26.5713 98.7504 26.5335 98.8887 26.5007C99.0251 26.4684 99.1491 26.4256 99.0618 26.2375C99.0511 26.2143 99.0952 26.1356 99.1228 26.1305C99.1978 26.1167 99.2776 26.1285 99.3554 26.1302C99.3468 26.1743 99.3236 26.2216 99.3324 26.262C99.3496 26.3408 99.3847 26.4157 99.4123 26.4922C99.4765 26.4477 99.5476 26.4102 99.6032 26.3567C99.6668 26.2953 99.7024 26.1928 99.7747 26.1551C100.02 26.0271 100.543 26.1217 100.723 26.3298C100.798 26.4173 100.837 26.542 100.867 26.6563C100.872 26.6714 100.73 26.7248 100.657 26.7621C100.638 26.7717 100.62 26.7849 100.605 26.8002C100.443 26.9679 100.284 26.8816 100.094 26.7974C100.163 26.7515 100.212 26.7248 100.254 26.689C100.305 26.6449 100.35 26.5933 100.398 26.545C100.331 26.4968 100.263 26.4075 100.197 26.4089C100.052 26.412 99.8865 26.4263 99.765 26.4973C99.4548 26.6784 99.3773 26.7237 99.0815 26.759C99.0251 26.7658 98.9672 26.7835 98.9164 26.8089C98.794 26.8701 98.6658 26.9265 98.5581 27.0088C98.4756 27.0719 98.3499 27.1964 98.3685 27.2496C98.4074 27.3603 98.5283 27.4429 98.6175 27.5351C98.6954 27.6157 98.7775 27.6923 98.8548 27.7736C98.8875 27.8079 98.9122 27.8808 98.9409 27.881C98.988 27.8812 99.0425 27.8444 99.0812 27.8092C99.1541 27.7428 99.2052 27.6314 99.2881 27.6015C99.4711 27.5354 99.5103 27.4171 99.5318 27.2415C99.5431 27.1492 99.6643 26.9987 99.7322 27.0007C99.8533 27.0042 100.035 27.0748 100.077 27.1688C100.151 27.33 100.217 27.3331 100.356 27.2864C100.404 27.2705 100.495 27.3037 100.528 27.3451C100.601 27.4355 100.662 27.5406 100.701 27.6494C100.726 27.7182 100.71 27.8711 100.697 27.8727C100.486 27.9006 100.273 27.912 100.06 27.9237C99.979 27.9281 99.8976 27.9239 99.8165 27.9237V28.153C99.7703 28.1718 99.6971 28.1861 99.6433 28.2263C99.4425 28.3764 99.2425 28.5285 99.0532 28.6926C98.923 28.8054 98.8099 28.9381 98.6913 29.064C98.5612 29.2022 98.4229 29.3346 98.308 29.4848C98.2094 29.6137 98.1381 29.7637 98.0564 29.9053C98.0364 29.94 98.0228 29.9785 98.0063 30.0152C97.9668 29.9907 97.9207 29.9727 97.8892 29.9403C97.8319 29.8815 97.7909 29.7682 97.7296 29.758C97.3675 29.6976 97.0061 29.6961 96.7 29.9462C96.4763 30.1288 96.367 30.542 96.5136 30.7027C96.7339 30.9441 96.9437 30.7791 97.1458 30.6494C97.1519 30.6455 97.1575 30.6398 97.1641 30.638C97.2096 30.6256 97.2553 30.6141 97.301 30.6023C97.3006 30.6498 97.2918 30.6991 97.3016 30.7443C97.3174 30.8178 97.332 30.9416 97.3707 30.9515C97.5482 30.9967 97.5754 31.1147 97.6061 31.2689C97.6293 31.3855 97.6975 31.5459 97.7891 31.5848C97.9658 31.66 98.1694 31.7111 98.3322 31.4948C98.4918 31.2828 98.6739 31.2922 98.8949 31.4279C99.0111 31.4992 99.1752 31.5485 99.3051 31.528C99.4858 31.4996 99.5764 31.5544 99.688 31.684C99.7759 31.7861 99.9323 31.8262 100.047 31.9089C100.155 31.9859 100.325 32.0762 100.333 32.1724C100.365 32.5372 100.63 32.6178 100.89 32.6277C101.196 32.6392 101.457 32.6907 101.637 32.9482C101.686 33.0184 101.73 33.1673 101.695 33.2081C101.463 33.4735 101.439 33.7946 101.401 34.1175C101.374 34.3538 101.237 34.4729 100.995 34.4765C100.744 34.4804 100.656 34.5971 100.69 34.8519C100.702 34.9425 100.738 35.0653 100.695 35.1221C100.432 35.4686 100.273 35.9298 99.7554 36.0148C99.7104 36.0222 99.6606 36.1132 99.6473 36.173C99.63 36.2503 99.6443 36.3355 99.6506 36.4168C99.6546 36.4692 99.6541 36.556 99.6806 36.567C99.8528 36.6381 99.8643 36.7538 99.8242 36.9145C99.8109 36.9682 99.8699 37.0417 99.9004 37.1039C99.9267 37.1576 99.9596 37.2081 99.9896 37.26C99.9221 37.2738 99.852 37.3057 99.7875 37.2969C99.7129 37.2867 99.6306 37.2557 99.5734 37.2078C99.2602 36.9452 99.0199 36.6473 99.0703 36.1956C99.0819 36.0918 99.0108 35.9805 98.9863 35.8707C98.9564 35.737 98.93 35.6021 98.9128 35.4663C98.9039 35.3965 98.9278 35.3226 98.9203 35.2524C98.8914 34.9843 98.8177 34.7149 98.8322 34.4499C98.8509 34.1093 98.6928 33.9272 98.4163 33.7936C98.3479 33.7605 98.2759 33.7153 98.2312 33.6562C98.1189 33.5077 98.029 33.3422 97.916 33.1943C97.6706 32.8729 97.7054 32.5257 97.9861 32.2382C98.0592 32.1633 98.0756 32.0059 98.0673 31.89C98.0629 31.8273 97.9546 31.7265 97.8876 31.7217C97.6259 31.7031 97.4748 31.5267 97.2805 31.3899C97.0282 31.2124 96.7931 30.9689 96.4229 31.0007C96.0449 31.0332 95.8599 30.8366 95.823 30.4583C95.8144 30.3706 95.7554 30.2873 95.7172 30.2032C95.6378 30.0283 95.5606 29.8522 95.4743 29.6808C95.4491 29.6307 95.3961 29.5946 95.3559 29.5521C95.3297 29.6111 95.2693 29.6806 95.2836 29.7273C95.3312 29.8833 95.4089 30.0299 95.4679 30.1829C95.4862 30.2306 95.4815 30.2872 95.4874 30.3398C95.4315 30.3225 95.3414 30.3205 95.3254 30.2852C95.2501 30.1185 95.1897 29.9443 95.1349 29.7694C95.1033 29.6684 95.1279 29.5063 95.066 29.4662C94.8377 29.3184 94.8212 29.1131 94.813 28.8764L94.8129 28.8763ZM98.6011 28.6238C98.6563 28.6436 98.727 28.6818 98.7999 28.687C98.8208 28.6884 98.8797 28.5594 98.8682 28.549C98.6961 28.3942 98.5284 28.2262 98.3302 28.1123C98.2402 28.0606 98.0848 28.1146 97.9617 28.1358C97.9387 28.1397 97.921 28.2142 97.9132 28.2584C97.8997 28.3338 97.8906 28.4109 97.8898 28.4874C97.8892 28.5526 97.9028 28.618 97.9101 28.6832C97.9693 28.6565 98.0416 28.643 98.085 28.6002C98.1615 28.5249 98.2205 28.4318 98.2868 28.3461L98.3594 28.3806C98.3364 28.4751 98.3118 28.5692 98.2913 28.6642C98.2819 28.7079 98.2605 28.7752 98.2801 28.793C98.3099 28.8202 98.3872 28.8371 98.4146 28.8172C98.4834 28.7674 98.5355 28.6946 98.6011 28.6237L98.6011 28.6238Z" fill="#FEC14C"/>
<path d="M117.089 38.3608C113.259 38.3195 110.174 35.2161 110.209 31.4586C110.245 27.6143 113.332 24.5437 117.148 24.5715C121.042 24.5998 124.03 27.7508 123.999 31.4934C123.966 35.3347 120.851 38.4013 117.089 38.3608ZM111.247 28.8763C111.191 29.0385 111.135 29.2008 111.079 29.3628C110.697 30.4581 110.596 31.5839 110.85 32.7113C111.402 35.1665 112.877 36.8466 115.293 37.5678C117.701 38.287 119.837 37.6747 121.654 35.9456C121.845 35.7633 122.068 35.6108 121.89 35.2545C121.733 34.9386 121.686 34.5678 121.589 34.2215C121.583 34.2011 121.573 34.1804 121.559 34.1642C121.4 33.975 121.42 33.7753 121.541 33.5828C121.639 33.4265 121.616 33.2966 121.529 33.1423C121.413 32.9375 121.259 32.7195 121.247 32.5003C121.23 32.1972 121.227 31.9611 120.847 31.9502C120.816 31.9493 120.786 31.9028 120.753 31.9012C120.612 31.8939 120.45 31.8495 120.333 31.9021C119.979 32.062 119.535 31.9982 119.28 31.7101C119.222 31.6453 119.166 31.5798 119.106 31.5167C118.903 31.3004 118.905 31.0599 118.996 30.7935C119.026 30.7082 118.98 30.5994 118.981 30.5014C118.982 30.4216 118.973 30.3134 119.018 30.2679C119.134 30.1517 119.289 30.0743 119.407 29.9601C119.484 29.8862 119.563 29.7794 119.575 29.6795C119.597 29.4879 119.701 29.3798 119.865 29.3485C120.231 29.2787 120.6 29.2209 120.971 29.187C121.048 29.1799 121.163 29.2809 121.214 29.3614C121.289 29.4792 121.849 29.7502 121.983 29.699C122.002 29.6916 122.024 29.6793 122.035 29.6628C122.173 29.4494 122.327 29.5437 122.504 29.6149C122.67 29.6819 122.857 29.7043 123.037 29.7275C123.084 29.7336 123.166 29.6813 123.186 29.6357C123.249 29.4919 123.04 29.2085 122.893 29.1502C122.769 29.1006 122.667 28.989 122.563 28.8963C122.515 28.8532 122.484 28.7897 122.446 28.7355C122.392 28.7872 122.338 28.8377 122.286 28.891C122.25 28.9289 122.217 28.9707 122.183 29.0108C122.143 28.9711 122.092 28.9374 122.066 28.8902C122.035 28.8352 122.044 28.7489 122.003 28.7101C121.865 28.5778 121.728 28.4267 121.56 28.3479C121.426 28.2853 121.355 28.409 121.438 28.5325C121.499 28.6232 121.622 28.6716 121.687 28.7608C121.733 28.8235 121.752 28.9281 121.736 29.0038C121.728 29.0439 121.618 29.0623 121.553 29.0906C121.721 28.9661 121.686 28.8845 121.551 28.7882C121.44 28.7087 121.339 28.6157 121.229 28.5345C121.193 28.5077 121.134 28.4739 121.101 28.4859C120.864 28.5732 120.6 28.6217 120.481 28.8932C120.376 29.1307 120.172 29.1457 119.951 29.1178C119.77 29.0949 119.717 28.979 119.714 28.814C119.712 28.6403 119.807 28.5627 119.964 28.5503C120.049 28.5435 120.14 28.5756 120.221 28.5563C120.281 28.542 120.379 28.4436 120.373 28.4332C120.215 28.1625 120.387 28.0921 120.599 28.0342C120.643 28.0223 120.689 27.9803 120.713 27.9397C120.821 27.7573 120.977 27.6947 121.184 27.6958C121.252 27.6961 121.32 27.6112 121.388 27.5653C121.324 27.5116 121.261 27.4585 121.198 27.4042C121.094 27.314 120.985 27.2278 120.895 27.1253C120.885 27.1143 120.974 26.9838 121.038 26.9464C121.369 26.755 121.381 26.7114 121.073 26.4728C119.532 25.2781 117.798 24.8536 115.879 25.2032C115.045 25.3554 114.28 25.6871 113.575 26.1562C113.525 26.1893 113.491 26.2465 113.45 26.2925C113.507 26.3164 113.562 26.3422 113.62 26.3637C113.774 26.4215 113.928 26.4817 114.085 26.5325C114.186 26.5652 114.291 26.5913 114.396 26.6029C114.434 26.6071 114.477 26.5605 114.518 26.5371C114.492 26.4995 114.474 26.4483 114.438 26.4267C114.296 26.3409 114.149 26.2643 113.994 26.1792C114.162 26.0189 114.359 25.885 114.541 26.0389C114.746 26.2134 114.927 26.3105 115.193 26.1795C115.091 26.2543 114.984 26.2805 114.886 26.3265C114.838 26.3495 114.766 26.4219 114.775 26.4491C114.793 26.5035 114.861 26.5828 114.904 26.5801C115.045 26.5713 115.184 26.5335 115.322 26.5007C115.459 26.4684 115.583 26.4256 115.495 26.2375C115.485 26.2143 115.529 26.1356 115.556 26.1305C115.631 26.1167 115.711 26.1285 115.789 26.1302C115.78 26.1743 115.757 26.2216 115.766 26.262C115.783 26.3408 115.818 26.4157 115.846 26.4922C115.91 26.4477 115.981 26.4102 116.037 26.3567C116.1 26.2953 116.136 26.1928 116.208 26.1551C116.453 26.0271 116.977 26.1217 117.157 26.3298C117.232 26.4173 117.27 26.542 117.301 26.6563C117.305 26.6714 117.164 26.7248 117.091 26.7621C117.072 26.7717 117.054 26.7849 117.039 26.8002C116.876 26.9679 116.718 26.8816 116.527 26.7974C116.596 26.7515 116.646 26.7248 116.687 26.689C116.739 26.6449 116.784 26.5933 116.832 26.545C116.765 26.4968 116.697 26.4075 116.631 26.4089C116.485 26.412 116.32 26.4263 116.199 26.4973C115.888 26.6784 115.811 26.7237 115.515 26.759C115.459 26.7658 115.401 26.7835 115.35 26.8089C115.228 26.8701 115.099 26.9265 114.992 27.0088C114.909 27.0719 114.783 27.1964 114.802 27.2496C114.841 27.3603 114.962 27.4429 115.051 27.5351C115.129 27.6157 115.211 27.6923 115.288 27.7736C115.321 27.8079 115.346 27.8808 115.374 27.881C115.422 27.8812 115.476 27.8444 115.515 27.8092C115.588 27.7428 115.639 27.6314 115.722 27.6015C115.905 27.5354 115.944 27.4171 115.965 27.2415C115.977 27.1492 116.098 26.9987 116.166 27.0007C116.287 27.0042 116.468 27.0748 116.511 27.1688C116.584 27.33 116.651 27.3331 116.79 27.2864C116.837 27.2705 116.929 27.3037 116.962 27.3451C117.034 27.4355 117.096 27.5406 117.135 27.6494C117.159 27.7182 117.144 27.8711 117.131 27.8727C116.92 27.9006 116.707 27.912 116.493 27.9237C116.413 27.9281 116.331 27.9239 116.25 27.9237V28.153C116.204 28.1718 116.131 28.1861 116.077 28.2263C115.876 28.3764 115.676 28.5285 115.487 28.6926C115.357 28.8054 115.243 28.9381 115.125 29.064C114.995 29.2022 114.856 29.3346 114.742 29.4848C114.643 29.6137 114.572 29.7637 114.49 29.9053C114.47 29.94 114.456 29.9785 114.44 30.0152C114.4 29.9907 114.354 29.9727 114.323 29.9403C114.265 29.8815 114.224 29.7682 114.163 29.758C113.801 29.6976 113.44 29.6961 113.134 29.9462C112.91 30.1288 112.801 30.542 112.947 30.7027C113.168 30.9441 113.377 30.7791 113.579 30.6494C113.585 30.6455 113.591 30.6398 113.598 30.638C113.643 30.6256 113.689 30.6141 113.735 30.6023C113.734 30.6498 113.725 30.6991 113.735 30.7443C113.751 30.8178 113.766 30.9416 113.804 30.9515C113.982 30.9967 114.009 31.1147 114.04 31.2689C114.063 31.3855 114.131 31.5459 114.223 31.5848C114.399 31.66 114.603 31.7111 114.766 31.4948C114.925 31.2828 115.107 31.2922 115.328 31.4279C115.445 31.4992 115.609 31.5485 115.739 31.528C115.919 31.4996 116.01 31.5544 116.122 31.684C116.21 31.7861 116.366 31.8262 116.481 31.9089C116.588 31.9859 116.758 32.0762 116.767 32.1724C116.799 32.5372 117.063 32.6178 117.324 32.6277C117.63 32.6392 117.891 32.6907 118.07 32.9482C118.119 33.0184 118.164 33.1673 118.128 33.2081C117.896 33.4735 117.872 33.7946 117.835 34.1175C117.808 34.3538 117.67 34.4729 117.428 34.4765C117.178 34.4804 117.089 34.5971 117.124 34.8519C117.136 34.9425 117.171 35.0653 117.128 35.1221C116.866 35.4686 116.707 35.9298 116.189 36.0148C116.144 36.0222 116.094 36.1132 116.081 36.173C116.064 36.2503 116.078 36.3355 116.084 36.4168C116.088 36.4692 116.088 36.556 116.114 36.567C116.286 36.6381 116.298 36.7538 116.258 36.9145C116.244 36.9682 116.303 37.0417 116.334 37.1039C116.36 37.1576 116.393 37.2081 116.423 37.26C116.356 37.2738 116.286 37.3057 116.221 37.2969C116.147 37.2867 116.064 37.2557 116.007 37.2078C115.694 36.9452 115.453 36.6473 115.504 36.1956C115.516 36.0918 115.444 35.9805 115.42 35.8707C115.39 35.737 115.364 35.6021 115.346 35.4663C115.338 35.3965 115.361 35.3226 115.354 35.2524C115.325 34.9843 115.251 34.7149 115.266 34.4499C115.284 34.1093 115.126 33.9272 114.85 33.7936C114.781 33.7605 114.71 33.7153 114.665 33.6562C114.552 33.5077 114.463 33.3422 114.35 33.1943C114.104 32.8729 114.139 32.5257 114.42 32.2382C114.493 32.1633 114.509 32.0059 114.501 31.89C114.496 31.8273 114.388 31.7265 114.321 31.7217C114.06 31.7031 113.908 31.5267 113.714 31.3899C113.462 31.2124 113.227 30.9689 112.857 31.0007C112.479 31.0332 112.294 30.8366 112.257 30.4583C112.248 30.3706 112.189 30.2873 112.151 30.2032C112.071 30.0283 111.994 29.8522 111.908 29.6808C111.883 29.6307 111.83 29.5946 111.789 29.5521C111.763 29.6111 111.703 29.6806 111.717 29.7273C111.765 29.8833 111.843 30.0299 111.901 30.1829C111.92 30.2306 111.915 30.2872 111.921 30.3398C111.865 30.3225 111.775 30.3205 111.759 30.2852C111.684 30.1185 111.623 29.9443 111.569 29.7694C111.537 29.6684 111.562 29.5063 111.5 29.4662C111.271 29.3184 111.255 29.1131 111.247 28.8764L111.247 28.8763ZM115.035 28.6238C115.09 28.6436 115.161 28.6818 115.234 28.687C115.254 28.6884 115.313 28.5594 115.302 28.549C115.13 28.3942 114.962 28.2262 114.764 28.1123C114.674 28.0606 114.518 28.1146 114.395 28.1358C114.372 28.1397 114.355 28.2142 114.347 28.2584C114.333 28.3338 114.324 28.4109 114.323 28.4874C114.323 28.5526 114.336 28.618 114.344 28.6832C114.403 28.6565 114.475 28.643 114.519 28.6002C114.595 28.5249 114.654 28.4318 114.72 28.3461L114.793 28.3806C114.77 28.4751 114.745 28.5692 114.725 28.6642C114.715 28.7079 114.694 28.7752 114.714 28.793C114.743 28.8202 114.821 28.8371 114.848 28.8172C114.917 28.7674 114.969 28.6946 115.035 28.6237L115.035 28.6238Z" fill="#FEC14C"/>
<path d="M84.2222 54.7949C80.3916 54.7536 77.3068 51.6502 77.3421 47.8927C77.3782 44.0484 80.4646 40.9778 84.2808 41.0056C88.1751 41.0339 91.1631 44.1849 91.1314 47.9275C91.0989 51.7687 87.9834 54.8354 84.2222 54.7949ZM78.3793 45.3104C78.3234 45.4726 78.2679 45.6349 78.2114 45.7968C77.8295 46.8922 77.7291 48.018 77.9826 49.1453C78.5347 51.6006 80.01 53.2807 82.4254 54.0019C84.8341 54.7211 86.9702 54.1088 88.7864 52.3797C88.978 52.1974 89.2008 52.0449 89.0233 51.6886C88.8658 51.3727 88.8186 51.0019 88.7218 50.6556C88.7162 50.6352 88.7056 50.6144 88.692 50.5983C88.5327 50.409 88.5532 50.2093 88.6739 50.0169C88.7718 49.8606 88.7485 49.7307 88.6616 49.5764C88.5462 49.3716 88.3916 49.1536 88.3795 48.9343C88.3628 48.6312 88.3595 48.3952 87.9802 48.3843C87.9485 48.3834 87.9183 48.3369 87.8862 48.3353C87.7452 48.328 87.583 48.2835 87.4663 48.3362C87.1117 48.496 86.6675 48.4322 86.4125 48.1442C86.3551 48.0794 86.2984 48.0138 86.2391 47.9508C86.0355 47.7345 86.0374 47.494 86.1291 47.2276C86.1584 47.1423 86.1131 47.0334 86.1143 46.9355C86.1152 46.8557 86.1056 46.7475 86.151 46.702C86.267 46.5858 86.4215 46.5083 86.5402 46.3942C86.6172 46.3202 86.6961 46.2135 86.7078 46.1136C86.7302 45.922 86.8338 45.8139 86.998 45.7826C87.3639 45.7128 87.7332 45.655 88.1038 45.6211C88.181 45.614 88.2958 45.7149 88.3469 45.7955C88.4215 45.9132 88.9816 46.1843 89.1157 46.1331C89.1351 46.1257 89.1569 46.1134 89.1676 46.0969C89.3059 45.8835 89.4596 45.9777 89.6364 46.049C89.8028 46.116 89.9894 46.1383 90.1696 46.1616C90.2165 46.1677 90.2993 46.1154 90.3192 46.0697C90.3819 45.926 90.1725 45.6426 90.0263 45.5842C89.9019 45.5346 89.8001 45.423 89.696 45.3304C89.6475 45.2872 89.6171 45.2238 89.5784 45.1696C89.5252 45.2213 89.4708 45.2717 89.4193 45.3251C89.3827 45.363 89.3502 45.4048 89.3159 45.4449C89.2759 45.4052 89.2251 45.3715 89.1987 45.3243C89.1679 45.2693 89.1769 45.183 89.1363 45.1442C88.9977 45.0118 88.8607 44.8608 88.6927 44.782C88.5592 44.7194 88.4882 44.8431 88.5712 44.9666C88.6321 45.0572 88.7546 45.1057 88.8197 45.1949C88.8655 45.2576 88.8852 45.3622 88.8691 45.4379C88.8605 45.478 88.7505 45.4964 88.6862 45.5246C88.8534 45.4002 88.8184 45.3186 88.6838 45.2223C88.5728 45.1428 88.4714 45.0498 88.3615 44.9685C88.3253 44.9418 88.2667 44.9079 88.2339 44.92C87.9968 45.0072 87.7329 45.0558 87.6135 45.3273C87.509 45.5648 87.3045 45.5797 87.0838 45.5519C86.9028 45.529 86.8494 45.413 86.8471 45.2481C86.8447 45.0744 86.9393 44.9968 87.0966 44.9843C87.1819 44.9776 87.2731 45.0097 87.3536 44.9904C87.4135 44.9761 87.5115 44.8776 87.5055 44.8672C87.3483 44.5966 87.5196 44.5262 87.732 44.4683C87.7759 44.4563 87.8219 44.4144 87.8459 44.3738C87.9534 44.1914 88.1098 44.1287 88.3172 44.1299C88.3847 44.1302 88.4526 44.0453 88.5203 43.9994C88.4571 43.9457 88.3935 43.8926 88.3308 43.8383C88.2267 43.7481 88.1178 43.6619 88.0277 43.5594C88.018 43.5484 88.1063 43.4179 88.171 43.3805C88.5023 43.1891 88.5138 43.1455 88.2059 42.9069C86.6644 41.7122 84.9308 41.2877 83.0122 41.6373C82.1775 41.7894 81.4129 42.1212 80.7077 42.5903C80.658 42.6234 80.6243 42.6806 80.5832 42.7266C80.6396 42.7505 80.6953 42.7763 80.7525 42.7978C80.907 42.8556 81.0608 42.9158 81.2176 42.9666C81.3185 42.9993 81.4234 43.0253 81.5284 43.0369C81.5665 43.0411 81.6101 42.9946 81.6512 42.9712C81.625 42.9336 81.6071 42.8824 81.5713 42.8608C81.4291 42.775 81.2814 42.6983 81.1267 42.6133C81.2953 42.453 81.4917 42.3191 81.6733 42.473C81.8793 42.6475 82.0597 42.7446 82.3262 42.6136C82.2238 42.6884 82.1167 42.7146 82.0191 42.7606C81.9703 42.7836 81.8989 42.856 81.9077 42.8831C81.9255 42.9376 81.994 43.0169 82.037 43.0142C82.1775 43.0054 82.3168 42.9676 82.4551 42.9348C82.5915 42.9025 82.7155 42.8597 82.6282 42.6715C82.6175 42.6484 82.6616 42.5697 82.6892 42.5646C82.7642 42.5508 82.844 42.5626 82.9218 42.5643C82.9132 42.6084 82.8901 42.6557 82.8988 42.696C82.916 42.7749 82.9511 42.8498 82.9787 42.9263C83.0429 42.8818 83.114 42.8443 83.1696 42.7908C83.2332 42.7294 83.2688 42.6269 83.3411 42.5892C83.586 42.4612 84.1098 42.5557 84.2893 42.7639C84.3648 42.8514 84.4031 42.976 84.4339 43.0904C84.4379 43.1055 84.2968 43.1589 84.2237 43.1962C84.2047 43.2058 84.1864 43.219 84.1716 43.2343C84.0092 43.402 83.8506 43.3156 83.6602 43.2315C83.7289 43.1856 83.7784 43.1588 83.8201 43.1231C83.8716 43.079 83.9167 43.0274 83.9645 42.9791C83.8976 42.9309 83.8298 42.8416 83.7639 42.843C83.6179 42.846 83.4529 42.8604 83.3314 42.9314C83.0212 43.1125 82.9437 43.1578 82.6479 43.1931C82.5915 43.1999 82.5336 43.2175 82.4828 43.243C82.3604 43.3042 82.2322 43.3606 82.1245 43.4429C82.042 43.506 81.9163 43.6304 81.9349 43.6836C81.9738 43.7944 82.0947 43.877 82.1839 43.9692C82.2618 44.0498 82.344 44.1264 82.4212 44.2077C82.4539 44.242 82.4786 44.3149 82.5073 44.3151C82.5544 44.3153 82.6089 44.2785 82.6476 44.2433C82.7205 44.1769 82.7716 44.0654 82.8545 44.0355C83.0375 43.9695 83.0767 43.8512 83.0982 43.6756C83.1095 43.5833 83.2307 43.4328 83.2986 43.4348C83.4197 43.4382 83.6009 43.5089 83.6436 43.6029C83.7169 43.7641 83.7837 43.7672 83.9228 43.7205C83.9701 43.7046 84.0618 43.7378 84.0949 43.7792C84.1671 43.8696 84.2287 43.9747 84.2675 44.0835C84.292 44.1522 84.2764 44.3051 84.2638 44.3068C84.0527 44.3347 83.8394 44.3461 83.6263 44.3577C83.5454 44.3622 83.464 44.358 83.3829 44.3577V44.587C83.3367 44.6059 83.2635 44.6202 83.2097 44.6604C83.009 44.8105 82.8089 44.9626 82.6196 45.1267C82.4894 45.2395 82.3763 45.3722 82.2577 45.4981C82.1276 45.6363 81.9893 45.7687 81.8744 45.9189C81.7758 46.0478 81.7045 46.1978 81.6228 46.3394C81.6028 46.3741 81.5892 46.4125 81.5727 46.4493C81.5332 46.4248 81.4871 46.4067 81.4556 46.3744C81.3983 46.3156 81.3573 46.2023 81.296 46.1921C80.9339 46.1317 80.5725 46.1302 80.2664 46.3802C80.0427 46.5629 79.9334 46.976 80.08 47.1368C80.3003 47.3781 80.5101 47.2132 80.7122 47.0835C80.7183 47.0796 80.7239 47.0739 80.7305 47.0721C80.776 47.0597 80.8217 47.0482 80.8674 47.0364C80.867 47.0839 80.8582 47.1332 80.868 47.1784C80.8838 47.2519 80.8984 47.3757 80.9371 47.3856C81.1146 47.4307 81.1418 47.5488 81.1725 47.703C81.1957 47.8196 81.2639 47.98 81.3555 48.0189C81.5322 48.0941 81.7358 48.1451 81.8986 47.9289C82.0582 47.7169 82.2403 47.7263 82.4613 47.8619C82.5775 47.9333 82.7416 47.9826 82.8715 47.9621C83.0522 47.9337 83.1428 47.9885 83.2544 48.118C83.3423 48.2202 83.4987 48.2603 83.6139 48.343C83.7211 48.42 83.8912 48.5102 83.8996 48.6064C83.9318 48.9713 84.1962 49.0519 84.4566 49.0617C84.7623 49.0733 85.0239 49.1248 85.2032 49.3823C85.2521 49.4524 85.2968 49.6013 85.2611 49.6422C85.0293 49.9076 85.005 50.2286 84.9679 50.5515C84.9407 50.7879 84.8029 50.9069 84.5613 50.9106C84.3109 50.9144 84.2222 51.0312 84.2566 51.286C84.2688 51.3765 84.304 51.4994 84.261 51.5562C83.9984 51.9027 83.8395 52.3639 83.3218 52.4489C83.2768 52.4563 83.227 52.5473 83.2137 52.607C83.1964 52.6844 83.2107 52.7695 83.217 52.8509C83.221 52.9033 83.2205 52.9901 83.247 53.0011C83.4192 53.0722 83.4307 53.1879 83.3906 53.3486C83.3773 53.4023 83.4363 53.4758 83.4668 53.538C83.4931 53.5917 83.526 53.6422 83.5561 53.6941C83.4885 53.7079 83.4184 53.7398 83.3539 53.731C83.2793 53.7208 83.197 53.6898 83.1398 53.6419C82.8266 53.3793 82.5863 53.0814 82.6367 52.6297C82.6484 52.5259 82.5773 52.4145 82.5527 52.3048C82.5228 52.1711 82.4965 52.0361 82.4792 51.9004C82.4703 51.8306 82.4942 51.7567 82.4867 51.6865C82.4578 51.4184 82.3841 51.149 82.3986 50.884C82.4173 50.5434 82.2592 50.3612 81.9827 50.2277C81.9143 50.1946 81.8423 50.1494 81.7976 50.0903C81.6853 49.9418 81.5954 49.7763 81.4825 49.6284C81.237 49.307 81.2718 48.9598 81.5525 48.6723C81.6256 48.5974 81.642 48.44 81.6337 48.3241C81.6293 48.2614 81.521 48.1606 81.454 48.1558C81.1923 48.1372 81.0412 47.9608 80.8469 47.824C80.5946 47.6465 80.3596 47.403 79.9893 47.4348C79.6113 47.4672 79.4263 47.2707 79.3894 46.8924C79.3808 46.8047 79.3218 46.7214 79.2836 46.6373C79.2042 46.4624 79.127 46.2863 79.0407 46.1149C79.0155 46.0648 78.9625 46.0287 78.9223 45.9862C78.8961 46.0452 78.8357 46.1147 78.85 46.1613C78.8977 46.3173 78.9753 46.464 79.0343 46.617C79.0526 46.6647 79.0479 46.7213 79.0538 46.7739C78.9979 46.7566 78.9078 46.7546 78.8918 46.7192C78.8166 46.5526 78.7561 46.3784 78.7013 46.2035C78.6697 46.1025 78.6943 45.9404 78.6324 45.9003C78.4041 45.7525 78.3876 45.5471 78.3794 45.3105L78.3793 45.3104ZM82.1675 45.0579C82.2227 45.0777 82.2934 45.1159 82.3663 45.1211C82.3872 45.1225 82.4461 44.9934 82.4346 44.9831C82.2625 44.8282 82.0948 44.6602 81.8966 44.5464C81.8066 44.4947 81.6512 44.5487 81.5281 44.5699C81.5051 44.5738 81.4874 44.6483 81.4796 44.6924C81.4661 44.7679 81.457 44.845 81.4562 44.9215C81.4556 44.9867 81.4692 45.0521 81.4765 45.1173C81.5358 45.0906 81.608 45.0771 81.6514 45.0343C81.7279 44.959 81.7869 44.8659 81.8532 44.7802L81.9258 44.8147C81.9029 44.9092 81.8782 45.0033 81.8577 45.0983C81.8483 45.142 81.8269 45.2092 81.8465 45.2271C81.8763 45.2543 81.9536 45.2711 81.981 45.2513C82.0498 45.2015 82.1019 45.1287 82.1675 45.0578L82.1675 45.0579Z" fill="#FEC14C"/>
<path d="M100.656 54.7949C96.8252 54.7536 93.7404 51.6502 93.7757 47.8927C93.8118 44.0484 96.8981 40.9778 100.714 41.0056C104.609 41.0339 107.597 44.1849 107.565 47.9275C107.532 51.7687 104.417 54.8354 100.656 54.7949ZM94.8129 45.3104C94.757 45.4726 94.7015 45.6349 94.645 45.7968C94.2631 46.8922 94.1627 48.018 94.4162 49.1453C94.9683 51.6006 96.4436 53.2807 98.8589 54.0019C101.268 54.7211 103.404 54.1088 105.22 52.3797C105.412 52.1974 105.634 52.0449 105.457 51.6886C105.299 51.3727 105.252 51.0019 105.155 50.6556C105.15 50.6352 105.139 50.6144 105.126 50.5983C104.966 50.409 104.987 50.2093 105.107 50.0169C105.205 49.8606 105.182 49.7307 105.095 49.5764C104.98 49.3716 104.825 49.1536 104.813 48.9343C104.796 48.6312 104.793 48.3952 104.414 48.3843C104.382 48.3834 104.352 48.3369 104.32 48.3353C104.179 48.328 104.017 48.2835 103.9 48.3362C103.545 48.496 103.101 48.4322 102.846 48.1442C102.789 48.0794 102.732 48.0138 102.673 47.9508C102.469 47.7345 102.471 47.494 102.563 47.2276C102.592 47.1423 102.547 47.0334 102.548 46.9355C102.549 46.8557 102.539 46.7475 102.585 46.702C102.701 46.5858 102.855 46.5083 102.974 46.3942C103.051 46.3202 103.13 46.2135 103.141 46.1136C103.164 45.922 103.267 45.8139 103.432 45.7826C103.797 45.7128 104.167 45.655 104.537 45.6211C104.615 45.614 104.729 45.7149 104.78 45.7955C104.855 45.9132 105.415 46.1843 105.549 46.1331C105.569 46.1257 105.59 46.1134 105.601 46.0969C105.74 45.8835 105.893 45.9777 106.07 46.049C106.236 46.116 106.423 46.1383 106.603 46.1616C106.65 46.1677 106.733 46.1154 106.753 46.0697C106.816 45.926 106.606 45.6426 106.46 45.5842C106.335 45.5346 106.234 45.423 106.13 45.3304C106.081 45.2872 106.051 45.2238 106.012 45.1696C105.959 45.2213 105.904 45.2717 105.853 45.3251C105.816 45.363 105.784 45.4048 105.749 45.4449C105.709 45.4052 105.659 45.3715 105.632 45.3243C105.601 45.2693 105.611 45.183 105.57 45.1442C105.431 45.0118 105.294 44.8608 105.126 44.782C104.993 44.7194 104.922 44.8431 105.005 44.9666C105.066 45.0572 105.188 45.1057 105.253 45.1949C105.299 45.2576 105.319 45.3622 105.303 45.4379C105.294 45.478 105.184 45.4964 105.12 45.5246C105.287 45.4002 105.252 45.3186 105.117 45.2223C105.006 45.1428 104.905 45.0498 104.795 44.9685C104.759 44.9418 104.7 44.9079 104.668 44.92C104.43 45.0072 104.166 45.0558 104.047 45.3273C103.943 45.5648 103.738 45.5797 103.517 45.5519C103.336 45.529 103.283 45.413 103.281 45.2481C103.278 45.0744 103.373 44.9968 103.53 44.9843C103.615 44.9776 103.707 45.0097 103.787 44.9904C103.847 44.9761 103.945 44.8776 103.939 44.8672C103.782 44.5966 103.953 44.5262 104.166 44.4683C104.209 44.4563 104.256 44.4144 104.279 44.3738C104.387 44.1914 104.543 44.1287 104.751 44.1299C104.818 44.1302 104.886 44.0453 104.954 43.9994C104.891 43.9457 104.827 43.8926 104.764 43.8383C104.66 43.7481 104.551 43.6619 104.461 43.5594C104.452 43.5484 104.54 43.4179 104.605 43.3805C104.936 43.1891 104.947 43.1455 104.64 42.9069C103.098 41.7122 101.364 41.2877 99.4458 41.6373C98.6111 41.7894 97.8465 42.1212 97.1413 42.5903C97.0916 42.6234 97.0579 42.6806 97.0167 42.7266C97.0732 42.7505 97.1288 42.7763 97.1861 42.7978C97.3406 42.8556 97.4943 42.9158 97.6512 42.9666C97.7521 42.9993 97.857 43.0253 97.962 43.0369C98 43.0411 98.0437 42.9946 98.0848 42.9712C98.0586 42.9336 98.0407 42.8824 98.0049 42.8608C97.8627 42.775 97.715 42.6983 97.5602 42.6133C97.7289 42.453 97.9253 42.3191 98.1069 42.473C98.3129 42.6475 98.4933 42.7446 98.7597 42.6136C98.6574 42.6884 98.5503 42.7146 98.4527 42.7606C98.4039 42.7836 98.3325 42.856 98.3413 42.8831C98.3591 42.9376 98.4275 43.0169 98.4706 43.0142C98.6111 43.0054 98.7504 42.9676 98.8887 42.9348C99.0251 42.9025 99.1491 42.8597 99.0618 42.6715C99.0511 42.6484 99.0952 42.5697 99.1228 42.5646C99.1978 42.5508 99.2776 42.5626 99.3554 42.5643C99.3468 42.6084 99.3236 42.6557 99.3324 42.696C99.3496 42.7749 99.3847 42.8498 99.4123 42.9263C99.4765 42.8818 99.5476 42.8443 99.6032 42.7908C99.6668 42.7294 99.7024 42.6269 99.7747 42.5892C100.02 42.4612 100.543 42.5557 100.723 42.7639C100.798 42.8514 100.837 42.976 100.867 43.0904C100.872 43.1055 100.73 43.1589 100.657 43.1962C100.638 43.2058 100.62 43.219 100.605 43.2343C100.443 43.402 100.284 43.3156 100.094 43.2315C100.163 43.1856 100.212 43.1588 100.254 43.1231C100.305 43.079 100.35 43.0274 100.398 42.9791C100.331 42.9309 100.263 42.8416 100.197 42.843C100.052 42.846 99.8865 42.8604 99.765 42.9314C99.4548 43.1125 99.3773 43.1578 99.0815 43.1931C99.0251 43.1999 98.9672 43.2175 98.9164 43.243C98.794 43.3042 98.6658 43.3606 98.5581 43.4429C98.4756 43.506 98.3499 43.6304 98.3685 43.6836C98.4074 43.7944 98.5283 43.877 98.6175 43.9692C98.6954 44.0498 98.7775 44.1264 98.8548 44.2077C98.8875 44.242 98.9122 44.3149 98.9409 44.3151C98.988 44.3153 99.0425 44.2785 99.0812 44.2433C99.1541 44.1769 99.2052 44.0654 99.2881 44.0355C99.4711 43.9695 99.5103 43.8512 99.5318 43.6756C99.5431 43.5833 99.6643 43.4328 99.7322 43.4348C99.8533 43.4382 100.035 43.5089 100.077 43.6029C100.151 43.7641 100.217 43.7672 100.356 43.7205C100.404 43.7046 100.495 43.7378 100.528 43.7792C100.601 43.8696 100.662 43.9747 100.701 44.0835C100.726 44.1522 100.71 44.3051 100.697 44.3068C100.486 44.3347 100.273 44.3461 100.06 44.3577C99.979 44.3622 99.8976 44.358 99.8165 44.3577V44.587C99.7703 44.6059 99.6971 44.6202 99.6433 44.6604C99.4425 44.8105 99.2425 44.9626 99.0532 45.1267C98.923 45.2395 98.8099 45.3722 98.6913 45.4981C98.5612 45.6363 98.4229 45.7687 98.308 45.9189C98.2094 46.0478 98.1381 46.1978 98.0564 46.3394C98.0364 46.3741 98.0228 46.4125 98.0063 46.4493C97.9668 46.4248 97.9207 46.4067 97.8892 46.3744C97.8319 46.3156 97.7909 46.2023 97.7296 46.1921C97.3675 46.1317 97.0061 46.1302 96.7 46.3802C96.4763 46.5629 96.367 46.976 96.5136 47.1368C96.7339 47.3781 96.9437 47.2132 97.1458 47.0835C97.1519 47.0796 97.1575 47.0739 97.1641 47.0721C97.2096 47.0597 97.2553 47.0482 97.301 47.0364C97.3006 47.0839 97.2918 47.1332 97.3016 47.1784C97.3174 47.2519 97.332 47.3757 97.3707 47.3856C97.5482 47.4307 97.5754 47.5488 97.6061 47.703C97.6293 47.8196 97.6975 47.98 97.7891 48.0189C97.9658 48.0941 98.1694 48.1451 98.3322 47.9289C98.4918 47.7169 98.6739 47.7263 98.8949 47.8619C99.0111 47.9333 99.1752 47.9826 99.3051 47.9621C99.4858 47.9337 99.5764 47.9885 99.688 48.118C99.7759 48.2202 99.9323 48.2603 100.047 48.343C100.155 48.42 100.325 48.5102 100.333 48.6064C100.365 48.9713 100.63 49.0519 100.89 49.0617C101.196 49.0733 101.457 49.1248 101.637 49.3823C101.686 49.4524 101.73 49.6013 101.695 49.6422C101.463 49.9076 101.439 50.2286 101.401 50.5515C101.374 50.7879 101.237 50.9069 100.995 50.9106C100.744 50.9144 100.656 51.0312 100.69 51.286C100.702 51.3765 100.738 51.4994 100.695 51.5562C100.432 51.9027 100.273 52.3639 99.7554 52.4489C99.7104 52.4563 99.6606 52.5473 99.6473 52.607C99.63 52.6844 99.6443 52.7695 99.6506 52.8509C99.6546 52.9033 99.6541 52.9901 99.6806 53.0011C99.8528 53.0722 99.8643 53.1879 99.8242 53.3486C99.8109 53.4023 99.8699 53.4758 99.9004 53.538C99.9267 53.5917 99.9596 53.6422 99.9896 53.6941C99.9221 53.7079 99.852 53.7398 99.7875 53.731C99.7129 53.7208 99.6306 53.6898 99.5734 53.6419C99.2602 53.3793 99.0199 53.0814 99.0703 52.6297C99.0819 52.5259 99.0108 52.4145 98.9863 52.3048C98.9564 52.1711 98.93 52.0361 98.9128 51.9004C98.9039 51.8306 98.9278 51.7567 98.9203 51.6865C98.8914 51.4184 98.8177 51.149 98.8322 50.884C98.8509 50.5434 98.6928 50.3612 98.4163 50.2277C98.3479 50.1946 98.2759 50.1494 98.2312 50.0903C98.1189 49.9418 98.029 49.7763 97.916 49.6284C97.6706 49.307 97.7054 48.9598 97.9861 48.6723C98.0592 48.5974 98.0756 48.44 98.0673 48.3241C98.0629 48.2614 97.9546 48.1606 97.8876 48.1558C97.6259 48.1372 97.4748 47.9608 97.2805 47.824C97.0282 47.6465 96.7931 47.403 96.4229 47.4348C96.0449 47.4672 95.8599 47.2707 95.823 46.8924C95.8144 46.8047 95.7554 46.7214 95.7172 46.6373C95.6378 46.4624 95.5606 46.2863 95.4743 46.1149C95.4491 46.0648 95.3961 46.0287 95.3559 45.9862C95.3297 46.0452 95.2693 46.1147 95.2836 46.1613C95.3312 46.3173 95.4089 46.464 95.4679 46.617C95.4862 46.6647 95.4815 46.7213 95.4874 46.7739C95.4315 46.7566 95.3414 46.7546 95.3254 46.7192C95.2501 46.5526 95.1897 46.3784 95.1349 46.2035C95.1033 46.1025 95.1279 45.9404 95.066 45.9003C94.8377 45.7525 94.8212 45.5471 94.813 45.3105L94.8129 45.3104ZM98.6011 45.0579C98.6563 45.0777 98.727 45.1159 98.7999 45.1211C98.8208 45.1225 98.8797 44.9934 98.8682 44.9831C98.6961 44.8282 98.5284 44.6602 98.3302 44.5464C98.2402 44.4947 98.0848 44.5487 97.9617 44.5699C97.9387 44.5738 97.921 44.6483 97.9132 44.6924C97.8997 44.7679 97.8906 44.845 97.8898 44.9215C97.8892 44.9867 97.9028 45.0521 97.9101 45.1173C97.9693 45.0906 98.0416 45.0771 98.085 45.0343C98.1615 44.959 98.2205 44.8659 98.2868 44.7802L98.3594 44.8147C98.3364 44.9092 98.3118 45.0033 98.2913 45.0983C98.2819 45.142 98.2605 45.2092 98.2801 45.2271C98.3099 45.2543 98.3872 45.2711 98.4146 45.2513C98.4834 45.2015 98.5355 45.1287 98.6011 45.0578L98.6011 45.0579Z" fill="#FEC14C"/>
<path d="M117.089 54.7949C113.259 54.7536 110.174 51.6502 110.209 47.8927C110.245 44.0484 113.332 40.9778 117.148 41.0056C121.042 41.0339 124.03 44.1849 123.999 47.9275C123.966 51.7687 120.851 54.8354 117.089 54.7949ZM111.247 45.3104C111.191 45.4726 111.135 45.6349 111.079 45.7968C110.697 46.8922 110.596 48.018 110.85 49.1453C111.402 51.6006 112.877 53.2807 115.293 54.0019C117.701 54.7211 119.837 54.1088 121.654 52.3797C121.845 52.1974 122.068 52.0449 121.89 51.6886C121.733 51.3727 121.686 51.0019 121.589 50.6556C121.583 50.6352 121.573 50.6144 121.559 50.5983C121.4 50.409 121.42 50.2093 121.541 50.0169C121.639 49.8606 121.616 49.7307 121.529 49.5764C121.413 49.3716 121.259 49.1536 121.247 48.9343C121.23 48.6312 121.227 48.3952 120.847 48.3843C120.816 48.3834 120.786 48.3369 120.753 48.3353C120.612 48.328 120.45 48.2835 120.333 48.3362C119.979 48.496 119.535 48.4322 119.28 48.1442C119.222 48.0794 119.166 48.0138 119.106 47.9508C118.903 47.7345 118.905 47.494 118.996 47.2276C119.026 47.1423 118.98 47.0334 118.981 46.9355C118.982 46.8557 118.973 46.7475 119.018 46.702C119.134 46.5858 119.289 46.5083 119.407 46.3942C119.484 46.3202 119.563 46.2135 119.575 46.1136C119.597 45.922 119.701 45.8139 119.865 45.7826C120.231 45.7128 120.6 45.655 120.971 45.6211C121.048 45.614 121.163 45.7149 121.214 45.7955C121.289 45.9132 121.849 46.1843 121.983 46.1331C122.002 46.1257 122.024 46.1134 122.035 46.0969C122.173 45.8835 122.327 45.9777 122.504 46.049C122.67 46.116 122.857 46.1383 123.037 46.1616C123.084 46.1677 123.166 46.1154 123.186 46.0697C123.249 45.926 123.04 45.6426 122.893 45.5842C122.769 45.5346 122.667 45.423 122.563 45.3304C122.515 45.2872 122.484 45.2238 122.446 45.1696C122.392 45.2213 122.338 45.2717 122.286 45.3251C122.25 45.363 122.217 45.4048 122.183 45.4449C122.143 45.4052 122.092 45.3715 122.066 45.3243C122.035 45.2693 122.044 45.183 122.003 45.1442C121.865 45.0118 121.728 44.8608 121.56 44.782C121.426 44.7194 121.355 44.8431 121.438 44.9666C121.499 45.0572 121.622 45.1057 121.687 45.1949C121.733 45.2576 121.752 45.3622 121.736 45.4379C121.728 45.478 121.618 45.4964 121.553 45.5246C121.721 45.4002 121.686 45.3186 121.551 45.2223C121.44 45.1428 121.339 45.0498 121.229 44.9685C121.193 44.9418 121.134 44.9079 121.101 44.92C120.864 45.0072 120.6 45.0558 120.481 45.3273C120.376 45.5648 120.172 45.5797 119.951 45.5519C119.77 45.529 119.717 45.413 119.714 45.2481C119.712 45.0744 119.807 44.9968 119.964 44.9843C120.049 44.9776 120.14 45.0097 120.221 44.9904C120.281 44.9761 120.379 44.8776 120.373 44.8672C120.215 44.5966 120.387 44.5262 120.599 44.4683C120.643 44.4563 120.689 44.4144 120.713 44.3738C120.821 44.1914 120.977 44.1287 121.184 44.1299C121.252 44.1302 121.32 44.0453 121.388 43.9994C121.324 43.9457 121.261 43.8926 121.198 43.8383C121.094 43.7481 120.985 43.6619 120.895 43.5594C120.885 43.5484 120.974 43.4179 121.038 43.3805C121.369 43.1891 121.381 43.1455 121.073 42.9069C119.532 41.7122 117.798 41.2877 115.879 41.6373C115.045 41.7894 114.28 42.1212 113.575 42.5903C113.525 42.6234 113.491 42.6806 113.45 42.7266C113.507 42.7505 113.562 42.7763 113.62 42.7978C113.774 42.8556 113.928 42.9158 114.085 42.9666C114.186 42.9993 114.291 43.0253 114.396 43.0369C114.434 43.0411 114.477 42.9946 114.518 42.9712C114.492 42.9336 114.474 42.8824 114.438 42.8608C114.296 42.775 114.149 42.6983 113.994 42.6133C114.162 42.453 114.359 42.3191 114.541 42.473C114.746 42.6475 114.927 42.7446 115.193 42.6136C115.091 42.6884 114.984 42.7146 114.886 42.7606C114.838 42.7836 114.766 42.856 114.775 42.8831C114.793 42.9376 114.861 43.0169 114.904 43.0142C115.045 43.0054 115.184 42.9676 115.322 42.9348C115.459 42.9025 115.583 42.8597 115.495 42.6715C115.485 42.6484 115.529 42.5697 115.556 42.5646C115.631 42.5508 115.711 42.5626 115.789 42.5643C115.78 42.6084 115.757 42.6557 115.766 42.696C115.783 42.7749 115.818 42.8498 115.846 42.9263C115.91 42.8818 115.981 42.8443 116.037 42.7908C116.1 42.7294 116.136 42.6269 116.208 42.5892C116.453 42.4612 116.977 42.5557 117.157 42.7639C117.232 42.8514 117.27 42.976 117.301 43.0904C117.305 43.1055 117.164 43.1589 117.091 43.1962C117.072 43.2058 117.054 43.219 117.039 43.2343C116.876 43.402 116.718 43.3156 116.527 43.2315C116.596 43.1856 116.646 43.1588 116.687 43.1231C116.739 43.079 116.784 43.0274 116.832 42.9791C116.765 42.9309 116.697 42.8416 116.631 42.843C116.485 42.846 116.32 42.8604 116.199 42.9314C115.888 43.1125 115.811 43.1578 115.515 43.1931C115.459 43.1999 115.401 43.2175 115.35 43.243C115.228 43.3042 115.099 43.3606 114.992 43.4429C114.909 43.506 114.783 43.6304 114.802 43.6836C114.841 43.7944 114.962 43.877 115.051 43.9692C115.129 44.0498 115.211 44.1264 115.288 44.2077C115.321 44.242 115.346 44.3149 115.374 44.3151C115.422 44.3153 115.476 44.2785 115.515 44.2433C115.588 44.1769 115.639 44.0654 115.722 44.0355C115.905 43.9695 115.944 43.8512 115.965 43.6756C115.977 43.5833 116.098 43.4328 116.166 43.4348C116.287 43.4382 116.468 43.5089 116.511 43.6029C116.584 43.7641 116.651 43.7672 116.79 43.7205C116.837 43.7046 116.929 43.7378 116.962 43.7792C117.034 43.8696 117.096 43.9747 117.135 44.0835C117.159 44.1522 117.144 44.3051 117.131 44.3068C116.92 44.3347 116.707 44.3461 116.493 44.3577C116.413 44.3622 116.331 44.358 116.25 44.3577V44.587C116.204 44.6059 116.131 44.6202 116.077 44.6604C115.876 44.8105 115.676 44.9626 115.487 45.1267C115.357 45.2395 115.243 45.3722 115.125 45.4981C114.995 45.6363 114.856 45.7687 114.742 45.9189C114.643 46.0478 114.572 46.1978 114.49 46.3394C114.47 46.3741 114.456 46.4125 114.44 46.4493C114.4 46.4248 114.354 46.4067 114.323 46.3744C114.265 46.3156 114.224 46.2023 114.163 46.1921C113.801 46.1317 113.44 46.1302 113.134 46.3802C112.91 46.5629 112.801 46.976 112.947 47.1368C113.168 47.3781 113.377 47.2132 113.579 47.0835C113.585 47.0796 113.591 47.0739 113.598 47.0721C113.643 47.0597 113.689 47.0482 113.735 47.0364C113.734 47.0839 113.725 47.1332 113.735 47.1784C113.751 47.2519 113.766 47.3757 113.804 47.3856C113.982 47.4307 114.009 47.5488 114.04 47.703C114.063 47.8196 114.131 47.98 114.223 48.0189C114.399 48.0941 114.603 48.1451 114.766 47.9289C114.925 47.7169 115.107 47.7263 115.328 47.8619C115.445 47.9333 115.609 47.9826 115.739 47.9621C115.919 47.9337 116.01 47.9885 116.122 48.118C116.21 48.2202 116.366 48.2603 116.481 48.343C116.588 48.42 116.758 48.5102 116.767 48.6064C116.799 48.9713 117.063 49.0519 117.324 49.0617C117.63 49.0733 117.891 49.1248 118.07 49.3823C118.119 49.4524 118.164 49.6013 118.128 49.6422C117.896 49.9076 117.872 50.2286 117.835 50.5515C117.808 50.7879 117.67 50.9069 117.428 50.9106C117.178 50.9144 117.089 51.0312 117.124 51.286C117.136 51.3765 117.171 51.4994 117.128 51.5562C116.866 51.9027 116.707 52.3639 116.189 52.4489C116.144 52.4563 116.094 52.5473 116.081 52.607C116.064 52.6844 116.078 52.7695 116.084 52.8509C116.088 52.9033 116.088 52.9901 116.114 53.0011C116.286 53.0722 116.298 53.1879 116.258 53.3486C116.244 53.4023 116.303 53.4758 116.334 53.538C116.36 53.5917 116.393 53.6422 116.423 53.6941C116.356 53.7079 116.286 53.7398 116.221 53.731C116.147 53.7208 116.064 53.6898 116.007 53.6419C115.694 53.3793 115.453 53.0814 115.504 52.6297C115.516 52.5259 115.444 52.4145 115.42 52.3048C115.39 52.1711 115.364 52.0361 115.346 51.9004C115.338 51.8306 115.361 51.7567 115.354 51.6865C115.325 51.4184 115.251 51.149 115.266 50.884C115.284 50.5434 115.126 50.3612 114.85 50.2277C114.781 50.1946 114.71 50.1494 114.665 50.0903C114.552 49.9418 114.463 49.7763 114.35 49.6284C114.104 49.307 114.139 48.9598 114.42 48.6723C114.493 48.5974 114.509 48.44 114.501 48.3241C114.496 48.2614 114.388 48.1606 114.321 48.1558C114.06 48.1372 113.908 47.9608 113.714 47.824C113.462 47.6465 113.227 47.403 112.857 47.4348C112.479 47.4672 112.294 47.2707 112.257 46.8924C112.248 46.8047 112.189 46.7214 112.151 46.6373C112.071 46.4624 111.994 46.2863 111.908 46.1149C111.883 46.0648 111.83 46.0287 111.789 45.9862C111.763 46.0452 111.703 46.1147 111.717 46.1613C111.765 46.3173 111.843 46.464 111.901 46.617C111.92 46.6647 111.915 46.7213 111.921 46.7739C111.865 46.7566 111.775 46.7546 111.759 46.7192C111.684 46.5526 111.623 46.3784 111.569 46.2035C111.537 46.1025 111.562 45.9404 111.5 45.9003C111.271 45.7525 111.255 45.5471 111.247 45.3105L111.247 45.3104ZM115.035 45.0579C115.09 45.0777 115.161 45.1159 115.234 45.1211C115.254 45.1225 115.313 44.9934 115.302 44.9831C115.13 44.8282 114.962 44.6602 114.764 44.5464C114.674 44.4947 114.518 44.5487 114.395 44.5699C114.372 44.5738 114.355 44.6483 114.347 44.6924C114.333 44.7679 114.324 44.845 114.323 44.9215C114.323 44.9867 114.336 45.0521 114.344 45.1173C114.403 45.0906 114.475 45.0771 114.519 45.0343C114.595 44.959 114.654 44.8659 114.72 44.7802L114.793 44.8147C114.77 44.9092 114.745 45.0033 114.725 45.0983C114.715 45.142 114.694 45.2092 114.714 45.2271C114.743 45.2543 114.821 45.2711 114.848 45.2513C114.917 45.2015 114.969 45.1287 115.035 45.0578L115.035 45.0579Z" fill="#FEC14C"/>
<defs>
<radialGradient id="paint0_radial_220_6810" cx="0" cy="0" r="1" gradientUnits="userSpaceOnUse" gradientTransform="translate(30.0579 26.5478) rotate(-44.5093) scale(27.3673 27.3654)">
<stop stop-color="#FEC14C"/>
<stop offset="1" stop-color="#FFC82A"/>
</radialGradient>
<radialGradient id="paint1_radial_220_6810" cx="0" cy="0" r="1" gradientUnits="userSpaceOnUse" gradientTransform="translate(39.1899 24.8705) scale(30.6661 30.5233)">
<stop stop-color="#F9CD78"/>
<stop offset="1" stop-color="#FFC82A"/>
</radialGradient>
<radialGradient id="paint2_radial_220_6810" cx="0" cy="0" r="1" gradientUnits="userSpaceOnUse" gradientTransform="translate(39.1422 24.8691) scale(26.6011 26.4773)">
<stop stop-color="#F9CD78"/>
<stop offset="1" stop-color="#FFC82A"/>
</radialGradient>
<clipPath id="clip0_220_6810">
<rect width="6.87475" height="4.23061" fill="white" transform="translate(65.707 25.3848)"/>
</clipPath>
</defs>
</svg>
