<svg width="134" height="55" viewBox="0 0 134 55" fill="none" xmlns="http://www.w3.org/2000/svg">
<g clip-path="url(#clip0_220_6848)">
<g clip-path="url(#clip1_220_6848)">
<path d="M48.7127 20.0295C52.8573 33.014 45.6911 46.9007 32.7066 51.0452C19.7221 55.1898 5.83541 48.0236 1.69088 35.0391C-2.45365 22.0546 4.71247 8.16793 17.697 4.0234C30.6815 -0.12113 44.5682 7.045 48.7127 20.0295Z" fill="#BBE1E6"/>
</g>
</g>
<g clip-path="url(#clip2_220_6848)">
<path d="M66.7544 25.3875C65.9334 25.3057 65.2789 25.6646 64.6376 26.1042C62.7268 27.4136 60.7263 27.37 58.8724 26.012C58.473 25.7193 58.2415 25.391 58.5521 24.9243C58.8187 24.5238 59.2373 24.5048 59.7641 24.8437C61.3588 25.8701 62.3858 25.8547 63.9774 24.7804C65.841 23.5223 67.9729 23.5989 69.7443 24.9792C70.1291 25.2791 70.2877 25.63 69.9739 26.0366C69.6661 26.4353 69.2677 26.435 68.8589 26.1469C68.2317 25.7047 67.5844 25.31 66.7544 25.3876V25.3875Z" fill="#BBE1E6"/>
<path d="M61.6452 31.1107C60.6671 31.146 59.6599 30.6907 58.7531 29.9891C58.3891 29.7075 58.2746 29.3494 58.5719 28.9679C58.8623 28.5952 59.2545 28.5496 59.6364 28.8278C60.3494 29.3471 61.1181 29.788 62.0286 29.6053C62.6771 29.4752 63.3443 29.2307 63.8935 28.8787C65.8314 27.6366 67.7618 27.6327 69.6231 28.9597C70.1391 29.3275 70.2665 29.7102 69.9977 30.0845C69.721 30.4697 69.3019 30.4971 68.7805 30.1637C67.1765 29.1382 66.1443 29.1426 64.5695 30.2275C63.7532 30.7898 62.8647 31.1017 61.6452 31.1107Z" fill="#BBE1E6"/>
</g>
<path d="M90.7654 25.2416C83.8085 25.1667 78.2061 19.5304 78.2701 12.7062C78.3356 5.72436 83.9409 0.147698 90.8719 0.198093C97.9445 0.24951 103.371 5.97232 103.314 12.7694C103.255 19.7457 97.5963 25.3152 90.7654 25.2416ZM80.1539 8.01636C80.0523 8.31087 79.9515 8.60561 79.8489 8.89981C79.1552 10.8892 78.973 12.9338 79.4333 14.9812C80.436 19.4403 83.1154 22.4916 87.5021 23.8014C91.8767 25.1076 95.7562 23.9957 99.0548 20.8554C99.4027 20.5241 99.8073 20.2472 99.4849 19.6002C99.1989 19.0264 99.1132 18.353 98.9375 17.724C98.9272 17.6871 98.908 17.6493 98.8834 17.62C98.594 17.2763 98.6312 16.9136 98.8503 16.5641C99.0283 16.2802 98.9859 16.0442 98.828 15.764C98.6184 15.3921 98.3378 14.9961 98.3157 14.598C98.2854 14.0475 98.2794 13.6188 97.5905 13.5991C97.5329 13.5974 97.4781 13.513 97.4199 13.51C97.1637 13.4967 96.8692 13.416 96.6571 13.5116C96.0132 13.802 95.2065 13.6861 94.7433 13.163C94.6391 13.0453 94.5362 12.9262 94.4284 12.8118C94.0586 12.4188 94.062 11.9821 94.2286 11.4983C94.2819 11.3434 94.1997 11.1457 94.2017 10.9678C94.2033 10.8228 94.186 10.6263 94.2685 10.5437C94.4791 10.3327 94.7596 10.192 94.9754 9.98476C95.1152 9.8504 95.2584 9.65652 95.2796 9.47515C95.3203 9.1271 95.5085 8.93071 95.8067 8.87386C96.4712 8.74713 97.142 8.64217 97.815 8.58061C97.9552 8.5678 98.1637 8.75106 98.2564 8.89737C98.3919 9.11122 99.4093 9.60353 99.6528 9.51045C99.6879 9.49708 99.7276 9.47468 99.747 9.44472C99.9982 9.05713 100.277 9.22836 100.598 9.35769C100.901 9.47939 101.24 9.52004 101.567 9.56226C101.652 9.57326 101.802 9.47837 101.838 9.39543C101.952 9.13433 101.572 8.61961 101.307 8.51371C101.081 8.42361 100.896 8.22093 100.707 8.0526C100.619 7.9743 100.563 7.85912 100.493 7.76069C100.397 7.85456 100.298 7.94615 100.204 8.04301C100.138 8.1118 100.079 8.18775 100.016 8.26055C99.9437 8.18846 99.8515 8.12737 99.8034 8.04152C99.7475 7.94167 99.764 7.78498 99.6901 7.71446C99.4386 7.47412 99.1897 7.19981 98.8845 7.05665C98.6422 6.94304 98.5131 7.16758 98.6639 7.39188C98.7745 7.55659 98.9969 7.64464 99.1152 7.8066C99.1983 7.92044 99.2342 8.11039 99.2048 8.24797C99.1893 8.32077 98.9894 8.35419 98.8727 8.40545C99.1764 8.17942 99.1129 8.03122 98.8684 7.85629C98.6667 7.71194 98.4827 7.54307 98.2831 7.3955C98.2174 7.34691 98.1108 7.28543 98.0513 7.30729C97.6207 7.46578 97.1413 7.55399 96.9245 8.04702C96.7348 8.47841 96.3634 8.50553 95.9625 8.4549C95.6339 8.41339 95.5368 8.20277 95.5327 7.90315C95.5283 7.5878 95.7002 7.44676 95.9857 7.42419C96.1406 7.41193 96.3064 7.47019 96.4526 7.4352C96.5613 7.40918 96.7393 7.2304 96.7284 7.21153C96.4428 6.71992 96.7539 6.59216 97.1398 6.48697C97.2195 6.46527 97.3031 6.38901 97.3466 6.31534C97.5418 5.98411 97.8259 5.87027 98.2026 5.87232C98.3252 5.87295 98.4486 5.71877 98.5715 5.63536C98.4567 5.53787 98.3411 5.4414 98.2273 5.34274C98.0383 5.17889 97.8404 5.02244 97.6767 4.83619C97.6592 4.81622 97.8196 4.57934 97.937 4.51141C98.5387 4.16367 98.5596 4.0845 98.0005 3.65123C95.2008 1.4814 92.0523 0.710458 88.5679 1.34547C87.0519 1.62174 85.6632 2.22428 84.3825 3.07628C84.2922 3.13635 84.231 3.24028 84.1563 3.32378C84.2588 3.3671 84.3599 3.41403 84.464 3.45303C84.7445 3.55799 85.0237 3.66743 85.3086 3.75965C85.4919 3.819 85.6823 3.86633 85.873 3.8874C85.9422 3.89503 86.0214 3.81051 86.0961 3.76806C86.0486 3.69974 86.016 3.60673 85.951 3.5675C85.6927 3.4116 85.4244 3.27244 85.1434 3.11803C85.4497 2.8269 85.8064 2.58365 86.1362 2.86315C86.5103 3.18006 86.838 3.35641 87.3219 3.11858C87.136 3.25444 86.9415 3.30192 86.7642 3.38557C86.6756 3.42732 86.546 3.55869 86.562 3.60807C86.5942 3.70697 86.7186 3.851 86.7967 3.84613C87.052 3.83017 87.3049 3.76146 87.5561 3.70194C87.8039 3.64329 88.0289 3.56553 87.8705 3.22377C87.851 3.18171 87.9312 3.03878 87.9813 3.02958C88.1175 3.00443 88.2624 3.02589 88.4037 3.02895C88.388 3.10915 88.346 3.195 88.362 3.26827C88.3932 3.41144 88.4568 3.54745 88.507 3.68645C88.6237 3.60555 88.7528 3.53755 88.8537 3.44029C88.9692 3.32889 89.0339 3.14272 89.1651 3.07416C89.61 2.84176 90.5612 3.01347 90.8873 3.39155C91.0243 3.55036 91.0939 3.77679 91.1498 3.98442C91.1572 4.01194 90.9009 4.10895 90.7681 4.17657C90.7336 4.1941 90.7004 4.21808 90.6736 4.24575C90.3786 4.5504 90.0905 4.39356 89.7448 4.2408C89.8696 4.15738 89.9594 4.1088 90.0352 4.04386C90.1287 3.96374 90.2105 3.87011 90.2974 3.78229C90.1758 3.69486 90.0527 3.53267 89.9331 3.53519C89.668 3.54069 89.3683 3.56679 89.1476 3.69565C88.5841 4.0246 88.4434 4.10683 87.9063 4.17106C87.8038 4.18333 87.6987 4.21541 87.6064 4.26156C87.384 4.3728 87.1513 4.47524 86.9558 4.62462C86.8058 4.73925 86.5775 4.96528 86.6114 5.0619C86.682 5.26301 86.9016 5.41302 87.0635 5.58056C87.205 5.72695 87.3542 5.86603 87.4946 6.0136C87.5539 6.07594 87.5988 6.20834 87.6508 6.20865C87.7365 6.20912 87.8355 6.14222 87.9057 6.0783C88.0381 5.95778 88.1309 5.75533 88.2814 5.70101C88.6138 5.58111 88.685 5.36624 88.7241 5.04728C88.7446 4.87966 88.9647 4.60638 89.088 4.60992C89.3079 4.61621 89.6371 4.74452 89.7147 4.91528C89.8477 5.20806 89.969 5.21364 90.2216 5.12881C90.3075 5.09996 90.4741 5.16026 90.5342 5.23542C90.6654 5.39966 90.7773 5.59054 90.8477 5.78812C90.8922 5.91296 90.8638 6.19065 90.841 6.19372C90.4577 6.24427 90.0701 6.26502 89.6831 6.28617C89.5362 6.29419 89.3885 6.28664 89.2411 6.28617V6.70262C89.1572 6.73682 89.0243 6.76284 88.9266 6.83588C88.562 7.10846 88.1987 7.38473 87.8548 7.6827C87.6185 7.88758 87.413 8.12855 87.1976 8.35717C86.9613 8.60821 86.7101 8.8487 86.5015 9.12144C86.3224 9.35565 86.1929 9.62798 86.0445 9.88515C86.0081 9.9482 85.9835 10.018 85.9536 10.0848C85.8818 10.0403 85.798 10.0075 85.7408 9.94875C85.6367 9.84191 85.5623 9.63616 85.4511 9.61761C84.7934 9.50793 84.1371 9.50526 83.5811 9.95937C83.1748 10.2911 82.9763 11.0414 83.2426 11.3333C83.6427 11.7717 84.0237 11.4722 84.3908 11.2366C84.4018 11.2295 84.4119 11.2191 84.4239 11.2158C84.5066 11.1934 84.5896 11.1725 84.6726 11.1511C84.6718 11.2373 84.6559 11.3268 84.6736 11.409C84.7024 11.5424 84.7288 11.7673 84.7991 11.7852C85.1216 11.8672 85.1709 12.0815 85.2266 12.3617C85.2688 12.5734 85.3927 12.8647 85.559 12.9354C85.8799 13.072 86.2498 13.1647 86.5454 12.7719C86.8352 12.3869 87.166 12.404 87.5673 12.6504C87.7784 12.7799 88.0764 12.8695 88.3124 12.8323C88.6405 12.7806 88.805 12.8802 89.0077 13.1155C89.1674 13.3009 89.4515 13.3737 89.6606 13.524C89.8554 13.6639 90.1643 13.8278 90.1796 14.0025C90.2379 14.6652 90.7182 14.8115 91.1911 14.8294C91.7464 14.8504 92.2214 14.9439 92.5471 15.4115C92.6359 15.5389 92.7171 15.8094 92.6522 15.8836C92.2312 16.3655 92.1872 16.9487 92.1197 17.5351C92.0703 17.9643 91.8201 18.1806 91.3813 18.1872C90.9264 18.1942 90.7655 18.4063 90.8278 18.869C90.85 19.0334 90.9139 19.2565 90.8358 19.3596C90.3589 19.989 90.0704 20.8266 89.1302 20.981C89.0484 20.9944 88.958 21.1596 88.9338 21.2682C88.9024 21.4086 88.9284 21.5633 88.9398 21.7111C88.9471 21.8062 88.9461 21.9639 88.9943 21.9838C89.307 22.113 89.3279 22.3231 89.2552 22.6149C89.2309 22.7124 89.3381 22.846 89.3935 22.959C89.4413 23.0565 89.5011 23.1481 89.5556 23.2424C89.4328 23.2676 89.3056 23.3254 89.1885 23.3094C89.053 23.2909 88.9035 23.2347 88.7997 23.1477C88.2308 22.6708 87.7944 22.1296 87.886 21.3093C87.9071 21.1209 87.7779 20.9186 87.7333 20.7192C87.679 20.4765 87.6312 20.2314 87.5999 19.9849C87.5838 19.858 87.6272 19.7239 87.6134 19.5963C87.561 19.1094 87.4272 18.6201 87.4535 18.1388C87.4874 17.5202 87.2002 17.1895 86.6982 16.9469C86.5739 16.8869 86.4432 16.8047 86.362 16.6974C86.158 16.4277 85.9948 16.1271 85.7896 15.8584C85.3439 15.2748 85.407 14.6442 85.9168 14.122C86.0495 13.9861 86.0794 13.7002 86.0644 13.4897C86.0563 13.3758 85.8597 13.1927 85.7379 13.184C85.2627 13.1502 84.9882 12.8299 84.6353 12.5815C84.1772 12.2591 83.7502 11.8168 83.0779 11.8745C82.3913 11.9335 82.0554 11.5765 81.9882 10.8894C81.9727 10.7302 81.8655 10.579 81.7961 10.4261C81.652 10.1085 81.5117 9.78876 81.355 9.47743C81.3092 9.38646 81.213 9.3209 81.14 9.24369C81.0924 9.35085 80.9828 9.47703 81.0086 9.56179C81.0952 9.84513 81.2363 10.1114 81.3433 10.3893C81.3767 10.476 81.3682 10.5788 81.3789 10.6743C81.2773 10.6428 81.1137 10.6393 81.0847 10.575C80.9479 10.2724 80.8381 9.95599 80.7387 9.63828C80.6812 9.45494 80.7259 9.16051 80.6135 9.08771C80.1989 8.8193 80.1688 8.44633 80.154 8.01651L80.1539 8.01636ZM87.0337 7.55769C87.134 7.5937 87.2624 7.66304 87.3949 7.67247C87.4327 7.67515 87.5398 7.4407 87.5189 7.42191C87.2063 7.14069 86.9016 6.83557 86.5418 6.6288C86.3784 6.53493 86.0961 6.63296 85.8726 6.67141C85.8307 6.67856 85.7986 6.81387 85.7844 6.89406C85.76 7.03102 85.7434 7.17112 85.7419 7.31004C85.7408 7.42844 85.7655 7.54715 85.7788 7.66571C85.8864 7.6172 86.0176 7.5926 86.0965 7.51492C86.2354 7.3782 86.3425 7.20901 86.4629 7.05342L86.5947 7.11608C86.5531 7.28771 86.5084 7.45863 86.4712 7.63112C86.454 7.71053 86.4153 7.83262 86.4507 7.86501C86.5048 7.91447 86.6452 7.94505 86.695 7.90904C86.8199 7.81863 86.9146 7.68639 87.0338 7.55753L87.0337 7.55769Z" fill="#BBE1E6"/>
<path d="M120.611 25.2416C113.654 25.1667 108.052 19.5304 108.116 12.7062C108.181 5.72436 113.787 0.147698 120.718 0.198093C127.79 0.24951 133.217 5.97232 133.159 12.7694C133.1 19.7457 127.442 25.3152 120.611 25.2416ZM110 8.01636C109.898 8.31087 109.797 8.60561 109.695 8.89981C109.001 10.8892 108.819 12.9338 109.279 14.9812C110.282 19.4403 112.961 22.4916 117.348 23.8014C121.722 25.1076 125.602 23.9957 128.9 20.8554C129.248 20.5241 129.653 20.2472 129.331 19.6002C129.045 19.0264 128.959 18.353 128.783 17.724C128.773 17.6871 128.754 17.6493 128.729 17.62C128.44 17.2763 128.477 16.9136 128.696 16.5641C128.874 16.2802 128.832 16.0442 128.674 15.764C128.464 15.3921 128.183 14.9961 128.161 14.598C128.131 14.0475 128.125 13.6188 127.436 13.5991C127.379 13.5974 127.324 13.513 127.266 13.51C127.009 13.4967 126.715 13.416 126.503 13.5116C125.859 13.802 125.052 13.6861 124.589 13.163C124.485 13.0453 124.382 12.9262 124.274 12.8118C123.904 12.4188 123.908 11.9821 124.074 11.4983C124.128 11.3434 124.045 11.1457 124.047 10.9678C124.049 10.8228 124.032 10.6263 124.114 10.5437C124.325 10.3327 124.605 10.192 124.821 9.98476C124.961 9.8504 125.104 9.65652 125.125 9.47515C125.166 9.1271 125.354 8.93071 125.652 8.87386C126.317 8.74713 126.988 8.64217 127.661 8.58061C127.801 8.5678 128.009 8.75106 128.102 8.89737C128.238 9.11122 129.255 9.60353 129.499 9.51045C129.534 9.49708 129.573 9.47468 129.593 9.44472C129.844 9.05713 130.123 9.22836 130.444 9.35769C130.746 9.47939 131.085 9.52004 131.413 9.56226C131.498 9.57326 131.648 9.47837 131.684 9.39543C131.798 9.13433 131.418 8.61961 131.152 8.51371C130.926 8.42361 130.742 8.22093 130.552 8.0526C130.464 7.9743 130.409 7.85912 130.339 7.76069C130.242 7.85456 130.143 7.94615 130.05 8.04301C129.983 8.1118 129.924 8.18775 129.862 8.26055C129.789 8.18846 129.697 8.12737 129.649 8.04152C129.593 7.94167 129.61 7.78498 129.536 7.71446C129.284 7.47412 129.035 7.19981 128.73 7.05665C128.488 6.94304 128.359 7.16758 128.51 7.39188C128.62 7.55659 128.843 7.64464 128.961 7.8066C129.044 7.92044 129.08 8.11039 129.051 8.24797C129.035 8.32077 128.835 8.35419 128.718 8.40545C129.022 8.17942 128.959 8.03122 128.714 7.85629C128.512 7.71194 128.328 7.54307 128.129 7.3955C128.063 7.34691 127.957 7.28543 127.897 7.30729C127.466 7.46578 126.987 7.55399 126.77 8.04702C126.581 8.47841 126.209 8.50553 125.808 8.4549C125.48 8.41339 125.383 8.20277 125.378 7.90315C125.374 7.5878 125.546 7.44676 125.831 7.42419C125.986 7.41193 126.152 7.47019 126.298 7.4352C126.407 7.40918 126.585 7.2304 126.574 7.21153C126.289 6.71992 126.6 6.59216 126.986 6.48697C127.065 6.46527 127.149 6.38901 127.192 6.31534C127.388 5.98411 127.672 5.87027 128.048 5.87232C128.171 5.87295 128.294 5.71877 128.417 5.63536C128.302 5.53787 128.187 5.4414 128.073 5.34274C127.884 5.17889 127.686 5.02244 127.522 4.83619C127.505 4.81622 127.665 4.57934 127.783 4.51141C128.384 4.16367 128.405 4.0845 127.846 3.65123C125.047 1.4814 121.898 0.710458 118.414 1.34547C116.898 1.62174 115.509 2.22428 114.228 3.07628C114.138 3.13635 114.077 3.24028 114.002 3.32378C114.105 3.3671 114.206 3.41403 114.31 3.45303C114.59 3.55799 114.869 3.66743 115.154 3.75965C115.338 3.819 115.528 3.86633 115.719 3.8874C115.788 3.89503 115.867 3.81051 115.942 3.76806C115.894 3.69974 115.862 3.60673 115.797 3.5675C115.538 3.4116 115.27 3.27244 114.989 3.11803C115.295 2.8269 115.652 2.58365 115.982 2.86315C116.356 3.18006 116.684 3.35641 117.168 3.11858C116.982 3.25444 116.787 3.30192 116.61 3.38557C116.521 3.42732 116.392 3.55869 116.408 3.60807C116.44 3.70697 116.564 3.851 116.642 3.84613C116.898 3.83017 117.151 3.76146 117.402 3.70194C117.65 3.64329 117.875 3.56553 117.716 3.22377C117.697 3.18171 117.777 3.03878 117.827 3.02958C117.963 3.00443 118.108 3.02589 118.249 3.02895C118.234 3.10915 118.192 3.195 118.208 3.26827C118.239 3.41144 118.303 3.54745 118.353 3.68645C118.469 3.60555 118.599 3.53755 118.699 3.44029C118.815 3.32889 118.88 3.14272 119.011 3.07416C119.456 2.84176 120.407 3.01347 120.733 3.39155C120.87 3.55036 120.94 3.77679 120.996 3.98442C121.003 4.01194 120.747 4.10895 120.614 4.17657C120.579 4.1941 120.546 4.21808 120.519 4.24575C120.224 4.5504 119.936 4.39356 119.59 4.2408C119.715 4.15738 119.805 4.1088 119.881 4.04386C119.974 3.96374 120.056 3.87011 120.143 3.78229C120.022 3.69486 119.898 3.53267 119.779 3.53519C119.514 3.54069 119.214 3.56679 118.993 3.69565C118.43 4.0246 118.289 4.10683 117.752 4.17106C117.65 4.18333 117.544 4.21541 117.452 4.26156C117.23 4.3728 116.997 4.47524 116.801 4.62462C116.651 4.73925 116.423 4.96528 116.457 5.0619C116.528 5.26301 116.747 5.41302 116.909 5.58056C117.051 5.72695 117.2 5.86603 117.34 6.0136C117.4 6.07594 117.444 6.20834 117.497 6.20865C117.582 6.20912 117.681 6.14222 117.751 6.0783C117.884 5.95778 117.977 5.75533 118.127 5.70101C118.459 5.58111 118.531 5.36624 118.57 5.04728C118.59 4.87966 118.81 4.60638 118.934 4.60992C119.154 4.61621 119.483 4.74452 119.56 4.91528C119.693 5.20806 119.815 5.21364 120.067 5.12881C120.153 5.09996 120.32 5.16026 120.38 5.23542C120.511 5.39966 120.623 5.59054 120.693 5.78812C120.738 5.91296 120.71 6.19065 120.687 6.19372C120.303 6.24427 119.916 6.26502 119.529 6.28617C119.382 6.29419 119.234 6.28664 119.087 6.28617V6.70262C119.003 6.73682 118.87 6.76284 118.772 6.83588C118.408 7.10846 118.044 7.38473 117.701 7.6827C117.464 7.88758 117.259 8.12855 117.043 8.35717C116.807 8.60821 116.556 8.8487 116.347 9.12144C116.168 9.35565 116.039 9.62798 115.89 9.88515C115.854 9.9482 115.829 10.018 115.799 10.0848C115.727 10.0403 115.644 10.0075 115.587 9.94875C115.482 9.84191 115.408 9.63616 115.297 9.61761C114.639 9.50793 113.983 9.50526 113.427 9.95937C113.021 10.2911 112.822 11.0414 113.088 11.3333C113.488 11.7717 113.869 11.4722 114.236 11.2366C114.247 11.2295 114.258 11.2191 114.27 11.2158C114.352 11.1934 114.435 11.1725 114.518 11.1511C114.518 11.2373 114.502 11.3268 114.519 11.409C114.548 11.5424 114.575 11.7673 114.645 11.7852C114.967 11.8672 115.017 12.0815 115.072 12.3617C115.114 12.5734 115.238 12.8647 115.405 12.9354C115.726 13.072 116.096 13.1647 116.391 12.7719C116.681 12.3869 117.012 12.404 117.413 12.6504C117.624 12.7799 117.922 12.8695 118.158 12.8323C118.486 12.7806 118.651 12.8802 118.853 13.1155C119.013 13.3009 119.297 13.3737 119.506 13.524C119.701 13.6639 120.01 13.8278 120.025 14.0025C120.084 14.6652 120.564 14.8115 121.037 14.8294C121.592 14.8504 122.067 14.9439 122.393 15.4115C122.482 15.5389 122.563 15.8094 122.498 15.8836C122.077 16.3655 122.033 16.9487 121.965 17.5351C121.916 17.9643 121.666 18.1806 121.227 18.1872C120.772 18.1942 120.611 18.4063 120.674 18.869C120.696 19.0334 120.76 19.2565 120.682 19.3596C120.205 19.989 119.916 20.8266 118.976 20.981C118.894 20.9944 118.804 21.1596 118.779 21.2682C118.748 21.4086 118.774 21.5633 118.785 21.7111C118.793 21.8062 118.792 21.9639 118.84 21.9838C119.153 22.113 119.174 22.3231 119.101 22.6149C119.077 22.7124 119.184 22.846 119.239 22.959C119.287 23.0565 119.347 23.1481 119.401 23.2424C119.279 23.2676 119.151 23.3254 119.034 23.3094C118.899 23.2909 118.749 23.2347 118.645 23.1477C118.077 22.6708 117.64 22.1296 117.732 21.3093C117.753 21.1209 117.624 20.9186 117.579 20.7192C117.525 20.4765 117.477 20.2314 117.446 19.9849C117.429 19.858 117.473 19.7239 117.459 19.5963C117.407 19.1094 117.273 18.6201 117.299 18.1388C117.333 17.5202 117.046 17.1895 116.544 16.9469C116.42 16.8869 116.289 16.8047 116.208 16.6974C116.004 16.4277 115.84 16.1271 115.635 15.8584C115.19 15.2748 115.253 14.6442 115.762 14.122C115.895 13.9861 115.925 13.7002 115.91 13.4897C115.902 13.3758 115.705 13.1927 115.584 13.184C115.108 13.1502 114.834 12.8299 114.481 12.5815C114.023 12.2591 113.596 11.8168 112.924 11.8745C112.237 11.9335 111.901 11.5765 111.834 10.8894C111.818 10.7302 111.711 10.579 111.642 10.4261C111.498 10.1085 111.357 9.78876 111.201 9.47743C111.155 9.38646 111.059 9.3209 110.986 9.24369C110.938 9.35085 110.828 9.47703 110.854 9.56179C110.941 9.84513 111.082 10.1114 111.189 10.3893C111.222 10.476 111.214 10.5788 111.225 10.6743C111.123 10.6428 110.959 10.6393 110.93 10.575C110.794 10.2724 110.684 9.95599 110.584 9.63828C110.527 9.45494 110.572 9.16051 110.459 9.08771C110.045 8.8193 110.015 8.44633 110 8.01651L110 8.01636ZM116.879 7.55769C116.98 7.5937 117.108 7.66304 117.241 7.67247C117.278 7.67515 117.386 7.4407 117.365 7.42191C117.052 7.14069 116.747 6.83557 116.387 6.6288C116.224 6.53493 115.942 6.63296 115.718 6.67141C115.676 6.67856 115.644 6.81387 115.63 6.89406C115.606 7.03102 115.589 7.17112 115.588 7.31004C115.586 7.42844 115.611 7.54715 115.624 7.66571C115.732 7.6172 115.863 7.5926 115.942 7.51492C116.081 7.3782 116.188 7.20901 116.309 7.05342L116.44 7.11608C116.399 7.28771 116.354 7.45863 116.317 7.63112C116.3 7.71053 116.261 7.83262 116.296 7.86501C116.351 7.91447 116.491 7.94505 116.541 7.90904C116.666 7.81863 116.76 7.68639 116.879 7.55753L116.879 7.55769Z" fill="#BBE1E6"/>
<path d="M90.7654 54.8017C83.8085 54.7268 78.2061 49.0904 78.2701 42.2662C78.3356 35.2844 83.9409 29.7078 90.8719 29.7582C97.9445 29.8096 103.371 35.5324 103.314 42.3295C103.255 49.3058 97.5963 54.8753 90.7654 54.8017ZM80.1539 37.5764C80.0523 37.8709 79.9515 38.1657 79.8489 38.4599C79.1552 40.4493 78.973 42.4938 79.4333 44.5413C80.436 49.0003 83.1154 52.0517 87.5021 53.3615C91.8767 54.6676 95.7562 53.5557 99.0548 50.4154C99.4027 50.0842 99.8073 49.8073 99.4849 49.1603C99.1989 48.5865 99.1132 47.913 98.9375 47.2841C98.9272 47.2471 98.908 47.2094 98.8834 47.1801C98.594 46.8363 98.6312 46.4737 98.8503 46.1242C99.0283 45.8403 98.9859 45.6043 98.828 45.3241C98.6184 44.9521 98.3378 44.5562 98.3157 44.1581C98.2854 43.6076 98.2794 43.1789 97.5905 43.1591C97.5329 43.1575 97.4781 43.073 97.4199 43.0701C97.1637 43.0568 96.8692 42.9761 96.6571 43.0717C96.0132 43.362 95.2065 43.2462 94.7433 42.723C94.6391 42.6053 94.5362 42.4863 94.4284 42.3718C94.0586 41.9789 94.062 41.5422 94.2286 41.0584C94.2819 40.9034 94.1997 40.7057 94.2017 40.5279C94.2033 40.3829 94.186 40.1864 94.2685 40.1038C94.4791 39.8927 94.7596 39.7521 94.9754 39.5448C95.1152 39.4105 95.2584 39.2166 95.2796 39.0352C95.3203 38.6872 95.5085 38.4908 95.8067 38.4339C96.4712 38.3072 97.142 38.2022 97.815 38.1407C97.9552 38.1279 98.1637 38.3111 98.2564 38.4574C98.3919 38.6713 99.4093 39.1636 99.6528 39.0705C99.6879 39.0571 99.7276 39.0347 99.747 39.0048C99.9982 38.6172 100.277 38.7884 100.598 38.9177C100.901 39.0395 101.24 39.0801 101.567 39.1223C101.652 39.1333 101.802 39.0384 101.838 38.9555C101.952 38.6944 101.572 38.1797 101.307 38.0738C101.081 37.9837 100.896 37.781 100.707 37.6127C100.619 37.5344 100.563 37.4192 100.493 37.3207C100.397 37.4146 100.298 37.5062 100.204 37.6031C100.138 37.6719 100.079 37.7478 100.016 37.8206C99.9437 37.7485 99.8515 37.6874 99.8034 37.6016C99.7475 37.5017 99.764 37.345 99.6901 37.2745C99.4386 37.0342 99.1897 36.7599 98.8845 36.6167C98.6422 36.5031 98.5131 36.7276 98.6639 36.9519C98.7745 37.1166 98.9969 37.2047 99.1152 37.3667C99.1983 37.4805 99.2342 37.6704 99.2048 37.808C99.1893 37.8808 98.9894 37.9142 98.8727 37.9655C99.1764 37.7395 99.1129 37.5913 98.8684 37.4163C98.6667 37.272 98.4827 37.1031 98.2831 36.9556C98.2174 36.907 98.1108 36.8455 98.0513 36.8673C97.6207 37.0258 97.1413 37.1141 96.9245 37.6071C96.7348 38.0385 96.3634 38.0656 95.9625 38.015C95.6339 37.9734 95.5368 37.7628 95.5327 37.4632C95.5283 37.1479 95.7002 37.0068 95.9857 36.9843C96.1406 36.972 96.3064 37.0302 96.4526 36.9953C96.5613 36.9692 96.7393 36.7905 96.7284 36.7716C96.4428 36.28 96.7539 36.1522 97.1398 36.047C97.2195 36.0253 97.3031 35.9491 97.3466 35.8754C97.5418 35.5442 97.8259 35.4303 98.2026 35.4324C98.3252 35.433 98.4486 35.2788 98.5715 35.1954C98.4567 35.0979 98.3411 35.0015 98.2273 34.9028C98.0383 34.739 97.8404 34.5825 97.6767 34.3962C97.6592 34.3763 97.8196 34.1394 97.937 34.0715C98.5387 33.7237 98.5596 33.6446 98.0005 33.2113C95.2008 31.0415 92.0523 30.2705 88.5679 30.9055C87.0519 31.1818 85.6632 31.7843 84.3825 32.6363C84.2922 32.6964 84.231 32.8003 84.1563 32.8838C84.2588 32.9272 84.3599 32.9741 84.464 33.0131C84.7445 33.118 85.0237 33.2275 85.3086 33.3197C85.4919 33.3791 85.6823 33.4264 85.873 33.4475C85.9422 33.4551 86.0214 33.3706 86.0961 33.3281C86.0486 33.2598 86.016 33.1668 85.951 33.1276C85.6927 32.9717 85.4244 32.8325 85.1434 32.6781C85.4497 32.387 85.8064 32.1437 86.1362 32.4232C86.5103 32.7401 86.838 32.9165 87.3219 32.6786C87.136 32.8145 86.9415 32.862 86.7642 32.9456C86.6756 32.9874 86.546 33.1188 86.562 33.1681C86.5942 33.267 86.7186 33.4111 86.7967 33.4062C87.052 33.3902 87.3049 33.3215 87.5561 33.262C87.8039 33.2033 88.0289 33.1256 87.8705 32.7838C87.851 32.7418 87.9312 32.5988 87.9813 32.5896C88.1175 32.5645 88.2624 32.5859 88.4037 32.589C88.388 32.6692 88.346 32.7551 88.362 32.8283C88.3932 32.9715 88.4568 33.1075 88.507 33.2465C88.6237 33.1656 88.7528 33.0976 88.8537 33.0004C88.9692 32.8889 89.0339 32.7028 89.1651 32.6342C89.61 32.4018 90.5612 32.5735 90.8873 32.9516C91.0243 33.1104 91.0939 33.3368 91.1498 33.5445C91.1572 33.572 90.9009 33.669 90.7681 33.7366C90.7336 33.7542 90.7004 33.7781 90.6736 33.8058C90.3786 34.1105 90.0905 33.9536 89.7448 33.8009C89.8696 33.7174 89.9594 33.6689 90.0352 33.6039C90.1287 33.5238 90.2105 33.4302 90.2974 33.3423C90.1758 33.2549 90.0527 33.0927 89.9331 33.0952C89.668 33.1007 89.3683 33.1269 89.1476 33.2557C88.5841 33.5847 88.4434 33.6669 87.9063 33.7311C87.8038 33.7434 87.6987 33.7755 87.6064 33.8216C87.384 33.9329 87.1513 34.0353 86.9558 34.1847C86.8058 34.2993 86.5775 34.5253 86.6114 34.622C86.682 34.8231 86.9016 34.9731 87.0635 35.1406C87.205 35.287 87.3542 35.4261 87.4946 35.5737C87.5539 35.636 87.5988 35.7684 87.6508 35.7687C87.7365 35.7692 87.8355 35.7023 87.9057 35.6384C88.0381 35.5178 88.1309 35.3154 88.2814 35.2611C88.6138 35.1412 88.685 34.9263 88.7241 34.6073C88.7446 34.4397 88.9647 34.1664 89.088 34.17C89.3079 34.1763 89.6371 34.3046 89.7147 34.4753C89.8477 34.7681 89.969 34.7737 90.2216 34.6889C90.3075 34.66 90.4741 34.7203 90.5342 34.7955C90.6654 34.9597 90.7773 35.1506 90.8477 35.3482C90.8922 35.473 90.8638 35.7507 90.841 35.7538C90.4577 35.8043 90.0701 35.8251 89.6831 35.8462C89.5362 35.8543 89.3885 35.8467 89.2411 35.8462V36.2627C89.1572 36.2969 89.0243 36.3229 88.9266 36.3959C88.562 36.6685 88.1987 36.9448 87.8548 37.2428C87.6185 37.4476 87.413 37.6886 87.1976 37.9172C86.9613 38.1683 86.7101 38.4088 86.5015 38.6815C86.3224 38.9157 86.1929 39.188 86.0445 39.4452C86.0081 39.5083 85.9835 39.5781 85.9536 39.6448C85.8818 39.6003 85.798 39.5675 85.7408 39.5088C85.6367 39.402 85.5623 39.1962 85.4511 39.1777C84.7934 39.068 84.1371 39.0653 83.5811 39.5194C83.1748 39.8512 82.9763 40.6015 83.2426 40.8934C83.6427 41.3318 84.0237 41.0322 84.3908 40.7967C84.4018 40.7896 84.4119 40.7791 84.4239 40.7758C84.5066 40.7534 84.5896 40.7325 84.6726 40.7111C84.6718 40.7974 84.6559 40.8869 84.6736 40.969C84.7024 41.1024 84.7288 41.3274 84.7991 41.3452C85.1216 41.4273 85.1709 41.6416 85.2266 41.9217C85.2688 42.1335 85.3927 42.4247 85.559 42.4955C85.8799 42.6321 86.2498 42.7248 86.5454 42.332C86.8352 41.947 87.166 41.9641 87.5673 42.2104C87.7784 42.34 88.0764 42.4295 88.3124 42.3923C88.6405 42.3407 88.805 42.4402 89.0077 42.6755C89.1674 42.861 89.4515 42.9338 89.6606 43.084C89.8554 43.224 90.1643 43.3878 90.1796 43.5625C90.2379 44.2252 90.7182 44.3716 91.1911 44.3894C91.7464 44.4104 92.2214 44.504 92.5471 44.9715C92.6359 45.099 92.7171 45.3694 92.6522 45.4437C92.2312 45.9256 92.1872 46.5087 92.1197 47.0951C92.0703 47.5243 91.8201 47.7406 91.3813 47.7473C90.9264 47.7542 90.7655 47.9663 90.8278 48.4291C90.85 48.5935 90.9139 48.8165 90.8358 48.9197C90.3589 49.5491 90.0704 50.3866 89.1302 50.5411C89.0484 50.5545 88.958 50.7197 88.9338 50.8282C88.9024 50.9687 88.9284 51.1234 88.9398 51.2712C88.9471 51.3662 88.9461 51.524 88.9943 51.5438C89.307 51.6731 89.3279 51.8832 89.2552 52.175C89.2309 52.2725 89.3381 52.4061 89.3935 52.519C89.4413 52.6165 89.5011 52.7082 89.5556 52.8025C89.4328 52.8276 89.3056 52.8855 89.1885 52.8695C89.053 52.851 88.9035 52.7948 88.7997 52.7077C88.2308 52.2308 87.7944 51.6897 87.886 50.8694C87.9071 50.6809 87.7779 50.4786 87.7333 50.2792C87.679 50.0365 87.6312 49.7914 87.5999 49.5449C87.5838 49.418 87.6272 49.2839 87.6134 49.1563C87.561 48.6695 87.4272 48.1802 87.4535 47.6989C87.4874 47.0803 87.2002 46.7495 86.6982 46.507C86.5739 46.4469 86.4432 46.3648 86.362 46.2575C86.158 45.9878 85.9948 45.6871 85.7896 45.4185C85.3439 44.8348 85.407 44.2042 85.9168 43.6821C86.0495 43.5462 86.0794 43.2602 86.0644 43.0498C86.0563 42.9358 85.8597 42.7527 85.7379 42.7441C85.2627 42.7103 84.9882 42.3899 84.6353 42.1416C84.1772 41.8191 83.7502 41.3769 83.0779 41.4346C82.3913 41.4936 82.0554 41.1366 81.9882 40.4495C81.9727 40.2903 81.8655 40.139 81.7961 39.9862C81.652 39.6686 81.5117 39.3488 81.355 39.0375C81.3092 38.9465 81.213 38.881 81.14 38.8037C81.0924 38.9109 80.9828 39.0371 81.0086 39.1218C81.0952 39.4052 81.2363 39.6715 81.3433 39.9494C81.3767 40.036 81.3682 40.1389 81.3789 40.2343C81.2773 40.2029 81.1137 40.1993 81.0847 40.1351C80.9479 39.8324 80.8381 39.516 80.7387 39.1983C80.6812 39.015 80.7259 38.7206 80.6135 38.6478C80.1989 38.3794 80.1688 38.0064 80.154 37.5766L80.1539 37.5764ZM87.0337 37.1177C87.134 37.1538 87.2624 37.2231 87.3949 37.2325C87.4327 37.2352 87.5398 37.0008 87.5189 36.982C87.2063 36.7007 86.9016 36.3956 86.5418 36.1889C86.3784 36.095 86.0961 36.193 85.8726 36.2315C85.8307 36.2386 85.7986 36.3739 85.7844 36.4541C85.76 36.5911 85.7434 36.7312 85.7419 36.8701C85.7408 36.9885 85.7655 37.1072 85.7788 37.2258C85.8864 37.1773 86.0176 37.1527 86.0965 37.075C86.2354 36.9383 86.3425 36.7691 86.4629 36.6135L86.5947 36.6761C86.5531 36.8478 86.5084 37.0187 86.4712 37.1912C86.454 37.2706 86.4153 37.3927 86.4507 37.4251C86.5048 37.4745 86.6452 37.5051 86.695 37.4691C86.8199 37.3787 86.9146 37.2464 87.0338 37.1176L87.0337 37.1177Z" fill="#BBE1E6"/>
<path d="M120.611 54.8017C113.654 54.7268 108.052 49.0904 108.116 42.2662C108.181 35.2844 113.787 29.7078 120.718 29.7582C127.79 29.8096 133.217 35.5324 133.159 42.3295C133.1 49.3058 127.442 54.8753 120.611 54.8017ZM110 37.5764C109.898 37.8709 109.797 38.1657 109.695 38.4599C109.001 40.4493 108.819 42.4938 109.279 44.5413C110.282 49.0003 112.961 52.0517 117.348 53.3615C121.722 54.6676 125.602 53.5557 128.9 50.4154C129.248 50.0842 129.653 49.8073 129.331 49.1603C129.045 48.5865 128.959 47.913 128.783 47.2841C128.773 47.2471 128.754 47.2094 128.729 47.1801C128.44 46.8363 128.477 46.4737 128.696 46.1242C128.874 45.8403 128.832 45.6043 128.674 45.3241C128.464 44.9521 128.183 44.5562 128.161 44.1581C128.131 43.6076 128.125 43.1789 127.436 43.1591C127.379 43.1575 127.324 43.073 127.266 43.0701C127.009 43.0568 126.715 42.9761 126.503 43.0717C125.859 43.362 125.052 43.2462 124.589 42.723C124.485 42.6053 124.382 42.4863 124.274 42.3718C123.904 41.9789 123.908 41.5422 124.074 41.0584C124.128 40.9034 124.045 40.7057 124.047 40.5279C124.049 40.3829 124.032 40.1864 124.114 40.1038C124.325 39.8927 124.605 39.7521 124.821 39.5448C124.961 39.4105 125.104 39.2166 125.125 39.0352C125.166 38.6872 125.354 38.4908 125.652 38.4339C126.317 38.3072 126.988 38.2022 127.661 38.1407C127.801 38.1279 128.009 38.3111 128.102 38.4574C128.238 38.6713 129.255 39.1636 129.499 39.0705C129.534 39.0571 129.573 39.0347 129.593 39.0048C129.844 38.6172 130.123 38.7884 130.444 38.9177C130.746 39.0395 131.085 39.0801 131.413 39.1223C131.498 39.1333 131.648 39.0384 131.684 38.9555C131.798 38.6944 131.418 38.1797 131.152 38.0738C130.926 37.9837 130.742 37.781 130.552 37.6127C130.464 37.5344 130.409 37.4192 130.339 37.3207C130.242 37.4146 130.143 37.5062 130.05 37.6031C129.983 37.6719 129.924 37.7478 129.862 37.8206C129.789 37.7485 129.697 37.6874 129.649 37.6016C129.593 37.5017 129.61 37.345 129.536 37.2745C129.284 37.0342 129.035 36.7599 128.73 36.6167C128.488 36.5031 128.359 36.7276 128.51 36.9519C128.62 37.1166 128.843 37.2047 128.961 37.3667C129.044 37.4805 129.08 37.6704 129.051 37.808C129.035 37.8808 128.835 37.9142 128.718 37.9655C129.022 37.7395 128.959 37.5913 128.714 37.4163C128.512 37.272 128.328 37.1031 128.129 36.9556C128.063 36.907 127.957 36.8455 127.897 36.8673C127.466 37.0258 126.987 37.1141 126.77 37.6071C126.581 38.0385 126.209 38.0656 125.808 38.015C125.48 37.9734 125.383 37.7628 125.378 37.4632C125.374 37.1479 125.546 37.0068 125.831 36.9843C125.986 36.972 126.152 37.0302 126.298 36.9953C126.407 36.9692 126.585 36.7905 126.574 36.7716C126.289 36.28 126.6 36.1522 126.986 36.047C127.065 36.0253 127.149 35.9491 127.192 35.8754C127.388 35.5442 127.672 35.4303 128.048 35.4324C128.171 35.433 128.294 35.2788 128.417 35.1954C128.302 35.0979 128.187 35.0015 128.073 34.9028C127.884 34.739 127.686 34.5825 127.522 34.3962C127.505 34.3763 127.665 34.1394 127.783 34.0715C128.384 33.7237 128.405 33.6446 127.846 33.2113C125.047 31.0415 121.898 30.2705 118.414 30.9055C116.898 31.1818 115.509 31.7843 114.228 32.6363C114.138 32.6964 114.077 32.8003 114.002 32.8838C114.105 32.9272 114.206 32.9741 114.31 33.0131C114.59 33.118 114.869 33.2275 115.154 33.3197C115.338 33.3791 115.528 33.4264 115.719 33.4475C115.788 33.4551 115.867 33.3706 115.942 33.3281C115.894 33.2598 115.862 33.1668 115.797 33.1276C115.538 32.9717 115.27 32.8325 114.989 32.6781C115.295 32.387 115.652 32.1437 115.982 32.4232C116.356 32.7401 116.684 32.9165 117.168 32.6786C116.982 32.8145 116.787 32.862 116.61 32.9456C116.521 32.9874 116.392 33.1188 116.408 33.1681C116.44 33.267 116.564 33.4111 116.642 33.4062C116.898 33.3902 117.151 33.3215 117.402 33.262C117.65 33.2033 117.875 33.1256 117.716 32.7838C117.697 32.7418 117.777 32.5988 117.827 32.5896C117.963 32.5645 118.108 32.5859 118.249 32.589C118.234 32.6692 118.192 32.7551 118.208 32.8283C118.239 32.9715 118.303 33.1075 118.353 33.2465C118.469 33.1656 118.599 33.0976 118.699 33.0004C118.815 32.8889 118.88 32.7028 119.011 32.6342C119.456 32.4018 120.407 32.5735 120.733 32.9516C120.87 33.1104 120.94 33.3368 120.996 33.5445C121.003 33.572 120.747 33.669 120.614 33.7366C120.579 33.7542 120.546 33.7781 120.519 33.8058C120.224 34.1105 119.936 33.9536 119.59 33.8009C119.715 33.7174 119.805 33.6689 119.881 33.6039C119.974 33.5238 120.056 33.4302 120.143 33.3423C120.022 33.2549 119.898 33.0927 119.779 33.0952C119.514 33.1007 119.214 33.1269 118.993 33.2557C118.43 33.5847 118.289 33.6669 117.752 33.7311C117.65 33.7434 117.544 33.7755 117.452 33.8216C117.23 33.9329 116.997 34.0353 116.801 34.1847C116.651 34.2993 116.423 34.5253 116.457 34.622C116.528 34.8231 116.747 34.9731 116.909 35.1406C117.051 35.287 117.2 35.4261 117.34 35.5737C117.4 35.636 117.444 35.7684 117.497 35.7687C117.582 35.7692 117.681 35.7023 117.751 35.6384C117.884 35.5178 117.977 35.3154 118.127 35.2611C118.459 35.1412 118.531 34.9263 118.57 34.6073C118.59 34.4397 118.81 34.1664 118.934 34.17C119.154 34.1763 119.483 34.3046 119.56 34.4753C119.693 34.7681 119.815 34.7737 120.067 34.6889C120.153 34.66 120.32 34.7203 120.38 34.7955C120.511 34.9597 120.623 35.1506 120.693 35.3482C120.738 35.473 120.71 35.7507 120.687 35.7538C120.303 35.8043 119.916 35.8251 119.529 35.8462C119.382 35.8543 119.234 35.8467 119.087 35.8462V36.2627C119.003 36.2969 118.87 36.3229 118.772 36.3959C118.408 36.6685 118.044 36.9448 117.701 37.2428C117.464 37.4476 117.259 37.6886 117.043 37.9172C116.807 38.1683 116.556 38.4088 116.347 38.6815C116.168 38.9157 116.039 39.188 115.89 39.4452C115.854 39.5083 115.829 39.5781 115.799 39.6448C115.727 39.6003 115.644 39.5675 115.587 39.5088C115.482 39.402 115.408 39.1962 115.297 39.1777C114.639 39.068 113.983 39.0653 113.427 39.5194C113.021 39.8512 112.822 40.6015 113.088 40.8934C113.488 41.3318 113.869 41.0322 114.236 40.7967C114.247 40.7896 114.258 40.7791 114.27 40.7758C114.352 40.7534 114.435 40.7325 114.518 40.7111C114.518 40.7974 114.502 40.8869 114.519 40.969C114.548 41.1024 114.575 41.3274 114.645 41.3452C114.967 41.4273 115.017 41.6416 115.072 41.9217C115.114 42.1335 115.238 42.4247 115.405 42.4955C115.726 42.6321 116.096 42.7248 116.391 42.332C116.681 41.947 117.012 41.9641 117.413 42.2104C117.624 42.34 117.922 42.4295 118.158 42.3923C118.486 42.3407 118.651 42.4402 118.853 42.6755C119.013 42.861 119.297 42.9338 119.506 43.084C119.701 43.224 120.01 43.3878 120.025 43.5625C120.084 44.2252 120.564 44.3716 121.037 44.3894C121.592 44.4104 122.067 44.504 122.393 44.9715C122.482 45.099 122.563 45.3694 122.498 45.4437C122.077 45.9256 122.033 46.5087 121.965 47.0951C121.916 47.5243 121.666 47.7406 121.227 47.7473C120.772 47.7542 120.611 47.9663 120.674 48.4291C120.696 48.5935 120.76 48.8165 120.682 48.9197C120.205 49.5491 119.916 50.3866 118.976 50.5411C118.894 50.5545 118.804 50.7197 118.779 50.8282C118.748 50.9687 118.774 51.1234 118.785 51.2712C118.793 51.3662 118.792 51.524 118.84 51.5438C119.153 51.6731 119.174 51.8832 119.101 52.175C119.077 52.2725 119.184 52.4061 119.239 52.519C119.287 52.6165 119.347 52.7082 119.401 52.8025C119.279 52.8276 119.151 52.8855 119.034 52.8695C118.899 52.851 118.749 52.7948 118.645 52.7077C118.077 52.2308 117.64 51.6897 117.732 50.8694C117.753 50.6809 117.624 50.4786 117.579 50.2792C117.525 50.0365 117.477 49.7914 117.446 49.5449C117.429 49.418 117.473 49.2839 117.459 49.1563C117.407 48.6695 117.273 48.1802 117.299 47.6989C117.333 47.0803 117.046 46.7495 116.544 46.507C116.42 46.4469 116.289 46.3648 116.208 46.2575C116.004 45.9878 115.84 45.6871 115.635 45.4185C115.19 44.8348 115.253 44.2042 115.762 43.6821C115.895 43.5462 115.925 43.2602 115.91 43.0498C115.902 42.9358 115.705 42.7527 115.584 42.7441C115.108 42.7103 114.834 42.3899 114.481 42.1416C114.023 41.8191 113.596 41.3769 112.924 41.4346C112.237 41.4936 111.901 41.1366 111.834 40.4495C111.818 40.2903 111.711 40.139 111.642 39.9862C111.498 39.6686 111.357 39.3488 111.201 39.0375C111.155 38.9465 111.059 38.881 110.986 38.8037C110.938 38.9109 110.828 39.0371 110.854 39.1218C110.941 39.4052 111.082 39.6715 111.189 39.9494C111.222 40.036 111.214 40.1389 111.225 40.2343C111.123 40.2029 110.959 40.1993 110.93 40.1351C110.794 39.8324 110.684 39.516 110.584 39.1983C110.527 39.015 110.572 38.7206 110.459 38.6478C110.045 38.3794 110.015 38.0064 110 37.5766L110 37.5764ZM116.879 37.1177C116.98 37.1538 117.108 37.2231 117.241 37.2325C117.278 37.2352 117.386 37.0008 117.365 36.982C117.052 36.7007 116.747 36.3956 116.387 36.1889C116.224 36.095 115.942 36.193 115.718 36.2315C115.676 36.2386 115.644 36.3739 115.63 36.4541C115.606 36.5911 115.589 36.7312 115.588 36.8701C115.586 36.9885 115.611 37.1072 115.624 37.2258C115.732 37.1773 115.863 37.1527 115.942 37.075C116.081 36.9383 116.188 36.7691 116.309 36.6135L116.44 36.6761C116.399 36.8478 116.354 37.0187 116.317 37.1912C116.3 37.2706 116.261 37.3927 116.296 37.4251C116.351 37.4745 116.491 37.5051 116.541 37.4691C116.666 37.3787 116.76 37.2464 116.879 37.1176L116.879 37.1177Z" fill="#BBE1E6"/>
<defs>
<clipPath id="clip0_220_6848">
<rect width="49.8844" height="49.8844" fill="white" transform="translate(0.390625 2.55762)"/>
</clipPath>
<clipPath id="clip1_220_6848">
<rect width="49.4745" height="49.6789" fill="white" transform="translate(0.390625 2.55371)"/>
</clipPath>
<clipPath id="clip2_220_6848">
<rect width="11.7396" height="7.22439" fill="white" transform="translate(58.4023 23.8877)"/>
</clipPath>
</defs>
</svg>
