<svg width="920" height="334" viewBox="0 0 920 334" fill="none" xmlns="http://www.w3.org/2000/svg">
<path d="M118.638 166.638C118.638 228.846 68.2082 279.276 6 279.276C6 279.276 6 201.09 6 138.882C6 76.6739 6 54 6 54C68.2082 54 118.638 104.43 118.638 166.638Z" fill="white"/>
<circle cx="161.926" cy="166.638" r="2.51" fill="#BBE1E6"/>
<circle cx="211.672" cy="166.638" r="6.45695" fill="#BBE1E6"/>
<circle cx="265.722" cy="166.638" r="6.81567" fill="#BBE1E6"/>
<circle cx="316.545" cy="166.638" r="3.22848" fill="#BBE1E6"/>
<circle cx="436.243" cy="166.638" r="75.6898" fill="#BBE1E6"/>
<circle cx="615.128" cy="166.638" r="62.4172" fill="#BBE1E6"/>
<circle cx="745.944" cy="166.638" r="27.6214" fill="#BBE1E6"/>
<circle cx="840.172" cy="166.638" r="25.8278" fill="#BBE1E6"/>
<g clip-path="url(#clip0_220_7213)">
<path d="M734.592 112.566C738.003 116.521 741.486 120.408 745.026 124.243C745.963 125.263 747.221 124.921 748.235 124.196C752.086 121.453 755.911 118.684 759.716 115.884C761.061 114.895 761.351 113.446 760.445 112.385C759.384 111.143 758.178 111.132 756.874 112.09C754.964 113.493 751.802 116.024 749.297 117.918C751.006 92.7927 760.452 76.7194 769.389 66.9623C769.824 66.527 770.507 64.673 769.401 63.5664C768.294 62.4598 766.511 63.1989 765.823 63.8868C757.257 73.2655 746.683 90.0458 744.7 116.914C742.863 114.838 740.663 112.313 739.25 110.744C738.883 110.335 738.531 109.906 738.132 109.528C737.071 108.524 735.881 108.477 734.814 109.404C733.758 110.315 733.779 111.624 734.592 112.566Z" fill="#BBE1E6"/>
</g>
<rect x="3.13024" y="3.13024" width="913.74" height="327.015" stroke="#BBE1E6" stroke-width="5.73951"/>
<defs>
<clipPath id="clip0_220_7213">
<rect width="36" height="61.8816" fill="white" transform="matrix(-1 0 0 1 770 63)"/>
</clipPath>
</defs>
</svg>
