<svg width="129" height="55" viewBox="0 0 129 55" fill="none" xmlns="http://www.w3.org/2000/svg">
<circle cx="26.4495" cy="27.4998" r="25.9495" fill="#F9CD78"/>
<g clip-path="url(#clip0_220_6706)">
<path d="M64.8674 25.9018C64.2462 25.84 63.7511 26.1115 63.2658 26.4441C61.8202 27.4348 60.3066 27.4018 58.904 26.3743C58.6017 26.1529 58.4266 25.9045 58.6616 25.5514C58.8633 25.2484 59.1801 25.234 59.5786 25.4904C60.7851 26.267 61.5622 26.2553 62.7663 25.4425C64.1763 24.4906 65.7893 24.5486 67.1295 25.5929C67.4207 25.8199 67.5407 26.0853 67.3032 26.3929C67.0704 26.6946 66.769 26.6944 66.4597 26.4764C65.9851 26.1418 65.4954 25.8432 64.8674 25.9019V25.9018Z" fill="#F9CD78"/>
<path d="M61.0023 30.2314C60.2623 30.2581 59.5003 29.9136 58.8142 29.3828C58.5388 29.1697 58.4522 28.8988 58.6771 28.6102C58.8969 28.3281 59.1936 28.2937 59.4825 28.5042C60.0219 28.897 60.6036 29.2307 61.2924 29.0924C61.7831 28.994 62.2879 28.809 62.7034 28.5427C64.1696 27.6029 65.6301 27.6 67.0384 28.604C67.4288 28.8822 67.5252 29.1718 67.3218 29.4549C67.1125 29.7464 66.7954 29.7671 66.4009 29.5149C65.1873 28.739 64.4063 28.7423 63.2149 29.5631C62.5973 29.9886 61.925 30.2246 61.0023 30.2314Z" fill="#F9CD78"/>
</g>
<path d="M100.852 54.8281C85.6688 54.6646 73.4416 42.3634 73.5813 27.4698C73.7242 12.2321 85.9578 0.0611632 101.084 0.17115C116.52 0.283367 128.364 12.7733 128.238 27.6077C128.109 42.8334 115.76 54.9887 100.852 54.8281ZM77.6926 17.2343C77.4709 17.8771 77.2509 18.5204 77.0271 19.1625C75.5131 23.5043 75.1153 27.9665 76.12 32.435C78.3083 42.1668 84.156 48.8262 93.7299 51.6849C103.277 54.5356 111.744 52.1088 118.943 45.2552C119.703 44.5323 120.586 43.928 119.882 42.5158C119.258 41.2636 119.071 39.7938 118.687 38.4211C118.665 38.3404 118.623 38.2581 118.569 38.1941C117.938 37.4439 118.019 36.6524 118.497 35.8897C118.886 35.2701 118.793 34.755 118.448 34.1435C117.991 33.3317 117.379 32.4676 117.33 31.5987C117.264 30.3972 117.251 29.4616 115.748 29.4185C115.622 29.4149 115.502 29.2306 115.375 29.2241C114.816 29.1951 114.174 29.019 113.711 29.2277C112.305 29.8614 110.545 29.6084 109.534 28.4667C109.306 28.2098 109.082 27.9501 108.846 27.7002C108.039 26.8426 108.047 25.8895 108.41 24.8337C108.527 24.4955 108.347 24.064 108.352 23.6758C108.355 23.3594 108.318 22.9305 108.497 22.7503C108.957 22.2896 109.569 21.9826 110.04 21.5303C110.345 21.2371 110.658 20.814 110.704 20.4181C110.793 19.6585 111.204 19.2299 111.855 19.1058C113.305 18.8292 114.769 18.6002 116.238 18.4658C116.544 18.4378 116.999 18.8378 117.201 19.1571C117.497 19.6238 119.717 20.6983 120.249 20.4952C120.325 20.466 120.412 20.4171 120.454 20.3517C121.002 19.5058 121.612 19.8795 122.313 20.1618C122.972 20.4274 123.712 20.5161 124.426 20.6082C124.612 20.6323 124.94 20.4252 125.019 20.2441C125.267 19.6743 124.437 18.5509 123.858 18.3198C123.365 18.1232 122.961 17.6808 122.549 17.3134C122.356 17.1425 122.236 16.8912 122.083 16.6763C121.872 16.8812 121.656 17.0811 121.452 17.2925C121.307 17.4426 121.178 17.6084 121.042 17.7673C120.883 17.6099 120.682 17.4766 120.577 17.2893C120.455 17.0713 120.491 16.7294 120.33 16.5755C119.781 16.0509 119.238 15.4523 118.572 15.1398C118.043 14.8919 117.761 15.3819 118.09 15.8714C118.332 16.2309 118.817 16.4231 119.075 16.7766C119.257 17.025 119.335 17.4396 119.271 17.7398C119.237 17.8987 118.801 17.9716 118.546 18.0835C119.209 17.5902 119.07 17.2668 118.537 16.885C118.096 16.57 117.695 16.2014 117.259 15.8793C117.116 15.7733 116.883 15.6391 116.753 15.6868C115.814 16.0327 114.767 16.2252 114.294 17.3013C113.88 18.2428 113.07 18.302 112.195 18.1914C111.477 18.1009 111.266 17.6412 111.257 16.9873C111.247 16.299 111.622 15.9912 112.245 15.942C112.583 15.9152 112.945 16.0423 113.264 15.966C113.501 15.9092 113.89 15.519 113.866 15.4778C113.243 14.4049 113.922 14.1261 114.764 13.8965C114.938 13.8491 115.12 13.6827 115.215 13.5219C115.641 12.799 116.261 12.5506 117.084 12.555C117.351 12.5564 117.62 12.2199 117.889 12.0379C117.638 11.8251 117.386 11.6146 117.137 11.3992C116.725 11.0416 116.293 10.7002 115.936 10.2937C115.898 10.2501 116.248 9.73312 116.504 9.58487C117.817 8.82594 117.863 8.65316 116.642 7.70755C110.532 2.97195 103.661 1.28938 96.0561 2.67527C92.7475 3.27823 89.7167 4.59326 86.9215 6.45274C86.7245 6.58383 86.5909 6.81067 86.4279 6.99289C86.6515 7.08744 86.8722 7.18987 87.0993 7.27498C87.7115 7.50405 88.321 7.74289 88.9426 7.94416C89.3427 8.07371 89.7584 8.17701 90.1746 8.22299C90.3254 8.23964 90.4984 8.05518 90.6613 7.96252C90.5577 7.81342 90.4866 7.61043 90.3447 7.52481C89.781 7.18455 89.1954 6.88085 88.5822 6.54385C89.2507 5.90847 90.029 5.37758 90.749 5.98757C91.5655 6.67923 92.2805 7.0641 93.3367 6.54505C92.9309 6.84155 92.5065 6.94519 92.1195 7.12776C91.9262 7.21887 91.6432 7.50559 91.6782 7.61335C91.7486 7.8292 92.0199 8.14355 92.1905 8.13291C92.7476 8.09808 93.2996 7.94811 93.8478 7.81822C94.3886 7.69022 94.8798 7.52052 94.534 6.77463C94.4914 6.68284 94.6665 6.37089 94.7758 6.35082C95.0731 6.29591 95.3892 6.34275 95.6978 6.34944C95.6635 6.52446 95.5718 6.71183 95.6066 6.87175C95.6748 7.18421 95.8136 7.48105 95.9231 7.78442C96.1778 7.60786 96.4596 7.45943 96.6798 7.24718C96.9318 7.00405 97.073 6.59773 97.3595 6.44811C98.3304 5.9409 100.406 6.31564 101.118 7.1408C101.417 7.4874 101.569 7.98157 101.691 8.43473C101.707 8.49478 101.148 8.70652 100.858 8.85409C100.783 8.89235 100.71 8.94468 100.652 9.00508C100.008 9.66998 99.3791 9.32766 98.6246 8.99427C98.897 8.81222 99.093 8.70618 99.2584 8.56445C99.4625 8.3896 99.641 8.18524 99.8306 7.99358C99.5653 7.80278 99.2967 7.4488 99.0355 7.45429C98.4569 7.4663 97.8028 7.52326 97.3212 7.80449C96.0915 8.52241 95.7843 8.70189 94.6121 8.84207C94.3884 8.86884 94.159 8.93885 93.9576 9.03957C93.4723 9.28236 92.9642 9.50594 92.5376 9.83195C92.2103 10.0821 91.712 10.5754 91.786 10.7863C91.9401 11.2252 92.4193 11.5526 92.7727 11.9183C93.0816 12.2378 93.4072 12.5413 93.7136 12.8634C93.843 12.9994 93.941 13.2884 94.0546 13.2891C94.2415 13.2901 94.4576 13.1441 94.6109 13.0046C94.8997 12.7415 95.1024 12.2997 95.4307 12.1811C96.1562 11.9195 96.3117 11.4505 96.397 10.7544C96.4418 10.3886 96.922 9.79214 97.1911 9.79987C97.6712 9.81359 98.3894 10.0936 98.5588 10.4663C98.8492 11.1053 99.1139 11.1175 99.6652 10.9323C99.8528 10.8694 100.216 11.001 100.347 11.165C100.634 11.5234 100.878 11.9401 101.032 12.3713C101.129 12.6437 101.067 13.2498 101.017 13.2565C100.18 13.3668 99.3346 13.4121 98.49 13.4583C98.1694 13.4758 97.8469 13.4593 97.5253 13.4583V14.3671C97.3422 14.4418 97.0521 14.4986 96.8389 14.658C96.0431 15.2529 95.2502 15.8558 94.4998 16.5061C93.9839 16.9533 93.5354 17.4792 93.0655 17.9782C92.5496 18.526 92.0014 19.0509 91.5462 19.6462C91.1553 20.1573 90.8728 20.7517 90.5487 21.3129C90.4694 21.4506 90.4157 21.6029 90.3503 21.7486C90.1936 21.6515 90.0108 21.5799 89.8861 21.4518C89.6588 21.2186 89.4963 20.7695 89.2536 20.729C87.8183 20.4897 86.3859 20.4838 85.1724 21.4749C84.2858 22.199 83.8524 23.8365 84.4337 24.4736C85.3068 25.4303 86.1385 24.7766 86.9395 24.2625C86.9636 24.2471 86.9857 24.2242 87.012 24.217C87.1923 24.1681 87.3736 24.1225 87.5546 24.0758C87.5529 24.264 87.5181 24.4593 87.5569 24.6386C87.6197 24.9298 87.6774 25.4207 87.8308 25.4597C88.5345 25.6388 88.6421 26.1065 88.7638 26.7179C88.8558 27.18 89.1263 27.8157 89.4893 27.9701C90.1895 28.2682 90.9968 28.4705 91.642 27.6132C92.2745 26.773 92.9963 26.8104 93.8723 27.348C94.333 27.6307 94.9833 27.8262 95.4983 27.745C96.2144 27.6323 96.5736 27.8495 97.0159 28.3631C97.3645 28.7678 97.9844 28.9267 98.4408 29.2546C98.8659 29.56 99.5401 29.9176 99.5735 30.2989C99.7009 31.7452 100.749 32.0647 101.781 32.1036C102.993 32.1495 104.03 32.3536 104.741 33.3741C104.934 33.6522 105.111 34.2425 104.97 34.4044C104.051 35.4563 103.955 36.7289 103.808 38.0088C103.7 38.9455 103.154 39.4175 102.196 39.4321C101.203 39.4472 100.852 39.9101 100.988 40.9201C101.037 41.2789 101.176 41.7656 101.006 41.9908C99.9648 43.3645 99.3351 45.1924 97.2833 45.5294C97.1048 45.5587 96.9074 45.9192 96.8546 46.1562C96.7861 46.4626 96.8427 46.8003 96.8676 47.1229C96.8836 47.3303 96.8815 47.6745 96.9867 47.718C97.6691 48 97.7148 48.4585 97.556 49.0955C97.503 49.3082 97.7369 49.5997 97.8579 49.8463C97.9623 50.0591 98.0927 50.2591 98.2116 50.4649C97.9437 50.5198 97.666 50.6461 97.4105 50.6111C97.1148 50.5707 96.7885 50.4481 96.5619 50.2581C95.3204 49.2173 94.3678 48.0363 94.5678 46.2459C94.6138 45.8346 94.332 45.3931 94.2346 44.958C94.116 44.4283 94.0117 43.8933 93.9434 43.3554C93.9082 43.0784 94.0029 42.7857 93.9729 42.5072C93.8586 41.4448 93.5665 40.3768 93.624 39.3264C93.6978 37.9763 93.0712 37.2545 91.9755 36.7251C91.7041 36.594 91.4189 36.4147 91.2418 36.1805C90.7966 35.592 90.4403 34.9358 89.9925 34.3495C89.0197 33.0757 89.1575 31.6994 90.27 30.5599C90.5597 30.2632 90.6249 29.6391 90.5921 29.1798C90.5745 28.9312 90.1454 28.5316 89.8795 28.5127C88.8426 28.4389 88.2434 27.7397 87.4733 27.1977C86.4734 26.494 85.5416 25.5288 84.0742 25.6548C82.5758 25.7834 81.8426 25.0043 81.6961 23.5048C81.6621 23.1573 81.4282 22.8272 81.2768 22.4936C80.9622 21.8004 80.656 21.1026 80.3139 20.4231C80.2141 20.2246 80.0042 20.0815 79.8447 19.913C79.7409 20.1468 79.5016 20.4222 79.5581 20.6072C79.7471 21.2256 80.055 21.8068 80.2885 22.4133C80.3613 22.6024 80.3428 22.8268 80.3661 23.0351C80.1444 22.9665 79.7874 22.9588 79.7241 22.8186C79.4256 22.158 79.186 21.4675 78.9689 20.7742C78.8436 20.374 78.9411 19.7314 78.6957 19.5725C77.7908 18.9867 77.7253 18.1727 77.693 17.2347L77.6926 17.2343ZM92.7077 16.2333C92.9267 16.3119 93.2068 16.4632 93.4959 16.4838C93.5785 16.4897 93.8123 15.978 93.7666 15.937C93.0844 15.3232 92.4195 14.6573 91.6341 14.206C91.2775 14.0011 90.6615 14.2151 90.1735 14.299C90.0822 14.3146 90.0122 14.6099 89.9811 14.785C89.9278 15.0839 89.8916 15.3896 89.8885 15.6928C89.8859 15.9512 89.94 16.2103 89.9688 16.4691C90.2037 16.3632 90.49 16.3095 90.6622 16.14C90.9654 15.8416 91.1992 15.4723 91.462 15.1328L91.7496 15.2695C91.6588 15.6441 91.5612 16.0171 91.48 16.3936C91.4426 16.5669 91.358 16.8333 91.4354 16.904C91.5534 17.012 91.8598 17.0787 91.9684 17.0001C92.2412 16.8028 92.4478 16.5142 92.7078 16.233L92.7077 16.2333Z" fill="#F9CD78"/>
<defs>
<clipPath id="clip0_220_6706">
<rect width="8.88214" height="5.46593" fill="white" transform="translate(58.5488 24.7671)"/>
</clipPath>
</defs>
</svg>
