<svg width="920" height="334" viewBox="0 0 920 334" fill="none" xmlns="http://www.w3.org/2000/svg">
<path d="M118.638 166.638C118.638 228.846 68.2082 279.276 6 279.276C6 279.276 6 201.09 6 138.882C6 76.6739 6 54 6 54C68.2082 54 118.638 104.43 118.638 166.638Z" fill="white"/>
<circle cx="161.926" cy="166.638" r="2.51" fill="#F9CD78"/>
<circle cx="211.672" cy="166.638" r="6.45695" fill="#F9CD78"/>
<circle cx="265.722" cy="166.638" r="6.81567" fill="#F9CD78"/>
<circle cx="316.545" cy="166.638" r="3.22848" fill="#F9CD78"/>
<circle cx="436.243" cy="166.638" r="75.6898" fill="#F9CD78"/>
<circle cx="615.128" cy="166.638" r="62.4172" fill="#F9CD78"/>
<circle cx="745.944" cy="166.638" r="27.6214" fill="#F9CD78"/>
<circle cx="840.172" cy="166.638" r="25.8278" fill="#F9CD78"/>
<g clip-path="url(#clip0_220_7154)">
<path d="M200.592 133.566C204.003 137.521 207.486 141.408 211.026 145.243C211.963 146.263 213.221 145.921 214.235 145.196C218.086 142.453 221.911 139.684 225.716 136.884C227.061 135.895 227.351 134.446 226.445 133.385C225.384 132.143 224.178 132.132 222.874 133.09C220.964 134.493 217.802 137.024 215.297 138.918C217.006 113.793 226.452 97.7194 235.389 87.9623C235.824 87.527 236.507 85.673 235.401 84.5664C234.294 83.4598 232.511 84.1989 231.823 84.8868C223.257 94.2655 212.683 111.046 210.7 137.914C208.863 135.838 206.663 133.313 205.25 131.744C204.883 131.335 204.531 130.906 204.132 130.528C203.071 129.524 201.881 129.477 200.814 130.404C199.758 131.315 199.779 132.624 200.592 133.566Z" fill="#F9CD78"/>
</g>
<rect x="3.13024" y="3.13024" width="913.74" height="327.015" stroke="#F9CD78" stroke-width="5.73951"/>
<defs>
<clipPath id="clip0_220_7154">
<rect width="36" height="61.8816" fill="white" transform="matrix(-1 0 0 1 236 84)"/>
</clipPath>
</defs>
</svg>
