<svg width="119" height="46" viewBox="0 0 119 46" fill="none" xmlns="http://www.w3.org/2000/svg">
<g opacity="0.9">
<circle cx="8.42524" cy="22.9643" r="8.42524" fill="white"/>
<circle cx="30.4428" cy="22.9643" r="8.42524" fill="white"/>
<g clip-path="url(#clip0_84_8083)">
<path d="M60.883 22.9647C60.883 23.0854 60.8805 23.2034 60.8753 23.3213V23.3343C60.8728 23.421 60.8675 23.5099 60.8595 23.5938C60.8542 23.6724 60.8465 23.751 60.8384 23.8272C60.8279 23.9374 60.8149 24.0473 60.7991 24.1575C60.7939 24.1863 60.7914 24.2179 60.7861 24.2491C60.7703 24.3541 60.7521 24.459 60.731 24.5636C60.7152 24.6475 60.697 24.7342 60.6787 24.8153C60.6604 24.902 60.6394 24.9856 60.6183 25.0695C60.5474 25.3394 60.4663 25.6041 60.3719 25.8611C60.3484 25.9267 60.3249 25.9895 60.2986 26.0552C60.254 26.1679 60.2069 26.2781 60.1571 26.388C60.1153 26.4849 60.0707 26.5821 60.0233 26.679C59.9735 26.7811 59.9212 26.8808 59.8661 26.9805C59.8345 27.0408 59.8005 27.1012 59.7664 27.1588C59.7323 27.2164 59.6983 27.2767 59.6642 27.3343C59.6172 27.4105 59.5698 27.4838 59.5228 27.5572C59.4599 27.6516 59.3943 27.7485 59.3287 27.8429C59.2788 27.9111 59.229 27.9792 59.1791 28.0448C59.1321 28.1076 59.0847 28.168 59.0377 28.2284C58.9015 28.3962 58.7597 28.5612 58.6105 28.7212C58.5448 28.7893 58.482 28.8574 58.4164 28.923L58.3928 28.9466C58.3272 29.0122 58.2591 29.075 58.191 29.1379C58.0467 29.2716 57.8975 29.4026 57.7452 29.5233C57.669 29.5862 57.5932 29.6465 57.5146 29.7041C57.5093 29.7094 57.504 29.7118 57.4988 29.7171C57.4254 29.7722 57.3493 29.8245 57.2734 29.8768C57.1923 29.9344 57.1109 29.9895 57.0298 30.0418C56.9459 30.0969 56.862 30.1493 56.7781 30.1991C56.4899 30.3694 56.1936 30.5242 55.8868 30.6632C55.837 30.6842 55.7872 30.7049 55.7373 30.726C55.4386 30.8545 55.129 30.9647 54.8145 31.0538C54.7727 31.0668 54.7281 31.0801 54.6835 31.0907C54.6442 31.1037 54.6049 31.1142 54.5628 31.1247C54.4631 31.151 54.361 31.1746 54.2613 31.1956C54.2037 31.2086 54.1433 31.2219 54.0857 31.2325C54.0282 31.243 53.9678 31.2535 53.9102 31.2637C53.6691 31.3058 53.4226 31.3399 53.1734 31.3581C53.0818 31.3659 52.9846 31.3739 52.8905 31.3792C52.8642 31.3792 52.8354 31.3817 52.8066 31.3817C52.6911 31.3869 52.576 31.3894 52.458 31.3894C52.3425 31.3894 52.2299 31.3869 52.1147 31.3817C51.9757 31.3764 51.8395 31.3687 51.7057 31.3554C51.5983 31.3476 51.4909 31.3343 51.3832 31.3213H51.3807C51.2838 31.3083 51.1866 31.295 51.0897 31.2767C51.0504 31.2715 51.0111 31.2662 50.9717 31.2585C50.9247 31.2507 50.8773 31.2427 50.8328 31.2321C50.8222 31.2297 50.8117 31.2297 50.8012 31.2244C50.686 31.2009 50.5678 31.177 50.4526 31.1483C50.3399 31.1219 50.2244 31.0907 50.1118 31.0566C50.0173 31.0303 49.9229 31.0015 49.8313 30.9699C49.7737 30.9517 49.7186 30.9331 49.661 30.9124C49.614 30.8966 49.5694 30.8808 49.5248 30.8625C49.3152 30.7864 49.1106 30.7 48.9088 30.6056C48.8143 30.561 48.7227 30.5164 48.6308 30.4694C48.5339 30.4223 48.4342 30.3697 48.3398 30.3146C48.2506 30.2647 48.1642 30.2124 48.0751 30.1598C48.0305 30.131 47.9834 30.1047 47.9389 30.0734C47.8943 30.0471 47.8497 30.0158 47.8051 29.9867C47.7265 29.9344 47.6451 29.8793 47.5665 29.8217C47.472 29.7561 47.3804 29.688 47.2885 29.6146C47.2046 29.549 47.1207 29.4809 47.0396 29.4128C46.9634 29.3472 46.8848 29.2818 46.8114 29.2134C46.7352 29.1453 46.6594 29.0772 46.5885 29.0063C46.5808 28.9986 46.5727 28.9933 46.5675 28.9853C46.4994 28.9196 46.4337 28.8515 46.3681 28.7834C46.3025 28.7153 46.2371 28.6444 46.1743 28.5738C46.1115 28.503 46.0486 28.4324 45.9882 28.359C45.9279 28.2856 45.8675 28.2123 45.8099 28.1361V28.1336C45.2595 27.426 44.819 26.6316 44.515 25.7691C44.2029 24.8936 44.0352 23.9473 44.0352 22.9641C44.0352 20.4448 45.1416 18.1852 46.8925 16.6411C47.0392 16.5126 47.1912 16.3869 47.346 16.2714V16.269C47.5661 16.1012 47.7968 15.9414 48.033 15.7996C48.067 15.7733 48.1039 15.7523 48.1404 15.7315C48.2348 15.674 48.3292 15.6213 48.4131 15.5743C48.4735 15.5402 48.5311 15.5086 48.5834 15.4826C48.6174 15.4644 48.6543 15.4458 48.6883 15.4303C49.0292 15.2573 49.3805 15.1105 49.7397 14.9898C49.792 14.9715 49.8446 14.953 49.8969 14.9375C50.3241 14.8013 50.7619 14.6988 51.2049 14.6335C51.2757 14.623 51.3463 14.6124 51.4172 14.6047C51.5116 14.5917 51.6085 14.5812 51.703 14.5731C51.8209 14.5626 51.9416 14.5549 52.0596 14.5496C52.1933 14.5419 52.3243 14.5391 52.458 14.5391C52.5735 14.5391 52.6862 14.5415 52.7988 14.5468C52.9143 14.5493 53.027 14.5573 53.1397 14.5679C53.2552 14.5756 53.3678 14.5889 53.4805 14.6019H53.483C53.5932 14.6149 53.7059 14.6307 53.8158 14.6493C54.0439 14.6861 54.2693 14.7332 54.4922 14.7883C54.8225 14.8694 55.1451 14.9691 55.4568 15.0898C55.7766 15.2105 56.0859 15.352 56.3849 15.5093C56.4688 15.5563 56.5527 15.6009 56.6366 15.6483C56.6524 15.656 56.6682 15.6665 56.6837 15.6746C56.7019 15.6851 56.7177 15.6956 56.736 15.7062C56.7883 15.7377 56.8434 15.769 56.8957 15.8006C56.922 15.8164 56.948 15.8321 56.9744 15.8529C57.0165 15.8764 57.0583 15.9052 57.1004 15.934C57.1555 15.9681 57.2078 16.0049 57.2601 16.0414C57.3517 16.1043 57.4437 16.1724 57.5353 16.2408C57.5458 16.2485 57.5588 16.2591 57.5746 16.2696C57.6164 16.3012 57.6743 16.3429 57.7396 16.3956C57.8864 16.516 58.0306 16.6392 58.1696 16.7729C58.2377 16.8358 58.3034 16.8986 58.3662 16.9618C58.4318 17.0246 58.4947 17.0903 58.5575 17.1559C58.6337 17.2345 58.7095 17.3159 58.7829 17.3998C58.8039 17.4234 58.8275 17.4469 58.8485 17.4732C58.8748 17.502 58.8984 17.5308 58.9219 17.5624C59.0321 17.6908 59.1367 17.8218 59.2364 17.9583C59.2968 18.0422 59.3571 18.1286 59.4147 18.2152C59.5169 18.3648 59.6141 18.5168 59.7082 18.674V18.6765C59.771 18.7787 59.8286 18.8836 59.8837 18.991C59.902 19.0173 59.9153 19.0433 59.9283 19.0724C59.9859 19.1799 60.041 19.2926 60.0933 19.4052C60.1719 19.5702 60.2453 19.7408 60.3109 19.9111C60.345 19.9978 60.3766 20.0841 60.4078 20.1705C60.4341 20.2439 60.4577 20.3172 60.4812 20.3906C60.4995 20.4482 60.5177 20.5033 60.5335 20.5609C60.6279 20.8754 60.7038 21.2004 60.7589 21.5283C60.7694 21.5859 60.7799 21.641 60.7852 21.6986C60.7877 21.7038 60.7877 21.7091 60.7877 21.7116C60.7982 21.7691 60.8059 21.827 60.8112 21.8846C60.8137 21.8951 60.8165 21.9057 60.8165 21.9162C60.8217 21.9583 60.827 22.0001 60.8323 22.0422C60.8375 22.0843 60.8403 22.1261 60.8428 22.1679C60.848 22.2019 60.8505 22.2335 60.8533 22.2675C60.8558 22.2911 60.8558 22.3174 60.8586 22.3409C60.8744 22.5455 60.8821 22.7551 60.8821 22.9647H60.883Z" fill="white"/>
</g>
<g clip-path="url(#clip1_84_8083)">
<path d="M64.7905 21.6215C64.2686 21.5695 63.8525 21.7977 63.4448 22.0771C62.23 22.9096 60.9581 22.8819 59.7795 22.0185C59.5256 21.8324 59.3784 21.6237 59.5759 21.327C59.7453 21.0724 60.0115 21.0603 60.3464 21.2757C61.3602 21.9283 62.0132 21.9185 63.025 21.2355C64.2099 20.4357 65.5652 20.4843 66.6914 21.3619C66.936 21.5526 67.0369 21.7757 66.8374 22.0341C66.6417 22.2876 66.3884 22.2875 66.1285 22.1043C65.7298 21.8231 65.3182 21.5722 64.7905 21.6216V21.6215Z" fill="white"/>
<path d="M61.5421 25.2598C60.9203 25.2823 60.28 24.9928 59.7034 24.5467C59.4721 24.3677 59.3993 24.14 59.5883 23.8975C59.7729 23.6605 60.0222 23.6316 60.265 23.8084C60.7183 24.1386 61.207 24.4189 61.7859 24.3028C62.1982 24.22 62.6224 24.0646 62.9715 23.8408C64.2036 23.0511 65.4308 23.0486 66.6141 23.8923C66.9422 24.1261 67.0232 24.3694 66.8523 24.6074C66.6764 24.8523 66.41 24.8697 66.0785 24.6577C65.0587 24.0058 64.4025 24.0086 63.4013 24.6983C62.8824 25.0558 62.3174 25.2541 61.5421 25.2598Z" fill="white"/>
</g>
<mask id="path-6-inside-1_84_8083" fill="white">
<path d="M118.039 22.9639C118.039 23.2913 118.029 23.6136 118.018 23.9353V23.9721C118.007 24.2096 117.997 24.4528 117.976 24.6797C117.96 24.896 117.939 25.1074 117.918 25.3131C117.886 25.6143 117.854 25.9148 117.807 26.2159C117.796 26.2951 117.785 26.3799 117.775 26.4641C117.732 26.749 117.68 27.0395 117.621 27.3244C117.579 27.5514 117.532 27.7783 117.479 28.0109C117.431 28.2434 117.373 28.4753 117.315 28.7023C117.12 29.4361 116.904 30.1593 116.645 30.8613C116.581 31.0359 116.513 31.2098 116.444 31.3894C116.322 31.6955 116.196 31.9966 116.059 32.2978C115.943 32.5615 115.821 32.8258 115.695 33.0896C115.557 33.3695 115.415 33.6388 115.267 33.9082C115.177 34.0771 115.087 34.2405 114.992 34.3939C114.903 34.5522 114.808 34.7162 114.712 34.8745C114.586 35.0803 114.459 35.281 114.327 35.4818C114.158 35.7405 113.978 36.0043 113.799 36.263C113.667 36.4475 113.529 36.6327 113.392 36.8123C113.266 36.9812 113.133 37.1446 113.007 37.3135C112.637 37.7674 112.252 38.2163 111.84 38.6546C111.666 38.8391 111.492 39.0243 111.312 39.2039L111.248 39.2674C111.069 39.447 110.884 39.621 110.699 39.7899C110.303 40.154 109.897 40.5131 109.484 40.8404C109.279 41.0144 109.067 41.1784 108.856 41.3367C108.84 41.3473 108.824 41.3579 108.813 41.3685C108.613 41.5219 108.402 41.664 108.195 41.8068C107.973 41.9652 107.752 42.1129 107.53 42.2557C107.303 42.4091 107.076 42.5512 106.844 42.6834C106.062 43.1479 105.254 43.5706 104.415 43.9503C104.283 44.0082 104.145 44.0612 104.008 44.1192C103.602 44.2932 103.184 44.4571 102.767 44.6049C102.477 44.7053 102.187 44.8057 101.891 44.8954C101.537 45.0114 101.172 45.1118 100.808 45.2072C100.534 45.2757 100.259 45.3443 99.9843 45.4023C99.8153 45.4391 99.6413 45.4759 99.4667 45.5077C99.3239 45.5345 99.1711 45.5607 99.0283 45.5869C98.3686 45.6978 97.6976 45.7926 97.0217 45.84C96.8951 45.8556 96.7629 45.8662 96.6363 45.8768C96.1187 45.9135 95.5962 45.9298 95.068 45.9298C94.7562 45.9298 94.4451 45.9248 94.1333 45.9086C93.9381 45.9036 93.7373 45.893 93.5365 45.8768C93.3626 45.8662 93.1936 45.8506 93.019 45.8344C92.8712 45.8238 92.7284 45.8132 92.5806 45.792C92.4328 45.7764 92.285 45.7602 92.1372 45.739H92.1322C92 45.7234 91.8685 45.7072 91.7363 45.686C91.6041 45.6648 91.4725 45.6436 91.3403 45.6174C91.2399 45.6068 91.1345 45.5912 91.0341 45.57C91.0291 45.575 91.0235 45.575 91.0185 45.57C90.9181 45.5544 90.8178 45.5382 90.723 45.517C90.6912 45.512 90.665 45.5014 90.6382 45.4958C90.6276 45.4958 90.612 45.4908 90.5958 45.4908C90.5802 45.4859 90.564 45.4859 90.5534 45.4746L90.0782 45.3799C89.9198 45.3431 89.7614 45.3057 89.603 45.2689C89.4658 45.2371 89.3287 45.2053 89.1909 45.1685C89.1647 45.1635 89.1379 45.1529 89.1067 45.1423C88.9589 45.1055 88.8161 45.0631 88.6739 45.0207C88.4151 44.9466 88.162 44.8674 87.9082 44.7832C87.8502 44.7676 87.7922 44.7464 87.7342 44.7252C87.6394 44.699 87.544 44.6672 87.4436 44.6249C87.317 44.5825 87.1954 44.5401 87.0738 44.4927C86.7995 44.3923 86.5245 44.2813 86.2501 44.1703C86.1971 44.1491 86.1497 44.128 86.0973 44.1018C85.8597 44.007 85.6272 43.901 85.3952 43.79C85.1364 43.6685 84.8882 43.5469 84.635 43.4203C84.5191 43.3623 84.4024 43.3044 84.2921 43.2408C84.0177 43.098 83.7483 42.9452 83.4839 42.7869C83.3623 42.7183 83.2464 42.6441 83.1248 42.5755C83.0668 42.5387 83.0032 42.4964 82.9402 42.4596C82.6446 42.28 82.354 42.0849 82.0634 41.8841C81.9524 41.8099 81.8414 41.7307 81.7361 41.6516C81.6095 41.5674 81.4829 41.472 81.3557 41.3772C81.1125 41.1977 80.8699 41.0131 80.6373 40.8174C80.5213 40.7226 80.4103 40.6272 80.2994 40.5374C80.194 40.4477 80.088 40.3579 79.9876 40.2681C79.8822 40.1783 79.7762 40.0885 79.6758 39.9938C79.5704 39.899 79.47 39.8092 79.3696 39.7138C78.7785 39.1596 78.2185 38.5785 77.6853 37.9613C77.5955 37.8665 77.5114 37.7662 77.4322 37.6658C77.3792 37.6022 77.3268 37.5392 77.2788 37.4756C77.2526 37.4438 77.2258 37.412 77.2046 37.3809C77.1148 37.2755 77.0306 37.1695 76.9458 37.0585V37.0535C76.9352 37.0485 76.9302 37.038 76.9302 37.0323C76.7506 36.7998 76.571 36.5573 76.397 36.3197C76.2231 36.0716 76.0485 35.8178 75.8795 35.5591C75.7105 35.306 75.5471 35.0472 75.3881 34.7829C75.2297 34.5185 75.0763 34.2548 74.9285 33.9855C74.7808 33.7162 74.638 33.4468 74.5008 33.1669C74.3686 32.8926 74.237 32.6126 74.1104 32.3327C74.005 32.1058 73.9096 31.8732 73.8148 31.6413C73.6727 31.3034 73.5405 30.9548 73.4189 30.6063C72.7167 28.6368 72.2833 26.5414 72.1518 24.3605C72.1256 23.896 72.1094 23.4315 72.1094 22.9614C72.1094 16.9114 74.4484 11.41 78.2771 7.30759C78.7891 6.75333 79.3334 6.23087 79.8984 5.72898C80.3 5.38047 80.7115 5.03757 81.1337 4.72085V4.71586C81.7354 4.25637 82.364 3.82369 83.0081 3.43839C83.0979 3.3642 83.1983 3.30621 83.2987 3.24823C83.5575 3.09486 83.8163 2.95271 84.0433 2.82054C84.2066 2.73076 84.365 2.64098 84.5078 2.5724C84.6026 2.51941 84.703 2.47202 84.7928 2.42963C85.7219 1.95954 86.6779 1.55865 87.66 1.22572L88.0878 1.08295C88.9645 0.803018 89.8618 0.576078 90.7598 0.40712C91.0553 0.349138 91.3565 0.296144 91.6521 0.253748C91.8473 0.227563 92.0375 0.200755 92.2326 0.179557C92.4914 0.142773 92.7552 0.110976 93.009 0.0897784C93.3307 0.0635931 93.6637 0.0423952 93.9861 0.0261853C94.3503 0.00498757 94.7045 0 95.0686 0C95.3854 0 95.6916 0.00498734 95.9978 0.0211973C96.3145 0.026185 96.6207 0.047383 96.9269 0.0791795C97.2437 0.100377 97.5498 0.132174 97.856 0.168958H97.861C98.1622 0.205742 98.4683 0.248137 98.7689 0.301132C99.3919 0.401509 100.004 0.528071 100.612 0.675832C101.514 0.897784 102.391 1.17211 103.241 1.49942C104.118 1.82674 104.957 2.21204 105.77 2.63973C106.002 2.77191 106.23 2.89348 106.457 3.02005C106.504 3.04124 106.547 3.07304 106.589 3.09424C106.637 3.12042 106.679 3.15222 106.732 3.1784C106.875 3.26319 107.022 3.34736 107.165 3.43714C107.238 3.47954 107.307 3.52131 107.381 3.57991C107.497 3.64351 107.608 3.72269 107.724 3.80187C107.872 3.89164 108.015 3.99202 108.157 4.0924C108.41 4.26697 108.658 4.45151 108.912 4.63606C108.938 4.65725 108.976 4.68344 109.017 4.71524C109.133 4.80003 109.287 4.91599 109.466 5.05814C109.73 5.27448 109.994 5.49643 110.248 5.73397C110.38 5.84993 110.511 5.96652 110.639 6.08747C110.823 6.25643 111.003 6.431 111.177 6.59934C111.352 6.77328 111.526 6.94785 111.695 7.12741C111.906 7.34375 112.112 7.5657 112.313 7.79264C112.371 7.85623 112.434 7.92481 112.492 7.99339C112.529 8.03018 112.561 8.07257 112.587 8.11497C112.619 8.15736 112.656 8.19976 112.688 8.23654C112.989 8.58506 113.274 8.94417 113.548 9.31326C113.712 9.54581 113.876 9.77774 114.034 10.0153C114.314 10.4218 114.578 10.8389 114.831 11.2666V11.2716C115.005 11.5515 115.164 11.8364 115.312 12.1319C115.365 12.2005 115.396 12.2747 115.433 12.3539C115.592 12.6444 115.739 12.9505 115.882 13.2567C116.099 13.7105 116.299 14.175 116.479 14.6401C116.569 14.8727 116.659 15.1102 116.743 15.3477C116.811 15.5429 116.875 15.7436 116.944 15.9444C116.991 16.1028 117.044 16.2505 117.086 16.4089C117.245 16.9525 117.392 17.5068 117.508 18.0667C117.582 18.394 117.646 18.7213 117.699 19.0486C117.73 19.202 117.757 19.3547 117.773 19.5131C117.778 19.5237 117.778 19.5393 117.778 19.5449C117.804 19.7032 117.825 19.8616 117.841 20.02C117.852 20.0461 117.857 20.073 117.857 20.1041C117.873 20.2201 117.883 20.3311 117.899 20.447C117.915 20.558 117.921 20.674 117.926 20.7906C117.931 20.833 117.936 20.8803 117.941 20.9227C117.946 20.9701 117.952 21.0175 117.957 21.0599C117.957 21.0861 117.962 21.1179 117.962 21.1497C117.967 21.1865 117.972 21.2239 117.972 21.2606C118.015 21.8205 118.036 22.3904 118.036 22.9608L118.039 22.9639Z"/>
</mask>
<path d="M118.039 22.9639C118.039 23.2913 118.029 23.6136 118.018 23.9353V23.9721C118.007 24.2096 117.997 24.4528 117.976 24.6797C117.96 24.896 117.939 25.1074 117.918 25.3131C117.886 25.6143 117.854 25.9148 117.807 26.2159C117.796 26.2951 117.785 26.3799 117.775 26.4641C117.732 26.749 117.68 27.0395 117.621 27.3244C117.579 27.5514 117.532 27.7783 117.479 28.0109C117.431 28.2434 117.373 28.4753 117.315 28.7023C117.12 29.4361 116.904 30.1593 116.645 30.8613C116.581 31.0359 116.513 31.2098 116.444 31.3894C116.322 31.6955 116.196 31.9966 116.059 32.2978C115.943 32.5615 115.821 32.8258 115.695 33.0896C115.557 33.3695 115.415 33.6388 115.267 33.9082C115.177 34.0771 115.087 34.2405 114.992 34.3939C114.903 34.5522 114.808 34.7162 114.712 34.8745C114.586 35.0803 114.459 35.281 114.327 35.4818C114.158 35.7405 113.978 36.0043 113.799 36.263C113.667 36.4475 113.529 36.6327 113.392 36.8123C113.266 36.9812 113.133 37.1446 113.007 37.3135C112.637 37.7674 112.252 38.2163 111.84 38.6546C111.666 38.8391 111.492 39.0243 111.312 39.2039L111.248 39.2674C111.069 39.447 110.884 39.621 110.699 39.7899C110.303 40.154 109.897 40.5131 109.484 40.8404C109.279 41.0144 109.067 41.1784 108.856 41.3367C108.84 41.3473 108.824 41.3579 108.813 41.3685C108.613 41.5219 108.402 41.664 108.195 41.8068C107.973 41.9652 107.752 42.1129 107.53 42.2557C107.303 42.4091 107.076 42.5512 106.844 42.6834C106.062 43.1479 105.254 43.5706 104.415 43.9503C104.283 44.0082 104.145 44.0612 104.008 44.1192C103.602 44.2932 103.184 44.4571 102.767 44.6049C102.477 44.7053 102.187 44.8057 101.891 44.8954C101.537 45.0114 101.172 45.1118 100.808 45.2072C100.534 45.2757 100.259 45.3443 99.9843 45.4023C99.8153 45.4391 99.6413 45.4759 99.4667 45.5077C99.3239 45.5345 99.1711 45.5607 99.0283 45.5869C98.3686 45.6978 97.6976 45.7926 97.0217 45.84C96.8951 45.8556 96.7629 45.8662 96.6363 45.8768C96.1187 45.9135 95.5962 45.9298 95.068 45.9298C94.7562 45.9298 94.4451 45.9248 94.1333 45.9086C93.9381 45.9036 93.7373 45.893 93.5365 45.8768C93.3626 45.8662 93.1936 45.8506 93.019 45.8344C92.8712 45.8238 92.7284 45.8132 92.5806 45.792C92.4328 45.7764 92.285 45.7602 92.1372 45.739H92.1322C92 45.7234 91.8685 45.7072 91.7363 45.686C91.6041 45.6648 91.4725 45.6436 91.3403 45.6174C91.2399 45.6068 91.1345 45.5912 91.0341 45.57C91.0291 45.575 91.0235 45.575 91.0185 45.57C90.9181 45.5544 90.8178 45.5382 90.723 45.517C90.6912 45.512 90.665 45.5014 90.6382 45.4958C90.6276 45.4958 90.612 45.4908 90.5958 45.4908C90.5802 45.4859 90.564 45.4859 90.5534 45.4746L90.0782 45.3799C89.9198 45.3431 89.7614 45.3057 89.603 45.2689C89.4658 45.2371 89.3287 45.2053 89.1909 45.1685C89.1647 45.1635 89.1379 45.1529 89.1067 45.1423C88.9589 45.1055 88.8161 45.0631 88.6739 45.0207C88.4151 44.9466 88.162 44.8674 87.9082 44.7832C87.8502 44.7676 87.7922 44.7464 87.7342 44.7252C87.6394 44.699 87.544 44.6672 87.4436 44.6249C87.317 44.5825 87.1954 44.5401 87.0738 44.4927C86.7995 44.3923 86.5245 44.2813 86.2501 44.1703C86.1971 44.1491 86.1497 44.128 86.0973 44.1018C85.8597 44.007 85.6272 43.901 85.3952 43.79C85.1364 43.6685 84.8882 43.5469 84.635 43.4203C84.5191 43.3623 84.4024 43.3044 84.2921 43.2408C84.0177 43.098 83.7483 42.9452 83.4839 42.7869C83.3623 42.7183 83.2464 42.6441 83.1248 42.5755C83.0668 42.5387 83.0032 42.4964 82.9402 42.4596C82.6446 42.28 82.354 42.0849 82.0634 41.8841C81.9524 41.8099 81.8414 41.7307 81.7361 41.6516C81.6095 41.5674 81.4829 41.472 81.3557 41.3772C81.1125 41.1977 80.8699 41.0131 80.6373 40.8174C80.5213 40.7226 80.4103 40.6272 80.2994 40.5374C80.194 40.4477 80.088 40.3579 79.9876 40.2681C79.8822 40.1783 79.7762 40.0885 79.6758 39.9938C79.5704 39.899 79.47 39.8092 79.3696 39.7138C78.7785 39.1596 78.2185 38.5785 77.6853 37.9613C77.5955 37.8665 77.5114 37.7662 77.4322 37.6658C77.3792 37.6022 77.3268 37.5392 77.2788 37.4756C77.2526 37.4438 77.2258 37.412 77.2046 37.3809C77.1148 37.2755 77.0306 37.1695 76.9458 37.0585V37.0535C76.9352 37.0485 76.9302 37.038 76.9302 37.0323C76.7506 36.7998 76.571 36.5573 76.397 36.3197C76.2231 36.0716 76.0485 35.8178 75.8795 35.5591C75.7105 35.306 75.5471 35.0472 75.3881 34.7829C75.2297 34.5185 75.0763 34.2548 74.9285 33.9855C74.7808 33.7162 74.638 33.4468 74.5008 33.1669C74.3686 32.8926 74.237 32.6126 74.1104 32.3327C74.005 32.1058 73.9096 31.8732 73.8148 31.6413C73.6727 31.3034 73.5405 30.9548 73.4189 30.6063C72.7167 28.6368 72.2833 26.5414 72.1518 24.3605C72.1256 23.896 72.1094 23.4315 72.1094 22.9614C72.1094 16.9114 74.4484 11.41 78.2771 7.30759C78.7891 6.75333 79.3334 6.23087 79.8984 5.72898C80.3 5.38047 80.7115 5.03757 81.1337 4.72085V4.71586C81.7354 4.25637 82.364 3.82369 83.0081 3.43839C83.0979 3.3642 83.1983 3.30621 83.2987 3.24823C83.5575 3.09486 83.8163 2.95271 84.0433 2.82054C84.2066 2.73076 84.365 2.64098 84.5078 2.5724C84.6026 2.51941 84.703 2.47202 84.7928 2.42963C85.7219 1.95954 86.6779 1.55865 87.66 1.22572L88.0878 1.08295C88.9645 0.803018 89.8618 0.576078 90.7598 0.40712C91.0553 0.349138 91.3565 0.296144 91.6521 0.253748C91.8473 0.227563 92.0375 0.200755 92.2326 0.179557C92.4914 0.142773 92.7552 0.110976 93.009 0.0897784C93.3307 0.0635931 93.6637 0.0423952 93.9861 0.0261853C94.3503 0.00498757 94.7045 0 95.0686 0C95.3854 0 95.6916 0.00498734 95.9978 0.0211973C96.3145 0.026185 96.6207 0.047383 96.9269 0.0791795C97.2437 0.100377 97.5498 0.132174 97.856 0.168958H97.861C98.1622 0.205742 98.4683 0.248137 98.7689 0.301132C99.3919 0.401509 100.004 0.528071 100.612 0.675832C101.514 0.897784 102.391 1.17211 103.241 1.49942C104.118 1.82674 104.957 2.21204 105.77 2.63973C106.002 2.77191 106.23 2.89348 106.457 3.02005C106.504 3.04124 106.547 3.07304 106.589 3.09424C106.637 3.12042 106.679 3.15222 106.732 3.1784C106.875 3.26319 107.022 3.34736 107.165 3.43714C107.238 3.47954 107.307 3.52131 107.381 3.57991C107.497 3.64351 107.608 3.72269 107.724 3.80187C107.872 3.89164 108.015 3.99202 108.157 4.0924C108.41 4.26697 108.658 4.45151 108.912 4.63606C108.938 4.65725 108.976 4.68344 109.017 4.71524C109.133 4.80003 109.287 4.91599 109.466 5.05814C109.73 5.27448 109.994 5.49643 110.248 5.73397C110.38 5.84993 110.511 5.96652 110.639 6.08747C110.823 6.25643 111.003 6.431 111.177 6.59934C111.352 6.77328 111.526 6.94785 111.695 7.12741C111.906 7.34375 112.112 7.5657 112.313 7.79264C112.371 7.85623 112.434 7.92481 112.492 7.99339C112.529 8.03018 112.561 8.07257 112.587 8.11497C112.619 8.15736 112.656 8.19976 112.688 8.23654C112.989 8.58506 113.274 8.94417 113.548 9.31326C113.712 9.54581 113.876 9.77774 114.034 10.0153C114.314 10.4218 114.578 10.8389 114.831 11.2666V11.2716C115.005 11.5515 115.164 11.8364 115.312 12.1319C115.365 12.2005 115.396 12.2747 115.433 12.3539C115.592 12.6444 115.739 12.9505 115.882 13.2567C116.099 13.7105 116.299 14.175 116.479 14.6401C116.569 14.8727 116.659 15.1102 116.743 15.3477C116.811 15.5429 116.875 15.7436 116.944 15.9444C116.991 16.1028 117.044 16.2505 117.086 16.4089C117.245 16.9525 117.392 17.5068 117.508 18.0667C117.582 18.394 117.646 18.7213 117.699 19.0486C117.73 19.202 117.757 19.3547 117.773 19.5131C117.778 19.5237 117.778 19.5393 117.778 19.5449C117.804 19.7032 117.825 19.8616 117.841 20.02C117.852 20.0461 117.857 20.073 117.857 20.1041C117.873 20.2201 117.883 20.3311 117.899 20.447C117.915 20.558 117.921 20.674 117.926 20.7906C117.931 20.833 117.936 20.8803 117.941 20.9227C117.946 20.9701 117.952 21.0175 117.957 21.0599C117.957 21.0861 117.962 21.1179 117.962 21.1497C117.967 21.1865 117.972 21.2239 117.972 21.2606C118.015 21.8205 118.036 22.3904 118.036 22.9608L118.039 22.9639Z" stroke="white" stroke-width="5.4166" mask="url(#path-6-inside-1_84_8083)"/>
<path d="M102.768 44.6063C100.36 45.4636 97.7735 45.9281 95.0722 45.9281C85.0751 45.9281 76.564 39.5339 73.4199 30.6096C73.7055 30.6595 73.9917 30.7524 74.2418 30.8883C75.1566 31.3671 75.7995 32.2244 76.4642 33.0174C77.1289 33.8105 77.9003 34.6035 78.9011 34.8535C80.273 35.2033 81.9666 34.5318 82.9955 35.4963C83.5386 36.0038 83.7531 36.8823 84.4534 37.1398C85.2254 37.4328 86.0828 36.6466 86.1327 35.818C86.19 34.9963 85.6899 34.2319 85.1106 33.639C84.5388 33.0386 83.8672 32.5243 83.417 31.8316C82.9743 31.1315 82.8165 30.1526 83.3241 29.5024C83.7812 28.9163 84.6604 28.781 85.3538 29.0454C86.0472 29.3097 86.576 29.8883 86.9545 30.5317C87.6049 31.6178 87.8836 32.8821 88.4548 34.0038C89.0267 35.1328 90.0412 36.1902 91.3058 36.2114C92.4133 36.2401 93.7427 35.5256 94.5072 36.333C94.9288 36.7757 94.9075 37.4621 95.0572 38.055C95.5006 39.7982 97.3725 40.6916 99.0231 41.3986C100.595 42.0632 102.347 42.999 102.768 44.6063Z" fill="white"/>
<path d="M117.512 18.0699C117.132 18.0805 116.736 18.0699 116.314 18.0487C115.638 18.0169 114.962 17.9801 114.286 17.9483C114.011 17.9327 113.736 17.9221 113.462 17.9059C112.712 17.8691 111.889 17.8585 111.26 18.2226C111.139 18.2912 111.028 18.3704 110.922 18.4707C110.574 18.803 110.363 19.2837 109.935 19.5001C109.544 19.6902 109.085 19.6054 108.652 19.616C107.347 19.6478 106.202 20.5768 105.552 21.7015C104.955 22.7308 104.57 23.8238 104.332 24.9485C103.752 27.6568 104.042 30.5603 104.317 33.2904C104.327 33.3802 104.338 33.47 104.338 33.5597C104.385 34.0454 104.391 34.5417 104.184 34.98C103.942 35.4975 103.292 35.8672 102.785 35.6028C102.627 35.5236 102.505 35.3915 102.405 35.2437C102.31 35.1065 102.236 34.9426 102.162 34.7898C101.761 33.9238 101.676 32.9893 101.307 32.1607C100.784 30.9886 99.807 31.3159 98.8249 30.8776C98.1171 30.5609 97.7636 29.7635 97.5946 29.0085C97.5628 28.8607 97.531 28.713 97.5048 28.5652C97.3888 27.9473 97.2934 27.3195 96.9978 26.7752C96.903 26.6063 96.7864 26.4373 96.6124 26.3525C96.4647 26.2783 96.2907 26.2677 96.1267 26.2628C95.1552 26.2416 94.0408 26.3101 93.0905 26.5003C92.2668 26.6693 91.559 27.3501 90.7147 27.3395C89.2998 27.3183 88.6925 25.4759 88.8614 24.0713C89.0354 22.6673 89.5424 21.136 88.8296 19.9165C87.6997 17.9844 84.2988 18.2114 83.5068 16.1203C82.7411 14.0822 85.2759 12.3558 87.4198 11.9761C89.5692 11.5908 92.2038 11.3639 93.1229 9.38941C93.5663 8.43364 93.4347 7.36752 93.0649 6.35377C92.8854 5.8469 92.6428 5.35062 92.389 4.88615C91.6232 3.50269 90.6941 2.08244 90.7521 0.503839C90.7521 0.472043 90.7571 0.440247 90.7627 0.409074C91.0583 0.351092 91.3595 0.298097 91.655 0.255702C91.8502 0.229517 92.0404 0.202708 92.2356 0.18151C92.4944 0.144726 92.7581 0.112929 93.0119 0.0917315C93.3337 0.0655462 93.6667 0.044349 93.9891 0.028139C94.3532 0.00694129 94.7074 0.00195312 95.0716 0.00195312C95.3884 0.00195312 95.6945 0.00694106 96.0007 0.023151C96.3175 0.0281387 96.6237 0.0493367 96.9298 0.0811332C97.2466 0.102331 97.5528 0.134127 97.859 0.170912H97.8639C98.1651 0.207696 98.4713 0.250091 98.7719 0.303085C99.3948 0.403462 100.007 0.530025 100.615 0.677785C101.47 0.889138 102.299 1.14226 103.101 1.44838C103.149 1.46397 103.196 1.48517 103.244 1.50138C104.121 1.82869 104.96 2.21399 105.773 2.64169C106.005 2.77386 106.233 2.89544 106.46 3.022C106.507 3.0432 106.55 3.07499 106.592 3.09619C106.639 3.12238 106.682 3.15417 106.735 3.18036C106.878 3.26515 107.025 3.34932 107.168 3.43909C107.241 3.48149 107.31 3.52326 107.384 3.58187C107.5 3.64546 107.611 3.72464 107.727 3.80382C107.875 3.8936 108.018 3.99397 108.16 4.09435C108.413 4.26892 108.661 4.45347 108.915 4.63801C108.941 4.65921 108.978 4.68539 109.02 4.71719C109.136 4.80198 109.29 4.91794 109.469 5.06009C109.733 5.27643 109.997 5.49839 110.251 5.73592C110.383 5.85189 110.514 5.96847 110.642 6.08943C110.826 6.25838 111.006 6.43295 111.18 6.60129C111.355 6.77523 111.529 6.9498 111.698 7.12936C111.909 7.3457 112.115 7.56765 112.316 7.79459C112.374 7.85819 112.437 7.92677 112.495 7.99535C112.532 8.03213 112.564 8.07453 112.59 8.11692C112.622 8.15932 112.659 8.20171 112.691 8.2385C112.992 8.58701 113.277 8.94612 113.551 9.31521C113.714 9.54776 113.878 9.77969 114.037 10.0172C114.317 10.4237 114.581 10.8408 114.834 11.2685V11.2735C115.008 11.5534 115.167 11.8384 115.315 12.1339C115.368 12.2025 115.399 12.2767 115.436 12.3558C115.595 12.6464 115.742 12.9525 115.885 13.2586C116.102 13.7125 116.302 14.177 116.482 14.6421C116.572 14.8746 116.661 15.1122 116.746 15.3497C116.814 15.5448 116.878 15.7456 116.946 15.9463C116.994 16.1047 117.047 16.2525 117.089 16.4108C117.147 16.6116 117.205 16.8173 117.258 17.0231C117.353 17.3666 117.438 17.7145 117.511 18.0686L117.512 18.0699Z" fill="white"/>
<path d="M80.3649 11.5557C80.0799 13.2347 77.6031 13.6094 76.954 15.1774C76.3784 16.5764 77.5352 18.155 77.2496 19.6382C76.9378 21.2592 75.1531 22.0454 73.7856 22.9694C73.1889 23.3709 72.6401 23.8404 72.1537 24.3635C72.1275 23.899 72.1113 23.4345 72.1113 22.9644C72.1113 16.9143 74.4503 11.4129 78.2791 7.31055C78.4219 7.82802 78.728 8.34549 79.0604 8.76259C79.7258 9.59179 80.5439 10.5101 80.3649 11.5557Z" fill="white"/>
</g>
<defs>
<clipPath id="clip0_84_8083">
<rect width="10.2781" height="16.8513" fill="white" transform="translate(44.0352 14.5391)"/>
</clipPath>
<clipPath id="clip1_84_8083">
<rect width="7.46358" height="4.59298" fill="white" transform="translate(59.4805 20.668)"/>
</clipPath>
</defs>
</svg>
