<svg width="908" height="322" viewBox="0 0 908 322" fill="none" xmlns="http://www.w3.org/2000/svg">
<path d="M112.638 160.638C112.638 222.846 62.2082 273.276 0 273.276C0 273.276 0 195.09 0 132.882C0 70.6739 0 48 0 48C62.2082 48 112.638 98.4297 112.638 160.638Z" fill="white"/>
<circle cx="155.926" cy="160.638" r="2.51" fill="white"/>
<circle cx="205.672" cy="160.638" r="6.45695" fill="white"/>
<path d="M266.538 160.638C266.538 160.735 266.535 160.83 266.531 160.926V160.937C266.528 161.007 266.525 161.08 266.519 161.147C266.514 161.211 266.508 161.274 266.502 161.335C266.492 161.424 266.483 161.513 266.469 161.603C266.466 161.626 266.462 161.651 266.459 161.676C266.447 161.761 266.431 161.847 266.414 161.932C266.401 161.999 266.387 162.066 266.371 162.135C266.357 162.204 266.34 162.273 266.323 162.341C266.265 162.558 266.201 162.773 266.124 162.981C266.105 163.033 266.085 163.085 266.064 163.138C266.028 163.229 265.991 163.318 265.95 163.408C265.916 163.486 265.879 163.564 265.842 163.643C265.801 163.726 265.759 163.806 265.715 163.885C265.688 163.936 265.662 163.984 265.634 164.03C265.607 164.077 265.579 164.125 265.55 164.172C265.513 164.233 265.475 164.293 265.436 164.352C265.386 164.429 265.333 164.508 265.279 164.584C265.24 164.639 265.199 164.694 265.159 164.747C265.121 164.797 265.082 164.846 265.044 164.896C264.935 165.031 264.82 165.164 264.698 165.294C264.646 165.349 264.595 165.404 264.541 165.457L264.523 165.476C264.469 165.529 264.414 165.581 264.359 165.631C264.242 165.739 264.121 165.846 263.999 165.943C263.938 165.994 263.875 166.043 263.812 166.09C263.808 166.093 263.803 166.096 263.8 166.099C263.74 166.145 263.678 166.187 263.617 166.229C263.551 166.276 263.485 166.32 263.419 166.363C263.352 166.408 263.284 166.45 263.215 166.49C262.983 166.627 262.744 166.753 262.495 166.866C262.455 166.883 262.415 166.898 262.374 166.916C262.253 166.967 262.129 167.016 262.006 167.06C261.919 167.09 261.833 167.119 261.745 167.146C261.641 167.18 261.532 167.21 261.424 167.239C261.343 167.259 261.261 167.279 261.18 167.296C261.13 167.307 261.078 167.318 261.026 167.328C260.984 167.336 260.938 167.343 260.896 167.351C260.7 167.384 260.501 167.412 260.301 167.426C260.263 167.431 260.224 167.434 260.186 167.437C260.033 167.448 259.878 167.453 259.721 167.453C259.628 167.453 259.536 167.451 259.443 167.447C259.386 167.445 259.326 167.442 259.266 167.437C259.215 167.434 259.165 167.429 259.113 167.425C259.069 167.422 259.027 167.418 258.983 167.412C258.939 167.407 258.895 167.403 258.851 167.396H258.85C258.81 167.392 258.771 167.387 258.732 167.381C258.693 167.374 258.654 167.368 258.615 167.36C258.585 167.357 258.554 167.353 258.524 167.346C258.522 167.348 258.521 167.348 258.519 167.346C258.489 167.342 258.46 167.337 258.431 167.33C258.422 167.329 258.414 167.326 258.406 167.324C258.403 167.324 258.399 167.323 258.394 167.323C258.389 167.321 258.384 167.321 258.381 167.318L258.24 167.29C258.193 167.279 258.146 167.268 258.099 167.257C258.058 167.247 258.018 167.238 257.977 167.227C257.969 167.226 257.961 167.222 257.952 167.219C257.908 167.208 257.866 167.196 257.823 167.183C257.747 167.161 257.671 167.138 257.596 167.113C257.579 167.108 257.562 167.102 257.544 167.096C257.516 167.088 257.488 167.078 257.458 167.066C257.421 167.053 257.385 167.041 257.349 167.027C257.267 166.997 257.186 166.964 257.104 166.931C257.088 166.925 257.074 166.918 257.059 166.91C256.988 166.882 256.919 166.851 256.85 166.818C256.774 166.782 256.7 166.746 256.625 166.708C256.59 166.691 256.556 166.674 256.523 166.655C256.442 166.613 256.362 166.567 256.283 166.52C256.247 166.5 256.213 166.478 256.177 166.458C256.159 166.447 256.141 166.434 256.122 166.423C256.034 166.37 255.948 166.312 255.862 166.252C255.829 166.23 255.796 166.207 255.765 166.183C255.727 166.158 255.689 166.13 255.652 166.102C255.579 166.049 255.507 165.994 255.438 165.936C255.404 165.908 255.371 165.879 255.338 165.853C255.307 165.826 255.275 165.799 255.246 165.773C255.214 165.746 255.183 165.72 255.153 165.691C255.122 165.663 255.092 165.637 255.062 165.608C254.887 165.444 254.721 165.271 254.562 165.088C254.536 165.06 254.511 165.03 254.487 165.001C254.472 164.982 254.456 164.963 254.442 164.944C254.434 164.935 254.426 164.925 254.42 164.916C254.393 164.885 254.368 164.853 254.343 164.82V164.819C254.34 164.817 254.338 164.814 254.338 164.813C254.285 164.744 254.232 164.672 254.18 164.601C254.128 164.527 254.077 164.452 254.027 164.375C253.976 164.3 253.928 164.224 253.881 164.145C253.834 164.067 253.788 163.988 253.744 163.908C253.7 163.828 253.658 163.749 253.617 163.665C253.578 163.584 253.539 163.501 253.502 163.418C253.47 163.351 253.442 163.282 253.414 163.213C253.372 163.112 253.332 163.009 253.296 162.906C253.088 162.321 252.959 161.699 252.92 161.052C252.913 160.914 252.908 160.776 252.908 160.637C252.908 158.842 253.602 157.209 254.738 155.992C254.89 155.827 255.052 155.672 255.219 155.523C255.338 155.42 255.46 155.318 255.586 155.224V155.222C255.764 155.086 255.951 154.958 256.142 154.843C256.169 154.821 256.198 154.804 256.228 154.787C256.305 154.741 256.382 154.699 256.449 154.66C256.498 154.633 256.545 154.607 256.587 154.586C256.615 154.571 256.645 154.557 256.672 154.544C256.947 154.404 257.231 154.286 257.522 154.187L257.649 154.144C257.91 154.061 258.176 153.994 258.442 153.944C258.53 153.927 258.619 153.911 258.707 153.898C258.765 153.89 258.822 153.883 258.879 153.876C258.956 153.865 259.035 153.856 259.11 153.85C259.205 153.842 259.304 153.836 259.4 153.831C259.508 153.824 259.613 153.823 259.721 153.823C259.815 153.823 259.906 153.824 259.997 153.829C260.091 153.831 260.182 153.837 260.272 153.846C260.367 153.853 260.457 153.862 260.548 153.873H260.55C260.639 153.884 260.73 153.897 260.819 153.912C261.004 153.942 261.186 153.98 261.366 154.024C261.634 154.089 261.894 154.171 262.146 154.268C262.406 154.365 262.656 154.479 262.897 154.606C262.966 154.646 263.033 154.682 263.101 154.719C263.115 154.725 263.127 154.735 263.14 154.741C263.154 154.749 263.166 154.758 263.182 154.766C263.225 154.791 263.268 154.816 263.311 154.843C263.332 154.856 263.353 154.868 263.375 154.885C263.409 154.904 263.442 154.928 263.477 154.951C263.52 154.978 263.563 155.008 263.605 155.037C263.68 155.089 263.754 155.144 263.829 155.199C263.837 155.205 263.848 155.213 263.86 155.222C263.895 155.247 263.94 155.282 263.994 155.324C264.072 155.388 264.15 155.454 264.226 155.525C264.265 155.559 264.304 155.594 264.342 155.629C264.396 155.68 264.45 155.731 264.501 155.781C264.553 155.833 264.605 155.885 264.655 155.938C264.718 156.002 264.779 156.068 264.838 156.135C264.856 156.154 264.874 156.175 264.892 156.195C264.903 156.206 264.912 156.219 264.92 156.231C264.929 156.244 264.94 156.256 264.95 156.267C265.039 156.371 265.124 156.477 265.205 156.587C265.253 156.656 265.302 156.725 265.349 156.795C265.432 156.916 265.511 157.039 265.586 157.166V157.168C265.637 157.251 265.684 157.336 265.728 157.423C265.744 157.444 265.753 157.466 265.764 157.489C265.811 157.575 265.855 157.666 265.898 157.757C265.962 157.892 266.021 158.03 266.075 158.168C266.101 158.237 266.128 158.307 266.153 158.378C266.173 158.435 266.192 158.495 266.213 158.555C266.227 158.602 266.242 158.645 266.255 158.692C266.302 158.854 266.346 159.018 266.38 159.184C266.402 159.282 266.421 159.379 266.437 159.476C266.446 159.521 266.454 159.567 266.459 159.614C266.46 159.617 266.46 159.621 266.46 159.623C266.468 159.67 266.474 159.717 266.479 159.764C266.482 159.772 266.484 159.78 266.484 159.789C266.488 159.823 266.491 159.856 266.496 159.891C266.501 159.924 266.503 159.958 266.504 159.993C266.506 160.005 266.507 160.019 266.509 160.032C266.51 160.046 266.512 160.06 266.513 160.073C266.513 160.08 266.515 160.09 266.515 160.099C266.516 160.11 266.518 160.121 266.518 160.132C266.53 160.298 266.537 160.467 266.537 160.637L266.538 160.638Z" fill="url(#paint0_radial_17_5260)"/>
<path d="M262.005 167.06C261.291 167.315 260.523 167.452 259.721 167.452C256.755 167.452 254.229 165.555 253.296 162.907C253.381 162.921 253.466 162.949 253.54 162.989C253.811 163.131 254.002 163.386 254.199 163.621C254.397 163.856 254.625 164.092 254.922 164.166C255.33 164.27 255.832 164.071 256.138 164.357C256.299 164.507 256.362 164.768 256.57 164.844C256.799 164.931 257.054 164.698 257.068 164.452C257.086 164.208 256.937 163.982 256.765 163.806C256.596 163.627 256.396 163.475 256.263 163.269C256.131 163.061 256.084 162.771 256.235 162.578C256.371 162.404 256.632 162.364 256.837 162.442C257.043 162.521 257.2 162.693 257.312 162.883C257.505 163.206 257.588 163.581 257.758 163.914C257.927 164.249 258.228 164.563 258.604 164.569C258.932 164.577 259.327 164.365 259.554 164.605C259.679 164.736 259.673 164.94 259.717 165.116C259.848 165.633 260.404 165.898 260.894 166.108C261.36 166.306 261.88 166.583 262.005 167.06Z" fill="url(#paint1_radial_17_5260)"/>
<path style="mix-blend-mode:multiply" opacity="0.35" d="M266.538 160.638C266.538 160.735 266.535 160.83 266.531 160.926V160.937C266.528 161.007 266.525 161.08 266.519 161.147C266.514 161.211 266.508 161.274 266.502 161.335C266.492 161.424 266.483 161.513 266.469 161.603C266.466 161.626 266.462 161.651 266.459 161.676C266.447 161.761 266.431 161.847 266.414 161.932C266.401 161.999 266.387 162.066 266.371 162.135C266.357 162.204 266.34 162.273 266.323 162.341C266.265 162.558 266.201 162.773 266.124 162.981C266.105 163.033 266.085 163.085 266.064 163.138C266.028 163.229 265.991 163.318 265.95 163.408C265.916 163.486 265.88 163.564 265.842 163.643C265.801 163.726 265.759 163.806 265.715 163.885C265.688 163.936 265.662 163.984 265.634 164.03C265.607 164.077 265.579 164.125 265.551 164.172C265.513 164.233 265.475 164.293 265.436 164.352C265.386 164.429 265.333 164.508 265.279 164.584C265.24 164.639 265.2 164.694 265.159 164.747C265.121 164.797 265.082 164.846 265.044 164.896C264.935 165.031 264.82 165.164 264.698 165.294C264.646 165.349 264.595 165.404 264.541 165.457L264.523 165.476C264.469 165.529 264.415 165.581 264.36 165.631C264.242 165.739 264.121 165.846 263.999 165.943C263.938 165.994 263.875 166.043 263.813 166.09C263.808 166.093 263.803 166.096 263.8 166.099C263.74 166.145 263.678 166.187 263.617 166.229C263.551 166.276 263.485 166.32 263.419 166.363C263.352 166.408 263.284 166.45 263.215 166.49C262.984 166.627 262.744 166.753 262.495 166.866C262.455 166.883 262.415 166.898 262.374 166.916C262.253 166.967 262.13 167.016 262.006 167.06C261.92 167.09 261.833 167.119 261.746 167.146C261.641 167.18 261.532 167.21 261.424 167.239C261.343 167.259 261.261 167.279 261.18 167.296C261.13 167.307 261.078 167.318 261.026 167.328C260.984 167.336 260.939 167.343 260.896 167.351C260.7 167.384 260.501 167.412 260.301 167.426C260.263 167.431 260.224 167.434 260.186 167.437C260.033 167.448 259.878 167.453 259.721 167.453C259.628 167.453 259.536 167.452 259.444 167.447C259.386 167.445 259.326 167.442 259.266 167.437C259.215 167.434 259.165 167.429 259.113 167.425C259.069 167.422 259.027 167.418 258.983 167.412C258.939 167.407 258.895 167.403 258.851 167.396H258.85C258.81 167.392 258.771 167.387 258.732 167.381C258.693 167.374 258.654 167.368 258.615 167.36C258.585 167.357 258.554 167.353 258.524 167.346C258.522 167.348 258.521 167.348 258.519 167.346C258.489 167.342 258.46 167.337 258.432 167.331C258.422 167.329 258.414 167.326 258.406 167.324C258.403 167.324 258.399 167.323 258.394 167.323C258.389 167.321 258.384 167.321 258.381 167.318L258.24 167.29C258.193 167.279 258.146 167.268 258.099 167.257C258.058 167.247 258.018 167.238 257.977 167.227C257.969 167.226 257.961 167.222 257.952 167.219C257.908 167.208 257.866 167.196 257.823 167.183C257.747 167.161 257.672 167.138 257.596 167.113C257.579 167.108 257.562 167.102 257.545 167.096C257.516 167.088 257.488 167.078 257.458 167.066C257.421 167.053 257.385 167.041 257.349 167.027C257.267 166.997 257.186 166.964 257.104 166.931C257.088 166.925 257.074 166.918 257.059 166.911C256.988 166.882 256.919 166.851 256.85 166.818C256.774 166.782 256.7 166.746 256.625 166.708C256.59 166.691 256.556 166.674 256.523 166.655C256.442 166.613 256.362 166.567 256.283 166.52C256.247 166.5 256.213 166.478 256.177 166.458C256.159 166.447 256.141 166.434 256.122 166.423C256.034 166.37 255.948 166.312 255.862 166.252C255.829 166.23 255.796 166.207 255.765 166.183C255.727 166.158 255.689 166.13 255.652 166.102C255.58 166.049 255.508 165.994 255.439 165.936C255.404 165.908 255.371 165.879 255.338 165.853C255.307 165.826 255.275 165.799 255.246 165.773C255.214 165.746 255.183 165.72 255.153 165.691C255.122 165.663 255.092 165.637 255.062 165.608C254.887 165.444 254.721 165.271 254.562 165.088C254.536 165.06 254.511 165.03 254.487 165.001C254.472 164.982 254.456 164.963 254.442 164.944C254.404 164.902 254.371 164.86 254.337 164.817C254.34 164.819 254.342 164.819 254.343 164.819V164.82C254.345 164.82 254.345 164.822 254.346 164.822C255.341 165.389 256.492 165.713 257.72 165.713C258.457 165.713 259.167 165.596 259.831 165.378C260.586 165.133 261.283 164.759 261.898 164.281C262.098 164.126 262.289 163.958 262.471 163.781C263.67 162.616 264.441 161.013 264.526 159.23C264.53 159.12 264.533 159.011 264.533 158.899C264.533 158.197 264.427 157.522 264.229 156.886C264.175 156.711 264.115 156.537 264.048 156.369C263.808 155.774 263.488 155.218 263.101 154.719C263.115 154.726 263.128 154.735 263.14 154.741C263.154 154.749 263.167 154.759 263.183 154.766C263.225 154.792 263.269 154.817 263.311 154.843C263.333 154.856 263.353 154.868 263.375 154.886C263.41 154.904 263.443 154.928 263.477 154.951C263.521 154.978 263.563 155.008 263.605 155.038C263.681 155.089 263.754 155.144 263.83 155.199C263.837 155.205 263.848 155.213 263.861 155.222C263.986 155.32 264.108 155.42 264.226 155.525C264.265 155.559 264.304 155.594 264.342 155.63C264.397 155.68 264.45 155.732 264.502 155.782C264.554 155.833 264.605 155.885 264.655 155.938C264.718 156.002 264.779 156.068 264.839 156.136C264.856 156.158 264.872 156.176 264.889 156.197C264.9 156.209 264.909 156.22 264.92 156.231C264.93 156.244 264.941 156.256 264.95 156.267C265.038 156.374 265.122 156.482 265.205 156.592V156.593C265.254 156.659 265.303 156.728 265.35 156.795C265.433 156.916 265.511 157.04 265.586 157.166V157.168C265.638 157.251 265.685 157.336 265.729 157.423C265.744 157.444 265.754 157.466 265.765 157.489C265.812 157.575 265.856 157.666 265.898 157.757C265.962 157.892 266.022 158.03 266.075 158.168C266.102 158.237 266.128 158.307 266.153 158.378C266.174 158.435 266.193 158.495 266.213 158.555C266.227 158.602 266.243 158.645 266.255 158.692C266.302 158.854 266.346 159.018 266.381 159.184C266.403 159.282 266.421 159.379 266.437 159.476C266.447 159.521 266.454 159.567 266.459 159.614C266.461 159.617 266.461 159.621 266.461 159.623C266.468 159.67 266.475 159.717 266.479 159.764C266.483 159.772 266.484 159.78 266.484 159.789C266.489 159.823 266.492 159.856 266.497 159.891C266.501 159.924 266.503 159.958 266.504 159.993C266.506 160.005 266.508 160.019 266.509 160.032C266.512 160.054 266.514 160.077 266.515 160.099C266.517 160.11 266.519 160.121 266.519 160.132C266.531 160.298 266.537 160.467 266.537 160.637L266.538 160.638Z" fill="url(#paint2_radial_17_5260)"/>
<path style="mix-blend-mode:multiply" opacity="0.35" d="M266.537 160.638C266.537 160.735 266.534 160.831 266.531 160.926V160.937C266.528 161.007 266.525 161.08 266.519 161.147C266.514 161.211 266.508 161.274 266.501 161.335C266.492 161.424 266.483 161.513 266.468 161.603C266.465 161.626 266.462 161.651 266.459 161.676C266.446 161.761 266.431 161.847 266.413 161.932C266.401 161.999 266.387 162.066 266.371 162.135C266.357 162.204 266.34 162.273 266.323 162.341C266.265 162.558 266.201 162.773 266.124 162.981C266.105 163.033 266.084 163.085 266.064 163.138C266.028 163.229 265.99 163.318 265.95 163.408C265.915 163.486 265.879 163.564 265.842 163.643C265.801 163.726 265.759 163.806 265.715 163.886C265.688 163.936 265.661 163.984 265.633 164.03C265.607 164.077 265.579 164.125 265.55 164.172C265.513 164.233 265.475 164.293 265.436 164.353C265.386 164.429 265.332 164.508 265.279 164.584C265.24 164.639 265.199 164.694 265.158 164.747C265.121 164.798 265.082 164.846 265.044 164.896C264.934 165.031 264.82 165.164 264.698 165.294C264.646 165.349 264.594 165.404 264.541 165.457L264.522 165.476C264.469 165.529 264.414 165.581 264.359 165.631C264.242 165.739 264.121 165.846 263.999 165.943C263.938 165.994 263.875 166.043 263.812 166.09C263.808 166.093 263.803 166.096 263.8 166.099C263.74 166.145 263.678 166.187 263.616 166.23C263.55 166.277 263.485 166.32 263.419 166.363C263.351 166.408 263.284 166.45 263.215 166.49C262.983 166.628 262.743 166.753 262.494 166.866C262.455 166.883 262.414 166.899 262.374 166.916C262.253 166.967 262.129 167.016 262.005 167.06C261.919 167.09 261.833 167.119 261.745 167.146C261.64 167.181 261.532 167.21 261.424 167.239C261.343 167.259 261.261 167.279 261.18 167.297C261.129 167.307 261.078 167.318 261.026 167.328C260.984 167.336 260.938 167.344 260.896 167.351C260.7 167.384 260.501 167.412 260.3 167.426C260.263 167.431 260.224 167.434 260.186 167.437C260.032 167.448 259.877 167.453 259.721 167.453C259.628 167.453 259.536 167.452 259.443 167.447C259.385 167.445 259.326 167.442 259.266 167.437C259.215 167.434 259.164 167.43 259.113 167.425C259.069 167.422 259.026 167.418 258.982 167.412C258.939 167.408 258.895 167.403 258.851 167.396H258.849C258.81 167.392 258.771 167.387 258.732 167.381C258.693 167.374 258.654 167.368 258.614 167.36C258.585 167.357 258.553 167.353 258.524 167.346C258.522 167.348 258.52 167.348 258.519 167.346C258.489 167.342 258.459 167.337 258.431 167.331C258.422 167.329 258.414 167.326 258.406 167.324C258.403 167.324 258.398 167.323 258.393 167.323C258.389 167.321 258.384 167.321 258.381 167.318L258.24 167.29C258.193 167.279 258.146 167.268 258.099 167.257C258.058 167.247 258.017 167.238 257.977 167.227C257.969 167.226 257.961 167.223 257.952 167.219C257.908 167.208 257.865 167.196 257.823 167.183C257.746 167.161 257.671 167.138 257.596 167.113C257.579 167.108 257.561 167.102 257.544 167.096C257.516 167.088 257.488 167.078 257.458 167.066C257.42 167.053 257.384 167.041 257.348 167.027C257.267 166.997 257.185 166.964 257.104 166.931C257.088 166.925 257.074 166.918 257.059 166.911C256.988 166.882 256.919 166.851 256.85 166.818C256.773 166.782 256.7 166.746 256.625 166.708C256.59 166.691 256.556 166.674 256.523 166.655C256.441 166.613 256.361 166.567 256.283 166.52C256.247 166.5 256.212 166.478 256.176 166.458C256.159 166.447 256.14 166.434 256.122 166.423C256.034 166.37 255.948 166.312 255.861 166.252C255.828 166.23 255.796 166.207 255.764 166.183C255.727 166.158 255.689 166.13 255.651 166.102C255.579 166.049 255.507 165.994 255.438 165.936C255.404 165.908 255.371 165.879 255.338 165.853C255.307 165.826 255.275 165.8 255.245 165.773C255.214 165.746 255.183 165.72 255.153 165.692C255.122 165.663 255.092 165.637 255.062 165.608C254.974 165.527 254.89 165.442 254.807 165.358L254.84 165.381C254.926 165.441 255.012 165.499 255.1 165.552C255.119 165.563 255.137 165.575 255.155 165.586C255.191 165.607 255.225 165.629 255.261 165.649C255.339 165.696 255.419 165.742 255.501 165.784C255.534 165.803 255.568 165.82 255.603 165.837C255.678 165.875 255.752 165.911 255.828 165.947C255.897 165.98 255.966 166.011 256.037 166.039C256.052 166.047 256.066 166.053 256.082 166.06C256.164 166.093 256.245 166.126 256.327 166.155C256.363 166.169 256.399 166.182 256.436 166.195C256.466 166.207 256.494 166.217 256.523 166.224C256.54 166.231 256.557 166.237 256.574 166.242C256.65 166.267 256.725 166.29 256.801 166.312C256.844 166.325 256.886 166.337 256.93 166.348C256.939 166.351 256.947 166.354 256.955 166.356C256.996 166.367 257.036 166.376 257.077 166.386L257.218 166.419L257.359 166.447C257.362 166.45 257.367 166.45 257.372 166.451C257.376 166.451 257.381 166.453 257.384 166.453C257.392 166.454 257.4 166.457 257.409 166.459C257.437 166.465 257.467 166.47 257.497 166.475C257.498 166.476 257.5 166.476 257.502 166.475C257.531 166.481 257.563 166.486 257.592 166.489C257.632 166.497 257.671 166.503 257.71 166.509C257.749 166.516 257.788 166.52 257.827 166.525H257.829C257.873 166.531 257.917 166.536 257.96 166.541C258.004 166.547 258.047 166.55 258.091 166.553C258.142 166.558 258.192 166.563 258.244 166.566C258.304 166.571 258.363 166.574 258.421 166.575C258.514 166.58 258.606 166.582 258.699 166.582C258.855 166.582 259.01 166.577 259.164 166.566C259.202 166.563 259.241 166.56 259.278 166.555C259.479 166.541 259.678 166.513 259.874 166.48C259.916 166.472 259.962 166.464 260.004 166.456C260.056 166.447 260.107 166.436 260.158 166.425C260.239 166.408 260.321 166.388 260.402 166.367C260.51 166.339 260.618 166.309 260.723 166.275C260.811 166.248 260.897 166.218 260.983 166.188C261.107 166.145 261.231 166.096 261.352 166.044C261.392 166.027 261.433 166.011 261.472 165.994C261.721 165.881 261.961 165.756 262.193 165.618C262.262 165.579 262.329 165.537 262.397 165.491C262.463 165.449 262.528 165.405 262.594 165.358C262.655 165.316 262.718 165.274 262.778 165.228C262.781 165.225 262.785 165.222 262.79 165.219C262.853 165.172 262.916 165.123 262.977 165.071C263.099 164.974 263.22 164.868 263.337 164.76C263.392 164.709 263.447 164.658 263.5 164.605L263.519 164.586C263.572 164.532 263.624 164.478 263.676 164.423C263.798 164.293 263.913 164.159 264.022 164.025C264.06 163.975 264.099 163.926 264.136 163.876C264.177 163.823 264.218 163.768 264.257 163.713C264.31 163.636 264.364 163.558 264.414 163.481C264.453 163.422 264.491 163.362 264.528 163.301C264.556 163.254 264.585 163.205 264.611 163.158C264.639 163.113 264.666 163.064 264.693 163.014C264.737 162.934 264.779 162.854 264.82 162.771C264.857 162.693 264.893 162.615 264.928 162.536C264.968 162.447 265.006 162.358 265.042 162.267C265.062 162.214 265.083 162.162 265.102 162.11C265.178 161.902 265.243 161.687 265.301 161.469C265.318 161.402 265.335 161.333 265.349 161.264C265.365 161.195 265.379 161.128 265.392 161.061C265.409 160.976 265.425 160.89 265.437 160.805C265.44 160.78 265.443 160.755 265.447 160.732C265.461 160.642 265.47 160.553 265.48 160.464C265.486 160.403 265.492 160.34 265.497 160.276C265.503 160.208 265.506 160.136 265.509 160.066V160.055C265.512 159.959 265.516 159.864 265.516 159.767C265.516 159.597 265.509 159.428 265.497 159.262C265.497 159.251 265.495 159.24 265.494 159.229C265.492 159.207 265.49 159.184 265.487 159.162C265.486 159.149 265.484 159.135 265.483 159.122C265.481 159.088 265.48 159.053 265.475 159.021C265.47 158.986 265.467 158.953 265.462 158.919C265.462 158.91 265.461 158.902 265.458 158.894C265.453 158.847 265.447 158.8 265.439 158.753C265.439 158.751 265.439 158.747 265.437 158.743C265.433 158.696 265.425 158.651 265.415 158.606C265.4 158.508 265.381 158.411 265.359 158.314C265.324 158.148 265.281 157.984 265.234 157.822C265.221 157.775 265.205 157.731 265.191 157.684C265.171 157.625 265.152 157.565 265.132 157.507C265.107 157.437 265.08 157.366 265.053 157.297C265 157.159 264.941 157.022 264.876 156.887C264.834 156.796 264.79 156.705 264.743 156.619C264.732 156.595 264.723 156.573 264.707 156.553C264.663 156.465 264.616 156.381 264.564 156.298V156.296C264.489 156.169 264.411 156.045 264.328 155.925C264.281 155.857 264.232 155.788 264.183 155.723V155.721C264.1 155.612 264.016 155.504 263.928 155.397C263.919 155.386 263.908 155.373 263.898 155.361C263.887 155.35 263.878 155.339 263.867 155.326C263.85 155.306 263.834 155.287 263.817 155.265C263.757 155.198 263.696 155.132 263.634 155.068C263.624 155.059 263.615 155.048 263.605 155.038C263.681 155.09 263.754 155.145 263.829 155.2C263.837 155.206 263.848 155.214 263.861 155.223C263.986 155.32 264.108 155.42 264.226 155.525C264.265 155.56 264.304 155.594 264.342 155.63C264.397 155.68 264.45 155.732 264.502 155.782C264.554 155.834 264.605 155.886 264.655 155.939C264.718 156.003 264.779 156.069 264.839 156.136C264.856 156.158 264.872 156.177 264.889 156.197C264.9 156.21 264.909 156.221 264.92 156.232C264.93 156.244 264.941 156.257 264.95 156.268C265.038 156.374 265.122 156.482 265.205 156.592V156.594C265.254 156.66 265.302 156.728 265.349 156.796C265.433 156.916 265.511 157.04 265.586 157.167V157.169C265.638 157.252 265.685 157.336 265.729 157.424C265.744 157.444 265.754 157.466 265.765 157.49C265.812 157.576 265.856 157.667 265.898 157.758C265.962 157.892 266.022 158.03 266.075 158.168C266.102 158.237 266.128 158.308 266.153 158.378C266.174 158.436 266.193 158.496 266.213 158.555C266.227 158.602 266.243 158.646 266.255 158.693C266.302 158.854 266.346 159.019 266.381 159.185C266.402 159.282 266.421 159.379 266.437 159.476C266.446 159.522 266.454 159.567 266.459 159.614C266.461 159.617 266.46 159.622 266.46 159.624C266.468 159.671 266.475 159.718 266.479 159.765C266.483 159.772 266.484 159.78 266.484 159.79C266.489 159.824 266.492 159.857 266.497 159.891C266.501 159.924 266.503 159.959 266.504 159.993C266.506 160.006 266.508 160.02 266.509 160.033C266.512 160.055 266.514 160.078 266.515 160.1C266.517 160.111 266.518 160.122 266.518 160.133C266.531 160.299 266.537 160.468 266.537 160.637L266.537 160.638Z" fill="url(#paint3_radial_17_5260)"/>
<path style="mix-blend-mode:screen" opacity="0.769" d="M262.716 157.559C262.736 157.604 262.754 157.649 262.771 157.694L262.773 157.699C262.786 157.732 262.798 157.767 262.808 157.8C262.819 157.831 262.828 157.862 262.837 157.892C262.85 157.935 262.861 157.979 262.872 158.024C262.874 158.036 262.878 158.048 262.881 158.061C262.891 158.104 262.899 158.147 262.906 158.19C262.913 158.225 262.918 158.261 262.923 158.296C262.928 158.332 262.932 158.368 262.936 158.403C262.946 158.52 262.951 158.636 262.948 158.752C262.948 158.781 262.947 158.809 262.945 158.84C262.942 158.891 262.938 158.942 262.932 158.994C262.928 159.039 262.923 159.085 262.916 159.131C262.91 159.179 262.901 159.228 262.891 159.277C262.886 159.306 262.88 159.335 262.873 159.364C262.866 159.393 262.86 159.423 262.853 159.451C262.843 159.49 262.833 159.527 262.822 159.564C262.808 159.613 262.793 159.663 262.777 159.712C262.765 159.747 262.752 159.783 262.739 159.818C262.727 159.852 262.715 159.884 262.702 159.917C262.665 160.008 262.624 160.099 262.579 160.19C262.559 160.229 262.541 160.268 262.52 160.306L262.513 160.32C262.492 160.358 262.47 160.396 262.448 160.434C262.402 160.514 262.352 160.594 262.299 160.671C262.274 160.71 262.247 160.749 262.219 160.787C262.218 160.789 262.216 160.792 262.214 160.795C262.188 160.831 262.161 160.866 262.133 160.901C262.104 160.94 262.074 160.977 262.044 161.014C262.013 161.052 261.982 161.089 261.95 161.125C261.841 161.249 261.726 161.369 261.602 161.485C261.582 161.503 261.562 161.521 261.542 161.539C261.421 161.65 261.292 161.755 261.157 161.854C261.139 161.868 261.12 161.882 261.1 161.895C261.084 161.908 261.067 161.92 261.049 161.933C261.005 161.964 260.961 161.994 260.917 162.022C260.891 162.039 260.865 162.057 260.839 162.073C260.814 162.088 260.787 162.105 260.761 162.121C260.653 162.187 260.542 162.251 260.426 162.309C260.384 162.331 260.339 162.355 260.295 162.376C260.282 162.382 260.269 162.389 260.255 162.395C260.201 162.421 260.147 162.446 260.091 162.47C260.036 162.494 259.982 162.517 259.926 162.539C259.859 162.565 259.793 162.591 259.728 162.614C259.675 162.633 259.622 162.651 259.569 162.668L259.567 162.669C259.519 162.684 259.471 162.699 259.422 162.712C259.402 162.718 259.383 162.725 259.363 162.73C259.339 162.737 259.315 162.744 259.292 162.749C259.287 162.75 259.282 162.752 259.276 162.753C259.217 162.768 259.158 162.783 259.098 162.797C259.04 162.81 258.98 162.822 258.921 162.833C258.872 162.843 258.822 162.851 258.773 162.859C258.743 162.864 258.714 162.869 258.683 162.873C258.658 162.877 258.634 162.88 258.61 162.882C258.497 162.898 258.386 162.908 258.274 162.914C258.222 162.917 258.171 162.919 258.12 162.921C258.066 162.923 258.01 162.924 257.956 162.923C257.906 162.923 257.856 162.921 257.805 162.92C257.779 162.919 257.752 162.919 257.726 162.916C257.7 162.916 257.674 162.913 257.648 162.912C257.602 162.908 257.555 162.905 257.508 162.899C257.452 162.894 257.397 162.888 257.342 162.879C257.291 162.872 257.24 162.864 257.19 162.856C257.143 162.847 257.095 162.839 257.049 162.828C257.002 162.819 256.954 162.809 256.909 162.797C256.904 162.796 256.899 162.795 256.896 162.794C256.853 162.783 256.81 162.771 256.768 162.759C256.725 162.747 256.683 162.735 256.641 162.721C256.6 162.708 256.558 162.694 256.517 162.679C256.477 162.664 256.436 162.649 256.396 162.633L256.396 162.632C256.018 162.481 255.678 162.274 255.392 162.014C255.1 161.751 254.865 161.431 254.704 161.062C254.291 160.117 254.447 159.04 255.026 158.097C255.075 158.019 255.127 157.94 255.182 157.864L255.181 157.863C255.258 157.755 255.342 157.647 255.431 157.545C255.443 157.528 255.457 157.512 255.471 157.497C255.506 157.455 255.542 157.416 255.575 157.381C255.598 157.356 255.62 157.332 255.641 157.311C255.654 157.297 255.668 157.283 255.682 157.27C255.816 157.134 255.959 157.006 256.11 156.886C256.132 156.868 256.154 156.851 256.176 156.834C256.357 156.694 256.548 156.564 256.748 156.448C256.78 156.429 256.812 156.41 256.845 156.393C256.887 156.368 256.932 156.344 256.975 156.322C257.03 156.293 257.086 156.265 257.141 156.239C257.203 156.208 257.265 156.18 257.329 156.152C257.383 156.128 257.437 156.106 257.492 156.084C257.547 156.061 257.602 156.041 257.658 156.021C257.714 156 257.769 155.982 257.825 155.963L257.826 155.963C257.881 155.945 257.937 155.927 257.992 155.911C258.107 155.877 258.222 155.848 258.337 155.823C258.507 155.785 258.677 155.755 258.845 155.735C259.017 155.714 259.187 155.703 259.355 155.699C259.403 155.7 259.45 155.699 259.498 155.699C259.506 155.699 259.516 155.7 259.524 155.699C259.535 155.699 259.544 155.7 259.554 155.7C259.585 155.701 259.616 155.702 259.646 155.702C259.661 155.703 259.676 155.703 259.692 155.706C259.716 155.706 259.74 155.708 259.765 155.71C259.797 155.711 259.828 155.714 259.859 155.717C259.913 155.721 259.967 155.728 260.022 155.735C260.029 155.735 260.037 155.737 260.046 155.737C260.071 155.74 260.105 155.744 260.145 155.75C260.235 155.765 260.323 155.781 260.411 155.802C260.454 155.812 260.495 155.822 260.536 155.832C260.577 155.842 260.618 155.854 260.658 155.865C260.707 155.879 260.757 155.893 260.806 155.91C260.819 155.914 260.834 155.918 260.849 155.924C260.866 155.929 260.882 155.935 260.898 155.942C260.972 155.967 261.043 155.994 261.113 156.025C261.155 156.044 261.198 156.064 261.24 156.084C261.313 156.119 261.384 156.156 261.455 156.195L261.455 156.196C261.502 156.221 261.546 156.248 261.59 156.277C261.603 156.283 261.614 156.29 261.624 156.299C261.669 156.327 261.714 156.358 261.757 156.389C261.822 156.435 261.885 156.483 261.944 156.534C261.974 156.559 262.003 156.585 262.032 156.611C262.057 156.633 262.08 156.655 262.104 156.678C262.122 156.696 262.139 156.713 262.156 156.731C262.253 156.829 262.342 156.935 262.422 157.047C262.437 157.066 262.451 157.085 262.463 157.105C262.465 157.107 262.465 157.109 262.466 157.11C262.48 157.129 262.493 157.149 262.505 157.17C262.508 157.173 262.511 157.176 262.513 157.18C262.522 157.195 262.532 157.21 262.541 157.224C262.551 157.239 262.559 157.254 262.567 157.269C262.575 157.281 262.581 157.292 262.588 157.304C262.593 157.313 262.597 157.322 262.602 157.331C262.643 157.404 262.682 157.481 262.716 157.56L262.716 157.559Z" fill="url(#paint4_linear_17_5260)"/>
<path d="M266.381 159.185C266.268 159.188 266.15 159.185 266.025 159.179C265.825 159.17 265.624 159.159 265.423 159.149C265.342 159.145 265.26 159.141 265.179 159.137C264.956 159.126 264.712 159.123 264.525 159.231C264.489 159.251 264.456 159.274 264.425 159.304C264.322 159.403 264.259 159.546 264.132 159.61C264.016 159.666 263.88 159.641 263.751 159.644C263.364 159.654 263.024 159.929 262.832 160.263C262.654 160.568 262.54 160.893 262.47 161.227C262.297 162.03 262.383 162.892 262.465 163.702C262.468 163.729 262.471 163.755 262.471 163.782C262.485 163.926 262.487 164.073 262.426 164.204C262.354 164.357 262.161 164.467 262.01 164.388C261.963 164.365 261.927 164.326 261.898 164.282C261.869 164.241 261.847 164.192 261.826 164.147C261.706 163.89 261.681 163.613 261.572 163.367C261.417 163.019 261.127 163.116 260.835 162.986C260.625 162.892 260.52 162.655 260.47 162.431C260.461 162.388 260.451 162.344 260.443 162.3C260.409 162.117 260.381 161.93 260.293 161.769C260.265 161.719 260.23 161.668 260.179 161.643C260.135 161.621 260.083 161.618 260.035 161.617C259.746 161.61 259.416 161.631 259.134 161.687C258.889 161.737 258.679 161.939 258.428 161.936C258.009 161.93 257.828 161.383 257.879 160.966C257.93 160.55 258.081 160.095 257.869 159.733C257.534 159.16 256.525 159.227 256.289 158.607C256.062 158.002 256.814 157.49 257.451 157.377C258.089 157.263 258.87 157.195 259.143 156.609C259.275 156.326 259.236 156.009 259.126 155.708C259.073 155.558 259.001 155.411 258.925 155.273C258.698 154.862 258.422 154.441 258.44 153.972C258.44 153.963 258.441 153.954 258.443 153.944C258.53 153.927 258.62 153.911 258.708 153.899C258.765 153.891 258.822 153.883 258.88 153.877C258.957 153.866 259.035 153.856 259.11 153.85C259.206 153.842 259.305 153.836 259.4 153.831C259.508 153.825 259.613 153.824 259.721 153.824C259.815 153.824 259.906 153.825 259.997 153.83C260.091 153.831 260.182 153.838 260.273 153.847C260.367 153.853 260.458 153.863 260.549 153.874H260.55C260.639 153.885 260.73 153.897 260.82 153.913C261.004 153.943 261.186 153.98 261.366 154.024C261.62 154.087 261.866 154.162 262.104 154.253C262.118 154.257 262.132 154.264 262.147 154.268C262.407 154.366 262.656 154.48 262.897 154.607C262.966 154.646 263.034 154.682 263.101 154.72C263.115 154.726 263.128 154.735 263.14 154.742C263.154 154.75 263.167 154.759 263.183 154.767C263.225 154.792 263.269 154.817 263.311 154.844C263.333 154.856 263.353 154.868 263.375 154.886C263.41 154.905 263.443 154.928 263.477 154.952C263.521 154.978 263.563 155.008 263.605 155.038C263.681 155.09 263.754 155.145 263.83 155.199C263.837 155.206 263.848 155.213 263.861 155.223C263.895 155.248 263.941 155.282 263.994 155.325C264.072 155.389 264.151 155.455 264.226 155.525C264.265 155.56 264.304 155.594 264.342 155.63C264.397 155.68 264.45 155.732 264.502 155.782C264.554 155.834 264.605 155.885 264.655 155.939C264.718 156.003 264.779 156.069 264.839 156.136C264.856 156.155 264.875 156.175 264.892 156.196C264.903 156.207 264.912 156.219 264.92 156.232C264.93 156.244 264.941 156.257 264.95 156.268C265.039 156.371 265.124 156.478 265.205 156.587C265.254 156.656 265.303 156.725 265.35 156.796C265.433 156.916 265.511 157.04 265.586 157.167V157.168C265.638 157.252 265.685 157.336 265.729 157.424C265.744 157.444 265.754 157.466 265.765 157.49C265.812 157.576 265.856 157.667 265.898 157.758C265.962 157.892 266.022 158.03 266.075 158.168C266.102 158.237 266.128 158.308 266.153 158.378C266.174 158.436 266.193 158.496 266.213 158.555C266.227 158.602 266.243 158.646 266.255 158.693C266.273 158.753 266.29 158.814 266.305 158.875C266.334 158.977 266.359 159.08 266.381 159.185L266.381 159.185Z" fill="url(#paint5_radial_17_5260)"/>
<g style="mix-blend-mode:multiply" opacity="0.285">
<path d="M266.306 158.875C266.234 158.87 266.16 158.866 266.088 158.862C265.922 158.853 265.739 158.85 265.599 158.944C265.572 158.961 265.548 158.981 265.524 159.007C265.486 159.049 265.455 159.101 265.424 159.149C265.342 159.145 265.261 159.141 265.179 159.137C264.957 159.126 264.712 159.123 264.526 159.231C264.49 159.251 264.457 159.274 264.426 159.304C264.322 159.403 264.26 159.546 264.133 159.61C264.017 159.666 263.88 159.641 263.752 159.644C263.365 159.654 263.025 159.929 262.832 160.263C262.655 160.568 262.54 160.893 262.47 161.227C262.461 161.198 262.451 161.172 262.439 161.145C262.417 161.103 262.392 161.059 262.352 161.037C262.32 161.018 262.28 161.015 262.244 161.014C262.03 161.009 261.782 161.026 261.572 161.075C261.389 161.119 261.232 161.294 261.046 161.291C260.731 161.286 260.597 160.811 260.634 160.45C260.673 160.088 260.785 159.694 260.627 159.379C260.376 158.883 259.623 158.941 259.447 158.402C259.278 157.877 259.839 157.434 260.314 157.335C260.792 157.236 261.375 157.177 261.579 156.669C261.677 156.423 261.647 156.149 261.566 155.887C261.527 155.757 261.472 155.629 261.416 155.509C261.246 155.152 261.041 154.787 261.054 154.381C261.054 154.372 261.055 154.364 261.055 154.356C261.121 154.341 261.188 154.328 261.254 154.317C261.296 154.311 261.339 154.303 261.382 154.298C261.439 154.289 261.498 154.279 261.555 154.275C261.625 154.268 261.699 154.262 261.771 154.259C261.851 154.253 261.929 154.251 262.011 154.251C262.042 154.251 262.073 154.251 262.105 154.253C262.119 154.257 262.133 154.264 262.147 154.268C262.407 154.366 262.656 154.48 262.898 154.607C262.966 154.646 263.034 154.682 263.101 154.72C263.115 154.726 263.128 154.735 263.141 154.742C263.155 154.75 263.167 154.759 263.183 154.767C263.225 154.792 263.269 154.817 263.311 154.844C263.333 154.856 263.354 154.868 263.376 154.886C263.41 154.905 263.443 154.928 263.477 154.952C263.521 154.978 263.564 155.008 263.606 155.038C263.681 155.09 263.755 155.145 263.83 155.199C263.838 155.206 263.849 155.213 263.861 155.223C263.896 155.248 263.941 155.282 263.994 155.325C264.073 155.389 264.151 155.455 264.226 155.525C264.265 155.56 264.305 155.594 264.342 155.63C264.397 155.68 264.45 155.732 264.502 155.782C264.554 155.834 264.606 155.885 264.656 155.939C264.718 156.003 264.78 156.069 264.839 156.136C264.856 156.155 264.875 156.175 264.892 156.196C264.903 156.207 264.913 156.219 264.921 156.232C264.93 156.244 264.941 156.257 264.95 156.268C265.04 156.371 265.124 156.478 265.206 156.587C265.254 156.656 265.303 156.725 265.35 156.796C265.433 156.916 265.511 157.04 265.587 157.167V157.168C265.638 157.252 265.685 157.336 265.729 157.424C265.745 157.444 265.754 157.466 265.765 157.49C265.812 157.576 265.856 157.667 265.898 157.758C265.963 157.892 266.022 158.03 266.075 158.168C266.102 158.237 266.129 158.308 266.154 158.378C266.174 158.436 266.193 158.496 266.213 158.555C266.227 158.602 266.243 158.646 266.256 158.693C266.273 158.753 266.29 158.814 266.306 158.875V158.875Z" fill="url(#paint6_radial_17_5260)"/>
</g>
<path d="M255.358 157.252C255.273 157.75 254.538 157.861 254.345 158.327C254.174 158.742 254.518 159.21 254.433 159.65C254.34 160.131 253.811 160.365 253.405 160.639C253.228 160.758 253.065 160.897 252.921 161.053C252.913 160.915 252.908 160.777 252.908 160.637C252.908 158.842 253.602 157.21 254.739 155.992C254.781 156.146 254.872 156.299 254.97 156.423C255.168 156.669 255.411 156.942 255.358 157.252Z" fill="url(#paint7_radial_17_5260)"/>
<circle cx="310.545" cy="160.638" r="3.22848" fill="white"/>
<circle cx="430.242" cy="160.638" r="75.6898" fill="white"/>
<circle cx="609.127" cy="160.638" r="62.4172" fill="white"/>
<circle cx="739.945" cy="160.638" r="27.6214" fill="white"/>
<circle cx="834.172" cy="160.638" r="25.8278" fill="white"/>
<g clip-path="url(#clip0_17_5260)">
<path d="M245.591 127.566C249.002 131.52 252.486 135.407 256.026 139.243C256.963 140.262 258.22 139.921 259.235 139.196C263.086 136.453 266.911 133.684 270.715 130.884C272.061 129.895 272.351 128.446 271.445 127.385C270.384 126.143 269.178 126.132 267.874 127.09C265.964 128.492 262.801 131.023 260.296 132.918C262.005 107.792 271.451 91.7191 280.388 81.962C280.824 81.5267 281.507 79.6727 280.4 78.5661C279.294 77.4595 277.51 78.1986 276.822 78.8865C268.257 88.2652 257.682 105.046 255.7 131.914C253.862 129.838 251.663 127.312 250.25 125.744C249.882 125.335 249.53 124.906 249.132 124.528C248.071 123.524 246.88 123.477 245.814 124.403C244.758 125.314 244.779 126.624 245.591 127.566Z" fill="white"/>
</g>
<rect x="2.86976" y="2.86976" width="902.26" height="315.536" stroke="white" stroke-width="5.73951"/>
<defs>
<radialGradient id="paint0_radial_17_5260" cx="0" cy="0" r="1" gradientUnits="userSpaceOnUse" gradientTransform="translate(259.723 160.638) scale(6.81537 6.81417)">
<stop offset="0.041" stop-color="#10BDF0"/>
<stop offset="0.908" stop-color="#00ADF1"/>
</radialGradient>
<radialGradient id="paint1_radial_17_5260" cx="0" cy="0" r="1" gradientUnits="userSpaceOnUse" gradientTransform="translate(255.389 163.589) scale(5.92176 5.92072)">
<stop offset="0.019" stop-color="#D3FC2D"/>
<stop offset="1" stop-color="#4AEA00"/>
</radialGradient>
<radialGradient id="paint2_radial_17_5260" cx="0" cy="0" r="1" gradientUnits="userSpaceOnUse" gradientTransform="translate(258.596 158.555) scale(7.87182 7.87043)">
<stop stop-color="#CBCFFF"/>
<stop offset="0.994" stop-color="#B0B1FF"/>
</radialGradient>
<radialGradient id="paint3_radial_17_5260" cx="0" cy="0" r="1" gradientUnits="userSpaceOnUse" gradientTransform="translate(258.901 158.778) scale(7.62811 7.62676)">
<stop stop-color="#CBCFFF"/>
<stop offset="0.994" stop-color="#B0B1FF"/>
</radialGradient>
<linearGradient id="paint4_linear_17_5260" x1="254.471" y1="159.311" x2="262.949" y2="159.311" gradientUnits="userSpaceOnUse">
<stop stop-color="#10BDF0"/>
<stop offset="1" stop-color="#B0B1FF" stop-opacity="0"/>
</linearGradient>
<radialGradient id="paint5_radial_17_5260" cx="0" cy="0" r="1" gradientUnits="userSpaceOnUse" gradientTransform="translate(258.954 157.75) scale(5.84941 5.84838)">
<stop offset="0.019" stop-color="#D3FC2D"/>
<stop offset="1" stop-color="#4AEA00"/>
</radialGradient>
<radialGradient id="paint6_radial_17_5260" cx="0" cy="0" r="1" gradientUnits="userSpaceOnUse" gradientTransform="translate(261.256 156.861) scale(3.93767 3.93697)">
<stop offset="0.019" stop-color="#D3FC2D"/>
<stop offset="1" stop-color="#4AEA00"/>
</radialGradient>
<radialGradient id="paint7_radial_17_5260" cx="0" cy="0" r="1" gradientUnits="userSpaceOnUse" gradientTransform="translate(253.761 157.571) scale(2.63603 2.63556)">
<stop offset="0.019" stop-color="#D3FC2D"/>
<stop offset="1" stop-color="#4AEA00"/>
</radialGradient>
<clipPath id="clip0_17_5260">
<rect width="36" height="61.8816" fill="white" transform="matrix(-1 0 0 1 281 78)"/>
</clipPath>
</defs>
</svg>
