<svg width="59" height="46" viewBox="0 0 59 46" fill="none" xmlns="http://www.w3.org/2000/svg">
<g clip-path="url(#clip0_84_8101)">
<path d="M57.0291 20.2108C56.106 19.0825 55.2748 18.0667 54.4439 17.0509C54.2437 16.8062 54.0409 16.5636 53.8451 16.315C53.5119 15.8916 53.5024 15.5738 53.8072 15.2934C54.0845 15.0384 54.4767 15.0996 54.7866 15.4696C55.3956 16.1965 55.9958 16.9315 56.5979 17.6647C57.316 18.5393 58.0258 19.421 58.7521 20.2883C59.0556 20.6507 59.0957 20.9862 58.7851 21.3632C57.4625 22.9686 56.1465 24.58 54.8232 26.185C54.7201 26.3101 54.5771 26.4967 54.4588 26.4918C54.2087 26.4817 53.9054 26.4325 53.7289 26.2736C53.4704 26.0411 53.5702 25.7141 53.7782 25.4576C54.3441 24.7592 54.9168 24.0665 55.4861 23.3708C55.9696 22.7803 56.452 22.1888 57.0284 21.4834H56.4192C51.9219 21.4834 53.1887 21.4837 48.6913 21.4825C48.4962 21.4825 48.2566 21.5384 48.1163 21.4434C47.9105 21.3043 47.6472 21.0527 47.6465 20.8482C47.6458 20.644 47.9079 20.3906 48.1129 20.2508C48.2526 20.1556 48.4927 20.2114 48.6878 20.2114C53.1687 20.2101 51.8858 20.2105 56.3667 20.2105L57.0291 20.2108Z" fill="#ACB1EE"/>
<mask id="path-2-inside-1_84_8101" fill="white">
<path d="M46.0626 22.8663C46.0626 23.1936 46.052 23.5159 46.0414 23.8376V23.8744C46.0308 24.112 46.0202 24.3551 45.999 24.5821C45.9834 24.7984 45.9622 25.0097 45.941 25.2155C45.9092 25.5166 45.8774 25.8171 45.83 26.1183C45.8194 26.1974 45.8088 26.2822 45.7982 26.3664C45.7558 26.6513 45.7034 26.9419 45.6448 27.2268C45.6024 27.4537 45.555 27.6807 45.502 27.9132C45.4546 28.1458 45.3966 28.3777 45.3386 28.6046C45.1434 29.3384 44.927 30.0616 44.6683 30.7637C44.6047 30.9382 44.5361 31.1122 44.4675 31.2917C44.3459 31.5979 44.2193 31.899 44.0821 32.2001C43.9661 32.4638 43.8445 32.7282 43.7179 32.9919C43.5808 33.2719 43.438 33.5412 43.2902 33.8105C43.2004 33.9795 43.1106 34.1428 43.0158 34.2962C42.926 34.4546 42.8312 34.6185 42.7358 34.7769C42.6092 34.9826 42.4826 35.1834 42.3504 35.3841C42.1815 35.6429 42.0019 35.9066 41.8223 36.1653C41.6901 36.3499 41.5529 36.535 41.4157 36.7146C41.2891 36.8836 41.1569 37.0469 41.0303 37.2159C40.6606 37.6697 40.2752 38.1186 39.8636 38.5569C39.689 38.7415 39.5151 38.9266 39.3355 39.1062L39.2719 39.1698C39.0923 39.3493 38.9077 39.5233 38.7225 39.6923C38.3265 40.0564 37.92 40.4155 37.5078 40.7428C37.302 40.9167 37.0906 41.0807 36.8792 41.2391C36.8636 41.2497 36.8474 41.2603 36.8368 41.2709C36.636 41.4242 36.4253 41.5664 36.2189 41.7091C35.9969 41.8675 35.7755 42.0153 35.5535 42.158C35.3265 42.3114 35.0996 42.4536 34.867 42.5857C34.0856 43.0502 33.2775 43.4729 32.4382 43.8526C32.306 43.9106 32.1688 43.9636 32.0316 44.0216C31.625 44.1955 31.2079 44.3595 30.7907 44.5072C30.5001 44.6076 30.2101 44.708 29.9139 44.7978C29.5604 44.9137 29.1956 45.0141 28.8314 45.1095C28.5571 45.1781 28.2821 45.2467 28.0077 45.3046C27.8387 45.3414 27.6647 45.3782 27.4901 45.41C27.3473 45.4368 27.1945 45.463 27.0518 45.4892C26.392 45.6002 25.721 45.6949 25.0451 45.7423C24.9185 45.7579 24.7863 45.7685 24.6597 45.7791C24.1422 45.8159 23.6196 45.8321 23.0915 45.8321C22.7797 45.8321 22.4685 45.8271 22.1567 45.8109C21.9615 45.8059 21.7608 45.7953 21.56 45.7791C21.386 45.7685 21.217 45.7529 21.0424 45.7367C20.8946 45.7261 20.7518 45.7155 20.604 45.6943C20.4562 45.6787 20.3085 45.6625 20.1607 45.6413H20.1557C20.0235 45.6257 19.8919 45.6095 19.7597 45.5883C19.6275 45.5671 19.4959 45.5459 19.3637 45.5197C19.2633 45.5091 19.158 45.4936 19.0576 45.4724C19.0526 45.4773 19.047 45.4773 19.042 45.4724C18.9416 45.4568 18.8412 45.4406 18.7464 45.4194C18.7146 45.4144 18.6884 45.4038 18.6616 45.3982C18.651 45.3982 18.6354 45.3932 18.6192 45.3932C18.6036 45.3882 18.5874 45.3882 18.5768 45.377L18.1016 45.2822C17.9432 45.2454 17.7849 45.208 17.6265 45.1712C17.4893 45.1394 17.3521 45.1076 17.2143 45.0709C17.1881 45.0659 17.1613 45.0553 17.1301 45.0447C16.9823 45.0079 16.8395 44.9655 16.6974 44.9231C16.4386 44.8489 16.1854 44.7697 15.9316 44.6856C15.8736 44.67 15.8156 44.6488 15.7576 44.6276C15.6628 44.6014 15.5674 44.5696 15.467 44.5272C15.3405 44.4848 15.2189 44.4424 15.0973 44.395C14.8229 44.2946 14.5479 44.1837 14.2735 44.0727C14.2205 44.0515 14.1731 44.0303 14.1208 44.0041C13.8832 43.9093 13.6506 43.8034 13.4186 43.6924C13.1598 43.5708 12.9117 43.4492 12.6585 43.3227C12.5425 43.2647 12.4259 43.2067 12.3155 43.1431C12.0411 43.0003 11.7718 42.8476 11.5074 42.6892C11.3858 42.6206 11.2698 42.5465 11.1482 42.4779C11.0902 42.4411 11.0266 42.3987 10.9636 42.3619C10.668 42.1824 10.3775 41.9872 10.0869 41.7865C9.97588 41.7123 9.86488 41.6331 9.7595 41.5539C9.63291 41.4697 9.50633 41.3744 9.37912 41.2796C9.13593 41.1 8.89336 40.9155 8.66077 40.7197C8.54478 40.625 8.43378 40.5296 8.32279 40.4398C8.2174 40.35 8.1114 40.2602 8.011 40.1704C7.90562 40.0807 7.79961 39.9909 7.69922 39.8961C7.59383 39.8014 7.49344 39.7116 7.39305 39.6162C6.8019 39.0619 6.24193 38.4809 5.70878 37.8636C5.61898 37.7689 5.53481 37.6685 5.45561 37.5681C5.40261 37.5045 5.35023 37.4416 5.30221 37.378C5.27602 37.3462 5.24921 37.3144 5.22801 37.2832C5.13821 37.1778 5.05403 37.0718 4.96923 36.9609V36.9559C4.95863 36.9509 4.95363 36.9403 4.95363 36.9347C4.77404 36.7021 4.59446 36.4596 4.42048 36.2221C4.24651 35.9739 4.07191 35.7202 3.90292 35.4614C3.73393 35.2083 3.57056 34.9496 3.41155 34.6852C3.25316 34.4209 3.09976 34.1572 2.95198 33.8878C2.80419 33.6185 2.66139 33.3492 2.5242 33.0692C2.39201 32.7949 2.26044 32.515 2.13385 32.235C2.02847 32.0081 1.93305 31.7755 1.83827 31.5436C1.6961 31.2057 1.5639 30.8572 1.44231 30.5087C0.740165 28.5392 0.306785 26.4437 0.175211 24.2628C0.149021 23.7984 0.132813 23.3339 0.132813 22.8638C0.132813 16.8137 2.47182 11.3123 6.30055 7.20993C6.8125 6.65567 7.35688 6.13321 7.92184 5.63133C8.32342 5.28281 8.73498 4.93991 9.15713 4.62319V4.6182C9.75888 4.15871 10.3874 3.72603 11.0316 3.34073C11.1214 3.26654 11.2218 3.20856 11.3222 3.15058C11.581 2.9972 11.8397 2.85506 12.0667 2.72288C12.2301 2.6331 12.3885 2.54332 12.5313 2.47474C12.6261 2.42175 12.7265 2.37437 12.8162 2.33197C13.7454 1.86188 14.7013 1.461 15.6834 1.12807L16.1112 0.985295C16.9879 0.705361 17.8853 0.478422 18.7832 0.309464C19.0788 0.251482 19.38 0.198487 19.6755 0.156092C19.8707 0.129907 20.0609 0.103098 20.2561 0.0819006C20.5149 0.0451164 20.7786 0.0133199 21.0324 -0.00787782C21.3542 -0.0340632 21.6872 -0.055261 22.0096 -0.071471C22.3737 -0.0926687 22.7279 -0.0976563 23.0921 -0.0976563C23.4089 -0.0976563 23.715 -0.0926689 24.0212 -0.0764589C24.338 -0.0714712 24.6441 -0.0502733 24.9503 -0.0184768C25.2671 0.00272089 25.5733 0.0345174 25.8794 0.0713016H25.8844C26.1856 0.108086 26.4918 0.150481 26.7923 0.203475C27.4153 0.303853 28.0276 0.430415 28.635 0.578175C29.5379 0.800127 30.4147 1.07445 31.2646 1.40177C32.1413 1.72908 32.9807 2.11438 33.7938 2.54208C34.0258 2.67425 34.2534 2.79583 34.4804 2.92239C34.5277 2.94359 34.5701 2.97538 34.6125 2.99658C34.6599 3.02277 34.7023 3.05456 34.7554 3.08075C34.8981 3.16554 35.0459 3.24971 35.1881 3.33948C35.2617 3.38188 35.3309 3.42365 35.4045 3.48226C35.5205 3.54585 35.6315 3.62503 35.7475 3.70421C35.8952 3.79399 36.038 3.89437 36.1802 3.99474C36.4334 4.16931 36.6816 4.35386 36.9354 4.5384C36.9615 4.5596 36.999 4.58578 37.0407 4.61758C37.1567 4.70237 37.3101 4.81833 37.4897 4.96048C37.7535 5.17682 38.0179 5.39878 38.271 5.63631C38.4032 5.75228 38.5348 5.86887 38.662 5.98982C38.8466 6.15877 39.0262 6.33334 39.2008 6.50168C39.3754 6.67562 39.5494 6.85019 39.7184 7.02975C39.9297 7.24609 40.1355 7.46804 40.3363 7.69498C40.3943 7.75858 40.4579 7.82716 40.5159 7.89574C40.5527 7.93252 40.5845 7.97492 40.6107 8.01731C40.6425 8.05971 40.6793 8.1021 40.7111 8.13889C41.0123 8.4874 41.2972 8.84652 41.5716 9.2156C41.735 9.44816 41.899 9.68008 42.0574 9.91762C42.3373 10.3241 42.6011 10.7412 42.8549 11.1689V11.1739C43.0289 11.4538 43.1873 11.7388 43.3351 12.0343C43.3881 12.1029 43.4192 12.177 43.4567 12.2562C43.615 12.5468 43.7628 12.8529 43.9056 13.159C44.122 13.6129 44.3228 14.0774 44.5024 14.5425C44.5922 14.775 44.682 15.0125 44.7662 15.2501C44.8348 15.4452 44.8984 15.646 44.9669 15.8467C45.0143 16.0051 45.0673 16.1529 45.1097 16.3112C45.2681 16.8549 45.4159 17.4091 45.5319 17.969C45.6055 18.2963 45.6691 18.6236 45.7221 18.951C45.7539 19.1043 45.7801 19.2571 45.7963 19.4154C45.8013 19.426 45.8013 19.4416 45.8013 19.4472C45.8275 19.6056 45.8487 19.7639 45.8649 19.9223C45.8755 19.9485 45.8805 19.9753 45.8805 20.0065C45.8961 20.1224 45.9067 20.2334 45.9229 20.3494C45.9385 20.4604 45.9441 20.5763 45.9491 20.6929C45.9541 20.7353 45.9597 20.7827 45.9647 20.8251C45.9697 20.8725 45.9753 20.9198 45.9803 20.9622C45.9803 20.9884 45.9852 21.0202 45.9852 21.052C45.9902 21.0888 45.9958 21.1262 45.9958 21.163C46.0382 21.7229 46.0594 22.2927 46.0594 22.8632L46.0626 22.8663Z"/>
</mask>
<path d="M46.0626 22.8663C46.0626 23.1936 46.052 23.5159 46.0414 23.8376V23.8744C46.0308 24.112 46.0202 24.3551 45.999 24.5821C45.9834 24.7984 45.9622 25.0097 45.941 25.2155C45.9092 25.5166 45.8774 25.8171 45.83 26.1183C45.8194 26.1974 45.8088 26.2822 45.7982 26.3664C45.7558 26.6513 45.7034 26.9419 45.6448 27.2268C45.6024 27.4537 45.555 27.6807 45.502 27.9132C45.4546 28.1458 45.3966 28.3777 45.3386 28.6046C45.1434 29.3384 44.927 30.0616 44.6683 30.7637C44.6047 30.9382 44.5361 31.1122 44.4675 31.2917C44.3459 31.5979 44.2193 31.899 44.0821 32.2001C43.9661 32.4638 43.8445 32.7282 43.7179 32.9919C43.5808 33.2719 43.438 33.5412 43.2902 33.8105C43.2004 33.9795 43.1106 34.1428 43.0158 34.2962C42.926 34.4546 42.8312 34.6185 42.7358 34.7769C42.6092 34.9826 42.4826 35.1834 42.3504 35.3841C42.1815 35.6429 42.0019 35.9066 41.8223 36.1653C41.6901 36.3499 41.5529 36.535 41.4157 36.7146C41.2891 36.8836 41.1569 37.0469 41.0303 37.2159C40.6606 37.6697 40.2752 38.1186 39.8636 38.5569C39.689 38.7415 39.5151 38.9266 39.3355 39.1062L39.2719 39.1698C39.0923 39.3493 38.9077 39.5233 38.7225 39.6923C38.3265 40.0564 37.92 40.4155 37.5078 40.7428C37.302 40.9167 37.0906 41.0807 36.8792 41.2391C36.8636 41.2497 36.8474 41.2603 36.8368 41.2709C36.636 41.4242 36.4253 41.5664 36.2189 41.7091C35.9969 41.8675 35.7755 42.0153 35.5535 42.158C35.3265 42.3114 35.0996 42.4536 34.867 42.5857C34.0856 43.0502 33.2775 43.4729 32.4382 43.8526C32.306 43.9106 32.1688 43.9636 32.0316 44.0216C31.625 44.1955 31.2079 44.3595 30.7907 44.5072C30.5001 44.6076 30.2101 44.708 29.9139 44.7978C29.5604 44.9137 29.1956 45.0141 28.8314 45.1095C28.5571 45.1781 28.2821 45.2467 28.0077 45.3046C27.8387 45.3414 27.6647 45.3782 27.4901 45.41C27.3473 45.4368 27.1945 45.463 27.0518 45.4892C26.392 45.6002 25.721 45.6949 25.0451 45.7423C24.9185 45.7579 24.7863 45.7685 24.6597 45.7791C24.1422 45.8159 23.6196 45.8321 23.0915 45.8321C22.7797 45.8321 22.4685 45.8271 22.1567 45.8109C21.9615 45.8059 21.7608 45.7953 21.56 45.7791C21.386 45.7685 21.217 45.7529 21.0424 45.7367C20.8946 45.7261 20.7518 45.7155 20.604 45.6943C20.4562 45.6787 20.3085 45.6625 20.1607 45.6413H20.1557C20.0235 45.6257 19.8919 45.6095 19.7597 45.5883C19.6275 45.5671 19.4959 45.5459 19.3637 45.5197C19.2633 45.5091 19.158 45.4936 19.0576 45.4724C19.0526 45.4773 19.047 45.4773 19.042 45.4724C18.9416 45.4568 18.8412 45.4406 18.7464 45.4194C18.7146 45.4144 18.6884 45.4038 18.6616 45.3982C18.651 45.3982 18.6354 45.3932 18.6192 45.3932C18.6036 45.3882 18.5874 45.3882 18.5768 45.377L18.1016 45.2822C17.9432 45.2454 17.7849 45.208 17.6265 45.1712C17.4893 45.1394 17.3521 45.1076 17.2143 45.0709C17.1881 45.0659 17.1613 45.0553 17.1301 45.0447C16.9823 45.0079 16.8395 44.9655 16.6974 44.9231C16.4386 44.8489 16.1854 44.7697 15.9316 44.6856C15.8736 44.67 15.8156 44.6488 15.7576 44.6276C15.6628 44.6014 15.5674 44.5696 15.467 44.5272C15.3405 44.4848 15.2189 44.4424 15.0973 44.395C14.8229 44.2946 14.5479 44.1837 14.2735 44.0727C14.2205 44.0515 14.1731 44.0303 14.1208 44.0041C13.8832 43.9093 13.6506 43.8034 13.4186 43.6924C13.1598 43.5708 12.9117 43.4492 12.6585 43.3227C12.5425 43.2647 12.4259 43.2067 12.3155 43.1431C12.0411 43.0003 11.7718 42.8476 11.5074 42.6892C11.3858 42.6206 11.2698 42.5465 11.1482 42.4779C11.0902 42.4411 11.0266 42.3987 10.9636 42.3619C10.668 42.1824 10.3775 41.9872 10.0869 41.7865C9.97588 41.7123 9.86488 41.6331 9.7595 41.5539C9.63291 41.4697 9.50633 41.3744 9.37912 41.2796C9.13593 41.1 8.89336 40.9155 8.66077 40.7197C8.54478 40.625 8.43378 40.5296 8.32279 40.4398C8.2174 40.35 8.1114 40.2602 8.011 40.1704C7.90562 40.0807 7.79961 39.9909 7.69922 39.8961C7.59383 39.8014 7.49344 39.7116 7.39305 39.6162C6.8019 39.0619 6.24193 38.4809 5.70878 37.8636C5.61898 37.7689 5.53481 37.6685 5.45561 37.5681C5.40261 37.5045 5.35023 37.4416 5.30221 37.378C5.27602 37.3462 5.24921 37.3144 5.22801 37.2832C5.13821 37.1778 5.05403 37.0718 4.96923 36.9609V36.9559C4.95863 36.9509 4.95363 36.9403 4.95363 36.9347C4.77404 36.7021 4.59446 36.4596 4.42048 36.2221C4.24651 35.9739 4.07191 35.7202 3.90292 35.4614C3.73393 35.2083 3.57056 34.9496 3.41155 34.6852C3.25316 34.4209 3.09976 34.1572 2.95198 33.8878C2.80419 33.6185 2.66139 33.3492 2.5242 33.0692C2.39201 32.7949 2.26044 32.515 2.13385 32.235C2.02847 32.0081 1.93305 31.7755 1.83827 31.5436C1.6961 31.2057 1.5639 30.8572 1.44231 30.5087C0.740165 28.5392 0.306785 26.4437 0.175211 24.2628C0.149021 23.7984 0.132813 23.3339 0.132813 22.8638C0.132813 16.8137 2.47182 11.3123 6.30055 7.20993C6.8125 6.65567 7.35688 6.13321 7.92184 5.63133C8.32342 5.28281 8.73498 4.93991 9.15713 4.62319V4.6182C9.75888 4.15871 10.3874 3.72603 11.0316 3.34073C11.1214 3.26654 11.2218 3.20856 11.3222 3.15058C11.581 2.9972 11.8397 2.85506 12.0667 2.72288C12.2301 2.6331 12.3885 2.54332 12.5313 2.47474C12.6261 2.42175 12.7265 2.37437 12.8162 2.33197C13.7454 1.86188 14.7013 1.461 15.6834 1.12807L16.1112 0.985295C16.9879 0.705361 17.8853 0.478422 18.7832 0.309464C19.0788 0.251482 19.38 0.198487 19.6755 0.156092C19.8707 0.129907 20.0609 0.103098 20.2561 0.0819006C20.5149 0.0451164 20.7786 0.0133199 21.0324 -0.00787782C21.3542 -0.0340632 21.6872 -0.055261 22.0096 -0.071471C22.3737 -0.0926687 22.7279 -0.0976563 23.0921 -0.0976563C23.4089 -0.0976563 23.715 -0.0926689 24.0212 -0.0764589C24.338 -0.0714712 24.6441 -0.0502733 24.9503 -0.0184768C25.2671 0.00272089 25.5733 0.0345174 25.8794 0.0713016H25.8844C26.1856 0.108086 26.4918 0.150481 26.7923 0.203475C27.4153 0.303853 28.0276 0.430415 28.635 0.578175C29.5379 0.800127 30.4147 1.07445 31.2646 1.40177C32.1413 1.72908 32.9807 2.11438 33.7938 2.54208C34.0258 2.67425 34.2534 2.79583 34.4804 2.92239C34.5277 2.94359 34.5701 2.97538 34.6125 2.99658C34.6599 3.02277 34.7023 3.05456 34.7554 3.08075C34.8981 3.16554 35.0459 3.24971 35.1881 3.33948C35.2617 3.38188 35.3309 3.42365 35.4045 3.48226C35.5205 3.54585 35.6315 3.62503 35.7475 3.70421C35.8952 3.79399 36.038 3.89437 36.1802 3.99474C36.4334 4.16931 36.6816 4.35386 36.9354 4.5384C36.9615 4.5596 36.999 4.58578 37.0407 4.61758C37.1567 4.70237 37.3101 4.81833 37.4897 4.96048C37.7535 5.17682 38.0179 5.39878 38.271 5.63631C38.4032 5.75228 38.5348 5.86887 38.662 5.98982C38.8466 6.15877 39.0262 6.33334 39.2008 6.50168C39.3754 6.67562 39.5494 6.85019 39.7184 7.02975C39.9297 7.24609 40.1355 7.46804 40.3363 7.69498C40.3943 7.75858 40.4579 7.82716 40.5159 7.89574C40.5527 7.93252 40.5845 7.97492 40.6107 8.01731C40.6425 8.05971 40.6793 8.1021 40.7111 8.13889C41.0123 8.4874 41.2972 8.84652 41.5716 9.2156C41.735 9.44816 41.899 9.68008 42.0574 9.91762C42.3373 10.3241 42.6011 10.7412 42.8549 11.1689V11.1739C43.0289 11.4538 43.1873 11.7388 43.3351 12.0343C43.3881 12.1029 43.4192 12.177 43.4567 12.2562C43.615 12.5468 43.7628 12.8529 43.9056 13.159C44.122 13.6129 44.3228 14.0774 44.5024 14.5425C44.5922 14.775 44.682 15.0125 44.7662 15.2501C44.8348 15.4452 44.8984 15.646 44.9669 15.8467C45.0143 16.0051 45.0673 16.1529 45.1097 16.3112C45.2681 16.8549 45.4159 17.4091 45.5319 17.969C45.6055 18.2963 45.6691 18.6236 45.7221 18.951C45.7539 19.1043 45.7801 19.2571 45.7963 19.4154C45.8013 19.426 45.8013 19.4416 45.8013 19.4472C45.8275 19.6056 45.8487 19.7639 45.8649 19.9223C45.8755 19.9485 45.8805 19.9753 45.8805 20.0065C45.8961 20.1224 45.9067 20.2334 45.9229 20.3494C45.9385 20.4604 45.9441 20.5763 45.9491 20.6929C45.9541 20.7353 45.9597 20.7827 45.9647 20.8251C45.9697 20.8725 45.9753 20.9198 45.9803 20.9622C45.9803 20.9884 45.9852 21.0202 45.9852 21.052C45.9902 21.0888 45.9958 21.1262 45.9958 21.163C46.0382 21.7229 46.0594 22.2927 46.0594 22.8632L46.0626 22.8663Z" stroke="#ACB1EE" stroke-width="5.4166" mask="url(#path-2-inside-1_84_8101)"/>
<path d="M30.7878 44.5106C28.3796 45.3679 25.793 45.8324 23.0917 45.8324C13.0946 45.8324 4.5835 39.4381 1.43945 30.5139C1.72505 30.5638 2.01126 30.6567 2.26132 30.7926C3.17609 31.2714 3.81899 32.1287 4.48372 32.9217C5.14845 33.7148 5.91981 34.5078 6.92064 34.7578C8.2925 35.1076 9.98611 34.4361 11.015 35.4006C11.5581 35.9081 11.7726 36.7866 12.4729 37.0441C13.2449 37.3371 14.1023 36.5509 14.1522 35.7223C14.2096 34.9006 13.7095 34.1362 13.1302 33.5433C12.5583 32.9429 11.8868 32.4286 11.4365 31.7359C10.9938 31.0358 10.836 30.0569 11.3436 29.4067C11.8007 28.8206 12.6799 28.6853 13.3734 28.9497C14.0668 29.214 14.5955 29.7926 14.9741 30.436C15.6244 31.5221 15.9032 32.7864 16.4744 33.908C17.0462 35.0371 18.0607 36.0945 19.3253 36.1157C20.4328 36.1444 21.7623 35.4299 22.5268 36.2373C22.9483 36.68 22.9271 37.3664 23.0767 37.9593C23.5201 39.7025 25.3921 40.5959 27.0427 41.3029C28.6147 41.9675 30.3663 42.9033 30.7878 44.5106Z" fill="#ACB1EE"/>
<path d="M45.5335 17.9742C45.1531 17.9847 44.7572 17.9742 44.335 17.953C43.6591 17.9212 42.9831 17.8844 42.3072 17.8526C42.0328 17.837 41.7578 17.8264 41.4834 17.8102C40.7339 17.7734 39.9102 17.7628 39.2816 18.1269C39.16 18.1955 39.049 18.2747 38.9436 18.375C38.5951 18.7073 38.3843 19.188 37.9565 19.4044C37.5655 19.5945 37.1066 19.5097 36.6732 19.5203C35.3687 19.5521 34.2232 20.4811 33.5734 21.6058C32.9767 22.6351 32.5913 23.7281 32.3537 24.8528C31.7732 27.5611 32.0631 30.4646 32.3381 33.1947C32.3487 33.2845 32.3593 33.3743 32.3593 33.464C32.4067 33.9497 32.4123 34.446 32.2059 34.8843C31.9634 35.4018 31.3136 35.7715 30.8066 35.5071C30.6483 35.4279 30.5267 35.2958 30.4263 35.148C30.3315 35.0108 30.2573 34.8469 30.1837 34.6941C29.7821 33.8281 29.6979 32.8936 29.3282 32.065C28.8056 30.8929 27.8285 31.2202 26.8463 30.7819C26.1386 30.4652 25.785 29.6678 25.616 28.9128C25.5842 28.765 25.5524 28.6173 25.5263 28.4695C25.4103 27.8516 25.3149 27.2238 25.0193 26.6795C24.9245 26.5106 24.8079 26.3416 24.6339 26.2568C24.4861 26.1826 24.3122 26.172 24.1482 26.1671C23.1766 26.1459 22.0623 26.2144 21.112 26.4046C20.2883 26.5735 19.5805 27.2544 18.7362 27.2438C17.3213 27.2226 16.7139 25.3802 16.8829 23.9756C17.0569 22.5716 17.5639 21.0403 16.8511 19.8208C15.7212 17.8887 12.3203 18.1157 11.5283 16.0246C10.7626 13.9865 13.2974 12.2601 15.4412 11.8804C17.5907 11.4951 20.2253 11.2682 21.1444 9.2937C21.5878 8.33794 21.4562 7.27182 21.0864 6.25807C20.9068 5.7512 20.6643 5.25492 20.4105 4.79044C19.6447 3.40698 18.7156 1.98674 18.7736 0.408136C18.7736 0.37634 18.7786 0.344544 18.7842 0.313371C19.0798 0.255389 19.381 0.202394 19.6765 0.159999C19.8717 0.133814 20.0619 0.107005 20.2571 0.0858068C20.5159 0.0490226 20.7796 0.0172261 21.0334 -0.00397158C21.3552 -0.0301569 21.6882 -0.0513542 22.0106 -0.0675642C22.3747 -0.0887618 22.7289 -0.09375 23.0931 -0.09375C23.4098 -0.09375 23.716 -0.0887621 24.0222 -0.0725521C24.339 -0.0675644 24.6451 -0.0463665 24.9513 -0.0145699C25.2681 0.00662773 25.5743 0.0384243 25.8804 0.0752085H25.8854C26.1866 0.111993 26.4928 0.154388 26.7934 0.207382C27.4163 0.307759 28.0286 0.434322 28.636 0.582082C29.4915 0.793435 30.3203 1.04656 31.1228 1.35268C31.1702 1.36827 31.2176 1.38946 31.2656 1.40567C32.1423 1.73299 32.9817 2.11829 33.7948 2.54598C34.0268 2.67816 34.2544 2.79973 34.4814 2.9263C34.5287 2.94749 34.5712 2.97929 34.6136 3.00049C34.6609 3.02667 34.7033 3.05847 34.7563 3.08465C34.8991 3.16945 35.0469 3.25361 35.1891 3.34339C35.2627 3.38579 35.3319 3.42756 35.4055 3.48616C35.5215 3.54976 35.6325 3.62894 35.7484 3.70812C35.8962 3.79789 36.039 3.89827 36.1812 3.99865C36.4344 4.17322 36.6826 4.35776 36.9364 4.54231C36.9625 4.5635 37 4.58969 37.0417 4.62149C37.1577 4.70628 37.3111 4.82224 37.4907 4.96439C37.7545 5.18073 38.0189 5.40268 38.272 5.64022C38.4042 5.75619 38.5358 5.87277 38.663 5.99372C38.8476 6.16268 39.0272 6.33725 39.2018 6.50559C39.3764 6.67953 39.5504 6.8541 39.7193 7.03366C39.9307 7.25 40.1365 7.47195 40.3373 7.69889C40.3953 7.76248 40.4589 7.83106 40.5169 7.89964C40.5537 7.93643 40.5855 7.97882 40.6117 8.02122C40.6435 8.06361 40.6803 8.10601 40.7121 8.14279C41.0133 8.49131 41.2982 8.85042 41.5726 9.21951C41.736 9.45206 41.9 9.68399 42.0584 9.92153C42.3384 10.328 42.6021 10.7451 42.8559 11.1728V11.1778C43.0299 11.4577 43.1883 11.7427 43.3361 12.0382C43.3891 12.1068 43.4202 12.181 43.4577 12.2601C43.6161 12.5507 43.7638 12.8568 43.9066 13.1629C44.123 13.6168 44.3238 14.0813 44.5034 14.5464C44.5932 14.7789 44.683 15.0164 44.7672 15.254C44.8358 15.4491 44.8994 15.6499 44.9679 15.8506C45.0153 16.009 45.0683 16.1568 45.1108 16.3151C45.1687 16.5159 45.2267 16.7216 45.2797 16.9274C45.3745 17.2709 45.4593 17.6188 45.5329 17.9729L45.5335 17.9742Z" fill="#ACB1EE"/>
<path d="M8.3864 11.458C8.10143 13.137 5.62461 13.5117 4.97547 15.0797C4.39991 16.4788 5.55664 18.0574 5.27104 19.5406C4.95926 21.1616 3.17459 21.9478 1.8071 22.8717C1.21034 23.2732 0.661606 23.7427 0.175221 24.2658C0.149031 23.8013 0.132812 23.3368 0.132812 22.8667C0.132812 16.8167 2.47183 11.3153 6.30056 7.21289C6.44336 7.73036 6.74952 8.24784 7.08189 8.66493C7.74724 9.49413 8.56537 10.4125 8.3864 11.458Z" fill="#ACB1EE"/>
</g>
<defs>
<clipPath id="clip0_84_8101">
<rect width="58.8687" height="45.8336" fill="white" transform="translate(0.130859)"/>
</clipPath>
</defs>
</svg>
