<svg width="908" height="322" viewBox="0 0 908 322" fill="none" xmlns="http://www.w3.org/2000/svg">
<path d="M112.638 160.638C112.638 222.846 62.2082 273.276 0 273.276C0 273.276 0 195.09 0 132.882C0 70.6739 0 48 0 48C62.2082 48 112.638 98.4297 112.638 160.638Z" fill="white"/>
<circle cx="155.926" cy="160.638" r="2.51" fill="white"/>
<circle cx="205.672" cy="160.638" r="6.45695" fill="white"/>
<circle cx="259.723" cy="160.638" r="6.81567" fill="white"/>
<circle cx="310.545" cy="160.638" r="3.22848" fill="white"/>
<path d="M497.518 194.482C516.314 157.221 501.346 111.778 464.086 92.9818C426.825 74.1854 381.382 89.1536 362.586 126.414C343.789 163.675 358.757 209.118 396.018 227.914C433.278 246.71 478.722 231.742 497.518 194.482Z" fill="url(#paint0_radial_17_5262)"/>
<path style="mix-blend-mode:screen" opacity="0.7" d="M447.778 164.383C464.639 138.829 463.328 108.23 444.851 96.0384C426.373 83.8469 397.726 94.6795 380.865 120.234C364.005 145.788 365.315 176.387 383.793 188.578C402.27 200.769 430.917 189.937 447.778 164.383Z" fill="url(#paint1_radial_17_5262)"/>
<path style="mix-blend-mode:multiply" opacity="0.332" d="M502.049 137.479C514.734 177.219 492.789 219.744 453.027 232.436C426.706 240.838 399.166 234.054 379.915 216.971C395.228 222.648 412.471 223.463 429.228 218.114C468.99 205.421 490.913 162.904 478.22 123.142C473.937 109.723 466.259 98.3523 456.442 89.6371C477.41 97.4827 494.713 114.495 502.049 137.479Z" fill="url(#paint2_radial_17_5262)"/>
<path style="mix-blend-mode:multiply" opacity="0.332" d="M502.049 137.48C514.735 177.22 492.79 219.744 453.027 232.437C431.075 239.443 408.268 235.888 390.125 224.598C406.263 231.542 424.902 232.947 442.981 227.178C482.743 214.485 504.688 171.961 492.003 132.221C486.319 114.413 474.639 100.17 459.897 91.0281C479.304 99.3963 495.121 115.774 502.049 137.48Z" fill="url(#paint3_radial_17_5262)"/>
<mask id="mask0_17_5262" style="mask-type:luminance" maskUnits="userSpaceOnUse" x="354" y="84" width="152" height="153">
<path d="M497.518 194.482C516.314 157.221 501.346 111.778 464.086 92.9818C426.825 74.1854 381.382 89.1536 362.586 126.414C343.789 163.675 358.757 209.118 396.018 227.914C433.278 246.71 478.722 231.742 497.518 194.482Z" fill="white"/>
</mask>
<g mask="url(#mask0_17_5262)">
<g style="mix-blend-mode:screen" opacity="0.347">
<path d="M341.507 123.143C353.891 127.474 366.774 130.494 379.7 132.688C392.725 134.899 405.9 136.318 419.1 136.851C432.23 137.382 445.393 137.092 458.486 135.984C471.578 134.877 484.646 132.897 497.511 130.12C510.376 127.343 523.062 123.841 535.378 119.279C536.94 118.7 538.4 118.009 539.848 117.19C540.809 116.647 540.133 115.287 539.128 115.482C535.911 116.109 532.856 117.252 529.736 118.241C526.617 119.23 523.503 120.216 520.367 121.141C514.152 122.973 507.878 124.607 501.561 126.044C488.826 128.939 475.919 130.999 462.927 132.307C449.935 133.615 436.933 134.114 423.915 133.808C410.918 133.504 397.932 132.445 385.071 130.542C372.129 128.627 359.296 125.949 346.639 122.648C345.086 122.242 343.524 121.872 341.968 121.473C340.878 121.194 340.465 122.778 341.507 123.143Z" fill="url(#paint4_radial_17_5262)"/>
</g>
<g style="mix-blend-mode:screen" opacity="0.347">
<path d="M337.862 179.304C350.246 183.636 363.129 186.655 376.054 188.849C389.079 191.061 402.254 192.48 415.455 193.013C428.584 193.544 441.748 193.253 454.84 192.146C467.933 191.039 481 189.059 493.866 186.282C506.731 183.505 519.416 180.003 531.732 175.441C533.294 174.862 534.754 174.171 536.202 173.352C537.164 172.808 536.487 171.448 535.482 171.643C532.265 172.271 529.21 173.414 526.091 174.403C522.971 175.392 519.857 176.378 516.722 177.302C510.506 179.135 504.233 180.769 497.915 182.205C485.18 185.101 472.275 187.16 459.281 188.468C446.288 189.776 433.288 190.275 420.269 189.97C407.25 189.664 394.286 188.607 381.425 186.704C368.483 184.789 355.651 182.111 342.994 178.81C341.44 178.404 339.878 178.033 338.322 177.635C337.233 177.355 336.819 178.938 337.862 179.303V179.304Z" fill="url(#paint5_radial_17_5262)"/>
</g>
<g style="mix-blend-mode:multiply" opacity="0.74">
<path d="M325.739 166.548C337.921 171.73 351.015 174.893 364.025 177.214C377.23 179.568 390.628 181.192 404.033 181.761C417.221 182.32 430.443 182.05 443.598 180.955C457 179.839 470.328 177.727 483.456 174.812C496.306 171.958 509.179 168.498 521.384 163.526C522.295 163.155 523.255 162.749 524.09 162.219C524.871 161.722 525.509 161.047 526.168 160.405C527.719 158.89 526.469 156.484 524.489 156.354C522.655 156.233 520.966 156.408 519.201 156.944C517.667 157.409 516.134 157.874 514.594 158.322C511.455 159.233 508.339 160.214 505.2 161.125C498.919 162.949 492.581 164.57 486.197 165.989C479.811 167.407 473.378 168.625 466.914 169.64C465.327 169.889 463.739 170.125 462.147 170.351C461.735 170.409 461.322 170.467 460.91 170.524C460.07 170.641 461.453 170.453 460.613 170.565C459.73 170.682 458.846 170.796 457.963 170.905C454.719 171.307 451.47 171.667 448.219 172C435.264 173.331 422.227 173.856 409.207 173.577C402.674 173.437 396.135 173.127 389.62 172.635C386.363 172.39 383.109 172.093 379.862 171.747C378.209 171.569 376.558 171.38 374.907 171.177C374.141 171.082 373.376 170.985 372.61 170.884C372.433 170.862 372.257 170.839 372.08 170.815C372.034 170.809 371.448 170.729 371.885 170.788C372.322 170.847 371.735 170.768 371.689 170.76C371.394 170.719 371.1 170.679 370.804 170.638C357.834 168.82 344.963 166.279 332.185 163.424C330.614 163.073 329.018 162.828 327.436 162.532C326.362 162.332 325.273 162.738 324.843 163.805C324.478 164.713 324.723 166.116 325.742 166.55L325.739 166.548Z" fill="url(#paint6_radial_17_5262)"/>
</g>
<g style="mix-blend-mode:screen" opacity="0.347">
<path d="M337.524 142.484C349.707 147.641 362.801 150.827 375.813 153.109C389.02 155.423 402.402 156.978 415.802 157.547C428.989 158.106 442.212 157.834 455.366 156.739C468.754 155.624 482.07 153.538 495.187 150.647C508.036 147.814 520.925 144.38 533.136 139.44C534.043 139.074 535.001 138.669 535.831 138.144C536.609 137.652 537.248 136.98 537.907 136.347C539.441 134.871 538.2 132.475 536.255 132.359C534.427 132.252 532.739 132.426 530.981 132.968C529.448 133.439 527.917 133.911 526.381 134.364C523.246 135.289 520.13 136.273 516.992 137.189C510.715 139.021 504.378 140.652 497.997 142.08C491.616 143.508 485.183 144.736 478.721 145.761C477.134 146.012 475.546 146.251 473.956 146.478C473.189 146.587 472.423 146.694 471.657 146.798C472.469 146.688 471.409 146.831 471.14 146.865C470.669 146.927 470.198 146.986 469.726 147.045C466.482 147.452 463.233 147.814 459.982 148.148C447.026 149.477 433.99 150.004 420.969 149.723C414.435 149.583 407.897 149.261 401.382 148.75C398.125 148.495 394.871 148.189 391.625 147.832C389.971 147.65 388.321 147.455 386.67 147.247C386.317 147.203 385.963 147.157 385.61 147.111C385.433 147.088 385.257 147.066 385.08 147.042C384.98 147.029 384.241 146.93 384.696 146.992C385.015 147.035 384.122 146.914 383.958 146.89C383.487 146.825 383.014 146.759 382.543 146.691C369.581 144.835 356.71 142.3 343.936 139.431C342.365 139.078 340.771 138.83 339.188 138.532C338.132 138.333 337.059 138.736 336.637 139.784C336.278 140.677 336.517 142.059 337.521 142.484H337.524Z" fill="url(#paint7_radial_17_5262)"/>
</g>
<g style="mix-blend-mode:multiply" opacity="0.74">
<path d="M335.864 194.87C348.194 199.343 361.097 202.36 374.011 204.583C387.067 206.83 400.282 208.305 413.521 208.844C426.65 209.378 439.812 209.092 452.906 207.986C466.064 206.876 479.151 204.869 492.053 202.066C504.878 199.278 517.609 195.776 529.896 191.14C531.493 190.538 532.949 189.815 534.394 188.911C535.6 188.157 534.763 186.549 533.48 186.742C530.231 187.232 527.18 188.386 524.049 189.358C520.928 190.328 517.811 191.315 514.674 192.234C508.457 194.058 502.181 195.685 495.86 197.111C483.16 199.98 470.298 202.001 457.346 203.309C444.389 204.617 431.353 205.122 418.334 204.819C405.378 204.52 392.426 203.508 379.601 201.641C366.653 199.755 353.813 197.098 341.133 193.875C339.577 193.479 338.009 193.129 336.449 192.75C335.058 192.412 334.547 194.391 335.864 194.868V194.87Z" fill="url(#paint8_radial_17_5262)"/>
</g>
<g style="mix-blend-mode:multiply" opacity="0.74">
<path d="M334.261 100.862C346.59 105.336 359.494 108.352 372.408 110.575C385.463 112.822 398.678 114.297 411.917 114.836C425.047 115.371 438.209 115.084 451.303 113.978C464.46 112.868 477.547 110.862 490.449 108.058C503.275 105.271 516.005 101.769 528.292 97.1328C529.889 96.5304 531.345 95.8085 532.791 94.9035C533.997 94.149 533.16 92.5412 531.877 92.7346C528.627 93.2248 525.577 94.3779 522.446 95.3508C519.324 96.3223 516.208 97.307 513.07 98.2268C506.852 100.05 500.577 101.676 494.257 103.103C481.557 105.972 468.695 107.993 455.742 109.301C442.786 110.609 429.749 111.114 416.73 110.812C403.775 110.512 390.823 109.5 377.997 107.633C365.049 105.746 352.209 103.09 339.53 99.8656C337.974 99.4699 336.406 99.12 334.845 98.7406C333.455 98.4025 332.944 100.382 334.261 100.859V100.862Z" fill="url(#paint9_radial_17_5262)"/>
</g>
</g>
<path style="mix-blend-mode:multiply" opacity="0.74" d="M419.175 193.621C414.502 191.498 409.455 190.51 404.425 191.951C400.775 192.998 397.576 196.057 394.294 197.939C393.198 198.568 392.095 199.199 390.907 199.627C389.537 200.118 388.085 200.328 386.644 200.535C385.046 200.765 383.445 200.994 381.846 201.223C381.374 201.291 380.878 201.368 380.497 201.655C379.723 202.24 379.767 203.492 380.346 204.27C380.925 205.048 381.87 205.453 382.785 205.77C387.389 207.372 392.647 207.499 397.034 209.688C400.074 211.206 402.365 213.977 405.451 215.399C408.869 216.973 412.877 216.7 416.501 215.69C420.126 214.68 423.52 212.984 427.069 211.738C429.305 210.954 431.612 210.329 433.946 209.925C436.102 209.551 438.176 210.078 440.321 209.381C440.595 209.293 440.881 209.179 441.042 208.94C441.334 208.504 441.03 207.878 440.572 207.62C440.115 207.363 439.566 207.359 439.044 207.304C436.281 207.016 434.376 204.623 432.47 202.881C428.482 199.234 424.12 195.866 419.175 193.621Z" fill="url(#paint10_radial_17_5262)"/>
<path d="M415.015 198.568C412.592 197.468 409.976 196.956 407.369 197.703C405.476 198.245 403.818 199.832 402.117 200.806C401.549 201.132 400.977 201.459 400.362 201.68C399.652 201.936 398.899 202.043 398.153 202.151L395.665 202.508C395.42 202.544 395.163 202.584 394.966 202.733C394.565 203.035 394.588 203.685 394.887 204.088C395.187 204.491 395.677 204.701 396.151 204.866C398.538 205.696 401.264 205.762 403.537 206.898C405.113 207.685 406.301 209.121 407.9 209.858C409.672 210.674 411.749 210.533 413.629 210.008C415.508 209.484 417.266 208.606 419.107 207.959C420.266 207.552 421.462 207.23 422.673 207.019C423.791 206.825 424.865 207.098 425.979 206.737C426.12 206.691 426.269 206.632 426.352 206.508C426.504 206.282 426.346 205.957 426.108 205.824C425.871 205.691 425.586 205.688 425.316 205.66C423.884 205.511 422.896 204.271 421.908 203.368C419.841 201.478 417.579 199.73 415.016 198.566L415.015 198.568Z" fill="url(#paint11_radial_17_5262)"/>
<circle cx="609.128" cy="160.638" r="62.4172" fill="white"/>
<circle cx="739.945" cy="160.638" r="27.6214" fill="white"/>
<circle cx="834.172" cy="160.638" r="25.8278" fill="white"/>
<g clip-path="url(#clip0_17_5262)">
<path d="M415.592 58.5662C419.003 62.5206 422.486 66.4077 426.026 70.243C426.963 71.2627 428.221 70.9211 429.235 70.1965C433.086 67.4532 436.911 64.6841 440.716 61.8839C442.061 60.8954 442.351 59.4461 441.445 58.385C440.384 57.1428 439.178 57.1325 437.874 58.09C435.964 59.4927 432.802 62.0237 430.297 63.9181C432.006 38.7927 441.452 22.7194 450.389 12.9623C450.824 12.527 451.507 10.673 450.401 9.56638C449.294 8.45977 447.511 9.19889 446.823 9.88677C438.257 19.2655 427.683 36.0458 425.7 62.914C423.863 60.8384 421.663 58.3126 420.25 56.7443C419.883 56.3354 419.531 55.9058 419.132 55.5279C418.071 54.5238 416.881 54.4772 415.814 55.4037C414.758 56.3147 414.779 57.6242 415.592 58.5662Z" fill="white"/>
</g>
<rect x="2.86976" y="2.86976" width="902.26" height="315.536" stroke="white" stroke-width="5.73951"/>
<defs>
<radialGradient id="paint0_radial_17_5262" cx="0" cy="0" r="1" gradientUnits="userSpaceOnUse" gradientTransform="translate(406.224 117.224) rotate(-17.705) scale(106.704)">
<stop stop-color="#F49E40"/>
<stop offset="0.999" stop-color="#DA7F38"/>
</radialGradient>
<radialGradient id="paint1_radial_17_5262" cx="0" cy="0" r="1" gradientUnits="userSpaceOnUse" gradientTransform="translate(400.847 110.308) scale(73.4576)">
<stop stop-color="#FDC079"/>
<stop offset="0.955" stop-color="#FFB06B" stop-opacity="0"/>
</radialGradient>
<radialGradient id="paint2_radial_17_5262" cx="0" cy="0" r="1" gradientUnits="userSpaceOnUse" gradientTransform="translate(437.573 166.509) rotate(-17.705) scale(68.8971 68.8971)">
<stop stop-color="#FDC079"/>
<stop offset="0.955" stop-color="#FFB06B"/>
</radialGradient>
<radialGradient id="paint3_radial_17_5262" cx="0" cy="0" r="1" gradientUnits="userSpaceOnUse" gradientTransform="translate(441.462 166.515) rotate(-17.705) scale(66.4374 66.4374)">
<stop stop-color="#FDC079"/>
<stop offset="0.955" stop-color="#FFB06B"/>
</radialGradient>
<radialGradient id="paint4_radial_17_5262" cx="0" cy="0" r="1" gradientUnits="userSpaceOnUse" gradientTransform="translate(440.608 125.989) scale(70.6304 70.6304)">
<stop stop-color="#FDC079"/>
<stop offset="0.955" stop-color="#FFB06B"/>
</radialGradient>
<radialGradient id="paint5_radial_17_5262" cx="0" cy="0" r="1" gradientUnits="userSpaceOnUse" gradientTransform="translate(436.963 182.151) scale(70.6304 70.6304)">
<stop stop-color="#FDC079"/>
<stop offset="0.955" stop-color="#FFB06B"/>
</radialGradient>
<radialGradient id="paint6_radial_17_5262" cx="0" cy="0" r="1" gradientUnits="userSpaceOnUse" gradientTransform="translate(425.772 168.403) scale(71.3346 71.3346)">
<stop stop-color="#FDC079"/>
<stop offset="0.955" stop-color="#FFB06B"/>
</radialGradient>
<radialGradient id="paint7_radial_17_5262" cx="0" cy="0" r="1" gradientUnits="userSpaceOnUse" gradientTransform="translate(437.537 144.367) scale(71.3154 71.3154)">
<stop stop-color="#FDC079"/>
<stop offset="0.955" stop-color="#FFB06B"/>
</radialGradient>
<radialGradient id="paint8_radial_17_5262" cx="0" cy="0" r="1" gradientUnits="userSpaceOnUse" gradientTransform="translate(435.039 197.504) scale(70.75 70.7499)">
<stop stop-color="#FDC079"/>
<stop offset="0.955" stop-color="#FFB06B"/>
</radialGradient>
<radialGradient id="paint9_radial_17_5262" cx="0" cy="0" r="1" gradientUnits="userSpaceOnUse" gradientTransform="translate(433.437 103.496) scale(70.75 70.7499)">
<stop stop-color="#FDC079"/>
<stop offset="0.955" stop-color="#FFB06B"/>
</radialGradient>
<radialGradient id="paint10_radial_17_5262" cx="0" cy="0" r="1" gradientUnits="userSpaceOnUse" gradientTransform="translate(410.537 203.894) scale(23.4199 23.4199)">
<stop stop-color="#FDC079"/>
<stop offset="0.955" stop-color="#FFB06B"/>
</radialGradient>
<radialGradient id="paint11_radial_17_5262" cx="0" cy="0" r="1" gradientUnits="userSpaceOnUse" gradientTransform="translate(410.537 203.893) scale(12.1403 12.1403)">
<stop stop-color="#F49E40"/>
<stop offset="0.999" stop-color="#DA7F38"/>
</radialGradient>
<clipPath id="clip0_17_5262">
<rect width="36" height="61.8816" fill="white" transform="matrix(-1 0 0 1 451 17)"/>
</clipPath>
</defs>
</svg>
