<svg width="270" height="146" viewBox="0 0 270 146" fill="none" xmlns="http://www.w3.org/2000/svg">
<path d="M77.2735 73.0016C77.2735 83.4756 68.7819 91.9672 58.3079 91.9672C53.0197 91.9672 48.2404 89.8051 44.8013 86.3145C44.2793 85.7861 43.7865 85.2251 43.3285 84.6354C40.8277 81.4257 39.3389 77.3879 39.3389 73.0016C39.3389 71.8739 39.4385 70.7712 39.6288 69.6985C39.7578 68.9381 39.9348 68.1964 40.1572 67.475C41.7491 62.2349 45.5485 57.9553 50.4764 55.7221C50.9824 55.4935 51.4982 55.2837 52.0265 55.1004C53.9921 54.4075 56.1061 54.0339 58.3072 54.0339C64.1335 54.0339 69.3479 56.6603 72.8252 60.7984C73.6338 61.7589 74.3496 62.803 74.9588 63.9147C76.435 66.6156 77.2728 69.7124 77.2728 73.003L77.2735 73.0016Z" fill="url(#paint0_radial_16_4523)"/>
<path style="mix-blend-mode:screen" opacity="0.918" d="M64.9999 60.0131C68.3859 64.3088 66.2893 71.6072 60.3181 76.3134C57.3028 78.6895 53.8791 79.9504 50.7907 80.064C50.3223 80.0821 49.8601 80.0737 49.4085 80.0368C46.9453 79.8437 44.7908 78.8568 43.3731 77.0578C43.0086 76.595 42.7089 76.098 42.4705 75.5724C42.2983 75.2023 42.1596 74.819 42.053 74.4231C41.2667 71.5584 42.0495 68.0956 44.1363 64.9661C44.351 64.6448 44.5768 64.3269 44.8187 64.0147C45.7157 62.8472 46.7996 61.7438 48.0549 60.7548C51.3768 58.1368 55.1985 56.871 58.5184 57.0055C59.29 57.0362 60.0351 57.1429 60.7418 57.3248C62.4565 57.7695 63.9348 58.663 64.9985 60.0124L64.9999 60.0131Z" fill="url(#paint1_linear_16_4523)"/>
<g style="mix-blend-mode:multiply" opacity="0.34">
<path d="M62.6134 77.5621C62.6747 78.5351 61.6466 79.2286 60.6924 79.4475C58.7617 79.8922 56.7606 79.3123 54.7853 79.1603C52.8065 79.0091 50.4924 79.4984 49.5905 81.2646C49.2615 81.9093 49.1653 82.6502 48.9039 83.3235C48.2564 85.0026 46.5961 86.053 44.8013 86.3144C41.4236 82.8921 39.3389 78.1901 39.3389 73.0015C39.3389 71.0778 39.6253 69.2217 40.1572 67.4743C41.556 67.1746 43.0895 67.484 44.0855 68.5281C45.2586 69.7591 45.8029 71.7637 47.4339 72.2439C48.9165 72.6788 50.4506 71.5476 51.991 71.6828C54.4821 71.9052 55.6907 75.1504 58.1107 75.7722C58.9645 75.991 59.87 75.8495 60.7433 75.9813C61.6167 76.1102 62.5541 76.6804 62.6127 77.5607L62.6134 77.5621Z" fill="url(#paint2_linear_16_4523)"/>
</g>
<g style="mix-blend-mode:multiply" opacity="0.34">
<path d="M60.7405 77.4167C60.7984 78.1967 59.8379 78.7508 58.9457 78.9251C57.1412 79.2826 55.269 78.8184 53.4219 78.6965C51.5721 78.5773 49.4099 78.9669 48.5652 80.3818C48.2592 80.8976 48.1686 81.4908 47.9239 82.0289C47.4569 83.0667 45.1331 84.1171 43.3285 84.6357C40.8277 81.4259 39.3389 77.3882 39.3389 73.0019C39.3389 71.8741 39.4385 70.7715 39.6288 69.6988C39.6644 69.5796 39.7027 69.4604 39.7445 69.344C41.0528 69.1056 42.4873 69.3538 43.4185 70.1881C44.5142 71.1743 45.023 72.7789 46.5473 73.1629C47.9365 73.5107 49.3702 72.6053 50.8109 72.7119C53.1375 72.8925 54.2688 75.4902 56.5313 75.9865C57.3308 76.1635 58.1783 76.0478 58.9931 76.1538C59.8086 76.2569 60.6848 76.7142 60.7398 77.4167H60.7405Z" fill="url(#paint3_linear_16_4523)"/>
</g>
<g style="mix-blend-mode:multiply" opacity="0.34">
<path d="M74.9571 63.9133C73.8872 63.5459 73.1588 62.5729 72.2694 61.8668C71.3703 61.158 69.933 60.7746 69.1628 61.6222C68.509 62.3408 68.7474 63.4595 68.6024 64.4165C68.5028 65.0968 67.8099 66.6274 67.0398 66.8107C65.8214 67.1007 66.1796 66.2566 66.0409 65.5087C65.806 64.2457 65.9831 62.3959 64.2232 62.2411C63.798 62.2021 63.3693 62.338 62.9434 62.2927C62.0763 62.2028 61.4546 61.4068 61.1068 60.6039C60.7618 59.8044 60.5687 58.9185 60.0369 58.2285C58.9217 56.7752 56.8014 56.6978 54.9711 56.7334C53.4084 56.7627 51.6261 56.6755 50.4753 55.7213C52.8633 54.6354 55.5154 54.0325 58.3062 54.0325C65.4896 54.0325 71.7376 58.0256 74.9571 63.9133Z" fill="url(#paint4_linear_16_4523)"/>
</g>
<g style="mix-blend-mode:multiply" opacity="0.34">
<path d="M72.8288 60.7962C72.5165 60.5418 72.2098 60.2707 71.878 60.0358C71.0528 59.4524 69.7319 59.1367 69.0259 59.833C68.4265 60.4226 68.646 61.3441 68.5101 62.131C68.4202 62.6886 67.7817 63.9453 67.0763 64.0966C65.9583 64.3349 66.2866 63.6421 66.1577 63.0267C65.9416 61.9888 66.1026 60.4679 64.4883 60.3425C64.0987 60.3104 63.7056 60.4226 63.3118 60.3843C62.5158 60.3104 61.9457 59.6559 61.6264 58.9952C61.3107 58.3407 61.1337 57.6123 60.6437 57.0456C59.6191 55.8503 57.6723 55.7889 55.9904 55.8175C54.6306 55.8398 53.0867 55.7757 52.03 55.0989C53.9956 54.4061 56.1096 54.0325 58.3108 54.0325C64.1371 54.0325 69.3514 56.6588 72.8288 60.7969V60.7962Z" fill="url(#paint5_linear_16_4523)"/>
</g>
<path style="mix-blend-mode:multiply" opacity="0.918" d="M77.2716 73.0009C77.2716 83.4748 68.7799 91.9665 58.306 91.9665C53.0178 91.9665 48.2384 89.8043 44.7994 86.3137C43.8584 85.3595 43.0171 84.3056 42.2922 83.1681C45.4378 85.4885 49.3244 86.8616 53.5364 86.8616C64.0103 86.8616 72.502 78.3699 72.502 67.896C72.502 64.6054 71.6642 61.5086 70.1879 58.8077C69.9851 58.4369 69.769 58.073 69.5432 57.7183C71.7666 59.3583 73.6228 61.473 74.9575 63.9126C76.4338 66.6135 77.2716 69.7103 77.2716 73.0009Z" fill="url(#paint6_radial_16_4523)"/>
<path style="mix-blend-mode:multiply" opacity="0.918" d="M77.2745 73.0019C77.2745 83.4759 68.7828 91.9675 58.3089 91.9675C53.0207 91.9675 48.2413 89.8054 44.8023 86.3148C44.1833 85.6861 43.6069 85.0163 43.0779 84.3067C46.4619 87.4586 51.0022 89.3858 55.9941 89.3858C66.4681 89.3858 74.9597 80.8942 74.9597 70.4202C74.9597 67.1296 74.1219 64.0328 72.6457 61.3319C72.2233 60.5583 71.75 59.8173 71.2245 59.1147C72.7098 60.4976 73.977 62.1154 74.9597 63.9136C76.436 66.6146 77.2745 69.7114 77.2745 73.0019Z" fill="url(#paint7_radial_16_4523)"/>
<g clip-path="url(#clip0_16_4523)">
<path d="M124.209 73.0016C124.209 83.4756 115.717 91.9672 105.243 91.9672C99.9553 91.9672 95.1759 89.8051 91.7369 86.3145C91.2148 85.7861 90.722 85.2251 90.2641 84.6354C87.7632 81.4257 86.2744 77.3879 86.2744 73.0016C86.2744 71.8739 86.3741 70.7712 86.5644 69.6985C86.6933 68.9381 86.8704 68.1964 87.0927 67.475C88.6847 62.2349 92.4841 57.9553 97.4119 55.7221C97.9179 55.4935 98.4337 55.2837 98.9621 55.1004C100.928 54.4075 103.042 54.0339 105.243 54.0339C111.069 54.0339 116.283 56.6603 119.761 60.7984C120.569 61.7589 121.285 62.803 121.894 63.9147C123.371 66.6156 124.208 69.7124 124.208 73.003L124.209 73.0016Z" fill="url(#paint8_radial_16_4523)"/>
<path style="mix-blend-mode:screen" opacity="0.918" d="M111.935 60.0131C115.321 64.3088 113.225 71.6072 107.254 76.3134C104.238 78.6895 100.815 79.9504 97.7262 80.064C97.2578 80.0821 96.7957 80.0737 96.344 80.0368C93.8808 79.8437 91.7264 78.8568 90.3086 77.0578C89.9441 76.595 89.6444 76.098 89.406 75.5724C89.2339 75.2023 89.0952 74.819 88.9885 74.4231C88.2023 71.5584 88.985 68.0956 91.0719 64.9661C91.2865 64.6448 91.5124 64.3269 91.7542 64.0147C92.6513 62.8472 93.7351 61.7438 94.9904 60.7548C98.3124 58.1368 102.134 56.871 105.454 57.0055C106.226 57.0362 106.971 57.1429 107.677 57.3248C109.392 57.7695 110.87 58.663 111.934 60.0124L111.935 60.0131Z" fill="url(#paint9_linear_16_4523)"/>
<g style="mix-blend-mode:multiply" opacity="0.34">
<path d="M109.549 77.5621C109.61 78.5351 108.582 79.2286 107.628 79.4475C105.697 79.8922 103.696 79.3123 101.721 79.1603C99.742 79.0091 97.4279 79.4984 96.526 81.2646C96.197 81.9093 96.1008 82.6502 95.8395 83.3235C95.1919 85.0026 93.5317 86.053 91.7369 86.3144C88.3592 82.8921 86.2744 78.1901 86.2744 73.0015C86.2744 71.0778 86.5609 69.2217 87.0927 67.4743C88.4916 67.1746 90.025 67.484 91.021 68.5281C92.1941 69.7591 92.7385 71.7637 94.3695 72.2439C95.852 72.6788 97.3861 71.5476 98.9265 71.6828C101.418 71.9052 102.626 75.1504 105.046 75.7722C105.9 75.991 106.805 75.8495 107.679 75.9813C108.552 76.1102 109.49 76.6804 109.548 77.5607L109.549 77.5621Z" fill="url(#paint10_linear_16_4523)"/>
</g>
<g style="mix-blend-mode:multiply" opacity="0.34">
<path d="M107.676 77.4167C107.734 78.1967 106.773 78.7508 105.881 78.9251C104.077 79.2826 102.205 78.8184 100.357 78.6965C98.5076 78.5773 96.3455 78.9669 95.5007 80.3818C95.1947 80.8976 95.1041 81.4908 94.8595 82.0289C94.3925 83.0667 92.0686 84.1171 90.2641 84.6357C87.7632 81.4259 86.2744 77.3882 86.2744 73.0019C86.2744 71.8741 86.3741 70.7715 86.5644 69.6988C86.5999 69.5796 86.6383 69.4604 86.6801 69.344C87.9884 69.1056 89.4228 69.3538 90.354 70.1881C91.4497 71.1743 91.9585 72.7789 93.4829 73.1629C94.872 73.5107 96.3058 72.6053 97.7465 72.7119C100.073 72.8925 101.204 75.4902 103.467 75.9865C104.266 76.1635 105.114 76.0478 105.929 76.1538C106.744 76.2569 107.62 76.7142 107.675 77.4167H107.676Z" fill="url(#paint11_linear_16_4523)"/>
</g>
<g style="mix-blend-mode:multiply" opacity="0.34">
<path d="M121.893 63.9133C120.823 63.5459 120.094 62.5729 119.205 61.8668C118.306 61.158 116.869 60.7746 116.098 61.6222C115.445 62.3408 115.683 63.4595 115.538 64.4165C115.438 65.0968 114.745 66.6274 113.975 66.8107C112.757 67.1007 113.115 66.2566 112.976 65.5087C112.742 64.2457 112.919 62.3959 111.159 62.2411C110.734 62.2021 110.305 62.338 109.879 62.2927C109.012 62.2028 108.39 61.4068 108.042 60.6039C107.697 59.8044 107.504 58.9185 106.972 58.2285C105.857 56.7752 103.737 56.6978 101.907 56.7334C100.344 56.7627 98.5616 56.6755 97.4109 55.7213C99.7988 54.6354 102.451 54.0325 105.242 54.0325C112.425 54.0325 118.673 58.0256 121.893 63.9133Z" fill="url(#paint12_linear_16_4523)"/>
</g>
<g style="mix-blend-mode:multiply" opacity="0.34">
<path d="M119.764 60.7962C119.452 60.5418 119.145 60.2707 118.814 60.0358C117.988 59.4524 116.667 59.1367 115.961 59.833C115.362 60.4226 115.582 61.3441 115.446 62.131C115.356 62.6886 114.717 63.9453 114.012 64.0966C112.894 64.3349 113.222 63.6421 113.093 63.0267C112.877 61.9888 113.038 60.4679 111.424 60.3425C111.034 60.3104 110.641 60.4226 110.247 60.3843C109.451 60.3104 108.881 59.6559 108.562 58.9952C108.246 58.3407 108.069 57.6123 107.579 57.0456C106.555 55.8503 104.608 55.7889 102.926 55.8175C101.566 55.8398 100.022 55.7757 98.9656 55.0989C100.931 54.4061 103.045 54.0325 105.246 54.0325C111.073 54.0325 116.287 56.6588 119.764 60.7969V60.7962Z" fill="url(#paint13_linear_16_4523)"/>
</g>
<path style="mix-blend-mode:multiply" opacity="0.918" d="M124.207 73.0009C124.207 83.4748 115.715 91.9665 105.242 91.9665C99.9533 91.9665 95.174 89.8043 91.7349 86.3137C90.794 85.3595 89.9527 84.3056 89.2278 83.1681C92.3734 85.4885 96.2599 86.8616 100.472 86.8616C110.946 86.8616 119.438 78.3699 119.438 67.896C119.438 64.6054 118.6 61.5086 117.123 58.8077C116.921 58.4369 116.705 58.073 116.479 57.7183C118.702 59.3583 120.558 61.473 121.893 63.9126C123.369 66.6135 124.207 69.7103 124.207 73.0009Z" fill="url(#paint14_radial_16_4523)"/>
<path style="mix-blend-mode:multiply" opacity="0.918" d="M124.21 73.0019C124.21 83.4759 115.718 91.9675 105.244 91.9675C99.9562 91.9675 95.1769 89.8054 91.7378 86.3148C91.1189 85.6861 90.5425 85.0163 90.0134 84.3067C93.3974 87.4586 97.9377 89.3858 102.93 89.3858C113.404 89.3858 121.895 80.8942 121.895 70.4202C121.895 67.1296 121.057 64.0328 119.581 61.3319C119.159 60.5583 118.686 59.8173 118.16 59.1147C119.645 60.4976 120.912 62.1154 121.895 63.9136C123.372 66.6146 124.21 69.7114 124.21 73.0019Z" fill="url(#paint15_radial_16_4523)"/>
</g>
<g clip-path="url(#clip1_16_4523)">
<path d="M137.911 70.6608C137.002 70.5703 136.278 70.9677 135.567 71.4545C133.451 72.9045 131.236 72.8561 129.183 71.3523C128.741 71.0282 128.485 70.6647 128.829 70.1479C129.124 69.7045 129.587 69.6833 130.171 70.0586C131.937 71.1953 133.074 71.1782 134.836 69.9885C136.9 68.5954 139.261 68.6802 141.222 70.2087C141.648 70.5408 141.824 70.9294 141.477 71.3796C141.136 71.8211 140.695 71.8208 140.242 71.5018C139.547 71.012 138.831 70.5751 137.911 70.661V70.6608Z" fill="white"/>
<path d="M132.252 76.998C131.169 77.0371 130.054 76.5329 129.05 75.756C128.647 75.4442 128.52 75.0476 128.849 74.6252C129.171 74.2124 129.605 74.162 130.028 74.47C130.817 75.045 131.669 75.5333 132.677 75.331C133.395 75.1869 134.134 74.9162 134.742 74.5264C136.888 73.1509 139.026 73.1466 141.087 74.6161C141.658 75.0234 141.799 75.4472 141.502 75.8616C141.195 76.2882 140.731 76.3185 140.154 75.9493C138.377 74.8137 137.235 74.8186 135.491 76.02C134.587 76.6426 133.603 76.988 132.252 76.998Z" fill="white"/>
</g>
<path d="M190.577 112.998C168.355 112.758 150.459 94.7542 150.663 72.9557C150.872 50.6536 168.778 32.8401 190.917 33.0011C213.509 33.1653 230.844 51.4457 230.66 73.1576C230.471 95.4421 212.397 113.233 190.577 112.998ZM156.681 57.975C156.356 58.9157 156.034 59.8572 155.706 60.797C153.491 67.1517 152.908 73.6827 154.379 80.2228C157.582 94.4664 166.14 104.213 180.153 108.397C194.127 112.57 206.519 109.018 217.056 98.9866C218.167 97.9286 219.459 97.0441 218.43 94.9772C217.516 93.1444 217.242 90.9932 216.681 88.9841C216.648 88.8661 216.587 88.7456 216.508 88.6519C215.584 87.5539 215.703 86.3954 216.403 85.2791C216.971 84.3723 216.836 83.6184 216.331 82.7233C215.662 81.5352 214.765 80.2705 214.695 78.9988C214.598 77.2403 214.579 75.8709 212.378 75.8078C212.194 75.8026 212.019 75.5328 211.833 75.5233C211.015 75.4809 210.074 75.2232 209.397 75.5286C207.34 76.456 204.763 76.0858 203.284 74.4148C202.951 74.0388 202.622 73.6586 202.278 73.293C201.096 72.0378 201.107 70.6427 201.639 69.0975C201.81 68.6025 201.547 67.9709 201.554 67.4028C201.559 66.9397 201.504 66.3119 201.767 66.0482C202.44 65.3739 203.336 64.9246 204.025 64.2626C204.471 63.8335 204.929 63.2142 204.997 62.6348C205.127 61.523 205.728 60.8957 206.68 60.7141C208.803 60.3093 210.946 59.974 213.095 59.7774C213.543 59.7364 214.209 60.3218 214.506 60.7892C214.938 61.4723 218.188 63.0449 218.966 62.7475C219.078 62.7049 219.205 62.6333 219.267 62.5376C220.069 61.2995 220.961 61.8465 221.987 62.2596C222.952 62.6483 224.035 62.7782 225.08 62.913C225.352 62.9482 225.832 62.6451 225.948 62.3801C226.312 61.5461 225.097 59.9019 224.249 59.5637C223.527 59.2759 222.937 58.6284 222.332 58.0907C222.051 57.8406 221.875 57.4727 221.65 57.1583C221.342 57.4581 221.026 57.7507 220.727 58.0601C220.515 58.2799 220.326 58.5224 220.127 58.755C219.895 58.5247 219.601 58.3296 219.447 58.0553C219.269 57.7364 219.321 57.2359 219.085 57.0106C218.282 56.2429 217.487 55.3667 216.512 54.9094C215.738 54.5465 215.325 55.2637 215.807 55.9802C216.16 56.5063 216.871 56.7876 217.249 57.3049C217.514 57.6686 217.629 58.2753 217.535 58.7148C217.486 58.9474 216.847 59.0541 216.474 59.2178C217.444 58.4958 217.241 58.0224 216.46 57.4637C215.816 57.0026 215.228 56.4631 214.591 55.9918C214.381 55.8366 214.04 55.6402 213.85 55.71C212.475 56.2163 210.944 56.498 210.251 58.0729C209.645 59.4509 208.459 59.5375 207.178 59.3758C206.128 59.2432 205.818 58.5704 205.805 57.6133C205.791 56.606 206.34 56.1555 207.252 56.0834C207.747 56.0442 208.277 56.2303 208.744 56.1186C209.091 56.0355 209.659 55.4644 209.625 55.4041C208.712 53.8338 209.706 53.4257 210.939 53.0896C211.193 53.0203 211.46 52.7767 211.599 52.5414C212.223 51.4834 213.13 51.1197 214.334 51.1263C214.725 51.1283 215.119 50.6358 215.512 50.3693C215.145 50.0579 214.776 49.7498 214.412 49.4346C213.809 48.9113 213.177 48.4115 212.654 47.8166C212.598 47.7528 213.11 46.9961 213.485 46.7791C215.407 45.6683 215.474 45.4154 213.688 44.0314C204.745 37.1004 194.688 34.6377 183.558 36.6661C178.715 37.5486 174.279 39.4733 170.188 42.1949C169.9 42.3868 169.704 42.7188 169.466 42.9855C169.793 43.1238 170.116 43.2738 170.448 43.3983C171.344 43.7336 172.236 44.0832 173.146 44.3778C173.732 44.5674 174.34 44.7185 174.949 44.7859C175.17 44.8102 175.423 44.5402 175.662 44.4046C175.51 44.1864 175.406 43.8893 175.198 43.764C174.373 43.266 173.516 42.8215 172.619 42.3282C173.597 41.3983 174.736 40.6213 175.79 41.5141C176.985 42.5264 178.031 43.0897 179.577 42.33C178.984 42.764 178.362 42.9156 177.796 43.1829C177.513 43.3162 177.099 43.7359 177.15 43.8936C177.253 44.2095 177.65 44.6696 177.9 44.654C178.715 44.603 179.523 44.3835 180.325 44.1934C181.117 44.0061 181.836 43.7577 181.33 42.666C181.267 42.5317 181.524 42.0751 181.684 42.0457C182.119 41.9654 182.581 42.0339 183.033 42.0437C182.983 42.2999 182.849 42.5741 182.9 42.8082C182.999 43.2655 183.203 43.6999 183.363 44.144C183.736 43.8855 184.148 43.6683 184.47 43.3576C184.839 43.0018 185.046 42.4071 185.465 42.1881C186.886 41.4458 189.925 41.9942 190.966 43.2019C191.404 43.7092 191.626 44.4325 191.805 45.0958C191.829 45.1837 191.01 45.4936 190.585 45.7095C190.475 45.7655 190.369 45.8421 190.284 45.9305C189.341 46.9037 188.421 46.4027 187.317 45.9147C187.715 45.6483 188.002 45.493 188.244 45.2856C188.543 45.0297 188.804 44.7306 189.082 44.4501C188.694 44.1708 188.301 43.6527 187.918 43.6608C187.071 43.6783 186.114 43.7617 185.409 44.1733C183.609 45.2241 183.16 45.4868 181.444 45.6919C181.117 45.7311 180.781 45.8336 180.486 45.981C179.776 46.3364 179.032 46.6636 178.408 47.1407C177.929 47.5069 177.2 48.2289 177.308 48.5376C177.533 49.18 178.235 49.6591 178.752 50.1943C179.204 50.6619 179.681 51.1062 180.129 51.5776C180.318 51.7767 180.462 52.1996 180.628 52.2006C180.902 52.2021 181.218 51.9884 181.442 51.7842C181.865 51.3992 182.162 50.7526 182.642 50.579C183.704 50.1961 183.932 49.5097 184.056 48.4908C184.122 47.9554 184.825 47.0825 185.219 47.0938C185.921 47.1139 186.973 47.5237 187.221 48.0692C187.646 49.0044 188.033 49.0223 188.84 48.7513C189.114 48.6591 189.646 48.8517 189.838 49.0918C190.258 49.6164 190.615 50.2262 190.84 50.8573C190.982 51.2561 190.891 52.1431 190.819 52.1529C189.594 52.3144 188.356 52.3807 187.12 52.4482C186.651 52.4739 186.179 52.4497 185.708 52.4482V53.7785C185.44 53.8877 185.015 53.9709 184.703 54.2042C183.539 55.0749 182.378 55.9574 181.28 56.9092C180.525 57.5636 179.868 58.3333 179.18 59.0636C178.425 59.8655 177.623 60.6337 176.957 61.5049C176.385 62.2531 175.971 63.123 175.497 63.9445C175.381 64.1459 175.302 64.3689 175.207 64.5821C174.977 64.4399 174.71 64.3352 174.527 64.1476C174.194 63.8063 173.957 63.1491 173.601 63.0898C171.501 62.7395 169.404 62.731 167.628 64.1815C166.33 65.2413 165.696 67.6379 166.547 68.5704C167.825 69.9707 169.042 69.0139 170.214 68.2615C170.25 68.2389 170.282 68.2055 170.32 68.1949C170.584 68.1233 170.85 68.0565 171.115 67.9882C171.112 68.2637 171.061 68.5495 171.118 68.812C171.21 69.2381 171.294 69.9566 171.519 70.0136C172.549 70.2758 172.706 70.9604 172.884 71.8552C173.019 72.5315 173.415 73.462 173.946 73.688C174.971 74.1242 176.153 74.4203 177.097 73.1656C178.023 71.9358 179.079 71.9906 180.361 72.7774C181.036 73.1913 181.987 73.4773 182.741 73.3585C183.789 73.1935 184.315 73.5114 184.962 74.2631C185.473 74.8555 186.38 75.0881 187.048 75.568C187.67 76.015 188.657 76.5384 188.706 77.0964C188.892 79.2132 190.426 79.6808 191.937 79.7378C193.711 79.8049 195.228 80.1037 196.268 81.5972C196.552 82.0043 196.811 82.8682 196.604 83.1053C195.259 84.6448 195.119 86.5074 194.903 88.3807C194.745 89.7516 193.946 90.4425 192.544 90.4638C191.091 90.4859 190.577 91.1635 190.776 92.6417C190.847 93.1668 191.051 93.8793 190.802 94.2088C189.278 96.2193 188.357 98.8947 185.354 99.3879C185.092 99.4309 184.804 99.9585 184.726 100.305C184.626 100.754 184.709 101.248 184.745 101.72C184.769 102.024 184.766 102.528 184.92 102.591C185.918 103.004 185.985 103.675 185.753 104.607C185.675 104.919 186.018 105.345 186.195 105.706C186.347 106.018 186.538 106.31 186.712 106.612C186.32 106.692 185.914 106.877 185.54 106.826C185.107 106.767 184.629 106.587 184.298 106.309C182.481 104.786 181.087 103.057 181.379 100.437C181.447 99.8347 181.034 99.1885 180.892 98.5516C180.718 97.7764 180.565 96.9933 180.465 96.206C180.414 95.8007 180.553 95.3723 180.509 94.9647C180.341 93.4096 179.914 91.8466 179.998 90.3091C180.106 88.3332 179.189 87.2767 177.585 86.5019C177.188 86.3101 176.77 86.0476 176.511 85.7048C175.86 84.8434 175.338 83.8831 174.683 83.025C173.259 81.1605 173.461 79.1462 175.089 77.4784C175.513 77.0442 175.608 76.1308 175.56 75.4585C175.535 75.0946 174.907 74.5097 174.517 74.4821C173 74.3741 172.123 73.3507 170.996 72.5574C169.532 71.5275 168.168 70.1148 166.021 70.2992C163.828 70.4875 162.755 69.3471 162.54 67.1525C162.49 66.6439 162.148 66.1607 161.926 65.6725C161.466 64.6579 161.018 63.6366 160.517 62.6421C160.371 62.3515 160.064 62.1421 159.83 61.8954C159.678 62.2377 159.328 62.6408 159.411 62.9115C159.687 63.8166 160.138 64.6672 160.48 65.555C160.586 65.8317 160.559 66.1602 160.594 66.4651C160.269 66.3646 159.746 66.3533 159.654 66.1482C159.217 65.1813 158.866 64.1707 158.548 63.1559C158.365 62.5702 158.508 61.6297 158.149 61.3972C156.824 60.5398 156.728 59.3484 156.681 57.9755L156.681 57.975ZM178.657 56.5098C178.977 56.6249 179.387 56.8464 179.81 56.8765C179.931 56.885 180.273 56.1362 180.207 56.0761C179.208 55.1778 178.235 54.2032 177.085 53.5427C176.563 53.2428 175.662 53.556 174.948 53.6788C174.814 53.7017 174.712 54.1339 174.666 54.39C174.588 54.8275 174.535 55.275 174.531 55.7188C174.527 56.097 174.606 56.4762 174.648 56.8549C174.992 56.7 175.411 56.6214 175.663 56.3732C176.107 55.9365 176.449 55.3961 176.834 54.8991L177.255 55.0992C177.122 55.6475 176.979 56.1934 176.86 56.7444C176.805 56.9981 176.681 57.3881 176.795 57.4915C176.967 57.6495 177.416 57.7472 177.575 57.6322C177.974 57.3434 178.276 56.921 178.657 56.5093L178.657 56.5098Z" fill="white"/>
<defs>
<radialGradient id="paint0_radial_16_4523" cx="0" cy="0" r="1" gradientUnits="userSpaceOnUse" gradientTransform="translate(54.3238 70.8235) scale(22.4478 22.4478)">
<stop stop-color="#E5BF2C"/>
<stop offset="0.939" stop-color="#FF5E3B"/>
</radialGradient>
<linearGradient id="paint1_linear_16_4523" x1="47.8055" y1="63.6103" x2="62.1651" y2="74.6973" gradientUnits="userSpaceOnUse">
<stop stop-color="#E5BF2C"/>
<stop offset="1" stop-color="#FF5E3B" stop-opacity="0"/>
</linearGradient>
<linearGradient id="paint2_linear_16_4523" x1="31.5031" y1="76.8407" x2="54.7797" y2="76.8407" gradientUnits="userSpaceOnUse">
<stop stop-color="#E5BF2C"/>
<stop offset="0.939" stop-color="#FF5E3B"/>
</linearGradient>
<linearGradient id="paint3_linear_16_4523" x1="32.1332" y1="76.947" x2="53.5376" y2="76.947" gradientUnits="userSpaceOnUse">
<stop stop-color="#E5BF2C"/>
<stop offset="0.939" stop-color="#FF5E3B"/>
</linearGradient>
<linearGradient id="paint4_linear_16_4523" x1="62.5817" y1="54.0722" x2="62.689" y2="58.6641" gradientUnits="userSpaceOnUse">
<stop stop-color="#E5BF2C"/>
<stop offset="0.939" stop-color="#FF5E3B"/>
</linearGradient>
<linearGradient id="paint5_linear_16_4523" x1="62.3381" y1="54.0471" x2="62.4231" y2="57.6799" gradientUnits="userSpaceOnUse">
<stop stop-color="#E5BF2C"/>
<stop offset="0.939" stop-color="#FF5E3B"/>
</linearGradient>
<radialGradient id="paint6_radial_16_4523" cx="0" cy="0" r="1" gradientUnits="userSpaceOnUse" gradientTransform="translate(56.1097 72.8775) scale(20.5018 20.5018)">
<stop stop-color="#E5BF2C"/>
<stop offset="1" stop-color="#FF5E3B" stop-opacity="0"/>
</radialGradient>
<radialGradient id="paint7_radial_16_4523" cx="0" cy="0" r="1" gradientUnits="userSpaceOnUse" gradientTransform="translate(56.5859 73.6564) scale(19.8745 19.8745)">
<stop stop-color="#E5BF2C"/>
<stop offset="1" stop-color="#FF5E3B" stop-opacity="0"/>
</radialGradient>
<radialGradient id="paint8_radial_16_4523" cx="0" cy="0" r="1" gradientUnits="userSpaceOnUse" gradientTransform="translate(101.259 70.8235) scale(22.4478 22.4478)">
<stop stop-color="#E5BF2C"/>
<stop offset="0.939" stop-color="#FF5E3B"/>
</radialGradient>
<linearGradient id="paint9_linear_16_4523" x1="94.7411" y1="63.6103" x2="109.101" y2="74.6973" gradientUnits="userSpaceOnUse">
<stop stop-color="#E5BF2C"/>
<stop offset="1" stop-color="#FF5E3B" stop-opacity="0"/>
</linearGradient>
<linearGradient id="paint10_linear_16_4523" x1="78.4386" y1="76.8407" x2="101.715" y2="76.8407" gradientUnits="userSpaceOnUse">
<stop stop-color="#E5BF2C"/>
<stop offset="0.939" stop-color="#FF5E3B"/>
</linearGradient>
<linearGradient id="paint11_linear_16_4523" x1="79.0687" y1="76.947" x2="100.473" y2="76.947" gradientUnits="userSpaceOnUse">
<stop stop-color="#E5BF2C"/>
<stop offset="0.939" stop-color="#FF5E3B"/>
</linearGradient>
<linearGradient id="paint12_linear_16_4523" x1="109.517" y1="54.0722" x2="109.625" y2="58.6641" gradientUnits="userSpaceOnUse">
<stop stop-color="#E5BF2C"/>
<stop offset="0.939" stop-color="#FF5E3B"/>
</linearGradient>
<linearGradient id="paint13_linear_16_4523" x1="109.274" y1="54.0471" x2="109.359" y2="57.6799" gradientUnits="userSpaceOnUse">
<stop stop-color="#E5BF2C"/>
<stop offset="0.939" stop-color="#FF5E3B"/>
</linearGradient>
<radialGradient id="paint14_radial_16_4523" cx="0" cy="0" r="1" gradientUnits="userSpaceOnUse" gradientTransform="translate(103.045 72.8775) scale(20.5018 20.5018)">
<stop stop-color="#E5BF2C"/>
<stop offset="1" stop-color="#FF5E3B" stop-opacity="0"/>
</radialGradient>
<radialGradient id="paint15_radial_16_4523" cx="0" cy="0" r="1" gradientUnits="userSpaceOnUse" gradientTransform="translate(103.521 73.6564) scale(19.8745 19.8745)">
<stop stop-color="#E5BF2C"/>
<stop offset="1" stop-color="#FF5E3B" stop-opacity="0"/>
</radialGradient>
<clipPath id="clip0_16_4523">
<rect width="33.3872" height="37.9351" fill="white" transform="translate(86.2742 54.0325)"/>
</clipPath>
<clipPath id="clip1_16_4523">
<rect width="13" height="8" fill="white" transform="translate(128.661 69)"/>
</clipPath>
</defs>
</svg>
