<svg width="908" height="322" viewBox="0 0 908 322" fill="none" xmlns="http://www.w3.org/2000/svg">
<path d="M112.638 160.638C112.638 222.846 62.2082 273.276 0 273.276C0 273.276 0 195.09 0 132.882C0 70.6739 0 48 0 48C62.2082 48 112.638 98.4297 112.638 160.638Z" fill="white"/>
<circle cx="155.926" cy="160.638" r="2.51" fill="white"/>
<circle cx="205.671" cy="160.638" r="6.45695" fill="white"/>
<circle cx="259.721" cy="160.638" r="6.815" fill="white"/>
<path d="M313.774 160.638C313.774 162.422 312.328 163.868 310.545 163.868C309.644 163.868 308.83 163.5 308.245 162.905C308.156 162.815 308.072 162.72 307.994 162.619C307.568 162.073 307.314 161.385 307.314 160.638C307.314 160.446 307.331 160.258 307.364 160.076C307.386 159.946 307.416 159.82 307.454 159.697C307.725 158.805 308.372 158.076 309.211 157.696C309.297 157.657 309.385 157.621 309.475 157.59C309.81 157.472 310.17 157.408 310.545 157.408C311.537 157.408 312.425 157.855 313.017 158.56C313.155 158.724 313.277 158.902 313.38 159.091C313.632 159.551 313.774 160.078 313.774 160.638L313.774 160.638Z" fill="url(#paint0_radial_17_5261)"/>
<path style="mix-blend-mode:screen" opacity="0.918" d="M311.684 158.426C312.26 159.158 311.903 160.401 310.887 161.202C310.373 161.607 309.79 161.822 309.264 161.841C309.184 161.844 309.106 161.843 309.029 161.836C308.609 161.803 308.242 161.635 308.001 161.329C307.939 161.25 307.888 161.166 307.847 161.076C307.818 161.013 307.794 160.948 307.776 160.88C307.642 160.393 307.776 159.803 308.131 159.27C308.167 159.215 308.206 159.161 308.247 159.108C308.4 158.909 308.584 158.721 308.798 158.553C309.364 158.107 310.015 157.891 310.58 157.914C310.711 157.92 310.838 157.938 310.959 157.969C311.251 158.044 311.502 158.197 311.684 158.426L311.684 158.426Z" fill="url(#paint1_linear_17_5261)"/>
<g style="mix-blend-mode:multiply" opacity="0.34">
<path d="M311.278 161.415C311.288 161.58 311.113 161.699 310.951 161.736C310.622 161.812 310.281 161.713 309.945 161.687C309.608 161.661 309.214 161.744 309.06 162.045C309.004 162.155 308.988 162.281 308.943 162.396C308.833 162.682 308.55 162.861 308.245 162.905C307.669 162.322 307.314 161.522 307.314 160.638C307.314 160.311 307.363 159.994 307.454 159.697C307.692 159.646 307.953 159.699 308.123 159.876C308.323 160.086 308.415 160.427 308.693 160.509C308.945 160.583 309.207 160.391 309.469 160.414C309.893 160.451 310.099 161.004 310.511 161.11C310.657 161.147 310.811 161.123 310.959 161.146C311.108 161.168 311.268 161.265 311.278 161.415L311.278 161.415Z" fill="url(#paint2_linear_17_5261)"/>
</g>
<g style="mix-blend-mode:multiply" opacity="0.34">
<path d="M310.959 161.39C310.969 161.523 310.805 161.617 310.653 161.647C310.346 161.708 310.027 161.629 309.713 161.608C309.398 161.588 309.029 161.654 308.886 161.895C308.834 161.983 308.818 162.084 308.776 162.175C308.697 162.352 308.301 162.531 307.994 162.619C307.568 162.073 307.314 161.385 307.314 160.638C307.314 160.446 307.331 160.258 307.364 160.076C307.37 160.055 307.376 160.035 307.384 160.015C307.606 159.975 307.851 160.017 308.009 160.159C308.196 160.327 308.282 160.6 308.542 160.666C308.779 160.725 309.023 160.571 309.268 160.589C309.664 160.62 309.857 161.062 310.242 161.147C310.378 161.177 310.523 161.157 310.661 161.175C310.8 161.193 310.949 161.27 310.959 161.39H310.959Z" fill="url(#paint3_linear_17_5261)"/>
</g>
<g style="mix-blend-mode:multiply" opacity="0.34">
<path d="M313.38 159.091C313.198 159.028 313.074 158.862 312.923 158.742C312.77 158.621 312.525 158.556 312.394 158.7C312.282 158.823 312.323 159.013 312.298 159.176C312.281 159.292 312.163 159.553 312.032 159.584C311.825 159.633 311.886 159.49 311.862 159.362C311.822 159.147 311.852 158.832 311.553 158.806C311.48 158.799 311.407 158.822 311.335 158.815C311.187 158.799 311.081 158.664 311.022 158.527C310.963 158.391 310.93 158.24 310.84 158.123C310.65 157.875 310.289 157.862 309.977 157.868C309.711 157.873 309.407 157.858 309.211 157.696C309.618 157.511 310.07 157.408 310.545 157.408C311.768 157.408 312.832 158.088 313.38 159.091Z" fill="url(#paint4_linear_17_5261)"/>
</g>
<g style="mix-blend-mode:multiply" opacity="0.34">
<path d="M313.017 158.56C312.964 158.517 312.912 158.47 312.855 158.43C312.715 158.331 312.49 158.277 312.369 158.396C312.267 158.496 312.305 158.653 312.282 158.787C312.266 158.882 312.157 159.096 312.037 159.122C311.847 159.163 311.903 159.045 311.881 158.94C311.844 158.763 311.872 158.504 311.597 158.483C311.53 158.477 311.463 158.496 311.396 158.49C311.261 158.477 311.164 158.366 311.109 158.253C311.056 158.142 311.025 158.018 310.942 157.921C310.767 157.718 310.436 157.707 310.15 157.712C309.918 157.716 309.655 157.705 309.475 157.59C309.81 157.472 310.17 157.408 310.545 157.408C311.537 157.408 312.425 157.855 313.017 158.56V158.56Z" fill="url(#paint5_linear_17_5261)"/>
</g>
<path style="mix-blend-mode:multiply" opacity="0.918" d="M313.775 160.638C313.775 162.422 312.329 163.868 310.545 163.868C309.644 163.868 308.83 163.5 308.245 162.905C308.085 162.743 307.941 162.563 307.818 162.37C308.354 162.765 309.015 162.999 309.733 162.999C311.516 162.999 312.962 161.553 312.962 159.769C312.962 159.209 312.82 158.681 312.568 158.221C312.534 158.158 312.497 158.096 312.459 158.036C312.837 158.315 313.153 158.675 313.381 159.091C313.632 159.551 313.775 160.078 313.775 160.638Z" fill="url(#paint6_radial_17_5261)"/>
<path style="mix-blend-mode:multiply" opacity="0.918" d="M313.775 160.638C313.775 162.422 312.329 163.868 310.545 163.868C309.644 163.868 308.83 163.5 308.245 162.905C308.139 162.798 308.041 162.684 307.951 162.563C308.527 163.1 309.301 163.428 310.151 163.428C311.934 163.428 313.38 161.982 313.38 160.199C313.38 159.638 313.238 159.111 312.986 158.651C312.914 158.519 312.834 158.393 312.744 158.273C312.997 158.509 313.213 158.784 313.38 159.091C313.632 159.551 313.775 160.078 313.775 160.638Z" fill="url(#paint7_radial_17_5261)"/>
<circle cx="430.243" cy="160.638" r="75.6898" fill="white"/>
<circle cx="609.128" cy="160.638" r="62.4172" fill="white"/>
<circle cx="739.945" cy="160.638" r="27.6214" fill="white"/>
<circle cx="834.172" cy="160.638" r="25.8278" fill="white"/>
<g clip-path="url(#clip0_17_5261)">
<path d="M298.591 130.566C302.002 134.52 305.486 138.407 309.026 142.243C309.963 143.262 311.22 142.921 312.235 142.196C316.086 139.453 319.911 136.684 323.715 133.884C325.061 132.895 325.351 131.446 324.445 130.385C323.384 129.143 322.178 129.132 320.874 130.09C318.964 131.492 315.801 134.023 313.296 135.918C315.005 110.792 324.451 94.7191 333.388 84.962C333.824 84.5267 334.507 82.6727 333.4 81.5661C332.294 80.4595 330.51 81.1986 329.822 81.8865C321.257 91.2653 310.682 108.046 308.7 134.914C306.862 132.838 304.663 130.312 303.25 128.744C302.882 128.335 302.53 127.906 302.132 127.528C301.071 126.524 299.88 126.477 298.814 127.403C297.758 128.314 297.779 129.624 298.591 130.566Z" fill="white"/>
</g>
<rect x="2.86976" y="2.86976" width="902.26" height="315.536" stroke="white" stroke-width="5.73951"/>
<defs>
<radialGradient id="paint0_radial_17_5261" cx="0" cy="0" r="1" gradientUnits="userSpaceOnUse" gradientTransform="translate(309.866 160.267) scale(3.8227 3.8227)">
<stop stop-color="#E5BF2C"/>
<stop offset="0.939" stop-color="#FF5E3B"/>
</radialGradient>
<linearGradient id="paint1_linear_17_5261" x1="308.756" y1="159.039" x2="311.201" y2="160.927" gradientUnits="userSpaceOnUse">
<stop stop-color="#E5BF2C"/>
<stop offset="1" stop-color="#FF5E3B" stop-opacity="0"/>
</linearGradient>
<linearGradient id="paint2_linear_17_5261" x1="305.98" y1="161.292" x2="309.944" y2="161.292" gradientUnits="userSpaceOnUse">
<stop stop-color="#E5BF2C"/>
<stop offset="0.939" stop-color="#FF5E3B"/>
</linearGradient>
<linearGradient id="paint3_linear_17_5261" x1="306.087" y1="161.31" x2="309.732" y2="161.31" gradientUnits="userSpaceOnUse">
<stop stop-color="#E5BF2C"/>
<stop offset="0.939" stop-color="#FF5E3B"/>
</linearGradient>
<linearGradient id="paint4_linear_17_5261" x1="311.273" y1="157.415" x2="311.291" y2="158.197" gradientUnits="userSpaceOnUse">
<stop stop-color="#E5BF2C"/>
<stop offset="0.939" stop-color="#FF5E3B"/>
</linearGradient>
<linearGradient id="paint5_linear_17_5261" x1="311.23" y1="157.411" x2="311.245" y2="158.029" gradientUnits="userSpaceOnUse">
<stop stop-color="#E5BF2C"/>
<stop offset="0.939" stop-color="#FF5E3B"/>
</linearGradient>
<radialGradient id="paint6_radial_17_5261" cx="0" cy="0" r="1" gradientUnits="userSpaceOnUse" gradientTransform="translate(310.171 160.617) scale(3.4913)">
<stop stop-color="#E5BF2C"/>
<stop offset="1" stop-color="#FF5E3B" stop-opacity="0"/>
</radialGradient>
<radialGradient id="paint7_radial_17_5261" cx="0" cy="0" r="1" gradientUnits="userSpaceOnUse" gradientTransform="translate(310.251 160.75) scale(3.38448 3.38448)">
<stop stop-color="#E5BF2C"/>
<stop offset="1" stop-color="#FF5E3B" stop-opacity="0"/>
</radialGradient>
<clipPath id="clip0_17_5261">
<rect width="36" height="61.8816" fill="white" transform="matrix(-1 0 0 1 334 81)"/>
</clipPath>
</defs>
</svg>
