<svg width="654" height="952" viewBox="0 0 654 952" fill="none" xmlns="http://www.w3.org/2000/svg">
<g clip-path="url(#clip0_93_8756)">
<path d="M400.23 474.124C400.23 475.945 400.193 477.725 400.113 479.504V479.7C400.076 481.008 399.996 482.349 399.875 483.615C399.796 484.801 399.679 485.987 399.557 487.136C399.398 488.799 399.202 490.457 398.964 492.12C398.885 492.554 398.847 493.031 398.768 493.502C398.53 495.086 398.254 496.669 397.936 498.248C397.698 499.514 397.423 500.822 397.147 502.045C396.871 503.353 396.554 504.614 396.236 505.88C395.166 509.953 393.942 513.946 392.518 517.823C392.163 518.813 391.808 519.761 391.41 520.752C390.738 522.452 390.028 524.114 389.276 525.773C388.645 527.235 387.972 528.701 387.258 530.163C386.506 531.704 385.716 533.208 384.885 534.712C384.408 535.623 383.894 536.534 383.38 537.403C382.867 538.272 382.353 539.182 381.839 540.051C381.129 541.2 380.414 542.307 379.704 543.414C378.756 544.839 377.765 546.3 376.775 547.725C376.023 548.753 375.271 549.78 374.519 550.77C373.809 551.719 373.094 552.629 372.384 553.54C370.329 556.072 368.189 558.561 365.937 560.976C364.947 562.004 363.999 563.031 363.009 564.021L362.653 564.376C361.663 565.366 360.635 566.315 359.608 567.263C357.431 569.281 355.179 571.256 352.881 573.078C351.732 574.026 350.587 574.937 349.401 575.806C349.321 575.885 349.242 575.922 349.163 576.002C348.055 576.833 346.906 577.623 345.762 578.412C344.538 579.281 343.309 580.112 342.085 580.901C340.82 581.733 339.554 582.522 338.288 583.274C333.939 585.843 329.468 588.178 324.839 590.276C324.087 590.593 323.335 590.906 322.582 591.224C318.075 593.162 313.403 594.825 308.657 596.17C308.026 596.366 307.354 596.567 306.681 596.726C306.088 596.922 305.495 597.081 304.859 597.24C303.355 597.637 301.814 597.992 300.309 598.309C299.441 598.505 298.53 598.706 297.661 598.865C296.792 599.024 295.881 599.183 295.012 599.337C291.373 599.972 287.655 600.486 283.894 600.761C282.511 600.878 281.045 601 279.625 601.079C279.228 601.079 278.793 601.116 278.359 601.116C276.616 601.196 274.878 601.233 273.099 601.233C271.356 601.233 269.656 601.196 267.918 601.116C265.821 601.037 263.765 600.92 261.747 600.719C260.126 600.603 258.505 600.402 256.88 600.206H256.842C255.38 600.009 253.913 599.808 252.451 599.533C251.858 599.453 251.265 599.374 250.671 599.257C249.961 599.141 249.247 599.019 248.574 598.86C248.415 598.823 248.256 598.823 248.097 598.744C246.36 598.389 244.575 598.029 242.838 597.595C241.137 597.198 239.395 596.726 237.694 596.212C236.27 595.815 234.845 595.381 233.462 594.904C232.593 594.629 231.762 594.348 230.893 594.036C230.183 593.797 229.51 593.559 228.837 593.283C225.675 592.134 222.587 590.831 219.541 589.407C218.117 588.734 216.734 588.062 215.346 587.352C213.884 586.642 212.38 585.848 210.955 585.016C209.61 584.264 208.307 583.475 206.961 582.681C206.289 582.247 205.579 581.85 204.906 581.378C204.233 580.981 203.561 580.509 202.888 580.07C201.701 579.281 200.473 578.449 199.286 577.58C197.862 576.59 196.479 575.563 195.091 574.456C193.825 573.466 192.56 572.438 191.336 571.41C190.186 570.42 189 569.435 187.893 568.402C186.744 567.375 185.599 566.347 184.529 565.278C184.413 565.161 184.291 565.082 184.212 564.96C183.184 563.97 182.194 562.942 181.203 561.915C180.213 560.887 179.227 559.818 178.279 558.753C177.331 557.683 176.383 556.618 175.472 555.511C174.561 554.404 173.65 553.297 172.781 552.148V552.111C164.475 541.434 157.828 529.448 153.241 516.436C148.532 503.227 146 488.949 146 474.114C146 436.104 162.695 402.012 189.117 378.714C191.331 376.776 193.625 374.88 195.96 373.137V373.1C199.282 370.569 202.762 368.158 206.326 366.019C206.84 365.622 207.396 365.305 207.947 364.992C209.372 364.123 210.797 363.329 212.063 362.619C212.973 362.105 213.842 361.629 214.632 361.236C215.146 360.961 215.702 360.681 216.215 360.447C221.359 357.836 226.661 355.622 232.079 353.801C232.869 353.525 233.663 353.245 234.452 353.011C240.899 350.956 247.504 349.41 254.189 348.425C255.259 348.266 256.324 348.107 257.394 347.99C258.818 347.794 260.28 347.635 261.705 347.514C263.485 347.355 265.307 347.238 267.087 347.159C269.105 347.042 271.081 347 273.099 347C274.841 347 276.541 347.037 278.242 347.117C279.984 347.154 281.685 347.276 283.385 347.434C285.127 347.551 286.828 347.752 288.528 347.948H288.566C290.229 348.144 291.929 348.383 293.587 348.663C297.03 349.219 300.431 349.929 303.794 350.76C308.779 351.984 313.646 353.488 318.35 355.309C323.176 357.131 327.842 359.265 332.355 361.638C333.621 362.348 334.887 363.021 336.153 363.735C336.391 363.852 336.629 364.011 336.863 364.132C337.138 364.291 337.377 364.45 337.652 364.609C338.442 365.085 339.273 365.557 340.063 366.033C340.46 366.272 340.852 366.51 341.249 366.823C341.885 367.178 342.515 367.612 343.151 368.046C343.982 368.56 344.771 369.116 345.561 369.667C346.944 370.615 348.331 371.643 349.714 372.675C349.873 372.792 350.069 372.951 350.307 373.109C350.938 373.586 351.811 374.216 352.797 375.01C355.011 376.827 357.188 378.686 359.285 380.704C360.313 381.652 361.303 382.6 362.252 383.553C363.242 384.501 364.19 385.492 365.139 386.482C366.288 387.668 367.432 388.897 368.539 390.162C368.857 390.517 369.212 390.872 369.53 391.269C369.927 391.704 370.282 392.138 370.637 392.614C372.3 394.553 373.879 396.529 375.383 398.588C376.294 399.854 377.205 401.157 378.074 402.465C379.615 404.721 381.082 407.014 382.502 409.387V409.424C383.45 410.966 384.319 412.549 385.151 414.17C385.426 414.567 385.627 414.959 385.823 415.398C386.692 417.019 387.524 418.719 388.313 420.419C389.5 422.909 390.607 425.482 391.597 428.051C392.111 429.359 392.588 430.662 393.059 431.965C393.457 433.072 393.812 434.179 394.167 435.286C394.442 436.155 394.718 436.987 394.956 437.855C396.381 442.601 397.525 447.505 398.357 452.451C398.516 453.32 398.674 454.152 398.754 455.02C398.791 455.1 398.791 455.179 398.791 455.216C398.95 456.085 399.067 456.959 399.146 457.827C399.184 457.986 399.226 458.145 399.226 458.304C399.305 458.939 399.384 459.57 399.464 460.205C399.543 460.84 399.585 461.471 399.623 462.101C399.702 462.615 399.74 463.091 399.782 463.605C399.819 463.96 399.819 464.357 399.861 464.712C400.099 467.799 400.216 470.961 400.216 474.124H400.23Z" fill="#ACB1EE"/>
<path opacity="0.08" d="M1013.05 1011.16C1308.58 1011.16 1548.15 771.582 1548.15 476.054C1548.15 180.526 1308.58 -59.0469 1013.05 -59.0469C717.519 -59.0469 477.945 180.526 477.945 476.054C477.945 771.582 717.519 1011.16 1013.05 1011.16Z" fill="white"/>
<path opacity="0.2" d="M1013.04 939.224C1268.85 939.224 1476.22 731.856 1476.22 476.054C1476.22 220.251 1268.85 12.8828 1013.04 12.8828C757.242 12.8828 549.873 220.251 549.873 476.054C549.873 731.856 757.242 939.224 1013.04 939.224Z" fill="white"/>
<path opacity="0.7" d="M1325.58 788.576C1498.18 615.973 1498.18 336.129 1325.58 163.526C1152.97 -9.07698 873.129 -9.07697 700.526 163.526C527.922 336.129 527.923 615.973 700.526 788.576C873.129 961.179 1152.97 961.179 1325.58 788.576Z" fill="white"/>
<path d="M1429.33 542.113C1465.81 312.207 1309.02 96.2527 1079.11 59.7651C849.203 23.2776 633.248 180.074 596.76 409.98C560.272 639.886 717.069 855.841 946.976 892.328C1176.88 928.816 1392.84 772.019 1429.33 542.113Z" fill="white"/>
</g>
<defs>
<clipPath id="clip0_93_8756">
<rect width="654" height="952" fill="white"/>
</clipPath>
</defs>
</svg>
