<svg width="772" height="281" viewBox="0 0 772 281" fill="none" xmlns="http://www.w3.org/2000/svg">
<path d="M99.5266 140.466C99.5266 192.672 57.2056 234.993 5 234.993C5 234.993 5 169.379 5 117.173C5 64.9675 5 45.9395 5 45.9395C57.2056 45.9395 99.5266 88.2604 99.5266 140.466Z" fill="white"/>
<circle cx="135.854" cy="140.466" r="2.10641" fill="#ACB1EE"/>
<circle cx="177.6" cy="140.468" r="5.41872" fill="#ACB1EE"/>
<circle cx="222.962" cy="140.466" r="5.71976" fill="#ACB1EE"/>
<circle cx="265.612" cy="140.467" r="2.70936" fill="#ACB1EE"/>
<circle cx="366.062" cy="140.467" r="63.5195" fill="#ACB1EE"/>
<circle cx="516.184" cy="140.467" r="52.381" fill="#ACB1EE"/>
<circle cx="625.967" cy="140.467" r="23.1801" fill="#ACB1EE"/>
<circle cx="705.044" cy="140.466" r="21.6749" fill="#ACB1EE"/>
<g clip-path="url(#clip0_89_8111)">
<path d="M126.342 116.069C129.204 119.388 132.128 122.65 135.099 125.868C135.885 126.724 136.94 126.437 137.792 125.829C141.023 123.527 144.233 121.203 147.426 118.853C148.555 118.024 148.799 116.807 148.038 115.917C147.148 114.874 146.136 114.866 145.041 115.669C143.438 116.846 140.784 118.971 138.682 120.56C140.116 99.4749 148.044 85.9861 155.544 77.7978C155.909 77.4325 156.482 75.8766 155.554 74.948C154.625 74.0193 153.128 74.6396 152.551 75.2168C145.363 83.0876 136.489 97.1697 134.825 119.718C133.283 117.976 131.437 115.856 130.251 114.54C129.943 114.197 129.647 113.836 129.313 113.519C128.422 112.677 127.423 112.637 126.529 113.415C125.642 114.179 125.66 115.278 126.342 116.069Z" fill="#ACB1EE"/>
</g>
<rect x="2.59168" y="3.24988" width="766.817" height="274.434" stroke="#ACB1EE" stroke-width="4.81664"/>
<defs>
<clipPath id="clip0_89_8111">
<rect width="30.2115" height="51.9315" fill="white" transform="matrix(-1 0 0 1 156.057 74.4727)"/>
</clipPath>
</defs>
</svg>
