<svg width="908" height="322" viewBox="0 0 908 322" fill="none" xmlns="http://www.w3.org/2000/svg">
<path d="M112.638 160.638C112.638 222.846 62.2082 273.276 0 273.276C0 273.276 0 195.09 0 132.882C0 70.6739 0 48 0 48C62.2082 48 112.638 98.4297 112.638 160.638Z" fill="white"/>
<circle cx="155.926" cy="160.638" r="2.51" fill="white"/>
<circle cx="205.671" cy="160.638" r="6.45695" fill="white"/>
<circle cx="259.721" cy="160.638" r="6.81567" fill="white"/>
<circle cx="310.543" cy="160.638" r="3.22848" fill="white"/>
<circle cx="430.239" cy="160.638" r="75.6898" fill="white"/>
<circle cx="609.124" cy="160.638" r="62.4172" fill="white"/>
<circle cx="739.941" cy="160.638" r="27.6214" fill="white"/>
<g clip-path="url(#clip0_17_5265)">
<path d="M858.015 169.133C862.613 156.058 855.74 141.731 842.665 137.133C829.59 132.535 815.263 139.408 810.665 152.483C806.067 165.558 812.939 179.885 826.015 184.483C839.09 189.081 853.417 182.208 858.015 169.133Z" fill="url(#paint0_radial_17_5265)"/>
<path d="M858.015 169.133C862.613 156.058 855.74 141.731 842.665 137.133C829.59 132.535 815.263 139.408 810.665 152.483C806.067 165.558 812.939 179.885 826.015 184.483C839.09 189.081 853.417 182.208 858.015 169.133Z" fill="url(#paint1_radial_17_5265)"/>
<path d="M858.015 169.133C862.613 156.058 855.74 141.731 842.665 137.133C829.59 132.535 815.263 139.408 810.665 152.483C806.067 165.558 812.939 179.885 826.015 184.483C839.09 189.081 853.417 182.208 858.015 169.133Z" fill="url(#paint2_radial_17_5265)"/>
<mask id="mask0_17_5265" style="mask-type:luminance" maskUnits="userSpaceOnUse" x="809" y="135" width="51" height="51">
<path d="M858.015 169.133C862.613 156.058 855.74 141.731 842.665 137.133C829.59 132.535 815.263 139.408 810.665 152.483C806.067 165.558 812.939 179.885 826.015 184.483C839.09 189.081 853.417 182.208 858.015 169.133Z" fill="white"/>
</mask>
<g mask="url(#mask0_17_5265)">
<g style="mix-blend-mode:screen" opacity="0.347">
<path d="M804.899 148.539C809.001 150.06 813.314 151.073 817.623 151.807C821.956 152.546 826.34 153.027 830.733 153.205C839.465 153.558 848.224 152.814 856.766 150.963C859.181 150.44 861.578 149.83 863.949 149.133C865.121 148.789 866.294 148.435 867.447 148.029C868.62 147.615 869.833 147.25 870.875 146.558C871.206 146.338 871.127 145.666 870.649 145.724C869.54 145.859 868.52 146.234 867.457 146.564C866.442 146.879 865.429 147.201 864.409 147.501C862.319 148.118 860.209 148.668 858.084 149.149C853.897 150.097 849.658 150.77 845.388 151.206C836.79 152.086 828.054 151.918 819.501 150.667C814.649 149.958 809.889 148.861 805.121 147.739C804.595 147.615 804.406 148.354 804.901 148.538L804.899 148.539Z" fill="url(#paint3_radial_17_5265)"/>
</g>
<g style="mix-blend-mode:screen" opacity="0.347">
<path d="M803.688 167.191C807.791 168.712 812.104 169.724 816.413 170.459C820.746 171.198 825.13 171.679 829.523 171.856C838.254 172.21 847.014 171.465 855.556 169.615C857.971 169.091 860.367 168.482 862.738 167.785C863.911 167.44 865.083 167.087 866.236 166.681C867.409 166.267 868.623 165.902 869.664 165.21C869.995 164.99 869.916 164.317 869.439 164.376C868.329 164.511 867.309 164.885 866.246 165.216C865.231 165.531 864.218 165.852 863.199 166.153C861.109 166.77 858.999 167.319 856.874 167.8C852.687 168.749 848.448 169.422 844.178 169.858C835.58 170.738 826.843 170.57 818.29 169.319C813.439 168.61 808.679 167.513 803.911 166.391C803.385 166.267 803.196 167.006 803.69 167.19L803.688 167.191Z" fill="url(#paint4_radial_17_5265)"/>
</g>
<path d="M799.696 162.832C803.742 164.553 808.09 165.603 812.412 166.374C816.797 167.157 821.247 167.696 825.699 167.885C830.079 168.071 834.47 167.981 838.839 167.617C843.29 167.247 847.716 166.545 852.076 165.577C856.343 164.629 860.619 163.481 864.672 161.83C864.975 161.707 865.294 161.571 865.57 161.395C865.83 161.23 866.041 161.006 866.26 160.793C866.775 160.29 866.36 159.49 865.703 159.447C865.094 159.407 864.533 159.466 863.946 159.643C863.437 159.797 862.928 159.952 862.416 160.101C861.373 160.404 860.339 160.73 859.296 161.032C857.21 161.637 855.105 162.176 852.985 162.647C850.863 163.118 848.727 163.522 846.58 163.86C846.053 163.943 845.526 164.021 844.997 164.096C844.86 164.115 844.724 164.134 844.586 164.153C844.308 164.192 844.767 164.13 844.488 164.167C844.194 164.206 843.901 164.243 843.607 164.279C842.53 164.413 841.451 164.532 840.371 164.643C836.069 165.084 831.739 165.26 827.415 165.166C825.245 165.12 823.074 165.017 820.91 164.854C819.828 164.772 818.748 164.674 817.67 164.559C817.121 164.5 816.572 164.437 816.024 164.369C815.77 164.338 815.516 164.305 815.262 164.272L815.086 164.249C815.071 164.247 814.876 164.221 815.02 164.24C815.165 164.26 814.971 164.233 814.955 164.231C814.858 164.218 814.759 164.204 814.662 164.19C810.354 163.587 806.079 162.743 801.836 161.794C801.314 161.678 800.784 161.596 800.258 161.499C799.902 161.432 799.54 161.566 799.398 161.921C799.277 162.222 799.358 162.688 799.696 162.832Z" fill="#0096FB"/>
<g style="mix-blend-mode:screen" opacity="0.347">
<path d="M803.449 155.114C805.505 156.104 807.663 156.843 809.865 157.439C811.966 158.008 814.081 158.518 816.224 158.901C820.67 159.694 825.182 160.241 829.696 160.432C838.644 160.812 847.6 160.028 856.338 158.055C858.722 157.517 861.088 156.893 863.427 156.186C864.597 155.832 865.772 155.478 866.912 155.034C867.509 154.801 868.104 154.564 868.696 154.318C869.072 154.162 869.431 153.998 869.763 153.758C870.113 153.504 870.336 153.169 870.577 152.818C870.99 152.216 870.565 151.352 869.909 151.174C869.616 151.095 869.319 150.992 869.012 150.984C868.684 150.976 868.308 151.06 867.981 151.127C867.414 151.244 866.855 151.449 866.297 151.605C865.273 151.89 864.26 152.206 863.239 152.503C861.147 153.111 859.034 153.652 856.907 154.125C854.78 154.597 852.634 155.004 850.479 155.342C849.954 155.425 849.428 155.504 848.901 155.578C848.795 155.593 848.69 155.607 848.584 155.622C848.07 155.694 848.866 155.586 848.545 155.627C848.255 155.665 847.965 155.703 847.676 155.739C846.569 155.876 845.459 155.998 844.35 156.114C840.066 156.56 835.756 156.743 831.45 156.659C829.273 156.617 827.094 156.516 824.922 156.357C823.81 156.275 822.699 156.174 821.59 156.057C821.115 156.006 820.64 155.952 820.166 155.895C819.903 155.864 819.639 155.831 819.376 155.797C819.218 155.777 819.06 155.756 818.902 155.736C819.228 155.779 818.876 155.731 818.748 155.714C816.324 155.376 813.898 154.988 811.493 154.534C809.088 154.081 806.679 153.562 804.247 153.222C803.736 153.151 803.234 153.302 803.025 153.822C802.846 154.267 802.977 154.889 803.449 155.116V155.114Z" fill="url(#paint5_radial_17_5265)"/>
</g>
<g style="mix-blend-mode:multiply" opacity="0.74">
<path d="M803.058 172.238C807.153 173.723 811.439 174.726 815.727 175.463C820.063 176.21 824.453 176.699 828.849 176.878C833.209 177.056 837.581 176.96 841.93 176.593C846.3 176.225 850.646 175.558 854.931 174.627C859.191 173.701 863.419 172.538 867.499 170.999C868.029 170.798 868.513 170.559 868.993 170.259C869.393 170.008 869.115 169.474 868.689 169.539C867.61 169.701 866.597 170.084 865.557 170.408C864.521 170.73 863.485 171.058 862.444 171.364C860.379 171.969 858.294 172.509 856.196 172.983C851.978 173.936 847.706 174.608 843.404 175.042C839.102 175.476 834.772 175.644 830.448 175.543C826.145 175.444 821.843 175.108 817.584 174.488C813.284 173.861 809.02 172.979 804.808 171.909C804.291 171.777 803.771 171.661 803.252 171.535C802.79 171.423 802.621 172.081 803.058 172.239V172.238Z" fill="#0096FB"/>
</g>
<path d="M802.526 141.017C806.621 142.502 810.907 143.504 815.195 144.242C819.531 144.989 823.921 145.478 828.317 145.657C832.677 145.835 837.049 145.739 841.398 145.372C845.768 145.003 850.114 144.337 854.399 143.405C858.659 142.479 862.887 141.317 866.967 139.777C867.498 139.577 867.981 139.337 868.461 139.037C868.862 138.787 868.584 138.253 868.158 138.317C867.079 138.48 866.066 138.863 865.026 139.187C863.989 139.509 862.954 139.837 861.913 140.142C859.848 140.748 857.763 141.288 855.664 141.762C851.446 142.715 847.175 143.386 842.873 143.821C838.57 144.255 834.24 144.423 829.916 144.323C825.613 144.223 821.312 143.888 817.053 143.267C812.753 142.641 808.488 141.759 804.277 140.688C803.76 140.557 803.239 140.441 802.721 140.315C802.259 140.202 802.09 140.86 802.527 141.019L802.526 141.017Z" fill="#0096FB"/>
</g>
<path style="mix-blend-mode:multiply" opacity="0.43" d="M858.232 153.136C862.47 166.326 855.209 180.463 842.012 184.704C833.276 187.511 824.125 185.276 817.72 179.615C822.81 181.49 828.537 181.75 834.099 179.963C847.296 175.722 854.549 161.587 850.309 148.39C848.878 143.936 846.32 140.164 843.055 137.276C850.024 139.868 855.781 145.507 858.233 153.135L858.232 153.136Z" fill="url(#paint6_radial_17_5265)"/>
<path style="mix-blend-mode:multiply" opacity="0.43" d="M858.25 153.178C862.464 166.376 855.175 180.499 841.97 184.714C834.679 187.042 827.104 185.861 821.079 182.111C826.439 184.417 832.63 184.884 838.633 182.968C851.838 178.753 859.127 164.629 854.914 151.431C853.026 145.517 849.147 140.787 844.251 137.751C850.697 140.53 855.949 145.969 858.25 153.178Z" fill="url(#paint7_radial_17_5265)"/>
<path style="mix-blend-mode:screen" d="M839.253 139.414C845.39 143.463 845.825 153.625 840.226 162.112C834.626 170.599 825.112 174.196 818.976 170.147C812.839 166.098 812.404 155.936 818.003 147.449C823.603 138.962 833.117 135.365 839.253 139.414Z" fill="url(#paint8_radial_17_5265)"/>
<path d="M830.727 171.823C829.175 171.118 827.498 170.79 825.828 171.268C824.616 171.616 823.553 172.632 822.464 173.257C822.101 173.465 821.734 173.676 821.339 173.817C820.885 173.98 820.402 174.05 819.924 174.118C819.393 174.195 818.862 174.271 818.33 174.347C818.173 174.37 818.008 174.395 817.882 174.49C817.625 174.684 817.639 175.1 817.832 175.358C818.024 175.617 818.337 175.751 818.642 175.857C820.171 176.389 821.917 176.431 823.374 177.158C824.383 177.662 825.144 178.582 826.169 179.054C827.305 179.577 828.635 179.487 829.839 179.151C831.043 178.816 832.17 178.252 833.349 177.838C834.092 177.577 834.858 177.371 835.633 177.236C836.349 177.112 837.038 177.287 837.75 177.056C837.841 177.026 837.936 176.989 837.989 176.91C838.086 176.765 837.985 176.557 837.833 176.472C837.681 176.386 837.498 176.385 837.325 176.367C836.408 176.272 835.775 175.477 835.142 174.898C833.818 173.687 832.369 172.568 830.727 171.822V171.823Z" fill="#0096FB"/>
<g style="mix-blend-mode:multiply">
<path d="M829.345 173.466C828.541 173.1 827.671 172.93 826.806 173.178C826.178 173.359 825.626 173.885 825.061 174.209C824.872 174.317 824.683 174.426 824.478 174.5C824.243 174.585 823.992 174.621 823.745 174.656C823.47 174.696 823.195 174.735 822.919 174.775C822.837 174.786 822.752 174.8 822.686 174.849C822.553 174.95 822.56 175.165 822.66 175.299C822.76 175.433 822.922 175.503 823.079 175.557C823.872 175.833 824.777 175.855 825.532 176.231C826.056 176.493 826.45 176.97 826.982 177.215C827.57 177.486 828.26 177.439 828.885 177.265C829.509 177.091 830.093 176.799 830.704 176.584C831.089 176.449 831.486 176.342 831.888 176.272C832.259 176.208 832.617 176.299 832.986 176.179C833.033 176.163 833.082 176.144 833.11 176.103C833.16 176.028 833.108 175.921 833.029 175.876C832.951 175.832 832.856 175.831 832.766 175.822C832.29 175.772 831.962 175.361 831.634 175.06C830.947 174.433 830.197 173.852 829.345 173.466Z" fill="#0096FB"/>
</g>
</g>
<g clip-path="url(#clip1_17_5265)">
<path d="M822.591 108.566C826.002 112.52 829.486 116.407 833.026 120.243C833.963 121.262 835.22 120.921 836.235 120.196C840.086 117.453 843.911 114.684 847.715 111.884C849.061 110.895 849.351 109.446 848.445 108.385C847.384 107.143 846.178 107.132 844.874 108.09C842.964 109.492 839.801 112.023 837.296 113.918C839.005 88.7924 848.451 72.7192 857.388 62.9621C857.824 62.5268 858.507 60.6727 857.4 59.5661C856.294 58.4595 854.51 59.1986 853.822 59.8865C845.257 69.2653 834.682 86.0456 832.7 112.914C830.862 110.838 828.663 108.312 827.25 106.744C826.882 106.335 826.53 105.906 826.132 105.528C825.071 104.524 823.88 104.477 822.814 105.403C821.758 106.314 821.779 107.624 822.591 108.566Z" fill="white"/>
</g>
<rect x="2.86976" y="2.86976" width="902.26" height="315.536" stroke="white" stroke-width="5.73951"/>
<defs>
<radialGradient id="paint0_radial_17_5265" cx="0" cy="0" r="1" gradientUnits="userSpaceOnUse" gradientTransform="translate(826.42 146.456) rotate(-17.704) scale(35.4383 35.4383)">
<stop stop-color="#F49E40"/>
<stop offset="0.999" stop-color="#DA7F38"/>
</radialGradient>
<radialGradient id="paint1_radial_17_5265" cx="0" cy="0" r="1" gradientUnits="userSpaceOnUse" gradientTransform="translate(826.42 146.456) rotate(-17.704) scale(35.4383 35.4383)">
<stop stop-color="#F49E40"/>
<stop offset="0.999" stop-color="#DA7F38"/>
</radialGradient>
<radialGradient id="paint2_radial_17_5265" cx="0" cy="0" r="1" gradientUnits="userSpaceOnUse" gradientTransform="translate(834.341 160.808) scale(25.103 25.103)">
<stop offset="0.041" stop-color="#10BDF0"/>
<stop offset="0.908" stop-color="#00ADF1"/>
</radialGradient>
<radialGradient id="paint3_radial_17_5265" cx="0" cy="0" r="1" gradientUnits="userSpaceOnUse" gradientTransform="translate(837.843 149.369) scale(23.5291 23.5291)">
<stop stop-color="#FDC079"/>
<stop offset="0.955" stop-color="#FFB06B"/>
</radialGradient>
<radialGradient id="paint4_radial_17_5265" cx="0" cy="0" r="1" gradientUnits="userSpaceOnUse" gradientTransform="translate(836.632 168.02) scale(23.5291 23.5292)">
<stop stop-color="#FDC079"/>
<stop offset="0.955" stop-color="#FFB06B"/>
</radialGradient>
<radialGradient id="paint5_radial_17_5265" cx="0" cy="0" r="1" gradientUnits="userSpaceOnUse" gradientTransform="translate(836.844 155.482) scale(23.8545 23.8545)">
<stop stop-color="#FDC079"/>
<stop offset="0.955" stop-color="#FFB06B"/>
</radialGradient>
<radialGradient id="paint6_radial_17_5265" cx="0" cy="0" r="1" gradientUnits="userSpaceOnUse" gradientTransform="translate(836.838 162.82) rotate(-17.812) scale(22.8798 22.8798)">
<stop offset="0.041" stop-color="#10BDF0"/>
<stop offset="1" stop-color="#00ADF1"/>
</radialGradient>
<radialGradient id="paint7_radial_17_5265" cx="0" cy="0" r="1" gradientUnits="userSpaceOnUse" gradientTransform="translate(838.123 162.825) rotate(-17.705) scale(22.0649 22.0649)">
<stop offset="0.041" stop-color="#10BDF0"/>
<stop offset="1" stop-color="#00ADF1"/>
</radialGradient>
<radialGradient id="paint8_radial_17_5265" cx="0" cy="0" r="1" gradientUnits="userSpaceOnUse" gradientTransform="translate(824.639 144.154) scale(24.3964 24.3964)">
<stop offset="0.041" stop-color="#10BDF0"/>
<stop offset="0.898" stop-color="#00ADF1" stop-opacity="0"/>
</radialGradient>
<clipPath id="clip0_17_5265">
<rect width="51.66" height="51.66" fill="white" transform="translate(808.34 134.808)"/>
</clipPath>
<clipPath id="clip1_17_5265">
<rect width="36" height="61.8816" fill="white" transform="matrix(-1 0 0 1 858 59)"/>
</clipPath>
</defs>
</svg>
