<svg width="270" height="146" viewBox="0 0 270 146" fill="none" xmlns="http://www.w3.org/2000/svg">
<g clip-path="url(#clip0_16_4525)">
<path d="M103.624 84.228C109.701 66.9463 100.618 48.0103 83.3358 41.9333C66.0541 35.8562 47.1181 44.9394 41.0411 62.2211C34.964 79.5028 44.0472 98.4389 61.3289 104.516C78.6106 110.593 97.5467 101.51 103.624 84.228Z" fill="url(#paint0_radial_16_4525)"/>
<path d="M103.624 84.228C109.701 66.9463 100.618 48.0103 83.3358 41.9333C66.0541 35.8562 47.1181 44.9394 41.0411 62.2211C34.964 79.5028 44.0472 98.4389 61.3289 104.516C78.6106 110.593 97.5467 101.51 103.624 84.228Z" fill="url(#paint1_radial_16_4525)"/>
<path d="M103.624 84.228C109.701 66.9463 100.618 48.0103 83.3358 41.9333C66.0541 35.8562 47.1181 44.9394 41.0411 62.2211C34.964 79.5028 44.0472 98.4389 61.3289 104.516C78.6106 110.593 97.5467 101.51 103.624 84.228Z" fill="url(#paint2_radial_16_4525)"/>
<mask id="mask0_16_4525" style="mask-type:luminance" maskUnits="userSpaceOnUse" x="39" y="40" width="67" height="67">
<path d="M103.624 84.228C109.701 66.9463 100.618 48.0103 83.3358 41.9333C66.0541 35.8562 47.1181 44.9394 41.0411 62.2211C34.964 79.5028 44.0472 98.4389 61.3289 104.516C78.6106 110.593 97.5467 101.51 103.624 84.228Z" fill="white"/>
</mask>
<g mask="url(#mask0_16_4525)">
<g style="mix-blend-mode:screen" opacity="0.347">
<path d="M33.4197 57.0084C38.8423 59.0195 44.5426 60.3574 50.2382 61.3278C55.9647 62.3049 61.7594 62.9406 67.5653 63.1753C79.1062 63.6427 90.6835 62.6582 101.974 60.2124C105.166 59.5206 108.333 58.7147 111.467 57.7938C113.016 57.3385 114.566 56.871 116.09 56.3344C117.64 55.7874 119.245 55.305 120.621 54.3906C121.059 54.0999 120.954 53.2107 120.323 53.2883C118.857 53.4669 117.509 53.9615 116.103 54.3981C114.762 54.8151 113.423 55.2395 112.076 55.6369C109.313 56.4522 106.524 57.1786 103.716 57.8143C98.1816 59.0681 92.5786 59.9572 86.9353 60.5341C75.5712 61.6971 64.0238 61.4746 52.7195 59.8216C46.3068 58.8839 40.0156 57.4348 33.7142 55.951C33.0186 55.7874 32.769 56.7644 33.4225 57.0075L33.4197 57.0084Z" fill="url(#paint3_radial_16_4525)"/>
</g>
<g style="mix-blend-mode:screen" opacity="0.347">
<path d="M31.8201 81.6606C37.2427 83.6716 42.943 85.0095 48.6386 85.9799C54.3651 86.957 60.1598 87.5927 65.9657 87.8274C77.5066 88.2949 89.0838 87.3104 100.374 84.8646C103.566 84.1727 106.734 83.3668 109.867 82.4459C111.417 81.9906 112.967 81.5231 114.491 80.9865C116.041 80.4395 117.645 79.9571 119.021 79.0427C119.459 78.752 119.354 77.8628 118.723 77.9404C117.257 78.119 115.909 78.6136 114.504 79.0502C113.162 79.4672 111.823 79.8916 110.476 80.289C107.713 81.1043 104.924 81.8307 102.116 82.4665C96.582 83.7202 90.979 84.6093 85.3357 85.1862C73.9716 86.3492 62.4242 86.1267 51.1199 84.4738C44.7072 83.536 38.416 82.0869 32.1146 80.6031C31.419 80.4395 31.1693 81.4165 31.8229 81.6596L31.8201 81.6606Z" fill="url(#paint4_radial_16_4525)"/>
</g>
<path d="M26.5433 75.8998C31.8911 78.1745 37.6381 79.5628 43.3497 80.5819C49.1463 81.6159 55.027 82.3284 60.9115 82.578C66.7006 82.8239 72.5047 82.7051 78.2788 82.2246C84.1624 81.7347 90.0122 80.8072 95.7742 79.5282C101.415 78.2754 107.065 76.7571 112.423 74.5749C112.823 74.4123 113.244 74.2337 113.61 74.0009C113.953 73.7831 114.233 73.4867 114.522 73.2043C115.202 72.5396 114.654 71.4831 113.785 71.4261C112.98 71.3728 112.238 71.4504 111.463 71.6851C110.79 71.8889 110.117 72.0936 109.441 72.29C108.063 72.6901 106.695 73.1211 105.317 73.5203C102.56 74.3206 99.7776 75.0321 96.9756 75.6548C94.1718 76.2774 91.3483 76.8123 88.5107 77.2582C87.8142 77.3676 87.1167 77.4714 86.4184 77.5705C86.237 77.5957 86.0565 77.621 85.8752 77.6462C85.5068 77.6976 86.1136 77.6154 85.7452 77.664C85.3572 77.7154 84.9692 77.7649 84.5812 77.8126C83.1573 77.9893 81.7306 78.1464 80.3039 78.2932C74.6176 78.8766 68.8949 79.1084 63.1796 78.985C60.3122 78.9233 57.4419 78.7878 54.582 78.5718C53.1524 78.4643 51.7239 78.3343 50.299 78.1819C49.5735 78.1043 48.8489 78.0211 48.1244 77.9314C47.7878 77.8902 47.4522 77.8472 47.1165 77.8033L46.8837 77.7724C46.8641 77.7696 46.607 77.735 46.7977 77.7612C46.9894 77.7874 46.7323 77.7519 46.7117 77.7491C46.5827 77.7313 46.4527 77.7135 46.3237 77.6948C40.6299 76.8973 34.9801 75.7819 29.3715 74.5282C28.6815 74.3739 27.9812 74.2664 27.2865 74.1374C26.8153 74.0495 26.3367 74.2271 26.1487 74.6955C25.9889 75.0938 26.0964 75.71 26.5433 75.8998Z" fill="#0096FB"/>
<g style="mix-blend-mode:screen" opacity="0.347">
<path d="M31.5028 65.6994C34.2207 67.0074 37.0732 67.9834 39.9836 68.7716C42.7604 69.5233 45.5558 70.1983 48.3887 70.7041C54.2648 71.7522 60.2278 72.4749 66.1936 72.7282C78.0214 73.2303 89.8577 72.1934 101.407 69.5859C104.559 68.8744 107.685 68.0507 110.777 67.1158C112.323 66.6483 113.876 66.1799 115.382 65.5928C116.171 65.2852 116.959 64.972 117.74 64.6467C118.238 64.44 118.713 64.2231 119.151 63.9062C119.614 63.5705 119.908 63.1283 120.227 62.6646C120.773 61.869 120.211 60.7265 119.344 60.4918C118.957 60.3871 118.564 60.2506 118.158 60.2403C117.725 60.23 117.228 60.3404 116.796 60.4292C116.046 60.5834 115.308 60.8546 114.57 61.0602C113.217 61.438 111.877 61.8549 110.528 62.2476C107.763 63.0516 104.97 63.7669 102.159 64.3914C99.3473 65.0159 96.5116 65.5535 93.6638 66.0004C92.9692 66.1098 92.2736 66.2136 91.5771 66.3118C91.4378 66.3314 91.2985 66.351 91.1591 66.3697C90.4794 66.4651 91.5313 66.3221 91.1068 66.3772C90.7244 66.4268 90.3411 66.4773 89.9587 66.5249C88.4955 66.7063 87.0286 66.8671 85.5626 67.0204C79.9007 67.6104 74.2032 67.8516 68.5122 67.7413C65.6345 67.6852 62.7549 67.5524 59.8837 67.3411C58.414 67.2327 56.9461 67.0999 55.4802 66.9447C54.8519 66.8783 54.2246 66.8064 53.5981 66.7316C53.2504 66.6895 52.9016 66.6465 52.5538 66.6016C52.3453 66.5745 52.1368 66.5474 51.9274 66.5203C52.3584 66.5773 51.8928 66.5146 51.7236 66.4913C48.5196 66.0453 45.3137 65.532 42.1349 64.9327C38.9561 64.3334 35.7727 63.6481 32.5584 63.1984C31.8824 63.104 31.2186 63.3041 30.9428 63.9913C30.7063 64.5793 30.8792 65.4011 31.5028 65.7012V65.6994Z" fill="url(#paint5_radial_16_4525)"/>
</g>
<g style="mix-blend-mode:multiply" opacity="0.74">
<path d="M30.9869 88.3316C36.3992 90.295 42.0631 91.6198 47.7316 92.5949C53.4627 93.5813 59.264 94.2282 65.0746 94.4648C70.8375 94.6994 76.6154 94.5732 82.3634 94.088C88.1394 93.6009 93.8837 92.7202 99.5475 91.4889C105.178 90.265 110.766 88.728 116.158 86.6936C116.86 86.429 117.499 86.1121 118.133 85.7157C118.662 85.3847 118.295 84.6788 117.732 84.7639C116.305 84.9789 114.966 85.4847 113.592 85.9129C112.222 86.3393 110.854 86.7721 109.477 87.176C106.748 87.9763 103.993 88.6906 101.219 89.317C95.6441 90.5764 89.9981 91.4636 84.3127 92.0377C78.6255 92.6117 72.9028 92.8333 67.1875 92.7006C61.5013 92.5687 55.815 92.1256 50.1858 91.3056C44.5023 90.4773 38.8665 89.3114 33.2999 87.8969C32.6165 87.723 31.9284 87.5696 31.2431 87.4032C30.6325 87.2546 30.4091 88.124 30.9869 88.3335V88.3316Z" fill="#0096FB"/>
</g>
<path d="M30.2838 47.0662C35.6961 49.0296 41.36 50.3544 47.0285 51.3295C52.7596 52.3159 58.5609 52.9629 64.3715 53.1994C70.1345 53.4341 75.9123 53.3078 81.6603 52.8226C87.4363 52.3346 93.1806 51.4548 98.8444 50.2235C104.475 48.9997 110.063 47.4626 115.456 45.4282C116.158 45.1636 116.796 44.8467 117.431 44.4503C117.96 44.1193 117.593 43.4134 117.03 43.4985C115.603 43.7135 114.264 44.2193 112.89 44.6475C111.52 45.0739 110.152 45.5067 108.775 45.9106C106.046 46.7109 103.291 47.4252 100.517 48.0516C94.942 49.311 89.2959 50.1983 83.6106 50.7723C77.9234 51.3464 72.2007 51.5679 66.4854 51.4361C60.7982 51.3043 55.1129 50.8611 49.4836 50.0412C43.8001 49.2138 38.1634 48.047 32.5978 46.6324C31.9143 46.4585 31.2262 46.3052 30.5409 46.1388C29.9304 45.9901 29.7069 46.8596 30.2847 47.069L30.2838 47.0662Z" fill="#0096FB"/>
</g>
<path style="mix-blend-mode:multiply" opacity="0.43" d="M103.911 63.0844C109.513 80.5172 99.9161 99.2027 82.473 104.808C70.9266 108.518 58.8314 105.564 50.3665 98.0818C57.0933 100.56 64.6625 100.903 72.0139 98.5417C89.457 92.9368 99.0438 74.254 93.4389 56.8109C91.5475 50.9246 88.1677 45.9395 83.8511 42.1222C93.0621 45.5478 100.672 53.0011 103.912 63.0834L103.911 63.0844Z" fill="url(#paint6_radial_16_4525)"/>
<path style="mix-blend-mode:multiply" opacity="0.43" d="M103.935 63.1396C109.504 80.5836 99.8702 99.2505 82.4168 104.822C72.7805 107.898 62.7692 106.337 54.8054 101.381C61.8894 104.429 70.072 105.046 78.0068 102.513C95.4601 96.9422 105.094 78.2753 99.5252 60.8313C97.0299 53.0143 91.9027 46.7624 85.432 42.7496C93.9511 46.423 100.894 53.6117 103.935 63.1396Z" fill="url(#paint7_radial_16_4525)"/>
<path style="mix-blend-mode:screen" d="M78.8268 44.9474C86.9373 50.299 87.5132 63.7303 80.1123 74.9476C72.7113 86.1649 60.1365 90.92 52.0259 85.5684C43.9154 80.2169 43.3394 66.7856 50.7404 55.5683C58.1413 44.3509 70.7162 39.5959 78.8268 44.9474Z" fill="url(#paint8_radial_16_4525)"/>
<path d="M67.5569 87.7833C65.5057 86.8521 63.2899 86.4183 61.0825 87.0503C59.48 87.5094 58.0757 88.8528 56.6359 89.6784C56.1554 89.9542 55.6711 90.2319 55.1494 90.4189C54.5482 90.6349 53.9106 90.7265 53.2786 90.8172C52.5764 90.9181 51.8743 91.0191 51.1722 91.1191C50.9646 91.1491 50.7468 91.1827 50.5794 91.3089C50.24 91.5651 50.2587 92.1148 50.513 92.4561C50.7673 92.7973 51.1815 92.975 51.5835 93.1152C53.6049 93.8183 55.9132 93.8735 57.8383 94.8346C59.1724 95.5012 60.1784 96.7166 61.5331 97.3411C63.0337 98.032 64.7923 97.9124 66.3836 97.4692C67.9748 97.026 69.4642 96.2809 71.0227 95.734C72.0044 95.389 73.0169 95.116 74.0416 94.9383C74.9878 94.7738 75.8984 95.0057 76.8399 94.6999C76.9595 94.6607 77.0858 94.6111 77.1559 94.5064C77.284 94.3157 77.1503 94.0399 76.9493 93.9277C76.7482 93.8146 76.507 93.8127 76.278 93.7893C75.0654 93.6631 74.2286 92.6122 73.3928 91.8474C71.6426 90.2468 69.7269 88.7678 67.5569 87.7814V87.7833Z" fill="#0096FB"/>
<g style="mix-blend-mode:multiply">
<path d="M65.7309 89.9543C64.6679 89.471 63.5189 89.2466 62.3745 89.5747C61.5443 89.8132 60.816 90.5087 60.069 90.9369C59.8194 91.08 59.5688 91.224 59.2986 91.3212C58.9873 91.4334 58.6563 91.4811 58.3291 91.5278C57.9654 91.5802 57.6017 91.6326 57.2371 91.6849C57.1295 91.6999 57.0164 91.7176 56.9295 91.7831C56.7537 91.9158 56.7631 92.201 56.8949 92.3777C57.0267 92.5544 57.2417 92.6469 57.4493 92.7189C58.4974 93.0836 59.6931 93.1125 60.6916 93.6099C61.3835 93.9559 61.9043 94.586 62.6073 94.9095C63.3852 95.2676 64.2968 95.2059 65.1223 94.9759C65.9469 94.7459 66.7192 94.3597 67.527 94.0765C68.0356 93.8979 68.5601 93.7558 69.092 93.6641C69.5829 93.5791 70.055 93.6987 70.5431 93.5407C70.6048 93.5202 70.6702 93.4949 70.7067 93.4407C70.773 93.3416 70.7039 93.1995 70.6001 93.1406C70.4963 93.0826 70.371 93.0807 70.2523 93.0686C69.6231 93.0031 69.1902 92.459 68.7564 92.0617C67.8486 91.2324 66.8566 90.4648 65.7309 89.9543Z" fill="#0096FB"/>
</g>
</g>
<g clip-path="url(#clip1_16_4525)">
<path d="M130.369 69.9083C129.168 69.7886 128.21 70.3139 127.271 70.9572C124.474 72.8737 121.546 72.8098 118.833 70.8223C118.248 70.3939 117.91 69.9134 118.364 69.2303C118.754 68.6442 119.367 68.6163 120.138 69.1123C122.472 70.6147 123.975 70.5921 126.305 69.0197C129.032 67.1784 132.153 67.2904 134.745 69.3107C135.308 69.7497 135.541 70.2632 135.081 70.8582C134.631 71.4418 134.048 71.4415 133.449 71.0198C132.531 70.3725 131.584 69.7949 130.369 69.9085V69.9083Z" fill="white"/>
<path d="M122.889 78.284C121.458 78.3357 119.984 77.6693 118.656 76.6424C118.124 76.2303 117.956 75.7062 118.391 75.1478C118.816 74.6022 119.39 74.5356 119.949 74.9428C120.993 75.7027 122.118 76.3481 123.45 76.0808C124.4 75.8903 125.376 75.5325 126.18 75.0173C129.016 73.1993 131.842 73.1936 134.566 75.1358C135.321 75.6741 135.508 76.2342 135.114 76.782C134.709 77.3459 134.096 77.3859 133.333 76.898C130.985 75.397 129.474 75.4035 127.169 76.9913C125.975 77.8143 124.674 78.2708 122.889 78.284Z" fill="white"/>
</g>
<path d="M166.528 69.6946C155.779 69.5788 147.123 60.8703 147.222 50.3264C147.323 39.539 155.983 30.9227 166.692 31.0005C177.62 31.08 186.005 39.9221 185.916 50.4241C185.824 61.203 177.082 69.8083 166.528 69.6946ZM150.132 43.0803C149.975 43.5353 149.819 43.9907 149.661 44.4453C148.589 47.519 148.308 50.6781 149.019 53.8415C150.568 60.7311 154.708 65.4456 161.486 67.4693C168.245 69.4875 174.239 67.7695 179.335 62.9175C179.873 62.4057 180.498 61.9779 180 60.9781C179.558 60.0916 179.426 59.0511 179.154 58.0793C179.138 58.0222 179.109 57.9639 179.071 57.9186C178.623 57.3875 178.681 56.8272 179.019 56.2872C179.294 55.8486 179.229 55.4839 178.985 55.051C178.661 54.4763 178.228 53.8646 178.194 53.2494C178.147 52.3989 178.137 51.7365 177.073 51.706C176.984 51.7034 176.899 51.573 176.809 51.5684C176.414 51.5478 175.959 51.4232 175.631 51.5709C174.636 52.0195 173.389 51.8405 172.674 51.0322C172.513 50.8503 172.354 50.6664 172.187 50.4895C171.616 49.8824 171.621 49.2076 171.879 48.4602C171.961 48.2208 171.834 47.9153 171.837 47.6405C171.84 47.4165 171.813 47.1128 171.94 46.9853C172.266 46.6591 172.699 46.4418 173.032 46.1216C173.248 45.914 173.47 45.6145 173.502 45.3342C173.565 44.7965 173.856 44.493 174.317 44.4052C175.344 44.2094 176.38 44.0472 177.42 43.9521C177.637 43.9323 177.959 44.2155 178.102 44.4415C178.311 44.7719 179.883 45.5326 180.259 45.3888C180.314 45.3681 180.375 45.3335 180.405 45.2872C180.793 44.6884 181.224 44.9529 181.721 45.1528C182.187 45.3408 182.711 45.4036 183.217 45.4688C183.348 45.4858 183.581 45.3392 183.636 45.2111C183.812 44.8076 183.225 44.0124 182.815 43.8487C182.465 43.7095 182.18 43.3964 181.888 43.1363C181.752 43.0153 181.666 42.8374 181.558 42.6853C181.409 42.8303 181.256 42.9718 181.111 43.1215C181.009 43.2278 180.917 43.3451 180.821 43.4576C180.709 43.3462 180.566 43.2518 180.492 43.1192C180.406 42.9649 180.431 42.7228 180.317 42.6138C179.928 42.2425 179.544 41.8187 179.072 41.5975C178.698 41.4219 178.498 41.7689 178.731 42.1154C178.902 42.3699 179.246 42.506 179.429 42.7562C179.557 42.9321 179.613 43.2256 179.567 43.4382C179.543 43.5506 179.234 43.6023 179.054 43.6815C179.523 43.3322 179.425 43.1033 179.047 42.833C178.736 42.61 178.451 42.349 178.143 42.121C178.042 42.046 177.877 41.951 177.785 41.9847C177.12 42.2296 176.379 42.3659 176.044 43.1277C175.751 43.7942 175.177 43.8361 174.558 43.7579C174.05 43.6937 173.9 43.3683 173.893 42.9054C173.887 42.4181 174.152 42.2002 174.593 42.1654C174.833 42.1464 175.089 42.2364 175.315 42.1824C175.483 42.1422 175.758 41.8659 175.741 41.8368C175.3 41.0772 175.78 40.8798 176.377 40.7173C176.5 40.6838 176.629 40.5659 176.696 40.4521C176.998 39.9403 177.437 39.7644 178.019 39.7676C178.208 39.7686 178.399 39.5304 178.589 39.4015C178.411 39.2509 178.233 39.1018 178.057 38.9494C177.765 38.6962 177.459 38.4545 177.206 38.1667C177.179 38.1359 177.427 37.7699 177.608 37.6649C178.538 37.1276 178.57 37.0053 177.706 36.3359C173.381 32.9833 168.516 31.7922 163.132 32.7733C160.79 33.2002 158.644 34.1311 156.666 35.4475C156.526 35.5403 156.432 35.7009 156.316 35.8299C156.475 35.8969 156.631 35.9694 156.792 36.0296C157.225 36.1918 157.656 36.3609 158.097 36.5034C158.38 36.5951 158.674 36.6682 158.969 36.7008C159.075 36.7126 159.198 36.582 159.313 36.5164C159.24 36.4108 159.19 36.2671 159.089 36.2065C158.69 35.9656 158.275 35.7506 157.841 35.512C158.315 35.0622 158.866 34.6864 159.375 35.1182C159.953 35.6079 160.46 35.8803 161.207 35.5129C160.92 35.7228 160.62 35.7962 160.346 35.9254C160.209 35.9899 160.008 36.1929 160.033 36.2692C160.083 36.422 160.275 36.6445 160.396 36.637C160.79 36.6123 161.181 36.5062 161.569 36.4142C161.952 36.3236 162.3 36.2035 162.055 35.6754C162.025 35.6104 162.149 35.3896 162.226 35.3754C162.437 35.3365 162.66 35.3697 162.879 35.3744C162.854 35.4983 162.79 35.631 162.814 35.7442C162.863 35.9654 162.961 36.1755 163.038 36.3903C163.219 36.2653 163.418 36.1602 163.574 36.01C163.752 35.8378 163.852 35.5502 164.055 35.4443C164.743 35.0852 166.212 35.3505 166.716 35.9346C166.928 36.18 167.035 36.5299 167.122 36.8507C167.133 36.8932 166.737 37.0431 166.532 37.1475C166.479 37.1746 166.427 37.2117 166.386 37.2544C165.93 37.7252 165.485 37.4828 164.951 37.2468C165.144 37.1179 165.282 37.0428 165.4 36.9425C165.544 36.8187 165.67 36.674 165.805 36.5384C165.617 36.4033 165.427 36.1527 165.242 36.1566C164.832 36.1651 164.369 36.2054 164.028 36.4045C163.158 36.9127 162.94 37.0398 162.11 37.139C161.952 37.158 161.789 37.2076 161.647 37.2789C161.303 37.4507 160.944 37.609 160.642 37.8398C160.41 38.0169 160.057 38.3662 160.109 38.5155C160.219 38.8262 160.558 39.058 160.808 39.3168C161.027 39.543 161.257 39.7579 161.474 39.9859C161.566 40.0822 161.635 40.2868 161.716 40.2873C161.848 40.288 162.001 40.1846 162.109 40.0859C162.314 39.8996 162.457 39.5869 162.69 39.5029C163.203 39.3177 163.313 38.9857 163.374 38.4929C163.406 38.2339 163.745 37.8116 163.936 37.8171C164.276 37.8268 164.784 38.0251 164.904 38.2889C165.11 38.7413 165.297 38.7499 165.687 38.6188C165.82 38.5743 166.078 38.6674 166.17 38.7835C166.373 39.0373 166.546 39.3322 166.655 39.6375C166.724 39.8304 166.68 40.2594 166.645 40.2642C166.052 40.3423 165.453 40.3744 164.856 40.407C164.629 40.4194 164.4 40.4078 164.173 40.407V41.0505C164.043 41.1033 163.838 41.1435 163.687 41.2564C163.123 41.6775 162.562 42.1044 162.031 42.5648C161.665 42.8813 161.348 43.2536 161.015 43.6069C160.65 43.9947 160.262 44.3663 159.94 44.7877C159.663 45.1496 159.463 45.5704 159.234 45.9677C159.177 46.0651 159.139 46.173 159.093 46.2761C158.982 46.2074 158.853 46.1567 158.764 46.066C158.604 45.9009 158.488 45.583 158.317 45.5543C157.301 45.3849 156.286 45.3808 155.427 46.0824C154.8 46.595 154.493 47.7542 154.904 48.2052C155.523 48.8826 156.111 48.4198 156.678 48.0558C156.695 48.0449 156.711 48.0287 156.73 48.0236C156.857 47.989 156.986 47.9567 157.114 47.9237C157.113 48.0569 157.088 48.1952 157.115 48.3221C157.16 48.5282 157.201 48.8758 157.309 48.9034C157.808 49.0302 157.884 49.3613 157.97 49.7941C158.035 50.1212 158.227 50.5713 158.484 50.6806C158.979 50.8916 159.551 51.0348 160.008 50.428C160.455 49.8331 160.966 49.8596 161.586 50.2402C161.913 50.4404 162.373 50.5787 162.738 50.5213C163.245 50.4414 163.499 50.5952 163.812 50.9588C164.059 51.2454 164.498 51.3578 164.821 51.59C165.122 51.8062 165.599 52.0593 165.623 52.3293C165.713 53.3532 166.455 53.5793 167.185 53.6069C168.043 53.6393 168.777 53.7839 169.281 54.5063C169.418 54.7032 169.543 55.1211 169.443 55.2357C168.793 55.9804 168.724 56.8813 168.62 57.7874C168.544 58.4505 168.157 58.7847 167.479 58.795C166.777 58.8057 166.528 59.1335 166.624 59.8484C166.658 60.1024 166.757 60.4471 166.637 60.6064C165.9 61.579 165.454 62.873 164.001 63.1116C163.875 63.1324 163.735 63.3876 163.698 63.5553C163.649 63.7723 163.689 64.0113 163.707 64.2397C163.718 64.3866 163.717 64.6302 163.791 64.661C164.274 64.8607 164.307 65.1852 164.194 65.6362C164.157 65.7868 164.322 65.9932 164.408 66.1677C164.482 66.3183 164.574 66.46 164.658 66.6056C164.469 66.6445 164.272 66.7339 164.091 66.7091C163.882 66.6806 163.651 66.5937 163.491 66.4593C162.612 65.7224 161.937 64.8863 162.079 63.6189C162.111 63.3277 161.912 63.0151 161.843 62.7071C161.759 62.3321 161.685 61.9533 161.637 61.5725C161.612 61.3765 161.679 61.1692 161.658 60.9721C161.577 60.2199 161.37 59.4639 161.411 58.7202C161.463 57.7645 161.019 57.2534 160.244 56.8787C160.052 56.7859 159.85 56.6589 159.724 56.4931C159.409 56.0765 159.157 55.612 158.84 55.1969C158.151 54.2951 158.249 53.3207 159.036 52.514C159.241 52.304 159.287 51.8622 159.264 51.537C159.252 51.361 158.948 51.0781 158.76 51.0647C158.026 51.0125 157.602 50.5175 157.056 50.1338C156.348 49.6356 155.689 48.9523 154.65 49.0415C153.589 49.1326 153.07 48.581 152.966 47.5194C152.942 47.2734 152.777 47.0397 152.67 46.8036C152.447 46.3128 152.23 45.8188 151.988 45.3378C151.917 45.1972 151.769 45.0959 151.656 44.9766C151.582 45.1422 151.413 45.3371 151.453 45.4681C151.587 45.9059 151.805 46.3173 151.97 46.7467C152.021 46.8806 152.008 47.0395 152.025 47.1869C151.868 47.1383 151.615 47.1329 151.57 47.0336C151.359 46.566 151.189 46.0772 151.036 45.5863C150.947 45.303 151.016 44.8481 150.842 44.7356C150.202 44.3209 150.155 43.7446 150.132 43.0805L150.132 43.0803ZM160.762 42.3716C160.917 42.4273 161.115 42.5344 161.32 42.549C161.378 42.5531 161.544 42.1909 161.512 42.1618C161.029 41.7273 160.558 41.2559 160.002 40.9364C159.749 40.7914 159.313 40.9429 158.968 41.0023C158.903 41.0133 158.854 41.2224 158.832 41.3463C158.794 41.5579 158.768 41.7743 158.766 41.989C158.764 42.1719 158.803 42.3553 158.823 42.5385C158.989 42.4636 159.192 42.4256 159.314 42.3055C159.529 42.0943 159.694 41.8329 159.88 41.5925L160.084 41.6893C160.019 41.9545 159.95 42.2186 159.893 42.4851C159.866 42.6078 159.806 42.7964 159.861 42.8465C159.945 42.9229 160.162 42.9701 160.239 42.9145C160.432 42.7748 160.578 42.5705 160.762 42.3714L160.762 42.3716Z" fill="white"/>
<path d="M212.643 69.6946C201.894 69.5788 193.238 60.8703 193.337 50.3264C193.438 39.539 202.099 30.9227 212.808 31.0005C223.735 31.08 232.12 39.9221 232.031 50.4241C231.94 61.203 223.197 69.8083 212.643 69.6946ZM196.248 43.0803C196.091 43.5353 195.935 43.9907 195.776 44.4453C194.705 47.519 194.423 50.6781 195.134 53.8415C196.683 60.7311 200.823 65.4456 207.601 67.4693C214.36 69.4875 220.354 67.7695 225.451 62.9175C225.988 62.4057 226.614 61.9779 226.115 60.9781C225.674 60.0916 225.541 59.0511 225.27 58.0793C225.254 58.0222 225.224 57.9639 225.186 57.9186C224.739 57.3875 224.796 56.8272 225.135 56.2872C225.41 55.8486 225.344 55.4839 225.1 55.051C224.777 54.4763 224.343 53.8646 224.309 53.2494C224.262 52.3989 224.253 51.7365 223.188 51.706C223.099 51.7034 223.015 51.573 222.925 51.5684C222.529 51.5478 222.074 51.4232 221.746 51.5709C220.751 52.0195 219.505 51.8405 218.789 51.0322C218.628 50.8503 218.469 50.6664 218.303 50.4895C217.731 49.8824 217.737 49.2076 217.994 48.4602C218.076 48.2208 217.949 47.9153 217.953 47.6405C217.955 47.4165 217.928 47.1128 218.056 46.9853C218.381 46.6591 218.815 46.4418 219.148 46.1216C219.364 45.914 219.585 45.6145 219.618 45.3342C219.681 44.7965 219.972 44.493 220.432 44.4052C221.459 44.2094 222.495 44.0472 223.535 43.9521C223.752 43.9323 224.074 44.2155 224.217 44.4415C224.427 44.7719 225.999 45.5326 226.375 45.3888C226.429 45.3681 226.49 45.3335 226.52 45.2872C226.909 44.6884 227.34 44.9529 227.836 45.1528C228.303 45.3408 228.827 45.4036 229.332 45.4688C229.464 45.4858 229.696 45.3392 229.752 45.2111C229.928 44.8076 229.34 44.0124 228.93 43.8487C228.581 43.7095 228.295 43.3964 228.003 43.1363C227.867 43.0153 227.782 42.8374 227.673 42.6853C227.524 42.8303 227.371 42.9718 227.227 43.1215C227.124 43.2278 227.033 43.3451 226.937 43.4576C226.824 43.3462 226.682 43.2518 226.608 43.1192C226.521 42.9649 226.547 42.7228 226.433 42.6138C226.044 42.2425 225.659 41.8187 225.188 41.5975C224.813 41.4219 224.614 41.7689 224.847 42.1154C225.018 42.3699 225.361 42.506 225.544 42.7562C225.673 42.9321 225.728 43.2256 225.683 43.4382C225.659 43.5506 225.35 43.6023 225.17 43.6815C225.639 43.3322 225.541 43.1033 225.163 42.833C224.851 42.61 224.567 42.349 224.259 42.121C224.157 42.046 223.992 41.951 223.9 41.9847C223.235 42.2296 222.494 42.3659 222.159 43.1277C221.866 43.7942 221.293 43.8361 220.673 43.7579C220.165 43.6937 220.015 43.3683 220.009 42.9054C220.002 42.4181 220.268 42.2002 220.709 42.1654C220.948 42.1464 221.204 42.2364 221.43 42.1824C221.598 42.1422 221.873 41.8659 221.856 41.8368C221.415 41.0772 221.896 40.8798 222.492 40.7173C222.615 40.6838 222.744 40.5659 222.812 40.4521C223.113 39.9403 223.552 39.7644 224.134 39.7676C224.324 39.7686 224.514 39.5304 224.704 39.4015C224.527 39.2509 224.348 39.1018 224.172 38.9494C223.88 38.6962 223.575 38.4545 223.322 38.1667C223.295 38.1359 223.542 37.7699 223.724 37.6649C224.653 37.1276 224.686 37.0053 223.822 36.3359C219.496 32.9833 214.632 31.7922 209.248 32.7733C206.906 33.2002 204.76 34.1311 202.781 35.4475C202.642 35.5403 202.547 35.7009 202.432 35.8299C202.59 35.8969 202.746 35.9694 202.907 36.0296C203.34 36.1918 203.772 36.3609 204.212 36.5034C204.495 36.5951 204.789 36.6682 205.084 36.7008C205.191 36.7126 205.313 36.582 205.429 36.5164C205.355 36.4108 205.305 36.2671 205.205 36.2065C204.806 35.9656 204.391 35.7506 203.957 35.512C204.43 35.0622 204.981 34.6864 205.491 35.1182C206.069 35.6079 206.575 35.8803 207.323 35.5129C207.035 35.7228 206.735 35.7962 206.461 35.9254C206.324 35.9899 206.124 36.1929 206.149 36.2692C206.198 36.422 206.391 36.6445 206.511 36.637C206.906 36.6123 207.296 36.5062 207.685 36.4142C208.067 36.3236 208.415 36.2035 208.17 35.6754C208.14 35.6104 208.264 35.3896 208.342 35.3754C208.552 35.3365 208.776 35.3697 208.994 35.3744C208.97 35.4983 208.905 35.631 208.93 35.7442C208.978 35.9654 209.076 36.1755 209.154 36.3903C209.334 36.2653 209.534 36.1602 209.69 36.01C209.868 35.8378 209.968 35.5502 210.171 35.4443C210.858 35.0852 212.328 35.3505 212.832 35.9346C213.043 36.18 213.151 36.5299 213.237 36.8507C213.249 36.8932 212.853 37.0431 212.647 37.1475C212.594 37.1746 212.543 37.2117 212.501 37.2544C212.046 37.7252 211.6 37.4828 211.066 37.2468C211.259 37.1179 211.398 37.0428 211.515 36.9425C211.659 36.8187 211.786 36.674 211.92 36.5384C211.732 36.4033 211.542 36.1527 211.357 36.1566C210.948 36.1651 210.485 36.2054 210.144 36.4045C209.273 36.9127 209.056 37.0398 208.226 37.139C208.067 37.158 207.905 37.2076 207.762 37.2789C207.419 37.4507 207.059 37.609 206.757 37.8398C206.525 38.0169 206.173 38.3662 206.225 38.5155C206.334 38.8262 206.673 39.058 206.923 39.3168C207.142 39.543 207.373 39.7579 207.59 39.9859C207.681 40.0822 207.751 40.2868 207.831 40.2873C207.963 40.288 208.116 40.1846 208.225 40.0859C208.429 39.8996 208.573 39.5869 208.805 39.5029C209.319 39.3177 209.429 38.9857 209.489 38.4929C209.521 38.2339 209.861 37.8116 210.051 37.8171C210.391 37.8268 210.9 38.0251 211.02 38.2889C211.225 38.7413 211.413 38.7499 211.803 38.6188C211.936 38.5743 212.193 38.6674 212.286 38.7835C212.489 39.0373 212.661 39.3322 212.77 39.6375C212.839 39.8304 212.795 40.2594 212.76 40.2642C212.168 40.3423 211.569 40.3744 210.971 40.407C210.744 40.4194 210.516 40.4078 210.288 40.407V41.0505C210.158 41.1033 209.953 41.1435 209.802 41.2564C209.239 41.6775 208.677 42.1044 208.146 42.5648C207.781 42.8813 207.463 43.2536 207.131 43.6069C206.766 43.9947 206.377 44.3663 206.055 44.7877C205.778 45.1496 205.578 45.5704 205.349 45.9677C205.293 46.0651 205.255 46.173 205.209 46.2761C205.098 46.2074 204.968 46.1567 204.88 46.066C204.719 45.9009 204.604 45.583 204.432 45.5543C203.416 45.3849 202.402 45.3808 201.543 46.0824C200.915 46.595 200.608 47.7542 201.02 48.2052C201.638 48.8826 202.227 48.4198 202.794 48.0558C202.811 48.0449 202.827 48.0287 202.845 48.0236C202.973 47.989 203.101 47.9567 203.229 47.9237C203.228 48.0569 203.204 48.1952 203.231 48.3221C203.275 48.5282 203.316 48.8758 203.425 48.9034C203.923 49.0302 203.999 49.3613 204.085 49.7941C204.151 50.1212 204.342 50.5713 204.599 50.6806C205.095 50.8916 205.666 51.0348 206.123 50.428C206.571 49.8331 207.082 49.8596 207.702 50.2402C208.028 50.4404 208.488 50.5787 208.853 50.5213C209.36 50.4414 209.614 50.5952 209.927 50.9588C210.174 51.2454 210.613 51.3578 210.936 51.59C211.237 51.8062 211.714 52.0593 211.738 52.3293C211.828 53.3532 212.57 53.5793 213.301 53.6069C214.159 53.6393 214.893 53.7839 215.396 54.5063C215.533 54.7032 215.659 55.1211 215.558 55.2357C214.908 55.9804 214.84 56.8813 214.736 57.7874C214.659 58.4505 214.273 58.7847 213.595 58.795C212.892 58.8057 212.643 59.1335 212.74 59.8484C212.774 60.1024 212.873 60.4471 212.752 60.6064C212.015 61.579 211.569 62.873 210.117 63.1116C209.99 63.1324 209.851 63.3876 209.813 63.5553C209.765 63.7723 209.805 64.0113 209.822 64.2397C209.834 64.3866 209.832 64.6302 209.907 64.661C210.39 64.8607 210.422 65.1852 210.31 65.6362C210.272 65.7868 210.438 65.9932 210.524 66.1677C210.597 66.3183 210.69 66.46 210.774 66.6056C210.584 66.6445 210.388 66.7339 210.207 66.7091C209.997 66.6806 209.766 66.5937 209.606 66.4593C208.727 65.7224 208.053 64.8863 208.194 63.6189C208.227 63.3277 208.027 63.0151 207.958 62.7071C207.874 62.3321 207.801 61.9533 207.752 61.5725C207.727 61.3765 207.794 61.1692 207.773 60.9721C207.692 60.2199 207.485 59.4639 207.526 58.7202C207.578 57.7645 207.135 57.2534 206.359 56.8787C206.167 56.7859 205.965 56.6589 205.84 56.4931C205.524 56.0765 205.272 55.612 204.955 55.1969C204.267 54.2951 204.364 53.3207 205.152 52.514C205.357 52.304 205.403 51.8622 205.38 51.537C205.367 51.361 205.063 51.0781 204.875 51.0647C204.141 51.0125 203.717 50.5175 203.172 50.1338C202.464 49.6356 201.804 48.9523 200.765 49.0415C199.705 49.1326 199.186 48.581 199.082 47.5194C199.058 47.2734 198.892 47.0397 198.785 46.8036C198.562 46.3128 198.346 45.8188 198.103 45.3378C198.033 45.1972 197.884 45.0959 197.771 44.9766C197.698 45.1422 197.528 45.3371 197.568 45.4681C197.702 45.9059 197.92 46.3173 198.085 46.7467C198.137 46.8806 198.124 47.0395 198.14 47.1869C197.983 47.1383 197.731 47.1329 197.686 47.0336C197.474 46.566 197.305 46.0772 197.151 45.5863C197.062 45.303 197.131 44.8481 196.958 44.7356C196.317 44.3209 196.271 43.7446 196.248 43.0805L196.248 43.0803ZM206.877 42.3716C207.032 42.4273 207.231 42.5344 207.435 42.549C207.494 42.5531 207.659 42.1909 207.627 42.1618C207.144 41.7273 206.673 41.2559 206.117 40.9364C205.865 40.7914 205.429 40.9429 205.083 41.0023C205.019 41.0133 204.969 41.2224 204.947 41.3463C204.909 41.5579 204.884 41.7743 204.882 41.989C204.88 42.1719 204.918 42.3553 204.938 42.5385C205.105 42.4636 205.307 42.4256 205.429 42.3055C205.644 42.0943 205.81 41.8329 205.996 41.5925L206.199 41.6893C206.135 41.9545 206.066 42.2186 206.008 42.4851C205.982 42.6078 205.922 42.7964 205.977 42.8465C206.06 42.9229 206.277 42.9701 206.354 42.9145C206.547 42.7748 206.693 42.5705 206.878 42.3714L206.877 42.3716Z" fill="white"/>
<path d="M166.528 114.999C155.779 114.883 147.123 106.175 147.222 95.6307C147.323 84.8433 155.983 76.227 166.692 76.3048C177.62 76.3843 186.005 85.2264 185.916 95.7284C185.824 106.507 177.082 115.113 166.528 114.999ZM150.132 88.3846C149.975 88.8397 149.819 89.2951 149.661 89.7496C148.589 92.8234 148.308 95.9824 149.019 99.1458C150.568 106.035 154.708 110.75 161.486 112.774C168.245 114.792 174.239 113.074 179.335 108.222C179.873 107.71 180.498 107.282 180 106.282C179.558 105.396 179.426 104.355 179.154 103.384C179.138 103.327 179.109 103.268 179.071 103.223C178.623 102.692 178.681 102.131 179.019 101.592C179.294 101.153 179.229 100.788 178.985 100.355C178.661 99.7806 178.228 99.1689 178.194 98.5537C178.147 97.7032 178.137 97.0408 177.073 97.0103C176.984 97.0078 176.899 96.8773 176.809 96.8727C176.414 96.8521 175.959 96.7275 175.631 96.8752C174.636 97.3238 173.389 97.1448 172.674 96.3365C172.513 96.1546 172.354 95.9707 172.187 95.7939C171.616 95.1867 171.621 94.512 171.879 93.7645C171.961 93.5251 171.834 93.2196 171.837 92.9448C171.84 92.7208 171.813 92.4172 171.94 92.2896C172.266 91.9635 172.699 91.7461 173.032 91.4259C173.248 91.2183 173.47 90.9188 173.502 90.6386C173.565 90.1008 173.856 89.7974 174.317 89.7095C175.344 89.5137 176.38 89.3515 177.42 89.2564C177.637 89.2366 177.959 89.5198 178.102 89.7458C178.311 90.0763 179.883 90.8369 180.259 90.6931C180.314 90.6724 180.375 90.6378 180.405 90.5915C180.793 89.9927 181.224 90.2572 181.721 90.4571C182.187 90.6451 182.711 90.7079 183.217 90.7731C183.348 90.7902 183.581 90.6435 183.636 90.5154C183.812 90.112 183.225 89.3167 182.815 89.1531C182.465 89.0138 182.18 88.7007 181.888 88.4406C181.752 88.3196 181.666 88.1417 181.558 87.9896C181.409 88.1346 181.256 88.2761 181.111 88.4258C181.009 88.5321 180.917 88.6494 180.821 88.7619C180.709 88.6505 180.566 88.5561 180.492 88.4235C180.406 88.2692 180.431 88.0271 180.317 87.9182C179.928 87.5468 179.544 87.123 179.072 86.9018C178.698 86.7263 178.498 87.0732 178.731 87.4198C178.902 87.6742 179.246 87.8103 179.429 88.0605C179.557 88.2364 179.613 88.5299 179.567 88.7425C179.543 88.855 179.234 88.9066 179.054 88.9858C179.523 88.6366 179.425 88.4076 179.047 88.1373C178.736 87.9143 178.451 87.6534 178.143 87.4253C178.042 87.3503 177.877 87.2553 177.785 87.2891C177.12 87.5339 176.379 87.6702 176.044 88.432C175.751 89.0985 175.177 89.1404 174.558 89.0622C174.05 88.9981 173.9 88.6726 173.893 88.2097C173.887 87.7225 174.152 87.5045 174.593 87.4697C174.833 87.4507 175.089 87.5407 175.315 87.4867C175.483 87.4465 175.758 87.1703 175.741 87.1411C175.3 86.3815 175.78 86.1841 176.377 86.0216C176.5 85.9881 176.629 85.8702 176.696 85.7564C176.998 85.2447 177.437 85.0688 178.019 85.0719C178.208 85.0729 178.399 84.8347 178.589 84.7058C178.411 84.5552 178.233 84.4061 178.057 84.2537C177.765 84.0005 177.459 83.7588 177.206 83.471C177.179 83.4402 177.427 83.0742 177.608 82.9692C178.538 82.4319 178.57 82.3096 177.706 81.6402C173.381 78.2877 168.516 77.0965 163.132 78.0776C160.79 78.5045 158.644 79.4355 156.666 80.7519C156.526 80.8447 156.432 81.0052 156.316 81.1343C156.475 81.2012 156.631 81.2737 156.792 81.334C157.225 81.4961 157.656 81.6652 158.097 81.8077C158.38 81.8994 158.674 81.9725 158.969 82.0051C159.075 82.0169 159.198 81.8863 159.313 81.8207C159.24 81.7151 159.19 81.5714 159.089 81.5108C158.69 81.2699 158.275 81.0549 157.841 80.8164C158.315 80.3665 158.866 79.9907 159.375 80.4225C159.953 80.9122 160.46 81.1847 161.207 80.8172C160.92 81.0271 160.62 81.1005 160.346 81.2297C160.209 81.2942 160.008 81.4972 160.033 81.5735C160.083 81.7263 160.275 81.9489 160.396 81.9413C160.79 81.9167 161.181 81.8105 161.569 81.7185C161.952 81.6279 162.3 81.5078 162.055 80.9797C162.025 80.9147 162.149 80.6939 162.226 80.6797C162.437 80.6408 162.66 80.674 162.879 80.6787C162.854 80.8026 162.79 80.9353 162.814 81.0485C162.863 81.2697 162.961 81.4798 163.038 81.6946C163.219 81.5696 163.418 81.4645 163.574 81.3143C163.752 81.1421 163.852 80.8545 164.055 80.7486C164.743 80.3895 166.212 80.6548 166.716 81.239C166.928 81.4843 167.035 81.8342 167.122 82.155C167.133 82.1975 166.737 82.3474 166.532 82.4519C166.479 82.479 166.427 82.516 166.386 82.5588C165.93 83.0295 165.485 82.7871 164.951 82.5511C165.144 82.4222 165.282 82.3472 165.4 82.2468C165.544 82.123 165.67 81.9784 165.805 81.8427C165.617 81.7076 165.427 81.457 165.242 81.4609C164.832 81.4694 164.369 81.5097 164.028 81.7088C163.158 82.2171 162.94 82.3441 162.11 82.4434C161.952 82.4623 161.789 82.5119 161.647 82.5832C161.303 82.7551 160.944 82.9133 160.642 83.1441C160.41 83.3213 160.057 83.6705 160.109 83.8198C160.219 84.1305 160.558 84.3623 160.808 84.6211C161.027 84.8473 161.257 85.0622 161.474 85.2902C161.566 85.3865 161.635 85.5911 161.716 85.5916C161.848 85.5923 162.001 85.4889 162.109 85.3902C162.314 85.204 162.457 84.8912 162.69 84.8072C163.203 84.622 163.313 84.29 163.374 83.7972C163.406 83.5382 163.745 83.116 163.936 83.1214C164.276 83.1311 164.784 83.3294 164.904 83.5932C165.11 84.0456 165.297 84.0542 165.687 83.9232C165.82 83.8786 166.078 83.9717 166.17 84.0879C166.373 84.3416 166.546 84.6366 166.655 84.9418C166.724 85.1347 166.68 85.5638 166.645 85.5685C166.052 85.6466 165.453 85.6787 164.856 85.7114C164.629 85.7238 164.4 85.7121 164.173 85.7114V86.3548C164.043 86.4076 163.838 86.4479 163.687 86.5607C163.123 86.9818 162.562 87.4087 162.031 87.8691C161.665 88.1856 161.348 88.558 161.015 88.9112C160.65 89.2991 160.262 89.6707 159.94 90.092C159.663 90.4539 159.463 90.8747 159.234 91.272C159.177 91.3695 159.139 91.4773 159.093 91.5805C158.982 91.5117 158.853 91.461 158.764 91.3703C158.604 91.2052 158.488 90.8873 158.317 90.8587C157.301 90.6892 156.286 90.6851 155.427 91.3867C154.8 91.8993 154.493 93.0585 154.904 93.5096C155.523 94.1869 156.111 93.7241 156.678 93.3602C156.695 93.3492 156.711 93.3331 156.73 93.328C156.857 93.2933 156.986 93.261 157.114 93.228C157.113 93.3613 157.088 93.4995 157.115 93.6264C157.16 93.8326 157.201 94.1801 157.309 94.2077C157.808 94.3345 157.884 94.6656 157.97 95.0984C158.035 95.4256 158.227 95.8756 158.484 95.9849C158.979 96.1959 159.551 96.3392 160.008 95.7323C160.455 95.1374 160.966 95.1639 161.586 95.5445C161.913 95.7447 162.373 95.883 162.738 95.8256C163.245 95.7458 163.499 95.8996 163.812 96.2631C164.059 96.5497 164.498 96.6622 164.821 96.8943C165.122 97.1105 165.599 97.3637 165.623 97.6336C165.713 98.6575 166.455 98.8837 167.185 98.9112C168.043 98.9437 168.777 99.0882 169.281 99.8106C169.418 100.008 169.543 100.425 169.443 100.54C168.793 101.285 168.724 102.186 168.62 103.092C168.544 103.755 168.157 104.089 167.479 104.099C166.777 104.11 166.528 104.438 166.624 105.153C166.658 105.407 166.757 105.751 166.637 105.911C165.9 106.883 165.454 108.177 164.001 108.416C163.875 108.437 163.735 108.692 163.698 108.86C163.649 109.077 163.689 109.316 163.707 109.544C163.718 109.691 163.717 109.935 163.791 109.965C164.274 110.165 164.307 110.49 164.194 110.94C164.157 111.091 164.322 111.297 164.408 111.472C164.482 111.623 164.574 111.764 164.658 111.91C164.469 111.949 164.272 112.038 164.091 112.013C163.882 111.985 163.651 111.898 163.491 111.764C162.612 111.027 161.937 110.191 162.079 108.923C162.111 108.632 161.912 108.319 161.843 108.011C161.759 107.636 161.685 107.258 161.637 106.877C161.612 106.681 161.679 106.474 161.658 106.276C161.577 105.524 161.37 104.768 161.411 104.025C161.463 103.069 161.019 102.558 160.244 102.183C160.052 102.09 159.85 101.963 159.724 101.797C159.409 101.381 159.157 100.916 158.84 100.501C158.151 99.5994 158.249 98.625 159.036 97.8183C159.241 97.6083 159.287 97.1665 159.264 96.8413C159.252 96.6653 158.948 96.3824 158.76 96.369C158.026 96.3168 157.602 95.8218 157.056 95.4381C156.348 94.9399 155.689 94.2566 154.65 94.3458C153.589 94.4369 153.07 93.8853 152.966 92.8237C152.942 92.5777 152.777 92.344 152.67 92.1079C152.447 91.6171 152.23 91.1231 151.988 90.6421C151.917 90.5015 151.769 90.4002 151.656 90.2809C151.582 90.4465 151.413 90.6415 151.453 90.7724C151.587 91.2102 151.805 91.6216 151.97 92.051C152.021 92.1849 152.008 92.3438 152.025 92.4913C151.868 92.4427 151.615 92.4372 151.57 92.338C151.359 91.8703 151.189 91.3815 151.036 90.8906C150.947 90.6073 151.016 90.1524 150.842 90.0399C150.202 89.6252 150.155 89.049 150.132 88.3849L150.132 88.3846ZM160.762 87.6759C160.917 87.7316 161.115 87.8387 161.32 87.8533C161.378 87.8574 161.544 87.4952 161.512 87.4662C161.029 87.0317 160.558 86.5602 160.002 86.2407C159.749 86.0957 159.313 86.2472 158.968 86.3066C158.903 86.3176 158.854 86.5267 158.832 86.6506C158.794 86.8622 158.768 87.0787 158.766 87.2933C158.764 87.4762 158.803 87.6597 158.823 87.8428C158.989 87.7679 159.192 87.7299 159.314 87.6099C159.529 87.3986 159.694 87.1372 159.88 86.8968L160.084 86.9936C160.019 87.2588 159.95 87.5229 159.893 87.7894C159.866 87.9121 159.806 88.1007 159.861 88.1508C159.945 88.2272 160.162 88.2744 160.239 88.2188C160.432 88.0791 160.578 87.8748 160.762 87.6757L160.762 87.6759Z" fill="white"/>
<path d="M212.643 114.999C201.894 114.883 193.238 106.175 193.337 95.6307C193.438 84.8433 202.099 76.227 212.808 76.3048C223.735 76.3843 232.12 85.2264 232.031 95.7284C231.94 106.507 223.197 115.113 212.643 114.999ZM196.248 88.3846C196.091 88.8397 195.935 89.2951 195.776 89.7496C194.705 92.8234 194.423 95.9824 195.134 99.1458C196.683 106.035 200.823 110.75 207.601 112.774C214.36 114.792 220.354 113.074 225.451 108.222C225.988 107.71 226.614 107.282 226.115 106.282C225.674 105.396 225.541 104.355 225.27 103.384C225.254 103.327 225.224 103.268 225.186 103.223C224.739 102.692 224.796 102.131 225.135 101.592C225.41 101.153 225.344 100.788 225.1 100.355C224.777 99.7806 224.343 99.1689 224.309 98.5537C224.262 97.7032 224.253 97.0408 223.188 97.0103C223.099 97.0078 223.015 96.8773 222.925 96.8727C222.529 96.8521 222.074 96.7275 221.746 96.8752C220.751 97.3238 219.505 97.1448 218.789 96.3365C218.628 96.1546 218.469 95.9707 218.303 95.7939C217.731 95.1867 217.737 94.512 217.994 93.7645C218.076 93.5251 217.949 93.2196 217.953 92.9448C217.955 92.7208 217.928 92.4172 218.056 92.2896C218.381 91.9635 218.815 91.7461 219.148 91.4259C219.364 91.2183 219.585 90.9188 219.618 90.6386C219.681 90.1008 219.972 89.7974 220.432 89.7095C221.459 89.5137 222.495 89.3515 223.535 89.2564C223.752 89.2366 224.074 89.5198 224.217 89.7458C224.427 90.0763 225.999 90.8369 226.375 90.6931C226.429 90.6724 226.49 90.6378 226.52 90.5915C226.909 89.9927 227.34 90.2572 227.836 90.4571C228.303 90.6451 228.827 90.7079 229.332 90.7731C229.464 90.7902 229.696 90.6435 229.752 90.5154C229.928 90.112 229.34 89.3167 228.93 89.1531C228.581 89.0138 228.295 88.7007 228.003 88.4406C227.867 88.3196 227.782 88.1417 227.673 87.9896C227.524 88.1346 227.371 88.2761 227.227 88.4258C227.124 88.5321 227.033 88.6494 226.937 88.7619C226.824 88.6505 226.682 88.5561 226.608 88.4235C226.521 88.2692 226.547 88.0271 226.433 87.9182C226.044 87.5468 225.659 87.123 225.188 86.9018C224.813 86.7263 224.614 87.0732 224.847 87.4198C225.018 87.6742 225.361 87.8103 225.544 88.0605C225.673 88.2364 225.728 88.5299 225.683 88.7425C225.659 88.855 225.35 88.9066 225.17 88.9858C225.639 88.6366 225.541 88.4076 225.163 88.1373C224.851 87.9143 224.567 87.6534 224.259 87.4253C224.157 87.3503 223.992 87.2553 223.9 87.2891C223.235 87.5339 222.494 87.6702 222.159 88.432C221.866 89.0985 221.293 89.1404 220.673 89.0622C220.165 88.9981 220.015 88.6726 220.009 88.2097C220.002 87.7225 220.268 87.5045 220.709 87.4697C220.948 87.4507 221.204 87.5407 221.43 87.4867C221.598 87.4465 221.873 87.1703 221.856 87.1411C221.415 86.3815 221.896 86.1841 222.492 86.0216C222.615 85.9881 222.744 85.8702 222.812 85.7564C223.113 85.2447 223.552 85.0688 224.134 85.0719C224.324 85.0729 224.514 84.8347 224.704 84.7058C224.527 84.5552 224.348 84.4061 224.172 84.2537C223.88 84.0005 223.575 83.7588 223.322 83.471C223.295 83.4402 223.542 83.0742 223.724 82.9692C224.653 82.4319 224.686 82.3096 223.822 81.6402C219.496 78.2877 214.632 77.0965 209.248 78.0776C206.906 78.5045 204.76 79.4355 202.781 80.7519C202.642 80.8447 202.547 81.0052 202.432 81.1343C202.59 81.2012 202.746 81.2737 202.907 81.334C203.34 81.4961 203.772 81.6652 204.212 81.8077C204.495 81.8994 204.789 81.9725 205.084 82.0051C205.191 82.0169 205.313 81.8863 205.429 81.8207C205.355 81.7151 205.305 81.5714 205.205 81.5108C204.806 81.2699 204.391 81.0549 203.957 80.8164C204.43 80.3665 204.981 79.9907 205.491 80.4225C206.069 80.9122 206.575 81.1847 207.323 80.8172C207.035 81.0271 206.735 81.1005 206.461 81.2297C206.324 81.2942 206.124 81.4972 206.149 81.5735C206.198 81.7263 206.391 81.9489 206.511 81.9413C206.906 81.9167 207.296 81.8105 207.685 81.7185C208.067 81.6279 208.415 81.5078 208.17 80.9797C208.14 80.9147 208.264 80.6939 208.342 80.6797C208.552 80.6408 208.776 80.674 208.994 80.6787C208.97 80.8026 208.905 80.9353 208.93 81.0485C208.978 81.2697 209.076 81.4798 209.154 81.6946C209.334 81.5696 209.534 81.4645 209.69 81.3143C209.868 81.1421 209.968 80.8545 210.171 80.7486C210.858 80.3895 212.328 80.6548 212.832 81.239C213.043 81.4843 213.151 81.8342 213.237 82.155C213.249 82.1975 212.853 82.3474 212.647 82.4519C212.594 82.479 212.543 82.516 212.501 82.5588C212.046 83.0295 211.6 82.7871 211.066 82.5511C211.259 82.4222 211.398 82.3472 211.515 82.2468C211.659 82.123 211.786 81.9784 211.92 81.8427C211.732 81.7076 211.542 81.457 211.357 81.4609C210.948 81.4694 210.485 81.5097 210.144 81.7088C209.273 82.2171 209.056 82.3441 208.226 82.4434C208.067 82.4623 207.905 82.5119 207.762 82.5832C207.419 82.7551 207.059 82.9133 206.757 83.1441C206.525 83.3213 206.173 83.6705 206.225 83.8198C206.334 84.1305 206.673 84.3623 206.923 84.6211C207.142 84.8473 207.373 85.0622 207.59 85.2902C207.681 85.3865 207.751 85.5911 207.831 85.5916C207.963 85.5923 208.116 85.4889 208.225 85.3902C208.429 85.204 208.573 84.8912 208.805 84.8072C209.319 84.622 209.429 84.29 209.489 83.7972C209.521 83.5382 209.861 83.116 210.051 83.1214C210.391 83.1311 210.9 83.3294 211.02 83.5932C211.225 84.0456 211.413 84.0542 211.803 83.9232C211.936 83.8786 212.193 83.9717 212.286 84.0879C212.489 84.3416 212.661 84.6366 212.77 84.9418C212.839 85.1347 212.795 85.5638 212.76 85.5685C212.168 85.6466 211.569 85.6787 210.971 85.7114C210.744 85.7238 210.516 85.7121 210.288 85.7114V86.3548C210.158 86.4076 209.953 86.4479 209.802 86.5607C209.239 86.9818 208.677 87.4087 208.146 87.8691C207.781 88.1856 207.463 88.558 207.131 88.9112C206.766 89.2991 206.377 89.6707 206.055 90.092C205.778 90.4539 205.578 90.8747 205.349 91.272C205.293 91.3695 205.255 91.4773 205.209 91.5805C205.098 91.5117 204.968 91.461 204.88 91.3703C204.719 91.2052 204.604 90.8873 204.432 90.8587C203.416 90.6892 202.402 90.6851 201.543 91.3867C200.915 91.8993 200.608 93.0585 201.02 93.5096C201.638 94.1869 202.227 93.7241 202.794 93.3602C202.811 93.3492 202.827 93.3331 202.845 93.328C202.973 93.2933 203.101 93.261 203.229 93.228C203.228 93.3613 203.204 93.4995 203.231 93.6264C203.275 93.8326 203.316 94.1801 203.425 94.2077C203.923 94.3345 203.999 94.6656 204.085 95.0984C204.151 95.4256 204.342 95.8756 204.599 95.9849C205.095 96.1959 205.666 96.3392 206.123 95.7323C206.571 95.1374 207.082 95.1639 207.702 95.5445C208.028 95.7447 208.488 95.883 208.853 95.8256C209.36 95.7458 209.614 95.8996 209.927 96.2631C210.174 96.5497 210.613 96.6622 210.936 96.8943C211.237 97.1105 211.714 97.3637 211.738 97.6336C211.828 98.6575 212.57 98.8837 213.301 98.9112C214.159 98.9437 214.893 99.0882 215.396 99.8106C215.533 100.008 215.659 100.425 215.558 100.54C214.908 101.285 214.84 102.186 214.736 103.092C214.659 103.755 214.273 104.089 213.595 104.099C212.892 104.11 212.643 104.438 212.74 105.153C212.774 105.407 212.873 105.751 212.752 105.911C212.015 106.883 211.569 108.177 210.117 108.416C209.99 108.437 209.851 108.692 209.813 108.86C209.765 109.077 209.805 109.316 209.822 109.544C209.834 109.691 209.832 109.935 209.907 109.965C210.39 110.165 210.422 110.49 210.31 110.94C210.272 111.091 210.438 111.297 210.524 111.472C210.597 111.623 210.69 111.764 210.774 111.91C210.584 111.949 210.388 112.038 210.207 112.013C209.997 111.985 209.766 111.898 209.606 111.764C208.727 111.027 208.053 110.191 208.194 108.923C208.227 108.632 208.027 108.319 207.958 108.011C207.874 107.636 207.801 107.258 207.752 106.877C207.727 106.681 207.794 106.474 207.773 106.276C207.692 105.524 207.485 104.768 207.526 104.025C207.578 103.069 207.135 102.558 206.359 102.183C206.167 102.09 205.965 101.963 205.84 101.797C205.524 101.381 205.272 100.916 204.955 100.501C204.267 99.5994 204.364 98.625 205.152 97.8183C205.357 97.6083 205.403 97.1665 205.38 96.8413C205.367 96.6653 205.063 96.3824 204.875 96.369C204.141 96.3168 203.717 95.8218 203.172 95.4381C202.464 94.9399 201.804 94.2566 200.765 94.3458C199.705 94.4369 199.186 93.8853 199.082 92.8237C199.058 92.5777 198.892 92.344 198.785 92.1079C198.562 91.6171 198.346 91.1231 198.103 90.6421C198.033 90.5015 197.884 90.4002 197.771 90.2809C197.698 90.4465 197.528 90.6415 197.568 90.7724C197.702 91.2102 197.92 91.6216 198.085 92.051C198.137 92.1849 198.124 92.3438 198.14 92.4913C197.983 92.4427 197.731 92.4372 197.686 92.338C197.474 91.8703 197.305 91.3815 197.151 90.8906C197.062 90.6073 197.131 90.1524 196.958 90.0399C196.317 89.6252 196.271 89.049 196.248 88.3849L196.248 88.3846ZM206.877 87.6759C207.032 87.7316 207.231 87.8387 207.435 87.8533C207.494 87.8574 207.659 87.4952 207.627 87.4662C207.144 87.0317 206.673 86.5602 206.117 86.2407C205.865 86.0957 205.429 86.2472 205.083 86.3066C205.019 86.3176 204.969 86.5267 204.947 86.6506C204.909 86.8622 204.884 87.0787 204.882 87.2933C204.88 87.4762 204.918 87.6597 204.938 87.8428C205.105 87.7679 205.307 87.7299 205.429 87.6099C205.644 87.3986 205.81 87.1372 205.996 86.8968L206.199 86.9936C206.135 87.2588 206.066 87.5229 206.008 87.7894C205.982 87.9121 205.922 88.1007 205.977 88.1508C206.06 88.2272 206.277 88.2744 206.354 88.2188C206.547 88.0791 206.693 87.8748 206.878 87.6757L206.877 87.6759Z" fill="white"/>
<defs>
<radialGradient id="paint0_radial_16_4525" cx="0" cy="0" r="1" gradientUnits="userSpaceOnUse" gradientTransform="translate(61.865 54.2555) rotate(-17.704) scale(46.8393 46.8393)">
<stop stop-color="#F49E40"/>
<stop offset="0.999" stop-color="#DA7F38"/>
</radialGradient>
<radialGradient id="paint1_radial_16_4525" cx="0" cy="0" r="1" gradientUnits="userSpaceOnUse" gradientTransform="translate(61.865 54.2555) rotate(-17.704) scale(46.8393 46.8393)">
<stop stop-color="#F49E40"/>
<stop offset="0.999" stop-color="#DA7F38"/>
</radialGradient>
<radialGradient id="paint2_radial_16_4525" cx="0" cy="0" r="1" gradientUnits="userSpaceOnUse" gradientTransform="translate(72.3337 73.2247) scale(33.179 33.1789)">
<stop offset="0.041" stop-color="#10BDF0"/>
<stop offset="0.908" stop-color="#00ADF1"/>
</radialGradient>
<radialGradient id="paint3_radial_16_4525" cx="0" cy="0" r="1" gradientUnits="userSpaceOnUse" gradientTransform="translate(76.9624 58.1051) scale(31.0987 31.0987)">
<stop stop-color="#FDC079"/>
<stop offset="0.955" stop-color="#FFB06B"/>
</radialGradient>
<radialGradient id="paint4_radial_16_4525" cx="0" cy="0" r="1" gradientUnits="userSpaceOnUse" gradientTransform="translate(75.3618 82.7572) scale(31.0987 31.0988)">
<stop stop-color="#FDC079"/>
<stop offset="0.955" stop-color="#FFB06B"/>
</radialGradient>
<radialGradient id="paint5_radial_16_4525" cx="0" cy="0" r="1" gradientUnits="userSpaceOnUse" gradientTransform="translate(75.642 66.1856) scale(31.5288 31.5288)">
<stop stop-color="#FDC079"/>
<stop offset="0.955" stop-color="#FFB06B"/>
</radialGradient>
<radialGradient id="paint6_radial_16_4525" cx="0" cy="0" r="1" gradientUnits="userSpaceOnUse" gradientTransform="translate(75.6341 75.8833) rotate(-17.812) scale(30.2405 30.2405)">
<stop offset="0.041" stop-color="#10BDF0"/>
<stop offset="1" stop-color="#00ADF1"/>
</radialGradient>
<radialGradient id="paint7_radial_16_4525" cx="0" cy="0" r="1" gradientUnits="userSpaceOnUse" gradientTransform="translate(77.3329 75.8911) rotate(-17.705) scale(29.1634 29.1634)">
<stop offset="0.041" stop-color="#10BDF0"/>
<stop offset="1" stop-color="#00ADF1"/>
</radialGradient>
<radialGradient id="paint8_radial_16_4525" cx="0" cy="0" r="1" gradientUnits="userSpaceOnUse" gradientTransform="translate(59.511 51.2124) scale(32.245 32.245)">
<stop offset="0.041" stop-color="#10BDF0"/>
<stop offset="0.898" stop-color="#00ADF1" stop-opacity="0"/>
</radialGradient>
<clipPath id="clip0_16_4525">
<rect width="68.2796" height="68.2796" fill="white" transform="translate(37.968 38.8601)"/>
</clipPath>
<clipPath id="clip1_16_4525">
<rect width="17.1823" height="10.5737" fill="white" transform="translate(118.143 67.7131)"/>
</clipPath>
</defs>
</svg>
