<svg width="908" height="322" viewBox="0 0 908 322" fill="none" xmlns="http://www.w3.org/2000/svg">
<path d="M112.638 160.638C112.638 222.846 62.2082 273.276 0 273.276C0 273.276 0 195.09 0 132.882C0 70.6739 0 48 0 48C62.2082 48 112.638 98.4297 112.638 160.638Z" fill="white"/>
<circle cx="155.927" cy="160.638" r="2.51" fill="white"/>
<circle cx="205.673" cy="160.638" r="6.45695" fill="white"/>
<circle cx="259.724" cy="160.638" r="6.81567" fill="white"/>
<circle cx="310.547" cy="160.638" r="3.22848" fill="white"/>
<circle cx="430.245" cy="160.638" r="75.6898" fill="white"/>
<path d="M669.985 178.063C678.718 144.838 658.738 110.857 625.357 102.164C591.977 93.471 557.836 113.358 549.103 146.584C540.369 179.809 560.349 213.79 593.73 222.483C627.111 231.176 661.251 211.289 669.985 178.063Z" fill="url(#paint0_radial_17_5263)"/>
<path style="mix-blend-mode:screen" opacity="0.7" d="M600.744 118.228C618.93 120.282 631.36 142.24 628.506 167.275C625.652 192.309 608.596 210.938 590.411 208.883C572.225 206.829 559.795 184.871 562.649 159.836C565.503 134.802 582.559 116.173 600.744 118.228Z" fill="url(#paint1_radial_17_5263)"/>
<path style="mix-blend-mode:multiply" opacity="0.332" d="M653.997 118.622C678.235 143.047 677.989 182.427 653.437 206.563C637.185 222.541 614.345 227.834 593.756 222.48C607.168 220.935 620.184 215.103 630.529 204.932C655.081 180.793 655.311 141.429 631.062 116.991C622.879 108.744 612.959 103.264 602.46 100.531C620.852 98.4671 639.979 104.498 653.997 118.622Z" fill="url(#paint2_radial_17_5263)"/>
<path style="mix-blend-mode:multiply" opacity="0.332" d="M653.998 118.623C678.235 143.047 677.99 182.428 653.438 206.564C639.883 219.891 621.741 225.787 604.138 224.269C618.634 223.346 632.899 217.425 644.061 206.452C668.613 182.316 668.857 142.935 644.621 118.511C633.76 107.565 619.817 101.472 605.527 100.264C622.967 99.1667 640.757 105.284 653.998 118.623Z" fill="url(#paint3_radial_17_5263)"/>
<mask id="mask0_17_5263" style="mask-type:luminance" maskUnits="userSpaceOnUse" x="547" y="100" width="126" height="125">
<path d="M669.985 178.063C678.718 144.838 658.738 110.857 625.357 102.164C591.977 93.471 557.836 113.358 549.103 146.584C540.369 179.809 560.349 213.79 593.73 222.483C627.111 231.176 661.251 211.289 669.985 178.063Z" fill="white"/>
</mask>
<g mask="url(#mask0_17_5263)">
<g style="mix-blend-mode:screen" opacity="0.347">
<path d="M530.158 168.607C541.045 167.558 551.845 164.978 562.284 161.776C572.724 158.575 583.03 154.706 592.994 150.184C612.989 141.109 631.709 129.523 648.729 115.686C653.431 111.863 657.997 107.873 662.412 103.726C664.676 101.601 666.937 99.457 669.07 97.2015C671.203 94.946 673.527 92.7751 674.865 89.9575C675.464 88.6961 674.215 87.2221 672.877 87.9785C670.478 89.3336 668.68 91.3172 666.708 93.207C664.736 95.0969 662.798 96.989 660.814 98.8491C656.904 102.519 652.877 106.063 648.74 109.48C640.505 116.281 631.817 122.489 622.824 128.257C604.749 139.857 585.206 149.258 564.833 156.118C553.31 159.999 541.55 162.889 529.802 165.977C528.379 166.351 528.615 168.755 530.16 168.607H530.158Z" fill="url(#paint4_radial_17_5263)"/>
</g>
<g style="mix-blend-mode:screen" opacity="0.347">
<path d="M548.509 211.168C559.396 210.119 570.196 207.539 580.635 204.338C591.074 201.136 601.381 197.267 611.345 192.745C631.34 183.671 650.06 172.085 667.08 158.248C671.782 154.425 676.348 150.435 680.763 146.287C683.027 144.162 685.288 142.018 687.421 139.763C689.554 137.507 691.877 135.337 693.218 132.519C693.817 131.257 692.568 129.784 691.23 130.54C688.831 131.895 687.033 133.879 685.061 135.768C683.089 137.658 681.151 139.55 679.167 141.411C675.258 145.081 671.231 148.625 667.093 152.041C658.858 158.842 650.17 165.051 641.177 170.819C623.102 182.418 603.559 191.82 583.186 198.68C571.663 202.56 559.903 205.451 548.155 208.538C546.732 208.913 546.968 211.317 548.513 211.168H548.509Z" fill="url(#paint5_radial_17_5263)"/>
</g>
<g opacity="0.347">
<path d="M535.046 207.9C540.878 208.293 546.721 207.553 552.453 206.481C557.897 205.464 563.306 204.312 568.619 202.747C579.664 199.491 590.535 195.526 601.023 190.775C611.09 186.214 620.866 181.015 630.27 175.22C640.002 169.223 649.183 162.299 657.938 154.971C662.164 151.433 666.276 147.756 670.264 143.951C672.282 142.025 674.328 140.096 676.236 138.06C677.088 137.153 677.87 136.173 678.665 135.217C679.829 133.819 681.222 132.416 682.033 130.791C683.022 128.812 683.562 126.813 682.699 124.69C681.61 122.011 678.851 120.789 676.045 121.463C672.67 122.274 670.115 125.247 667.546 127.436C663.406 130.962 659.572 134.847 655.433 138.385C653.302 140.204 651.144 141.988 648.956 143.739C647.923 144.566 646.878 145.38 645.836 146.193C645.076 146.787 646.97 145.327 646.206 145.91C645.958 146.097 645.712 146.287 645.466 146.474C644.849 146.943 644.229 147.411 643.607 147.875C639.187 151.17 634.662 154.324 630.038 157.329C620.765 163.36 611.361 169.093 601.484 174.102C596.631 176.563 591.69 178.853 586.717 181.067C585.441 181.636 584.159 182.196 582.874 182.745C582.589 182.866 582.3 182.982 582.015 183.108C582.155 183.046 583.615 182.443 582.458 182.921C581.737 183.218 581.016 183.517 580.293 183.81C577.692 184.863 575.075 185.875 572.441 186.847C562.128 190.645 551.544 193.62 541.176 197.228C538.391 198.197 535.7 199.214 533.007 200.414C531.402 201.129 530.718 203.373 531.152 204.95C531.644 206.73 533.26 207.779 535.044 207.9H535.046Z" fill="url(#paint6_radial_17_5263)"/>
</g>
<g style="mix-blend-mode:screen" opacity="0.347">
<path d="M534.715 185.213C540.464 185.364 546.215 184.584 551.849 183.478C557.281 182.411 562.677 181.205 567.983 179.623C578.769 176.41 589.387 172.516 599.64 167.882C609.712 163.33 619.493 158.14 628.904 152.354C638.556 146.419 647.686 139.626 656.395 132.398C661.115 128.481 665.695 124.393 670.119 120.144C672.36 117.992 674.608 115.835 676.642 113.485C679.06 110.693 682.209 107.811 681.799 103.824C681.594 101.829 680.299 100.275 678.166 100.208C674.445 100.092 672.174 102.526 669.591 104.824C667.555 106.637 665.583 108.501 663.588 110.359C659.607 114.07 655.504 117.651 651.289 121.1C650.324 121.888 649.355 122.669 648.382 123.444C647.895 123.83 647.406 124.217 646.915 124.601C646.61 124.84 646.302 125.08 645.994 125.318C645.459 125.732 645.34 125.885 645.935 125.366C643.912 127.135 641.568 128.65 639.384 130.215C634.96 133.382 630.417 136.369 625.85 139.329C616.777 145.206 607.336 150.519 597.599 155.229C595.147 156.415 592.675 157.548 590.193 158.673C588.99 159.219 587.787 159.763 586.579 160.295C586.01 160.547 585.44 160.793 584.871 161.04C584.586 161.164 584.299 161.287 584.015 161.408C583.803 161.497 582.325 162.13 583.746 161.527C578.801 163.632 573.759 165.528 568.683 167.292C562.95 169.285 557.164 171.191 551.358 172.95C545.451 174.74 539.266 176.479 533.822 178.638C532.268 179.255 531.147 180.546 531.414 182.311C531.664 183.97 533.005 185.167 534.715 185.213Z" fill="url(#paint7_radial_17_5263)"/>
</g>
<g opacity="0.347">
<path d="M552.83 223.812C563.793 223.204 574.783 220.597 585.261 217.418C595.91 214.187 606.374 210.286 616.504 205.688C636.682 196.529 655.504 184.818 672.617 170.78C677.301 166.938 681.849 162.93 686.246 158.762C688.5 156.625 690.757 154.477 692.855 152.19C695.062 149.783 697.466 147.542 698.382 144.338C698.809 142.848 697.291 141.084 695.7 141.669C694.279 142.192 693.154 142.789 691.988 143.762C690.918 144.656 689.944 145.682 688.927 146.635C686.941 148.495 684.987 150.384 683.002 152.247C679.089 155.915 675.058 159.459 670.921 162.871C662.701 169.651 654.014 175.798 645.048 181.573C627.005 193.195 607.506 202.626 587.192 209.534C575.685 213.447 563.898 216.308 552.292 219.863C550.196 220.505 550.472 223.94 552.83 223.808V223.812Z" fill="url(#paint8_radial_17_5263)"/>
</g>
<g opacity="0.5">
<path d="M516.431 155.446C527.394 154.838 538.384 152.231 548.862 149.052C559.511 145.821 569.975 141.92 580.105 137.322C600.283 128.163 619.105 116.452 636.218 102.414C640.902 98.5725 645.45 94.5643 649.847 90.3961C652.101 88.2595 654.358 86.1114 656.457 83.8239C658.663 81.4176 661.067 79.1758 661.983 75.972C662.41 74.4821 660.892 72.7179 659.301 73.3029C657.88 73.8262 656.755 74.4226 655.589 75.3961C654.519 76.2896 653.545 77.3157 652.528 78.2686C650.542 80.1287 648.589 82.0186 646.603 83.881C642.69 87.5488 638.659 91.0931 634.522 94.5049C626.302 101.285 617.615 107.432 608.649 113.207C590.606 124.829 571.107 134.26 550.793 141.168C539.286 145.081 527.499 147.942 515.894 151.497C513.797 152.14 514.073 155.574 516.431 155.442V155.446Z" fill="url(#paint9_radial_17_5263)"/>
</g>
</g>
<path d="M636.349 103.001C652.037 96.2072 668.538 89.8475 685.545 87.2904C692.41 86.2575 705.733 84.21 709.941 91.8471C713.3 97.9417 708.408 106.072 705.134 111.07C698.244 121.589 688.851 130.535 679.427 138.78C651.824 162.928 619.617 182.617 586.43 198.156C571.651 205.076 556.391 211.276 540.57 215.416C531.189 217.871 519.921 220.709 510.243 218.193C507.525 217.487 504.818 216.134 503.406 213.593C501.556 210.261 502.461 206.056 503.739 202.702C505.904 197.014 509.676 191.84 513.522 187.171C518.816 180.748 524.763 174.861 530.939 169.283C534.665 165.919 538.492 162.667 542.397 159.512C545.892 156.689 540.414 155.266 538.148 157.096C524.476 168.14 510.301 180.336 500.989 195.437C496.719 202.363 492.026 213.385 500.188 219.42C507.585 224.891 519.243 223.527 527.697 222.194C543.419 219.715 558.666 214.388 573.334 208.36C610.245 193.191 645.606 172.32 676.569 147.208C688.02 137.919 699.149 127.859 708.107 116.104C712.88 109.843 719.074 100.97 717.449 92.5897C715.667 83.3964 704.043 82.087 696.428 82.2333C679.953 82.5532 663.528 88.0354 648.279 93.7941C643.329 95.6633 638.436 97.6743 633.583 99.7744C632.515 100.236 630.972 101.502 631.895 102.752C632.804 103.986 635.224 103.486 636.347 102.999L636.349 103.001Z" fill="url(#paint10_radial_17_5263)"/>
<path d="M646.699 108.355C651.743 106.267 697.459 87.1101 697.078 102.192C696.929 108.09 691.593 113.943 687.94 118.079C680.648 126.328 672.181 133.577 663.523 140.357C639.807 158.929 613.666 174.786 586.595 188.013C574.852 193.751 562.819 199.077 550.403 203.211C542.253 205.926 533.359 208.81 524.66 208.742C522.313 208.723 519.537 208.479 517.903 207.128C515.547 205.183 516.185 201.886 517.182 199.39C519.163 194.427 522.894 190.081 526.453 186.175C532.061 180.019 538.313 174.464 544.725 169.153C545.908 168.173 545.242 166.849 543.995 166.443C542.388 165.917 540.51 166.687 539.291 167.697C533.666 172.357 494.083 205.316 515.873 212.073C523.56 214.457 532.766 212.238 540.297 210.337C553.131 207.096 565.558 202.14 577.612 196.742C607.892 183.179 637.045 166.079 663.482 146.072C673.272 138.664 682.882 130.798 691.283 121.831C696.153 116.632 702.25 110.09 703.605 102.809C705.203 94.2261 695.934 92.3134 689.272 92.4962C673.742 92.919 658.069 99.2833 643.937 105.131C642.861 105.577 641.336 106.868 642.25 108.109C643.168 109.356 645.567 108.826 646.702 108.355H646.699Z" fill="url(#paint11_radial_17_5263)"/>
<circle cx="739.944" cy="160.638" r="27.6214" fill="white"/>
<circle cx="834.172" cy="160.638" r="25.8278" fill="white"/>
<g clip-path="url(#clip0_17_5263)">
<path d="M591.591 71.5659C595.002 75.5203 598.486 79.4075 602.026 83.2428C602.963 84.2625 604.22 83.9208 605.235 83.1962C609.086 80.453 612.911 77.6839 616.715 74.8837C618.061 73.8951 618.351 72.4459 617.445 71.3848C616.384 70.1426 615.178 70.1322 613.874 71.0898C611.964 72.4924 608.801 75.0235 606.296 76.9178C608.005 51.7924 617.451 35.7192 626.388 25.9621C626.824 25.5268 627.507 23.6727 626.4 22.5661C625.294 21.4595 623.51 22.1986 622.822 22.8865C614.257 32.2653 603.682 49.0456 601.7 75.9137C599.862 73.8382 597.663 71.3123 596.25 69.744C595.882 69.3351 595.53 68.9055 595.132 68.5277C594.071 67.5236 592.88 67.477 591.814 68.4035C590.758 69.3144 590.779 70.6239 591.591 71.5659Z" fill="white"/>
</g>
<rect x="2.86976" y="2.86976" width="902.26" height="315.536" stroke="white" stroke-width="5.73951"/>
<defs>
<radialGradient id="paint0_radial_17_5263" cx="0" cy="0" r="1" gradientUnits="userSpaceOnUse" gradientTransform="translate(579.513 157.801) rotate(-44.5093) scale(81.5364 81.5308)">
<stop stop-color="#F9CD78"/>
<stop offset="1" stop-color="#FFC82A"/>
</radialGradient>
<radialGradient id="paint1_radial_17_5263" cx="0" cy="0" r="1" gradientUnits="userSpaceOnUse" gradientTransform="translate(582.052 175.439) rotate(-83.497) scale(59.7097 43.3112)">
<stop stop-color="#FDC079"/>
<stop offset="0.955" stop-color="#FFB06B" stop-opacity="0"/>
</radialGradient>
<radialGradient id="paint2_radial_17_5263" cx="0" cy="0" r="1" gradientUnits="userSpaceOnUse" gradientTransform="translate(617.356 163.975) rotate(-44.5093) scale(56.83 56.8261)">
<stop stop-color="#FDC079"/>
<stop offset="0.955" stop-color="#FFB06B"/>
</radialGradient>
<radialGradient id="paint3_radial_17_5263" cx="0" cy="0" r="1" gradientUnits="userSpaceOnUse" gradientTransform="translate(620.222 162.529) rotate(-44.5093) scale(54.8005 54.7967)">
<stop stop-color="#FDC079"/>
<stop offset="0.955" stop-color="#FFB06B"/>
</radialGradient>
<radialGradient id="paint4_radial_17_5263" cx="0" cy="0" r="1" gradientUnits="userSpaceOnUse" gradientTransform="translate(602.524 128.598) scale(59.1005 58.8253)">
<stop stop-color="#FDC079"/>
<stop offset="0.955" stop-color="#FFB06B"/>
</radialGradient>
<radialGradient id="paint5_radial_17_5263" cx="0" cy="0" r="1" gradientUnits="userSpaceOnUse" gradientTransform="translate(620.877 171.159) scale(59.1006 58.8253)">
<stop stop-color="#FDC079"/>
<stop offset="0.955" stop-color="#FFB06B"/>
</radialGradient>
<radialGradient id="paint6_radial_17_5263" cx="0" cy="0" r="1" gradientUnits="userSpaceOnUse" gradientTransform="translate(608.696 165.91) scale(61.7339 61.4464)">
<stop stop-color="#FDC079"/>
<stop offset="0.955" stop-color="#633E24"/>
</radialGradient>
<radialGradient id="paint7_radial_17_5263" cx="0" cy="0" r="1" gradientUnits="userSpaceOnUse" gradientTransform="translate(608.043 143.718) scale(61.0727 60.7883)">
<stop stop-color="#FDC079"/>
<stop offset="0.955" stop-color="#FFB06B"/>
</radialGradient>
<radialGradient id="paint8_radial_17_5263" cx="0" cy="0" r="1" gradientUnits="userSpaceOnUse" gradientTransform="translate(625.517 183.307) scale(59.7549 59.4766)">
<stop stop-color="#FDC079"/>
<stop offset="0.955" stop-color="#633E24"/>
</radialGradient>
<radialGradient id="paint9_radial_17_5263" cx="0" cy="0" r="1" gradientUnits="userSpaceOnUse" gradientTransform="translate(589.118 114.941) scale(59.7549 59.4766)">
<stop stop-color="#FDC079"/>
<stop offset="0.955" stop-color="#633E24"/>
</radialGradient>
<radialGradient id="paint10_radial_17_5263" cx="0" cy="0" r="1" gradientUnits="userSpaceOnUse" gradientTransform="translate(606.719 152.804) scale(91.3645 90.9391)">
<stop stop-color="#F9CD78"/>
<stop offset="1" stop-color="#FFC82A"/>
</radialGradient>
<radialGradient id="paint11_radial_17_5263" cx="0" cy="0" r="1" gradientUnits="userSpaceOnUse" gradientTransform="translate(606.581 152.8) scale(79.2538 78.8847)">
<stop stop-color="#F9CD78"/>
<stop offset="1" stop-color="#FFC82A"/>
</radialGradient>
<clipPath id="clip0_17_5263">
<rect width="36" height="61.8816" fill="white" transform="matrix(-1 0 0 1 627 22)"/>
</clipPath>
</defs>
</svg>
