<svg width="270" height="146" viewBox="0 0 270 146" fill="none" xmlns="http://www.w3.org/2000/svg">
<path d="M118.01 84.0599C123.554 62.9719 110.872 41.404 89.6855 35.8867C68.4988 30.3693 46.83 42.9917 41.2868 64.0797C35.7436 85.1677 48.4252 106.736 69.6118 112.253C90.7984 117.77 112.467 105.148 118.01 84.0599Z" fill="url(#paint0_radial_16_4527)"/>
<path style="mix-blend-mode:screen" opacity="0.7" d="M74.0639 46.0823C85.6063 47.3862 93.4956 61.3231 91.6843 77.2123C89.873 93.1015 79.0475 104.925 67.5051 103.621C55.9627 102.317 48.0735 88.3804 49.8848 72.4912C51.6961 56.6021 62.5215 44.7784 74.0639 46.0823Z" fill="url(#paint1_radial_16_4527)"/>
<path style="mix-blend-mode:multiply" opacity="0.332" d="M107.864 46.3329C123.247 61.8348 123.091 86.8296 107.508 102.149C97.1927 112.29 82.6965 115.649 69.6284 112.251C78.1413 111.27 86.4021 107.569 92.9682 101.113C108.551 85.7926 108.697 60.8079 93.3063 45.2973C88.1129 40.0628 81.8164 36.5847 75.1526 34.85C86.8262 33.5403 98.966 37.3679 107.864 46.3329Z" fill="url(#paint2_radial_16_4527)"/>
<path style="mix-blend-mode:multiply" opacity="0.332" d="M107.864 46.3331C123.247 61.835 123.091 86.8299 107.508 102.149C98.9048 110.608 87.3901 114.35 76.2178 113.387C85.4185 112.801 94.472 109.043 101.557 102.078C117.14 86.7588 117.294 61.764 101.912 46.2621C95.0184 39.3146 86.1689 35.4478 77.0994 34.6806C88.1682 33.9844 99.46 37.8671 107.864 46.3331Z" fill="url(#paint3_radial_16_4527)"/>
<mask id="mask0_16_4527" style="mask-type:luminance" maskUnits="userSpaceOnUse" x="39" y="34" width="81" height="80">
<path d="M118.01 84.0599C123.554 62.9719 110.872 41.404 89.6855 35.8867C68.4988 30.3693 46.83 42.9917 41.2868 64.0797C35.7436 85.1677 48.4252 106.736 69.6118 112.253C90.7984 117.77 112.467 105.148 118.01 84.0599Z" fill="white"/>
</mask>
<g mask="url(#mask0_16_4527)">
<g style="mix-blend-mode:screen" opacity="0.347">
<path d="M29.2626 78.0579C36.1726 77.3922 43.0272 75.7547 49.6531 73.7226C56.2789 71.6906 62.8202 69.2351 69.1444 66.3647C81.8351 60.6052 93.717 53.2516 104.519 44.4694C107.503 42.0429 110.402 39.5105 113.204 36.878C114.641 35.5291 116.076 34.1687 117.43 32.7371C118.784 31.3056 120.258 29.9277 121.108 28.1393C121.488 27.3387 120.695 26.4032 119.846 26.8833C118.323 27.7434 117.182 29.0023 115.93 30.2018C114.679 31.4013 113.449 32.6022 112.19 33.7829C109.708 36.1122 107.152 38.3618 104.526 40.5301C99.2995 44.8465 93.7855 48.7873 88.0777 52.4481C76.6052 59.8104 64.2016 65.7773 51.2705 70.1314C43.9569 72.5942 36.4932 74.429 29.0367 76.3885C28.1333 76.6263 28.2834 78.1522 29.264 78.0579H29.2626Z" fill="url(#paint4_radial_16_4527)"/>
</g>
<g style="mix-blend-mode:screen" opacity="0.347">
<path d="M40.9101 105.072C47.8201 104.406 54.6747 102.768 61.3005 100.736C67.9264 98.7043 74.4677 96.2488 80.7919 93.3784C93.4826 87.6189 105.365 80.2653 116.167 71.4831C119.151 69.0566 122.049 66.5242 124.852 63.8917C126.288 62.5428 127.724 61.1823 129.077 59.7508C130.431 58.3192 131.906 56.9414 132.757 55.153C133.137 54.3524 132.344 53.4169 131.495 53.897C129.972 54.7571 128.831 56.016 127.579 57.2155C126.328 58.415 125.098 59.6159 123.839 60.7965C121.357 63.1259 118.801 65.3755 116.175 67.5438C110.948 71.8602 105.434 75.801 99.7266 79.4618C88.2542 86.824 75.8506 92.791 62.9195 97.1451C55.6059 99.6079 48.1421 101.443 40.6856 103.402C39.7822 103.64 39.9323 105.166 40.913 105.072H40.9101Z" fill="url(#paint5_radial_16_4527)"/>
</g>
<g opacity="0.347">
<path d="M32.365 102.997C36.0662 103.247 39.7748 102.777 43.4134 102.097C46.8684 101.451 50.3016 100.72 53.6735 99.7267C60.684 97.6599 67.5838 95.1434 74.2402 92.128C80.63 89.233 86.8348 85.9334 92.8034 82.2551C98.9804 78.4493 104.808 74.0545 110.364 69.4031C113.047 67.1579 115.657 64.8242 118.188 62.4092C119.469 61.1865 120.767 59.9624 121.978 58.6701C122.518 58.0943 123.015 57.4721 123.519 56.8658C124.258 55.9782 125.143 55.0876 125.657 54.0564C126.285 52.8003 126.628 51.5312 126.08 50.1838C125.389 48.4839 123.638 47.7079 121.857 48.1358C119.715 48.6507 118.093 50.5377 116.462 51.9272C113.835 54.1651 111.402 56.6308 108.774 58.8761C107.422 60.0306 106.052 61.1634 104.663 62.2744C104.008 62.7994 103.345 63.3157 102.683 63.8321C102.201 64.2092 103.403 63.2824 102.918 63.6522C102.76 63.7712 102.604 63.8915 102.449 64.0105C102.057 64.3078 101.663 64.6052 101.268 64.8996C98.4631 66.9911 95.591 68.9926 92.6562 70.8999C86.7706 74.7275 80.802 78.3666 74.5331 81.5459C71.4526 83.108 68.3168 84.5613 65.1605 85.9667C64.3503 86.3279 63.5372 86.6832 62.7212 87.0313C62.5405 87.1082 62.3569 87.1822 62.1762 87.2619C62.2651 87.2228 63.1918 86.8399 62.4574 87.143C61.9999 87.3315 61.5423 87.5216 61.0833 87.7072C59.4323 88.3758 57.7711 89.0183 56.0997 89.6348C49.554 92.0453 42.8364 93.9338 36.2557 96.2239C34.4881 96.8389 32.7803 97.4844 31.071 98.2458C30.0524 98.6998 29.6182 100.124 29.8936 101.125C30.2054 102.255 31.2313 102.92 32.3635 102.997H32.365Z" fill="url(#paint6_radial_16_4527)"/>
</g>
<g style="mix-blend-mode:screen" opacity="0.347">
<path d="M32.1553 88.5977C35.8041 88.6935 39.4543 88.1989 43.0303 87.4969C46.478 86.8196 49.9024 86.0537 53.27 85.0501C60.1158 83.0108 66.8553 80.5393 73.3632 77.5979C79.7559 74.7087 85.9635 71.4148 91.9365 67.7424C98.0625 63.9757 103.858 59.6636 109.385 55.076C112.381 52.59 115.288 49.9952 118.096 47.2989C119.518 45.9327 120.945 44.5635 122.236 43.0725C123.77 41.3001 125.77 39.4711 125.509 36.9402C125.379 35.674 124.557 34.6877 123.203 34.6456C120.841 34.5717 119.4 36.1163 117.761 37.5754C116.468 38.7256 115.217 39.9091 113.95 41.0883C111.424 43.4438 108.82 45.7166 106.144 47.9052C105.532 48.4056 104.917 48.9016 104.299 49.3933C103.99 49.6384 103.68 49.8836 103.368 50.1273C103.174 50.2795 102.979 50.4318 102.784 50.5827C102.444 50.8452 102.369 50.9424 102.746 50.6131C101.462 51.7357 99.9744 52.6974 98.5886 53.6909C95.7806 55.7012 92.8968 57.5968 89.9984 59.4751C84.2396 63.2055 78.2476 66.5777 72.0677 69.567C70.5114 70.3198 68.942 71.0392 67.3668 71.7528C66.6032 72.0994 65.8397 72.4446 65.0732 72.7826C64.7118 72.9421 64.3504 73.0987 63.989 73.2554C63.8083 73.3337 63.6262 73.412 63.4455 73.4889C63.3115 73.5455 62.373 73.9472 63.275 73.5643C60.1362 74.9001 56.9362 76.104 53.7144 77.2237C50.0758 78.4884 46.4037 79.6981 42.7185 80.8149C38.9691 81.9506 35.0434 83.0543 31.5884 84.4249C30.6019 84.8165 29.8908 85.636 30.0598 86.7558C30.2187 87.8087 31.0697 88.5687 32.1553 88.5977Z" fill="url(#paint7_radial_16_4527)"/>
</g>
<g opacity="0.347">
<path d="M43.6525 113.097C50.6106 112.711 57.5862 111.056 64.2368 109.038C70.9952 106.988 77.6371 104.512 84.0662 101.594C96.8735 95.7803 108.819 88.3469 119.681 79.4371C122.654 76.999 125.541 74.455 128.331 71.8094C129.762 70.4533 131.195 69.0899 132.527 67.6381C133.927 66.1108 135.453 64.6879 136.034 62.6545C136.305 61.7088 135.342 60.5891 134.332 60.9604C133.43 61.2925 132.716 61.6711 131.976 62.289C131.297 62.8561 130.679 63.5073 130.033 64.1121C128.773 65.2928 127.533 66.4922 126.272 67.6743C123.789 70.0022 121.23 72.2518 118.605 74.4173C113.388 78.7206 107.874 82.6222 102.183 86.2874C90.7314 93.6641 78.3555 99.6499 65.4623 104.035C58.1588 106.518 50.6776 108.333 43.3115 110.59C41.9811 110.998 42.156 113.178 43.6525 113.094V113.097Z" fill="url(#paint8_radial_16_4527)"/>
</g>
<g opacity="0.5">
<path d="M20.5502 69.7049C27.5083 69.3191 34.4839 67.6642 41.1345 65.6467C47.8929 63.5958 54.5348 61.12 60.9639 58.2018C73.7712 52.3886 85.7172 44.9552 96.5791 36.0454C99.5518 33.6073 102.438 31.0633 105.229 28.4177C106.66 27.0616 108.092 25.6982 109.424 24.2463C110.825 22.7191 112.35 21.2962 112.932 19.2628C113.203 18.3171 112.24 17.1974 111.23 17.5687C110.328 17.9008 109.614 18.2794 108.873 18.8973C108.194 19.4644 107.576 20.1156 106.931 20.7204C105.67 21.901 104.43 23.1005 103.17 24.2826C100.687 26.6105 98.1281 28.8601 95.5022 31.0255C90.2855 35.3289 84.7715 39.2305 79.0811 42.8956C67.6291 50.2724 55.2532 56.2582 42.36 60.6428C35.0565 63.1259 27.5753 64.9418 20.2092 67.1986C18.8788 67.6062 19.0537 69.7861 20.5502 69.702V69.7049Z" fill="url(#paint9_radial_16_4527)"/>
</g>
</g>
<path d="M96.6621 36.418C106.619 32.106 117.092 28.0695 127.887 26.4465C132.244 25.7909 140.7 24.4914 143.371 29.3386C145.503 33.2069 142.398 38.3674 140.32 41.5394C135.947 48.2156 129.985 53.894 124.003 59.127C106.484 74.4534 86.0422 86.9501 64.9785 96.8129C55.5985 101.205 45.9126 105.14 35.8711 107.768C29.917 109.326 22.7651 111.127 16.623 109.53C14.8977 109.082 13.1797 108.223 12.2835 106.61C11.109 104.496 11.6832 101.827 12.4949 99.6978C13.869 96.0877 16.2631 92.804 18.7039 89.8408C22.0642 85.7637 25.8383 82.0275 29.7582 78.487C32.1232 76.352 34.5523 74.2881 37.031 72.2851C39.2488 70.4939 35.772 69.5903 34.3338 70.752C25.6562 77.7618 16.6595 85.5026 10.7492 95.0869C8.03878 99.4831 5.06028 106.478 10.2406 110.309C14.9357 113.781 22.3353 112.915 27.7006 112.07C37.6795 110.496 47.3567 107.115 56.6666 103.289C80.0939 93.6612 102.538 80.4146 122.189 64.4761C129.458 58.5802 136.521 52.1956 142.207 44.7347C145.236 40.7606 149.168 35.1286 148.136 29.81C147.005 23.975 139.627 23.1439 134.794 23.2368C124.337 23.4398 113.912 26.9194 104.234 30.5744C101.092 31.7608 97.9867 33.0372 94.9062 34.3701C94.2286 34.6631 93.2494 35.4666 93.8352 36.26C94.4122 37.0432 95.9481 36.7255 96.6607 36.4166L96.6621 36.418Z" fill="url(#paint10_radial_16_4527)"/>
<path d="M103.231 39.8166C106.433 38.4909 135.448 26.3322 135.206 35.9049C135.111 39.6484 131.725 43.3628 129.407 45.9881C124.779 51.224 119.404 55.8247 113.909 60.128C98.8566 71.9155 82.265 81.9798 65.0833 90.3748C57.6298 94.0167 49.9926 97.3976 42.1122 100.021C36.9391 101.744 31.294 103.575 25.7727 103.531C24.2835 103.52 22.5217 103.365 21.4842 102.507C19.9891 101.273 20.3942 99.1802 21.0266 97.5963C22.2842 94.4461 24.6521 91.6874 26.9107 89.2087C30.4707 85.3013 34.4386 81.7753 38.5085 78.4046C39.259 77.7824 38.8364 76.9426 38.0452 76.6844C37.0251 76.3508 35.8331 76.8396 35.0594 77.4807C31.4892 80.4381 6.36585 101.357 20.196 105.646C25.0747 107.159 30.918 105.751 35.6976 104.544C43.8433 102.487 51.7311 99.3412 59.3813 95.9153C78.6002 87.3072 97.1036 76.4538 113.883 63.7555C120.097 59.0533 126.196 54.061 131.528 48.3696C134.619 45.07 138.489 40.9174 139.349 36.2964C140.363 30.8487 134.481 29.6347 130.252 29.7508C120.395 30.0191 110.447 34.0585 101.478 37.7701C100.795 38.0529 99.8271 38.8724 100.407 39.6599C100.99 40.4519 102.513 40.1154 103.233 39.8166H103.231Z" fill="url(#paint11_radial_16_4527)"/>
<g clip-path="url(#clip0_16_4527)">
<path d="M137.25 70.6608C136.341 70.5703 135.616 70.9677 134.906 71.4545C132.79 72.9045 130.575 72.8561 128.522 71.3523C128.08 71.0282 127.823 70.6647 128.167 70.1479C128.462 69.7045 128.926 69.6833 129.509 70.0586C131.275 71.1953 132.412 71.1782 134.175 69.9885C136.239 68.5954 138.599 68.6802 140.561 70.2087C140.987 70.5408 141.163 70.9294 140.815 71.3796C140.474 71.8211 140.033 71.8208 139.581 71.5018C138.886 71.012 138.169 70.5751 137.25 70.661V70.6608Z" fill="white"/>
<path d="M131.591 76.9979C130.508 77.037 129.393 76.5328 128.388 75.7559C127.985 75.4441 127.859 75.0475 128.188 74.625C128.509 74.2123 128.944 74.1619 129.367 74.4699C130.156 75.0449 131.007 75.5332 132.016 75.3309C132.734 75.1868 133.473 74.9161 134.081 74.5263C136.227 73.1508 138.364 73.1465 140.425 74.616C140.997 75.0233 141.138 75.447 140.84 75.8615C140.534 76.2881 140.07 76.3184 139.492 75.9492C137.716 74.8136 136.573 74.8185 134.829 76.0198C133.925 76.6425 132.941 76.9879 131.591 76.9979Z" fill="white"/>
</g>
<path d="M163.011 62.461C155.767 62.383 149.934 56.5145 150.001 49.4091C150.069 42.1397 155.905 36.3333 163.122 36.3857C170.486 36.4393 176.136 42.3978 176.076 49.475C176.014 56.7387 170.123 62.5377 163.011 62.461ZM151.962 44.5261C151.856 44.8327 151.751 45.1396 151.644 45.4459C150.922 47.5173 150.732 49.6461 151.212 51.7779C152.256 56.4207 155.045 59.5977 159.613 60.9615C164.168 62.3215 168.207 61.1637 171.642 57.894C172.004 57.5492 172.425 57.2609 172.089 56.5872C171.792 55.9898 171.702 55.2886 171.519 54.6337C171.509 54.5952 171.489 54.5559 171.463 54.5254C171.162 54.1675 171.201 53.7899 171.429 53.426C171.614 53.1304 171.57 52.8847 171.405 52.593C171.187 52.2057 170.895 51.7934 170.872 51.3789C170.84 50.8057 170.834 50.3594 170.117 50.3388C170.057 50.3371 170 50.2492 169.939 50.2461C169.673 50.2322 169.366 50.1482 169.145 50.2478C168.475 50.5501 167.635 50.4294 167.152 49.8847C167.044 49.7622 166.937 49.6383 166.825 49.5191C166.44 49.1099 166.443 48.6552 166.617 48.1515C166.672 47.9902 166.586 47.7843 166.589 47.5992C166.59 47.4482 166.572 47.2436 166.658 47.1576C166.877 46.9378 167.169 46.7914 167.394 46.5756C167.54 46.4357 167.689 46.2338 167.711 46.045C167.753 45.6826 167.949 45.4781 168.26 45.4189C168.952 45.287 169.65 45.1777 170.351 45.1136C170.497 45.1003 170.714 45.2911 170.81 45.4434C170.951 45.6661 172.011 46.1787 172.264 46.0817C172.301 46.0678 172.342 46.0445 172.362 46.0133C172.624 45.6097 172.915 45.788 173.249 45.9227C173.563 46.0494 173.916 46.0917 174.257 46.1357C174.346 46.1471 174.502 46.0483 174.54 45.962C174.659 45.6901 174.263 45.1542 173.986 45.0439C173.751 44.9501 173.558 44.7391 173.361 44.5638C173.27 44.4823 173.212 44.3624 173.139 44.2599C173.039 44.3576 172.936 44.453 172.838 44.5538C172.769 44.6255 172.708 44.7045 172.643 44.7803C172.567 44.7053 172.471 44.6417 172.421 44.5523C172.363 44.4483 172.38 44.2852 172.303 44.2118C172.041 43.9615 171.782 43.6759 171.464 43.5268C171.212 43.4086 171.078 43.6423 171.235 43.8759C171.35 44.0474 171.581 44.1391 171.704 44.3077C171.791 44.4262 171.828 44.624 171.798 44.7673C171.782 44.8431 171.574 44.8778 171.452 44.9312C171.768 44.6959 171.702 44.5416 171.448 44.3594C171.238 44.2091 171.046 44.0333 170.838 43.8797C170.77 43.8291 170.659 43.7651 170.597 43.7878C170.148 43.9528 169.649 44.0447 169.424 44.558C169.226 45.0072 168.839 45.0354 168.422 44.9827C168.08 44.9395 167.979 44.7202 167.974 44.4082C167.97 44.0799 168.149 43.933 168.446 43.9095C168.607 43.8968 168.78 43.9574 168.932 43.921C169.045 43.8939 169.231 43.7078 169.219 43.6881C168.922 43.1762 169.246 43.0432 169.648 42.9337C169.731 42.9111 169.818 42.8317 169.863 42.755C170.066 42.4101 170.362 42.2916 170.754 42.2937C170.882 42.2944 171.01 42.1339 171.138 42.047C171.019 41.9455 170.898 41.8451 170.78 41.7423C170.583 41.5717 170.377 41.4088 170.207 41.2149C170.188 41.1941 170.355 40.9475 170.478 40.8767C171.104 40.5147 171.126 40.4323 170.544 39.9811C167.629 37.7219 164.351 36.9192 160.723 37.5804C159.144 37.868 157.698 38.4954 156.365 39.3825C156.271 39.445 156.207 39.5533 156.129 39.6402C156.236 39.6853 156.341 39.7342 156.45 39.7748C156.742 39.884 157.032 39.998 157.329 40.094C157.52 40.1558 157.718 40.2051 157.917 40.227C157.989 40.235 158.071 40.147 158.149 40.1028C158.1 40.0316 158.066 39.9348 157.998 39.894C157.729 39.7316 157.45 39.5867 157.157 39.426C157.476 39.1228 157.847 38.8696 158.191 39.1606C158.58 39.4906 158.921 39.6742 159.425 39.4265C159.232 39.568 159.029 39.6174 158.845 39.7045C158.752 39.748 158.617 39.8848 158.634 39.9362C158.668 40.0392 158.797 40.1891 158.879 40.1841C159.144 40.1674 159.408 40.0959 159.669 40.0339C159.927 39.9729 160.161 39.8919 159.997 39.5361C159.976 39.4923 160.06 39.3435 160.112 39.3339C160.254 39.3077 160.405 39.33 160.552 39.3332C160.535 39.4167 160.492 39.5061 160.508 39.5824C160.541 39.7315 160.607 39.8731 160.659 40.0178C160.781 39.9336 160.915 39.8628 161.02 39.7615C161.14 39.6455 161.208 39.4517 161.344 39.3803C161.808 39.1383 162.798 39.3171 163.138 39.7108C163.28 39.8761 163.353 40.1119 163.411 40.328C163.419 40.3567 163.152 40.4577 163.013 40.5281C162.978 40.5464 162.943 40.5713 162.915 40.6001C162.608 40.9173 162.308 40.754 161.948 40.595C162.078 40.5081 162.171 40.4575 162.25 40.3899C162.348 40.3065 162.433 40.209 162.523 40.1176C162.397 40.0266 162.269 39.8577 162.144 39.8603C161.868 39.866 161.556 39.8932 161.326 40.0274C160.74 40.3699 160.593 40.4555 160.034 40.5224C159.927 40.5352 159.818 40.5685 159.722 40.6166C159.49 40.7324 159.248 40.8391 159.044 40.9946C158.888 41.114 158.65 41.3493 158.686 41.4499C158.759 41.6593 158.988 41.8155 159.156 41.9899C159.304 42.1424 159.459 42.2872 159.605 42.4408C159.667 42.5057 159.714 42.6436 159.768 42.6439C159.857 42.6444 159.96 42.5747 160.033 42.5082C160.171 42.3827 160.268 42.1719 160.424 42.1154C160.77 41.9905 160.845 41.7668 160.885 41.4347C160.907 41.2602 161.136 40.9756 161.264 40.9793C161.493 40.9859 161.836 41.1195 161.917 41.2973C162.055 41.6021 162.181 41.6079 162.444 41.5196C162.534 41.4895 162.707 41.5523 162.77 41.6306C162.907 41.8016 163.023 42.0003 163.096 42.2061C163.143 42.336 163.113 42.6252 163.089 42.6284C162.69 42.681 162.287 42.7026 161.884 42.7246C161.731 42.733 161.577 42.7251 161.424 42.7246V43.1582C161.336 43.1938 161.198 43.2209 161.096 43.297C160.716 43.5808 160.338 43.8684 159.98 44.1787C159.734 44.392 159.52 44.6429 159.296 44.881C159.05 45.1423 158.788 45.3927 158.571 45.6767C158.385 45.9206 158.25 46.2041 158.095 46.4719C158.057 46.5375 158.032 46.6102 158.001 46.6797C157.926 46.6334 157.839 46.5993 157.779 46.5381C157.671 46.4269 157.593 46.2126 157.477 46.1933C156.793 46.0791 156.109 46.0763 155.53 46.5492C155.107 46.8946 154.901 47.6758 155.178 47.9797C155.594 48.4362 155.991 48.1243 156.373 47.879C156.385 47.8717 156.395 47.8608 156.408 47.8573C156.494 47.834 156.58 47.8122 156.667 47.79C156.666 47.8798 156.649 47.9729 156.668 48.0585C156.698 48.1974 156.725 48.4316 156.799 48.4502C157.134 48.5356 157.186 48.7588 157.244 49.0504C157.288 49.2709 157.417 49.5742 157.59 49.6478C157.924 49.79 158.309 49.8865 158.617 49.4776C158.919 49.0767 159.263 49.0946 159.681 49.351C159.901 49.4859 160.211 49.5792 160.457 49.5404C160.798 49.4867 160.97 49.5903 161.181 49.8353C161.347 50.0284 161.643 50.1042 161.86 50.2606C162.063 50.4063 162.385 50.5769 162.401 50.7588C162.461 51.4488 162.962 51.6012 163.454 51.6198C164.032 51.6417 164.527 51.7391 164.866 52.2259C164.958 52.3586 165.043 52.6402 164.975 52.7175C164.537 53.2193 164.491 53.8264 164.421 54.437C164.369 54.8839 164.109 55.109 163.652 55.116C163.178 55.1232 163.011 55.3441 163.076 55.8259C163.099 55.9971 163.165 56.2293 163.084 56.3367C162.587 56.992 162.287 57.8641 161.308 58.0249C161.223 58.0389 161.129 58.2108 161.104 58.3239C161.071 58.4701 161.098 58.6312 161.11 58.7851C161.117 58.884 161.116 59.0483 161.167 59.069C161.492 59.2035 161.514 59.4223 161.438 59.7261C161.413 59.8276 161.525 59.9667 161.582 60.0843C161.632 60.1858 161.694 60.2813 161.751 60.3794C161.623 60.4056 161.491 60.4659 161.369 60.4492C161.228 60.43 161.072 60.3714 160.964 60.2808C160.372 59.7842 159.917 59.2208 160.013 58.3667C160.035 58.1705 159.9 57.9599 159.854 57.7523C159.797 57.4996 159.747 57.2443 159.715 56.9877C159.698 56.8556 159.743 56.7159 159.729 56.5831C159.674 56.0762 159.535 55.5667 159.562 55.0656C159.598 54.4215 159.299 54.0771 158.776 53.8246C158.646 53.7621 158.51 53.6765 158.426 53.5648C158.213 53.284 158.044 52.971 157.83 52.6913C157.366 52.0835 157.432 51.427 157.962 50.8833C158.101 50.7418 158.132 50.4441 158.116 50.2249C158.108 50.1063 157.903 49.9157 157.776 49.9067C157.281 49.8715 156.995 49.5379 156.628 49.2793C156.151 48.9436 155.707 48.4831 155.006 48.5432C154.292 48.6046 153.942 48.2329 153.872 47.5175C153.856 47.3518 153.744 47.1943 153.672 47.0351C153.522 46.7044 153.376 46.3715 153.213 46.0474C153.165 45.9526 153.065 45.8844 152.989 45.804C152.939 45.9156 152.825 46.047 152.852 46.1352C152.942 46.4302 153.089 46.7075 153.2 46.9968C153.235 47.087 153.226 47.1941 153.237 47.2935C153.132 47.2608 152.961 47.2571 152.931 47.1902C152.789 46.875 152.674 46.5456 152.571 46.2148C152.511 46.0239 152.558 45.7174 152.44 45.6416C152.009 45.3621 151.978 44.9738 151.962 44.5263L151.962 44.5261ZM159.125 44.0485C159.23 44.086 159.363 44.1582 159.501 44.168C159.541 44.1708 159.652 43.9267 159.63 43.9072C159.305 43.6144 158.988 43.2967 158.613 43.0814C158.443 42.9836 158.149 43.0857 157.916 43.1257C157.873 43.1332 157.839 43.2741 157.824 43.3576C157.799 43.5002 157.782 43.646 157.78 43.7907C157.779 43.914 157.805 44.0376 157.819 44.161C157.931 44.1105 158.067 44.0849 158.149 44.004C158.294 43.8616 158.406 43.6855 158.531 43.5235L158.668 43.5887C158.625 43.7674 158.578 43.9454 158.54 44.125C158.522 44.2077 158.481 44.3348 158.518 44.3685C158.575 44.42 158.721 44.4518 158.773 44.4144C158.903 44.3202 159.001 44.1825 159.125 44.0484L159.125 44.0485Z" fill="white"/>
<path d="M194.087 62.461C186.844 62.383 181.01 56.5145 181.077 49.4091C181.145 42.1397 186.981 36.3333 194.198 36.3857C201.562 36.4393 207.212 42.3978 207.152 49.475C207.091 56.7387 201.199 62.5377 194.087 62.461ZM183.038 44.5261C182.933 44.8327 182.828 45.1396 182.721 45.4459C181.999 47.5173 181.809 49.6461 182.288 51.7779C183.332 56.4207 186.122 59.5977 190.689 60.9615C195.244 62.3215 199.284 61.1637 202.718 57.894C203.08 57.5492 203.502 57.2609 203.166 56.5872C202.868 55.9898 202.779 55.2886 202.596 54.6337C202.585 54.5952 202.565 54.5559 202.54 54.5254C202.238 54.1675 202.277 53.7899 202.505 53.426C202.69 53.1304 202.646 52.8847 202.482 52.593C202.264 52.2057 201.971 51.7934 201.948 51.3789C201.917 50.8057 201.911 50.3594 201.193 50.3388C201.133 50.3371 201.076 50.2492 201.016 50.2461C200.749 50.2322 200.442 50.1482 200.222 50.2478C199.551 50.5501 198.711 50.4294 198.229 49.8847C198.12 49.7622 198.013 49.6383 197.901 49.5191C197.516 49.1099 197.52 48.6552 197.693 48.1515C197.748 47.9902 197.663 47.7843 197.665 47.5992C197.667 47.4482 197.649 47.2436 197.734 47.1576C197.954 46.9378 198.246 46.7914 198.47 46.5756C198.616 46.4357 198.765 46.2338 198.787 46.045C198.83 45.6826 199.026 45.4781 199.336 45.4189C200.028 45.287 200.726 45.1777 201.427 45.1136C201.573 45.1003 201.79 45.2911 201.887 45.4434C202.028 45.6661 203.087 46.1787 203.341 46.0817C203.377 46.0678 203.418 46.0445 203.439 46.0133C203.7 45.6097 203.991 45.788 204.325 45.9227C204.64 46.0494 204.993 46.0917 205.334 46.1357C205.422 46.1471 205.579 46.0483 205.616 45.962C205.735 45.6901 205.339 45.1542 205.063 45.0439C204.827 44.9501 204.635 44.7391 204.438 44.5638C204.346 44.4823 204.289 44.3624 204.216 44.2599C204.115 44.3576 204.012 44.453 203.915 44.5538C203.845 44.6255 203.784 44.7045 203.719 44.7803C203.643 44.7053 203.548 44.6417 203.497 44.5523C203.439 44.4483 203.456 44.2852 203.38 44.2118C203.118 43.9615 202.859 43.6759 202.541 43.5268C202.288 43.4086 202.154 43.6423 202.311 43.8759C202.426 44.0474 202.658 44.1391 202.781 44.3077C202.867 44.4262 202.905 44.624 202.874 44.7673C202.858 44.8431 202.65 44.8778 202.528 44.9312C202.845 44.6959 202.779 44.5416 202.524 44.3594C202.314 44.2091 202.122 44.0333 201.915 43.8797C201.846 43.8291 201.735 43.7651 201.673 43.7878C201.225 43.9528 200.726 44.0447 200.5 44.558C200.302 45.0072 199.916 45.0354 199.498 44.9827C199.156 44.9395 199.055 44.7202 199.051 44.4082C199.046 44.0799 199.225 43.933 199.522 43.9095C199.684 43.8968 199.856 43.9574 200.009 43.921C200.122 43.8939 200.307 43.7078 200.296 43.6881C199.998 43.1762 200.322 43.0432 200.724 42.9337C200.807 42.9111 200.894 42.8317 200.939 42.755C201.143 42.4101 201.438 42.2916 201.831 42.2937C201.958 42.2944 202.087 42.1339 202.215 42.047C202.095 41.9455 201.975 41.8451 201.856 41.7423C201.66 41.5717 201.454 41.4088 201.283 41.2149C201.265 41.1941 201.432 40.9475 201.554 40.8767C202.181 40.5147 202.202 40.4323 201.62 39.9811C198.705 37.7219 195.427 36.9192 191.799 37.5804C190.221 37.868 188.775 38.4954 187.441 39.3825C187.347 39.445 187.284 39.5533 187.206 39.6402C187.312 39.6853 187.418 39.7342 187.526 39.7748C187.818 39.884 188.109 39.998 188.405 40.094C188.596 40.1558 188.795 40.2051 188.993 40.227C189.065 40.235 189.148 40.147 189.225 40.1028C189.176 40.0316 189.142 39.9348 189.074 39.894C188.805 39.7316 188.526 39.5867 188.234 39.426C188.552 39.1228 188.924 38.8696 189.267 39.1606C189.657 39.4906 189.998 39.6742 190.502 39.4265C190.308 39.568 190.106 39.6174 189.921 39.7045C189.829 39.748 189.694 39.8848 189.711 39.9362C189.744 40.0392 189.874 40.1891 189.955 40.1841C190.221 40.1674 190.484 40.0959 190.746 40.0339C191.004 39.9729 191.238 39.8919 191.073 39.5361C191.053 39.4923 191.136 39.3435 191.188 39.3339C191.33 39.3077 191.481 39.33 191.628 39.3332C191.612 39.4167 191.568 39.5061 191.585 39.5824C191.617 39.7315 191.683 39.8731 191.736 40.0178C191.857 39.9336 191.992 39.8628 192.097 39.7615C192.217 39.6455 192.284 39.4517 192.421 39.3803C192.884 39.1383 193.875 39.3171 194.214 39.7108C194.357 39.8761 194.429 40.1119 194.487 40.328C194.495 40.3567 194.228 40.4577 194.09 40.5281C194.054 40.5464 194.019 40.5713 193.992 40.6001C193.684 40.9173 193.384 40.754 193.024 40.595C193.154 40.5081 193.248 40.4575 193.327 40.3899C193.424 40.3065 193.509 40.209 193.6 40.1176C193.473 40.0266 193.345 39.8577 193.22 39.8603C192.944 39.866 192.632 39.8932 192.403 40.0274C191.816 40.3699 191.669 40.4555 191.11 40.5224C191.003 40.5352 190.894 40.5685 190.798 40.6166C190.566 40.7324 190.324 40.8391 190.12 40.9946C189.964 41.114 189.727 41.3493 189.762 41.4499C189.835 41.6593 190.064 41.8155 190.233 41.9899C190.38 42.1424 190.535 42.2872 190.682 42.4408C190.743 42.5057 190.79 42.6436 190.844 42.6439C190.933 42.6444 191.036 42.5747 191.11 42.5082C191.247 42.3827 191.344 42.1719 191.501 42.1154C191.847 41.9905 191.921 41.7668 191.962 41.4347C191.983 41.2602 192.212 40.9756 192.341 40.9793C192.57 40.9859 192.912 41.1195 192.993 41.2973C193.132 41.6021 193.258 41.6079 193.521 41.5196C193.61 41.4895 193.784 41.5523 193.846 41.6306C193.983 41.8016 194.099 42.0003 194.173 42.2061C194.219 42.336 194.19 42.6252 194.166 42.6284C193.767 42.681 193.363 42.7026 192.96 42.7246C192.807 42.733 192.653 42.7251 192.5 42.7246V43.1582C192.413 43.1938 192.274 43.2209 192.173 43.297C191.793 43.5808 191.415 43.8684 191.057 44.1787C190.81 44.392 190.597 44.6429 190.372 44.881C190.126 45.1423 189.865 45.3927 189.648 45.6767C189.461 45.9206 189.326 46.2041 189.172 46.4719C189.134 46.5375 189.108 46.6102 189.077 46.6797C189.002 46.6334 188.915 46.5993 188.856 46.5381C188.747 46.4269 188.67 46.2126 188.554 46.1933C187.869 46.0791 187.186 46.0763 186.607 46.5492C186.184 46.8946 185.977 47.6758 186.254 47.9797C186.671 48.4362 187.068 48.1243 187.45 47.879C187.461 47.8717 187.472 47.8608 187.484 47.8573C187.57 47.834 187.657 47.8122 187.743 47.79C187.742 47.8798 187.726 47.9729 187.744 48.0585C187.774 48.1974 187.802 48.4316 187.875 48.4502C188.211 48.5356 188.262 48.7588 188.32 49.0504C188.364 49.2709 188.493 49.5742 188.666 49.6478C189 49.79 189.385 49.8865 189.693 49.4776C189.995 49.0767 190.339 49.0946 190.757 49.351C190.977 49.4859 191.287 49.5792 191.533 49.5404C191.875 49.4867 192.046 49.5903 192.257 49.8353C192.423 50.0284 192.719 50.1042 192.937 50.2606C193.14 50.4063 193.461 50.5769 193.477 50.7588C193.538 51.4488 194.038 51.6012 194.53 51.6198C195.109 51.6417 195.603 51.7391 195.942 52.2259C196.035 52.3586 196.119 52.6402 196.052 52.7175C195.613 53.2193 195.567 53.8264 195.497 54.437C195.446 54.8839 195.185 55.109 194.728 55.116C194.255 55.1232 194.087 55.3441 194.152 55.8259C194.175 55.9971 194.242 56.2293 194.16 56.3367C193.664 56.992 193.363 57.8641 192.385 58.0249C192.299 58.0389 192.205 58.2108 192.18 58.3239C192.147 58.4701 192.174 58.6312 192.186 58.7851C192.194 58.884 192.193 59.0483 192.243 59.069C192.569 59.2035 192.59 59.4223 192.515 59.7261C192.489 59.8276 192.601 59.9667 192.659 60.0843C192.708 60.1858 192.771 60.2813 192.827 60.3794C192.7 60.4056 192.567 60.4659 192.445 60.4492C192.304 60.43 192.148 60.3714 192.04 60.2808C191.448 59.7842 190.994 59.2208 191.089 58.3667C191.111 58.1705 190.977 57.9599 190.93 57.7523C190.874 57.4996 190.824 57.2443 190.791 56.9877C190.774 56.8556 190.82 56.7159 190.805 56.5831C190.751 56.0762 190.611 55.5667 190.639 55.0656C190.674 54.4215 190.375 54.0771 189.852 53.8246C189.723 53.7621 189.587 53.6765 189.502 53.5648C189.29 53.284 189.12 52.971 188.906 52.6913C188.442 52.0835 188.508 51.427 189.039 50.8833C189.177 50.7418 189.208 50.4441 189.192 50.2249C189.184 50.1063 188.979 49.9157 188.852 49.9067C188.358 49.8715 188.072 49.5379 187.704 49.2793C187.227 48.9436 186.783 48.4831 186.083 48.5432C185.368 48.6046 185.018 48.2329 184.948 47.5175C184.932 47.3518 184.821 47.1943 184.748 47.0351C184.598 46.7044 184.452 46.3715 184.289 46.0474C184.241 45.9526 184.141 45.8844 184.065 45.804C184.016 45.9156 183.901 46.047 183.928 46.1352C184.019 46.4302 184.165 46.7075 184.277 46.9968C184.312 47.087 184.303 47.1941 184.314 47.2935C184.208 47.2608 184.038 47.2571 184.008 47.1902C183.865 46.875 183.751 46.5456 183.647 46.2148C183.587 46.0239 183.634 45.7174 183.517 45.6416C183.085 45.3621 183.054 44.9738 183.039 44.5263L183.038 44.5261ZM190.202 44.0485C190.306 44.086 190.44 44.1582 190.578 44.168C190.617 44.1708 190.729 43.9267 190.707 43.9072C190.381 43.6144 190.064 43.2967 189.689 43.0814C189.519 42.9836 189.225 43.0857 188.993 43.1257C188.949 43.1332 188.916 43.2741 188.901 43.3576C188.875 43.5002 188.858 43.646 188.857 43.7907C188.855 43.914 188.881 44.0376 188.895 44.161C189.007 44.1105 189.144 44.0849 189.226 44.004C189.37 43.8616 189.482 43.6855 189.607 43.5235L189.745 43.5887C189.701 43.7674 189.655 43.9454 189.616 44.125C189.598 44.2077 189.558 44.3348 189.595 44.3685C189.651 44.42 189.797 44.4518 189.849 44.4144C189.979 44.3202 190.078 44.1825 190.202 44.0484L190.202 44.0485Z" fill="white"/>
<path d="M225.163 62.461C217.92 62.383 212.087 56.5145 212.153 49.4091C212.222 42.1397 218.058 36.3333 225.274 36.3857C232.638 36.4393 238.289 42.3978 238.229 49.475C238.167 56.7387 232.276 62.5377 225.163 62.461ZM214.115 44.5261C214.009 44.8327 213.904 45.1396 213.797 45.4459C213.075 47.5173 212.885 49.6461 213.365 51.7779C214.409 56.4207 217.198 59.5977 221.766 60.9615C226.321 62.3215 230.36 61.1637 233.794 57.894C234.157 57.5492 234.578 57.2609 234.242 56.5872C233.944 55.9898 233.855 55.2886 233.672 54.6337C233.662 54.5952 233.642 54.5559 233.616 54.5254C233.315 54.1675 233.353 53.7899 233.582 53.426C233.767 53.1304 233.723 52.8847 233.558 52.593C233.34 52.2057 233.048 51.7934 233.025 51.3789C232.993 50.8057 232.987 50.3594 232.27 50.3388C232.21 50.3371 232.153 50.2492 232.092 50.2461C231.825 50.2322 231.519 50.1482 231.298 50.2478C230.628 50.5501 229.788 50.4294 229.305 49.8847C229.197 49.7622 229.09 49.6383 228.977 49.5191C228.592 49.1099 228.596 48.6552 228.769 48.1515C228.825 47.9902 228.739 47.7843 228.741 47.5992C228.743 47.4482 228.725 47.2436 228.811 47.1576C229.03 46.9378 229.322 46.7914 229.547 46.5756C229.692 46.4357 229.842 46.2338 229.864 46.045C229.906 45.6826 230.102 45.4781 230.413 45.4189C231.104 45.287 231.803 45.1777 232.504 45.1136C232.65 45.1003 232.867 45.2911 232.963 45.4434C233.104 45.6661 234.164 46.1787 234.417 46.0817C234.454 46.0678 234.495 46.0445 234.515 46.0133C234.777 45.6097 235.067 45.788 235.402 45.9227C235.716 46.0494 236.069 46.0917 236.41 46.1357C236.499 46.1471 236.655 46.0483 236.693 45.962C236.811 45.6901 236.415 45.1542 236.139 45.0439C235.904 44.9501 235.711 44.7391 235.514 44.5638C235.423 44.4823 235.365 44.3624 235.292 44.2599C235.191 44.3576 235.088 44.453 234.991 44.5538C234.922 44.6255 234.86 44.7045 234.796 44.7803C234.72 44.7053 234.624 44.6417 234.574 44.5523C234.516 44.4483 234.533 44.2852 234.456 44.2118C234.194 43.9615 233.935 43.6759 233.617 43.5268C233.365 43.4086 233.23 43.6423 233.387 43.8759C233.503 44.0474 233.734 44.1391 233.857 44.3077C233.944 44.4262 233.981 44.624 233.951 44.7673C233.935 44.8431 233.726 44.8778 233.605 44.9312C233.921 44.6959 233.855 44.5416 233.6 44.3594C233.39 44.2091 233.199 44.0333 232.991 43.8797C232.922 43.8291 232.812 43.7651 232.75 43.7878C232.301 43.9528 231.802 44.0447 231.576 44.558C231.379 45.0072 230.992 45.0354 230.575 44.9827C230.233 44.9395 230.132 44.7202 230.127 44.4082C230.123 44.0799 230.302 43.933 230.599 43.9095C230.76 43.8968 230.933 43.9574 231.085 43.921C231.198 43.8939 231.384 43.7078 231.372 43.6881C231.075 43.1762 231.399 43.0432 231.801 42.9337C231.884 42.9111 231.971 42.8317 232.016 42.755C232.219 42.4101 232.515 42.2916 232.907 42.2937C233.035 42.2944 233.163 42.1339 233.291 42.047C233.172 41.9455 233.051 41.8451 232.933 41.7423C232.736 41.5717 232.53 41.4088 232.36 41.2149C232.341 41.1941 232.508 40.9475 232.631 40.8767C233.257 40.5147 233.279 40.4323 232.697 39.9811C229.782 37.7219 226.503 36.9192 222.876 37.5804C221.297 37.868 219.851 38.4954 218.518 39.3825C218.424 39.445 218.36 39.5533 218.282 39.6402C218.389 39.6853 218.494 39.7342 218.602 39.7748C218.895 39.884 219.185 39.998 219.482 40.094C219.673 40.1558 219.871 40.2051 220.07 40.227C220.142 40.235 220.224 40.147 220.302 40.1028C220.252 40.0316 220.218 39.9348 220.151 39.894C219.882 39.7316 219.602 39.5867 219.31 39.426C219.629 39.1228 220 38.8696 220.344 39.1606C220.733 39.4906 221.074 39.6742 221.578 39.4265C221.385 39.568 221.182 39.6174 220.997 39.7045C220.905 39.748 220.77 39.8848 220.787 39.9362C220.821 40.0392 220.95 40.1891 221.031 40.1841C221.297 40.1674 221.56 40.0959 221.822 40.0339C222.08 39.9729 222.314 39.8919 222.149 39.5361C222.129 39.4923 222.213 39.3435 222.265 39.3339C222.407 39.3077 222.557 39.33 222.705 39.3332C222.688 39.4167 222.644 39.5061 222.661 39.5824C222.694 39.7315 222.76 39.8731 222.812 40.0178C222.934 39.9336 223.068 39.8628 223.173 39.7615C223.293 39.6455 223.361 39.4517 223.497 39.3803C223.961 39.1383 224.951 39.3171 225.29 39.7108C225.433 39.8761 225.506 40.1119 225.564 40.328C225.571 40.3567 225.305 40.4577 225.166 40.5281C225.13 40.5464 225.096 40.5713 225.068 40.6001C224.761 40.9173 224.461 40.754 224.101 40.595C224.231 40.5081 224.324 40.4575 224.403 40.3899C224.501 40.3065 224.586 40.209 224.676 40.1176C224.55 40.0266 224.421 39.8577 224.297 39.8603C224.021 39.866 223.709 39.8932 223.479 40.0274C222.892 40.3699 222.746 40.4555 222.187 40.5224C222.08 40.5352 221.97 40.5685 221.874 40.6166C221.643 40.7324 221.4 40.8391 221.197 40.9946C221.041 41.114 220.803 41.3493 220.838 41.4499C220.912 41.6593 221.14 41.8155 221.309 41.9899C221.456 42.1424 221.612 42.2872 221.758 42.4408C221.82 42.5057 221.866 42.6436 221.921 42.6439C222.01 42.6444 222.113 42.5747 222.186 42.5082C222.324 42.3827 222.421 42.1719 222.577 42.1154C222.923 41.9905 222.997 41.7668 223.038 41.4347C223.06 41.2602 223.289 40.9756 223.417 40.9793C223.646 40.9859 223.989 41.1195 224.069 41.2973C224.208 41.6021 224.334 41.6079 224.597 41.5196C224.687 41.4895 224.86 41.5523 224.923 41.6306C225.059 41.8016 225.176 42.0003 225.249 42.2061C225.296 42.336 225.266 42.6252 225.242 42.6284C224.843 42.681 224.44 42.7026 224.037 42.7246C223.884 42.733 223.73 42.7251 223.576 42.7246V43.1582C223.489 43.1938 223.351 43.2209 223.249 43.297C222.869 43.5808 222.491 43.8684 222.133 44.1787C221.887 44.392 221.673 44.6429 221.449 44.881C221.203 45.1423 220.941 45.3927 220.724 45.6767C220.537 45.9206 220.403 46.2041 220.248 46.4719C220.21 46.5375 220.185 46.6102 220.153 46.6797C220.079 46.6334 219.991 46.5993 219.932 46.5381C219.824 46.4269 219.746 46.2126 219.63 46.1933C218.945 46.0791 218.262 46.0763 217.683 46.5492C217.26 46.8946 217.053 47.6758 217.331 47.9797C217.747 48.4362 218.144 48.1243 218.526 47.879C218.538 47.8717 218.548 47.8608 218.561 47.8573C218.647 47.834 218.733 47.8122 218.82 47.79C218.819 47.8798 218.802 47.9729 218.821 48.0585C218.851 48.1974 218.878 48.4316 218.951 48.4502C219.287 48.5356 219.338 48.7588 219.397 49.0504C219.44 49.2709 219.569 49.5742 219.743 49.6478C220.077 49.79 220.462 49.8865 220.77 49.4776C221.071 49.0767 221.416 49.0946 221.834 49.351C222.053 49.4859 222.364 49.5792 222.609 49.5404C222.951 49.4867 223.122 49.5903 223.333 49.8353C223.5 50.0284 223.795 50.1042 224.013 50.2606C224.216 50.4063 224.538 50.5769 224.554 50.7588C224.614 51.4488 225.114 51.6012 225.607 51.6198C226.185 51.6417 226.679 51.7391 227.019 52.2259C227.111 52.3586 227.196 52.6402 227.128 52.7175C226.69 53.2193 226.644 53.8264 226.574 54.437C226.522 54.8839 226.262 55.109 225.805 55.116C225.331 55.1232 225.164 55.3441 225.229 55.8259C225.252 55.9971 225.318 56.2293 225.237 56.3367C224.74 56.992 224.44 57.8641 223.461 58.0249C223.376 58.0389 223.282 58.2108 223.256 58.3239C223.224 58.4701 223.251 58.6312 223.263 58.7851C223.27 58.884 223.269 59.0483 223.319 59.069C223.645 59.2035 223.667 59.4223 223.591 59.7261C223.566 59.8276 223.677 59.9667 223.735 60.0843C223.785 60.1858 223.847 60.2813 223.904 60.3794C223.776 60.4056 223.644 60.4659 223.522 60.4492C223.381 60.43 223.225 60.3714 223.117 60.2808C222.525 59.7842 222.07 59.2208 222.165 58.3667C222.187 58.1705 222.053 57.9599 222.007 57.7523C221.95 57.4996 221.9 57.2443 221.868 56.9877C221.851 56.8556 221.896 56.7159 221.882 56.5831C221.827 56.0762 221.688 55.5667 221.715 55.0656C221.75 54.4215 221.451 54.0771 220.929 53.8246C220.799 53.7621 220.663 53.6765 220.579 53.5648C220.366 53.284 220.196 52.971 219.983 52.6913C219.519 52.0835 219.584 51.427 220.115 50.8833C220.253 50.7418 220.284 50.4441 220.269 50.2249C220.26 50.1063 220.056 49.9157 219.929 49.9067C219.434 49.8715 219.148 49.5379 218.781 49.2793C218.304 48.9436 217.859 48.4831 217.159 48.5432C216.444 48.6046 216.095 48.2329 216.025 47.5175C216.009 47.3518 215.897 47.1943 215.825 47.0351C215.675 46.7044 215.529 46.3715 215.365 46.0474C215.318 45.9526 215.218 45.8844 215.142 45.804C215.092 45.9156 214.978 46.047 215.005 46.1352C215.095 46.4302 215.242 46.7075 215.353 46.9968C215.388 47.087 215.379 47.1941 215.39 47.2935C215.284 47.2608 215.114 47.2571 215.084 47.1902C214.942 46.875 214.827 46.5456 214.724 46.2148C214.664 46.0239 214.71 45.7174 214.593 45.6416C214.162 45.3621 214.13 44.9738 214.115 44.5263L214.115 44.5261ZM221.278 44.0485C221.383 44.086 221.516 44.1582 221.654 44.168C221.694 44.1708 221.805 43.9267 221.783 43.9072C221.458 43.6144 221.141 43.2967 220.766 43.0814C220.596 42.9836 220.302 43.0857 220.069 43.1257C220.026 43.1332 219.992 43.2741 219.977 43.3576C219.952 43.5002 219.935 43.646 219.933 43.7907C219.932 43.914 219.958 44.0376 219.971 44.161C220.084 44.1105 220.22 44.0849 220.302 44.004C220.447 43.8616 220.558 43.6855 220.684 43.5235L220.821 43.5887C220.778 43.7674 220.731 43.9454 220.692 44.125C220.675 44.2077 220.634 44.3348 220.671 44.3685C220.727 44.42 220.874 44.4518 220.925 44.4144C221.056 44.3202 221.154 44.1825 221.278 44.0484L221.278 44.0485Z" fill="white"/>
<path d="M163.011 93.5374C155.767 93.4594 149.934 87.5909 150.001 80.4856C150.069 73.2161 155.905 67.4097 163.122 67.4621C170.486 67.5157 176.136 73.4743 176.076 80.5514C176.014 87.8151 170.123 93.6141 163.011 93.5374ZM151.962 75.6025C151.856 75.9092 151.751 76.216 151.644 76.5224C150.922 78.5937 150.732 80.7225 151.212 82.8543C152.256 87.4971 155.045 90.6741 159.613 92.0379C164.168 93.3979 168.207 92.2401 171.642 88.9705C172.004 88.6256 172.425 88.3373 172.089 87.6636C171.792 87.0662 171.702 86.365 171.519 85.7101C171.509 85.6716 171.489 85.6323 171.463 85.6018C171.162 85.2439 171.201 84.8663 171.429 84.5024C171.614 84.2069 171.57 83.9611 171.405 83.6694C171.187 83.2821 170.895 82.8699 170.872 82.4553C170.84 81.8821 170.834 81.4358 170.117 81.4152C170.057 81.4135 170 81.3256 169.939 81.3225C169.673 81.3086 169.366 81.2247 169.145 81.3242C168.475 81.6265 167.635 81.5058 167.152 80.9612C167.044 80.8386 166.937 80.7147 166.825 80.5955C166.44 80.1864 166.443 79.7316 166.617 79.228C166.672 79.0666 166.586 78.8607 166.589 78.6756C166.59 78.5246 166.572 78.32 166.658 78.234C166.877 78.0142 167.169 77.8678 167.394 77.652C167.54 77.5121 167.689 77.3102 167.711 77.1214C167.753 76.759 167.949 76.5545 168.26 76.4953C168.952 76.3634 169.65 76.2541 170.351 76.19C170.497 76.1767 170.714 76.3675 170.81 76.5198C170.951 76.7425 172.011 77.2551 172.264 77.1582C172.301 77.1442 172.342 77.1209 172.362 77.0897C172.624 76.6862 172.915 76.8644 173.249 76.9991C173.563 77.1258 173.916 77.1681 174.257 77.2121C174.346 77.2236 174.502 77.1248 174.54 77.0384C174.659 76.7665 174.263 76.2306 173.986 76.1204C173.751 76.0265 173.558 75.8155 173.361 75.6402C173.27 75.5587 173.212 75.4388 173.139 75.3363C173.039 75.434 172.936 75.5294 172.838 75.6303C172.769 75.7019 172.708 75.781 172.643 75.8568C172.567 75.7817 172.471 75.7181 172.421 75.6287C172.363 75.5247 172.38 75.3616 172.303 75.2882C172.041 75.0379 171.782 74.7523 171.464 74.6033C171.212 74.485 171.078 74.7188 171.235 74.9523C171.35 75.1238 171.581 75.2155 171.704 75.3841C171.791 75.5026 171.828 75.7004 171.798 75.8437C171.782 75.9195 171.574 75.9543 171.452 76.0076C171.768 75.7723 171.702 75.618 171.448 75.4358C171.238 75.2856 171.046 75.1097 170.838 74.9561C170.77 74.9055 170.659 74.8415 170.597 74.8642C170.148 75.0293 169.649 75.1211 169.424 75.6344C169.226 76.0836 168.839 76.1118 168.422 76.0591C168.08 76.0159 167.979 75.7966 167.974 75.4846C167.97 75.1563 168.149 75.0094 168.446 74.986C168.607 74.9732 168.78 75.0338 168.932 74.9974C169.045 74.9703 169.231 74.7842 169.219 74.7645C168.922 74.2527 169.246 74.1196 169.648 74.0101C169.731 73.9875 169.818 73.9081 169.863 73.8314C170.066 73.4865 170.362 73.368 170.754 73.3701C170.882 73.3708 171.01 73.2103 171.138 73.1234C171.019 73.0219 170.898 72.9215 170.78 72.8187C170.583 72.6481 170.377 72.4852 170.207 72.2913C170.188 72.2705 170.355 72.0239 170.478 71.9532C171.104 71.5911 171.126 71.5087 170.544 71.0575C167.629 68.7983 164.351 67.9956 160.723 68.6568C159.144 68.9444 157.698 69.5718 156.365 70.4589C156.271 70.5215 156.207 70.6297 156.129 70.7166C156.236 70.7617 156.341 70.8106 156.45 70.8512C156.742 70.9605 157.032 71.0744 157.329 71.1704C157.52 71.2322 157.718 71.2815 157.917 71.3035C157.989 71.3114 158.071 71.2234 158.149 71.1792C158.1 71.1081 158.066 71.0112 157.998 70.9704C157.729 70.808 157.45 70.6632 157.157 70.5024C157.476 70.1993 157.847 69.946 158.191 70.237C158.58 70.567 158.921 70.7506 159.425 70.503C159.232 70.6444 159.029 70.6938 158.845 70.7809C158.752 70.8244 158.617 70.9612 158.634 71.0126C158.668 71.1156 158.797 71.2655 158.879 71.2605C159.144 71.2439 159.408 71.1723 159.669 71.1103C159.927 71.0493 160.161 70.9683 159.997 70.6125C159.976 70.5687 160.06 70.4199 160.112 70.4103C160.254 70.3841 160.405 70.4064 160.552 70.4096C160.535 70.4931 160.492 70.5825 160.508 70.6588C160.541 70.8079 160.607 70.9495 160.659 71.0942C160.781 71.01 160.915 70.9392 161.02 70.8379C161.14 70.7219 161.208 70.5281 161.344 70.4567C161.808 70.2147 162.798 70.3935 163.138 70.7872C163.28 70.9525 163.353 71.1883 163.411 71.4045C163.419 71.4331 163.152 71.5341 163.013 71.6045C162.978 71.6228 162.943 71.6477 162.915 71.6766C162.608 71.9938 162.308 71.8305 161.948 71.6714C162.078 71.5846 162.171 71.534 162.25 71.4663C162.348 71.3829 162.433 71.2854 162.523 71.194C162.397 71.103 162.269 70.9341 162.144 70.9367C161.868 70.9425 161.556 70.9696 161.326 71.1038C160.74 71.4463 160.593 71.5319 160.034 71.5988C159.927 71.6116 159.818 71.645 159.722 71.693C159.49 71.8088 159.248 71.9155 159.044 72.071C158.888 72.1904 158.65 72.4257 158.686 72.5263C158.759 72.7357 158.988 72.8919 159.156 73.0664C159.304 73.2188 159.459 73.3636 159.605 73.5172C159.667 73.5822 159.714 73.72 159.768 73.7203C159.857 73.7208 159.96 73.6512 160.033 73.5846C160.171 73.4591 160.268 73.2483 160.424 73.1918C160.77 73.0669 160.845 72.8432 160.885 72.5111C160.907 72.3366 161.136 72.052 161.264 72.0557C161.493 72.0623 161.836 72.1959 161.917 72.3737C162.055 72.6785 162.181 72.6843 162.444 72.596C162.534 72.566 162.707 72.6287 162.77 72.707C162.907 72.878 163.023 73.0768 163.096 73.2825C163.143 73.4125 163.113 73.7016 163.089 73.7048C162.69 73.7574 162.287 73.779 161.884 73.801C161.731 73.8094 161.577 73.8015 161.424 73.801V74.2347C161.336 74.2703 161.198 74.2974 161.096 74.3734C160.716 74.6572 160.338 74.9449 159.98 75.2551C159.734 75.4684 159.52 75.7193 159.296 75.9574C159.05 76.2187 158.788 76.4692 158.571 76.7531C158.385 76.997 158.25 77.2805 158.095 77.5483C158.057 77.6139 158.032 77.6866 158.001 77.7561C157.926 77.7098 157.839 77.6757 157.779 77.6145C157.671 77.5033 157.593 77.289 157.477 77.2697C156.793 77.1555 156.109 77.1528 155.53 77.6256C155.107 77.971 154.901 78.7522 155.178 79.0561C155.594 79.5126 155.991 79.2007 156.373 78.9554C156.385 78.9481 156.395 78.9372 156.408 78.9338C156.494 78.9104 156.58 78.8887 156.667 78.8664C156.666 78.9562 156.649 79.0493 156.668 79.1349C156.698 79.2738 156.725 79.508 156.799 79.5266C157.134 79.612 157.186 79.8352 157.244 80.1268C157.288 80.3473 157.417 80.6506 157.59 80.7243C157.924 80.8664 158.309 80.963 158.617 80.554C158.919 80.1531 159.263 80.171 159.681 80.4274C159.901 80.5623 160.211 80.6556 160.457 80.6169C160.798 80.5631 160.97 80.6667 161.181 80.9117C161.347 81.1048 161.643 81.1806 161.86 81.337C162.063 81.4828 162.385 81.6533 162.401 81.8352C162.461 82.5252 162.962 82.6776 163.454 82.6962C164.032 82.7181 164.527 82.8155 164.866 83.3023C164.958 83.435 165.043 83.7166 164.975 83.7939C164.537 84.2957 164.491 84.9028 164.421 85.5134C164.369 85.9603 164.109 86.1855 163.652 86.1924C163.178 86.1996 163.011 86.4205 163.076 86.9023C163.099 87.0735 163.165 87.3057 163.084 87.4131C162.587 88.0685 162.287 88.9405 161.308 89.1013C161.223 89.1153 161.129 89.2873 161.104 89.4003C161.071 89.5465 161.098 89.7076 161.11 89.8615C161.117 89.9605 161.116 90.1247 161.167 90.1454C161.492 90.28 161.514 90.4987 161.438 90.8025C161.413 90.904 161.525 91.0431 161.582 91.1608C161.632 91.2623 161.694 91.3577 161.751 91.4559C161.623 91.4821 161.491 91.5423 161.369 91.5256C161.228 91.5064 161.072 91.4478 160.964 91.3572C160.372 90.8607 159.917 90.2972 160.013 89.4431C160.035 89.2469 159.9 89.0363 159.854 88.8287C159.797 88.576 159.747 88.3207 159.715 88.0641C159.698 87.932 159.743 87.7924 159.729 87.6595C159.674 87.1526 159.535 86.6431 159.562 86.142C159.598 85.4979 159.299 85.1535 158.776 84.901C158.646 84.8385 158.51 84.7529 158.426 84.6412C158.213 84.3604 158.044 84.0474 157.83 83.7677C157.366 83.16 157.432 82.5034 157.962 81.9597C158.101 81.8182 158.132 81.5205 158.116 81.3014C158.108 81.1827 157.903 80.9921 157.776 80.9831C157.281 80.9479 156.995 80.6143 156.628 80.3557C156.151 80.02 155.707 79.5596 155.006 79.6196C154.292 79.681 153.942 79.3093 153.872 78.594C153.856 78.4282 153.744 78.2707 153.672 78.1116C153.522 77.7809 153.376 77.4479 153.213 77.1238C153.165 77.0291 153.065 76.9608 152.989 76.8804C152.939 76.992 152.825 77.1234 152.852 77.2116C152.942 77.5066 153.089 77.7839 153.2 78.0733C153.235 78.1635 153.226 78.2705 153.237 78.3699C153.132 78.3372 152.961 78.3335 152.931 78.2666C152.789 77.9514 152.674 77.6221 152.571 77.2913C152.511 77.1004 152.558 76.7938 152.44 76.718C152.009 76.4385 151.978 76.0502 151.962 75.6027L151.962 75.6025ZM159.125 75.1249C159.23 75.1624 159.363 75.2346 159.501 75.2445C159.541 75.2472 159.652 75.0031 159.63 74.9836C159.305 74.6908 158.988 74.3731 158.613 74.1578C158.443 74.06 158.149 74.1621 157.916 74.2022C157.873 74.2096 157.839 74.3505 157.824 74.434C157.799 74.5766 157.782 74.7224 157.78 74.8671C157.779 74.9904 157.805 75.114 157.819 75.2374C157.931 75.1869 158.067 75.1613 158.149 75.0804C158.294 74.9381 158.406 74.7619 158.531 74.5999L158.668 74.6651C158.625 74.8438 158.578 75.0218 158.54 75.2014C158.522 75.2841 158.481 75.4112 158.518 75.4449C158.575 75.4964 158.721 75.5283 158.773 75.4908C158.903 75.3966 159.001 75.259 159.125 75.1248L159.125 75.1249Z" fill="white"/>
<path d="M194.087 93.5374C186.844 93.4594 181.01 87.5909 181.077 80.4856C181.145 73.2161 186.981 67.4097 194.198 67.4621C201.562 67.5157 207.212 73.4743 207.152 80.5514C207.091 87.8151 201.199 93.6141 194.087 93.5374ZM183.038 75.6025C182.933 75.9092 182.828 76.216 182.721 76.5224C181.999 78.5937 181.809 80.7225 182.288 82.8543C183.332 87.4971 186.122 90.6741 190.689 92.0379C195.244 93.3979 199.284 92.2401 202.718 88.9705C203.08 88.6256 203.502 88.3373 203.166 87.6636C202.868 87.0662 202.779 86.365 202.596 85.7101C202.585 85.6716 202.565 85.6323 202.54 85.6018C202.238 85.2439 202.277 84.8663 202.505 84.5024C202.69 84.2069 202.646 83.9611 202.482 83.6694C202.264 83.2821 201.971 82.8699 201.948 82.4553C201.917 81.8821 201.911 81.4358 201.193 81.4152C201.133 81.4135 201.076 81.3256 201.016 81.3225C200.749 81.3086 200.442 81.2247 200.222 81.3242C199.551 81.6265 198.711 81.5058 198.229 80.9612C198.12 80.8386 198.013 80.7147 197.901 80.5955C197.516 80.1864 197.52 79.7316 197.693 79.228C197.748 79.0666 197.663 78.8607 197.665 78.6756C197.667 78.5246 197.649 78.32 197.734 78.234C197.954 78.0142 198.246 77.8678 198.47 77.652C198.616 77.5121 198.765 77.3102 198.787 77.1214C198.83 76.759 199.026 76.5545 199.336 76.4953C200.028 76.3634 200.726 76.2541 201.427 76.19C201.573 76.1767 201.79 76.3675 201.887 76.5198C202.028 76.7425 203.087 77.2551 203.341 77.1582C203.377 77.1442 203.418 77.1209 203.439 77.0897C203.7 76.6862 203.991 76.8644 204.325 76.9991C204.64 77.1258 204.993 77.1681 205.334 77.2121C205.422 77.2236 205.579 77.1248 205.616 77.0384C205.735 76.7665 205.339 76.2306 205.063 76.1204C204.827 76.0265 204.635 75.8155 204.438 75.6402C204.346 75.5587 204.289 75.4388 204.216 75.3363C204.115 75.434 204.012 75.5294 203.915 75.6303C203.845 75.7019 203.784 75.781 203.719 75.8568C203.643 75.7817 203.548 75.7181 203.497 75.6287C203.439 75.5247 203.456 75.3616 203.38 75.2882C203.118 75.0379 202.859 74.7523 202.541 74.6033C202.288 74.485 202.154 74.7188 202.311 74.9523C202.426 75.1238 202.658 75.2155 202.781 75.3841C202.867 75.5026 202.905 75.7004 202.874 75.8437C202.858 75.9195 202.65 75.9543 202.528 76.0076C202.845 75.7723 202.779 75.618 202.524 75.4358C202.314 75.2856 202.122 75.1097 201.915 74.9561C201.846 74.9055 201.735 74.8415 201.673 74.8642C201.225 75.0293 200.726 75.1211 200.5 75.6344C200.302 76.0836 199.916 76.1118 199.498 76.0591C199.156 76.0159 199.055 75.7966 199.051 75.4846C199.046 75.1563 199.225 75.0094 199.522 74.986C199.684 74.9732 199.856 75.0338 200.009 74.9974C200.122 74.9703 200.307 74.7842 200.296 74.7645C199.998 74.2527 200.322 74.1196 200.724 74.0101C200.807 73.9875 200.894 73.9081 200.939 73.8314C201.143 73.4865 201.438 73.368 201.831 73.3701C201.958 73.3708 202.087 73.2103 202.215 73.1234C202.095 73.0219 201.975 72.9215 201.856 72.8187C201.66 72.6481 201.454 72.4852 201.283 72.2913C201.265 72.2705 201.432 72.0239 201.554 71.9532C202.181 71.5911 202.202 71.5087 201.62 71.0575C198.705 68.7983 195.427 67.9956 191.799 68.6568C190.221 68.9444 188.775 69.5718 187.441 70.4589C187.347 70.5215 187.284 70.6297 187.206 70.7166C187.312 70.7617 187.418 70.8106 187.526 70.8512C187.818 70.9605 188.109 71.0744 188.405 71.1704C188.596 71.2322 188.795 71.2815 188.993 71.3035C189.065 71.3114 189.148 71.2234 189.225 71.1792C189.176 71.1081 189.142 71.0112 189.074 70.9704C188.805 70.808 188.526 70.6632 188.234 70.5024C188.552 70.1993 188.924 69.946 189.267 70.237C189.657 70.567 189.998 70.7506 190.502 70.503C190.308 70.6444 190.106 70.6938 189.921 70.7809C189.829 70.8244 189.694 70.9612 189.711 71.0126C189.744 71.1156 189.874 71.2655 189.955 71.2605C190.221 71.2439 190.484 71.1723 190.746 71.1103C191.004 71.0493 191.238 70.9683 191.073 70.6125C191.053 70.5687 191.136 70.4199 191.188 70.4103C191.33 70.3841 191.481 70.4064 191.628 70.4096C191.612 70.4931 191.568 70.5825 191.585 70.6588C191.617 70.8079 191.683 70.9495 191.736 71.0942C191.857 71.01 191.992 70.9392 192.097 70.8379C192.217 70.7219 192.284 70.5281 192.421 70.4567C192.884 70.2147 193.875 70.3935 194.214 70.7872C194.357 70.9525 194.429 71.1883 194.487 71.4045C194.495 71.4331 194.228 71.5341 194.09 71.6045C194.054 71.6228 194.019 71.6477 193.992 71.6766C193.684 71.9938 193.384 71.8305 193.024 71.6714C193.154 71.5846 193.248 71.534 193.327 71.4663C193.424 71.3829 193.509 71.2854 193.6 71.194C193.473 71.103 193.345 70.9341 193.22 70.9367C192.944 70.9425 192.632 70.9696 192.403 71.1038C191.816 71.4463 191.669 71.5319 191.11 71.5988C191.003 71.6116 190.894 71.645 190.798 71.693C190.566 71.8088 190.324 71.9155 190.12 72.071C189.964 72.1904 189.727 72.4257 189.762 72.5263C189.835 72.7357 190.064 72.8919 190.233 73.0664C190.38 73.2188 190.535 73.3636 190.682 73.5172C190.743 73.5822 190.79 73.72 190.844 73.7203C190.933 73.7208 191.036 73.6512 191.11 73.5846C191.247 73.4591 191.344 73.2483 191.501 73.1918C191.847 73.0669 191.921 72.8432 191.962 72.5111C191.983 72.3366 192.212 72.052 192.341 72.0557C192.57 72.0623 192.912 72.1959 192.993 72.3737C193.132 72.6785 193.258 72.6843 193.521 72.596C193.61 72.566 193.784 72.6287 193.846 72.707C193.983 72.878 194.099 73.0768 194.173 73.2825C194.219 73.4125 194.19 73.7016 194.166 73.7048C193.767 73.7574 193.363 73.779 192.96 73.801C192.807 73.8094 192.653 73.8015 192.5 73.801V74.2347C192.413 74.2703 192.274 74.2974 192.173 74.3734C191.793 74.6572 191.415 74.9449 191.057 75.2551C190.81 75.4684 190.597 75.7193 190.372 75.9574C190.126 76.2187 189.865 76.4692 189.648 76.7531C189.461 76.997 189.326 77.2805 189.172 77.5483C189.134 77.6139 189.108 77.6866 189.077 77.7561C189.002 77.7098 188.915 77.6757 188.856 77.6145C188.747 77.5033 188.67 77.289 188.554 77.2697C187.869 77.1555 187.186 77.1528 186.607 77.6256C186.184 77.971 185.977 78.7522 186.254 79.0561C186.671 79.5126 187.068 79.2007 187.45 78.9554C187.461 78.9481 187.472 78.9372 187.484 78.9338C187.57 78.9104 187.657 78.8887 187.743 78.8664C187.742 78.9562 187.726 79.0493 187.744 79.1349C187.774 79.2738 187.802 79.508 187.875 79.5266C188.211 79.612 188.262 79.8352 188.32 80.1268C188.364 80.3473 188.493 80.6506 188.666 80.7243C189 80.8664 189.385 80.963 189.693 80.554C189.995 80.1531 190.339 80.171 190.757 80.4274C190.977 80.5623 191.287 80.6556 191.533 80.6169C191.875 80.5631 192.046 80.6667 192.257 80.9117C192.423 81.1048 192.719 81.1806 192.937 81.337C193.14 81.4828 193.461 81.6533 193.477 81.8352C193.538 82.5252 194.038 82.6776 194.53 82.6962C195.109 82.7181 195.603 82.8155 195.942 83.3023C196.035 83.435 196.119 83.7166 196.052 83.7939C195.613 84.2957 195.567 84.9028 195.497 85.5134C195.446 85.9603 195.185 86.1855 194.728 86.1924C194.255 86.1996 194.087 86.4205 194.152 86.9023C194.175 87.0735 194.242 87.3057 194.16 87.4131C193.664 88.0685 193.363 88.9405 192.385 89.1013C192.299 89.1153 192.205 89.2873 192.18 89.4003C192.147 89.5465 192.174 89.7076 192.186 89.8615C192.194 89.9605 192.193 90.1247 192.243 90.1454C192.569 90.28 192.59 90.4987 192.515 90.8025C192.489 90.904 192.601 91.0431 192.659 91.1608C192.708 91.2623 192.771 91.3577 192.827 91.4559C192.7 91.4821 192.567 91.5423 192.445 91.5256C192.304 91.5064 192.148 91.4478 192.04 91.3572C191.448 90.8607 190.994 90.2972 191.089 89.4431C191.111 89.2469 190.977 89.0363 190.93 88.8287C190.874 88.576 190.824 88.3207 190.791 88.0641C190.774 87.932 190.82 87.7924 190.805 87.6595C190.751 87.1526 190.611 86.6431 190.639 86.142C190.674 85.4979 190.375 85.1535 189.852 84.901C189.723 84.8385 189.587 84.7529 189.502 84.6412C189.29 84.3604 189.12 84.0474 188.906 83.7677C188.442 83.16 188.508 82.5034 189.039 81.9597C189.177 81.8182 189.208 81.5205 189.192 81.3014C189.184 81.1827 188.979 80.9921 188.852 80.9831C188.358 80.9479 188.072 80.6143 187.704 80.3557C187.227 80.02 186.783 79.5596 186.083 79.6196C185.368 79.681 185.018 79.3093 184.948 78.594C184.932 78.4282 184.821 78.2707 184.748 78.1116C184.598 77.7809 184.452 77.4479 184.289 77.1238C184.241 77.0291 184.141 76.9608 184.065 76.8804C184.016 76.992 183.901 77.1234 183.928 77.2116C184.019 77.5066 184.165 77.7839 184.277 78.0733C184.312 78.1635 184.303 78.2705 184.314 78.3699C184.208 78.3372 184.038 78.3335 184.008 78.2666C183.865 77.9514 183.751 77.6221 183.647 77.2913C183.587 77.1004 183.634 76.7938 183.517 76.718C183.085 76.4385 183.054 76.0502 183.039 75.6027L183.038 75.6025ZM190.202 75.1249C190.306 75.1624 190.44 75.2346 190.578 75.2445C190.617 75.2472 190.729 75.0031 190.707 74.9836C190.381 74.6908 190.064 74.3731 189.689 74.1578C189.519 74.06 189.225 74.1621 188.993 74.2022C188.949 74.2096 188.916 74.3505 188.901 74.434C188.875 74.5766 188.858 74.7224 188.857 74.8671C188.855 74.9904 188.881 75.114 188.895 75.2374C189.007 75.1869 189.144 75.1613 189.226 75.0804C189.37 74.9381 189.482 74.7619 189.607 74.5999L189.745 74.6651C189.701 74.8438 189.655 75.0218 189.616 75.2014C189.598 75.2841 189.558 75.4112 189.595 75.4449C189.651 75.4964 189.797 75.5283 189.849 75.4908C189.979 75.3966 190.078 75.259 190.202 75.1248L190.202 75.1249Z" fill="white"/>
<path d="M225.163 93.5374C217.92 93.4594 212.087 87.5909 212.153 80.4856C212.222 73.2161 218.058 67.4097 225.274 67.4621C232.638 67.5157 238.289 73.4743 238.229 80.5514C238.167 87.8151 232.276 93.6141 225.163 93.5374ZM214.115 75.6025C214.009 75.9092 213.904 76.216 213.797 76.5224C213.075 78.5937 212.885 80.7225 213.365 82.8543C214.409 87.4971 217.198 90.6741 221.766 92.0379C226.321 93.3979 230.36 92.2401 233.794 88.9705C234.157 88.6256 234.578 88.3373 234.242 87.6636C233.944 87.0662 233.855 86.365 233.672 85.7101C233.662 85.6716 233.642 85.6323 233.616 85.6018C233.315 85.2439 233.353 84.8663 233.582 84.5024C233.767 84.2069 233.723 83.9611 233.558 83.6694C233.34 83.2821 233.048 82.8699 233.025 82.4553C232.993 81.8821 232.987 81.4358 232.27 81.4152C232.21 81.4135 232.153 81.3256 232.092 81.3225C231.825 81.3086 231.519 81.2247 231.298 81.3242C230.628 81.6265 229.788 81.5058 229.305 80.9612C229.197 80.8386 229.09 80.7147 228.977 80.5955C228.592 80.1864 228.596 79.7316 228.769 79.228C228.825 79.0666 228.739 78.8607 228.741 78.6756C228.743 78.5246 228.725 78.32 228.811 78.234C229.03 78.0142 229.322 77.8678 229.547 77.652C229.692 77.5121 229.842 77.3102 229.864 77.1214C229.906 76.759 230.102 76.5545 230.413 76.4953C231.104 76.3634 231.803 76.2541 232.504 76.19C232.65 76.1767 232.867 76.3675 232.963 76.5198C233.104 76.7425 234.164 77.2551 234.417 77.1582C234.454 77.1442 234.495 77.1209 234.515 77.0897C234.777 76.6862 235.067 76.8644 235.402 76.9991C235.716 77.1258 236.069 77.1681 236.41 77.2121C236.499 77.2236 236.655 77.1248 236.693 77.0384C236.811 76.7665 236.415 76.2306 236.139 76.1204C235.904 76.0265 235.711 75.8155 235.514 75.6402C235.423 75.5587 235.365 75.4388 235.292 75.3363C235.191 75.434 235.088 75.5294 234.991 75.6303C234.922 75.7019 234.86 75.781 234.796 75.8568C234.72 75.7817 234.624 75.7181 234.574 75.6287C234.516 75.5247 234.533 75.3616 234.456 75.2882C234.194 75.0379 233.935 74.7523 233.617 74.6033C233.365 74.485 233.23 74.7188 233.387 74.9523C233.503 75.1238 233.734 75.2155 233.857 75.3841C233.944 75.5026 233.981 75.7004 233.951 75.8437C233.935 75.9195 233.726 75.9543 233.605 76.0076C233.921 75.7723 233.855 75.618 233.6 75.4358C233.39 75.2856 233.199 75.1097 232.991 74.9561C232.922 74.9055 232.812 74.8415 232.75 74.8642C232.301 75.0293 231.802 75.1211 231.576 75.6344C231.379 76.0836 230.992 76.1118 230.575 76.0591C230.233 76.0159 230.132 75.7966 230.127 75.4846C230.123 75.1563 230.302 75.0094 230.599 74.986C230.76 74.9732 230.933 75.0338 231.085 74.9974C231.198 74.9703 231.384 74.7842 231.372 74.7645C231.075 74.2527 231.399 74.1196 231.801 74.0101C231.884 73.9875 231.971 73.9081 232.016 73.8314C232.219 73.4865 232.515 73.368 232.907 73.3701C233.035 73.3708 233.163 73.2103 233.291 73.1234C233.172 73.0219 233.051 72.9215 232.933 72.8187C232.736 72.6481 232.53 72.4852 232.36 72.2913C232.341 72.2705 232.508 72.0239 232.631 71.9532C233.257 71.5911 233.279 71.5087 232.697 71.0575C229.782 68.7983 226.503 67.9956 222.876 68.6568C221.297 68.9444 219.851 69.5718 218.518 70.4589C218.424 70.5215 218.36 70.6297 218.282 70.7166C218.389 70.7617 218.494 70.8106 218.602 70.8512C218.895 70.9605 219.185 71.0744 219.482 71.1704C219.673 71.2322 219.871 71.2815 220.07 71.3035C220.142 71.3114 220.224 71.2234 220.302 71.1792C220.252 71.1081 220.218 71.0112 220.151 70.9704C219.882 70.808 219.602 70.6632 219.31 70.5024C219.629 70.1993 220 69.946 220.344 70.237C220.733 70.567 221.074 70.7506 221.578 70.503C221.385 70.6444 221.182 70.6938 220.997 70.7809C220.905 70.8244 220.77 70.9612 220.787 71.0126C220.821 71.1156 220.95 71.2655 221.031 71.2605C221.297 71.2439 221.56 71.1723 221.822 71.1103C222.08 71.0493 222.314 70.9683 222.149 70.6125C222.129 70.5687 222.213 70.4199 222.265 70.4103C222.407 70.3841 222.557 70.4064 222.705 70.4096C222.688 70.4931 222.644 70.5825 222.661 70.6588C222.694 70.8079 222.76 70.9495 222.812 71.0942C222.934 71.01 223.068 70.9392 223.173 70.8379C223.293 70.7219 223.361 70.5281 223.497 70.4567C223.961 70.2147 224.951 70.3935 225.29 70.7872C225.433 70.9525 225.506 71.1883 225.564 71.4045C225.571 71.4331 225.305 71.5341 225.166 71.6045C225.13 71.6228 225.096 71.6477 225.068 71.6766C224.761 71.9938 224.461 71.8305 224.101 71.6714C224.231 71.5846 224.324 71.534 224.403 71.4663C224.501 71.3829 224.586 71.2854 224.676 71.194C224.55 71.103 224.421 70.9341 224.297 70.9367C224.021 70.9425 223.709 70.9696 223.479 71.1038C222.892 71.4463 222.746 71.5319 222.187 71.5988C222.08 71.6116 221.97 71.645 221.874 71.693C221.643 71.8088 221.4 71.9155 221.197 72.071C221.041 72.1904 220.803 72.4257 220.838 72.5263C220.912 72.7357 221.14 72.8919 221.309 73.0664C221.456 73.2188 221.612 73.3636 221.758 73.5172C221.82 73.5822 221.866 73.72 221.921 73.7203C222.01 73.7208 222.113 73.6512 222.186 73.5846C222.324 73.4591 222.421 73.2483 222.577 73.1918C222.923 73.0669 222.997 72.8432 223.038 72.5111C223.06 72.3366 223.289 72.052 223.417 72.0557C223.646 72.0623 223.989 72.1959 224.069 72.3737C224.208 72.6785 224.334 72.6843 224.597 72.596C224.687 72.566 224.86 72.6287 224.923 72.707C225.059 72.878 225.176 73.0768 225.249 73.2825C225.296 73.4125 225.266 73.7016 225.242 73.7048C224.843 73.7574 224.44 73.779 224.037 73.801C223.884 73.8094 223.73 73.8015 223.576 73.801V74.2347C223.489 74.2703 223.351 74.2974 223.249 74.3734C222.869 74.6572 222.491 74.9449 222.133 75.2551C221.887 75.4684 221.673 75.7193 221.449 75.9574C221.203 76.2187 220.941 76.4692 220.724 76.7531C220.537 76.997 220.403 77.2805 220.248 77.5483C220.21 77.6139 220.185 77.6866 220.153 77.7561C220.079 77.7098 219.991 77.6757 219.932 77.6145C219.824 77.5033 219.746 77.289 219.63 77.2697C218.945 77.1555 218.262 77.1528 217.683 77.6256C217.26 77.971 217.053 78.7522 217.331 79.0561C217.747 79.5126 218.144 79.2007 218.526 78.9554C218.538 78.9481 218.548 78.9372 218.561 78.9338C218.647 78.9104 218.733 78.8887 218.82 78.8664C218.819 78.9562 218.802 79.0493 218.821 79.1349C218.851 79.2738 218.878 79.508 218.951 79.5266C219.287 79.612 219.338 79.8352 219.397 80.1268C219.44 80.3473 219.569 80.6506 219.743 80.7243C220.077 80.8664 220.462 80.963 220.77 80.554C221.071 80.1531 221.416 80.171 221.834 80.4274C222.053 80.5623 222.364 80.6556 222.609 80.6169C222.951 80.5631 223.122 80.6667 223.333 80.9117C223.5 81.1048 223.795 81.1806 224.013 81.337C224.216 81.4828 224.538 81.6533 224.554 81.8352C224.614 82.5252 225.114 82.6776 225.607 82.6962C226.185 82.7181 226.679 82.8155 227.019 83.3023C227.111 83.435 227.196 83.7166 227.128 83.7939C226.69 84.2957 226.644 84.9028 226.574 85.5134C226.522 85.9603 226.262 86.1855 225.805 86.1924C225.331 86.1996 225.164 86.4205 225.229 86.9023C225.252 87.0735 225.318 87.3057 225.237 87.4131C224.74 88.0685 224.44 88.9405 223.461 89.1013C223.376 89.1153 223.282 89.2873 223.256 89.4003C223.224 89.5465 223.251 89.7076 223.263 89.8615C223.27 89.9605 223.269 90.1247 223.319 90.1454C223.645 90.28 223.667 90.4987 223.591 90.8025C223.566 90.904 223.677 91.0431 223.735 91.1608C223.785 91.2623 223.847 91.3577 223.904 91.4559C223.776 91.4821 223.644 91.5423 223.522 91.5256C223.381 91.5064 223.225 91.4478 223.117 91.3572C222.525 90.8607 222.07 90.2972 222.165 89.4431C222.187 89.2469 222.053 89.0363 222.007 88.8287C221.95 88.576 221.9 88.3207 221.868 88.0641C221.851 87.932 221.896 87.7924 221.882 87.6595C221.827 87.1526 221.688 86.6431 221.715 86.142C221.75 85.4979 221.451 85.1535 220.929 84.901C220.799 84.8385 220.663 84.7529 220.579 84.6412C220.366 84.3604 220.196 84.0474 219.983 83.7677C219.519 83.16 219.584 82.5034 220.115 81.9597C220.253 81.8182 220.284 81.5205 220.269 81.3014C220.26 81.1827 220.056 80.9921 219.929 80.9831C219.434 80.9479 219.148 80.6143 218.781 80.3557C218.304 80.02 217.859 79.5596 217.159 79.6196C216.444 79.681 216.095 79.3093 216.025 78.594C216.009 78.4282 215.897 78.2707 215.825 78.1116C215.675 77.7809 215.529 77.4479 215.365 77.1238C215.318 77.0291 215.218 76.9608 215.142 76.8804C215.092 76.992 214.978 77.1234 215.005 77.2116C215.095 77.5066 215.242 77.7839 215.353 78.0733C215.388 78.1635 215.379 78.2705 215.39 78.3699C215.284 78.3372 215.114 78.3335 215.084 78.2666C214.942 77.9514 214.827 77.6221 214.724 77.2913C214.664 77.1004 214.71 76.7938 214.593 76.718C214.162 76.4385 214.13 76.0502 214.115 75.6027L214.115 75.6025ZM221.278 75.1249C221.383 75.1624 221.516 75.2346 221.654 75.2445C221.694 75.2472 221.805 75.0031 221.783 74.9836C221.458 74.6908 221.141 74.3731 220.766 74.1578C220.596 74.06 220.302 74.1621 220.069 74.2022C220.026 74.2096 219.992 74.3505 219.977 74.434C219.952 74.5766 219.935 74.7224 219.933 74.8671C219.932 74.9904 219.958 75.114 219.971 75.2374C220.084 75.1869 220.22 75.1613 220.302 75.0804C220.447 74.9381 220.558 74.7619 220.684 74.5999L220.821 74.6651C220.778 74.8438 220.731 75.0218 220.692 75.2014C220.675 75.2841 220.634 75.4112 220.671 75.4449C220.727 75.4964 220.874 75.5283 220.925 75.4908C221.056 75.3966 221.154 75.259 221.278 75.1248L221.278 75.1249Z" fill="white"/>
<path d="M163.011 124.614C155.767 124.536 149.934 118.667 150.001 111.562C150.069 104.292 155.905 98.4861 163.122 98.5386C170.486 98.5921 176.136 104.551 176.076 111.628C176.014 118.892 170.123 124.69 163.011 124.614ZM151.962 106.679C151.856 106.986 151.751 107.292 151.644 107.599C150.922 109.67 150.732 111.799 151.212 113.931C152.256 118.574 155.045 121.751 159.613 123.114C164.168 124.474 168.207 123.317 171.642 120.047C172.004 119.702 172.425 119.414 172.089 118.74C171.792 118.143 171.702 117.441 171.519 116.787C171.509 116.748 171.489 116.709 171.463 116.678C171.162 116.32 171.201 115.943 171.429 115.579C171.614 115.283 171.57 115.038 171.405 114.746C171.187 114.359 170.895 113.946 170.872 113.532C170.84 112.959 170.834 112.512 170.117 112.492C170.057 112.49 170 112.402 169.939 112.399C169.673 112.385 169.366 112.301 169.145 112.401C168.475 112.703 167.635 112.582 167.152 112.038C167.044 111.915 166.937 111.791 166.825 111.672C166.44 111.263 166.443 110.808 166.617 110.304C166.672 110.143 166.586 109.937 166.589 109.752C166.59 109.601 166.572 109.396 166.658 109.31C166.877 109.091 167.169 108.944 167.394 108.728C167.54 108.589 167.689 108.387 167.711 108.198C167.753 107.835 167.949 107.631 168.26 107.572C168.952 107.44 169.65 107.331 170.351 107.266C170.497 107.253 170.714 107.444 170.81 107.596C170.951 107.819 172.011 108.331 172.264 108.235C172.301 108.221 172.342 108.197 172.362 108.166C172.624 107.763 172.915 107.941 173.249 108.076C173.563 108.202 173.916 108.245 174.257 108.289C174.346 108.3 174.502 108.201 174.54 108.115C174.659 107.843 174.263 107.307 173.986 107.197C173.751 107.103 173.558 106.892 173.361 106.717C173.27 106.635 173.212 106.515 173.139 106.413C173.039 106.51 172.936 106.606 172.838 106.707C172.769 106.778 172.708 106.857 172.643 106.933C172.567 106.858 172.471 106.795 172.421 106.705C172.363 106.601 172.38 106.438 172.303 106.365C172.041 106.114 171.782 105.829 171.464 105.68C171.212 105.561 171.078 105.795 171.235 106.029C171.35 106.2 171.581 106.292 171.704 106.461C171.791 106.579 171.828 106.777 171.798 106.92C171.782 106.996 171.574 107.031 171.452 107.084C171.768 106.849 171.702 106.694 171.448 106.512C171.238 106.362 171.046 106.186 170.838 106.032C170.77 105.982 170.659 105.918 170.597 105.941C170.148 106.106 169.649 106.198 169.424 106.711C169.226 107.16 168.839 107.188 168.422 107.136C168.08 107.092 167.979 106.873 167.974 106.561C167.97 106.233 168.149 106.086 168.446 106.062C168.607 106.05 168.78 106.11 168.932 106.074C169.045 106.047 169.231 105.861 169.219 105.841C168.922 105.329 169.246 105.196 169.648 105.087C169.731 105.064 169.818 104.985 169.863 104.908C170.066 104.563 170.362 104.444 170.754 104.447C170.882 104.447 171.01 104.287 171.138 104.2C171.019 104.098 170.898 103.998 170.78 103.895C170.583 103.725 170.377 103.562 170.207 103.368C170.188 103.347 170.355 103.1 170.478 103.03C171.104 102.668 171.126 102.585 170.544 102.134C167.629 99.8747 164.351 99.072 160.723 99.7332C159.144 100.021 157.698 100.648 156.365 101.535C156.271 101.598 156.207 101.706 156.129 101.793C156.236 101.838 156.341 101.887 156.45 101.928C156.742 102.037 157.032 102.151 157.329 102.247C157.52 102.309 157.718 102.358 157.917 102.38C157.989 102.388 158.071 102.3 158.149 102.256C158.1 102.184 158.066 102.088 157.998 102.047C157.729 101.884 157.45 101.74 157.157 101.579C157.476 101.276 157.847 101.022 158.191 101.313C158.58 101.643 158.921 101.827 159.425 101.579C159.232 101.721 159.029 101.77 158.845 101.857C158.752 101.901 158.617 102.038 158.634 102.089C158.668 102.192 158.797 102.342 158.879 102.337C159.144 102.32 159.408 102.249 159.669 102.187C159.927 102.126 160.161 102.045 159.997 101.689C159.976 101.645 160.06 101.496 160.112 101.487C160.254 101.461 160.405 101.483 160.552 101.486C160.535 101.57 160.492 101.659 160.508 101.735C160.541 101.884 160.607 102.026 160.659 102.171C160.781 102.086 160.915 102.016 161.02 101.914C161.14 101.798 161.208 101.605 161.344 101.533C161.808 101.291 162.798 101.47 163.138 101.864C163.28 102.029 163.353 102.265 163.411 102.481C163.419 102.51 163.152 102.611 163.013 102.681C162.978 102.699 162.943 102.724 162.915 102.753C162.608 103.07 162.308 102.907 161.948 102.748C162.078 102.661 162.171 102.61 162.25 102.543C162.348 102.459 162.433 102.362 162.523 102.27C162.397 102.179 162.269 102.011 162.144 102.013C161.868 102.019 161.556 102.046 161.326 102.18C160.74 102.523 160.593 102.608 160.034 102.675C159.927 102.688 159.818 102.721 159.722 102.769C159.49 102.885 159.248 102.992 159.044 103.147C158.888 103.267 158.65 103.502 158.686 103.603C158.759 103.812 158.988 103.968 159.156 104.143C159.304 104.295 159.459 104.44 159.605 104.594C159.667 104.659 159.714 104.796 159.768 104.797C159.857 104.797 159.96 104.728 160.033 104.661C160.171 104.536 160.268 104.325 160.424 104.268C160.77 104.143 160.845 103.92 160.885 103.588C160.907 103.413 161.136 103.128 161.264 103.132C161.493 103.139 161.836 103.272 161.917 103.45C162.055 103.755 162.181 103.761 162.444 103.672C162.534 103.642 162.707 103.705 162.77 103.783C162.907 103.954 163.023 104.153 163.096 104.359C163.143 104.489 163.113 104.778 163.089 104.781C162.69 104.834 162.287 104.855 161.884 104.877C161.731 104.886 161.577 104.878 161.424 104.877V105.311C161.336 105.347 161.198 105.374 161.096 105.45C160.716 105.734 160.338 106.021 159.98 106.332C159.734 106.545 159.52 106.796 159.296 107.034C159.05 107.295 158.788 107.546 158.571 107.83C158.385 108.073 158.25 108.357 158.095 108.625C158.057 108.69 158.032 108.763 158.001 108.833C157.926 108.786 157.839 108.752 157.779 108.691C157.671 108.58 157.593 108.365 157.477 108.346C156.793 108.232 156.109 108.229 155.53 108.702C155.107 109.047 154.901 109.829 155.178 110.133C155.594 110.589 155.991 110.277 156.373 110.032C156.385 110.024 156.395 110.014 156.408 110.01C156.494 109.987 156.58 109.965 156.667 109.943C156.666 110.033 156.649 110.126 156.668 110.211C156.698 110.35 156.725 110.584 156.799 110.603C157.134 110.688 157.186 110.912 157.244 111.203C157.288 111.424 157.417 111.727 157.59 111.801C157.924 111.943 158.309 112.039 158.617 111.63C158.919 111.23 159.263 111.247 159.681 111.504C159.901 111.639 160.211 111.732 160.457 111.693C160.798 111.639 160.97 111.743 161.181 111.988C161.347 112.181 161.643 112.257 161.86 112.413C162.063 112.559 162.385 112.73 162.401 112.912C162.461 113.602 162.962 113.754 163.454 113.773C164.032 113.795 164.527 113.892 164.866 114.379C164.958 114.511 165.043 114.793 164.975 114.87C164.537 115.372 164.491 115.979 164.421 116.59C164.369 117.037 164.109 117.262 163.652 117.269C163.178 117.276 163.011 117.497 163.076 117.979C163.099 118.15 163.165 118.382 163.084 118.49C162.587 119.145 162.287 120.017 161.308 120.178C161.223 120.192 161.129 120.364 161.104 120.477C161.071 120.623 161.098 120.784 161.11 120.938C161.117 121.037 161.116 121.201 161.167 121.222C161.492 121.356 161.514 121.575 161.438 121.879C161.413 121.98 161.525 122.12 161.582 122.237C161.632 122.339 161.694 122.434 161.751 122.532C161.623 122.558 161.491 122.619 161.369 122.602C161.228 122.583 161.072 122.524 160.964 122.434C160.372 121.937 159.917 121.374 160.013 120.52C160.035 120.323 159.9 120.113 159.854 119.905C159.797 119.652 159.747 119.397 159.715 119.141C159.698 119.008 159.743 118.869 159.729 118.736C159.674 118.229 159.535 117.72 159.562 117.218C159.598 116.574 159.299 116.23 158.776 115.977C158.646 115.915 158.51 115.829 158.426 115.718C158.213 115.437 158.044 115.124 157.83 114.844C157.366 114.236 157.432 113.58 157.962 113.036C158.101 112.895 158.132 112.597 158.116 112.378C158.108 112.259 157.903 112.069 157.776 112.06C157.281 112.024 156.995 111.691 156.628 111.432C156.151 111.096 155.707 110.636 155.006 110.696C154.292 110.757 153.942 110.386 153.872 109.67C153.856 109.505 153.744 109.347 153.672 109.188C153.522 108.857 153.376 108.524 153.213 108.2C153.165 108.105 153.065 108.037 152.989 107.957C152.939 108.068 152.825 108.2 152.852 108.288C152.942 108.583 153.089 108.86 153.2 109.15C153.235 109.24 153.226 109.347 153.237 109.446C153.132 109.414 152.961 109.41 152.931 109.343C152.789 109.028 152.674 108.698 152.571 108.368C152.511 108.177 152.558 107.87 152.44 107.794C152.009 107.515 151.978 107.127 151.962 106.679L151.962 106.679ZM159.125 106.201C159.23 106.239 159.363 106.311 159.501 106.321C159.541 106.324 159.652 106.08 159.63 106.06C159.305 105.767 158.988 105.449 158.613 105.234C158.443 105.136 158.149 105.239 157.916 105.279C157.873 105.286 157.839 105.427 157.824 105.51C157.799 105.653 157.782 105.799 157.78 105.944C157.779 106.067 157.805 106.19 157.819 106.314C157.931 106.263 158.067 106.238 158.149 106.157C158.294 106.014 158.406 105.838 158.531 105.676L158.668 105.742C158.625 105.92 158.578 106.098 158.54 106.278C158.522 106.36 158.481 106.488 158.518 106.521C158.575 106.573 158.721 106.605 158.773 106.567C158.903 106.473 159.001 106.335 159.125 106.201L159.125 106.201Z" fill="white"/>
<path d="M194.087 124.614C186.844 124.536 181.01 118.667 181.077 111.562C181.145 104.292 186.981 98.4861 194.198 98.5386C201.562 98.5921 207.212 104.551 207.152 111.628C207.091 118.892 201.199 124.69 194.087 124.614ZM183.038 106.679C182.933 106.986 182.828 107.292 182.721 107.599C181.999 109.67 181.809 111.799 182.288 113.931C183.332 118.574 186.122 121.751 190.689 123.114C195.244 124.474 199.284 123.317 202.718 120.047C203.08 119.702 203.502 119.414 203.166 118.74C202.868 118.143 202.779 117.441 202.596 116.787C202.585 116.748 202.565 116.709 202.54 116.678C202.238 116.32 202.277 115.943 202.505 115.579C202.69 115.283 202.646 115.038 202.482 114.746C202.264 114.359 201.971 113.946 201.948 113.532C201.917 112.959 201.911 112.512 201.193 112.492C201.133 112.49 201.076 112.402 201.016 112.399C200.749 112.385 200.442 112.301 200.222 112.401C199.551 112.703 198.711 112.582 198.229 112.038C198.12 111.915 198.013 111.791 197.901 111.672C197.516 111.263 197.52 110.808 197.693 110.304C197.748 110.143 197.663 109.937 197.665 109.752C197.667 109.601 197.649 109.396 197.734 109.31C197.954 109.091 198.246 108.944 198.47 108.728C198.616 108.589 198.765 108.387 198.787 108.198C198.83 107.835 199.026 107.631 199.336 107.572C200.028 107.44 200.726 107.331 201.427 107.266C201.573 107.253 201.79 107.444 201.887 107.596C202.028 107.819 203.087 108.331 203.341 108.235C203.377 108.221 203.418 108.197 203.439 108.166C203.7 107.763 203.991 107.941 204.325 108.076C204.64 108.202 204.993 108.245 205.334 108.289C205.422 108.3 205.579 108.201 205.616 108.115C205.735 107.843 205.339 107.307 205.063 107.197C204.827 107.103 204.635 106.892 204.438 106.717C204.346 106.635 204.289 106.515 204.216 106.413C204.115 106.51 204.012 106.606 203.915 106.707C203.845 106.778 203.784 106.857 203.719 106.933C203.643 106.858 203.548 106.795 203.497 106.705C203.439 106.601 203.456 106.438 203.38 106.365C203.118 106.114 202.859 105.829 202.541 105.68C202.288 105.561 202.154 105.795 202.311 106.029C202.426 106.2 202.658 106.292 202.781 106.461C202.867 106.579 202.905 106.777 202.874 106.92C202.858 106.996 202.65 107.031 202.528 107.084C202.845 106.849 202.779 106.694 202.524 106.512C202.314 106.362 202.122 106.186 201.915 106.032C201.846 105.982 201.735 105.918 201.673 105.941C201.225 106.106 200.726 106.198 200.5 106.711C200.302 107.16 199.916 107.188 199.498 107.136C199.156 107.092 199.055 106.873 199.051 106.561C199.046 106.233 199.225 106.086 199.522 106.062C199.684 106.05 199.856 106.11 200.009 106.074C200.122 106.047 200.307 105.861 200.296 105.841C199.998 105.329 200.322 105.196 200.724 105.087C200.807 105.064 200.894 104.985 200.939 104.908C201.143 104.563 201.438 104.444 201.831 104.447C201.958 104.447 202.087 104.287 202.215 104.2C202.095 104.098 201.975 103.998 201.856 103.895C201.66 103.725 201.454 103.562 201.283 103.368C201.265 103.347 201.432 103.1 201.554 103.03C202.181 102.668 202.202 102.585 201.62 102.134C198.705 99.8747 195.427 99.072 191.799 99.7332C190.221 100.021 188.775 100.648 187.441 101.535C187.347 101.598 187.284 101.706 187.206 101.793C187.312 101.838 187.418 101.887 187.526 101.928C187.818 102.037 188.109 102.151 188.405 102.247C188.596 102.309 188.795 102.358 188.993 102.38C189.065 102.388 189.148 102.3 189.225 102.256C189.176 102.184 189.142 102.088 189.074 102.047C188.805 101.884 188.526 101.74 188.234 101.579C188.552 101.276 188.924 101.022 189.267 101.313C189.657 101.643 189.998 101.827 190.502 101.579C190.308 101.721 190.106 101.77 189.921 101.857C189.829 101.901 189.694 102.038 189.711 102.089C189.744 102.192 189.874 102.342 189.955 102.337C190.221 102.32 190.484 102.249 190.746 102.187C191.004 102.126 191.238 102.045 191.073 101.689C191.053 101.645 191.136 101.496 191.188 101.487C191.33 101.461 191.481 101.483 191.628 101.486C191.612 101.57 191.568 101.659 191.585 101.735C191.617 101.884 191.683 102.026 191.736 102.171C191.857 102.086 191.992 102.016 192.097 101.914C192.217 101.798 192.284 101.605 192.421 101.533C192.884 101.291 193.875 101.47 194.214 101.864C194.357 102.029 194.429 102.265 194.487 102.481C194.495 102.51 194.228 102.611 194.09 102.681C194.054 102.699 194.019 102.724 193.992 102.753C193.684 103.07 193.384 102.907 193.024 102.748C193.154 102.661 193.248 102.61 193.327 102.543C193.424 102.459 193.509 102.362 193.6 102.27C193.473 102.179 193.345 102.011 193.22 102.013C192.944 102.019 192.632 102.046 192.403 102.18C191.816 102.523 191.669 102.608 191.11 102.675C191.003 102.688 190.894 102.721 190.798 102.769C190.566 102.885 190.324 102.992 190.12 103.147C189.964 103.267 189.727 103.502 189.762 103.603C189.835 103.812 190.064 103.968 190.233 104.143C190.38 104.295 190.535 104.44 190.682 104.594C190.743 104.659 190.79 104.796 190.844 104.797C190.933 104.797 191.036 104.728 191.11 104.661C191.247 104.536 191.344 104.325 191.501 104.268C191.847 104.143 191.921 103.92 191.962 103.588C191.983 103.413 192.212 103.128 192.341 103.132C192.57 103.139 192.912 103.272 192.993 103.45C193.132 103.755 193.258 103.761 193.521 103.672C193.61 103.642 193.784 103.705 193.846 103.783C193.983 103.954 194.099 104.153 194.173 104.359C194.219 104.489 194.19 104.778 194.166 104.781C193.767 104.834 193.363 104.855 192.96 104.877C192.807 104.886 192.653 104.878 192.5 104.877V105.311C192.413 105.347 192.274 105.374 192.173 105.45C191.793 105.734 191.415 106.021 191.057 106.332C190.81 106.545 190.597 106.796 190.372 107.034C190.126 107.295 189.865 107.546 189.648 107.83C189.461 108.073 189.326 108.357 189.172 108.625C189.134 108.69 189.108 108.763 189.077 108.833C189.002 108.786 188.915 108.752 188.856 108.691C188.747 108.58 188.67 108.365 188.554 108.346C187.869 108.232 187.186 108.229 186.607 108.702C186.184 109.047 185.977 109.829 186.254 110.133C186.671 110.589 187.068 110.277 187.45 110.032C187.461 110.024 187.472 110.014 187.484 110.01C187.57 109.987 187.657 109.965 187.743 109.943C187.742 110.033 187.726 110.126 187.744 110.211C187.774 110.35 187.802 110.584 187.875 110.603C188.211 110.688 188.262 110.912 188.32 111.203C188.364 111.424 188.493 111.727 188.666 111.801C189 111.943 189.385 112.039 189.693 111.63C189.995 111.23 190.339 111.247 190.757 111.504C190.977 111.639 191.287 111.732 191.533 111.693C191.875 111.639 192.046 111.743 192.257 111.988C192.423 112.181 192.719 112.257 192.937 112.413C193.14 112.559 193.461 112.73 193.477 112.912C193.538 113.602 194.038 113.754 194.53 113.773C195.109 113.795 195.603 113.892 195.942 114.379C196.035 114.511 196.119 114.793 196.052 114.87C195.613 115.372 195.567 115.979 195.497 116.59C195.446 117.037 195.185 117.262 194.728 117.269C194.255 117.276 194.087 117.497 194.152 117.979C194.175 118.15 194.242 118.382 194.16 118.49C193.664 119.145 193.363 120.017 192.385 120.178C192.299 120.192 192.205 120.364 192.18 120.477C192.147 120.623 192.174 120.784 192.186 120.938C192.194 121.037 192.193 121.201 192.243 121.222C192.569 121.356 192.59 121.575 192.515 121.879C192.489 121.98 192.601 122.12 192.659 122.237C192.708 122.339 192.771 122.434 192.827 122.532C192.7 122.558 192.567 122.619 192.445 122.602C192.304 122.583 192.148 122.524 192.04 122.434C191.448 121.937 190.994 121.374 191.089 120.52C191.111 120.323 190.977 120.113 190.93 119.905C190.874 119.652 190.824 119.397 190.791 119.141C190.774 119.008 190.82 118.869 190.805 118.736C190.751 118.229 190.611 117.72 190.639 117.218C190.674 116.574 190.375 116.23 189.852 115.977C189.723 115.915 189.587 115.829 189.502 115.718C189.29 115.437 189.12 115.124 188.906 114.844C188.442 114.236 188.508 113.58 189.039 113.036C189.177 112.895 189.208 112.597 189.192 112.378C189.184 112.259 188.979 112.069 188.852 112.06C188.358 112.024 188.072 111.691 187.704 111.432C187.227 111.096 186.783 110.636 186.083 110.696C185.368 110.757 185.018 110.386 184.948 109.67C184.932 109.505 184.821 109.347 184.748 109.188C184.598 108.857 184.452 108.524 184.289 108.2C184.241 108.105 184.141 108.037 184.065 107.957C184.016 108.068 183.901 108.2 183.928 108.288C184.019 108.583 184.165 108.86 184.277 109.15C184.312 109.24 184.303 109.347 184.314 109.446C184.208 109.414 184.038 109.41 184.008 109.343C183.865 109.028 183.751 108.698 183.647 108.368C183.587 108.177 183.634 107.87 183.517 107.794C183.085 107.515 183.054 107.127 183.039 106.679L183.038 106.679ZM190.202 106.201C190.306 106.239 190.44 106.311 190.578 106.321C190.617 106.324 190.729 106.08 190.707 106.06C190.381 105.767 190.064 105.449 189.689 105.234C189.519 105.136 189.225 105.239 188.993 105.279C188.949 105.286 188.916 105.427 188.901 105.51C188.875 105.653 188.858 105.799 188.857 105.944C188.855 106.067 188.881 106.19 188.895 106.314C189.007 106.263 189.144 106.238 189.226 106.157C189.37 106.014 189.482 105.838 189.607 105.676L189.745 105.742C189.701 105.92 189.655 106.098 189.616 106.278C189.598 106.36 189.558 106.488 189.595 106.521C189.651 106.573 189.797 106.605 189.849 106.567C189.979 106.473 190.078 106.335 190.202 106.201L190.202 106.201Z" fill="white"/>
<path d="M225.163 124.614C217.92 124.536 212.087 118.667 212.153 111.562C212.222 104.292 218.058 98.4861 225.274 98.5386C232.638 98.5921 238.289 104.551 238.229 111.628C238.167 118.892 232.276 124.69 225.163 124.614ZM214.115 106.679C214.009 106.986 213.904 107.292 213.797 107.599C213.075 109.67 212.885 111.799 213.365 113.931C214.409 118.574 217.198 121.751 221.766 123.114C226.321 124.474 230.36 123.317 233.794 120.047C234.157 119.702 234.578 119.414 234.242 118.74C233.944 118.143 233.855 117.441 233.672 116.787C233.662 116.748 233.642 116.709 233.616 116.678C233.315 116.32 233.353 115.943 233.582 115.579C233.767 115.283 233.723 115.038 233.558 114.746C233.34 114.359 233.048 113.946 233.025 113.532C232.993 112.959 232.987 112.512 232.27 112.492C232.21 112.49 232.153 112.402 232.092 112.399C231.825 112.385 231.519 112.301 231.298 112.401C230.628 112.703 229.788 112.582 229.305 112.038C229.197 111.915 229.09 111.791 228.977 111.672C228.592 111.263 228.596 110.808 228.769 110.304C228.825 110.143 228.739 109.937 228.741 109.752C228.743 109.601 228.725 109.396 228.811 109.31C229.03 109.091 229.322 108.944 229.547 108.728C229.692 108.589 229.842 108.387 229.864 108.198C229.906 107.835 230.102 107.631 230.413 107.572C231.104 107.44 231.803 107.331 232.504 107.266C232.65 107.253 232.867 107.444 232.963 107.596C233.104 107.819 234.164 108.331 234.417 108.235C234.454 108.221 234.495 108.197 234.515 108.166C234.777 107.763 235.067 107.941 235.402 108.076C235.716 108.202 236.069 108.245 236.41 108.289C236.499 108.3 236.655 108.201 236.693 108.115C236.811 107.843 236.415 107.307 236.139 107.197C235.904 107.103 235.711 106.892 235.514 106.717C235.423 106.635 235.365 106.515 235.292 106.413C235.191 106.51 235.088 106.606 234.991 106.707C234.922 106.778 234.86 106.857 234.796 106.933C234.72 106.858 234.624 106.795 234.574 106.705C234.516 106.601 234.533 106.438 234.456 106.365C234.194 106.114 233.935 105.829 233.617 105.68C233.365 105.561 233.23 105.795 233.387 106.029C233.503 106.2 233.734 106.292 233.857 106.461C233.944 106.579 233.981 106.777 233.951 106.92C233.935 106.996 233.726 107.031 233.605 107.084C233.921 106.849 233.855 106.694 233.6 106.512C233.39 106.362 233.199 106.186 232.991 106.032C232.922 105.982 232.812 105.918 232.75 105.941C232.301 106.106 231.802 106.198 231.576 106.711C231.379 107.16 230.992 107.188 230.575 107.136C230.233 107.092 230.132 106.873 230.127 106.561C230.123 106.233 230.302 106.086 230.599 106.062C230.76 106.05 230.933 106.11 231.085 106.074C231.198 106.047 231.384 105.861 231.372 105.841C231.075 105.329 231.399 105.196 231.801 105.087C231.884 105.064 231.971 104.985 232.016 104.908C232.219 104.563 232.515 104.444 232.907 104.447C233.035 104.447 233.163 104.287 233.291 104.2C233.172 104.098 233.051 103.998 232.933 103.895C232.736 103.725 232.53 103.562 232.36 103.368C232.341 103.347 232.508 103.1 232.631 103.03C233.257 102.668 233.279 102.585 232.697 102.134C229.782 99.8747 226.503 99.072 222.876 99.7332C221.297 100.021 219.851 100.648 218.518 101.535C218.424 101.598 218.36 101.706 218.282 101.793C218.389 101.838 218.494 101.887 218.602 101.928C218.895 102.037 219.185 102.151 219.482 102.247C219.673 102.309 219.871 102.358 220.07 102.38C220.142 102.388 220.224 102.3 220.302 102.256C220.252 102.184 220.218 102.088 220.151 102.047C219.882 101.884 219.602 101.74 219.31 101.579C219.629 101.276 220 101.022 220.344 101.313C220.733 101.643 221.074 101.827 221.578 101.579C221.385 101.721 221.182 101.77 220.997 101.857C220.905 101.901 220.77 102.038 220.787 102.089C220.821 102.192 220.95 102.342 221.031 102.337C221.297 102.32 221.56 102.249 221.822 102.187C222.08 102.126 222.314 102.045 222.149 101.689C222.129 101.645 222.213 101.496 222.265 101.487C222.407 101.461 222.557 101.483 222.705 101.486C222.688 101.57 222.644 101.659 222.661 101.735C222.694 101.884 222.76 102.026 222.812 102.171C222.934 102.086 223.068 102.016 223.173 101.914C223.293 101.798 223.361 101.605 223.497 101.533C223.961 101.291 224.951 101.47 225.29 101.864C225.433 102.029 225.506 102.265 225.564 102.481C225.571 102.51 225.305 102.611 225.166 102.681C225.13 102.699 225.096 102.724 225.068 102.753C224.761 103.07 224.461 102.907 224.101 102.748C224.231 102.661 224.324 102.61 224.403 102.543C224.501 102.459 224.586 102.362 224.676 102.27C224.55 102.179 224.421 102.011 224.297 102.013C224.021 102.019 223.709 102.046 223.479 102.18C222.892 102.523 222.746 102.608 222.187 102.675C222.08 102.688 221.97 102.721 221.874 102.769C221.643 102.885 221.4 102.992 221.197 103.147C221.041 103.267 220.803 103.502 220.838 103.603C220.912 103.812 221.14 103.968 221.309 104.143C221.456 104.295 221.612 104.44 221.758 104.594C221.82 104.659 221.866 104.796 221.921 104.797C222.01 104.797 222.113 104.728 222.186 104.661C222.324 104.536 222.421 104.325 222.577 104.268C222.923 104.143 222.997 103.92 223.038 103.588C223.06 103.413 223.289 103.128 223.417 103.132C223.646 103.139 223.989 103.272 224.069 103.45C224.208 103.755 224.334 103.761 224.597 103.672C224.687 103.642 224.86 103.705 224.923 103.783C225.059 103.954 225.176 104.153 225.249 104.359C225.296 104.489 225.266 104.778 225.242 104.781C224.843 104.834 224.44 104.855 224.037 104.877C223.884 104.886 223.73 104.878 223.576 104.877V105.311C223.489 105.347 223.351 105.374 223.249 105.45C222.869 105.734 222.491 106.021 222.133 106.332C221.887 106.545 221.673 106.796 221.449 107.034C221.203 107.295 220.941 107.546 220.724 107.83C220.537 108.073 220.403 108.357 220.248 108.625C220.21 108.69 220.185 108.763 220.153 108.833C220.079 108.786 219.991 108.752 219.932 108.691C219.824 108.58 219.746 108.365 219.63 108.346C218.945 108.232 218.262 108.229 217.683 108.702C217.26 109.047 217.053 109.829 217.331 110.133C217.747 110.589 218.144 110.277 218.526 110.032C218.538 110.024 218.548 110.014 218.561 110.01C218.647 109.987 218.733 109.965 218.82 109.943C218.819 110.033 218.802 110.126 218.821 110.211C218.851 110.35 218.878 110.584 218.951 110.603C219.287 110.688 219.338 110.912 219.397 111.203C219.44 111.424 219.569 111.727 219.743 111.801C220.077 111.943 220.462 112.039 220.77 111.63C221.071 111.23 221.416 111.247 221.834 111.504C222.053 111.639 222.364 111.732 222.609 111.693C222.951 111.639 223.122 111.743 223.333 111.988C223.5 112.181 223.795 112.257 224.013 112.413C224.216 112.559 224.538 112.73 224.554 112.912C224.614 113.602 225.114 113.754 225.607 113.773C226.185 113.795 226.679 113.892 227.019 114.379C227.111 114.511 227.196 114.793 227.128 114.87C226.69 115.372 226.644 115.979 226.574 116.59C226.522 117.037 226.262 117.262 225.805 117.269C225.331 117.276 225.164 117.497 225.229 117.979C225.252 118.15 225.318 118.382 225.237 118.49C224.74 119.145 224.44 120.017 223.461 120.178C223.376 120.192 223.282 120.364 223.256 120.477C223.224 120.623 223.251 120.784 223.263 120.938C223.27 121.037 223.269 121.201 223.319 121.222C223.645 121.356 223.667 121.575 223.591 121.879C223.566 121.98 223.677 122.12 223.735 122.237C223.785 122.339 223.847 122.434 223.904 122.532C223.776 122.558 223.644 122.619 223.522 122.602C223.381 122.583 223.225 122.524 223.117 122.434C222.525 121.937 222.07 121.374 222.165 120.52C222.187 120.323 222.053 120.113 222.007 119.905C221.95 119.652 221.9 119.397 221.868 119.141C221.851 119.008 221.896 118.869 221.882 118.736C221.827 118.229 221.688 117.72 221.715 117.218C221.75 116.574 221.451 116.23 220.929 115.977C220.799 115.915 220.663 115.829 220.579 115.718C220.366 115.437 220.196 115.124 219.983 114.844C219.519 114.236 219.584 113.58 220.115 113.036C220.253 112.895 220.284 112.597 220.269 112.378C220.26 112.259 220.056 112.069 219.929 112.06C219.434 112.024 219.148 111.691 218.781 111.432C218.304 111.096 217.859 110.636 217.159 110.696C216.444 110.757 216.095 110.386 216.025 109.67C216.009 109.505 215.897 109.347 215.825 109.188C215.675 108.857 215.529 108.524 215.365 108.2C215.318 108.105 215.218 108.037 215.142 107.957C215.092 108.068 214.978 108.2 215.005 108.288C215.095 108.583 215.242 108.86 215.353 109.15C215.388 109.24 215.379 109.347 215.39 109.446C215.284 109.414 215.114 109.41 215.084 109.343C214.942 109.028 214.827 108.698 214.724 108.368C214.664 108.177 214.71 107.87 214.593 107.794C214.162 107.515 214.13 107.127 214.115 106.679L214.115 106.679ZM221.278 106.201C221.383 106.239 221.516 106.311 221.654 106.321C221.694 106.324 221.805 106.08 221.783 106.06C221.458 105.767 221.141 105.449 220.766 105.234C220.596 105.136 220.302 105.239 220.069 105.279C220.026 105.286 219.992 105.427 219.977 105.51C219.952 105.653 219.935 105.799 219.933 105.944C219.932 106.067 219.958 106.19 219.971 106.314C220.084 106.263 220.22 106.238 220.302 106.157C220.447 106.014 220.558 105.838 220.684 105.676L220.821 105.742C220.778 105.92 220.731 106.098 220.692 106.278C220.675 106.36 220.634 106.488 220.671 106.521C220.727 106.573 220.874 106.605 220.925 106.567C221.056 106.473 221.154 106.335 221.278 106.201L221.278 106.201Z" fill="white"/>
<defs>
<radialGradient id="paint0_radial_16_4527" cx="0" cy="0" r="1" gradientUnits="userSpaceOnUse" gradientTransform="translate(60.5884 71.1991) rotate(-44.5093) scale(51.751 51.7474)">
<stop stop-color="#F9CD78"/>
<stop offset="1" stop-color="#FFC82A"/>
</radialGradient>
<radialGradient id="paint1_radial_16_4527" cx="0" cy="0" r="1" gradientUnits="userSpaceOnUse" gradientTransform="translate(62.1998 82.3945) rotate(-83.497) scale(37.8976 27.4895)">
<stop stop-color="#FDC079"/>
<stop offset="0.955" stop-color="#FFB06B" stop-opacity="0"/>
</radialGradient>
<radialGradient id="paint2_radial_16_4527" cx="0" cy="0" r="1" gradientUnits="userSpaceOnUse" gradientTransform="translate(84.6071 75.1178) rotate(-44.5093) scale(36.0699 36.0674)">
<stop stop-color="#FDC079"/>
<stop offset="0.955" stop-color="#FFB06B"/>
</radialGradient>
<radialGradient id="paint3_radial_16_4527" cx="0" cy="0" r="1" gradientUnits="userSpaceOnUse" gradientTransform="translate(86.4263 74.2001) rotate(-44.5093) scale(34.7818 34.7794)">
<stop stop-color="#FDC079"/>
<stop offset="0.955" stop-color="#FFB06B"/>
</radialGradient>
<radialGradient id="paint4_radial_16_4527" cx="0" cy="0" r="1" gradientUnits="userSpaceOnUse" gradientTransform="translate(75.1932 52.6642) scale(37.511 37.3363)">
<stop stop-color="#FDC079"/>
<stop offset="0.955" stop-color="#FFB06B"/>
</radialGradient>
<radialGradient id="paint5_radial_16_4527" cx="0" cy="0" r="1" gradientUnits="userSpaceOnUse" gradientTransform="translate(86.8422 79.6779) scale(37.511 37.3363)">
<stop stop-color="#FDC079"/>
<stop offset="0.955" stop-color="#FFB06B"/>
</radialGradient>
<radialGradient id="paint6_radial_16_4527" cx="0" cy="0" r="1" gradientUnits="userSpaceOnUse" gradientTransform="translate(79.1102 76.3462) scale(39.1824 38.9999)">
<stop stop-color="#FDC079"/>
<stop offset="0.955" stop-color="#633E24"/>
</radialGradient>
<radialGradient id="paint7_radial_16_4527" cx="0" cy="0" r="1" gradientUnits="userSpaceOnUse" gradientTransform="translate(78.6965 62.2613) scale(38.7627 38.5822)">
<stop stop-color="#FDC079"/>
<stop offset="0.955" stop-color="#FFB06B"/>
</radialGradient>
<radialGradient id="paint8_radial_16_4527" cx="0" cy="0" r="1" gradientUnits="userSpaceOnUse" gradientTransform="translate(89.7871 87.3882) scale(37.9263 37.7497)">
<stop stop-color="#FDC079"/>
<stop offset="0.955" stop-color="#633E24"/>
</radialGradient>
<radialGradient id="paint9_radial_16_4527" cx="0" cy="0" r="1" gradientUnits="userSpaceOnUse" gradientTransform="translate(66.6848 43.9965) scale(37.9263 37.7497)">
<stop stop-color="#FDC079"/>
<stop offset="0.955" stop-color="#633E24"/>
</radialGradient>
<radialGradient id="paint10_radial_16_4527" cx="0" cy="0" r="1" gradientUnits="userSpaceOnUse" gradientTransform="translate(77.8557 68.0282) scale(57.9889 57.7188)">
<stop stop-color="#F9CD78"/>
<stop offset="1" stop-color="#FFC82A"/>
</radialGradient>
<radialGradient id="paint11_radial_16_4527" cx="0" cy="0" r="1" gradientUnits="userSpaceOnUse" gradientTransform="translate(77.7682 68.0255) scale(50.3022 50.068)">
<stop stop-color="#F9CD78"/>
<stop offset="1" stop-color="#FFC82A"/>
</radialGradient>
<clipPath id="clip0_16_4527">
<rect width="13" height="8" fill="white" transform="translate(128 69)"/>
</clipPath>
</defs>
</svg>
