<svg width="270" height="146" viewBox="0 0 270 146" fill="none" xmlns="http://www.w3.org/2000/svg">
<g clip-path="url(#clip0_16_4524)">
<g clip-path="url(#clip1_16_4524)">
<path d="M106.326 62.0648C112.392 81.0691 101.903 101.394 82.899 107.46C63.8947 113.526 43.57 103.037 37.5041 84.0331C31.4381 65.0288 41.9265 44.7041 60.9308 38.6381C79.9351 32.5721 100.26 43.0605 106.326 62.0648Z" fill="url(#paint0_radial_16_4524)"/>
<path d="M106.326 62.0648C112.392 81.0691 101.903 101.394 82.899 107.46C63.8947 113.526 43.57 103.037 37.5041 84.0331C31.4381 65.0288 41.9265 44.7041 60.9308 38.6381C79.9351 32.5721 100.26 43.0605 106.326 62.0648Z" fill="url(#paint1_radial_16_4524)"/>
<path d="M106.326 62.0648C112.392 81.0691 101.903 101.394 82.899 107.46C63.8947 113.526 43.57 103.037 37.5041 84.0331C31.4381 65.0288 41.9265 44.7041 60.9308 38.6381C79.9351 32.5721 100.26 43.0605 106.326 62.0648Z" fill="url(#paint2_radial_16_4524)"/>
<mask id="mask0_16_4524" style="mask-type:luminance" maskUnits="userSpaceOnUse" x="35" y="36" width="74" height="74">
<path d="M106.326 62.0648C112.392 81.0691 101.903 101.394 82.8991 107.46C63.8948 113.526 43.57 103.037 37.5041 84.0331C31.4381 65.0288 41.9265 44.7041 60.9308 38.6381C79.9351 32.5721 100.26 43.0605 106.326 62.0648Z" fill="white"/>
</mask>
<g mask="url(#mask0_16_4524)">
<path d="M38.757 41.32C39.2931 42.3217 41.2965 43.4365 41.7077 43.9035C43.6509 46.1199 40.1405 48.934 38.5881 50.5453C36.0515 53.1788 34.0481 56.3248 32.7336 59.7382C32.4002 60.6048 32.1064 61.5228 32.2048 62.4451C32.3032 63.3675 32.8937 64.2973 33.794 64.522C34.3037 64.6483 34.8486 64.5382 35.3274 64.3222C36.6581 63.7215 37.4865 62.4055 38.4177 61.2819C39.3489 60.1583 40.6781 59.0978 42.1175 59.3431C42.777 59.4548 43.3586 59.8308 43.9946 60.0408C46.2902 60.7957 48.7533 59.2154 50.1575 57.2487C51.5616 55.282 52.3151 52.91 53.7178 50.9433C55.1204 48.9752 57.5821 47.3948 59.8792 48.1468C60.7061 48.417 61.417 48.962 62.2292 49.2748C67.3023 51.2312 70.1708 45.0168 74.1996 43.695C78.0522 42.4304 81.8137 45.9466 85.8499 46.3431C88.1823 46.5723 89.6495 45.6102 91.5575 44.5469C93.3479 43.5496 95.3439 43.319 97.4105 42.8695C103.541 41.5374 109.628 39.863 115.5 37.6466C116.263 37.3588 116.96 37.0136 117.65 36.5818C118.227 36.2219 117.826 35.4523 117.212 35.5448C115.658 35.7784 114.2 36.3306 112.705 36.7962C111.212 37.2603 109.723 37.7318 108.223 38.171C105.251 39.0434 102.252 39.8204 99.2303 40.5019C96.4646 41.1261 95.4188 40.9543 93.3552 38.9729C91.9981 37.6686 90.2253 36.9034 88.4936 36.1646C84.1344 34.3037 79.7633 32.4399 75.2146 31.1121C74.3039 30.8463 73.3463 30.5995 72.4151 30.7787C71.4824 30.9579 69.5422 28.2245 69.4893 29.1719C69.4643 29.6184 70.6673 33.5355 70.5615 33.9703C70.3486 34.8486 65.0052 27.4005 64.1078 27.5019C59.0317 28.0762 57.6864 34.5358 52.6015 34.0467C51.5176 33.9424 50.5364 35.3656 50.2897 36.4261C50.0943 37.2632 43.836 36.053 44.6203 36.4084C45.4046 36.7639 53.3638 38.9347 53.8867 39.6177C53.9146 40.2683 53.0906 40.5606 52.4429 40.6296C49.3262 40.9645 46.1522 40.7575 43.106 40.0201C42.2159 39.8042 41.295 39.5413 40.3961 39.7234C38.6777 40.07 38.4103 40.6708 38.757 41.32Z" fill="#CAE8EB"/>
</g>
<path style="mix-blend-mode:multiply" opacity="0.43" d="M106.304 62.009C112.403 80.9942 101.953 101.342 82.9577 107.447C70.3837 111.487 57.2118 108.269 47.9939 100.122C55.3201 102.821 63.5628 103.195 71.5675 100.623C90.563 94.5186 101.003 74.1733 94.8988 55.1778C92.8381 48.7681 89.1574 43.3381 84.4574 39.1815C94.4875 42.9122 102.774 51.0285 106.304 62.009Z" fill="url(#paint3_radial_16_4524)"/>
<path style="mix-blend-mode:multiply" opacity="0.43" d="M106.33 62.0693C112.393 81.0662 101.903 101.394 82.8961 107.461C72.4018 110.812 61.4992 109.111 52.8276 103.715C60.5416 107.034 69.4525 107.705 78.0947 104.947C97.102 98.8793 107.592 78.5517 101.529 59.5547C98.8116 51.0418 93.2288 44.2341 86.1817 39.863C95.4584 43.8639 103.02 51.6925 106.332 62.0678L106.33 62.0693Z" fill="url(#paint4_radial_16_4524)"/>
<path style="mix-blend-mode:screen" d="M80.3857 74.9233C88.4455 62.7074 87.8191 48.0803 78.9865 42.2528C70.154 36.4252 56.46 41.604 48.4002 53.82C40.3404 66.0359 40.9668 80.663 49.7994 86.4905C58.6319 92.3181 72.3259 87.1392 80.3857 74.9233Z" fill="url(#paint5_radial_16_4524)"/>
</g>
</g>
<g clip-path="url(#clip2_16_4524)">
<path d="M132.735 69.9084C131.533 69.7887 130.575 70.314 129.637 70.9574C126.84 72.8739 123.912 72.81 121.199 70.8224C120.614 70.394 120.275 69.9136 120.73 69.2305C121.12 68.6443 121.733 68.6164 122.504 69.1125C124.838 70.6148 126.341 70.5922 128.67 69.0198C131.398 67.1785 134.518 67.2905 137.111 69.3108C137.674 69.7498 137.906 70.2633 137.447 70.8584C136.996 71.4419 136.413 71.4416 135.815 71.0199C134.897 70.3726 133.95 69.795 132.735 69.9086V69.9084Z" fill="white"/>
<path d="M125.255 78.2841C123.824 78.3358 122.349 77.6694 121.022 76.6425C120.489 76.2304 120.322 75.7063 120.757 75.1479C121.182 74.6024 121.756 74.5357 122.315 74.9429C123.358 75.7029 124.484 76.3483 125.816 76.0809C126.765 75.8904 127.742 75.5326 128.546 75.0174C131.382 73.1994 134.207 73.1937 136.932 75.1359C137.687 75.6743 137.873 76.2344 137.48 76.7821C137.075 77.346 136.462 77.3861 135.698 76.8981C133.351 75.3971 131.84 75.4036 129.535 76.9914C128.34 77.8145 127.04 78.2709 125.255 78.2841Z" fill="white"/>
</g>
<path d="M168.894 69.6946C158.145 69.5788 149.489 60.8703 149.588 50.3264C149.689 39.539 158.349 30.9227 169.058 31.0005C179.986 31.08 188.371 39.9221 188.282 50.4241C188.19 61.203 179.448 69.8083 168.894 69.6946ZM152.498 43.0803C152.341 43.5353 152.185 43.9908 152.027 44.4453C150.955 47.5191 150.674 50.6781 151.385 53.8415C152.934 60.7311 157.074 65.4456 163.852 67.4693C170.611 69.4875 176.605 67.7695 181.701 62.9175C182.239 62.4057 182.864 61.9779 182.366 60.9782C181.924 60.0917 181.792 59.0511 181.52 58.0793C181.504 58.0222 181.475 57.9639 181.437 57.9186C180.989 57.3875 181.047 56.8272 181.385 56.2872C181.66 55.8486 181.595 55.4839 181.351 55.051C181.027 54.4763 180.594 53.8646 180.56 53.2494C180.513 52.3989 180.503 51.7365 179.439 51.706C179.35 51.7035 179.265 51.573 179.175 51.5684C178.78 51.5478 178.325 51.4232 177.997 51.5709C177.002 52.0195 175.755 51.8405 175.04 51.0322C174.879 50.8503 174.72 50.6664 174.553 50.4896C173.982 49.8824 173.987 49.2077 174.245 48.4602C174.327 48.2208 174.2 47.9153 174.203 47.6405C174.206 47.4165 174.179 47.1129 174.306 46.9853C174.632 46.6592 175.065 46.4418 175.398 46.1216C175.614 45.914 175.836 45.6145 175.868 45.3342C175.931 44.7965 176.222 44.493 176.683 44.4052C177.71 44.2094 178.746 44.0472 179.786 43.9521C180.003 43.9323 180.325 44.2155 180.468 44.4415C180.677 44.7719 182.249 45.5326 182.625 45.3888C182.68 45.3681 182.741 45.3335 182.771 45.2872C183.159 44.6884 183.59 44.9529 184.087 45.1528C184.553 45.3408 185.077 45.4036 185.583 45.4688C185.714 45.4858 185.947 45.3392 186.002 45.2111C186.178 44.8077 185.591 44.0124 185.181 43.8487C184.831 43.7095 184.546 43.3964 184.254 43.1363C184.118 43.0153 184.032 42.8374 183.924 42.6853C183.775 42.8303 183.622 42.9718 183.477 43.1215C183.375 43.2278 183.283 43.3451 183.187 43.4576C183.075 43.3462 182.932 43.2518 182.858 43.1192C182.772 42.9649 182.797 42.7228 182.683 42.6139C182.294 42.2425 181.91 41.8187 181.438 41.5975C181.064 41.422 180.864 41.7689 181.097 42.1154C181.268 42.3699 181.612 42.506 181.795 42.7562C181.923 42.9321 181.979 43.2256 181.933 43.4382C181.909 43.5507 181.6 43.6023 181.42 43.6815C181.889 43.3322 181.791 43.1033 181.413 42.833C181.102 42.61 180.817 42.349 180.509 42.121C180.408 42.046 180.243 41.951 180.151 41.9847C179.486 42.2296 178.745 42.3659 178.41 43.1277C178.117 43.7942 177.543 43.8361 176.924 43.7579C176.416 43.6937 176.266 43.3683 176.259 42.9054C176.253 42.4182 176.518 42.2002 176.959 42.1654C177.199 42.1464 177.455 42.2364 177.681 42.1824C177.849 42.1422 178.124 41.8659 178.107 41.8368C177.666 41.0772 178.146 40.8798 178.743 40.7173C178.866 40.6838 178.995 40.5659 179.062 40.4521C179.364 39.9403 179.803 39.7645 180.385 39.7676C180.574 39.7686 180.765 39.5304 180.955 39.4015C180.777 39.2509 180.599 39.1018 180.423 38.9494C180.131 38.6962 179.825 38.4545 179.572 38.1667C179.545 38.1359 179.793 37.7699 179.974 37.6649C180.904 37.1276 180.936 37.0053 180.072 36.3359C175.747 32.9833 170.882 31.7922 165.498 32.7733C163.156 33.2002 161.01 34.1311 159.032 35.4475C158.892 35.5403 158.798 35.7009 158.682 35.8299C158.841 35.8969 158.997 35.9694 159.158 36.0296C159.591 36.1918 160.022 36.3609 160.462 36.5034C160.746 36.5951 161.04 36.6682 161.335 36.7008C161.441 36.7126 161.564 36.582 161.679 36.5164C161.606 36.4108 161.556 36.2671 161.455 36.2065C161.056 35.9656 160.641 35.7506 160.207 35.512C160.681 35.0622 161.232 34.6864 161.741 35.1182C162.319 35.6079 162.825 35.8803 163.573 35.5129C163.286 35.7228 162.986 35.7962 162.712 35.9254C162.575 35.9899 162.374 36.1929 162.399 36.2692C162.449 36.422 162.641 36.6445 162.762 36.637C163.156 36.6123 163.547 36.5062 163.935 36.4142C164.318 36.3236 164.666 36.2035 164.421 35.6754C164.391 35.6104 164.515 35.3896 164.592 35.3754C164.802 35.3365 165.026 35.3697 165.245 35.3744C165.22 35.4983 165.156 35.631 165.18 35.7442C165.228 35.9654 165.327 36.1755 165.404 36.3903C165.585 36.2653 165.784 36.1602 165.94 36.01C166.118 35.8378 166.218 35.5502 166.421 35.4443C167.109 35.0852 168.578 35.3505 169.082 35.9346C169.294 36.18 169.401 36.5299 169.488 36.8507C169.499 36.8932 169.103 37.0431 168.898 37.1476C168.845 37.1746 168.793 37.2117 168.752 37.2545C168.296 37.7252 167.851 37.4828 167.317 37.2468C167.51 37.1179 167.648 37.0428 167.765 36.9425C167.91 36.8187 168.036 36.6741 168.171 36.5384C167.983 36.4033 167.793 36.1527 167.608 36.1566C167.198 36.1651 166.735 36.2054 166.394 36.4045C165.523 36.9127 165.306 37.0398 164.476 37.1391C164.318 37.158 164.155 37.2076 164.013 37.2789C163.669 37.4508 163.31 37.609 163.008 37.8398C162.776 38.0169 162.423 38.3662 162.475 38.5155C162.585 38.8262 162.924 39.058 163.174 39.3168C163.393 39.543 163.623 39.7579 163.84 39.9859C163.932 40.0822 164.001 40.2868 164.081 40.2873C164.214 40.288 164.367 40.1846 164.475 40.0859C164.68 39.8997 164.823 39.5869 165.056 39.5029C165.569 39.3177 165.679 38.9857 165.74 38.4929C165.771 38.2339 166.111 37.8116 166.302 37.8171C166.642 37.8268 167.15 38.0251 167.27 38.2889C167.476 38.7413 167.663 38.7499 168.053 38.6188C168.186 38.5743 168.444 38.6674 168.536 38.7836C168.739 39.0373 168.912 39.3323 169.021 39.6375C169.09 39.8304 169.046 40.2595 169.011 40.2642C168.418 40.3423 167.819 40.3744 167.222 40.407C166.995 40.4194 166.766 40.4078 166.539 40.407V41.0505C166.409 41.1033 166.204 41.1435 166.053 41.2564C165.489 41.6775 164.928 42.1044 164.397 42.5648C164.031 42.8813 163.714 43.2537 163.381 43.6069C163.016 43.9948 162.628 44.3663 162.306 44.7877C162.029 45.1496 161.829 45.5704 161.6 45.9677C161.543 46.0652 161.505 46.173 161.459 46.2761C161.348 46.2074 161.219 46.1567 161.13 46.066C160.97 45.9009 160.854 45.583 160.683 45.5544C159.667 45.3849 158.652 45.3808 157.793 46.0824C157.166 46.595 156.859 47.7542 157.27 48.2053C157.889 48.8826 158.477 48.4198 159.044 48.0559C159.061 48.0449 159.077 48.0288 159.096 48.0237C159.223 47.989 159.352 47.9567 159.48 47.9237C159.479 48.0569 159.454 48.1952 159.481 48.3221C159.526 48.5283 159.567 48.8758 159.675 48.9034C160.174 49.0302 160.25 49.3613 160.336 49.7941C160.401 50.1213 160.592 50.5713 160.849 50.6806C161.345 50.8916 161.917 51.0349 162.374 50.428C162.821 49.8331 163.332 49.8596 163.952 50.2402C164.279 50.4404 164.739 50.5787 165.104 50.5213C165.61 50.4415 165.865 50.5953 166.178 50.9588C166.425 51.2454 166.864 51.3579 167.187 51.59C167.488 51.8062 167.965 52.0594 167.989 52.3293C168.079 53.3532 168.821 53.5794 169.551 53.6069C170.409 53.6394 171.143 53.7839 171.647 54.5063C171.784 54.7032 171.909 55.1211 171.809 55.2358C171.158 55.9804 171.09 56.8814 170.986 57.7874C170.91 58.4506 170.523 58.7847 169.845 58.7951C169.142 58.8057 168.894 59.1335 168.99 59.8485C169.024 60.1025 169.123 60.4471 169.003 60.6065C168.266 61.579 167.82 62.873 166.367 63.1116C166.241 63.1324 166.101 63.3876 166.064 63.5554C166.015 63.7723 166.055 64.0114 166.073 64.2397C166.084 64.3866 166.083 64.6303 166.157 64.661C166.64 64.8607 166.673 65.1853 166.56 65.6362C166.523 65.7868 166.688 65.9932 166.774 66.1678C166.848 66.3184 166.94 66.46 167.024 66.6057C166.835 66.6445 166.638 66.7339 166.457 66.7092C166.248 66.6806 166.017 66.5938 165.857 66.4593C164.978 65.7224 164.303 64.8863 164.445 63.6189C164.477 63.3277 164.278 63.0152 164.209 62.7071C164.125 62.3321 164.051 61.9534 164.003 61.5725C163.978 61.3765 164.045 61.1693 164.024 60.9721C163.943 60.2199 163.736 59.4639 163.777 58.7202C163.829 57.7645 163.385 57.2534 162.61 56.8787C162.417 56.7859 162.216 56.659 162.09 56.4931C161.775 56.0765 161.523 55.612 161.206 55.1969C160.517 54.2951 160.615 53.3207 161.402 52.514C161.607 52.304 161.653 51.8622 161.63 51.537C161.618 51.361 161.314 51.0781 161.126 51.0647C160.392 51.0125 159.967 50.5175 159.422 50.1338C158.714 49.6356 158.055 48.9523 157.016 49.0415C155.955 49.1326 155.436 48.581 155.332 47.5194C155.308 47.2734 155.143 47.0397 155.036 46.8036C154.813 46.3128 154.596 45.8188 154.354 45.3378C154.283 45.1972 154.135 45.0959 154.022 44.9766C153.948 45.1422 153.779 45.3372 153.819 45.4681C153.953 45.9059 154.171 46.3173 154.336 46.7467C154.387 46.8806 154.374 47.0395 154.391 47.187C154.234 47.1384 153.981 47.1329 153.936 47.0337C153.725 46.566 153.555 46.0772 153.402 45.5863C153.313 45.303 153.382 44.8481 153.208 44.7356C152.568 44.3209 152.521 43.7446 152.498 43.0806L152.498 43.0803ZM163.128 42.3716C163.283 42.4273 163.481 42.5344 163.686 42.549C163.744 42.5531 163.91 42.1909 163.878 42.1619C163.395 41.7273 162.924 41.2559 162.368 40.9364C162.115 40.7914 161.679 40.9429 161.334 41.0023C161.269 41.0133 161.22 41.2224 161.198 41.3463C161.16 41.5579 161.134 41.7744 161.132 41.989C161.13 42.1719 161.169 42.3554 161.189 42.5385C161.355 42.4636 161.558 42.4256 161.68 42.3056C161.895 42.0943 162.06 41.8329 162.246 41.5925L162.45 41.6893C162.385 41.9545 162.316 42.2186 162.259 42.4851C162.232 42.6078 162.172 42.7964 162.227 42.8465C162.311 42.9229 162.528 42.9701 162.605 42.9145C162.798 42.7748 162.944 42.5705 163.128 42.3714L163.128 42.3716Z" fill="white"/>
<path d="M215.009 69.6946C204.26 69.5788 195.604 60.8703 195.703 50.3264C195.804 39.539 204.465 30.9227 215.174 31.0005C226.101 31.08 234.486 39.9221 234.397 50.4241C234.306 61.203 225.563 69.8083 215.009 69.6946ZM198.614 43.0803C198.457 43.5353 198.301 43.9908 198.142 44.4453C197.071 47.5191 196.789 50.6781 197.5 53.8415C199.049 60.7311 203.189 65.4456 209.967 67.4693C216.726 69.4875 222.72 67.7695 227.817 62.9175C228.354 62.4057 228.98 61.9779 228.481 60.9782C228.04 60.0917 227.907 59.0511 227.636 58.0793C227.62 58.0222 227.59 57.9639 227.552 57.9186C227.105 57.3875 227.162 56.8272 227.501 56.2872C227.776 55.8486 227.71 55.4839 227.466 55.051C227.143 54.4763 226.709 53.8646 226.675 53.2494C226.628 52.3989 226.619 51.7365 225.554 51.706C225.465 51.7035 225.381 51.573 225.291 51.5684C224.895 51.5478 224.44 51.4232 224.112 51.5709C223.117 52.0195 221.871 51.8405 221.155 51.0322C220.994 50.8503 220.835 50.6664 220.669 50.4896C220.097 49.8824 220.103 49.2077 220.36 48.4602C220.442 48.2208 220.315 47.9153 220.318 47.6405C220.321 47.4165 220.294 47.1129 220.422 46.9853C220.747 46.6592 221.181 46.4418 221.514 46.1216C221.73 45.914 221.951 45.6145 221.984 45.3342C222.047 44.7965 222.338 44.493 222.798 44.4052C223.825 44.2094 224.861 44.0472 225.901 43.9521C226.118 43.9323 226.44 44.2155 226.583 44.4415C226.793 44.7719 228.365 45.5326 228.741 45.3888C228.795 45.3681 228.856 45.3335 228.886 45.2872C229.275 44.6884 229.706 44.9529 230.202 45.1528C230.669 45.3408 231.193 45.4036 231.698 45.4688C231.83 45.4858 232.062 45.3392 232.118 45.2111C232.294 44.8077 231.706 44.0124 231.296 43.8487C230.947 43.7095 230.661 43.3964 230.369 43.1363C230.233 43.0153 230.148 42.8374 230.039 42.6853C229.89 42.8303 229.737 42.9718 229.593 43.1215C229.49 43.2278 229.399 43.3451 229.303 43.4576C229.19 43.3462 229.048 43.2518 228.974 43.1192C228.887 42.9649 228.913 42.7228 228.799 42.6139C228.41 42.2425 228.025 41.8187 227.554 41.5975C227.179 41.422 226.98 41.7689 227.213 42.1154C227.384 42.3699 227.727 42.506 227.91 42.7562C228.039 42.9321 228.094 43.2256 228.049 43.4382C228.025 43.5507 227.716 43.6023 227.536 43.6815C228.005 43.3322 227.907 43.1033 227.529 42.833C227.217 42.61 226.933 42.349 226.625 42.121C226.523 42.046 226.358 41.951 226.266 41.9847C225.601 42.2296 224.86 42.3659 224.525 43.1277C224.232 43.7942 223.659 43.8361 223.039 43.7579C222.531 43.6937 222.381 43.3683 222.375 42.9054C222.368 42.4182 222.634 42.2002 223.075 42.1654C223.314 42.1464 223.57 42.2364 223.796 42.1824C223.964 42.1422 224.239 41.8659 224.222 41.8368C223.781 41.0772 224.262 40.8798 224.858 40.7173C224.981 40.6838 225.11 40.5659 225.178 40.4521C225.479 39.9403 225.918 39.7645 226.5 39.7676C226.69 39.7686 226.88 39.5304 227.07 39.4015C226.893 39.2509 226.714 39.1018 226.538 38.9494C226.246 38.6962 225.941 38.4545 225.688 38.1667C225.661 38.1359 225.908 37.7699 226.09 37.6649C227.019 37.1276 227.052 37.0053 226.188 36.3359C221.862 32.9833 216.998 31.7922 211.614 32.7733C209.272 33.2002 207.126 34.1311 205.147 35.4475C205.008 35.5403 204.913 35.7009 204.798 35.8299C204.956 35.8969 205.112 35.9694 205.273 36.0296C205.706 36.1918 206.138 36.3609 206.578 36.5034C206.861 36.5951 207.155 36.6682 207.45 36.7008C207.557 36.7126 207.679 36.582 207.795 36.5164C207.721 36.4108 207.671 36.2671 207.571 36.2065C207.172 35.9656 206.757 35.7506 206.323 35.512C206.796 35.0622 207.347 34.6864 207.857 35.1182C208.435 35.6079 208.941 35.8803 209.689 35.5129C209.401 35.7228 209.101 35.7962 208.827 35.9254C208.69 35.9899 208.49 36.1929 208.515 36.2692C208.564 36.422 208.757 36.6445 208.877 36.637C209.272 36.6123 209.662 36.5062 210.051 36.4142C210.433 36.3236 210.781 36.2035 210.536 35.6754C210.506 35.6104 210.63 35.3896 210.708 35.3754C210.918 35.3365 211.142 35.3697 211.36 35.3744C211.336 35.4983 211.271 35.631 211.296 35.7442C211.344 35.9654 211.442 36.1755 211.52 36.3903C211.7 36.2653 211.9 36.1602 212.055 36.01C212.234 35.8378 212.334 35.5502 212.537 35.4443C213.224 35.0852 214.694 35.3505 215.198 35.9346C215.409 36.18 215.517 36.5299 215.603 36.8507C215.615 36.8932 215.218 37.0431 215.013 37.1476C214.96 37.1746 214.909 37.2117 214.867 37.2545C214.412 37.7252 213.966 37.4828 213.432 37.2468C213.625 37.1179 213.764 37.0428 213.881 36.9425C214.025 36.8187 214.152 36.6741 214.286 36.5384C214.098 36.4033 213.908 36.1527 213.723 36.1566C213.314 36.1651 212.85 36.2054 212.51 36.4045C211.639 36.9127 211.421 37.0398 210.592 37.1391C210.433 37.158 210.271 37.2076 210.128 37.2789C209.785 37.4508 209.425 37.609 209.123 37.8398C208.891 38.0169 208.539 38.3662 208.591 38.5155C208.7 38.8262 209.039 39.058 209.289 39.3168C209.508 39.543 209.739 39.7579 209.956 39.9859C210.047 40.0822 210.117 40.2868 210.197 40.2873C210.329 40.288 210.482 40.1846 210.591 40.0859C210.795 39.8997 210.939 39.5869 211.171 39.5029C211.685 39.3177 211.795 38.9857 211.855 38.4929C211.887 38.2339 212.227 37.8116 212.417 37.8171C212.757 37.8268 213.266 38.0251 213.386 38.2889C213.591 38.7413 213.779 38.7499 214.169 38.6188C214.302 38.5743 214.559 38.6674 214.652 38.7836C214.855 39.0373 215.027 39.3323 215.136 39.6375C215.205 39.8304 215.161 40.2595 215.126 40.2642C214.534 40.3423 213.935 40.3744 213.337 40.407C213.11 40.4194 212.882 40.4078 212.654 40.407V41.0505C212.524 41.1033 212.319 41.1435 212.168 41.2564C211.605 41.6775 211.043 42.1044 210.512 42.5648C210.147 42.8813 209.829 43.2537 209.497 43.6069C209.131 43.9948 208.743 44.3663 208.421 44.7877C208.144 45.1496 207.944 45.5704 207.715 45.9677C207.659 46.0652 207.621 46.173 207.575 46.2761C207.464 46.2074 207.334 46.1567 207.246 46.066C207.085 45.9009 206.97 45.583 206.798 45.5544C205.782 45.3849 204.768 45.3808 203.909 46.0824C203.281 46.595 202.974 47.7542 203.386 48.2053C204.004 48.8826 204.593 48.4198 205.16 48.0559C205.177 48.0449 205.193 48.0288 205.211 48.0237C205.339 47.989 205.467 47.9567 205.595 47.9237C205.594 48.0569 205.569 48.1952 205.597 48.3221C205.641 48.5283 205.682 48.8758 205.791 48.9034C206.289 49.0302 206.365 49.3613 206.451 49.7941C206.516 50.1213 206.708 50.5713 206.965 50.6806C207.461 50.8916 208.032 51.0349 208.489 50.428C208.937 49.8331 209.448 49.8596 210.068 50.2402C210.394 50.4404 210.854 50.5787 211.219 50.5213C211.726 50.4415 211.98 50.5953 212.293 50.9588C212.54 51.2454 212.979 51.3579 213.302 51.59C213.603 51.8062 214.08 52.0594 214.104 52.3293C214.194 53.3532 214.936 53.5794 215.667 53.6069C216.525 53.6394 217.259 53.7839 217.762 54.5063C217.899 54.7032 218.025 55.1211 217.924 55.2358C217.274 55.9804 217.206 56.8814 217.102 57.7874C217.025 58.4506 216.639 58.7847 215.961 58.7951C215.258 58.8057 215.009 59.1335 215.106 59.8485C215.14 60.1025 215.239 60.4471 215.118 60.6065C214.381 61.579 213.935 62.873 212.483 63.1116C212.356 63.1324 212.217 63.3876 212.179 63.5554C212.131 63.7723 212.171 64.0114 212.188 64.2397C212.2 64.3866 212.198 64.6303 212.273 64.661C212.756 64.8607 212.788 65.1853 212.676 65.6362C212.638 65.7868 212.804 65.9932 212.889 66.1678C212.963 66.3184 213.056 66.46 213.14 66.6057C212.95 66.6445 212.754 66.7339 212.573 66.7092C212.363 66.6806 212.132 66.5938 211.972 66.4593C211.093 65.7224 210.419 64.8863 210.56 63.6189C210.593 63.3277 210.393 63.0152 210.324 62.7071C210.24 62.3321 210.167 61.9534 210.118 61.5725C210.093 61.3765 210.16 61.1693 210.139 60.9721C210.058 60.2199 209.851 59.4639 209.892 58.7202C209.944 57.7645 209.501 57.2534 208.725 56.8787C208.533 56.7859 208.331 56.659 208.206 56.4931C207.89 56.0765 207.638 55.612 207.321 55.1969C206.633 54.2951 206.73 53.3207 207.518 52.514C207.723 52.304 207.769 51.8622 207.746 51.537C207.733 51.361 207.429 51.0781 207.241 51.0647C206.507 51.0125 206.083 50.5175 205.538 50.1338C204.83 49.6356 204.17 48.9523 203.131 49.0415C202.071 49.1326 201.552 48.581 201.448 47.5194C201.424 47.2734 201.258 47.0397 201.151 46.8036C200.928 46.3128 200.712 45.8188 200.469 45.3378C200.399 45.1972 200.25 45.0959 200.137 44.9766C200.064 45.1422 199.894 45.3372 199.934 45.4681C200.068 45.9059 200.286 46.3173 200.451 46.7467C200.503 46.8806 200.49 47.0395 200.506 47.187C200.349 47.1384 200.097 47.1329 200.052 47.0337C199.84 46.566 199.671 46.0772 199.517 45.5863C199.428 45.303 199.497 44.8481 199.324 44.7356C198.683 44.3209 198.637 43.7446 198.614 43.0806L198.614 43.0803ZM209.243 42.3716C209.398 42.4273 209.597 42.5344 209.801 42.549C209.86 42.5531 210.025 42.1909 209.993 42.1619C209.51 41.7273 209.039 41.2559 208.483 40.9364C208.231 40.7914 207.795 40.9429 207.449 41.0023C207.385 41.0133 207.335 41.2224 207.313 41.3463C207.275 41.5579 207.25 41.7744 207.248 41.989C207.246 42.1719 207.284 42.3554 207.304 42.5385C207.471 42.4636 207.673 42.4256 207.795 42.3056C208.01 42.0943 208.176 41.8329 208.362 41.5925L208.565 41.6893C208.501 41.9545 208.432 42.2186 208.374 42.4851C208.348 42.6078 208.288 42.7964 208.343 42.8465C208.426 42.9229 208.643 42.9701 208.72 42.9145C208.913 42.7748 209.059 42.5705 209.244 42.3714L209.243 42.3716Z" fill="white"/>
<path d="M168.894 114.999C158.145 114.883 149.489 106.175 149.588 95.6308C149.689 84.8433 158.349 76.227 169.058 76.3048C179.986 76.3843 188.371 85.2264 188.282 95.7284C188.19 106.507 179.448 115.113 168.894 114.999ZM152.498 88.3846C152.341 88.8397 152.185 89.2951 152.027 89.7496C150.955 92.8234 150.674 95.9824 151.385 99.1458C152.934 106.035 157.074 110.75 163.852 112.774C170.611 114.792 176.605 113.074 181.701 108.222C182.239 107.71 182.864 107.282 182.366 106.282C181.924 105.396 181.792 104.355 181.52 103.384C181.504 103.327 181.475 103.268 181.437 103.223C180.989 102.692 181.047 102.132 181.385 101.592C181.66 101.153 181.595 100.788 181.351 100.355C181.027 99.7806 180.594 99.1689 180.56 98.5538C180.513 97.7032 180.503 97.0408 179.439 97.0103C179.35 97.0078 179.265 96.8773 179.175 96.8727C178.78 96.8522 178.325 96.7275 177.997 96.8752C177.002 97.3238 175.755 97.1448 175.04 96.3365C174.879 96.1547 174.72 95.9708 174.553 95.7939C173.982 95.1868 173.987 94.512 174.245 93.7646C174.327 93.5251 174.2 93.2196 174.203 92.9449C174.206 92.7209 174.179 92.4172 174.306 92.2896C174.632 91.9635 175.065 91.7462 175.398 91.426C175.614 91.2184 175.836 90.9188 175.868 90.6386C175.931 90.1008 176.222 89.7974 176.683 89.7095C177.71 89.5137 178.746 89.3516 179.786 89.2564C180.003 89.2366 180.325 89.5198 180.468 89.7459C180.677 90.0763 182.249 90.8369 182.625 90.6931C182.68 90.6725 182.741 90.6378 182.771 90.5916C183.159 89.9927 183.59 90.2573 184.087 90.4571C184.553 90.6451 185.077 90.7079 185.583 90.7732C185.714 90.7902 185.947 90.6435 186.002 90.5154C186.178 90.112 185.591 89.3167 185.181 89.1531C184.831 89.0139 184.546 88.7007 184.254 88.4406C184.118 88.3196 184.032 88.1417 183.924 87.9896C183.775 88.1346 183.622 88.2762 183.477 88.4258C183.375 88.5321 183.283 88.6494 183.187 88.7619C183.075 88.6505 182.932 88.5562 182.858 88.4235C182.772 88.2692 182.797 88.0271 182.683 87.9182C182.294 87.5468 181.91 87.123 181.438 86.9018C181.064 86.7263 180.864 87.0732 181.097 87.4198C181.268 87.6743 181.612 87.8103 181.795 88.0605C181.923 88.2364 181.979 88.5299 181.933 88.7425C181.909 88.855 181.6 88.9066 181.42 88.9858C181.889 88.6366 181.791 88.4076 181.413 88.1373C181.102 87.9143 180.817 87.6534 180.509 87.4254C180.408 87.3503 180.243 87.2553 180.151 87.2891C179.486 87.534 178.745 87.6702 178.41 88.432C178.117 89.0985 177.543 89.1404 176.924 89.0622C176.416 88.9981 176.266 88.6726 176.259 88.2097C176.253 87.7225 176.518 87.5046 176.959 87.4697C177.199 87.4507 177.455 87.5408 177.681 87.4867C177.849 87.4465 178.124 87.1703 178.107 87.1411C177.666 86.3815 178.146 86.1841 178.743 86.0216C178.866 85.9881 178.995 85.8703 179.062 85.7564C179.364 85.2447 179.803 85.0688 180.385 85.0719C180.574 85.0729 180.765 84.8347 180.955 84.7058C180.777 84.5552 180.599 84.4061 180.423 84.2537C180.131 84.0005 179.825 83.7588 179.572 83.471C179.545 83.4402 179.793 83.0742 179.974 82.9692C180.904 82.432 180.936 82.3096 180.072 81.6402C175.747 78.2877 170.882 77.0965 165.498 78.0776C163.156 78.5045 161.01 79.4355 159.032 80.7519C158.892 80.8447 158.798 81.0053 158.682 81.1343C158.841 81.2012 158.997 81.2737 159.158 81.334C159.591 81.4961 160.022 81.6652 160.462 81.8077C160.746 81.8994 161.04 81.9725 161.335 82.0051C161.441 82.0169 161.564 81.8863 161.679 81.8207C161.606 81.7151 161.556 81.5714 161.455 81.5108C161.056 81.2699 160.641 81.0549 160.207 80.8164C160.681 80.3665 161.232 79.9907 161.741 80.4225C162.319 80.9122 162.825 81.1847 163.573 80.8172C163.286 81.0271 162.986 81.1005 162.712 81.2297C162.575 81.2942 162.374 81.4972 162.399 81.5735C162.449 81.7263 162.641 81.9489 162.762 81.9413C163.156 81.9167 163.547 81.8105 163.935 81.7185C164.318 81.6279 164.666 81.5078 164.421 80.9797C164.391 80.9148 164.515 80.6939 164.592 80.6797C164.802 80.6408 165.026 80.674 165.245 80.6787C165.22 80.8026 165.156 80.9353 165.18 81.0485C165.228 81.2697 165.327 81.4798 165.404 81.6946C165.585 81.5696 165.784 81.4645 165.94 81.3143C166.118 81.1422 166.218 80.8545 166.421 80.7486C167.109 80.3895 168.578 80.6548 169.082 81.239C169.294 81.4843 169.401 81.8342 169.488 82.155C169.499 82.1975 169.103 82.3474 168.898 82.4519C168.845 82.479 168.793 82.516 168.752 82.5588C168.296 83.0295 167.851 82.7871 167.317 82.5511C167.51 82.4222 167.648 82.3472 167.765 82.2468C167.91 82.123 168.036 81.9784 168.171 81.8427C167.983 81.7076 167.793 81.457 167.608 81.4609C167.198 81.4694 166.735 81.5097 166.394 81.7088C165.523 82.2171 165.306 82.3441 164.476 82.4434C164.318 82.4623 164.155 82.5119 164.013 82.5832C163.669 82.7551 163.31 82.9134 163.008 83.1442C162.776 83.3213 162.423 83.6705 162.475 83.8198C162.585 84.1305 162.924 84.3623 163.174 84.6211C163.393 84.8473 163.623 85.0622 163.84 85.2902C163.932 85.3865 164.001 85.5911 164.081 85.5916C164.214 85.5923 164.367 85.489 164.475 85.3902C164.68 85.204 164.823 84.8912 165.056 84.8072C165.569 84.622 165.679 84.29 165.74 83.7972C165.771 83.5382 166.111 83.116 166.302 83.1214C166.642 83.1312 167.15 83.3294 167.27 83.5932C167.476 84.0456 167.663 84.0542 168.053 83.9232C168.186 83.8786 168.444 83.9718 168.536 84.0879C168.739 84.3416 168.912 84.6366 169.021 84.9418C169.09 85.1347 169.046 85.5638 169.011 85.5685C168.418 85.6466 167.819 85.6787 167.222 85.7114C166.995 85.7238 166.766 85.7121 166.539 85.7114V86.3548C166.409 86.4077 166.204 86.4479 166.053 86.5607C165.489 86.9819 164.928 87.4087 164.397 87.8691C164.031 88.1857 163.714 88.558 163.381 88.9112C163.016 89.2991 162.628 89.6707 162.306 90.0921C162.029 90.4539 161.829 90.8747 161.6 91.272C161.543 91.3695 161.505 91.4773 161.459 91.5805C161.348 91.5117 161.219 91.4611 161.13 91.3703C160.97 91.2052 160.854 90.8873 160.683 90.8587C159.667 90.6892 158.652 90.6851 157.793 91.3867C157.166 91.8993 156.859 93.0586 157.27 93.5096C157.889 94.1869 158.477 93.7241 159.044 93.3602C159.061 93.3492 159.077 93.3331 159.096 93.328C159.223 93.2934 159.352 93.2611 159.48 93.228C159.479 93.3613 159.454 93.4995 159.481 93.6264C159.526 93.8326 159.567 94.1801 159.675 94.2077C160.174 94.3345 160.25 94.6656 160.336 95.0985C160.401 95.4256 160.592 95.8756 160.849 95.985C161.345 96.196 161.917 96.3392 162.374 95.7323C162.821 95.1374 163.332 95.1639 163.952 95.5445C164.279 95.7447 164.739 95.8831 165.104 95.8256C165.61 95.7458 165.865 95.8996 166.178 96.2631C166.425 96.5497 166.864 96.6622 167.187 96.8943C167.488 97.1105 167.965 97.3637 167.989 97.6336C168.079 98.6575 168.821 98.8837 169.551 98.9113C170.409 98.9437 171.143 99.0882 171.647 99.8106C171.784 100.008 171.909 100.425 171.809 100.54C171.158 101.285 171.09 102.186 170.986 103.092C170.91 103.755 170.523 104.089 169.845 104.099C169.142 104.11 168.894 104.438 168.99 105.153C169.024 105.407 169.123 105.751 169.003 105.911C168.266 106.883 167.82 108.177 166.367 108.416C166.241 108.437 166.101 108.692 166.064 108.86C166.015 109.077 166.055 109.316 166.073 109.544C166.084 109.691 166.083 109.935 166.157 109.965C166.64 110.165 166.673 110.49 166.56 110.941C166.523 111.091 166.688 111.298 166.774 111.472C166.848 111.623 166.94 111.764 167.024 111.91C166.835 111.949 166.638 112.038 166.457 112.013C166.248 111.985 166.017 111.898 165.857 111.764C164.978 111.027 164.303 110.191 164.445 108.923C164.477 108.632 164.278 108.319 164.209 108.011C164.125 107.636 164.051 107.258 164.003 106.877C163.978 106.681 164.045 106.474 164.024 106.276C163.943 105.524 163.736 104.768 163.777 104.025C163.829 103.069 163.385 102.558 162.61 102.183C162.417 102.09 162.216 101.963 162.09 101.797C161.775 101.381 161.523 100.916 161.206 100.501C160.517 99.5994 160.615 98.6251 161.402 97.8184C161.607 97.6083 161.653 97.1665 161.63 96.8414C161.618 96.6653 161.314 96.3824 161.126 96.3691C160.392 96.3168 159.967 95.8218 159.422 95.4381C158.714 94.9399 158.055 94.2566 157.016 94.3458C155.955 94.4369 155.436 93.8853 155.332 92.8237C155.308 92.5778 155.143 92.344 155.036 92.1079C154.813 91.6172 154.596 91.1231 154.354 90.6421C154.283 90.5015 154.135 90.4002 154.022 90.2809C153.948 90.4465 153.779 90.6415 153.819 90.7724C153.953 91.2102 154.171 91.6216 154.336 92.0511C154.387 92.1849 154.374 92.3438 154.391 92.4913C154.234 92.4427 153.981 92.4372 153.936 92.338C153.725 91.8703 153.555 91.3815 153.402 90.8906C153.313 90.6073 153.382 90.1524 153.208 90.0399C152.568 89.6252 152.521 89.049 152.498 88.3849L152.498 88.3846ZM163.128 87.676C163.283 87.7316 163.481 87.8387 163.686 87.8533C163.744 87.8574 163.91 87.4952 163.878 87.4662C163.395 87.0317 162.924 86.5602 162.368 86.2407C162.115 86.0957 161.679 86.2472 161.334 86.3066C161.269 86.3176 161.22 86.5267 161.198 86.6506C161.16 86.8622 161.134 87.0787 161.132 87.2933C161.13 87.4763 161.169 87.6597 161.189 87.8429C161.355 87.7679 161.558 87.7299 161.68 87.6099C161.895 87.3986 162.06 87.1372 162.246 86.8968L162.45 86.9936C162.385 87.2588 162.316 87.5229 162.259 87.7894C162.232 87.9121 162.172 88.1007 162.227 88.1508C162.311 88.2272 162.528 88.2745 162.605 88.2188C162.798 88.0791 162.944 87.8748 163.128 87.6757L163.128 87.676Z" fill="white"/>
<path d="M215.009 114.999C204.26 114.883 195.604 106.175 195.703 95.6308C195.804 84.8433 204.465 76.227 215.174 76.3048C226.101 76.3843 234.486 85.2264 234.397 95.7284C234.306 106.507 225.563 115.113 215.009 114.999ZM198.614 88.3846C198.457 88.8397 198.301 89.2951 198.142 89.7496C197.071 92.8234 196.789 95.9824 197.5 99.1458C199.049 106.035 203.189 110.75 209.967 112.774C216.726 114.792 222.72 113.074 227.817 108.222C228.354 107.71 228.98 107.282 228.481 106.282C228.04 105.396 227.907 104.355 227.636 103.384C227.62 103.327 227.59 103.268 227.552 103.223C227.105 102.692 227.162 102.132 227.501 101.592C227.776 101.153 227.71 100.788 227.466 100.355C227.143 99.7806 226.709 99.1689 226.675 98.5538C226.628 97.7032 226.619 97.0408 225.554 97.0103C225.465 97.0078 225.381 96.8773 225.291 96.8727C224.895 96.8522 224.44 96.7275 224.112 96.8752C223.117 97.3238 221.871 97.1448 221.155 96.3365C220.994 96.1547 220.835 95.9708 220.669 95.7939C220.097 95.1868 220.103 94.512 220.36 93.7646C220.442 93.5251 220.315 93.2196 220.318 92.9449C220.321 92.7209 220.294 92.4172 220.422 92.2896C220.747 91.9635 221.181 91.7462 221.514 91.426C221.73 91.2184 221.951 90.9188 221.984 90.6386C222.047 90.1008 222.338 89.7974 222.798 89.7095C223.825 89.5137 224.861 89.3516 225.901 89.2564C226.118 89.2366 226.44 89.5198 226.583 89.7459C226.793 90.0763 228.365 90.8369 228.741 90.6931C228.795 90.6725 228.856 90.6378 228.886 90.5916C229.275 89.9927 229.706 90.2573 230.202 90.4571C230.669 90.6451 231.193 90.7079 231.698 90.7732C231.83 90.7902 232.062 90.6435 232.118 90.5154C232.294 90.112 231.706 89.3167 231.296 89.1531C230.947 89.0139 230.661 88.7007 230.369 88.4406C230.233 88.3196 230.148 88.1417 230.039 87.9896C229.89 88.1346 229.737 88.2762 229.593 88.4258C229.49 88.5321 229.399 88.6494 229.303 88.7619C229.19 88.6505 229.048 88.5562 228.974 88.4235C228.887 88.2692 228.913 88.0271 228.799 87.9182C228.41 87.5468 228.025 87.123 227.554 86.9018C227.179 86.7263 226.98 87.0732 227.213 87.4198C227.384 87.6743 227.727 87.8103 227.91 88.0605C228.039 88.2364 228.094 88.5299 228.049 88.7425C228.025 88.855 227.716 88.9066 227.536 88.9858C228.005 88.6366 227.907 88.4076 227.529 88.1373C227.217 87.9143 226.933 87.6534 226.625 87.4254C226.523 87.3503 226.358 87.2553 226.266 87.2891C225.601 87.534 224.86 87.6702 224.525 88.432C224.232 89.0985 223.659 89.1404 223.039 89.0622C222.531 88.9981 222.381 88.6726 222.375 88.2097C222.368 87.7225 222.634 87.5046 223.075 87.4697C223.314 87.4507 223.57 87.5408 223.796 87.4867C223.964 87.4465 224.239 87.1703 224.222 87.1411C223.781 86.3815 224.262 86.1841 224.858 86.0216C224.981 85.9881 225.11 85.8703 225.178 85.7564C225.479 85.2447 225.918 85.0688 226.5 85.0719C226.69 85.0729 226.88 84.8347 227.07 84.7058C226.893 84.5552 226.714 84.4061 226.538 84.2537C226.246 84.0005 225.941 83.7588 225.688 83.471C225.661 83.4402 225.908 83.0742 226.09 82.9692C227.019 82.432 227.052 82.3096 226.188 81.6402C221.862 78.2877 216.998 77.0965 211.614 78.0776C209.272 78.5045 207.126 79.4355 205.147 80.7519C205.008 80.8447 204.913 81.0053 204.798 81.1343C204.956 81.2012 205.112 81.2737 205.273 81.334C205.706 81.4961 206.138 81.6652 206.578 81.8077C206.861 81.8994 207.155 81.9725 207.45 82.0051C207.557 82.0169 207.679 81.8863 207.795 81.8207C207.721 81.7151 207.671 81.5714 207.571 81.5108C207.172 81.2699 206.757 81.0549 206.323 80.8164C206.796 80.3665 207.347 79.9907 207.857 80.4225C208.435 80.9122 208.941 81.1847 209.689 80.8172C209.401 81.0271 209.101 81.1005 208.827 81.2297C208.69 81.2942 208.49 81.4972 208.515 81.5735C208.564 81.7263 208.757 81.9489 208.877 81.9413C209.272 81.9167 209.662 81.8105 210.051 81.7185C210.433 81.6279 210.781 81.5078 210.536 80.9797C210.506 80.9148 210.63 80.6939 210.708 80.6797C210.918 80.6408 211.142 80.674 211.36 80.6787C211.336 80.8026 211.271 80.9353 211.296 81.0485C211.344 81.2697 211.442 81.4798 211.52 81.6946C211.7 81.5696 211.9 81.4645 212.055 81.3143C212.234 81.1422 212.334 80.8545 212.537 80.7486C213.224 80.3895 214.694 80.6548 215.198 81.239C215.409 81.4843 215.517 81.8342 215.603 82.155C215.615 82.1975 215.218 82.3474 215.013 82.4519C214.96 82.479 214.909 82.516 214.867 82.5588C214.412 83.0295 213.966 82.7871 213.432 82.5511C213.625 82.4222 213.764 82.3472 213.881 82.2468C214.025 82.123 214.152 81.9784 214.286 81.8427C214.098 81.7076 213.908 81.457 213.723 81.4609C213.314 81.4694 212.85 81.5097 212.51 81.7088C211.639 82.2171 211.421 82.3441 210.592 82.4434C210.433 82.4623 210.271 82.5119 210.128 82.5832C209.785 82.7551 209.425 82.9134 209.123 83.1442C208.891 83.3213 208.539 83.6705 208.591 83.8198C208.7 84.1305 209.039 84.3623 209.289 84.6211C209.508 84.8473 209.739 85.0622 209.956 85.2902C210.047 85.3865 210.117 85.5911 210.197 85.5916C210.329 85.5923 210.482 85.489 210.591 85.3902C210.795 85.204 210.939 84.8912 211.171 84.8072C211.685 84.622 211.795 84.29 211.855 83.7972C211.887 83.5382 212.227 83.116 212.417 83.1214C212.757 83.1312 213.266 83.3294 213.386 83.5932C213.591 84.0456 213.779 84.0542 214.169 83.9232C214.302 83.8786 214.559 83.9718 214.652 84.0879C214.855 84.3416 215.027 84.6366 215.136 84.9418C215.205 85.1347 215.161 85.5638 215.126 85.5685C214.534 85.6466 213.935 85.6787 213.337 85.7114C213.11 85.7238 212.882 85.7121 212.654 85.7114V86.3548C212.524 86.4077 212.319 86.4479 212.168 86.5607C211.605 86.9819 211.043 87.4087 210.512 87.8691C210.147 88.1857 209.829 88.558 209.497 88.9112C209.131 89.2991 208.743 89.6707 208.421 90.0921C208.144 90.4539 207.944 90.8747 207.715 91.272C207.659 91.3695 207.621 91.4773 207.575 91.5805C207.464 91.5117 207.334 91.4611 207.246 91.3703C207.085 91.2052 206.97 90.8873 206.798 90.8587C205.782 90.6892 204.768 90.6851 203.909 91.3867C203.281 91.8993 202.974 93.0586 203.386 93.5096C204.004 94.1869 204.593 93.7241 205.16 93.3602C205.177 93.3492 205.193 93.3331 205.211 93.328C205.339 93.2934 205.467 93.2611 205.595 93.228C205.594 93.3613 205.569 93.4995 205.597 93.6264C205.641 93.8326 205.682 94.1801 205.791 94.2077C206.289 94.3345 206.365 94.6656 206.451 95.0985C206.516 95.4256 206.708 95.8756 206.965 95.985C207.461 96.196 208.032 96.3392 208.489 95.7323C208.937 95.1374 209.448 95.1639 210.068 95.5445C210.394 95.7447 210.854 95.8831 211.219 95.8256C211.726 95.7458 211.98 95.8996 212.293 96.2631C212.54 96.5497 212.979 96.6622 213.302 96.8943C213.603 97.1105 214.08 97.3637 214.104 97.6336C214.194 98.6575 214.936 98.8837 215.667 98.9113C216.525 98.9437 217.259 99.0882 217.762 99.8106C217.899 100.008 218.025 100.425 217.924 100.54C217.274 101.285 217.206 102.186 217.102 103.092C217.025 103.755 216.639 104.089 215.961 104.099C215.258 104.11 215.009 104.438 215.106 105.153C215.14 105.407 215.239 105.751 215.118 105.911C214.381 106.883 213.935 108.177 212.483 108.416C212.356 108.437 212.217 108.692 212.179 108.86C212.131 109.077 212.171 109.316 212.188 109.544C212.2 109.691 212.198 109.935 212.273 109.965C212.756 110.165 212.788 110.49 212.676 110.941C212.638 111.091 212.804 111.298 212.889 111.472C212.963 111.623 213.056 111.764 213.14 111.91C212.95 111.949 212.754 112.038 212.573 112.013C212.363 111.985 212.132 111.898 211.972 111.764C211.093 111.027 210.419 110.191 210.56 108.923C210.593 108.632 210.393 108.319 210.324 108.011C210.24 107.636 210.167 107.258 210.118 106.877C210.093 106.681 210.16 106.474 210.139 106.276C210.058 105.524 209.851 104.768 209.892 104.025C209.944 103.069 209.501 102.558 208.725 102.183C208.533 102.09 208.331 101.963 208.206 101.797C207.89 101.381 207.638 100.916 207.321 100.501C206.633 99.5994 206.73 98.6251 207.518 97.8184C207.723 97.6083 207.769 97.1665 207.746 96.8414C207.733 96.6653 207.429 96.3824 207.241 96.3691C206.507 96.3168 206.083 95.8218 205.538 95.4381C204.83 94.9399 204.17 94.2566 203.131 94.3458C202.071 94.4369 201.552 93.8853 201.448 92.8237C201.424 92.5778 201.258 92.344 201.151 92.1079C200.928 91.6172 200.712 91.1231 200.469 90.6421C200.399 90.5015 200.25 90.4002 200.137 90.2809C200.064 90.4465 199.894 90.6415 199.934 90.7724C200.068 91.2102 200.286 91.6216 200.451 92.0511C200.503 92.1849 200.49 92.3438 200.506 92.4913C200.349 92.4427 200.097 92.4372 200.052 92.338C199.84 91.8703 199.671 91.3815 199.517 90.8906C199.428 90.6073 199.497 90.1524 199.324 90.0399C198.683 89.6252 198.637 89.049 198.614 88.3849L198.614 88.3846ZM209.243 87.676C209.398 87.7316 209.597 87.8387 209.801 87.8533C209.86 87.8574 210.025 87.4952 209.993 87.4662C209.51 87.0317 209.039 86.5602 208.483 86.2407C208.231 86.0957 207.795 86.2472 207.449 86.3066C207.385 86.3176 207.335 86.5267 207.313 86.6506C207.275 86.8622 207.25 87.0787 207.248 87.2933C207.246 87.4763 207.284 87.6597 207.304 87.8429C207.471 87.7679 207.673 87.7299 207.795 87.6099C208.01 87.3986 208.176 87.1372 208.362 86.8968L208.565 86.9936C208.501 87.2588 208.432 87.5229 208.374 87.7894C208.348 87.9121 208.288 88.1007 208.343 88.1508C208.426 88.2272 208.643 88.2745 208.72 88.2188C208.913 88.0791 209.059 87.8748 209.244 87.6757L209.243 87.676Z" fill="white"/>
<defs>
<radialGradient id="paint0_radial_16_4524" cx="0" cy="0" r="1" gradientUnits="userSpaceOnUse" gradientTransform="translate(60.5232 52.3961) rotate(-17.705) scale(51.0071 51.0071)">
<stop stop-color="#F49E40"/>
<stop offset="0.999" stop-color="#DA7F38"/>
</radialGradient>
<radialGradient id="paint1_radial_16_4524" cx="0" cy="0" r="1" gradientUnits="userSpaceOnUse" gradientTransform="translate(60.5232 52.3961) rotate(-17.705) scale(51.0071 51.0071)">
<stop stop-color="#F49E40"/>
<stop offset="0.999" stop-color="#DA7F38"/>
</radialGradient>
<radialGradient id="paint2_radial_16_4524" cx="0" cy="0" r="1" gradientUnits="userSpaceOnUse" gradientTransform="translate(71.9142 73.0497) scale(36.1315 36.1315)">
<stop offset="0.041" stop-color="#C3E9ED"/>
<stop offset="0.908" stop-color="#ADD4DA"/>
</radialGradient>
<radialGradient id="paint3_radial_16_4524" cx="0" cy="0" r="1" gradientUnits="userSpaceOnUse" gradientTransform="translate(75.5058 75.9428) rotate(-17.812) scale(32.9326 32.9326)">
<stop offset="0.041" stop-color="#C3F1FE"/>
<stop offset="1" stop-color="#C3D4DA"/>
</radialGradient>
<radialGradient id="paint4_radial_16_4524" cx="0" cy="0" r="1" gradientUnits="userSpaceOnUse" gradientTransform="translate(77.3668 75.9584) rotate(-17.705) scale(31.759 31.759)">
<stop offset="0.041" stop-color="#D0EAF1"/>
<stop offset="1" stop-color="#ADE4FA"/>
</radialGradient>
<radialGradient id="paint5_radial_16_4524" cx="0" cy="0" r="1" gradientUnits="userSpaceOnUse" gradientTransform="translate(57.948 49.0797) scale(35.1151)">
<stop offset="0.041" stop-color="#ABD3DF"/>
<stop offset="0.898" stop-color="#00ADF1" stop-opacity="0"/>
</radialGradient>
<clipPath id="clip0_16_4524">
<rect width="73.0114" height="73.0114" fill="white" transform="translate(35.6021 36.4944)"/>
</clipPath>
<clipPath id="clip1_16_4524">
<rect width="72.4114" height="72.7107" fill="white" transform="translate(35.6021 36.4886)"/>
</clipPath>
<clipPath id="clip2_16_4524">
<rect width="17.1823" height="10.5737" fill="white" transform="translate(120.509 67.7133)"/>
</clipPath>
</defs>
</svg>
