<svg width="908" height="322" viewBox="0 0 908 322" fill="none" xmlns="http://www.w3.org/2000/svg">
<path d="M112.638 160.638C112.638 222.846 62.2082 273.276 0 273.276C0 273.276 0 195.09 0 132.882C0 70.6739 0 48 0 48C62.2082 48 112.638 98.4297 112.638 160.638Z" fill="white"/>
<circle cx="155.926" cy="160.638" r="2.51" fill="white"/>
<circle cx="205.672" cy="160.638" r="6.45695" fill="white"/>
<circle cx="259.724" cy="160.638" r="6.81567" fill="white"/>
<circle cx="310.547" cy="160.638" r="3.22848" fill="white"/>
<circle cx="430.244" cy="160.638" r="75.6898" fill="white"/>
<circle cx="609.13" cy="160.638" r="62.4172" fill="white"/>
<g clip-path="url(#clip0_17_5264)">
<g clip-path="url(#clip1_17_5264)">
<path d="M765.835 152.365C770.424 166.743 762.489 182.121 748.11 186.71C733.732 191.3 718.354 183.364 713.765 168.986C709.175 154.607 717.111 139.23 731.489 134.64C745.868 130.051 761.245 137.986 765.835 152.365Z" fill="url(#paint0_radial_17_5264)"/>
<path d="M765.835 152.365C770.424 166.743 762.489 182.121 748.11 186.71C733.732 191.3 718.354 183.364 713.765 168.986C709.175 154.607 717.111 139.23 731.489 134.64C745.868 130.051 761.245 137.986 765.835 152.365Z" fill="url(#paint1_radial_17_5264)"/>
<path d="M765.835 152.365C770.424 166.743 762.489 182.121 748.11 186.71C733.732 191.3 718.354 183.364 713.765 168.986C709.175 154.607 717.111 139.23 731.489 134.64C745.868 130.051 761.245 137.986 765.835 152.365Z" fill="url(#paint2_radial_17_5264)"/>
<mask id="mask0_17_5264" style="mask-type:luminance" maskUnits="userSpaceOnUse" x="712" y="133" width="56" height="56">
<path d="M765.835 152.365C770.424 166.743 762.489 182.121 748.11 186.71C733.732 191.3 718.354 183.364 713.765 168.986C709.175 154.607 717.111 139.23 731.489 134.64C745.868 130.051 761.245 137.986 765.835 152.365Z" fill="white"/>
</mask>
<g mask="url(#mask0_17_5264)">
<path d="M714.713 136.669C715.118 137.427 716.634 138.271 716.945 138.624C718.415 140.301 715.759 142.43 714.585 143.649C712.666 145.641 711.15 148.022 710.155 150.604C709.903 151.26 709.681 151.955 709.755 152.652C709.83 153.35 710.276 154.054 710.958 154.224C711.343 154.319 711.756 154.236 712.118 154.073C713.125 153.618 713.751 152.622 714.456 151.772C715.16 150.922 716.166 150.12 717.255 150.305C717.754 150.39 718.194 150.674 718.675 150.833C720.412 151.404 722.276 150.209 723.338 148.721C724.401 147.233 724.971 145.438 726.032 143.95C727.093 142.461 728.956 141.265 730.694 141.834C731.319 142.039 731.857 142.451 732.472 142.688C736.31 144.168 738.48 139.466 741.528 138.466C744.443 137.509 747.289 140.17 750.343 140.47C752.107 140.643 753.218 139.915 754.661 139.111C756.016 138.356 757.526 138.182 759.09 137.842C763.728 136.834 768.333 135.567 772.776 133.89C773.354 133.672 773.88 133.411 774.403 133.084C774.839 132.812 774.536 132.23 774.071 132.3C772.896 132.476 771.792 132.894 770.661 133.247C769.532 133.598 768.405 133.954 767.271 134.287C765.021 134.947 762.752 135.535 760.466 136.05C758.374 136.523 757.583 136.393 756.021 134.893C754.995 133.907 753.653 133.328 752.343 132.769C749.045 131.361 745.738 129.951 742.296 128.946C741.607 128.745 740.883 128.558 740.178 128.694C739.473 128.829 738.005 126.761 737.965 127.478C737.946 127.816 738.856 130.78 738.776 131.108C738.615 131.773 734.572 126.138 733.893 126.215C730.052 126.649 729.034 131.536 725.187 131.166C724.367 131.087 723.625 132.164 723.438 132.966C723.29 133.6 718.555 132.684 719.149 132.953C719.742 133.222 725.764 134.865 726.16 135.381C726.181 135.874 725.557 136.095 725.067 136.147C722.709 136.4 720.308 136.244 718.003 135.686C717.33 135.522 716.633 135.323 715.953 135.461C714.653 135.724 714.45 136.178 714.713 136.669Z" fill="#CAE8EB"/>
</g>
<path style="mix-blend-mode:multiply" opacity="0.43" d="M765.818 152.322C770.433 166.686 762.526 182.082 748.155 186.7C738.641 189.757 728.675 187.322 721.701 181.158C727.244 183.201 733.48 183.483 739.537 181.537C753.909 176.919 761.807 161.526 757.189 147.154C755.63 142.304 752.845 138.196 749.289 135.051C756.878 137.874 763.148 144.015 765.818 152.322Z" fill="url(#paint3_radial_17_5264)"/>
<path style="mix-blend-mode:multiply" opacity="0.43" d="M765.838 152.368C770.425 166.741 762.489 182.121 748.108 186.711C740.168 189.246 731.919 187.959 725.358 183.876C731.195 186.388 737.937 186.896 744.475 184.809C758.856 180.218 766.793 164.838 762.205 150.465C760.15 144.025 755.926 138.874 750.594 135.567C757.613 138.594 763.333 144.517 765.839 152.367L765.838 152.368Z" fill="url(#paint4_radial_17_5264)"/>
<path style="mix-blend-mode:screen" d="M746.209 162.093C752.307 152.851 751.833 141.784 745.15 137.375C738.467 132.966 728.107 136.884 722.009 146.127C715.911 155.369 716.385 166.436 723.067 170.845C729.75 175.254 740.111 171.336 746.209 162.093Z" fill="url(#paint5_radial_17_5264)"/>
</g>
</g>
<circle cx="834.172" cy="160.638" r="25.8278" fill="white"/>
<g clip-path="url(#clip2_17_5264)">
<path d="M728.591 106.566C732.002 110.52 735.486 114.407 739.026 118.243C739.963 119.262 741.22 118.921 742.235 118.196C746.086 115.453 749.911 112.684 753.715 109.884C755.061 108.895 755.351 107.446 754.445 106.385C753.384 105.143 752.178 105.132 750.874 106.09C748.964 107.492 745.801 110.023 743.296 111.918C745.005 86.7924 754.451 70.7192 763.388 60.9621C763.824 60.5268 764.507 58.6727 763.4 57.5661C762.294 56.4595 760.51 57.1986 759.822 57.8865C751.257 67.2653 740.682 84.0456 738.7 110.914C736.862 108.838 734.663 106.312 733.25 104.744C732.882 104.335 732.53 103.906 732.132 103.528C731.071 102.524 729.88 102.477 728.814 103.403C727.758 104.314 727.779 105.624 728.591 106.566Z" fill="white"/>
</g>
<rect x="2.86976" y="2.86976" width="902.26" height="315.536" stroke="white" stroke-width="5.73951"/>
<defs>
<radialGradient id="paint0_radial_17_5264" cx="0" cy="0" r="1" gradientUnits="userSpaceOnUse" gradientTransform="translate(731.181 145.049) rotate(-17.705) scale(38.5917 38.5917)">
<stop stop-color="#F49E40"/>
<stop offset="0.999" stop-color="#DA7F38"/>
</radialGradient>
<radialGradient id="paint1_radial_17_5264" cx="0" cy="0" r="1" gradientUnits="userSpaceOnUse" gradientTransform="translate(731.181 145.049) rotate(-17.705) scale(38.5917 38.5917)">
<stop stop-color="#F49E40"/>
<stop offset="0.999" stop-color="#DA7F38"/>
</radialGradient>
<radialGradient id="paint2_radial_17_5264" cx="0" cy="0" r="1" gradientUnits="userSpaceOnUse" gradientTransform="translate(739.799 160.676) scale(27.3369 27.3369)">
<stop offset="0.041" stop-color="#C3E9ED"/>
<stop offset="0.908" stop-color="#ADD4DA"/>
</radialGradient>
<radialGradient id="paint3_radial_17_5264" cx="0" cy="0" r="1" gradientUnits="userSpaceOnUse" gradientTransform="translate(742.516 162.864) rotate(-17.812) scale(24.9166)">
<stop offset="0.041" stop-color="#C3F1FE"/>
<stop offset="1" stop-color="#C3D4DA"/>
</radialGradient>
<radialGradient id="paint4_radial_17_5264" cx="0" cy="0" r="1" gradientUnits="userSpaceOnUse" gradientTransform="translate(743.925 162.876) rotate(-17.705) scale(24.0287 24.0287)">
<stop offset="0.041" stop-color="#D0EAF1"/>
<stop offset="1" stop-color="#ADE4FA"/>
</radialGradient>
<radialGradient id="paint5_radial_17_5264" cx="0" cy="0" r="1" gradientUnits="userSpaceOnUse" gradientTransform="translate(729.232 142.54) scale(26.5679)">
<stop offset="0.041" stop-color="#ABD3DF"/>
<stop offset="0.898" stop-color="#00ADF1" stop-opacity="0"/>
</radialGradient>
<clipPath id="clip0_17_5264">
<rect width="55.24" height="55.24" fill="white" transform="translate(712.326 133.018)"/>
</clipPath>
<clipPath id="clip1_17_5264">
<rect width="54.786" height="55.0124" fill="white" transform="translate(712.326 133.014)"/>
</clipPath>
<clipPath id="clip2_17_5264">
<rect width="36" height="61.8816" fill="white" transform="matrix(-1 0 0 1 764 57)"/>
</clipPath>
</defs>
</svg>
