<svg width="270" height="146" viewBox="0 0 270 146" fill="none" xmlns="http://www.w3.org/2000/svg">
<g clip-path="url(#clip0_16_4521)">
<path d="M117.243 79.0794C120.601 58.2345 106.425 38.6141 85.5803 35.2559C64.7355 31.8977 45.115 46.0734 41.7568 66.9182C38.3986 87.7631 52.5743 107.383 73.4192 110.742C94.264 114.1 113.884 99.9242 117.243 79.0794Z" fill="url(#paint0_radial_16_4521)"/>
<path style="mix-blend-mode:screen" opacity="0.7" d="M94.7195 49.9303C101.75 58.649 97.674 73.5983 85.6159 83.3201C73.5578 93.0419 58.0845 93.8567 51.0545 85.138C44.0245 76.4193 48.1 61.47 60.1581 51.7482C72.2162 42.0265 87.6895 41.2117 94.7195 49.9303Z" fill="url(#paint1_radial_16_4521)"/>
<path style="mix-blend-mode:multiply" opacity="0.332" d="M117.732 73.003C117.732 94.107 100.613 111.227 79.4964 111.227C65.5179 111.227 53.2884 103.721 46.6377 92.5252C53.1451 97.6164 61.3299 100.662 70.2284 100.662C91.3452 100.662 108.452 83.5424 108.452 62.427C108.452 55.3015 106.501 48.6381 103.111 42.9287C112.01 49.9362 117.732 60.7974 117.732 73.003Z" fill="url(#paint2_radial_16_4521)"/>
<path style="mix-blend-mode:multiply" opacity="0.332" d="M117.732 73.0028C117.732 94.1069 100.614 111.227 79.4972 111.227C67.8381 111.227 57.3928 106.003 50.3867 97.7722C57.0964 103.601 65.8643 107.147 75.4652 107.147C96.5819 107.147 113.7 90.0271 113.7 68.923C113.7 59.4654 110.263 50.8043 104.564 44.1311C112.63 51.1499 117.734 61.4757 117.734 73.0042L117.732 73.0028Z" fill="url(#paint3_radial_16_4521)"/>
<mask id="mask0_16_4521" style="mask-type:luminance" maskUnits="userSpaceOnUse" x="41" y="34" width="77" height="78">
<path d="M117.243 79.0794C120.601 58.2345 106.425 38.6141 85.5803 35.2559C64.7355 31.8977 45.115 46.0734 41.7568 66.9182C38.3986 87.7631 52.5743 107.383 73.4192 110.742C94.264 114.1 113.884 99.9242 117.243 79.0794Z" fill="white"/>
</mask>
<g mask="url(#mask0_16_4521)">
<g style="mix-blend-mode:screen" opacity="0.347">
<path d="M42.2196 41.6114C47.3854 45.812 53.1636 49.3115 59.0585 52.3882C65.0124 55.4958 71.1728 58.2451 77.4793 60.5576C90.1021 65.1881 103.262 68.1804 116.647 69.4491C120.355 69.8003 124.073 70.0208 127.796 70.1051C129.707 70.1487 131.625 70.1838 133.534 70.115C135.443 70.0461 137.4 70.0953 139.205 69.4378C139.994 69.1498 140.105 67.9655 139.205 67.7239C137.583 67.2869 135.957 67.3741 134.29 67.3544C132.622 67.3347 130.967 67.3277 129.307 67.2898C126.035 67.2153 122.766 67.0355 119.506 66.7559C112.964 66.1925 106.484 65.1768 100.058 63.8309C87.1856 61.135 74.6105 56.8543 62.7828 51.0999C56.0717 47.835 49.6851 44.0334 43.2185 40.3203C42.4374 39.8721 41.4736 41.0059 42.221 41.6128L42.2196 41.6114Z" fill="url(#paint4_radial_16_4521)"/>
</g>
<g style="mix-blend-mode:screen" opacity="0.347">
<path d="M31.8226 68.1172C36.9884 72.3178 42.7666 75.8174 48.6615 78.8941C54.6154 82.0016 60.7758 84.751 67.0823 87.0634C79.7051 91.6939 92.8646 94.6863 106.25 95.9549C109.958 96.3061 113.677 96.5267 117.399 96.611C119.31 96.6545 121.228 96.6897 123.137 96.6208C125.046 96.552 127.003 96.6012 128.808 95.9437C129.597 95.6557 129.708 94.4714 128.808 94.2297C127.186 93.7928 125.56 93.8799 123.893 93.8602C122.225 93.8406 120.57 93.8335 118.91 93.7956C115.638 93.7212 112.369 93.5413 109.109 93.2617C102.567 92.6984 96.0874 91.6827 89.6615 90.3368C76.7886 87.6408 64.2135 83.3602 52.3859 77.6058C45.6747 74.3408 39.2882 70.5392 32.8215 66.8262C32.0404 66.378 31.0767 67.5117 31.824 68.1186L31.8226 68.1172Z" fill="url(#paint5_radial_16_4521)"/>
</g>
<g opacity="0.347">
<path d="M27.3647 60.8912C29.7431 63.5802 32.6217 65.7872 35.5916 67.7892C38.3494 69.6478 41.1479 71.4363 44.0799 73.0069C50.3077 76.3421 56.7744 79.319 63.4068 81.7565C69.74 84.083 76.2207 86.0077 82.797 87.5151C89.6612 89.0886 96.6912 90.0312 103.709 90.5932C107.068 90.8629 110.435 91.0231 113.804 91.0737C115.512 91.0989 117.229 91.1242 118.937 91.0652C119.744 91.0371 120.55 90.9388 121.354 90.8573C122.481 90.7449 123.687 90.7112 124.762 90.3515C126.003 89.9371 127.052 89.274 127.582 88.0377C128.228 86.5331 127.774 84.9863 126.487 83.9903C124.704 82.6121 122.138 82.8411 119.995 82.6893C116.632 82.4519 113.251 82.4955 109.883 82.2609C108.173 82.1414 106.466 81.9939 104.762 81.8197C103.96 81.7368 103.158 81.6483 102.357 81.5542C101.957 81.5064 101.556 81.4573 101.156 81.4081C100.956 81.3828 100.756 81.3561 100.556 81.3308C99.7061 81.2226 101.281 81.432 100.704 81.3519C97.3684 80.8855 94.0472 80.3319 90.7458 79.6632C84.1246 78.3216 77.5708 76.7931 71.1252 74.749C67.8645 73.715 64.6417 72.5616 61.4386 71.3618C59.8862 70.7802 58.3436 70.1733 56.8095 69.5425C56.6241 69.4666 56.4386 69.3893 56.2532 69.3121C56.1057 69.2503 55.4875 68.9974 56.0818 69.2418C56.676 69.4863 56.0579 69.2306 55.9104 69.1674C55.7249 69.0887 55.5395 69.0086 55.3541 68.9285C54.5673 68.5886 53.782 68.243 53.0009 67.8903C46.7913 65.089 40.8248 61.8002 34.677 58.8822C33.0558 58.1124 31.4514 57.3889 29.7684 56.7595C28.7583 56.3816 27.4953 57.0124 26.9797 57.8946C26.4037 58.8794 26.6355 60.0609 27.3661 60.887L27.3647 60.8912Z" fill="url(#paint6_radial_16_4521)"/>
</g>
<g style="mix-blend-mode:screen" opacity="0.347">
<path d="M37.024 50.8276C39.439 53.3424 42.2488 55.4679 45.1512 57.3898C47.9652 59.2527 50.8227 61.0411 53.8039 62.6272C59.9418 65.8921 66.3087 68.8016 72.8358 71.2012C85.7227 75.9384 99.0958 78.9013 112.776 80.0575C116.536 80.375 120.305 80.5577 124.079 80.6012C125.992 80.6237 127.908 80.6448 129.816 80.4916C132.068 80.3104 134.68 80.4073 136.218 78.4953C136.987 77.5414 137.119 76.2995 136.218 75.3526C135.505 74.6024 134.719 74.1107 133.682 73.9252C132.653 73.7412 131.613 73.7286 130.572 73.678C128.91 73.5965 127.252 73.56 125.589 73.5164C122.266 73.4293 118.947 73.2354 115.635 72.9348C113.979 72.7845 112.326 72.6089 110.675 72.4066C110.274 72.3574 109.874 72.3068 109.475 72.2548C109.349 72.238 108.702 72.1495 109.225 72.2225C109.748 72.2956 109.103 72.2043 108.976 72.1874C108.131 72.0694 107.285 71.9429 106.44 71.8109C103.16 71.2967 99.905 70.6519 96.6527 69.986C90.1425 68.6527 83.7152 66.9121 77.4213 64.7781C74.2786 63.7132 71.1598 62.564 68.0774 61.3375C67.3778 61.0593 66.6796 60.7756 65.9828 60.4862C65.7973 60.4089 65.6119 60.3316 65.4264 60.2544C64.9207 60.0436 65.9701 60.489 65.4672 60.2712C65.0513 60.0914 64.6327 59.9144 64.2168 59.7317C62.6462 59.0462 61.0868 58.3353 59.5386 57.6005C56.2189 56.0229 52.9132 54.3862 49.6595 52.6778C46.3089 50.9189 43.0088 49.0757 39.5205 47.6006C38.575 47.2002 37.5312 47.2395 36.8653 48.1302C36.2485 48.9549 36.3005 50.076 37.0268 50.8318L37.024 50.8276Z" fill="url(#paint7_radial_16_4521)"/>
</g>
<g opacity="0.347">
<path d="M28.2388 75.5024C33.2851 79.9601 39.1983 83.5468 45.1479 86.667C51.151 89.8153 57.3662 92.6082 63.7303 94.9417C76.4753 99.6158 89.7402 102.596 103.259 103.819C106.967 104.155 110.687 104.359 114.41 104.426C116.32 104.461 118.238 104.492 120.147 104.394C122.149 104.29 124.17 104.339 125.954 103.332C126.76 102.877 126.885 101.448 125.954 101.029C125.122 100.654 124.389 100.415 123.47 100.341C122.619 100.272 121.757 100.297 120.903 100.277C119.243 100.238 117.581 100.224 115.92 100.185C112.598 100.107 109.278 99.922 105.968 99.6326C99.4901 99.0651 93.0908 98.0311 86.7239 96.7105C73.8636 94.0412 61.2816 89.7943 49.4525 84.0848C42.7315 80.841 36.3464 77.0113 29.7378 73.5651C28.5521 72.9469 27.1416 74.5331 28.2416 75.5038L28.2388 75.5024Z" fill="url(#paint8_radial_16_4521)"/>
</g>
<g opacity="0.5">
<path d="M41.9295 29.9487C46.9758 34.4064 52.8889 37.9931 58.8386 41.1133C64.8416 44.2616 71.0554 47.0545 77.4209 49.388C90.166 54.0621 103.431 57.0418 116.95 58.2655C120.657 58.6012 124.378 58.8049 128.101 58.8724C130.011 58.9075 131.929 58.9384 133.838 58.84C135.84 58.7361 137.86 58.7853 139.644 57.778C140.451 57.3228 140.576 55.894 139.644 55.4754C138.813 55.1003 138.079 54.8614 137.161 54.787C136.309 54.7181 135.447 54.7434 134.594 54.7238C132.933 54.6844 131.271 54.6704 129.611 54.631C126.288 54.5538 122.969 54.3683 119.659 54.0789C113.181 53.5113 106.781 52.4774 100.415 51.1568C87.5543 48.4875 74.9722 44.2405 63.1431 38.5311C56.4222 35.2873 50.037 31.4576 43.4285 28.0114C42.2428 27.3932 40.8323 28.9794 41.9323 29.9501L41.9295 29.9487Z" fill="url(#paint9_radial_16_4521)"/>
</g>
</g>
</g>
<g clip-path="url(#clip1_16_4521)">
<path d="M135.731 70.6608C134.821 70.5703 134.097 70.9677 133.386 71.4545C131.271 72.9045 129.055 72.8561 127.002 71.3523C126.56 71.0282 126.304 70.6647 126.648 70.1479C126.943 69.7045 127.406 69.6833 127.99 70.0586C129.756 71.1953 130.893 71.1782 132.655 69.9885C134.719 68.5954 137.08 68.6802 139.041 70.2087C139.468 70.5408 139.643 70.9294 139.296 71.3796C138.955 71.8211 138.514 71.8208 138.061 71.5018C137.366 71.012 136.65 70.5751 135.731 70.661V70.6608Z" fill="white"/>
<path d="M130.071 76.998C128.988 77.0371 127.873 76.5329 126.869 75.756C126.466 75.4442 126.339 75.0476 126.668 74.6252C126.99 74.2124 127.424 74.162 127.847 74.47C128.637 75.045 129.488 75.5333 130.496 75.331C131.214 75.1869 131.953 74.9162 132.561 74.5264C134.707 73.1509 136.845 73.1466 138.906 74.6161C139.477 75.0234 139.618 75.4472 139.321 75.8616C139.014 76.2882 138.55 76.3185 137.973 75.9493C136.197 74.8137 135.054 74.8186 133.31 76.02C132.406 76.6426 131.422 76.988 130.071 76.998Z" fill="white"/>
</g>
<path d="M188.396 112.998C166.174 112.758 148.278 94.7542 148.482 72.9557C148.691 50.6536 166.597 32.8401 188.736 33.0011C211.328 33.1653 228.663 51.4457 228.479 73.1576C228.29 95.4421 210.216 113.233 188.396 112.998ZM154.5 57.975C154.175 58.9157 153.853 59.8572 153.526 60.797C151.31 67.1517 150.727 73.6827 152.198 80.2228C155.401 94.4664 163.96 104.213 177.972 108.397C191.946 112.57 204.338 109.018 214.875 98.9866C215.986 97.9286 217.279 97.0441 216.249 94.9772C215.335 93.1444 215.061 90.9932 214.5 88.9841C214.467 88.8661 214.406 88.7456 214.327 88.6519C213.403 87.5539 213.522 86.3954 214.222 85.2791C214.79 84.3723 214.655 83.6184 214.15 82.7233C213.481 81.5352 212.584 80.2705 212.514 78.9988C212.417 77.2403 212.398 75.8709 210.198 75.8078C210.013 75.8026 209.839 75.5328 209.652 75.5233C208.834 75.4809 207.894 75.2232 207.216 75.5286C205.159 76.456 202.582 76.0858 201.103 74.4148C200.77 74.0388 200.441 73.6586 200.097 73.293C198.915 72.0378 198.926 70.6427 199.459 69.0975C199.629 68.6025 199.366 67.9709 199.373 67.4028C199.378 66.9397 199.323 66.3119 199.586 66.0482C200.259 65.3739 201.155 64.9246 201.844 64.2626C202.291 63.8335 202.748 63.2142 202.816 62.6348C202.946 61.523 203.547 60.8957 204.5 60.7141C206.622 60.3093 208.765 59.974 210.914 59.7774C211.363 59.7364 212.029 60.3218 212.325 60.7892C212.757 61.4723 216.007 63.0449 216.785 62.7475C216.897 62.7049 217.024 62.6333 217.086 62.5376C217.888 61.2995 218.78 61.8465 219.806 62.2596C220.771 62.6483 221.854 62.7782 222.899 62.913C223.171 62.9482 223.651 62.6451 223.767 62.3801C224.131 61.5461 222.916 59.9019 222.068 59.5637C221.346 59.2759 220.756 58.6284 220.151 58.0907C219.87 57.8406 219.694 57.4727 219.47 57.1583C219.161 57.4581 218.845 57.7507 218.546 58.0601C218.334 58.2799 218.145 58.5224 217.946 58.755C217.714 58.5247 217.42 58.3296 217.266 58.0553C217.088 57.7364 217.14 57.2359 216.904 57.0106C216.101 56.2429 215.306 55.3667 214.331 54.9094C213.557 54.5465 213.145 55.2637 213.626 55.9802C213.98 56.5063 214.69 56.7876 215.068 57.3049C215.333 57.6686 215.448 58.2753 215.354 58.7148C215.305 58.9474 214.666 59.0541 214.293 59.2178C215.263 58.4958 215.06 58.0224 214.279 57.4637C213.635 57.0026 213.047 56.4631 212.41 55.9918C212.2 55.8366 211.859 55.6402 211.67 55.71C210.294 56.2163 208.763 56.498 208.07 58.0729C207.464 59.4509 206.278 59.5375 204.997 59.3758C203.947 59.2432 203.637 58.5704 203.624 57.6133C203.61 56.606 204.159 56.1555 205.071 56.0834C205.566 56.0442 206.096 56.2303 206.563 56.1186C206.91 56.0355 207.479 55.4644 207.444 55.4041C206.532 53.8338 207.525 53.4257 208.758 53.0896C209.012 53.0203 209.279 52.7767 209.418 52.5414C210.042 51.4834 210.949 51.1197 212.153 51.1263C212.544 51.1283 212.938 50.6358 213.331 50.3693C212.964 50.0579 212.595 49.7498 212.231 49.4346C211.628 48.9113 210.996 48.4115 210.473 47.8166C210.417 47.7528 210.929 46.9961 211.304 46.7791C213.226 45.6683 213.293 45.4154 211.507 44.0314C202.564 37.1004 192.507 34.6377 181.377 36.6661C176.534 37.5486 172.098 39.4733 168.007 42.1949C167.719 42.3868 167.523 42.7188 167.285 42.9855C167.612 43.1238 167.935 43.2738 168.267 43.3983C169.163 43.7336 170.055 44.0832 170.965 44.3778C171.551 44.5674 172.159 44.7185 172.768 44.7859C172.989 44.8102 173.242 44.5402 173.481 44.4046C173.329 44.1864 173.225 43.8893 173.017 43.764C172.192 43.266 171.335 42.8215 170.438 42.3282C171.416 41.3983 172.555 40.6213 173.609 41.5141C174.804 42.5264 175.851 43.0897 177.396 42.33C176.803 42.764 176.181 42.9156 175.615 43.1829C175.332 43.3162 174.918 43.7359 174.969 43.8936C175.072 44.2095 175.469 44.6696 175.719 44.654C176.534 44.603 177.342 44.3835 178.145 44.1934C178.936 44.0061 179.655 43.7577 179.149 42.666C179.087 42.5317 179.343 42.0751 179.503 42.0457C179.938 41.9654 180.401 42.0339 180.852 42.0437C180.802 42.2999 180.668 42.5741 180.719 42.8082C180.819 43.2655 181.022 43.6999 181.182 44.144C181.555 43.8855 181.967 43.6683 182.29 43.3576C182.658 43.0018 182.865 42.4071 183.284 42.1881C184.705 41.4458 187.744 41.9942 188.786 43.2019C189.223 43.7092 189.445 44.4325 189.624 45.0958C189.648 45.1837 188.829 45.4936 188.405 45.7095C188.294 45.7655 188.188 45.8421 188.103 45.9305C187.161 46.9037 186.24 46.4027 185.136 45.9147C185.535 45.6483 185.821 45.493 186.064 45.2856C186.362 45.0297 186.624 44.7306 186.901 44.4501C186.513 44.1708 186.12 43.6527 185.737 43.6608C184.89 43.6783 183.933 43.7617 183.228 44.1733C181.428 45.2241 180.979 45.4868 179.263 45.6919C178.936 45.7311 178.6 45.8336 178.305 45.981C177.595 46.3364 176.851 46.6636 176.227 47.1407C175.748 47.5069 175.019 48.2289 175.127 48.5376C175.352 49.18 176.054 49.6591 176.571 50.1943C177.023 50.6619 177.5 51.1062 177.948 51.5776C178.137 51.7767 178.281 52.1996 178.447 52.2006C178.721 52.2021 179.037 51.9884 179.261 51.7842C179.684 51.3992 179.981 50.7526 180.461 50.579C181.523 50.1961 181.751 49.5097 181.876 48.4908C181.941 47.9554 182.644 47.0825 183.038 47.0938C183.74 47.1139 184.792 47.5237 185.04 48.0692C185.465 49.0044 185.852 49.0223 186.659 48.7513C186.933 48.6591 187.466 48.8517 187.657 49.0918C188.077 49.6164 188.434 50.2262 188.659 50.8573C188.801 51.2561 188.71 52.1431 188.638 52.1529C187.413 52.3144 186.175 52.3807 184.939 52.4482C184.47 52.4739 183.998 52.4497 183.527 52.4482V53.7785C183.259 53.8877 182.834 53.9709 182.522 54.2042C181.358 55.0749 180.197 55.9574 179.099 56.9092C178.344 57.5636 177.687 58.3333 177 59.0636C176.244 59.8655 175.442 60.6337 174.776 61.5049C174.204 62.2531 173.79 63.123 173.316 63.9445C173.2 64.1459 173.121 64.3689 173.026 64.5821C172.796 64.4399 172.529 64.3352 172.346 64.1476C172.014 63.8063 171.776 63.1491 171.42 63.0898C169.32 62.7395 167.223 62.731 165.447 64.1815C164.149 65.2413 163.515 67.6379 164.366 68.5704C165.644 69.9707 166.861 69.0139 168.034 68.2615C168.069 68.2389 168.101 68.2055 168.14 68.1949C168.404 68.1233 168.669 68.0565 168.934 67.9882C168.931 68.2637 168.88 68.5495 168.937 68.812C169.029 69.2381 169.113 69.9566 169.338 70.0136C170.368 70.2758 170.525 70.9604 170.704 71.8552C170.838 72.5315 171.234 73.462 171.765 73.688C172.79 74.1242 173.972 74.4203 174.916 73.1656C175.842 71.9358 176.898 71.9906 178.18 72.7774C178.855 73.1913 179.806 73.4773 180.56 73.3585C181.608 73.1935 182.134 73.5114 182.781 74.2631C183.292 74.8555 184.199 75.0881 184.867 75.568C185.489 76.015 186.476 76.5384 186.525 77.0964C186.711 79.2132 188.245 79.6808 189.756 79.7378C191.53 79.8049 193.047 80.1037 194.087 81.5972C194.371 82.0043 194.63 82.8682 194.423 83.1053C193.078 84.6448 192.938 86.5074 192.722 88.3807C192.564 89.7516 191.765 90.4425 190.363 90.4638C188.91 90.4859 188.396 91.1635 188.595 92.6417C188.666 93.1668 188.87 93.8793 188.621 94.2088C187.098 96.2193 186.176 98.8947 183.173 99.3879C182.912 99.4309 182.623 99.9585 182.545 100.305C182.445 100.754 182.528 101.248 182.564 101.72C182.588 102.024 182.585 102.528 182.739 102.591C183.737 103.004 183.804 103.675 183.572 104.607C183.494 104.919 183.837 105.345 184.014 105.706C184.167 106.018 184.357 106.31 184.532 106.612C184.139 106.692 183.733 106.877 183.359 106.826C182.926 106.767 182.449 106.587 182.117 106.309C180.3 104.786 178.906 103.057 179.198 100.437C179.266 99.8347 178.853 99.1885 178.711 98.5516C178.537 97.7764 178.384 96.9933 178.284 96.206C178.233 95.8007 178.372 95.3723 178.328 94.9647C178.16 93.4096 177.733 91.8466 177.817 90.3091C177.925 88.3332 177.008 87.2767 175.404 86.5019C175.007 86.3101 174.59 86.0476 174.33 85.7048C173.679 84.8434 173.157 83.8831 172.502 83.025C171.078 81.1605 171.28 79.1462 172.908 77.4784C173.332 77.0442 173.428 76.1308 173.38 75.4585C173.354 75.0946 172.726 74.5097 172.337 74.4821C170.819 74.3741 169.942 73.3507 168.815 72.5574C167.351 71.5275 165.988 70.1148 163.84 70.2992C161.647 70.4875 160.574 69.3471 160.359 67.1525C160.309 66.6439 159.967 66.1607 159.745 65.6725C159.285 64.6579 158.837 63.6366 158.336 62.6421C158.19 62.3515 157.883 62.1421 157.649 61.8954C157.497 62.2377 157.147 62.6408 157.23 62.9115C157.507 63.8166 157.957 64.6672 158.299 65.555C158.406 65.8317 158.378 66.1602 158.413 66.4651C158.088 66.3646 157.566 66.3533 157.473 66.1482C157.036 65.1813 156.685 64.1707 156.368 63.1559C156.184 62.5702 156.327 61.6297 155.968 61.3972C154.643 60.5398 154.547 59.3484 154.5 57.9755L154.5 57.975ZM176.476 56.5098C176.796 56.6249 177.206 56.8464 177.63 56.8765C177.75 56.885 178.093 56.1362 178.026 56.0761C177.027 55.1778 176.054 54.2032 174.905 53.5427C174.383 53.2428 173.481 53.556 172.767 53.6788C172.633 53.7017 172.531 54.1339 172.485 54.39C172.407 54.8275 172.354 55.275 172.35 55.7188C172.346 56.097 172.425 56.4762 172.467 56.8549C172.811 56.7 173.23 56.6214 173.482 56.3732C173.926 55.9365 174.268 55.3961 174.653 54.8991L175.074 55.0992C174.941 55.6475 174.798 56.1934 174.679 56.7444C174.624 56.9981 174.5 57.3881 174.614 57.4915C174.787 57.6495 175.235 57.7472 175.394 57.6322C175.793 57.3434 176.095 56.921 176.476 56.5093L176.476 56.5098Z" fill="white"/>
<defs>
<radialGradient id="paint0_radial_16_4521" cx="0" cy="0" r="1" gradientUnits="userSpaceOnUse" gradientTransform="translate(68.3822 58.1002) scale(50.0095 50.0095)">
<stop stop-color="#F9CD78"/>
<stop offset="1" stop-color="#FFC82A"/>
</radialGradient>
<radialGradient id="paint1_radial_16_4521" cx="0" cy="0" r="1" gradientUnits="userSpaceOnUse" gradientTransform="translate(61.4941 66.7769) rotate(-38.881) scale(36.7059 26.5043)">
<stop stop-color="#FDC079"/>
<stop offset="0.955" stop-color="#FFB06B" stop-opacity="0"/>
</radialGradient>
<radialGradient id="paint2_radial_16_4521" cx="0" cy="0" r="1" gradientUnits="userSpaceOnUse" gradientTransform="translate(82.1853 77.0771) scale(34.855 34.8551)">
<stop stop-color="#FDC079"/>
<stop offset="0.955" stop-color="#FFB06B"/>
</radialGradient>
<radialGradient id="paint3_radial_16_4521" cx="0" cy="0" r="1" gradientUnits="userSpaceOnUse" gradientTransform="translate(84.0589 77.6782) scale(33.6103)">
<stop stop-color="#FDC079"/>
<stop offset="0.955" stop-color="#FFB06B"/>
</radialGradient>
<radialGradient id="paint4_radial_16_4521" cx="0" cy="0" r="1" gradientUnits="userSpaceOnUse" gradientTransform="translate(90.5179 55.0055) scale(35.934 35.934)">
<stop stop-color="#FDC079"/>
<stop offset="0.955" stop-color="#FFB06B"/>
</radialGradient>
<radialGradient id="paint5_radial_16_4521" cx="0" cy="0" r="1" gradientUnits="userSpaceOnUse" gradientTransform="translate(80.121 81.5113) scale(35.934 35.934)">
<stop stop-color="#FDC079"/>
<stop offset="0.955" stop-color="#FFB06B"/>
</radialGradient>
<radialGradient id="paint6_radial_16_4521" cx="0" cy="0" r="1" gradientUnits="userSpaceOnUse" gradientTransform="translate(76.0943 73.3708) scale(37.0874 37.0874)">
<stop stop-color="#FDC079"/>
<stop offset="0.955" stop-color="#633E24"/>
</radialGradient>
<radialGradient id="paint7_radial_16_4521" cx="0" cy="0" r="1" gradientUnits="userSpaceOnUse" gradientTransform="translate(85.6455 63.5347) scale(36.7924 36.7924)">
<stop stop-color="#FDC079"/>
<stop offset="0.955" stop-color="#FFB06B"/>
</radialGradient>
<radialGradient id="paint8_radial_16_4521" cx="0" cy="0" r="1" gradientUnits="userSpaceOnUse" gradientTransform="translate(76.6453 88.669) scale(36.2164 36.2164)">
<stop stop-color="#FDC079"/>
<stop offset="0.955" stop-color="#633E24"/>
</radialGradient>
<radialGradient id="paint9_radial_16_4521" cx="0" cy="0" r="1" gradientUnits="userSpaceOnUse" gradientTransform="translate(90.336 43.1152) scale(36.2164 36.2164)">
<stop stop-color="#FDC079"/>
<stop offset="0.955" stop-color="#633E24"/>
</radialGradient>
<clipPath id="clip0_16_4521">
<rect width="75.9609" height="75.9609" fill="white" transform="translate(41.5195 35.0195)"/>
</clipPath>
<clipPath id="clip1_16_4521">
<rect width="13" height="8" fill="white" transform="translate(126.48 69)"/>
</clipPath>
</defs>
</svg>
