<svg width="908" height="322" viewBox="0 0 908 322" fill="none" xmlns="http://www.w3.org/2000/svg">
<path d="M112.638 160.638C112.638 222.846 62.2082 273.276 0 273.276C0 273.276 0 195.09 0 132.882C0 70.6739 0 48 0 48C62.2082 48 112.638 98.4297 112.638 160.638Z" fill="white"/>
<circle cx="155.916" cy="160.638" r="2.51" fill="white"/>
<g clip-path="url(#clip0_17_5259)">
<path d="M212.153 161.678C212.727 158.111 210.301 154.753 206.734 154.178C203.167 153.604 199.809 156.03 199.234 159.597C198.659 163.165 201.085 166.522 204.653 167.097C208.22 167.672 211.578 165.246 212.153 161.678Z" fill="url(#paint0_radial_17_5259)"/>
<path style="mix-blend-mode:screen" opacity="0.7" d="M208.298 156.69C209.501 158.182 208.804 160.74 206.74 162.404C204.676 164.068 202.028 164.207 200.825 162.715C199.622 161.223 200.32 158.665 202.383 157.001C204.447 155.337 207.095 155.198 208.298 156.69Z" fill="url(#paint1_radial_17_5259)"/>
<path style="mix-blend-mode:multiply" opacity="0.332" d="M212.236 160.638C212.236 164.25 209.307 167.18 205.693 167.18C203.3 167.18 201.208 165.895 200.069 163.979C201.183 164.851 202.584 165.372 204.107 165.372C207.721 165.372 210.648 162.442 210.648 158.828C210.648 157.609 210.314 156.469 209.734 155.492C211.257 156.691 212.236 158.55 212.236 160.638Z" fill="url(#paint2_radial_17_5259)"/>
<path style="mix-blend-mode:multiply" opacity="0.332" d="M212.237 160.638C212.237 164.25 209.307 167.18 205.693 167.18C203.698 167.18 201.91 166.286 200.711 164.877C201.859 165.875 203.36 166.482 205.003 166.482C208.617 166.482 211.546 163.552 211.546 159.94C211.546 158.322 210.958 156.839 209.983 155.697C211.363 156.899 212.237 158.666 212.237 160.639L212.237 160.638Z" fill="url(#paint3_radial_17_5259)"/>
<mask id="mask0_17_5259" style="mask-type:luminance" maskUnits="userSpaceOnUse" x="199" y="154" width="14" height="14">
<path d="M212.153 161.678C212.727 158.111 210.301 154.753 206.734 154.178C203.167 153.604 199.809 156.03 199.234 159.597C198.659 163.165 201.085 166.522 204.653 167.097C208.22 167.672 211.578 165.246 212.153 161.678Z" fill="white"/>
</mask>
<g mask="url(#mask0_17_5259)">
<g style="mix-blend-mode:screen" opacity="0.347">
<path d="M199.313 155.266C200.198 155.985 201.186 156.584 202.195 157.11C203.214 157.642 204.268 158.113 205.348 158.509C207.508 159.301 209.76 159.813 212.051 160.03C212.686 160.09 213.322 160.128 213.959 160.143C214.286 160.15 214.614 160.156 214.941 160.144C215.268 160.132 215.603 160.141 215.912 160.028C216.047 159.979 216.066 159.776 215.912 159.735C215.634 159.66 215.356 159.675 215.07 159.672C214.785 159.668 214.502 159.667 214.218 159.661C213.658 159.648 213.098 159.617 212.54 159.569C211.421 159.473 210.312 159.299 209.212 159.069C207.009 158.607 204.857 157.875 202.833 156.89C201.684 156.331 200.591 155.681 199.484 155.045C199.351 154.968 199.186 155.162 199.314 155.266L199.313 155.266Z" fill="url(#paint4_radial_17_5259)"/>
</g>
<g style="mix-blend-mode:screen" opacity="0.347">
<path d="M197.534 159.802C198.418 160.521 199.407 161.12 200.416 161.647C201.435 162.178 202.489 162.649 203.568 163.045C205.729 163.837 207.981 164.349 210.272 164.566C210.906 164.627 211.543 164.664 212.18 164.679C212.507 164.686 212.835 164.692 213.162 164.68C213.488 164.669 213.823 164.677 214.132 164.565C214.267 164.515 214.286 164.313 214.132 164.271C213.855 164.196 213.576 164.211 213.291 164.208C213.006 164.205 212.722 164.203 212.438 164.197C211.878 164.184 211.319 164.153 210.761 164.106C209.641 164.009 208.532 163.835 207.433 163.605C205.23 163.144 203.078 162.411 201.053 161.426C199.905 160.867 198.812 160.217 197.705 159.581C197.571 159.505 197.406 159.699 197.534 159.803L197.534 159.802Z" fill="url(#paint5_radial_17_5259)"/>
</g>
<g opacity="0.347">
<path d="M196.771 158.566C197.178 159.026 197.671 159.404 198.179 159.746C198.651 160.064 199.13 160.37 199.632 160.639C200.698 161.21 201.804 161.719 202.939 162.137C204.023 162.535 205.132 162.864 206.258 163.122C207.433 163.391 208.636 163.553 209.837 163.649C210.412 163.695 210.988 163.722 211.564 163.731C211.857 163.735 212.151 163.74 212.443 163.73C212.581 163.725 212.719 163.708 212.857 163.694C213.049 163.675 213.256 163.669 213.44 163.608C213.652 163.537 213.832 163.423 213.922 163.212C214.033 162.954 213.955 162.689 213.735 162.519C213.43 162.283 212.991 162.322 212.624 162.296C212.048 162.256 211.47 162.263 210.893 162.223C210.601 162.202 210.309 162.177 210.017 162.147C209.88 162.133 209.742 162.118 209.605 162.102C209.537 162.094 209.468 162.085 209.4 162.077C209.366 162.073 209.331 162.068 209.297 162.064C209.152 162.045 209.421 162.081 209.322 162.067C208.752 161.987 208.183 161.893 207.618 161.778C206.485 161.549 205.363 161.287 204.26 160.937C203.702 160.76 203.151 160.563 202.603 160.358C202.337 160.258 202.073 160.154 201.81 160.046C201.779 160.033 201.747 160.02 201.715 160.007C201.69 159.996 201.584 159.953 201.686 159.995C201.788 160.037 201.682 159.993 201.657 159.982C201.625 159.969 201.593 159.955 201.561 159.941C201.427 159.883 201.292 159.824 201.159 159.763C200.096 159.284 199.075 158.721 198.023 158.222C197.745 158.09 197.471 157.966 197.183 157.859C197.01 157.794 196.794 157.902 196.705 158.053C196.607 158.221 196.646 158.424 196.771 158.565L196.771 158.566Z" fill="url(#paint6_radial_17_5259)"/>
</g>
<g style="mix-blend-mode:screen" opacity="0.347">
<path d="M198.424 156.843C198.838 157.274 199.318 157.638 199.815 157.966C200.297 158.285 200.786 158.591 201.296 158.863C202.346 159.422 203.436 159.919 204.553 160.33C206.759 161.141 209.047 161.648 211.389 161.846C212.032 161.9 212.677 161.931 213.323 161.939C213.65 161.943 213.978 161.946 214.305 161.92C214.69 161.889 215.137 161.906 215.4 161.578C215.532 161.415 215.555 161.203 215.4 161.041C215.278 160.912 215.144 160.828 214.966 160.796C214.79 160.765 214.612 160.763 214.434 160.754C214.15 160.74 213.866 160.734 213.581 160.726C213.013 160.711 212.445 160.678 211.878 160.627C211.594 160.601 211.311 160.571 211.029 160.536C210.96 160.528 210.892 160.519 210.824 160.51C210.802 160.508 210.691 160.492 210.781 160.505C210.87 160.517 210.76 160.502 210.738 160.499C210.594 160.479 210.449 160.457 210.304 160.434C209.743 160.346 209.186 160.236 208.629 160.122C207.515 159.894 206.415 159.596 205.338 159.231C204.8 159.049 204.266 158.852 203.739 158.642C203.619 158.594 203.5 158.546 203.38 158.496C203.349 158.483 203.317 158.47 203.285 158.457C203.199 158.421 203.378 158.497 203.292 158.46C203.221 158.429 203.149 158.398 203.078 158.367C202.809 158.25 202.542 158.128 202.277 158.003C201.709 157.733 201.144 157.452 200.587 157.16C200.013 156.859 199.449 156.544 198.852 156.291C198.69 156.223 198.511 156.229 198.397 156.382C198.292 156.523 198.3 156.715 198.425 156.844L198.424 156.843Z" fill="url(#paint7_radial_17_5259)"/>
</g>
<g opacity="0.347">
<path d="M196.921 161.066C197.785 161.829 198.797 162.443 199.815 162.977C200.842 163.516 201.906 163.994 202.995 164.393C205.176 165.193 207.446 165.703 209.76 165.912C210.395 165.97 211.031 166.005 211.668 166.016C211.995 166.022 212.324 166.028 212.65 166.011C212.993 165.993 213.339 166.001 213.644 165.829C213.782 165.751 213.803 165.507 213.644 165.435C213.502 165.371 213.376 165.33 213.219 165.317C213.073 165.305 212.926 165.31 212.78 165.306C212.495 165.3 212.211 165.297 211.927 165.29C211.358 165.277 210.79 165.245 210.224 165.196C209.115 165.099 208.02 164.922 206.93 164.696C204.729 164.239 202.576 163.512 200.552 162.535C199.401 161.98 198.309 161.324 197.178 160.735C196.975 160.629 196.733 160.9 196.921 161.066L196.921 161.066Z" fill="url(#paint8_radial_17_5259)"/>
</g>
<g opacity="0.5">
<path d="M199.264 153.27C200.127 154.033 201.139 154.647 202.158 155.181C203.185 155.72 204.248 156.198 205.338 156.597C207.519 157.397 209.789 157.907 212.103 158.116C212.737 158.174 213.374 158.209 214.011 158.22C214.338 158.226 214.666 158.231 214.993 158.215C215.336 158.197 215.681 158.205 215.987 158.033C216.125 157.955 216.146 157.71 215.987 157.639C215.844 157.575 215.719 157.534 215.562 157.521C215.416 157.509 215.268 157.514 215.122 157.51C214.838 157.503 214.554 157.501 214.27 157.494C213.701 157.481 213.133 157.449 212.566 157.4C211.458 157.303 210.363 157.126 209.273 156.9C207.072 156.443 204.919 155.716 202.894 154.739C201.744 154.184 200.651 153.528 199.52 152.939C199.317 152.833 199.076 153.104 199.264 153.27L199.264 153.27Z" fill="url(#paint9_radial_17_5259)"/>
</g>
</g>
</g>
<circle cx="259.777" cy="160.638" r="6.81567" fill="white"/>
<circle cx="310.588" cy="160.638" r="3.22848" fill="white"/>
<circle cx="430.274" cy="160.638" r="75.6898" fill="white"/>
<circle cx="609.149" cy="160.638" r="62.4172" fill="white"/>
<circle cx="739.955" cy="160.638" r="27.6214" fill="white"/>
<circle cx="834.172" cy="160.638" r="25.8278" fill="white"/>
<g clip-path="url(#clip1_17_5259)">
<path d="M194.591 127.566C198.002 131.52 201.486 135.407 205.026 139.243C205.963 140.262 207.22 139.921 208.235 139.196C212.086 136.453 215.911 133.684 219.715 130.884C221.061 129.895 221.351 128.446 220.445 127.385C219.384 126.143 218.178 126.132 216.874 127.09C214.964 128.492 211.801 131.023 209.296 132.918C211.005 107.792 220.451 91.7192 229.388 81.9621C229.824 81.5268 230.507 79.6727 229.4 78.5661C228.294 77.4595 226.51 78.1986 225.822 78.8865C217.257 88.2653 206.682 105.046 204.7 131.914C202.862 129.838 200.663 127.312 199.25 125.744C198.882 125.335 198.53 124.906 198.132 124.528C197.071 123.524 195.88 123.477 194.814 124.403C193.758 125.314 193.779 126.624 194.591 127.566Z" fill="white"/>
</g>
<rect x="2.86976" y="2.86976" width="902.26" height="315.536" stroke="white" stroke-width="5.73951"/>
<defs>
<radialGradient id="paint0_radial_17_5259" cx="0" cy="0" r="1" gradientUnits="userSpaceOnUse" gradientTransform="translate(203.791 158.088) scale(8.55865)">
<stop stop-color="#F9CD78"/>
<stop offset="1" stop-color="#FFC82A"/>
</radialGradient>
<radialGradient id="paint1_radial_17_5259" cx="0" cy="0" r="1" gradientUnits="userSpaceOnUse" gradientTransform="translate(202.612 159.573) rotate(-38.881) scale(6.28187 4.53596)">
<stop stop-color="#FDC079"/>
<stop offset="0.955" stop-color="#FFB06B" stop-opacity="0"/>
</radialGradient>
<radialGradient id="paint2_radial_17_5259" cx="0" cy="0" r="1" gradientUnits="userSpaceOnUse" gradientTransform="translate(206.153 161.336) scale(5.96511)">
<stop stop-color="#FDC079"/>
<stop offset="0.955" stop-color="#FFB06B"/>
</radialGradient>
<radialGradient id="paint3_radial_17_5259" cx="0" cy="0" r="1" gradientUnits="userSpaceOnUse" gradientTransform="translate(206.474 161.439) scale(5.75209)">
<stop stop-color="#FDC079"/>
<stop offset="0.955" stop-color="#FFB06B"/>
</radialGradient>
<radialGradient id="paint4_radial_17_5259" cx="0" cy="0" r="1" gradientUnits="userSpaceOnUse" gradientTransform="translate(207.579 157.558) scale(6.14977)">
<stop stop-color="#FDC079"/>
<stop offset="0.955" stop-color="#FFB06B"/>
</radialGradient>
<radialGradient id="paint5_radial_17_5259" cx="0" cy="0" r="1" gradientUnits="userSpaceOnUse" gradientTransform="translate(205.8 162.095) scale(6.14977)">
<stop stop-color="#FDC079"/>
<stop offset="0.955" stop-color="#FFB06B"/>
</radialGradient>
<radialGradient id="paint6_radial_17_5259" cx="0" cy="0" r="1" gradientUnits="userSpaceOnUse" gradientTransform="translate(205.111 160.701) scale(6.34716 6.34716)">
<stop stop-color="#FDC079"/>
<stop offset="0.955" stop-color="#633E24"/>
</radialGradient>
<radialGradient id="paint7_radial_17_5259" cx="0" cy="0" r="1" gradientUnits="userSpaceOnUse" gradientTransform="translate(206.745 159.018) scale(6.29667 6.29667)">
<stop stop-color="#FDC079"/>
<stop offset="0.955" stop-color="#FFB06B"/>
</radialGradient>
<radialGradient id="paint8_radial_17_5259" cx="0" cy="0" r="1" gradientUnits="userSpaceOnUse" gradientTransform="translate(205.205 163.32) scale(6.19809)">
<stop stop-color="#FDC079"/>
<stop offset="0.955" stop-color="#633E24"/>
</radialGradient>
<radialGradient id="paint9_radial_17_5259" cx="0" cy="0" r="1" gradientUnits="userSpaceOnUse" gradientTransform="translate(207.548 155.523) scale(6.19809)">
<stop stop-color="#FDC079"/>
<stop offset="0.955" stop-color="#633E24"/>
</radialGradient>
<clipPath id="clip0_17_5259">
<rect width="13" height="13" fill="white" transform="translate(199.193 154.138)"/>
</clipPath>
<clipPath id="clip1_17_5259">
<rect width="36" height="61.8816" fill="white" transform="matrix(-1 0 0 1 230 78)"/>
</clipPath>
</defs>
</svg>
